# This file uses centimeters as units for non-parametric coordinates.

mtllib Box.mtl
g default
v -24.514009 0.681858 24.514009
v 24.514009 0.681858 24.514009
v -24.514009 26.303532 24.514009
v 24.514009 26.303532 24.514009
v -24.514009 26.303532 -24.514009
v 24.514009 26.303532 -24.514009
v -24.514009 0.681858 -24.514009
v 24.514009 0.681858 -24.514009
v 23.695496 26.303532 24.514009
v 23.695496 26.303532 -24.514009
v 23.695496 0.681858 -24.514009
v 23.695496 0.681858 24.514009
v -23.695503 26.303532 24.514009
v -23.695503 26.303532 -24.514009
v -23.695503 0.681858 -24.514009
v -23.695503 0.681858 24.514009
v -24.514009 26.303532 -22.517719
v -24.514009 0.681858 -22.517719
v -23.695503 0.681858 -22.517719
v 23.695496 0.681858 -22.517719
v 24.514009 0.681858 -22.517719
v 24.514009 26.303532 -22.517719
v 23.695496 26.303532 -22.517719
v -23.695503 26.303532 -22.517719
v -24.514009 26.303532 22.517719
v -24.514009 0.681858 22.517719
v -23.695503 0.681858 22.517719
v 23.695496 0.681858 22.517719
v 24.514009 0.681858 22.517719
v 24.514009 26.303532 22.517719
v 23.695496 26.303532 22.517719
v -23.695503 26.303532 22.517719
v -24.514009 31.207806 3.139122
v -23.695503 31.207806 3.139122
v -23.695503 31.207806 3.039863
v -24.514009 31.207806 3.039863
v 23.695496 31.207806 3.139122
v 24.514009 31.207806 3.139122
v 24.514009 31.207806 3.039863
v 23.695496 31.207806 3.039863
v 24.514009 31.392284 -4.984170
v 23.695496 31.392284 -4.984170
v 24.514009 31.392284 -5.083430
v 23.695496 31.392284 -5.083430
v -23.695503 31.392284 -4.984170
v -23.695503 31.392284 -5.083430
v -24.514009 31.392284 -4.984170
v -24.514009 31.392284 -5.083430
v 23.695496 15.345931 22.517719
v -23.695503 15.345931 22.517719
v 23.695496 15.345931 -22.517719
v -23.695503 15.345931 -22.517719
v -34.891109 32.077805 22.517719
v -35.562912 32.077805 22.517719
v -34.891109 32.077805 -22.517719
v -35.562912 32.077805 -22.517719
v 4.010647 26.544014 22.517719
v 3.192131 26.544014 22.517719
v 4.010647 26.544014 -22.517719
v 3.192131 26.544014 -22.517719
vt 0.852596 0.844416
vt 0.852595 0.840406
vt 0.978126 0.840391
vt 0.978127 0.844401
vt 0.612401 0.969977
vt 0.486854 0.840450
vt 0.612386 0.840435
vt 0.612386 0.844445
vt 0.842815 0.844417
vt 0.842814 0.840407
vt 0.852567 0.604207
vt 0.842786 0.604208
vt 0.842771 0.478677
vt 0.852551 0.478676
vt 0.842830 0.969949
vt 0.612358 0.608246
vt 0.486827 0.608262
vt 0.486826 0.604251
vt 0.612357 0.604236
vt 0.852567 0.608217
vt 0.842786 0.608219
vt 0.978098 0.608202
vt 0.622167 0.844444
vt 0.622182 0.969975
vt 0.622167 0.840434
vt 0.622138 0.608245
vt 0.622138 0.604235
vt 0.622123 0.478704
vt 0.603638 0.436332
vt 0.167468 0.035389
vt 0.163759 0.037108
vt 0.164453 0.037691
vt 0.167399 0.034948
vt 0.605835 0.183834
vt 0.639250 0.212417
vt 0.632225 0.403251
vt 0.848778 0.183780
vt 0.612342 0.478705
vt 0.486855 0.844460
vt 0.978098 0.604192
vt 0.852611 0.969948
vt 0.340487 0.275728
vt 0.340487 0.054748
vt 0.550483 0.054748
vt 0.550483 0.275728
vt 0.141738 0.330217
vt 0.146147 0.330218
vt 0.146132 0.625778
vt 0.141723 0.625778
vt 0.228819 0.330222
vt 0.228804 0.625782
vt 0.059906 0.625773
vt 0.059921 0.330213
vt 0.055160 0.327725
vt 0.137831 0.328175
vt 0.055145 0.628261
vt 0.137815 0.627819
vt 0.057265 0.049225
vt 0.046484 0.048213
vt 0.160674 0.034693
vt 0.161230 0.034736
vt 0.046533 0.301873
vt 0.055639 0.299035
vt 0.156923 0.294916
vt 0.156446 0.295060
vt 0.157102 0.291704
vt 0.158122 0.294851
vt 0.157634 0.294982
vt 0.157189 0.290719
vt 0.260978 0.294959
vt 0.260289 0.298049
vt 0.163693 0.038308
vt 0.283068 0.070402
vt 0.285070 0.067917
vt 0.059017 0.052978
vt 0.055139 0.294787
vt 0.820710 0.217357
vt 0.848804 0.437174
vt 0.814937 0.409318
vt 0.270584 0.591001
vt 0.260098 0.588089
vt 0.366804 0.590631
vt 0.367229 0.590753
vt 0.261680 0.330065
vt 0.271808 0.327350
vt 0.367599 0.329555
vt 0.367109 0.329690
vt 0.367884 0.586230
vt 0.367317 0.590464
vt 0.367368 0.586346
vt 0.260112 0.583740
vt 0.367687 0.334008
vt 0.367164 0.334028
vt 0.261633 0.334399
vt 0.367635 0.329682
vt 0.464498 0.584518
vt 0.464610 0.588852
vt 0.367986 0.590566
vt 0.464513 0.334204
vt 0.464522 0.329868
vt 0.367807 0.329674
vt 0.174742 0.642760
vt 0.179452 0.642755
vt 0.179718 0.901949
vt 0.175007 0.901954
vt 0.297464 0.642634
vt 0.297730 0.901828
vt 0.056995 0.902075
vt 0.056730 0.642881
vt 0.292754 0.642584
vt 0.174742 0.642705
vt 0.293020 0.901888
vt 0.175008 0.902009
vn 0.000000 0.000000 1.000000
vn 0.000000 0.000000 1.000000
vn 0.000000 0.000000 1.000000
vn 0.000000 0.000000 1.000000
vn 0.000000 1.000000 0.000000
vn 0.000000 1.000000 0.000000
vn 0.000000 1.000000 0.000000
vn 0.000000 1.000000 0.000000
vn 0.000000 0.000000 -1.000000
vn 0.000000 0.000000 -1.000000
vn 0.000000 0.000000 -1.000000
vn 0.000000 0.000000 -1.000000
vn 0.000000 -1.000000 0.000000
vn 0.000000 -1.000000 0.000000
vn 0.000000 -1.000000 0.000000
vn 0.000000 -1.000000 0.000000
vn 1.000000 0.000000 0.000000
vn 1.000000 0.000000 0.000000
vn 1.000000 0.000000 0.000000
vn 1.000000 0.000000 0.000000
vn -1.000000 0.000000 0.000000
vn -1.000000 0.000000 0.000000
vn -1.000000 0.000000 0.000000
vn -1.000000 0.000000 0.000000
vn 0.000000 1.000000 0.000000
vn 0.000000 1.000000 0.000000
vn 0.000000 1.000000 0.000000
vn 0.000000 1.000000 0.000000
vn 0.000000 0.000000 -1.000000
vn 0.000000 0.000000 -1.000000
vn 0.000000 0.000000 -1.000000
vn 0.000000 0.000000 -1.000000
vn 0.000000 -1.000000 0.000000
vn 0.000000 -1.000000 0.000000
vn 0.000000 -1.000000 0.000000
vn 0.000000 -1.000000 0.000000
vn 0.000000 0.000000 1.000000
vn 0.000000 0.000000 1.000000
vn 0.000000 0.000000 1.000000
vn 0.000000 0.000000 1.000000
vn 0.000000 1.000000 0.000000
vn 0.000000 1.000000 0.000000
vn 0.000000 1.000000 0.000000
vn 0.000000 1.000000 0.000000
vn 0.000000 0.000000 -1.000000
vn 0.000000 0.000000 -1.000000
vn 0.000000 0.000000 -1.000000
vn 0.000000 0.000000 -1.000000
vn 0.000000 -1.000000 0.000000
vn 0.000000 -1.000000 0.000000
vn 0.000000 -1.000000 0.000000
vn 0.000000 -1.000000 0.000000
vn 0.000000 0.000000 1.000000
vn 0.000000 0.000000 1.000000
vn 0.000000 0.000000 1.000000
vn 0.000000 0.000000 1.000000
vn -1.000000 0.000000 0.000000
vn -1.000000 0.000000 0.000000
vn -1.000000 0.000000 0.000000
vn -1.000000 0.000000 0.000000
vn 0.000000 -1.000000 0.000000
vn 0.000000 -1.000000 0.000000
vn 0.000000 -1.000000 0.000000
vn 0.000000 -1.000000 0.000000
vn 0.000000 -1.000000 0.000000
vn 0.000000 -1.000000 0.000000
vn 0.000000 -1.000000 0.000000
vn 0.000000 -1.000000 0.000000
vn 0.000000 -1.000000 0.000000
vn 0.000000 -1.000000 0.000000
vn 0.000000 -1.000000 0.000000
vn 0.000000 -1.000000 0.000000
vn 1.000000 0.000000 0.000000
vn 1.000000 0.000000 0.000000
vn 1.000000 0.000000 0.000000
vn 1.000000 0.000000 0.000000
vn 0.000000 1.000000 0.000000
vn 0.000000 1.000000 0.000000
vn 0.000000 1.000000 0.000000
vn 0.000000 1.000000 0.000000
vn 0.000000 1.000000 0.000000
vn 0.000000 1.000000 0.000000
vn 0.000000 1.000000 0.000000
vn 0.000000 1.000000 0.000000
vn 0.000000 1.000000 0.000000
vn 0.000000 1.000000 0.000000
vn 0.000000 1.000000 0.000000
vn 0.000000 1.000000 0.000000
vn -1.000000 0.000000 0.000000
vn -1.000000 0.000000 0.000000
vn -1.000000 0.000000 0.000000
vn -1.000000 0.000000 0.000000
vn 0.000000 -1.000000 0.000000
vn 0.000000 -1.000000 0.000000
vn 0.000000 -1.000000 0.000000
vn 0.000000 -1.000000 0.000000
vn 0.000000 -1.000000 0.000000
vn 0.000000 -1.000000 0.000000
vn 0.000000 -1.000000 0.000000
vn 0.000000 -1.000000 0.000000
vn 0.000000 -1.000000 0.000000
vn 0.000000 -1.000000 0.000000
vn 0.000000 -1.000000 0.000000
vn 0.000000 -1.000000 0.000000
vn 1.000000 0.000000 0.000000
vn 1.000000 0.000000 0.000000
vn 1.000000 0.000000 0.000000
vn 1.000000 0.000000 0.000000
vn 0.000000 1.000000 0.000000
vn 0.000000 1.000000 0.000000
vn 0.000000 1.000000 0.000000
vn 0.000000 1.000000 0.000000
vn 0.000000 1.000000 0.000000
vn 0.000000 1.000000 0.000000
vn 0.000000 1.000000 0.000000
vn 0.000000 1.000000 0.000000
vn 0.000000 1.000000 0.000000
vn 0.000000 1.000000 0.000000
vn 0.000000 1.000000 0.000000
vn 0.000000 1.000000 0.000000
vn 0.000000 0.974674 0.223630
vn 0.000000 0.974674 0.223630
vn 0.000000 0.974674 0.223630
vn 0.000000 0.974674 0.223630
vn 0.000000 -0.969733 -0.244166
vn 0.000000 -0.969733 -0.244166
vn 0.000000 -0.969733 -0.244166
vn 0.000000 -0.969733 -0.244166
vn -1.000000 0.000000 0.000000
vn -1.000000 0.000000 0.000000
vn -1.000000 0.000000 0.000000
vn -1.000000 0.000000 0.000000
vn 0.000000 0.974674 0.223630
vn 0.000000 0.974674 0.223630
vn 0.000000 0.974674 0.223630
vn 0.000000 0.974674 0.223630
vn 1.000000 0.000000 0.000000
vn 1.000000 0.000000 0.000000
vn 1.000000 0.000000 0.000000
vn 1.000000 0.000000 0.000000
vn 0.000000 -0.969733 -0.244166
vn 0.000000 -0.969733 -0.244166
vn 0.000000 -0.969733 -0.244166
vn 0.000000 -0.969733 -0.244166
vn 0.000000 0.974674 0.223630
vn 0.000000 0.974674 0.223630
vn 0.000000 0.974674 0.223630
vn 0.000000 0.974674 0.223630
vn 0.000000 -0.969733 -0.244166
vn 0.000000 -0.969733 -0.244166
vn 0.000000 -0.969733 -0.244166
vn 0.000000 -0.969733 -0.244166
vn 0.000000 -0.960370 0.278727
vn 0.000000 -0.960370 0.278727
vn 0.000000 -0.960370 0.278727
vn 0.000000 -0.960370 0.278727
vn 1.000000 0.000006 0.000000
vn 1.000000 0.000006 0.000000
vn 1.000000 0.000006 0.000000
vn 1.000000 0.000006 0.000000
vn 0.000000 0.967375 -0.253350
vn 0.000000 0.967375 -0.253350
vn 0.000000 0.967375 -0.253350
vn 0.000000 0.967375 -0.253350
vn 0.000000 -0.960370 0.278728
vn 0.000000 -0.960370 0.278728
vn 0.000000 -0.960370 0.278728
vn 0.000000 -0.960370 0.278728
vn 0.000000 0.967375 -0.253350
vn 0.000000 0.967375 -0.253350
vn 0.000000 0.967375 -0.253350
vn 0.000000 0.967375 -0.253350
vn 0.000000 -0.960370 0.278728
vn 0.000000 -0.960370 0.278728
vn 0.000000 -0.960370 0.278728
vn 0.000000 -0.960370 0.278728
vn 0.000000 0.967375 -0.253350
vn 0.000000 0.967375 -0.253350
vn 0.000000 0.967375 -0.253350
vn 0.000000 0.967375 -0.253350
vn -1.000000 0.000006 0.000000
vn -1.000000 0.000006 0.000000
vn -1.000000 0.000006 0.000000
vn -1.000000 0.000006 0.000000
vn 0.000000 0.000000 -1.000000
vn 0.000000 0.000000 -1.000000
vn 0.000000 0.000000 -1.000000
vn 0.000000 0.000000 -1.000000
vn -1.000000 0.000000 0.000000
vn -1.000000 0.000000 0.000000
vn -1.000000 0.000000 0.000000
vn -1.000000 0.000000 0.000000
vn 0.000000 0.000000 1.000000
vn 0.000000 0.000000 1.000000
vn 0.000000 0.000000 1.000000
vn 0.000000 0.000000 1.000000
vn 1.000000 0.000000 0.000000
vn 1.000000 0.000000 0.000000
vn 1.000000 0.000000 0.000000
vn 1.000000 0.000000 0.000000
vn 0.000000 0.000000 1.000000
vn 0.000000 0.000000 1.000000
vn 0.000000 0.000000 1.000000
vn 0.000000 0.000000 1.000000
vn 0.458386 0.888753 0.000000
vn 0.458386 0.888753 0.000000
vn 0.458386 0.888753 0.000000
vn 0.458386 0.888753 0.000000
vn 0.000000 0.000000 -1.000000
vn 0.000000 0.000000 -1.000000
vn 0.000000 0.000000 -1.000000
vn 0.000000 0.000000 -1.000000
vn -0.463173 -0.886268 0.000000
vn -0.463173 -0.886268 0.000000
vn -0.463173 -0.886268 0.000000
vn -0.463173 -0.886268 0.000000
vn 0.000000 0.000000 1.000000
vn 0.000000 0.000000 1.000000
vn 0.000000 0.000000 1.000000
vn 0.000000 0.000000 1.000000
vn 0.011728 0.999931 0.000000
vn 0.011728 0.999931 0.000000
vn 0.011728 0.999931 0.000000
vn 0.011728 0.999931 0.000000
vn 0.000000 0.000000 -1.000000
vn 0.000000 0.000000 -1.000000
vn 0.000000 0.000000 -1.000000
vn 0.000000 0.000000 -1.000000
vn -0.011728 -0.999931 0.000000
vn -0.011728 -0.999931 0.000000
vn -0.011728 -0.999931 0.000000
vn -0.011728 -0.999931 0.000000
s off
g Box
usemtl BoxSG
f 1/1/1 16/2/2 13/3/3 3/4/4
f 33/30/5 34/31/6 35/32/7 36/33/8
f 5/39/9 14/6/10 15/7/11 7/8/12
f 26/9/13 27/10/14 16/2/15 1/1/16
f 2/11/17 29/12/18 30/13/19 4/14/20
f 26/9/21 1/1/22 3/41/23 25/15/24
f 37/66/25 38/67/26 39/68/27 40/69/28
f 11/16/29 10/17/30 6/18/31 8/19/32
f 12/20/33 28/21/34 29/12/35 2/11/36
f 9/22/37 12/20/38 2/11/39 4/40/40
f 34/31/41 37/66/42 40/69/43 35/72/44
f 15/7/45 14/6/46 10/17/47 11/16/48
f 16/2/49 27/10/50 28/21/51 12/20/52
f 13/3/53 16/2/54 12/20/55 9/22/56
f 7/8/57 18/23/58 17/24/59 5/5/60
f 7/8/61 15/7/62 19/25/63 18/23/64
f 20/26/65 19/25/66 15/7/67 11/16/68
f 21/27/69 20/26/70 11/16/71 8/19/72
f 22/28/73 21/27/74 8/19/75 6/38/76
f 42/88/77 41/89/78 43/82/79 44/90/80
f 45/92/81 42/88/82 44/90/83 46/93/84
f 47/95/85 45/92/86 46/93/87 48/87/88
f 18/23/89 26/9/90 25/15/91 17/24/92
f 18/23/93 19/25/94 27/10/95 26/9/96
f 28/21/97 27/10/98 19/25/99 20/26/100
f 29/12/101 28/21/102 20/26/103 21/27/104
f 30/13/105 29/12/106 21/27/107 22/28/108
f 58/102/109 57/103/110 59/104/111 60/105/112
f 50/42/113 49/43/114 51/44/115 52/45/116
f 54/46/117 53/47/118 55/48/119 56/49/120
f 3/74/121 13/73/122 34/31/123 33/30/124
f 32/75/125 25/58/126 36/61/127 35/72/128
f 25/58/129 3/59/130 33/60/131 36/61/132
f 9/70/133 4/71/134 38/67/135 37/66/136
f 4/62/137 30/63/138 39/64/139 38/65/140
f 30/63/141 31/76/142 40/69/143 39/64/144
f 13/73/145 9/70/146 37/66/147 34/31/148
f 31/76/149 32/75/150 35/72/151 40/69/152
f 23/96/153 22/97/154 41/98/155 42/88/156
f 22/80/157 6/81/158 43/82/159 41/83/160
f 6/81/161 10/91/162 44/90/163 43/82/164
f 24/99/165 23/96/166 42/88/167 45/92/168
f 10/91/169 14/94/170 46/93/171 44/90/172
f 17/100/173 24/99/174 45/92/175 47/101/176
f 14/94/177 5/84/178 48/87/179 46/93/180
f 5/84/181 17/85/182 47/86/183 48/87/184
f 32/29/185 31/34/186 49/35/187 50/36/188
f 31/34/189 23/37/190 51/77/191 49/35/192
f 23/37/193 24/78/194 52/79/195 51/77/196
f 24/78/197 32/29/198 50/36/199 52/79/200
f 25/53/201 32/54/202 53/55/203 54/46/204
f 32/50/205 24/51/206 55/48/207 53/47/208
f 24/56/209 17/52/210 56/49/211 55/57/212
f 17/52/213 25/53/214 54/46/215 56/49/216
f 31/110/217 30/106/218 57/103/219 58/111/220
f 30/106/221 22/107/222 59/104/223 57/103/224
f 22/107/225 23/112/226 60/113/227 59/104/228
f 23/108/229 31/109/230 58/102/231 60/105/232
