{
  "accessors": [
    {
      "bufferView": 0,
      "componentType": 5125,
      "count": 120,
      "type": "SCALAR"
    },
    {
      "bufferView": 1,
      "componentType": 5126,
      "count": 72,
      "max": [
        9.5,
        11.7367706298828,
        9.49996948242188
      ],
      "min": [
        -351.64794921875,
        -6.71359252929688,
        -7.50003051757812
      ],
      "type": "VEC3"
    },
    {
      "bufferView": 2,
      "componentType": 5126,
      "count": 72,
      "type": "VEC3"
    },
    {
      "bufferView": 3,
      "componentType": 5126,
      "count": 72,
      "type": "VEC4"
    },
    {
      "bufferView": 4,
      "componentType": 5126,
      "count": 72,
      "type": "VEC2"
    },
    {
      "bufferView": 5,
      "componentType": 5125,
      "count": 60,
      "type": "SCALAR"
    },
    {
      "bufferView": 6,
      "componentType": 5126,
      "count": 40,
      "max": [
        180.000030517578,
        93.3552551269531,
        189.071136474609
      ],
      "min": [
        -180.000030517578,
        -1.00001525878906,
        -280.821258544922
      ],
      "type": "VEC3"
    },
    {
      "bufferView": 7,
      "componentType": 5126,
      "count": 40,
      "type": "VEC3"
    },
    {
      "bufferView": 8,
      "componentType": 5126,
      "count": 40,
      "type": "VEC4"
    },
    {
      "bufferView": 9,
      "componentType": 5126,
      "count": 40,
      "type": "VEC2"
    },
    {
      "bufferView": 10,
      "componentType": 5125,
      "count": 36,
      "type": "SCALAR"
    },
    {
      "bufferView": 11,
      "componentType": 5126,
      "count": 24,
      "max": [
        7.50001525878906,
        3.0517578125e-05,
        18.1416397094727
      ],
      "min": [
        -16.1744689941406,
        -174.318817138672,
        -108.889953613281
      ],
      "type": "VEC3"
    },
    {
      "bufferView": 12,
      "componentType": 5126,
      "count": 24,
      "type": "VEC3"
    },
    {
      "bufferView": 13,
      "componentType": 5126,
      "count": 24,
      "type": "VEC4"
    },
    {
      "bufferView": 14,
      "componentType": 5126,
      "count": 24,
      "type": "VEC2"
    },
    {
      "bufferView": 15,
      "componentType": 5125,
      "count": 36,
      "type": "SCALAR"
    },
    {
      "bufferView": 16,
      "componentType": 5126,
      "count": 24,
      "max": [
        68.0529403686523,
        176.435562133789,
        133.444564819336
      ],
      "min": [
        -107.167526245117,
        175.875244140625,
        43.4207000732422
      ],
      "type": "VEC3"
    },
    {
      "bufferView": 17,
      "componentType": 5126,
      "count": 24,
      "type": "VEC3"
    },
    {
      "bufferView": 18,
      "componentType": 5126,
      "count": 24,
      "type": "VEC4"
    },
    {
      "bufferView": 19,
      "componentType": 5126,
      "count": 24,
      "type": "VEC2"
    },
    {
      "bufferView": 20,
      "componentType": 5125,
      "count": 36,
      "type": "SCALAR"
    },
    {
      "bufferView": 21,
      "componentType": 5126,
      "count": 24,
      "max": [
        180.568283081055,
        -175.999954223633,
        265.46630859375
      ],
      "min": [
        -38.4954147338867,
        -176.999969482422,
        157.75227355957
      ],
      "type": "VEC3"
    },
    {
      "bufferView": 22,
      "componentType": 5126,
      "count": 24,
      "type": "VEC3"
    },
    {
      "bufferView": 23,
      "componentType": 5126,
      "count": 24,
      "type": "VEC4"
    },
    {
      "bufferView": 24,
      "componentType": 5126,
      "count": 24,
      "type": "VEC2"
    },
    {
      "bufferView": 25,
      "componentType": 5125,
      "count": 36,
      "type": "SCALAR"
    },
    {
      "bufferView": 26,
      "componentType": 5126,
      "count": 24,
      "max": [
        -191.677490234375,
        -179.000045776367,
        62.9762535095215
      ],
      "min": [
        -236.022552490234,
        -180.000045776367,
        -118.22721862793
      ],
      "type": "VEC3"
    },
    {
      "bufferView": 27,
      "componentType": 5126,
      "count": 24,
      "type": "VEC3"
    },
    {
      "bufferView": 28,
      "componentType": 5126,
      "count": 24,
      "type": "VEC4"
    },
    {
      "bufferView": 29,
      "componentType": 5126,
      "count": 24,
      "type": "VEC2"
    },
    {
      "bufferView": 30,
      "componentType": 5125,
      "count": 36,
      "type": "SCALAR"
    },
    {
      "bufferView": 31,
      "componentType": 5126,
      "count": 24,
      "max": [
        36.4771270751953,
        -175.999954223633,
        134.798797607422
      ],
      "min": [
        -173.175170898438,
        -176.999984741211,
        27.0847473144531
      ],
      "type": "VEC3"
    },
    {
      "bufferView": 32,
      "componentType": 5126,
      "count": 24,
      "type": "VEC3"
    },
    {
      "bufferView": 33,
      "componentType": 5126,
      "count": 24,
      "type": "VEC4"
    },
    {
      "bufferView": 34,
      "componentType": 5126,
      "count": 24,
      "type": "VEC2"
    },
    {
      "bufferView": 35,
      "componentType": 5125,
      "count": 36,
      "type": "SCALAR"
    },
    {
      "bufferView": 36,
      "componentType": 5126,
      "count": 24,
      "max": [
        68.0529327392578,
        176.435562133789,
        133.444564819336
      ],
      "min": [
        -107.167526245117,
        175.875244140625,
        43.4207153320312
      ],
      "type": "VEC3"
    },
    {
      "bufferView": 37,
      "componentType": 5126,
      "count": 24,
      "type": "VEC3"
    },
    {
      "bufferView": 38,
      "componentType": 5126,
      "count": 24,
      "type": "VEC4"
    },
    {
      "bufferView": 39,
      "componentType": 5126,
      "count": 24,
      "type": "VEC2"
    },
    {
      "bufferView": 40,
      "componentType": 5125,
      "count": 36,
      "type": "SCALAR"
    },
    {
      "bufferView": 41,
      "componentType": 5126,
      "count": 24,
      "max": [
        293.319793701172,
        176.761306762695,
        185.375991821289
      ],
      "min": [
        83.6675338745117,
        175.999954223633,
        77.6619262695312
      ],
      "type": "VEC3"
    },
    {
      "bufferView": 42,
      "componentType": 5126,
      "count": 24,
      "type": "VEC3"
    },
    {
      "bufferView": 43,
      "componentType": 5126,
      "count": 24,
      "type": "VEC4"
    },
    {
      "bufferView": 44,
      "componentType": 5126,
      "count": 24,
      "type": "VEC2"
    },
    {
      "bufferView": 45,
      "componentType": 5125,
      "count": 36,
      "type": "SCALAR"
    },
    {
      "bufferView": 46,
      "componentType": 5126,
      "count": 24,
      "max": [
        293.31982421875,
        176.999969482422,
        185.375991821289
      ],
      "min": [
        83.6675262451172,
        175.999954223633,
        77.6619338989258
      ],
      "type": "VEC3"
    },
    {
      "bufferView": 47,
      "componentType": 5126,
      "count": 24,
      "type": "VEC3"
    },
    {
      "bufferView": 48,
      "componentType": 5126,
      "count": 24,
      "type": "VEC4"
    },
    {
      "bufferView": 49,
      "componentType": 5126,
      "count": 24,
      "type": "VEC2"
    },
    {
      "bufferView": 50,
      "componentType": 5125,
      "count": 36,
      "type": "SCALAR"
    },
    {
      "bufferView": 51,
      "componentType": 5126,
      "count": 24,
      "max": [
        293.31982421875,
        176.999954223633,
        185.3759765625
      ],
      "min": [
        83.6675338745117,
        175.999938964844,
        77.6619262695312
      ],
      "type": "VEC3"
    },
    {
      "bufferView": 52,
      "componentType": 5126,
      "count": 24,
      "type": "VEC3"
    },
    {
      "bufferView": 53,
      "componentType": 5126,
      "count": 24,
      "type": "VEC4"
    },
    {
      "bufferView": 54,
      "componentType": 5126,
      "count": 24,
      "type": "VEC2"
    },
    {
      "bufferView": 55,
      "componentType": 5125,
      "count": 36,
      "type": "SCALAR"
    },
    {
      "bufferView": 56,
      "componentType": 5126,
      "count": 24,
      "max": [
        293.31982421875,
        176.999969482422,
        185.3759765625
      ],
      "min": [
        83.6675262451172,
        175.999969482422,
        77.6619262695312
      ],
      "type": "VEC3"
    },
    {
      "bufferView": 57,
      "componentType": 5126,
      "count": 24,
      "type": "VEC3"
    },
    {
      "bufferView": 58,
      "componentType": 5126,
      "count": 24,
      "type": "VEC4"
    },
    {
      "bufferView": 59,
      "componentType": 5126,
      "count": 24,
      "type": "VEC2"
    },
    {
      "bufferView": 60,
      "componentType": 5125,
      "count": 36,
      "type": "SCALAR"
    },
    {
      "bufferView": 61,
      "componentType": 5126,
      "count": 24,
      "max": [
        -26.5822448730469,
        -180.999938964844,
        -53.7788467407227
      ],
      "min": [
        -236.234527587891,
        -181.999954223633,
        -161.492889404297
      ],
      "type": "VEC3"
    },
    {
      "bufferView": 62,
      "componentType": 5126,
      "count": 24,
      "type": "VEC3"
    },
    {
      "bufferView": 63,
      "componentType": 5126,
      "count": 24,
      "type": "VEC4"
    },
    {
      "bufferView": 64,
      "componentType": 5126,
      "count": 24,
      "type": "VEC2"
    },
    {
      "bufferView": 65,
      "componentType": 5125,
      "count": 36,
      "type": "SCALAR"
    },
    {
      "bufferView": 66,
      "componentType": 5126,
      "count": 24,
      "max": [
        217.731399536133,
        176.999969482422,
        -65.9336929321289
      ],
      "min": [
        8.07913208007812,
        175.999954223633,
        -173.647750854492
      ],
      "type": "VEC3"
    },
    {
      "bufferView": 67,
      "componentType": 5126,
      "count": 24,
      "type": "VEC3"
    },
    {
      "bufferView": 68,
      "componentType": 5126,
      "count": 24,
      "type": "VEC4"
    },
    {
      "bufferView": 69,
      "componentType": 5126,
      "count": 24,
      "type": "VEC2"
    },
    {
      "bufferView": 70,
      "componentType": 5125,
      "count": 240,
      "type": "SCALAR"
    },
    {
      "bufferView": 71,
      "componentType": 5126,
      "count": 144,
      "max": [
        177.5,
        278.157104492188,
        172.500045776367
      ],
      "min": [
        -177.5,
        0.0,
        -172.500045776367
      ],
      "type": "VEC3"
    },
    {
      "bufferView": 72,
      "componentType": 5126,
      "count": 144,
      "type": "VEC3"
    },
    {
      "bufferView": 73,
      "componentType": 5126,
      "count": 144,
      "type": "VEC4"
    },
    {
      "bufferView": 74,
      "componentType": 5126,
      "count": 144,
      "type": "VEC2"
    },
    {
      "bufferView": 75,
      "componentType": 5125,
      "count": 276,
      "type": "SCALAR"
    },
    {
      "bufferView": 76,
      "componentType": 5126,
      "count": 124,
      "max": [
        181.000015258789,
        284.157104492188,
        176.000015258789
      ],
      "min": [
        -181.000015258789,
        33.157096862793,
        -176.000015258789
      ],
      "type": "VEC3"
    },
    {
      "bufferView": 77,
      "componentType": 5126,
      "count": 124,
      "type": "VEC3"
    },
    {
      "bufferView": 78,
      "componentType": 5126,
      "count": 124,
      "type": "VEC4"
    },
    {
      "bufferView": 79,
      "componentType": 5126,
      "count": 124,
      "type": "VEC2"
    },
    {
      "bufferView": 80,
      "componentType": 5125,
      "count": 36,
      "type": "SCALAR"
    },
    {
      "bufferView": 81,
      "componentType": 5126,
      "count": 24,
      "max": [
        68.0529632568359,
        176.435577392578,
        133.444580078125
      ],
      "min": [
        -107.16748046875,
        175.875244140625,
        43.4207305908203
      ],
      "type": "VEC3"
    },
    {
      "bufferView": 82,
      "componentType": 5126,
      "count": 24,
      "type": "VEC3"
    },
    {
      "bufferView": 83,
      "componentType": 5126,
      "count": 24,
      "type": "VEC4"
    },
    {
      "bufferView": 84,
      "componentType": 5126,
      "count": 24,
      "type": "VEC2"
    },
    {
      "bufferView": 85,
      "componentType": 5125,
      "count": 72,
      "type": "SCALAR"
    },
    {
      "bufferView": 86,
      "componentType": 5126,
      "count": 48,
      "max": [
        68.0529327392578,
        176.122467041016,
        133.444580078125
      ],
      "min": [
        -107.167510986328,
        175.875213623047,
        43.4207191467285
      ],
      "type": "VEC3"
    },
    {
      "bufferView": 87,
      "componentType": 5126,
      "count": 48,
      "type": "VEC3"
    },
    {
      "bufferView": 88,
      "componentType": 5126,
      "count": 48,
      "type": "VEC4"
    },
    {
      "bufferView": 89,
      "componentType": 5126,
      "count": 48,
      "type": "VEC2"
    },
    {
      "bufferView": 90,
      "componentType": 5125,
      "count": 72,
      "type": "SCALAR"
    },
    {
      "bufferView": 91,
      "componentType": 5126,
      "count": 48,
      "max": [
        68.0529251098633,
        176.435546875,
        133.444580078125
      ],
      "min": [
        -107.167526245117,
        175.875213623047,
        43.4207153320312
      ],
      "type": "VEC3"
    },
    {
      "bufferView": 92,
      "componentType": 5126,
      "count": 48,
      "type": "VEC3"
    },
    {
      "bufferView": 93,
      "componentType": 5126,
      "count": 48,
      "type": "VEC4"
    },
    {
      "bufferView": 94,
      "componentType": 5126,
      "count": 48,
      "type": "VEC2"
    },
    {
      "bufferView": 95,
      "componentType": 5125,
      "count": 36,
      "type": "SCALAR"
    },
    {
      "bufferView": 96,
      "componentType": 5126,
      "count": 24,
      "max": [
        68.0529403686523,
        176.435546875,
        133.444580078125
      ],
      "min": [
        -107.167503356934,
        175.875228881836,
        43.4207153320312
      ],
      "type": "VEC3"
    },
    {
      "bufferView": 97,
      "componentType": 5126,
      "count": 24,
      "type": "VEC3"
    },
    {
      "bufferView": 98,
      "componentType": 5126,
      "count": 24,
      "type": "VEC4"
    },
    {
      "bufferView": 99,
      "componentType": 5126,
      "count": 24,
      "type": "VEC2"
    },
    {
      "bufferView": 100,
      "componentType": 5125,
      "count": 36,
      "type": "SCALAR"
    },
    {
      "bufferView": 101,
      "componentType": 5126,
      "count": 24,
      "max": [
        68.0529251098633,
        176.435546875,
        133.444580078125
      ],
      "min": [
        -107.167526245117,
        175.875213623047,
        43.4207305908203
      ],
      "type": "VEC3"
    },
    {
      "bufferView": 102,
      "componentType": 5126,
      "count": 24,
      "type": "VEC3"
    },
    {
      "bufferView": 103,
      "componentType": 5126,
      "count": 24,
      "type": "VEC4"
    },
    {
      "bufferView": 104,
      "componentType": 5126,
      "count": 24,
      "type": "VEC2"
    },
    {
      "bufferView": 105,
      "componentType": 5125,
      "count": 36,
      "type": "SCALAR"
    },
    {
      "bufferView": 106,
      "componentType": 5126,
      "count": 24,
      "max": [
        7.5,
        3.0517578125e-05,
        18.1416397094727
      ],
      "min": [
        -16.1744842529297,
        -174.318817138672,
        -108.889953613281
      ],
      "type": "VEC3"
    },
    {
      "bufferView": 107,
      "componentType": 5126,
      "count": 24,
      "type": "VEC3"
    },
    {
      "bufferView": 108,
      "componentType": 5126,
      "count": 24,
      "type": "VEC4"
    },
    {
      "bufferView": 109,
      "componentType": 5126,
      "count": 24,
      "type": "VEC2"
    },
    {
      "bufferView": 110,
      "componentType": 5125,
      "count": 60,
      "type": "SCALAR"
    },
    {
      "bufferView": 111,
      "componentType": 5126,
      "count": 32,
      "max": [
        8.00638580322266,
        34.2632904052734,
        86.9544219970703
      ],
      "min": [
        -8.00640106201172,
        -1.0,
        -88.5918197631836
      ],
      "type": "VEC3"
    },
    {
      "bufferView": 112,
      "componentType": 5126,
      "count": 32,
      "type": "VEC3"
    },
    {
      "bufferView": 113,
      "componentType": 5126,
      "count": 32,
      "type": "VEC4"
    },
    {
      "bufferView": 114,
      "componentType": 5126,
      "count": 32,
      "type": "VEC2"
    },
    {
      "bufferView": 115,
      "componentType": 5125,
      "count": 60,
      "type": "SCALAR"
    },
    {
      "bufferView": 116,
      "componentType": 5126,
      "count": 40,
      "max": [
        7.50000762939453,
        18.4852447509766,
        132.952728271484
      ],
      "min": [
        -7.5,
        -1.0,
        -35.8645172119141
      ],
      "type": "VEC3"
    },
    {
      "bufferView": 117,
      "componentType": 5126,
      "count": 40,
      "type": "VEC3"
    },
    {
      "bufferView": 118,
      "componentType": 5126,
      "count": 40,
      "type": "VEC4"
    },
    {
      "bufferView": 119,
      "componentType": 5126,
      "count": 40,
      "type": "VEC2"
    },
    {
      "bufferView": 120,
      "componentType": 5125,
      "count": 60,
      "type": "SCALAR"
    },
    {
      "bufferView": 121,
      "componentType": 5126,
      "count": 40,
      "max": [
        7.5,
        16.2565612792969,
        94.2658462524414
      ],
      "min": [
        -7.50001525878906,
        -0.999984741210938,
        -35.8645172119141
      ],
      "type": "VEC3"
    },
    {
      "bufferView": 122,
      "componentType": 5126,
      "count": 40,
      "type": "VEC3"
    },
    {
      "bufferView": 123,
      "componentType": 5126,
      "count": 40,
      "type": "VEC4"
    },
    {
      "bufferView": 124,
      "componentType": 5126,
      "count": 40,
      "type": "VEC2"
    }
  ],
  "asset": {
    "generator": "Adobe Substance 3D Painter 11.1.2",
    "version": "2.0"
  },
  "bufferViews": [
    {
      "buffer": 0,
      "byteLength": 480,
      "target": 34963
    },
    {
      "buffer": 0,
      "byteLength": 864,
      "byteOffset": 480,
      "target": 34962
    },
    {
      "buffer": 0,
      "byteLength": 864,
      "byteOffset": 1344,
      "target": 34962
    },
    {
      "buffer": 0,
      "byteLength": 1152,
      "byteOffset": 2208,
      "target": 34962
    },
    {
      "buffer": 0,
      "byteLength": 576,
      "byteOffset": 3360,
      "target": 34962
    },
    {
      "buffer": 0,
      "byteLength": 240,
      "byteOffset": 3936,
      "target": 34963
    },
    {
      "buffer": 0,
      "byteLength": 480,
      "byteOffset": 4176,
      "target": 34962
    },
    {
      "buffer": 0,
      "byteLength": 480,
      "byteOffset": 4656,
      "target": 34962
    },
    {
      "buffer": 0,
      "byteLength": 640,
      "byteOffset": 5136,
      "target": 34962
    },
    {
      "buffer": 0,
      "byteLength": 320,
      "byteOffset": 5776,
      "target": 34962
    },
    {
      "buffer": 0,
      "byteLength": 144,
      "byteOffset": 6096,
      "target": 34963
    },
    {
      "buffer": 0,
      "byteLength": 288,
      "byteOffset": 6240,
      "target": 34962
    },
    {
      "buffer": 0,
      "byteLength": 288,
      "byteOffset": 6528,
      "target": 34962
    },
    {
      "buffer": 0,
      "byteLength": 384,
      "byteOffset": 6816,
      "target": 34962
    },
    {
      "buffer": 0,
      "byteLength": 192,
      "byteOffset": 7200,
      "target": 34962
    },
    {
      "buffer": 0,
      "byteLength": 144,
      "byteOffset": 7392,
      "target": 34963
    },
    {
      "buffer": 0,
      "byteLength": 288,
      "byteOffset": 7536,
      "target": 34962
    },
    {
      "buffer": 0,
      "byteLength": 288,
      "byteOffset": 7824,
      "target": 34962
    },
    {
      "buffer": 0,
      "byteLength": 384,
      "byteOffset": 8112,
      "target": 34962
    },
    {
      "buffer": 0,
      "byteLength": 192,
      "byteOffset": 8496,
      "target": 34962
    },
    {
      "buffer": 0,
      "byteLength": 144,
      "byteOffset": 8688,
      "target": 34963
    },
    {
      "buffer": 0,
      "byteLength": 288,
      "byteOffset": 8832,
      "target": 34962
    },
    {
      "buffer": 0,
      "byteLength": 288,
      "byteOffset": 9120,
      "target": 34962
    },
    {
      "buffer": 0,
      "byteLength": 384,
      "byteOffset": 9408,
      "target": 34962
    },
    {
      "buffer": 0,
      "byteLength": 192,
      "byteOffset": 9792,
      "target": 34962
    },
    {
      "buffer": 0,
      "byteLength": 144,
      "byteOffset": 9984,
      "target": 34963
    },
    {
      "buffer": 0,
      "byteLength": 288,
      "byteOffset": 10128,
      "target": 34962
    },
    {
      "buffer": 0,
      "byteLength": 288,
      "byteOffset": 10416,
      "target": 34962
    },
    {
      "buffer": 0,
      "byteLength": 384,
      "byteOffset": 10704,
      "target": 34962
    },
    {
      "buffer": 0,
      "byteLength": 192,
      "byteOffset": 11088,
      "target": 34962
    },
    {
      "buffer": 0,
      "byteLength": 144,
      "byteOffset": 11280,
      "target": 34963
    },
    {
      "buffer": 0,
      "byteLength": 288,
      "byteOffset": 11424,
      "target": 34962
    },
    {
      "buffer": 0,
      "byteLength": 288,
      "byteOffset": 11712,
      "target": 34962
    },
    {
      "buffer": 0,
      "byteLength": 384,
      "byteOffset": 12000,
      "target": 34962
    },
    {
      "buffer": 0,
      "byteLength": 192,
      "byteOffset": 12384,
      "target": 34962
    },
    {
      "buffer": 0,
      "byteLength": 144,
      "byteOffset": 12576,
      "target": 34963
    },
    {
      "buffer": 0,
      "byteLength": 288,
      "byteOffset": 12720,
      "target": 34962
    },
    {
      "buffer": 0,
      "byteLength": 288,
      "byteOffset": 13008,
      "target": 34962
    },
    {
      "buffer": 0,
      "byteLength": 384,
      "byteOffset": 13296,
      "target": 34962
    },
    {
      "buffer": 0,
      "byteLength": 192,
      "byteOffset": 13680,
      "target": 34962
    },
    {
      "buffer": 0,
      "byteLength": 144,
      "byteOffset": 13872,
      "target": 34963
    },
    {
      "buffer": 0,
      "byteLength": 288,
      "byteOffset": 14016,
      "target": 34962
    },
    {
      "buffer": 0,
      "byteLength": 288,
      "byteOffset": 14304,
      "target": 34962
    },
    {
      "buffer": 0,
      "byteLength": 384,
      "byteOffset": 14592,
      "target": 34962
    },
    {
      "buffer": 0,
      "byteLength": 192,
      "byteOffset": 14976,
      "target": 34962
    },
    {
      "buffer": 0,
      "byteLength": 144,
      "byteOffset": 15168,
      "target": 34963
    },
    {
      "buffer": 0,
      "byteLength": 288,
      "byteOffset": 15312,
      "target": 34962
    },
    {
      "buffer": 0,
      "byteLength": 288,
      "byteOffset": 15600,
      "target": 34962
    },
    {
      "buffer": 0,
      "byteLength": 384,
      "byteOffset": 15888,
      "target": 34962
    },
    {
      "buffer": 0,
      "byteLength": 192,
      "byteOffset": 16272,
      "target": 34962
    },
    {
      "buffer": 0,
      "byteLength": 144,
      "byteOffset": 16464,
      "target": 34963
    },
    {
      "buffer": 0,
      "byteLength": 288,
      "byteOffset": 16608,
      "target": 34962
    },
    {
      "buffer": 0,
      "byteLength": 288,
      "byteOffset": 16896,
      "target": 34962
    },
    {
      "buffer": 0,
      "byteLength": 384,
      "byteOffset": 17184,
      "target": 34962
    },
    {
      "buffer": 0,
      "byteLength": 192,
      "byteOffset": 17568,
      "target": 34962
    },
    {
      "buffer": 0,
      "byteLength": 144,
      "byteOffset": 17760,
      "target": 34963
    },
    {
      "buffer": 0,
      "byteLength": 288,
      "byteOffset": 17904,
      "target": 34962
    },
    {
      "buffer": 0,
      "byteLength": 288,
      "byteOffset": 18192,
      "target": 34962
    },
    {
      "buffer": 0,
      "byteLength": 384,
      "byteOffset": 18480,
      "target": 34962
    },
    {
      "buffer": 0,
      "byteLength": 192,
      "byteOffset": 18864,
      "target": 34962
    },
    {
      "buffer": 0,
      "byteLength": 144,
      "byteOffset": 19056,
      "target": 34963
    },
    {
      "buffer": 0,
      "byteLength": 288,
      "byteOffset": 19200,
      "target": 34962
    },
    {
      "buffer": 0,
      "byteLength": 288,
      "byteOffset": 19488,
      "target": 34962
    },
    {
      "buffer": 0,
      "byteLength": 384,
      "byteOffset": 19776,
      "target": 34962
    },
    {
      "buffer": 0,
      "byteLength": 192,
      "byteOffset": 20160,
      "target": 34962
    },
    {
      "buffer": 0,
      "byteLength": 144,
      "byteOffset": 20352,
      "target": 34963
    },
    {
      "buffer": 0,
      "byteLength": 288,
      "byteOffset": 20496,
      "target": 34962
    },
    {
      "buffer": 0,
      "byteLength": 288,
      "byteOffset": 20784,
      "target": 34962
    },
    {
      "buffer": 0,
      "byteLength": 384,
      "byteOffset": 21072,
      "target": 34962
    },
    {
      "buffer": 0,
      "byteLength": 192,
      "byteOffset": 21456,
      "target": 34962
    },
    {
      "buffer": 0,
      "byteLength": 960,
      "byteOffset": 21648,
      "target": 34963
    },
    {
      "buffer": 0,
      "byteLength": 1728,
      "byteOffset": 22608,
      "target": 34962
    },
    {
      "buffer": 0,
      "byteLength": 1728,
      "byteOffset": 24336,
      "target": 34962
    },
    {
      "buffer": 0,
      "byteLength": 2304,
      "byteOffset": 26064,
      "target": 34962
    },
    {
      "buffer": 0,
      "byteLength": 1152,
      "byteOffset": 28368,
      "target": 34962
    },
    {
      "buffer": 0,
      "byteLength": 1104,
      "byteOffset": 29520,
      "target": 34963
    },
    {
      "buffer": 0,
      "byteLength": 1488,
      "byteOffset": 30624,
      "target": 34962
    },
    {
      "buffer": 0,
      "byteLength": 1488,
      "byteOffset": 32112,
      "target": 34962
    },
    {
      "buffer": 0,
      "byteLength": 1984,
      "byteOffset": 33600,
      "target": 34962
    },
    {
      "buffer": 0,
      "byteLength": 992,
      "byteOffset": 35584,
      "target": 34962
    },
    {
      "buffer": 0,
      "byteLength": 144,
      "byteOffset": 36576,
      "target": 34963
    },
    {
      "buffer": 0,
      "byteLength": 288,
      "byteOffset": 36720,
      "target": 34962
    },
    {
      "buffer": 0,
      "byteLength": 288,
      "byteOffset": 37008,
      "target": 34962
    },
    {
      "buffer": 0,
      "byteLength": 384,
      "byteOffset": 37296,
      "target": 34962
    },
    {
      "buffer": 0,
      "byteLength": 192,
      "byteOffset": 37680,
      "target": 34962
    },
    {
      "buffer": 0,
      "byteLength": 288,
      "byteOffset": 37872,
      "target": 34963
    },
    {
      "buffer": 0,
      "byteLength": 576,
      "byteOffset": 38160,
      "target": 34962
    },
    {
      "buffer": 0,
      "byteLength": 576,
      "byteOffset": 38736,
      "target": 34962
    },
    {
      "buffer": 0,
      "byteLength": 768,
      "byteOffset": 39312,
      "target": 34962
    },
    {
      "buffer": 0,
      "byteLength": 384,
      "byteOffset": 40080,
      "target": 34962
    },
    {
      "buffer": 0,
      "byteLength": 288,
      "byteOffset": 40464,
      "target": 34963
    },
    {
      "buffer": 0,
      "byteLength": 576,
      "byteOffset": 40752,
      "target": 34962
    },
    {
      "buffer": 0,
      "byteLength": 576,
      "byteOffset": 41328,
      "target": 34962
    },
    {
      "buffer": 0,
      "byteLength": 768,
      "byteOffset": 41904,
      "target": 34962
    },
    {
      "buffer": 0,
      "byteLength": 384,
      "byteOffset": 42672,
      "target": 34962
    },
    {
      "buffer": 0,
      "byteLength": 144,
      "byteOffset": 43056,
      "target": 34963
    },
    {
      "buffer": 0,
      "byteLength": 288,
      "byteOffset": 43200,
      "target": 34962
    },
    {
      "buffer": 0,
      "byteLength": 288,
      "byteOffset": 43488,
      "target": 34962
    },
    {
      "buffer": 0,
      "byteLength": 384,
      "byteOffset": 43776,
      "target": 34962
    },
    {
      "buffer": 0,
      "byteLength": 192,
      "byteOffset": 44160,
      "target": 34962
    },
    {
      "buffer": 0,
      "byteLength": 144,
      "byteOffset": 44352,
      "target": 34963
    },
    {
      "buffer": 0,
      "byteLength": 288,
      "byteOffset": 44496,
      "target": 34962
    },
    {
      "buffer": 0,
      "byteLength": 288,
      "byteOffset": 44784,
      "target": 34962
    },
    {
      "buffer": 0,
      "byteLength": 384,
      "byteOffset": 45072,
      "target": 34962
    },
    {
      "buffer": 0,
      "byteLength": 192,
      "byteOffset": 45456,
      "target": 34962
    },
    {
      "buffer": 0,
      "byteLength": 144,
      "byteOffset": 45648,
      "target": 34963
    },
    {
      "buffer": 0,
      "byteLength": 288,
      "byteOffset": 45792,
      "target": 34962
    },
    {
      "buffer": 0,
      "byteLength": 288,
      "byteOffset": 46080,
      "target": 34962
    },
    {
      "buffer": 0,
      "byteLength": 384,
      "byteOffset": 46368,
      "target": 34962
    },
    {
      "buffer": 0,
      "byteLength": 192,
      "byteOffset": 46752,
      "target": 34962
    },
    {
      "buffer": 0,
      "byteLength": 240,
      "byteOffset": 46944,
      "target": 34963
    },
    {
      "buffer": 0,
      "byteLength": 384,
      "byteOffset": 47184,
      "target": 34962
    },
    {
      "buffer": 0,
      "byteLength": 384,
      "byteOffset": 47568,
      "target": 34962
    },
    {
      "buffer": 0,
      "byteLength": 512,
      "byteOffset": 47952,
      "target": 34962
    },
    {
      "buffer": 0,
      "byteLength": 256,
      "byteOffset": 48464,
      "target": 34962
    },
    {
      "buffer": 0,
      "byteLength": 240,
      "byteOffset": 48720,
      "target": 34963
    },
    {
      "buffer": 0,
      "byteLength": 480,
      "byteOffset": 48960,
      "target": 34962
    },
    {
      "buffer": 0,
      "byteLength": 480,
      "byteOffset": 49440,
      "target": 34962
    },
    {
      "buffer": 0,
      "byteLength": 640,
      "byteOffset": 49920,
      "target": 34962
    },
    {
      "buffer": 0,
      "byteLength": 320,
      "byteOffset": 50560,
      "target": 34962
    },
    {
      "buffer": 0,
      "byteLength": 240,
      "byteOffset": 50880,
      "target": 34963
    },
    {
      "buffer": 0,
      "byteLength": 480,
      "byteOffset": 51120,
      "target": 34962
    },
    {
      "buffer": 0,
      "byteLength": 480,
      "byteOffset": 51600,
      "target": 34962
    },
    {
      "buffer": 0,
      "byteLength": 640,
      "byteOffset": 52080,
      "target": 34962
    },
    {
      "buffer": 0,
      "byteLength": 320,
      "byteOffset": 52720,
      "target": 34962
    }
  ],
  "buffers": [
    {
      "byteLength": 53040,
      "uri": "building 1.bin"
    }
  ],
  "images": [
    {
      "uri": "building 1_baseColor.png"
    },
    {
      "uri": "building 1_occlusionRoughnessMetallic.png"
    },
    {
      "uri": "building 1_normal.png"
    },
    {
      "uri": "building 1_emissive.png"
    }
  ],
  "materials": [
    {
      "alphaMode": "BLEND",
      "emissiveFactor": [
        1.0,
        1.0,
        1.0
      ],
      "emissiveTexture": {
        "index": 3
      },
      "name": "building 1",
      "normalTexture": {
        "index": 2
      },
      "occlusionTexture": {
        "index": 1
      },
      "pbrMetallicRoughness": {
        "baseColorTexture": {
          "index": 0
        },
        "metallicRoughnessTexture": {
          "index": 1
        }
      }
    }
  ],
  "meshes": [
    {
      "name": "pCube11",
      "primitives": [
        {
          "attributes": {
            "NORMAL": 2,
            "POSITION": 1,
            "TANGENT": 3,
            "TEXCOORD_0": 4
          },
          "indices": 0,
          "material": 0,
          "mode": 4
        }
      ]
    },
    {
      "name": "pCube12",
      "primitives": [
        {
          "attributes": {
            "NORMAL": 7,
            "POSITION": 6,
            "TANGENT": 8,
            "TEXCOORD_0": 9
          },
          "indices": 5,
          "material": 0,
          "mode": 4
        }
      ]
    },
    {
      "name": "pCube14",
      "primitives": [
        {
          "attributes": {
            "NORMAL": 12,
            "POSITION": 11,
            "TANGENT": 13,
            "TEXCOORD_0": 14
          },
          "indices": 10,
          "material": 0,
          "mode": 4
        }
      ]
    },
    {
      "name": "pCube8",
      "primitives": [
        {
          "attributes": {
            "NORMAL": 17,
            "POSITION": 16,
            "TANGENT": 18,
            "TEXCOORD_0": 19
          },
          "indices": 15,
          "material": 0,
          "mode": 4
        }
      ]
    },
    {
      "name": "pCube5",
      "primitives": [
        {
          "attributes": {
            "NORMAL": 22,
            "POSITION": 21,
            "TANGENT": 23,
            "TEXCOORD_0": 24
          },
          "indices": 20,
          "material": 0,
          "mode": 4
        }
      ]
    },
    {
      "name": "pCube3",
      "primitives": [
        {
          "attributes": {
            "NORMAL": 27,
            "POSITION": 26,
            "TANGENT": 28,
            "TEXCOORD_0": 29
          },
          "indices": 25,
          "material": 0,
          "mode": 4
        }
      ]
    },
    {
      "name": "pCube4",
      "primitives": [
        {
          "attributes": {
            "NORMAL": 32,
            "POSITION": 31,
            "TANGENT": 33,
            "TEXCOORD_0": 34
          },
          "indices": 30,
          "material": 0,
          "mode": 4
        }
      ]
    },
    {
      "name": "pCube10",
      "primitives": [
        {
          "attributes": {
            "NORMAL": 37,
            "POSITION": 36,
            "TANGENT": 38,
            "TEXCOORD_0": 39
          },
          "indices": 35,
          "material": 0,
          "mode": 4
        }
      ]
    },
    {
      "name": "pCube16",
      "primitives": [
        {
          "attributes": {
            "NORMAL": 42,
            "POSITION": 41,
            "TANGENT": 43,
            "TEXCOORD_0": 44
          },
          "indices": 40,
          "material": 0,
          "mode": 4
        }
      ]
    },
    {
      "name": "pCube7",
      "primitives": [
        {
          "attributes": {
            "NORMAL": 47,
            "POSITION": 46,
            "TANGENT": 48,
            "TEXCOORD_0": 49
          },
          "indices": 45,
          "material": 0,
          "mode": 4
        }
      ]
    },
    {
      "name": "pCube15",
      "primitives": [
        {
          "attributes": {
            "NORMAL": 52,
            "POSITION": 51,
            "TANGENT": 53,
            "TEXCOORD_0": 54
          },
          "indices": 50,
          "material": 0,
          "mode": 4
        }
      ]
    },
    {
      "name": "pCube17",
      "primitives": [
        {
          "attributes": {
            "NORMAL": 57,
            "POSITION": 56,
            "TANGENT": 58,
            "TEXCOORD_0": 59
          },
          "indices": 55,
          "material": 0,
          "mode": 4
        }
      ]
    },
    {
      "name": "pCube2",
      "primitives": [
        {
          "attributes": {
            "NORMAL": 62,
            "POSITION": 61,
            "TANGENT": 63,
            "TEXCOORD_0": 64
          },
          "indices": 60,
          "material": 0,
          "mode": 4
        }
      ]
    },
    {
      "name": "pCube6",
      "primitives": [
        {
          "attributes": {
            "NORMAL": 67,
            "POSITION": 66,
            "TANGENT": 68,
            "TEXCOORD_0": 69
          },
          "indices": 65,
          "material": 0,
          "mode": 4
        }
      ]
    },
    {
      "name": "pCube9",
      "primitives": [
        {
          "attributes": {
            "NORMAL": 72,
            "POSITION": 71,
            "TANGENT": 73,
            "TEXCOORD_0": 74
          },
          "indices": 70,
          "material": 0,
          "mode": 4
        }
      ]
    },
    {
      "name": "pCube1",
      "primitives": [
        {
          "attributes": {
            "NORMAL": 77,
            "POSITION": 76,
            "TANGENT": 78,
            "TEXCOORD_0": 79
          },
          "indices": 75,
          "material": 0,
          "mode": 4
        }
      ]
    },
    {
      "name": "pCube21",
      "primitives": [
        {
          "attributes": {
            "NORMAL": 82,
            "POSITION": 81,
            "TANGENT": 83,
            "TEXCOORD_0": 84
          },
          "indices": 80,
          "material": 0,
          "mode": 4
        }
      ]
    },
    {
      "name": "pCube23",
      "primitives": [
        {
          "attributes": {
            "NORMAL": 87,
            "POSITION": 86,
            "TANGENT": 88,
            "TEXCOORD_0": 89
          },
          "indices": 85,
          "material": 0,
          "mode": 4
        }
      ]
    },
    {
      "name": "pCube22",
      "primitives": [
        {
          "attributes": {
            "NORMAL": 92,
            "POSITION": 91,
            "TANGENT": 93,
            "TEXCOORD_0": 94
          },
          "indices": 90,
          "material": 0,
          "mode": 4
        }
      ]
    },
    {
      "name": "pCube18",
      "primitives": [
        {
          "attributes": {
            "NORMAL": 97,
            "POSITION": 96,
            "TANGENT": 98,
            "TEXCOORD_0": 99
          },
          "indices": 95,
          "material": 0,
          "mode": 4
        }
      ]
    },
    {
      "name": "pCube20",
      "primitives": [
        {
          "attributes": {
            "NORMAL": 102,
            "POSITION": 101,
            "TANGENT": 103,
            "TEXCOORD_0": 104
          },
          "indices": 100,
          "material": 0,
          "mode": 4
        }
      ]
    },
    {
      "name": "pCube13",
      "primitives": [
        {
          "attributes": {
            "NORMAL": 107,
            "POSITION": 106,
            "TANGENT": 108,
            "TEXCOORD_0": 109
          },
          "indices": 105,
          "material": 0,
          "mode": 4
        }
      ]
    },
    {
      "name": "pCube24",
      "primitives": [
        {
          "attributes": {
            "NORMAL": 112,
            "POSITION": 111,
            "TANGENT": 113,
            "TEXCOORD_0": 114
          },
          "indices": 110,
          "material": 0,
          "mode": 4
        }
      ]
    },
    {
      "name": "pCube26",
      "primitives": [
        {
          "attributes": {
            "NORMAL": 117,
            "POSITION": 116,
            "TANGENT": 118,
            "TEXCOORD_0": 119
          },
          "indices": 115,
          "material": 0,
          "mode": 4
        }
      ]
    },
    {
      "name": "pCube25",
      "primitives": [
        {
          "attributes": {
            "NORMAL": 122,
            "POSITION": 121,
            "TANGENT": 123,
            "TEXCOORD_0": 124
          },
          "indices": 120,
          "material": 0,
          "mode": 4
        }
      ]
    }
  ],
  "nodes": [
    {
      "children": [
        1
      ],
      "name": "RootNode",
      "scale": [
        0.00999999977648258,
        0.00999999977648258,
        0.00999999977648258
      ]
    },
    {
      "children": [
        2,
        4,
        6,
        8,
        31,
        36
      ],
      "name": "group6"
    },
    {
      "children": [
        3
      ],
      "name": "pCube11",
      "rotation": [
        3.64973242561241e-24,
        5.9604651880818e-08,
        1.0,
        6.12323426292584e-17
      ],
      "translation": [
        -171.073959350586,
        295.894073486328,
        166.284896850586
      ]
    },
    {
      "mesh": 0,
      "name": "pCube11"
    },
    {
      "children": [
        5
      ],
      "name": "pCube12",
      "rotation": [
        5.83720058377898e-19,
        0.0267709940671921,
        0.999641597270966,
        6.12386622891383e-17
      ],
      "scale": [
        1.0234591960907,
        1.0,
        1.0
      ],
      "translation": [
        -7.78025755376644e-16,
        294.241394042969,
        0.250840127468109
      ]
    },
    {
      "mesh": 1,
      "name": "pCube12"
    },
    {
      "children": [
        7
      ],
      "name": "pCube14",
      "rotation": [
        0.926591336727142,
        -0.0,
        -0.0,
        0.376069813966751
      ],
      "scale": [
        -1.0,
        -1.0,
        -1.0
      ],
      "translation": [
        151.973693847656,
        193.429016113281,
        -267.515472412109
      ]
    },
    {
      "mesh": 2,
      "name": "pCube14"
    },
    {
      "children": [
        9,
        11,
        13,
        15,
        17,
        19,
        21,
        23,
        25,
        27,
        29
      ],
      "name": "group2"
    },
    {
      "children": [
        10
      ],
      "name": "pCube8",
      "rotation": [
        0.0229321252554655,
        0.706734836101532,
        0.706734836101532,
        0.0229321252554655
      ],
      "scale": [
        1.55231559276581,
        1.0,
        1.0
      ],
      "translation": [
        6.0942907333374,
        -24.310396194458,
        3.08189719133278e-14
      ]
    },
    {
      "mesh": 3,
      "name": "pCube8"
    },
    {
      "children": [
        12
      ],
      "name": "pCube5",
      "rotation": [
        0.0136277684941888,
        0.706975400447845,
        0.70697546005249,
        0.0136277228593826
      ],
      "translation": [
        -5.6843418860808e-14,
        1.13686837721616e-13,
        -1.13686837721616e-13
      ]
    },
    {
      "mesh": 4,
      "name": "pCube5"
    },
    {
      "children": [
        14
      ],
      "name": "pCube3",
      "rotation": [
        0.0452449284493923,
        0.0452449284493923,
        -0.705657720565796,
        0.705657780170441
      ],
      "translation": [
        0.0,
        0.0,
        3.5527136788005e-15
      ]
    },
    {
      "mesh": 5,
      "name": "pCube3"
    },
    {
      "children": [
        16
      ],
      "name": "pCube4",
      "rotation": [
        -0.021033052355051,
        0.706793904304504,
        0.706793904304504,
        -0.0210330970585346
      ],
      "scale": [
        1.38027548789978,
        1.0,
        1.0
      ],
      "translation": [
        -73.8310317993164,
        -17.5587329864502,
        1.68053497873188e-06
      ]
    },
    {
      "mesh": 6,
      "name": "pCube4"
    },
    {
      "children": [
        18
      ],
      "name": "pCube10",
      "rotation": [
        -0.0136020993813872,
        0.706975936889648,
        0.706975936889648,
        -0.0136020993813872
      ],
      "scale": [
        1.55231559276581,
        1.0,
        1.08866620063782
      ],
      "translation": [
        -77.2421188354492,
        127.66886138916,
        9.68652350170907e-13
      ]
    },
    {
      "mesh": 7,
      "name": "pCube10"
    },
    {
      "children": [
        20
      ],
      "name": "pCube16",
      "rotation": [
        0.514000833034515,
        0.514000773429871,
        -0.485595732927322,
        0.485595732927322
      ],
      "scale": [
        1.37810456752777,
        1.0,
        1.06695914268494
      ],
      "translation": [
        5.0,
        192.436248779297,
        245.121551513672
      ]
    },
    {
      "mesh": 8,
      "name": "pCube16"
    },
    {
      "children": [
        22
      ],
      "name": "pCube7",
      "rotation": [
        0.5,
        0.5,
        0.5,
        0.5
      ]
    },
    {
      "mesh": 9,
      "name": "pCube7"
    },
    {
      "children": [
        24
      ],
      "name": "pCube15",
      "rotation": [
        0.706678748130798,
        0.706678807735443,
        -0.0245994478464127,
        0.0245994478464127
      ],
      "scale": [
        0.999999940395355,
        1.0,
        1.06695914268494
      ],
      "translation": [
        5.0,
        6.51338481903076,
        260.166534423828
      ]
    },
    {
      "mesh": 10,
      "name": "pCube15"
    },
    {
      "children": [
        26
      ],
      "name": "pCube17",
      "rotation": [
        0.706919372081757,
        0.706919431686401,
        0.0162780676037073,
        -0.0162780657410622
      ],
      "scale": [
        0.990674078464508,
        1.0,
        1.20975613594055
      ],
      "translation": [
        5.0,
        -14.686577796936,
        80.5631332397461
      ]
    },
    {
      "mesh": 11,
      "name": "pCube17"
    },
    {
      "children": [
        28
      ],
      "name": "pCube2",
      "rotation": [
        -0.039012286812067,
        -0.039012286812067,
        -0.706029772758484,
        0.706029772758484
      ],
      "translation": [
        0.0,
        -5.6843418860808e-14,
        7.105427357601e-15
      ]
    },
    {
      "mesh": 12,
      "name": "pCube2"
    },
    {
      "children": [
        30
      ],
      "name": "pCube6",
      "rotation": [
        0.5,
        0.5,
        0.5,
        0.5
      ],
      "translation": [
        0.0,
        -1.4210854715202e-14,
        0.0
      ]
    },
    {
      "mesh": 13,
      "name": "pCube6"
    },
    {
      "children": [
        32,
        34
      ],
      "name": "group3"
    },
    {
      "children": [
        33
      ],
      "name": "pCube9"
    },
    {
      "mesh": 14,
      "name": "pCube9"
    },
    {
      "children": [
        35
      ],
      "name": "pCube1"
    },
    {
      "mesh": 15,
      "name": "pCube1"
    },
    {
      "children": [
        37,
        39,
        41,
        43,
        45,
        47,
        49,
        51,
        53
      ],
      "name": "group4"
    },
    {
      "children": [
        38
      ],
      "name": "pCube21",
      "rotation": [
        -0.0262122731655836,
        0.375916987657547,
        0.926221430301666,
        -0.0106385266408324
      ],
      "scale": [
        0.459772020578384,
        1.27220368385315,
        1.57144236564636
      ],
      "translation": [
        159.039031982422,
        296.557556152344,
        -485.632781982422
      ]
    },
    {
      "mesh": 16,
      "name": "pCube21"
    },
    {
      "children": [
        40
      ],
      "name": "pCube23",
      "rotation": [
        -0.0179778654128313,
        0.715314090251923,
        -0.0184151381254196,
        0.698329031467438
      ],
      "scale": [
        1.70913302898407,
        1.28390848636627,
        1.08956909179688
      ],
      "translation": [
        46.9667701721191,
        66.8280563354492,
        -55.1390800476074
      ]
    },
    {
      "mesh": 17,
      "name": "pCube23"
    },
    {
      "children": [
        42
      ],
      "name": "pCube22",
      "rotation": [
        -0.0198178607970476,
        0.637766182422638,
        -0.0164187047630548,
        0.769799947738647
      ],
      "scale": [
        1.11416387557983,
        1.28390848636627,
        0.999824106693268
      ],
      "translation": [
        -179.668518066406,
        64.1937561035156,
        -106.267562866211
      ]
    },
    {
      "mesh": 18,
      "name": "pCube22"
    },
    {
      "children": [
        44
      ],
      "name": "pCube18",
      "rotation": [
        0.00124274927657098,
        0.99923449754715,
        -0.0255997683852911,
        -0.0295555125921965
      ],
      "scale": [
        1.97486162185669,
        1.27220368385315,
        1.38500511646271
      ],
      "translation": [
        -26.0593395233154,
        85.3665466308594,
        284.733215332031
      ]
    },
    {
      "mesh": 19,
      "name": "pCube18"
    },
    {
      "children": [
        46
      ],
      "name": "pCube20",
      "rotation": [
        -0.0262122731655836,
        0.375916987657547,
        0.926221430301666,
        -0.0106385266408324
      ],
      "scale": [
        1.34407186508179,
        1.27220368385315,
        0.986583709716797
      ],
      "translation": [
        -93.7413024902344,
        314.115234375,
        -467.565612792969
      ]
    },
    {
      "mesh": 20,
      "name": "pCube20"
    },
    {
      "children": [
        48
      ],
      "name": "pCube13",
      "rotation": [
        -0.376069813966751,
        0.0,
        0.0,
        0.926591336727142
      ],
      "translation": [
        -151.973693847656,
        193.429016113281,
        -267.515472412109
      ]
    },
    {
      "mesh": 21,
      "name": "pCube13"
    },
    {
      "children": [
        50
      ],
      "name": "pCube24",
      "rotation": [
        0.210229218006134,
        -0.00366457039490342,
        -0.718760669231415,
        0.662701606750488
      ],
      "scale": [
        0.999999940395355,
        1.0,
        1.0
      ],
      "translation": [
        -189.017807006836,
        134.121658325195,
        -178.492172241211
      ]
    },
    {
      "mesh": 22,
      "name": "pCube24"
    },
    {
      "children": [
        52
      ],
      "name": "pCube26",
      "rotation": [
        -0.129878342151642,
        -0.11399619281292,
        -0.683203518390656,
        0.709485352039337
      ],
      "translation": [
        163.651779174805,
        142.534866333008,
        -219.212371826172
      ]
    },
    {
      "mesh": 23,
      "name": "pCube26"
    },
    {
      "children": [
        54
      ],
      "name": "pCube25",
      "rotation": [
        0.100068636238575,
        0.106869891285896,
        -0.684354484081268,
        0.71429967880249
      ],
      "translation": [
        166.026351928711,
        66.2694396972656,
        -211.142639160156
      ]
    },
    {
      "mesh": 24,
      "name": "pCube25"
    }
  ],
  "samplers": [
    {
      "magFilter": 9729,
      "minFilter": 9985,
      "wrapS": 10497,
      "wrapT": 10497
    }
  ],
  "scene": 0,
  "scenes": [
    {
      "name": "Scene",
      "nodes": [
        0
      ]
    }
  ],
  "textures": [
    {
      "sampler": 0,
      "source": 0
    },
    {
      "sampler": 0,
      "source": 1
    },
    {
      "sampler": 0,
      "source": 2
    },
    {
      "sampler": 0,
      "source": 3
    }
  ]
}