# This file uses centimeters as units for non-parametric coordinates.

mtllib Crate.mtl
g default
v -25.240459 56.959900 -19.637838
v -19.827869 56.959900 -25.083178
v 20.280891 56.959900 25.609716
v 25.693481 56.959900 20.164377
v 20.280891 58.494778 25.609716
v 25.693481 58.494778 20.164377
v -25.240459 58.494778 -19.637838
v -19.827869 58.494778 -25.083178
v 20.591465 57.474911 -24.834326
v 25.936592 57.474911 -19.322754
v -25.483572 57.474911 19.849295
v -20.138443 57.474911 25.360865
v -25.483572 59.009789 19.849295
v -20.138443 59.009789 25.360865
v 20.591465 59.009789 -24.834326
v 25.936592 59.009789 -19.322754
v -25.240459 9.027657 29.811619
v -19.827869 3.582317 29.811619
v 20.280891 54.275211 29.811619
v 25.693481 48.829872 29.811619
v 20.280891 54.275211 28.276741
v 25.693481 48.829872 28.276741
v -25.240459 9.027657 28.276741
v -19.827869 3.582317 28.276741
v 20.591465 3.831169 30.259182
v 25.936592 9.342741 30.259182
v -25.483572 48.514790 30.259182
v -20.138443 54.026360 30.259182
v -25.483572 48.514790 28.724304
v -20.138443 54.026360 28.724304
v 20.591465 3.831169 28.724304
v 25.936592 9.342741 28.724304
v -25.240459 9.027657 -30.259182
v -19.827869 3.582317 -30.259182
v 20.280891 54.275211 -30.259182
v 25.693481 48.829872 -30.259182
v 20.280891 54.275211 -28.724304
v 25.693481 48.829872 -28.724304
v -25.240459 9.027657 -28.724304
v -19.827869 3.582317 -28.724304
v 20.591465 3.831169 -29.982714
v 25.936592 9.342741 -29.982714
v -25.483572 48.514790 -29.982714
v -20.138443 54.026360 -29.982714
v -25.483572 48.514790 -28.447836
v -20.138443 54.026360 -28.447836
v 20.591465 3.831169 -28.447836
v 25.936592 9.342741 -28.447836
v -28.238604 9.027657 25.463005
v -28.238604 3.582317 20.050415
v -28.238604 54.275211 -20.058346
v -28.238604 48.829872 -25.470936
v -29.773485 54.275211 -20.058346
v -29.773485 48.829872 -25.470936
v -29.773485 9.027657 25.463005
v -29.773485 3.582317 20.050415
v -28.619118 3.831169 -20.368919
v -28.619118 9.342741 -25.714046
v -28.619118 48.514790 25.706118
v -28.619118 54.026360 20.360989
v -30.153999 48.514790 25.706118
v -30.153999 54.026360 20.360989
v -30.153999 3.831169 -20.368919
v -30.153999 9.342741 -25.714046
v 28.151545 9.027657 25.463005
v 28.151545 3.582317 20.050415
v 28.151545 54.275211 -20.058346
v 28.151545 48.829872 -25.470936
v 29.686422 54.275211 -20.058346
v 29.686422 48.829872 -25.470936
v 29.686422 9.027657 25.463005
v 29.686422 3.582317 20.050415
v 28.619122 3.831169 -20.368919
v 28.619122 9.342741 -25.714046
v 28.619122 48.514790 25.706118
v 28.619122 54.026360 20.360989
v 30.153999 48.514790 25.706118
v 30.153999 54.026360 20.360989
v 30.153999 3.831169 -20.368919
v 30.153999 9.342741 -25.714046
v -28.851574 0.000000 28.851574
v 28.851574 0.000000 28.851574
v -22.399632 51.109432 28.851574
v -22.399632 6.593710 28.851574
v -22.399632 0.000000 28.851574
v 22.399635 51.109432 28.851574
v 22.399635 6.593710 28.851574
v 22.399635 0.000000 28.851574
v 22.399635 57.703148 0.000000
v -22.399632 57.703148 0.000000
v -28.851574 51.109432 -0.000000
v -28.851574 6.593710 0.000000
v -28.851574 0.000000 0.000000
v -22.399632 0.000000 0.000000
v 22.399635 0.000000 0.000000
v 28.851574 0.000000 0.000000
v 28.851574 6.593710 0.000000
v 28.851574 51.109432 -0.000000
v 28.851574 51.109432 22.125952
v 28.851574 6.593710 22.125952
v 28.851574 0.000000 22.125952
v 22.399635 0.000000 22.125952
v -22.399632 0.000000 22.125952
v -28.851574 0.000000 22.125952
v -28.851574 6.593710 22.125952
v -28.851574 51.109432 22.125952
v -22.399632 57.703148 22.125952
v 22.399635 57.703148 22.125952
v 22.399635 0.000000 30.851574
v 30.851574 0.000000 30.851574
v 30.851574 6.593710 30.851574
v 22.399635 6.593710 30.851574
v 22.399635 59.703148 22.125952
v 30.851574 59.703148 22.125952
v 30.851574 59.703148 0.000000
v 22.399635 59.703148 0.000000
v 30.851574 -0.000000 0.000000
v 30.851574 0.000000 22.125952
v 30.851574 6.593710 0.000000
v 30.851574 6.593710 22.125952
v -30.851574 -0.000000 0.000000
v -30.851574 0.000000 22.125952
v -30.851574 6.593710 22.125952
v -30.851574 6.593710 0.000000
v -30.851574 51.109432 22.125952
v -30.851574 51.109432 -0.000000
v -30.851574 59.703148 22.125952
v -30.851574 59.703148 0.000000
v 30.851574 51.109432 22.125952
v 30.851574 51.109432 -0.000000
v 22.399635 59.703148 30.851574
v 22.399635 51.109432 30.851574
v 30.851574 51.109432 30.851574
v 30.851574 59.703148 30.851574
v -22.399632 6.593710 30.851574
v -30.851574 6.593710 30.851574
v -22.399632 51.109432 30.851574
v -30.851574 51.109432 30.851574
v -30.851574 0.000000 30.851574
v -22.399632 0.000000 30.851574
v -22.399632 59.703148 22.125952
v -22.399632 59.703148 0.000000
v -22.399632 59.703148 30.851574
v -30.851574 59.703148 30.851574
v -28.851574 0.000000 -28.851574
v 28.851574 0.000000 -28.851574
v -22.399632 51.109432 -28.851574
v -22.399632 6.593710 -28.851574
v -22.399632 0.000000 -28.851574
v 22.399635 51.109432 -28.851574
v 22.399635 6.593710 -28.851574
v 22.399635 0.000000 -28.851574
v 28.851574 51.109432 -22.125952
v 28.851574 6.593710 -22.125952
v 28.851574 0.000000 -22.125952
v 22.399635 0.000000 -22.125952
v -22.399632 0.000000 -22.125952
v -28.851574 0.000000 -22.125952
v -28.851574 6.593710 -22.125952
v -28.851574 51.109432 -22.125952
v -22.399632 57.703148 -22.125952
v 22.399635 57.703148 -22.125952
v 22.399635 -0.000000 -30.851574
v 30.851574 -0.000000 -30.851574
v 30.851574 6.593710 -30.851574
v 22.399635 6.593710 -30.851574
v 22.399635 59.703148 -22.125952
v 30.851574 59.703148 -22.125952
v 30.851574 0.000000 -22.125952
v 30.851574 6.593710 -22.125952
v -30.851574 0.000000 -22.125952
v -30.851574 6.593710 -22.125952
v -30.851574 51.109432 -22.125952
v -30.851574 59.703148 -22.125952
v 30.851574 51.109432 -22.125952
v 22.399635 59.703148 -30.851574
v 22.399635 51.109432 -30.851574
v 30.851574 51.109432 -30.851574
v 30.851574 59.703148 -30.851574
v -22.399632 6.593710 -30.851574
v -30.851574 6.593710 -30.851574
v -22.399632 51.109432 -30.851574
v -30.851574 51.109432 -30.851574
v -30.851574 -0.000000 -30.851574
v -22.399632 0.000000 -30.851574
v -22.399632 59.703148 -22.125952
v -22.399632 59.703148 -30.851574
v -30.851574 59.703148 -30.851574
vt 0.960784 0.463521
vt 0.986955 0.463522
vt 0.986953 0.682307
vt 0.960782 0.682307
vt 0.986953 0.687539
vt 0.960782 0.687539
vt 0.986951 0.906324
vt 0.960779 0.906324
vt 0.986951 0.911556
vt 0.960779 0.911556
vt 0.992188 0.463522
vt 0.992185 0.682307
vt 0.955552 0.463521
vt 0.955550 0.682307
vt 0.833815 0.235667
vt 0.859986 0.235668
vt 0.859984 0.454453
vt 0.833812 0.454453
vt 0.859984 0.459685
vt 0.833812 0.459685
vt 0.859981 0.678470
vt 0.833810 0.678470
vt 0.859981 0.683702
vt 0.833810 0.683702
vt 0.865218 0.235668
vt 0.865216 0.454453
vt 0.828583 0.235667
vt 0.828580 0.454452
vt 0.779399 0.464916
vt 0.805570 0.464916
vt 0.805568 0.683702
vt 0.779397 0.683701
vt 0.805568 0.688934
vt 0.779397 0.688933
vt 0.805566 0.907719
vt 0.779394 0.907718
vt 0.805566 0.912951
vt 0.779394 0.912950
vt 0.810802 0.464917
vt 0.810800 0.683702
vt 0.774167 0.464916
vt 0.774165 0.683701
vt 0.638826 0.183226
vt 0.664997 0.183227
vt 0.664995 0.402012
vt 0.638823 0.402011
vt 0.664995 0.407244
vt 0.638823 0.407243
vt 0.664992 0.626029
vt 0.638821 0.626029
vt 0.664992 0.631261
vt 0.638821 0.631261
vt 0.670229 0.183227
vt 0.670227 0.402012
vt 0.633594 0.183226
vt 0.633591 0.402011
vt 0.900795 0.464916
vt 0.900798 0.683702
vt 0.874626 0.683702
vt 0.874624 0.464917
vt 0.900798 0.688934
vt 0.874626 0.688934
vt 0.900800 0.907719
vt 0.874629 0.907719
vt 0.900800 0.912951
vt 0.874629 0.912951
vt 0.869394 0.683702
vt 0.869392 0.464917
vt 0.906027 0.464916
vt 0.906030 0.683701
vt 0.714875 0.183227
vt 0.714878 0.402012
vt 0.688706 0.402013
vt 0.688704 0.183228
vt 0.714878 0.407245
vt 0.688706 0.407245
vt 0.714880 0.626030
vt 0.688709 0.626030
vt 0.714880 0.631262
vt 0.688709 0.631262
vt 0.683474 0.402013
vt 0.683472 0.183228
vt 0.720107 0.183227
vt 0.720110 0.402012
vt 0.879161 0.007813
vt 0.905332 0.007813
vt 0.905330 0.226598
vt 0.879158 0.226598
vt 0.905330 0.231830
vt 0.879158 0.231830
vt 0.905327 0.450615
vt 0.879156 0.450615
vt 0.905327 0.455847
vt 0.879156 0.455847
vt 0.910564 0.007813
vt 0.910562 0.226598
vt 0.873929 0.007812
vt 0.873926 0.226598
vt 0.793003 0.007813
vt 0.819174 0.007813
vt 0.819172 0.226598
vt 0.793001 0.226598
vt 0.819172 0.231830
vt 0.793000 0.231830
vt 0.819170 0.450615
vt 0.792998 0.450615
vt 0.819170 0.455847
vt 0.792998 0.455847
vt 0.824406 0.007813
vt 0.824404 0.226598
vt 0.787771 0.007812
vt 0.787768 0.226598
vt 0.946142 0.235667
vt 0.946144 0.454452
vt 0.919972 0.454452
vt 0.919970 0.235667
vt 0.946144 0.459684
vt 0.919972 0.459684
vt 0.946146 0.678469
vt 0.919975 0.678470
vt 0.946146 0.683701
vt 0.919975 0.683702
vt 0.914740 0.454453
vt 0.914738 0.235667
vt 0.951374 0.235667
vt 0.951376 0.454452
vt 0.764756 0.183228
vt 0.764759 0.402013
vt 0.738587 0.402013
vt 0.738585 0.183228
vt 0.764759 0.407245
vt 0.738587 0.407245
vt 0.764761 0.626030
vt 0.738590 0.626030
vt 0.764761 0.631262
vt 0.738590 0.631262
vt 0.733355 0.402013
vt 0.733353 0.183228
vt 0.769988 0.183228
vt 0.769991 0.402013
vt 0.240135 0.421655
vt 0.211325 0.421655
vt 0.211325 0.399179
vt 0.240135 0.399179
vt 0.240135 0.188399
vt 0.211325 0.188399
vt 0.211325 0.112978
vt 0.240135 0.112978
vt 0.240135 0.526820
vt 0.218142 0.526820
vt 0.218142 0.451398
vt 0.240135 0.451398
vt 0.211325 0.451398
vt 0.211325 0.526820
vt 0.188849 0.526820
vt 0.188849 0.451398
vt 0.421655 0.526820
vt 0.421655 0.451398
vt 0.444131 0.451398
vt 0.444131 0.526820
vt 0.595874 0.526820
vt 0.595874 0.451398
vt 0.625167 0.451398
vt 0.625167 0.526820
vt 0.007812 0.451398
vt 0.037106 0.451398
vt 0.037106 0.526820
vt 0.007812 0.526820
vt 0.240135 0.218143
vt 0.240135 0.247436
vt 0.211325 0.247436
vt 0.211325 0.218143
vt 0.516307 0.190043
vt 0.591728 0.190043
vt 0.591728 0.341786
vt 0.516307 0.341786
vt 0.037303 0.189081
vt 0.112725 0.189080
vt 0.112727 0.340822
vt 0.037305 0.340823
vt 0.421655 0.399179
vt 0.392844 0.399179
vt 0.392844 0.247436
vt 0.421655 0.247436
vt 0.421655 0.421655
vt 0.392844 0.421655
vt 0.414837 0.526820
vt 0.392844 0.526820
vt 0.392844 0.451398
vt 0.414837 0.451398
vt 0.421655 0.188399
vt 0.392844 0.188399
vt 0.392844 0.112977
vt 0.421655 0.112977
vt 0.392844 0.218142
vt 0.421655 0.218142
vt 0.440396 0.015119
vt 0.593105 0.015108
vt 0.593117 0.166850
vt 0.440408 0.166861
vt 0.617736 0.167339
vt 0.617738 0.014630
vt 0.693159 0.014631
vt 0.693157 0.167340
vt 0.188849 0.421655
vt 0.037106 0.421655
vt 0.218142 0.428472
vt 0.240135 0.428472
vt 0.392844 0.428472
vt 0.414837 0.428472
vt 0.444131 0.421655
vt 0.595874 0.421655
vt 0.625167 0.421655
vt 0.007812 0.421655
vt 0.617738 0.007812
vt 0.693159 0.007814
vt 0.037303 0.182264
vt 0.112725 0.182262
vt 0.516307 0.183226
vt 0.591728 0.183226
vt 0.591728 0.348603
vt 0.516307 0.348603
vt 0.112727 0.347640
vt 0.037305 0.347641
vt 0.599923 0.015107
vt 0.599934 0.166849
vt 0.433590 0.166862
vt 0.433579 0.015120
vt 0.693157 0.174157
vt 0.617736 0.174156
vt 0.440396 0.008301
vt 0.593105 0.008290
vt 0.593117 0.173667
vt 0.440408 0.173679
vt 0.030488 0.340824
vt 0.030486 0.189081
vt 0.598546 0.190043
vt 0.598546 0.341786
vt 0.610918 0.167339
vt 0.610920 0.014630
vt 0.240136 0.631985
vt 0.240136 0.654461
vt 0.211325 0.654461
vt 0.211325 0.631985
vt 0.240135 0.037556
vt 0.211325 0.037556
vt 0.240136 0.602242
vt 0.218142 0.602242
vt 0.211325 0.602242
vt 0.188849 0.602242
vt 0.444131 0.602241
vt 0.421655 0.602241
vt 0.625167 0.602241
vt 0.595874 0.602241
vt 0.007813 0.602242
vt 0.037106 0.602242
vt 0.240136 0.835497
vt 0.211325 0.835497
vt 0.211325 0.806204
vt 0.240136 0.806204
vt 0.440885 0.341786
vt 0.440885 0.190043
vt 0.188146 0.189079
vt 0.188148 0.340821
vt 0.421655 0.654461
vt 0.421655 0.806204
vt 0.392845 0.806204
vt 0.392844 0.654461
vt 0.421655 0.631985
vt 0.392844 0.631985
vt 0.414838 0.602241
vt 0.392844 0.602242
vt 0.421655 0.037556
vt 0.392844 0.037556
vt 0.421655 0.835497
vt 0.392845 0.835497
vt 0.167341 0.014632
vt 0.167339 0.166375
vt 0.014630 0.166372
vt 0.014632 0.014630
vt 0.768579 0.167341
vt 0.768581 0.014632
vt 0.188849 0.631985
vt 0.037106 0.631985
vt 0.240136 0.625167
vt 0.218142 0.625167
vt 0.392844 0.625167
vt 0.414838 0.625167
vt 0.444131 0.631985
vt 0.595874 0.631985
vt 0.625167 0.631985
vt 0.421655 0.007812
vt 0.392844 0.007813
vt 0.240135 0.007813
vt 0.211325 0.007813
vt 0.007813 0.631985
vt 0.768581 0.007815
vt 0.188146 0.182261
vt 0.440885 0.183226
vt 0.440885 0.348603
vt 0.188148 0.347639
vt 0.007812 0.166372
vt 0.007815 0.014630
vt 0.174159 0.014632
vt 0.174156 0.166375
vt 0.768579 0.174159
vt 0.014632 0.007812
vt 0.167341 0.007815
vt 0.167339 0.173192
vt 0.014630 0.173190
vt 0.194964 0.189079
vt 0.194966 0.340821
vt 0.434068 0.341786
vt 0.434068 0.190043
vt 0.775398 0.014632
vt 0.775396 0.167341
vn 0.000000 -1.000000 0.000000
vn 0.000000 -1.000000 0.000000
vn 0.000000 -1.000000 0.000000
vn 0.000000 -1.000000 0.000000
vn 0.709237 0.000000 0.704970
vn 0.709237 0.000000 0.704970
vn 0.709237 0.000000 0.704970
vn 0.709237 0.000000 0.704970
vn 0.000000 1.000000 0.000000
vn 0.000000 1.000000 0.000000
vn 0.000000 1.000000 0.000000
vn 0.000000 1.000000 0.000000
vn -0.709237 0.000000 -0.704970
vn -0.709237 0.000000 -0.704970
vn -0.709237 0.000000 -0.704970
vn -0.709237 0.000000 -0.704970
vn 0.704971 0.000000 -0.709236
vn 0.704971 0.000000 -0.709236
vn 0.704971 0.000000 -0.709236
vn 0.704971 0.000000 -0.709236
vn -0.704971 0.000000 0.709236
vn -0.704971 0.000000 0.709236
vn -0.704971 0.000000 0.709236
vn -0.704971 0.000000 0.709236
vn 0.000000 -1.000000 0.000000
vn 0.000000 -1.000000 0.000000
vn 0.000000 -1.000000 0.000000
vn 0.000000 -1.000000 0.000000
vn -0.717862 0.000000 0.696185
vn -0.717862 0.000000 0.696185
vn -0.717862 0.000000 0.696185
vn -0.717862 0.000000 0.696185
vn 0.000000 1.000000 -0.000000
vn 0.000000 1.000000 -0.000000
vn 0.000000 1.000000 -0.000000
vn 0.000000 1.000000 -0.000000
vn 0.717862 0.000000 -0.696185
vn 0.717862 0.000000 -0.696185
vn 0.717862 0.000000 -0.696185
vn 0.717862 0.000000 -0.696185
vn 0.696183 0.000000 0.717864
vn 0.696183 0.000000 0.717864
vn 0.696183 0.000000 0.717864
vn 0.696183 0.000000 0.717864
vn -0.696183 0.000000 -0.717864
vn -0.696183 0.000000 -0.717864
vn -0.696183 0.000000 -0.717864
vn -0.696183 0.000000 -0.717864
vn 0.000000 0.000000 1.000000
vn 0.000000 0.000000 1.000000
vn 0.000000 0.000000 1.000000
vn 0.000000 0.000000 1.000000
vn 0.709237 0.704970 0.000000
vn 0.709237 0.704970 0.000000
vn 0.709237 0.704970 0.000000
vn 0.709237 0.704970 0.000000
vn 0.000000 0.000000 -1.000000
vn 0.000000 0.000000 -1.000000
vn 0.000000 0.000000 -1.000000
vn 0.000000 0.000000 -1.000000
vn -0.709237 -0.704970 0.000000
vn -0.709237 -0.704970 0.000000
vn -0.709237 -0.704970 0.000000
vn -0.709237 -0.704970 0.000000
vn 0.704971 -0.709237 0.000000
vn 0.704971 -0.709237 0.000000
vn 0.704971 -0.709237 0.000000
vn 0.704971 -0.709237 0.000000
vn -0.704971 0.709237 0.000000
vn -0.704971 0.709237 0.000000
vn -0.704971 0.709237 0.000000
vn -0.704971 0.709237 0.000000
vn 0.000000 0.000000 1.000000
vn 0.000000 0.000000 1.000000
vn 0.000000 0.000000 1.000000
vn 0.000000 0.000000 1.000000
vn -0.717863 0.696184 0.000000
vn -0.717863 0.696184 0.000000
vn -0.717863 0.696184 0.000000
vn -0.717863 0.696184 0.000000
vn -0.000000 0.000000 -1.000000
vn -0.000000 0.000000 -1.000000
vn -0.000000 0.000000 -1.000000
vn -0.000000 0.000000 -1.000000
vn 0.717863 -0.696185 0.000000
vn 0.717863 -0.696185 0.000000
vn 0.717863 -0.696185 0.000000
vn 0.717863 -0.696185 0.000000
vn 0.696185 0.717863 0.000000
vn 0.696185 0.717863 0.000000
vn 0.696185 0.717863 0.000000
vn 0.696185 0.717863 0.000000
vn -0.696185 -0.717863 0.000000
vn -0.696185 -0.717863 0.000000
vn -0.696185 -0.717863 0.000000
vn -0.696185 -0.717863 0.000000
vn 0.000000 0.000000 -1.000000
vn 0.000000 0.000000 -1.000000
vn 0.000000 0.000000 -1.000000
vn 0.000000 0.000000 -1.000000
vn 0.709237 0.704970 0.000000
vn 0.709237 0.704970 0.000000
vn 0.709237 0.704970 0.000000
vn 0.709237 0.704970 0.000000
vn 0.000000 0.000000 1.000000
vn 0.000000 0.000000 1.000000
vn 0.000000 0.000000 1.000000
vn 0.000000 0.000000 1.000000
vn -0.709237 -0.704970 0.000000
vn -0.709237 -0.704970 0.000000
vn -0.709237 -0.704970 0.000000
vn -0.709237 -0.704970 0.000000
vn 0.704971 -0.709236 0.000000
vn 0.704971 -0.709236 0.000000
vn 0.704971 -0.709236 0.000000
vn 0.704971 -0.709236 0.000000
vn -0.704971 0.709236 0.000000
vn -0.704971 0.709236 0.000000
vn -0.704971 0.709236 0.000000
vn -0.704971 0.709236 0.000000
vn 0.000000 0.000000 -1.000000
vn 0.000000 0.000000 -1.000000
vn 0.000000 0.000000 -1.000000
vn 0.000000 0.000000 -1.000000
vn -0.717863 0.696184 0.000000
vn -0.717863 0.696184 0.000000
vn -0.717863 0.696184 0.000000
vn -0.717863 0.696184 0.000000
vn 0.000000 0.000000 1.000000
vn 0.000000 0.000000 1.000000
vn 0.000000 0.000000 1.000000
vn 0.000000 0.000000 1.000000
vn 0.717863 -0.696185 0.000000
vn 0.717863 -0.696185 0.000000
vn 0.717863 -0.696185 0.000000
vn 0.717863 -0.696185 0.000000
vn 0.696184 0.717863 0.000000
vn 0.696184 0.717863 0.000000
vn 0.696184 0.717863 0.000000
vn 0.696184 0.717863 0.000000
vn -0.696184 -0.717863 0.000000
vn -0.696184 -0.717863 0.000000
vn -0.696184 -0.717863 0.000000
vn -0.696184 -0.717863 0.000000
vn 1.000000 0.000000 0.000000
vn 1.000000 0.000000 0.000000
vn 1.000000 0.000000 0.000000
vn 1.000000 0.000000 0.000000
vn 0.000000 0.704971 -0.709236
vn 0.000000 0.704971 -0.709236
vn 0.000000 0.704971 -0.709236
vn 0.000000 0.704971 -0.709236
vn -1.000000 -0.000000 0.000000
vn -1.000000 -0.000000 0.000000
vn -1.000000 -0.000000 0.000000
vn -1.000000 -0.000000 0.000000
vn 0.000000 -0.704971 0.709236
vn 0.000000 -0.704971 0.709236
vn 0.000000 -0.704971 0.709236
vn 0.000000 -0.704971 0.709236
vn 0.000000 -0.709236 -0.704971
vn 0.000000 -0.709236 -0.704971
vn 0.000000 -0.709236 -0.704971
vn 0.000000 -0.709236 -0.704971
vn 0.000000 0.709236 0.704971
vn 0.000000 0.709236 0.704971
vn 0.000000 0.709236 0.704971
vn 0.000000 0.709236 0.704971
vn 1.000000 0.000000 0.000000
vn 1.000000 0.000000 0.000000
vn 1.000000 0.000000 0.000000
vn 1.000000 0.000000 0.000000
vn 0.000000 0.696185 0.717863
vn 0.000000 0.696185 0.717863
vn 0.000000 0.696185 0.717863
vn 0.000000 0.696185 0.717863
vn -1.000000 0.000000 0.000000
vn -1.000000 0.000000 0.000000
vn -1.000000 0.000000 0.000000
vn -1.000000 0.000000 0.000000
vn 0.000000 -0.696184 -0.717863
vn 0.000000 -0.696184 -0.717863
vn 0.000000 -0.696184 -0.717863
vn 0.000000 -0.696184 -0.717863
vn 0.000000 0.717863 -0.696184
vn 0.000000 0.717863 -0.696184
vn 0.000000 0.717863 -0.696184
vn 0.000000 0.717863 -0.696184
vn 0.000000 -0.717863 0.696184
vn 0.000000 -0.717863 0.696184
vn 0.000000 -0.717863 0.696184
vn 0.000000 -0.717863 0.696184
vn -1.000000 0.000000 0.000000
vn -1.000000 0.000000 0.000000
vn -1.000000 0.000000 0.000000
vn -1.000000 0.000000 0.000000
vn 0.000000 0.704971 -0.709237
vn 0.000000 0.704971 -0.709237
vn 0.000000 0.704971 -0.709237
vn 0.000000 0.704971 -0.709237
vn 1.000000 -0.000000 0.000000
vn 1.000000 -0.000000 0.000000
vn 1.000000 -0.000000 0.000000
vn 1.000000 -0.000000 0.000000
vn 0.000000 -0.704971 0.709236
vn 0.000000 -0.704971 0.709236
vn 0.000000 -0.704971 0.709236
vn 0.000000 -0.704971 0.709236
vn 0.000000 -0.709237 -0.704970
vn 0.000000 -0.709237 -0.704970
vn 0.000000 -0.709237 -0.704970
vn 0.000000 -0.709237 -0.704970
vn 0.000000 0.709237 0.704970
vn 0.000000 0.709237 0.704970
vn 0.000000 0.709237 0.704970
vn 0.000000 0.709237 0.704970
vn -1.000000 0.000000 0.000000
vn -1.000000 0.000000 0.000000
vn -1.000000 0.000000 0.000000
vn -1.000000 0.000000 0.000000
vn 0.000000 0.696184 0.717863
vn 0.000000 0.696184 0.717863
vn 0.000000 0.696184 0.717863
vn 0.000000 0.696184 0.717863
vn 1.000000 -0.000000 0.000000
vn 1.000000 -0.000000 0.000000
vn 1.000000 -0.000000 0.000000
vn 1.000000 -0.000000 0.000000
vn 0.000000 -0.696184 -0.717863
vn 0.000000 -0.696184 -0.717863
vn 0.000000 -0.696184 -0.717863
vn 0.000000 -0.696184 -0.717863
vn 0.000000 0.717863 -0.696185
vn 0.000000 0.717863 -0.696185
vn 0.000000 0.717863 -0.696185
vn 0.000000 0.717863 -0.696185
vn 0.000000 -0.717863 0.696185
vn 0.000000 -0.717863 0.696185
vn 0.000000 -0.717863 0.696185
vn 0.000000 -0.717863 0.696185
vn 0.000000 0.000000 1.000000
vn 0.000000 0.000000 1.000000
vn 0.000000 0.000000 1.000000
vn 0.000000 0.000000 1.000000
vn 0.000000 1.000000 0.000000
vn 0.000000 1.000000 0.000000
vn 0.000000 1.000000 0.000000
vn 0.000000 1.000000 0.000000
vn 0.000000 -1.000000 0.000000
vn -0.000000 -1.000000 -0.000000
vn -0.000000 -1.000000 0.000000
vn 0.000000 -1.000000 0.000000
vn 1.000000 0.000000 0.000000
vn 1.000000 0.000000 0.000000
vn 1.000000 0.000000 0.000000
vn 1.000000 0.000000 0.000000
vn -1.000000 0.000000 0.000000
vn -1.000000 0.000000 0.000000
vn -1.000000 0.000000 0.000000
vn -1.000000 0.000000 0.000000
vn -1.000000 -0.000000 0.000000
vn -1.000000 -0.000000 0.000000
vn -1.000000 -0.000000 0.000000
vn -1.000000 -0.000000 0.000000
vn 1.000000 0.000000 0.000000
vn 1.000000 0.000000 0.000000
vn 1.000000 0.000000 0.000000
vn 1.000000 0.000000 0.000000
vn 0.000000 0.000000 1.000000
vn 0.000000 0.000000 1.000000
vn 0.000000 0.000000 1.000000
vn 0.000000 0.000000 1.000000
vn -1.000000 0.000000 0.000000
vn -1.000000 0.000000 0.000000
vn -1.000000 0.000000 0.000000
vn -1.000000 0.000000 0.000000
vn 1.000000 0.000000 0.000000
vn 1.000000 0.000000 0.000000
vn 1.000000 0.000000 0.000000
vn 1.000000 0.000000 0.000000
vn 0.000000 0.000000 1.000000
vn 0.000000 0.000000 1.000000
vn 0.000000 0.000000 1.000000
vn 0.000000 0.000000 1.000000
vn 0.000000 0.000000 1.000000
vn 0.000000 0.000000 1.000000
vn 0.000000 -1.000000 -0.000000
vn 0.000000 -1.000000 0.000000
vn 0.000000 -1.000000 0.000000
vn 0.000000 -1.000000 0.000000
vn 0.000000 1.000000 0.000000
vn 0.000000 1.000000 0.000000
vn 0.000000 1.000000 0.000000
vn 0.000000 1.000000 0.000000
vn 0.000000 0.000000 1.000000
vn 0.000000 0.000000 1.000000
vn 0.000000 0.000000 1.000000
vn 0.000000 0.000000 1.000000
vn 0.000000 0.000000 1.000000
vn 0.000000 0.000000 1.000000
vn 0.000000 1.000000 0.000000
vn 0.000000 1.000000 0.000000
vn 0.000000 1.000000 0.000000
vn 0.000000 1.000000 0.000000
vn 1.000000 0.000000 0.000000
vn 1.000000 0.000000 0.000000
vn 1.000000 0.000000 0.000000
vn 0.000000 -1.000000 0.000000
vn 0.000000 -1.000000 0.000000
vn 0.000000 -1.000000 0.000000
vn 0.000000 -1.000000 0.000000
vn -1.000000 0.000000 0.000000
vn -1.000000 0.000000 0.000000
vn -1.000000 0.000000 0.000000
vn -1.000000 0.000000 0.000000
vn 0.000000 1.000000 0.000000
vn 0.000000 1.000000 0.000000
vn 0.000000 1.000000 0.000000
vn 0.000000 1.000000 0.000000
vn 1.000000 0.000000 0.000000
vn 0.000000 -1.000000 0.000000
vn 0.000000 -1.000000 0.000000
vn -1.000000 0.000000 0.000000
vn -1.000000 0.000000 0.000000
vn -1.000000 0.000000 0.000000
vn -1.000000 0.000000 0.000000
vn -0.000000 -1.000000 -0.000000
vn -0.000000 -1.000000 0.000000
vn 0.000000 1.000000 0.000000
vn 0.000000 1.000000 0.000000
vn 0.000000 1.000000 0.000000
vn 0.000000 1.000000 0.000000
vn 0.000000 -1.000000 0.000000
vn 0.000000 -1.000000 -0.000000
vn 0.000000 1.000000 0.000000
vn 0.000000 1.000000 0.000000
vn 0.000000 1.000000 0.000000
vn 0.000000 1.000000 0.000000
vn 0.000000 -1.000000 0.000000
vn 0.000000 -1.000000 0.000000
vn 0.000000 -1.000000 0.000000
vn 0.000000 -1.000000 0.000000
vn 0.000000 -1.000000 0.000000
vn 0.000000 -1.000000 0.000000
vn 0.000000 -1.000000 0.000000
vn 0.000000 -1.000000 0.000000
vn -1.000000 0.000000 0.000000
vn -1.000000 0.000000 0.000000
vn -1.000000 0.000000 0.000000
vn -1.000000 0.000000 0.000000
vn 1.000000 0.000000 0.000000
vn 1.000000 0.000000 0.000000
vn 1.000000 0.000000 0.000000
vn 1.000000 0.000000 0.000000
vn 0.000000 -1.000000 0.000000
vn 0.000000 -1.000000 0.000000
vn 1.000000 0.000000 0.000000
vn 1.000000 0.000000 0.000000
vn 1.000000 0.000000 0.000000
vn 1.000000 0.000000 0.000000
vn 0.000000 1.000000 0.000000
vn 0.000000 1.000000 0.000000
vn 0.000000 1.000000 0.000000
vn 0.000000 1.000000 0.000000
vn 0.000000 -1.000000 0.000000
vn 0.000000 -1.000000 0.000000
vn 0.000000 -1.000000 0.000000
vn 0.000000 -1.000000 0.000000
vn 0.000000 0.000000 -1.000000
vn 0.000000 0.000000 -1.000000
vn 0.000000 0.000000 -1.000000
vn 0.000000 0.000000 -1.000000
vn 0.000000 0.000000 -1.000000
vn 0.000000 0.000000 -1.000000
vn 0.000000 0.000000 -1.000000
vn 0.000000 0.000000 -1.000000
vn 0.000000 0.000000 -1.000000
vn 0.000000 0.000000 -1.000000
vn 0.000000 0.000000 -1.000000
vn 0.000000 0.000000 -1.000000
vn 0.000000 0.000000 -1.000000
vn 0.000000 0.000000 -1.000000
vn 0.000000 0.000000 -1.000000
vn 0.000000 0.000000 -1.000000
vn 0.000000 1.000000 0.000000
vn 0.000000 1.000000 0.000000
vn 0.000000 -1.000000 0.000000
vn -0.000000 -1.000000 0.000000
vn 1.000000 0.000000 0.000000
vn 1.000000 0.000000 0.000000
vn -1.000000 0.000000 0.000000
vn -1.000000 0.000000 0.000000
vn -1.000000 0.000000 0.000000
vn -1.000000 0.000000 0.000000
vn 1.000000 0.000000 0.000000
vn 1.000000 0.000000 0.000000
vn 0.000000 0.000000 -1.000000
vn 0.000000 0.000000 -1.000000
vn 0.000000 0.000000 -1.000000
vn 0.000000 0.000000 -1.000000
vn -1.000000 0.000000 0.000000
vn -1.000000 0.000000 0.000000
vn 1.000000 0.000000 0.000000
vn 1.000000 0.000000 0.000000
vn -0.000000 0.000000 -1.000000
vn 0.000000 0.000000 -1.000000
vn 0.000000 0.000000 -1.000000
vn 0.000000 0.000000 -1.000000
vn -0.000000 0.000000 -1.000000
vn 0.000000 0.000000 -1.000000
vn -0.000000 -1.000000 -0.000000
vn 0.000000 -1.000000 0.000000
vn 0.000000 1.000000 0.000000
vn 0.000000 1.000000 0.000000
vn 0.000000 0.000000 -1.000000
vn 0.000000 0.000000 -1.000000
vn 0.000000 0.000000 -1.000000
vn 0.000000 0.000000 -1.000000
vn 0.000000 0.000000 -1.000000
vn 0.000000 0.000000 -1.000000
vn 0.000000 1.000000 0.000000
vn 0.000000 1.000000 0.000000
vn 1.000000 0.000000 0.000000
vn 1.000000 0.000000 0.000000
vn 1.000000 0.000000 0.000000
vn -0.000000 -1.000000 0.000000
vn -0.000000 -1.000000 0.000000
vn -0.000000 -1.000000 0.000000
vn -0.000000 -1.000000 0.000000
vn -1.000000 0.000000 0.000000
vn -1.000000 0.000000 0.000000
vn -1.000000 0.000000 0.000000
vn -1.000000 0.000000 0.000000
vn 0.000000 1.000000 0.000000
vn 0.000000 1.000000 0.000000
vn 0.000000 1.000000 0.000000
vn 0.000000 1.000000 0.000000
vn 1.000000 0.000000 0.000000
vn -0.000000 -1.000000 0.000000
vn -0.000000 -1.000000 0.000000
vn -1.000000 0.000000 0.000000
vn -1.000000 0.000000 0.000000
vn -0.000000 -1.000000 0.000000
vn 0.000000 1.000000 0.000000
vn 0.000000 1.000000 0.000000
vn -0.000000 -1.000000 -0.000000
vn 0.000000 1.000000 0.000000
vn 0.000000 1.000000 0.000000
vn 0.000000 -1.000000 0.000000
vn 0.000000 -1.000000 0.000000
vn 0.000000 -1.000000 0.000000
vn 0.000000 -1.000000 0.000000
vn -1.000000 0.000000 0.000000
vn -1.000000 0.000000 0.000000
vn -1.000000 0.000000 0.000000
vn -1.000000 0.000000 0.000000
vn 1.000000 0.000000 0.000000
vn 1.000000 0.000000 0.000000
vn 1.000000 0.000000 0.000000
vn 1.000000 0.000000 0.000000
vn -0.000000 -1.000000 0.000000
vn -0.000000 -1.000000 0.000000
vn 1.000000 0.000000 0.000000
vn 1.000000 0.000000 0.000000
vn 0.000000 1.000000 0.000000
vn 0.000000 1.000000 0.000000
vn 0.000000 1.000000 0.000000
vn 0.000000 1.000000 0.000000
vn 0.000000 -1.000000 0.000000
vn 0.000000 -1.000000 0.000000
vn 0.000000 -1.000000 0.000000
vn 0.000000 -1.000000 0.000000
vn 0.000000 0.000000 1.000000
vn 0.000000 0.000000 1.000000
vn 0.000000 0.000000 1.000000
vn 0.000000 0.000000 1.000000
vn 0.000000 0.000000 1.000000
vn 0.000000 0.000000 1.000000
vn 0.000000 0.000000 1.000000
vn 0.000000 0.000000 1.000000
vn 0.000000 0.000000 1.000000
vn 0.000000 0.000000 1.000000
vn 0.000000 0.000000 1.000000
vn 0.000000 0.000000 1.000000
s off
g Crate
usemtl lambert1SG
f 1/1/1 2/2/2 4/3/3 3/4/4
f 3/4/5 4/3/6 6/5/7 5/6/8
f 5/6/9 6/5/10 8/7/11 7/8/12
f 7/8/13 8/7/14 2/9/15 1/10/16
f 2/2/17 8/11/18 6/12/19 4/3/20
f 7/13/21 1/1/22 3/4/23 5/14/24
f 9/15/25 10/16/26 12/17/27 11/18/28
f 11/18/29 12/17/30 14/19/31 13/20/32
f 13/20/33 14/19/34 16/21/35 15/22/36
f 15/22/37 16/21/38 10/23/39 9/24/40
f 10/16/41 16/25/42 14/26/43 12/17/44
f 15/27/45 9/15/46 11/18/47 13/28/48
f 17/29/49 18/30/50 20/31/51 19/32/52
f 19/32/53 20/31/54 22/33/55 21/34/56
f 21/34/57 22/33/58 24/35/59 23/36/60
f 23/36/61 24/35/62 18/37/63 17/38/64
f 18/30/65 24/39/66 22/40/67 20/31/68
f 23/41/69 17/29/70 19/32/71 21/42/72
f 25/43/73 26/44/74 28/45/75 27/46/76
f 27/46/77 28/45/78 30/47/79 29/48/80
f 29/48/81 30/47/82 32/49/83 31/50/84
f 31/50/85 32/49/86 26/51/87 25/52/88
f 26/44/89 32/53/90 30/54/91 28/45/92
f 31/55/93 25/43/94 27/46/95 29/56/96
f 33/57/97 35/58/98 36/59/99 34/60/100
f 35/58/101 37/61/102 38/62/103 36/59/104
f 37/61/105 39/63/106 40/64/107 38/62/108
f 39/63/109 33/65/110 34/66/111 40/64/112
f 34/60/113 36/59/114 38/67/115 40/68/116
f 39/69/117 37/70/118 35/58/119 33/57/120
f 41/71/121 43/72/122 44/73/123 42/74/124
f 43/72/125 45/75/126 46/76/127 44/73/128
f 45/75/129 47/77/130 48/78/131 46/76/132
f 47/77/133 41/79/134 42/80/135 48/78/136
f 42/74/137 44/73/138 46/81/139 48/82/140
f 47/83/141 45/84/142 43/72/143 41/71/144
f 49/85/145 50/86/146 52/87/147 51/88/148
f 51/88/149 52/87/150 54/89/151 53/90/152
f 53/90/153 54/89/154 56/91/155 55/92/156
f 55/92/157 56/91/158 50/93/159 49/94/160
f 50/86/161 56/95/162 54/96/163 52/87/164
f 55/97/165 49/85/166 51/88/167 53/98/168
f 57/99/169 58/100/170 60/101/171 59/102/172
f 59/102/173 60/101/174 62/103/175 61/104/176
f 61/104/177 62/103/178 64/105/179 63/106/180
f 63/106/181 64/105/182 58/107/183 57/108/184
f 58/100/185 64/109/186 62/110/187 60/101/188
f 63/111/189 57/99/190 59/102/191 61/112/192
f 65/113/193 67/114/194 68/115/195 66/116/196
f 67/114/197 69/117/198 70/118/199 68/115/200
f 69/117/201 71/119/202 72/120/203 70/118/204
f 71/119/205 65/121/206 66/122/207 72/120/208
f 66/116/209 68/115/210 70/123/211 72/124/212
f 71/125/213 69/126/214 67/114/215 65/113/216
f 73/127/217 75/128/218 76/129/219 74/130/220
f 75/128/221 77/131/222 78/132/223 76/129/224
f 77/131/225 79/133/226 80/134/227 78/132/228
f 79/133/229 73/135/230 74/136/231 80/134/232
f 74/130/233 76/129/234 78/137/235 80/138/236
f 79/139/237 77/140/238 75/128/239 73/127/240
s 1
f 109/141/241 110/142/242 111/143/243 112/144/244
s 2
f 113/145/245 114/146/246 115/147/247 116/148/248
s 3
f 95/149/249 96/150/250 101/151/251 102/152/252
s 4
f 118/153/253 117/154/254 119/155/255 120/156/256
s 5
f 121/157/257 122/158/258 123/159/259 124/160/260
f 126/161/261 125/162/262 127/163/263 128/164/264
s 4
f 114/165/265 129/166/266 130/167/267 115/168/268
s 1
f 131/169/269 132/170/270 133/171/271 134/172/272
s 9
f 92/173/273 105/174/274 106/175/275 91/176/276
s 10
f 100/177/277 97/178/278 98/179/279 99/180/280
s 1
f 112/144/244 111/143/243 133/171/271 132/170/270
f 136/181/281 135/182/282 137/183/283 138/184/284
f 139/185/285 140/186/286 135/182/282 136/181/281
s 3
f 93/187/287 94/188/288 103/189/289 104/190/290
s 2
f 127/191/291 141/192/292 142/193/293 128/194/294
s 1
f 138/184/284 137/183/283 143/195/295 144/196/296
s off
f 84/197/297 87/198/298 86/199/299 83/200/300
s 1
f 140/186/286 109/141/241 112/144/244 135/182/282
s 3
f 94/188/288 95/149/249 102/152/252 103/189/289
s 14
f 107/201/301 108/202/302 89/203/303 90/204/304
s 1
f 143/195/295 137/183/283 132/170/270 131/169/269
s 4
f 111/205/305 120/156/256 129/166/266 133/206/306
f 110/142/307 118/153/253 120/156/256 111/205/305
s 3
f 102/152/252 101/151/251 82/207/308 88/208/309
f 103/189/289 102/152/252 88/208/309 85/209/310
f 104/190/290 103/189/289 85/209/310 81/210/311
s 5
f 123/159/259 122/158/258 139/185/312 136/211/313
f 125/162/262 123/159/259 136/211/313 138/212/314
f 127/163/263 125/162/262 138/212/314 144/213/315
s 2
f 144/196/316 143/195/317 141/192/292 127/191/291
f 143/195/317 131/169/318 113/145/245 141/192/292
f 131/169/318 134/172/319 114/146/246 113/145/245
s 4
f 133/206/306 129/166/266 114/165/265 134/214/320
s 3
f 88/208/309 82/207/308 110/142/321 109/141/322
s 15
f 89/203/323 108/202/324 113/215/325 116/216/326
s 3
f 101/151/251 96/150/250 117/154/327 118/153/328
s 16
f 97/178/329 100/177/330 120/217/331 119/218/332
s 3
f 93/187/287 104/190/290 122/158/333 121/157/334
s 17
f 105/174/335 92/173/336 124/219/337 123/220/338
s 18
f 91/176/339 106/175/340 125/221/341 126/222/342
s 19
f 99/180/343 98/179/344 130/223/345 129/224/346
s off
f 86/199/347 87/198/348 112/225/349 132/226/350
f 84/197/351 83/200/352 137/227/353 135/228/354
s 3
f 81/210/311 85/209/310 140/186/355 139/185/356
s 20
f 107/201/357 90/204/358 142/229/359 141/230/360
s 3
f 85/209/310 88/208/309 109/141/322 140/186/355
s off
f 87/198/361 84/197/362 135/231/363 112/232/364
f 83/200/365 86/199/366 132/233/367 137/234/368
f 100/177/369 99/180/370 129/235/371 120/236/372
s 3
f 82/207/308 101/151/251 118/153/328 110/142/321
f 104/190/290 81/210/311 139/185/356 122/158/333
s off
f 106/175/373 105/174/374 123/237/375 125/238/376
f 108/202/377 107/201/378 141/239/379 113/240/380
s 21
f 163/241/381 166/242/382 165/243/383 164/244/384
s 2
f 167/245/385 116/148/248 115/147/247 168/246/386
s 3
f 95/149/249 156/247/387 155/248/388 96/150/250
s 4
f 169/249/389 170/250/390 119/155/255 117/154/254
s 5
f 121/157/257 124/160/260 172/251/391 171/252/392
f 126/161/261 128/164/264 174/253/393 173/254/394
s 4
f 168/255/395 115/168/268 130/167/267 175/256/396
s 21
f 176/257/397 179/258/398 178/259/399 177/260/400
s 9
f 92/173/273 91/176/276 160/261/401 159/262/402
s 10
f 154/263/403 153/264/404 98/179/279 97/178/278
s 21
f 166/242/382 177/260/400 178/259/399 165/243/383
f 181/265/405 183/266/406 182/267/407 180/268/408
f 184/269/409 181/265/405 180/268/408 185/270/410
s 3
f 93/187/287 158/271/411 157/272/412 94/188/288
s 2
f 174/273/413 128/194/294 142/193/293 186/274/414
s 21
f 183/266/406 188/275/415 187/276/416 182/267/407
s off
f 148/277/417 147/278/418 150/279/419 151/280/420
s 21
f 185/270/410 180/268/408 166/242/382 163/241/381
s 3
f 94/188/288 157/272/412 156/247/387 95/149/249
s 14
f 161/281/421 90/204/304 89/203/303 162/282/422
s 21
f 187/276/416 176/257/397 177/260/400 182/267/407
s 4
f 165/283/423 178/284/424 175/256/396 170/250/390
f 164/244/425 165/283/423 170/250/390 169/249/389
s 3
f 156/247/387 152/285/426 146/286/427 155/248/388
f 157/272/412 149/287/428 152/285/426 156/247/387
f 158/271/411 145/288/429 149/287/428 157/272/412
s 5
f 172/251/391 181/289/430 184/269/431 171/252/392
f 173/254/394 183/290/432 181/289/430 172/251/391
f 174/253/393 188/291/433 183/290/432 173/254/394
s 2
f 188/292/434 174/273/413 186/274/414 187/293/435
f 187/293/435 186/274/414 167/245/385 176/294/436
f 176/294/436 167/245/385 168/246/386 179/295/437
s 4
f 178/284/424 179/296/438 168/255/395 175/256/396
s 3
f 152/285/426 163/241/439 164/244/440 146/286/427
s 15
f 89/203/323 116/216/326 167/297/441 162/282/442
s 3
f 155/248/388 169/249/443 117/154/327 96/150/250
s 16
f 97/178/329 119/218/332 170/298/444 154/263/445
s 3
f 93/187/287 121/157/334 171/252/446 158/271/411
s 17
f 159/262/447 172/299/448 124/219/337 92/173/336
s 18
f 91/176/339 126/222/342 173/300/449 160/261/450
s 19
f 153/264/451 175/301/452 130/223/345 98/179/344
s off
f 150/279/453 177/302/454 166/303/455 151/280/456
f 148/277/457 180/304/458 182/305/459 147/278/460
s 3
f 145/288/429 184/269/461 185/270/462 149/287/428
s 20
f 161/281/463 186/306/464 142/229/359 90/204/358
s 3
f 149/287/428 185/270/462 163/241/439 152/285/426
s off
f 151/280/465 166/307/466 180/308/467 148/277/468
f 147/278/469 182/309/470 177/310/471 150/279/472
f 154/263/473 170/311/474 175/312/475 153/264/476
s 3
f 146/286/427 164/244/440 169/249/443 155/248/388
f 158/271/411 171/252/446 184/269/461 145/288/429
s off
f 160/261/477 173/313/478 172/314/479 159/262/480
f 162/282/481 167/315/482 186/316/483 161/281/484
