{
  "accessors": [
    {
      "bufferView": 0,
      "componentType": 5125,
      "count": 2370,
      "type": "SCALAR"
    },
    {
      "bufferView": 1,
      "componentType": 5126,
      "count": 1364,
      "max": [
        1.74051785469055,
        0.56993693113327,
        1.77584266662598
      ],
      "min": [
        -1.56630527973175,
        -0.0325829088687897,
        -1.5730197429657
      ],
      "type": "VEC3"
    },
    {
      "bufferView": 2,
      "componentType": 5126,
      "count": 1364,
      "type": "VEC3"
    },
    {
      "bufferView": 3,
      "componentType": 5126,
      "count": 1364,
      "type": "VEC4"
    },
    {
      "bufferView": 4,
      "componentType": 5126,
      "count": 1364,
      "type": "VEC2"
    }
  ],
  "asset": {
    "generator": "Adobe Substance 3D Painter 11.0.3",
    "version": "2.0"
  },
  "bufferViews": [
    {
      "buffer": 0,
      "byteLength": 9480,
      "target": 34963
    },
    {
      "buffer": 0,
      "byteLength": 16368,
      "byteOffset": 9480,
      "target": 34962
    },
    {
      "buffer": 0,
      "byteLength": 16368,
      "byteOffset": 25848,
      "target": 34962
    },
    {
      "buffer": 0,
      "byteLength": 21824,
      "byteOffset": 42216,
      "target": 34962
    },
    {
      "buffer": 0,
      "byteLength": 10912,
      "byteOffset": 64040,
      "target": 34962
    }
  ],
  "buffers": [
    {
      "byteLength": 74952,
      "uri": "Debris.bin"
    }
  ],
  "images": [
    {
      "uri": "Debris_baseColor.png"
    },
    {
      "uri": "Debris_occlusionRoughnessMetallic.png"
    },
    {
      "uri": "Debris_normal.png"
    },
    {
      "uri": "Debris_emissive.png"
    }
  ],
  "materials": [
    {
      "alphaMode": "BLEND",
      "emissiveFactor": [
        1.0,
        1.0,
        1.0
      ],
      "emissiveTexture": {
        "index": 3
      },
      "name": "Debris",
      "normalTexture": {
        "index": 2
      },
      "occlusionTexture": {
        "index": 1
      },
      "pbrMetallicRoughness": {
        "baseColorTexture": {
          "index": 0
        },
        "metallicRoughnessTexture": {
          "index": 1
        }
      }
    }
  ],
  "meshes": [
    {
      "name": "Debris",
      "primitives": [
        {
          "attributes": {
            "NORMAL": 2,
            "POSITION": 1,
            "TANGENT": 3,
            "TEXCOORD_0": 4
          },
          "indices": 0,
          "material": 0,
          "mode": 4
        }
      ]
    }
  ],
  "nodes": [
    {
      "children": [
        1
      ],
      "name": "RootNode"
    },
    {
      "children": [
        2
      ],
      "name": "Debris",
      "scale": [
        1.24334371089935,
        1.24334371089935,
        1.24334371089935
      ]
    },
    {
      "mesh": 0,
      "name": "Debris"
    }
  ],
  "samplers": [
    {
      "magFilter": 9729,
      "minFilter": 9985,
      "wrapS": 10497,
      "wrapT": 10497
    }
  ],
  "scene": 0,
  "scenes": [
    {
      "name": "Scene",
      "nodes": [
        0
      ]
    }
  ],
  "textures": [
    {
      "sampler": 0,
      "source": 0
    },
    {
      "sampler": 0,
      "source": 1
    },
    {
      "sampler": 0,
      "source": 2
    },
    {
      "sampler": 0,
      "source": 3
    }
  ]
}