{
  "accessors": [
    {
      "bufferView": 0,
      "componentType": 5125,
      "count": 4536,
      "type": "SCALAR"
    },
    {
      "bufferView": 1,
      "componentType": 5126,
      "count": 1319,
      "max": [
        100.0,
        261.113525390625,
        220.531448364258
      ],
      "min": [
        -100.000030517578,
        -7.4373779296875,
        -220.531448364258
      ],
      "type": "VEC3"
    },
    {
      "bufferView": 2,
      "componentType": 5126,
      "count": 1319,
      "type": "VEC3"
    },
    {
      "bufferView": 3,
      "componentType": 5126,
      "count": 1319,
      "type": "VEC4"
    },
    {
      "bufferView": 4,
      "componentType": 5126,
      "count": 1319,
      "type": "VEC2"
    }
  ],
  "asset": {
    "generator": "Adobe Substance 3D Painter 11.0.3",
    "version": "2.0"
  },
  "bufferViews": [
    {
      "buffer": 0,
      "byteLength": 18144,
      "target": 34963
    },
    {
      "buffer": 0,
      "byteLength": 15828,
      "byteOffset": 18144,
      "target": 34962
    },
    {
      "buffer": 0,
      "byteLength": 15828,
      "byteOffset": 33972,
      "target": 34962
    },
    {
      "buffer": 0,
      "byteLength": 21104,
      "byteOffset": 49800,
      "target": 34962
    },
    {
      "buffer": 0,
      "byteLength": 10552,
      "byteOffset": 70904,
      "target": 34962
    }
  ],
  "buffers": [
    {
      "byteLength": 81456,
      "uri": "Enemy1.bin"
    }
  ],
  "images": [
    {
      "uri": "Enemy1_baseColor.png"
    },
    {
      "uri": "Enemy1_occlusionRoughnessMetallic.png"
    },
    {
      "uri": "Enemy1_normal.png"
    },
    {
      "uri": "Enemy1_emissive.png"
    }
  ],
  "materials": [
    {
      "alphaMode": "BLEND",
      "emissiveFactor": [
        1.0,
        1.0,
        1.0
      ],
      "emissiveTexture": {
        "index": 3
      },
      "name": "Enemy1",
      "normalTexture": {
        "index": 2
      },
      "occlusionTexture": {
        "index": 1
      },
      "pbrMetallicRoughness": {
        "baseColorTexture": {
          "index": 0
        },
        "metallicRoughnessTexture": {
          "index": 1
        }
      }
    }
  ],
  "meshes": [
    {
      "name": "Enemy1",
      "primitives": [
        {
          "attributes": {
            "NORMAL": 2,
            "POSITION": 1,
            "TANGENT": 3,
            "TEXCOORD_0": 4
          },
          "indices": 0,
          "material": 0,
          "mode": 4
        }
      ]
    }
  ],
  "nodes": [
    {
      "children": [
        1
      ],
      "name": "RootNode"
    },
    {
      "children": [
        2
      ],
      "name": "Enemy1",
      "scale": [
        0.00999999977648258,
        0.00999999977648258,
        0.00999999977648258
      ],
      "translation": [
        1.6940658945086e-21,
        0.0,
        0.0
      ]
    },
    {
      "mesh": 0,
      "name": "Enemy1"
    }
  ],
  "samplers": [
    {
      "magFilter": 9729,
      "minFilter": 9985,
      "wrapS": 10497,
      "wrapT": 10497
    }
  ],
  "scene": 0,
  "scenes": [
    {
      "name": "Scene",
      "nodes": [
        0
      ]
    }
  ],
  "textures": [
    {
      "sampler": 0,
      "source": 0
    },
    {
      "sampler": 0,
      "source": 1
    },
    {
      "sampler": 0,
      "source": 2
    },
    {
      "sampler": 0,
      "source": 3
    }
  ]
}