{
	"asset":{
		"generator":"Khronos glTF Blender I/O v4.5.48",
		"version":"2.0"
	},
	"scene":0,
	"scenes":[
		{
			"name":"Scene",
			"nodes":[
				28
			]
		}
	],
	"nodes":[
		{
			"name":"Jaw",
			"rotation":[
				0.1400686651468277,
				2.3606921217833587e-07,
				2.671601464498963e-07,
				0.9901418089866638
			],
			"scale":[
				1,
				0.9999998807907104,
				1
			],
			"translation":[
				-2.360698942993622e-07,
				0.24536722898483276,
				0.14144974946975708
			]
		},
		{
			"name":"Cheek_L",
			"rotation":[
				-0.6406553983688354,
				-0.7611644268035889,
				-0.01467147283256054,
				0.09987104684114456
			],
			"scale":[
				0.9999998807907104,
				1.0000001192092896,
				1
			],
			"translation":[
				0.7530849575996399,
				0.11231378465890884,
				0.23029319941997528
			]
		},
		{
			"name":"Cheek_R",
			"rotation":[
				-0.6406553387641907,
				0.7611642479896545,
				0.014670409262180328,
				0.09987228363752365
			],
			"scale":[
				0.9999998807907104,
				1,
				1
			],
			"translation":[
				-0.7530856728553772,
				0.11231378465890884,
				0.23029069602489471
			]
		},
		{
			"name":"Eye_L",
			"rotation":[
				-0.6880634427070618,
				-0.49778681993484497,
				-0.02063736878335476,
				0.5275900363922119
			],
			"scale":[
				1,
				1.0000001192092896,
				1
			],
			"translation":[
				0.6635932922363281,
				-0.03459622710943222,
				-0.18517343699932098
			]
		},
		{
			"name":"Eye_R",
			"rotation":[
				-0.6880633234977722,
				0.4977858066558838,
				0.02063617669045925,
				0.5275909304618835
			],
			"scale":[
				0.9999998807907104,
				0.9999999403953552,
				0.9999998807907104
			],
			"translation":[
				-0.6635926961898804,
				-0.034596167504787445,
				-0.18517564237117767
			]
		},
		{
			"children":[
				0,
				1,
				2,
				3,
				4
			],
			"name":"Head",
			"rotation":[
				0.18855199217796326,
				1.1707177804964886e-07,
				2.922031967500516e-07,
				0.9820632338523865
			],
			"scale":[
				1,
				0.9999999403953552,
				1
			],
			"translation":[
				5.0361560218316684e-14,
				0.3470097780227661,
				-1.7881393432617188e-07
			]
		},
		{
			"children":[
				5
			],
			"name":"Neck",
			"rotation":[
				-0.15298648178577423,
				3.534192387633084e-07,
				-1.641365372506698e-07,
				0.9882283210754395
			],
			"scale":[
				1,
				1.0000001192092896,
				0.9999999403953552
			],
			"translation":[
				6.457241832165048e-14,
				0.5811202526092529,
				1.4901161193847656e-08
			]
		},
		{
			"name":"Front_Feet_L",
			"rotation":[
				0.5526447892189026,
				-0.48069313168525696,
				0.44111642241477966,
				0.5185886025428772
			],
			"scale":[
				0.9999997615814209,
				0.9999998211860657,
				0.9999998807907104
			],
			"translation":[
				2.1420419216156006e-08,
				0.3461167812347412,
				-7.35744833946228e-08
			]
		},
		{
			"children":[
				7
			],
			"name":"Front_Leg_2_L",
			"rotation":[
				0.10382279753684998,
				-7.843179439248615e-09,
				-0.015655653551220894,
				0.9944726228713989
			],
			"scale":[
				1,
				1,
				1.0000001192092896
			],
			"translation":[
				1.30385160446167e-08,
				0.3596019446849823,
				-4.470348358154297e-08
			]
		},
		{
			"children":[
				8
			],
			"name":"Front_Leg_1_L",
			"rotation":[
				0.4482530653476715,
				-0.01179481204599142,
				-0.09061349928379059,
				0.8892239928245544
			],
			"scale":[
				1.0000001192092896,
				0.9999999403953552,
				0.9999997615814209
			],
			"translation":[
				-1.0360963642597198e-08,
				0.8426641821861267,
				7.450580596923828e-09
			]
		},
		{
			"children":[
				9
			],
			"name":"Shoulder_L",
			"rotation":[
				0.11709094792604446,
				-0.12305310368537903,
				-0.6968538761138916,
				0.6968087553977966
			],
			"scale":[
				1.0000001192092896,
				1,
				1
			],
			"translation":[
				6.457241832165048e-14,
				0.5811202526092529,
				1.4901161193847656e-08
			]
		},
		{
			"name":"Front_Feet_R",
			"rotation":[
				0.5526447892189026,
				0.48069319128990173,
				-0.44111645221710205,
				0.5185885429382324
			],
			"scale":[
				1.0000001192092896,
				1,
				1.0000001192092896
			],
			"translation":[
				-5.069887265563011e-08,
				0.34611690044403076,
				-1.7695128917694092e-08
			]
		},
		{
			"children":[
				11
			],
			"name":"Front_Leg_2_R",
			"rotation":[
				0.10382282733917236,
				9.950301693706365e-10,
				0.015655655413866043,
				0.9944726228713989
			],
			"scale":[
				1,
				1.0000001192092896,
				1
			],
			"translation":[
				-6.705522537231445e-08,
				0.3596021234989166,
				0
			]
		},
		{
			"children":[
				12
			],
			"name":"Front_Leg_1_R",
			"rotation":[
				0.44825294613838196,
				0.011794804595410824,
				0.09061350673437119,
				0.8892240524291992
			],
			"scale":[
				1.0000001192092896,
				0.9999998807907104,
				1
			],
			"translation":[
				1.955777406692505e-08,
				0.8426643013954163,
				-1.4901161193847656e-08
			]
		},
		{
			"children":[
				13
			],
			"name":"Shoulder_R",
			"rotation":[
				0.11709045618772507,
				0.12305258959531784,
				0.6968538761138916,
				0.6968088746070862
			],
			"translation":[
				6.421191432303547e-14,
				0.5811202526092529,
				1.4901161193847656e-08
			]
		},
		{
			"children":[
				6,
				10,
				14
			],
			"name":"Torso",
			"rotation":[
				0.6522623896598816,
				1.8071888518989e-07,
				3.1102223374546156e-07,
				0.7579932808876038
			],
			"scale":[
				1,
				1.0000001192092896,
				1
			],
			"translation":[
				2.7182721851204406e-08,
				0.9461863040924072,
				-0.11401260644197464
			]
		},
		{
			"name":"Tail",
			"rotation":[
				-0.009418321773409843,
				3.551667593110642e-15,
				4.856631817055247e-17,
				0.9999556541442871
			],
			"translation":[
				1.1117307432712692e-21,
				0.5832101702690125,
				9.685754776000977e-08
			]
		},
		{
			"name":"Back_Feet_L",
			"rotation":[
				0.4718923270702362,
				0.48049280047416687,
				-0.5829043984413147,
				0.454606294631958
			],
			"scale":[
				0.9999999403953552,
				0.9999998211860657,
				0.9999998807907104
			],
			"translation":[
				5.3085386753082275e-08,
				0.3398903012275696,
				1.0710209608078003e-08
			]
		},
		{
			"children":[
				17
			],
			"name":"Back_Leg_2_L",
			"rotation":[
				-0.3169003129005432,
				0.013434859924018383,
				0.09943357855081558,
				0.9431366324424744
			],
			"scale":[
				1.0000001192092896,
				1,
				1
			],
			"translation":[
				-8.568167686462402e-08,
				0.3869274854660034,
				9.685754776000977e-08
			]
		},
		{
			"children":[
				18
			],
			"name":"Back_Leg_1_L",
			"rotation":[
				-0.25858938694000244,
				-0.0035336758010089397,
				0.04268551990389824,
				0.9650373458862305
			],
			"translation":[
				3.306195139884949e-08,
				0.6613472104072571,
				1.2665987014770508e-07
			]
		},
		{
			"children":[
				19
			],
			"name":"Hip_L",
			"rotation":[
				-0.10589393973350525,
				0.10362301021814346,
				-0.6957955360412598,
				0.7027925252914429
			],
			"translation":[
				1.1117307432712692e-21,
				0.5832101702690125,
				9.685754776000977e-08
			]
		},
		{
			"name":"Back_Feet_R",
			"rotation":[
				0.4718923270702362,
				-0.48049280047416687,
				0.5829043984413147,
				0.454606294631958
			],
			"scale":[
				0.9999999403953552,
				0.9999998211860657,
				0.9999998807907104
			],
			"translation":[
				-5.3085386753082275e-08,
				0.3398903012275696,
				1.0710209608078003e-08
			]
		},
		{
			"children":[
				21
			],
			"name":"Back_Leg_2_R",
			"rotation":[
				-0.3169003129005432,
				-0.013434859924018383,
				-0.09943357855081558,
				0.9431366324424744
			],
			"scale":[
				1.0000001192092896,
				1,
				1
			],
			"translation":[
				8.568167686462402e-08,
				0.3869274854660034,
				9.685754776000977e-08
			]
		},
		{
			"children":[
				22
			],
			"name":"Back_Leg_1_R",
			"rotation":[
				-0.25858938694000244,
				0.0035336758010089397,
				-0.04268551990389824,
				0.9650373458862305
			],
			"translation":[
				-3.306195139884949e-08,
				0.6613472104072571,
				1.2665987014770508e-07
			]
		},
		{
			"children":[
				23
			],
			"name":"Hip_R",
			"rotation":[
				-0.10589393973350525,
				-0.10362301021814346,
				0.6957955360412598,
				0.7027925252914429
			],
			"translation":[
				-2.916380494813063e-16,
				0.5832101702690125,
				9.685754776000977e-08
			]
		},
		{
			"children":[
				16,
				20,
				24
			],
			"name":"Spine",
			"rotation":[
				-0.7474271655082703,
				-7.919594935401619e-08,
				-8.910026849662245e-08,
				0.6643438339233398
			],
			"scale":[
				1,
				1,
				1.0000001192092896
			],
			"translation":[
				2.7182721851204406e-08,
				0.9461863040924072,
				-0.11401260644197464
			]
		},
		{
			"children":[
				15,
				25
			],
			"name":"Bone",
			"rotation":[
				-7.475002661294639e-08,
				1.1920928955078125e-07,
				-3.610938300078288e-15,
				1
			],
			"scale":[
				0.9999999403953552,
				0.9999998211860657,
				0.9999998211860657
			]
		},
		{
			"mesh":0,
			"name":"Frog",
			"skin":0
		},
		{
			"children":[
				27,
				26
			],
			"name":"Frog_Rig",
			"scale":[
				0.699999988079071,
				0.699999988079071,
				0.699999988079071
			]
		}
	],
	"animations":[
		{
			"channels":[
				{
					"sampler":0,
					"target":{
						"node":26,
						"path":"translation"
					}
				},
				{
					"sampler":1,
					"target":{
						"node":26,
						"path":"rotation"
					}
				},
				{
					"sampler":2,
					"target":{
						"node":26,
						"path":"scale"
					}
				},
				{
					"sampler":3,
					"target":{
						"node":15,
						"path":"translation"
					}
				},
				{
					"sampler":4,
					"target":{
						"node":15,
						"path":"rotation"
					}
				},
				{
					"sampler":5,
					"target":{
						"node":15,
						"path":"scale"
					}
				},
				{
					"sampler":6,
					"target":{
						"node":6,
						"path":"translation"
					}
				},
				{
					"sampler":7,
					"target":{
						"node":6,
						"path":"rotation"
					}
				},
				{
					"sampler":8,
					"target":{
						"node":6,
						"path":"scale"
					}
				},
				{
					"sampler":9,
					"target":{
						"node":5,
						"path":"translation"
					}
				},
				{
					"sampler":10,
					"target":{
						"node":5,
						"path":"rotation"
					}
				},
				{
					"sampler":11,
					"target":{
						"node":5,
						"path":"scale"
					}
				},
				{
					"sampler":12,
					"target":{
						"node":0,
						"path":"translation"
					}
				},
				{
					"sampler":13,
					"target":{
						"node":0,
						"path":"rotation"
					}
				},
				{
					"sampler":14,
					"target":{
						"node":0,
						"path":"scale"
					}
				},
				{
					"sampler":15,
					"target":{
						"node":1,
						"path":"translation"
					}
				},
				{
					"sampler":16,
					"target":{
						"node":1,
						"path":"rotation"
					}
				},
				{
					"sampler":17,
					"target":{
						"node":1,
						"path":"scale"
					}
				},
				{
					"sampler":18,
					"target":{
						"node":2,
						"path":"translation"
					}
				},
				{
					"sampler":19,
					"target":{
						"node":2,
						"path":"rotation"
					}
				},
				{
					"sampler":20,
					"target":{
						"node":2,
						"path":"scale"
					}
				},
				{
					"sampler":21,
					"target":{
						"node":3,
						"path":"translation"
					}
				},
				{
					"sampler":22,
					"target":{
						"node":3,
						"path":"rotation"
					}
				},
				{
					"sampler":23,
					"target":{
						"node":3,
						"path":"scale"
					}
				},
				{
					"sampler":24,
					"target":{
						"node":4,
						"path":"translation"
					}
				},
				{
					"sampler":25,
					"target":{
						"node":4,
						"path":"rotation"
					}
				},
				{
					"sampler":26,
					"target":{
						"node":4,
						"path":"scale"
					}
				},
				{
					"sampler":27,
					"target":{
						"node":10,
						"path":"translation"
					}
				},
				{
					"sampler":28,
					"target":{
						"node":10,
						"path":"rotation"
					}
				},
				{
					"sampler":29,
					"target":{
						"node":10,
						"path":"scale"
					}
				},
				{
					"sampler":30,
					"target":{
						"node":9,
						"path":"translation"
					}
				},
				{
					"sampler":31,
					"target":{
						"node":9,
						"path":"rotation"
					}
				},
				{
					"sampler":32,
					"target":{
						"node":9,
						"path":"scale"
					}
				},
				{
					"sampler":33,
					"target":{
						"node":8,
						"path":"translation"
					}
				},
				{
					"sampler":34,
					"target":{
						"node":8,
						"path":"rotation"
					}
				},
				{
					"sampler":35,
					"target":{
						"node":8,
						"path":"scale"
					}
				},
				{
					"sampler":36,
					"target":{
						"node":7,
						"path":"translation"
					}
				},
				{
					"sampler":37,
					"target":{
						"node":7,
						"path":"rotation"
					}
				},
				{
					"sampler":38,
					"target":{
						"node":7,
						"path":"scale"
					}
				},
				{
					"sampler":39,
					"target":{
						"node":14,
						"path":"translation"
					}
				},
				{
					"sampler":40,
					"target":{
						"node":14,
						"path":"rotation"
					}
				},
				{
					"sampler":41,
					"target":{
						"node":14,
						"path":"scale"
					}
				},
				{
					"sampler":42,
					"target":{
						"node":13,
						"path":"translation"
					}
				},
				{
					"sampler":43,
					"target":{
						"node":13,
						"path":"rotation"
					}
				},
				{
					"sampler":44,
					"target":{
						"node":13,
						"path":"scale"
					}
				},
				{
					"sampler":45,
					"target":{
						"node":12,
						"path":"translation"
					}
				},
				{
					"sampler":46,
					"target":{
						"node":12,
						"path":"rotation"
					}
				},
				{
					"sampler":47,
					"target":{
						"node":12,
						"path":"scale"
					}
				},
				{
					"sampler":48,
					"target":{
						"node":11,
						"path":"translation"
					}
				},
				{
					"sampler":49,
					"target":{
						"node":11,
						"path":"rotation"
					}
				},
				{
					"sampler":50,
					"target":{
						"node":11,
						"path":"scale"
					}
				},
				{
					"sampler":51,
					"target":{
						"node":25,
						"path":"translation"
					}
				},
				{
					"sampler":52,
					"target":{
						"node":25,
						"path":"rotation"
					}
				},
				{
					"sampler":53,
					"target":{
						"node":25,
						"path":"scale"
					}
				},
				{
					"sampler":54,
					"target":{
						"node":16,
						"path":"translation"
					}
				},
				{
					"sampler":55,
					"target":{
						"node":16,
						"path":"rotation"
					}
				},
				{
					"sampler":56,
					"target":{
						"node":16,
						"path":"scale"
					}
				},
				{
					"sampler":57,
					"target":{
						"node":20,
						"path":"translation"
					}
				},
				{
					"sampler":58,
					"target":{
						"node":20,
						"path":"rotation"
					}
				},
				{
					"sampler":59,
					"target":{
						"node":20,
						"path":"scale"
					}
				},
				{
					"sampler":60,
					"target":{
						"node":19,
						"path":"translation"
					}
				},
				{
					"sampler":61,
					"target":{
						"node":19,
						"path":"rotation"
					}
				},
				{
					"sampler":62,
					"target":{
						"node":19,
						"path":"scale"
					}
				},
				{
					"sampler":63,
					"target":{
						"node":18,
						"path":"translation"
					}
				},
				{
					"sampler":64,
					"target":{
						"node":18,
						"path":"rotation"
					}
				},
				{
					"sampler":65,
					"target":{
						"node":18,
						"path":"scale"
					}
				},
				{
					"sampler":66,
					"target":{
						"node":17,
						"path":"translation"
					}
				},
				{
					"sampler":67,
					"target":{
						"node":17,
						"path":"rotation"
					}
				},
				{
					"sampler":68,
					"target":{
						"node":17,
						"path":"scale"
					}
				},
				{
					"sampler":69,
					"target":{
						"node":24,
						"path":"translation"
					}
				},
				{
					"sampler":70,
					"target":{
						"node":24,
						"path":"rotation"
					}
				},
				{
					"sampler":71,
					"target":{
						"node":24,
						"path":"scale"
					}
				},
				{
					"sampler":72,
					"target":{
						"node":23,
						"path":"translation"
					}
				},
				{
					"sampler":73,
					"target":{
						"node":23,
						"path":"rotation"
					}
				},
				{
					"sampler":74,
					"target":{
						"node":23,
						"path":"scale"
					}
				},
				{
					"sampler":75,
					"target":{
						"node":22,
						"path":"translation"
					}
				},
				{
					"sampler":76,
					"target":{
						"node":22,
						"path":"rotation"
					}
				},
				{
					"sampler":77,
					"target":{
						"node":22,
						"path":"scale"
					}
				},
				{
					"sampler":78,
					"target":{
						"node":21,
						"path":"translation"
					}
				},
				{
					"sampler":79,
					"target":{
						"node":21,
						"path":"rotation"
					}
				},
				{
					"sampler":80,
					"target":{
						"node":21,
						"path":"scale"
					}
				}
			],
			"name":"Frog_RigAction",
			"samplers":[
				{
					"input":7,
					"interpolation":"LINEAR",
					"output":8
				},
				{
					"input":7,
					"interpolation":"LINEAR",
					"output":9
				},
				{
					"input":10,
					"interpolation":"STEP",
					"output":11
				},
				{
					"input":10,
					"interpolation":"STEP",
					"output":12
				},
				{
					"input":10,
					"interpolation":"STEP",
					"output":13
				},
				{
					"input":10,
					"interpolation":"STEP",
					"output":14
				},
				{
					"input":10,
					"interpolation":"STEP",
					"output":15
				},
				{
					"input":10,
					"interpolation":"STEP",
					"output":16
				},
				{
					"input":10,
					"interpolation":"STEP",
					"output":17
				},
				{
					"input":10,
					"interpolation":"STEP",
					"output":18
				},
				{
					"input":10,
					"interpolation":"STEP",
					"output":19
				},
				{
					"input":10,
					"interpolation":"STEP",
					"output":20
				},
				{
					"input":7,
					"interpolation":"LINEAR",
					"output":21
				},
				{
					"input":7,
					"interpolation":"LINEAR",
					"output":22
				},
				{
					"input":10,
					"interpolation":"STEP",
					"output":23
				},
				{
					"input":7,
					"interpolation":"LINEAR",
					"output":24
				},
				{
					"input":10,
					"interpolation":"STEP",
					"output":25
				},
				{
					"input":7,
					"interpolation":"LINEAR",
					"output":26
				},
				{
					"input":7,
					"interpolation":"LINEAR",
					"output":27
				},
				{
					"input":7,
					"interpolation":"LINEAR",
					"output":28
				},
				{
					"input":7,
					"interpolation":"LINEAR",
					"output":29
				},
				{
					"input":10,
					"interpolation":"STEP",
					"output":30
				},
				{
					"input":10,
					"interpolation":"STEP",
					"output":31
				},
				{
					"input":10,
					"interpolation":"STEP",
					"output":32
				},
				{
					"input":10,
					"interpolation":"STEP",
					"output":33
				},
				{
					"input":10,
					"interpolation":"STEP",
					"output":34
				},
				{
					"input":10,
					"interpolation":"STEP",
					"output":35
				},
				{
					"input":10,
					"interpolation":"STEP",
					"output":36
				},
				{
					"input":7,
					"interpolation":"LINEAR",
					"output":37
				},
				{
					"input":10,
					"interpolation":"STEP",
					"output":17
				},
				{
					"input":10,
					"interpolation":"STEP",
					"output":38
				},
				{
					"input":7,
					"interpolation":"LINEAR",
					"output":39
				},
				{
					"input":10,
					"interpolation":"STEP",
					"output":40
				},
				{
					"input":10,
					"interpolation":"STEP",
					"output":41
				},
				{
					"input":7,
					"interpolation":"LINEAR",
					"output":42
				},
				{
					"input":10,
					"interpolation":"STEP",
					"output":43
				},
				{
					"input":10,
					"interpolation":"STEP",
					"output":44
				},
				{
					"input":7,
					"interpolation":"LINEAR",
					"output":45
				},
				{
					"input":10,
					"interpolation":"STEP",
					"output":46
				},
				{
					"input":10,
					"interpolation":"STEP",
					"output":47
				},
				{
					"input":7,
					"interpolation":"LINEAR",
					"output":48
				},
				{
					"input":10,
					"interpolation":"STEP",
					"output":49
				},
				{
					"input":10,
					"interpolation":"STEP",
					"output":50
				},
				{
					"input":7,
					"interpolation":"LINEAR",
					"output":51
				},
				{
					"input":10,
					"interpolation":"STEP",
					"output":11
				},
				{
					"input":10,
					"interpolation":"STEP",
					"output":52
				},
				{
					"input":7,
					"interpolation":"LINEAR",
					"output":53
				},
				{
					"input":10,
					"interpolation":"STEP",
					"output":54
				},
				{
					"input":10,
					"interpolation":"STEP",
					"output":55
				},
				{
					"input":7,
					"interpolation":"LINEAR",
					"output":56
				},
				{
					"input":10,
					"interpolation":"STEP",
					"output":14
				},
				{
					"input":10,
					"interpolation":"STEP",
					"output":57
				},
				{
					"input":7,
					"interpolation":"LINEAR",
					"output":58
				},
				{
					"input":10,
					"interpolation":"STEP",
					"output":59
				},
				{
					"input":10,
					"interpolation":"LINEAR",
					"output":60
				},
				{
					"input":10,
					"interpolation":"LINEAR",
					"output":61
				},
				{
					"input":10,
					"interpolation":"LINEAR",
					"output":62
				},
				{
					"input":10,
					"interpolation":"LINEAR",
					"output":63
				},
				{
					"input":7,
					"interpolation":"LINEAR",
					"output":64
				},
				{
					"input":10,
					"interpolation":"STEP",
					"output":65
				},
				{
					"input":10,
					"interpolation":"LINEAR",
					"output":66
				},
				{
					"input":7,
					"interpolation":"LINEAR",
					"output":67
				},
				{
					"input":10,
					"interpolation":"STEP",
					"output":68
				},
				{
					"input":10,
					"interpolation":"LINEAR",
					"output":69
				},
				{
					"input":7,
					"interpolation":"LINEAR",
					"output":70
				},
				{
					"input":10,
					"interpolation":"LINEAR",
					"output":71
				},
				{
					"input":10,
					"interpolation":"LINEAR",
					"output":72
				},
				{
					"input":7,
					"interpolation":"LINEAR",
					"output":73
				},
				{
					"input":10,
					"interpolation":"STEP",
					"output":74
				},
				{
					"input":10,
					"interpolation":"LINEAR",
					"output":75
				},
				{
					"input":7,
					"interpolation":"LINEAR",
					"output":76
				},
				{
					"input":10,
					"interpolation":"LINEAR",
					"output":77
				},
				{
					"input":10,
					"interpolation":"LINEAR",
					"output":78
				},
				{
					"input":7,
					"interpolation":"LINEAR",
					"output":79
				},
				{
					"input":10,
					"interpolation":"STEP",
					"output":80
				},
				{
					"input":10,
					"interpolation":"LINEAR",
					"output":81
				},
				{
					"input":7,
					"interpolation":"LINEAR",
					"output":82
				},
				{
					"input":10,
					"interpolation":"LINEAR",
					"output":83
				},
				{
					"input":10,
					"interpolation":"LINEAR",
					"output":84
				},
				{
					"input":7,
					"interpolation":"LINEAR",
					"output":85
				},
				{
					"input":10,
					"interpolation":"STEP",
					"output":86
				}
			]
		}
	],
	"materials":[
		{
			"doubleSided":true,
			"name":"Frog_Material",
			"pbrMetallicRoughness":{
				"baseColorTexture":{
					"index":0
				},
				"metallicFactor":0,
				"metallicRoughnessTexture":{
					"index":1
				}
			}
		}
	],
	"meshes":[
		{
			"name":"Plane",
			"primitives":[
				{
					"attributes":{
						"POSITION":0,
						"NORMAL":1,
						"TEXCOORD_0":2,
						"JOINTS_0":3,
						"WEIGHTS_0":4
					},
					"indices":5,
					"material":0
				}
			]
		}
	],
	"textures":[
		{
			"sampler":0,
			"source":0
		},
		{
			"sampler":0,
			"source":1
		}
	],
	"images":[
		{
			"mimeType":"image/png",
			"name":"frog_diffuse",
			"uri":"frog_diffuse.png"
		},
		{
			"mimeType":"image/png",
			"name":"frog_roughness",
			"uri":"frog_roughness.png"
		}
	],
	"skins":[
		{
			"inverseBindMatrices":6,
			"joints":[
				26,
				15,
				6,
				5,
				0,
				1,
				2,
				3,
				4,
				10,
				9,
				8,
				7,
				14,
				13,
				12,
				11,
				25,
				16,
				20,
				19,
				18,
				17,
				24,
				23,
				22,
				21
			],
			"name":"Frog_Rig"
		}
	],
	"accessors":[
		{
			"bufferView":0,
			"componentType":5126,
			"count":992,
			"max":[
				0.7821672558784485,
				1.2065805196762085,
				1.033372402191162
			],
			"min":[
				-0.7821672558784485,
				0.0037187098059803247,
				-0.8452153205871582
			],
			"type":"VEC3"
		},
		{
			"bufferView":1,
			"componentType":5126,
			"count":992,
			"type":"VEC3"
		},
		{
			"bufferView":2,
			"componentType":5126,
			"count":992,
			"type":"VEC2"
		},
		{
			"bufferView":3,
			"componentType":5121,
			"count":992,
			"type":"VEC4"
		},
		{
			"bufferView":4,
			"componentType":5126,
			"count":992,
			"type":"VEC4"
		},
		{
			"bufferView":5,
			"componentType":5123,
			"count":4902,
			"type":"SCALAR"
		},
		{
			"bufferView":6,
			"componentType":5126,
			"count":27,
			"type":"MAT4"
		},
		{
			"bufferView":7,
			"componentType":5126,
			"count":120,
			"max":[
				5
			],
			"min":[
				0.041666666666666664
			],
			"type":"SCALAR"
		},
		{
			"bufferView":8,
			"componentType":5126,
			"count":120,
			"type":"VEC3"
		},
		{
			"bufferView":9,
			"componentType":5126,
			"count":120,
			"type":"VEC4"
		},
		{
			"bufferView":10,
			"componentType":5126,
			"count":2,
			"max":[
				5
			],
			"min":[
				0.041666666666666664
			],
			"type":"SCALAR"
		},
		{
			"bufferView":11,
			"componentType":5126,
			"count":2,
			"type":"VEC3"
		},
		{
			"bufferView":12,
			"componentType":5126,
			"count":2,
			"type":"VEC3"
		},
		{
			"bufferView":13,
			"componentType":5126,
			"count":2,
			"type":"VEC4"
		},
		{
			"bufferView":14,
			"componentType":5126,
			"count":2,
			"type":"VEC3"
		},
		{
			"bufferView":15,
			"componentType":5126,
			"count":2,
			"type":"VEC3"
		},
		{
			"bufferView":16,
			"componentType":5126,
			"count":2,
			"type":"VEC4"
		},
		{
			"bufferView":17,
			"componentType":5126,
			"count":2,
			"type":"VEC3"
		},
		{
			"bufferView":18,
			"componentType":5126,
			"count":2,
			"type":"VEC3"
		},
		{
			"bufferView":19,
			"componentType":5126,
			"count":2,
			"type":"VEC4"
		},
		{
			"bufferView":20,
			"componentType":5126,
			"count":2,
			"type":"VEC3"
		},
		{
			"bufferView":21,
			"componentType":5126,
			"count":120,
			"type":"VEC3"
		},
		{
			"bufferView":22,
			"componentType":5126,
			"count":120,
			"type":"VEC4"
		},
		{
			"bufferView":23,
			"componentType":5126,
			"count":2,
			"type":"VEC3"
		},
		{
			"bufferView":24,
			"componentType":5126,
			"count":120,
			"type":"VEC3"
		},
		{
			"bufferView":25,
			"componentType":5126,
			"count":2,
			"type":"VEC4"
		},
		{
			"bufferView":26,
			"componentType":5126,
			"count":120,
			"type":"VEC3"
		},
		{
			"bufferView":27,
			"componentType":5126,
			"count":120,
			"type":"VEC3"
		},
		{
			"bufferView":28,
			"componentType":5126,
			"count":120,
			"type":"VEC4"
		},
		{
			"bufferView":29,
			"componentType":5126,
			"count":120,
			"type":"VEC3"
		},
		{
			"bufferView":30,
			"componentType":5126,
			"count":2,
			"type":"VEC3"
		},
		{
			"bufferView":31,
			"componentType":5126,
			"count":2,
			"type":"VEC4"
		},
		{
			"bufferView":32,
			"componentType":5126,
			"count":2,
			"type":"VEC3"
		},
		{
			"bufferView":33,
			"componentType":5126,
			"count":2,
			"type":"VEC3"
		},
		{
			"bufferView":34,
			"componentType":5126,
			"count":2,
			"type":"VEC4"
		},
		{
			"bufferView":35,
			"componentType":5126,
			"count":2,
			"type":"VEC3"
		},
		{
			"bufferView":36,
			"componentType":5126,
			"count":2,
			"type":"VEC3"
		},
		{
			"bufferView":37,
			"componentType":5126,
			"count":120,
			"type":"VEC4"
		},
		{
			"bufferView":38,
			"componentType":5126,
			"count":2,
			"type":"VEC3"
		},
		{
			"bufferView":39,
			"componentType":5126,
			"count":120,
			"type":"VEC4"
		},
		{
			"bufferView":40,
			"componentType":5126,
			"count":2,
			"type":"VEC3"
		},
		{
			"bufferView":41,
			"componentType":5126,
			"count":2,
			"type":"VEC3"
		},
		{
			"bufferView":42,
			"componentType":5126,
			"count":120,
			"type":"VEC4"
		},
		{
			"bufferView":43,
			"componentType":5126,
			"count":2,
			"type":"VEC3"
		},
		{
			"bufferView":44,
			"componentType":5126,
			"count":2,
			"type":"VEC3"
		},
		{
			"bufferView":45,
			"componentType":5126,
			"count":120,
			"type":"VEC4"
		},
		{
			"bufferView":46,
			"componentType":5126,
			"count":2,
			"type":"VEC3"
		},
		{
			"bufferView":47,
			"componentType":5126,
			"count":2,
			"type":"VEC3"
		},
		{
			"bufferView":48,
			"componentType":5126,
			"count":120,
			"type":"VEC4"
		},
		{
			"bufferView":49,
			"componentType":5126,
			"count":2,
			"type":"VEC3"
		},
		{
			"bufferView":50,
			"componentType":5126,
			"count":2,
			"type":"VEC3"
		},
		{
			"bufferView":51,
			"componentType":5126,
			"count":120,
			"type":"VEC4"
		},
		{
			"bufferView":52,
			"componentType":5126,
			"count":2,
			"type":"VEC3"
		},
		{
			"bufferView":53,
			"componentType":5126,
			"count":120,
			"type":"VEC4"
		},
		{
			"bufferView":54,
			"componentType":5126,
			"count":2,
			"type":"VEC3"
		},
		{
			"bufferView":55,
			"componentType":5126,
			"count":2,
			"type":"VEC3"
		},
		{
			"bufferView":56,
			"componentType":5126,
			"count":120,
			"type":"VEC4"
		},
		{
			"bufferView":57,
			"componentType":5126,
			"count":2,
			"type":"VEC3"
		},
		{
			"bufferView":58,
			"componentType":5126,
			"count":120,
			"type":"VEC4"
		},
		{
			"bufferView":59,
			"componentType":5126,
			"count":2,
			"type":"VEC3"
		},
		{
			"bufferView":60,
			"componentType":5126,
			"count":2,
			"type":"VEC3"
		},
		{
			"bufferView":61,
			"componentType":5126,
			"count":2,
			"type":"VEC4"
		},
		{
			"bufferView":62,
			"componentType":5126,
			"count":2,
			"type":"VEC3"
		},
		{
			"bufferView":63,
			"componentType":5126,
			"count":2,
			"type":"VEC3"
		},
		{
			"bufferView":64,
			"componentType":5126,
			"count":120,
			"type":"VEC4"
		},
		{
			"bufferView":65,
			"componentType":5126,
			"count":2,
			"type":"VEC3"
		},
		{
			"bufferView":66,
			"componentType":5126,
			"count":2,
			"type":"VEC3"
		},
		{
			"bufferView":67,
			"componentType":5126,
			"count":120,
			"type":"VEC4"
		},
		{
			"bufferView":68,
			"componentType":5126,
			"count":2,
			"type":"VEC3"
		},
		{
			"bufferView":69,
			"componentType":5126,
			"count":2,
			"type":"VEC3"
		},
		{
			"bufferView":70,
			"componentType":5126,
			"count":120,
			"type":"VEC4"
		},
		{
			"bufferView":71,
			"componentType":5126,
			"count":2,
			"type":"VEC3"
		},
		{
			"bufferView":72,
			"componentType":5126,
			"count":2,
			"type":"VEC3"
		},
		{
			"bufferView":73,
			"componentType":5126,
			"count":120,
			"type":"VEC4"
		},
		{
			"bufferView":74,
			"componentType":5126,
			"count":2,
			"type":"VEC3"
		},
		{
			"bufferView":75,
			"componentType":5126,
			"count":2,
			"type":"VEC3"
		},
		{
			"bufferView":76,
			"componentType":5126,
			"count":120,
			"type":"VEC4"
		},
		{
			"bufferView":77,
			"componentType":5126,
			"count":2,
			"type":"VEC3"
		},
		{
			"bufferView":78,
			"componentType":5126,
			"count":2,
			"type":"VEC3"
		},
		{
			"bufferView":79,
			"componentType":5126,
			"count":120,
			"type":"VEC4"
		},
		{
			"bufferView":80,
			"componentType":5126,
			"count":2,
			"type":"VEC3"
		},
		{
			"bufferView":81,
			"componentType":5126,
			"count":2,
			"type":"VEC3"
		},
		{
			"bufferView":82,
			"componentType":5126,
			"count":120,
			"type":"VEC4"
		},
		{
			"bufferView":83,
			"componentType":5126,
			"count":2,
			"type":"VEC3"
		},
		{
			"bufferView":84,
			"componentType":5126,
			"count":2,
			"type":"VEC3"
		},
		{
			"bufferView":85,
			"componentType":5126,
			"count":120,
			"type":"VEC4"
		},
		{
			"bufferView":86,
			"componentType":5126,
			"count":2,
			"type":"VEC3"
		}
	],
	"bufferViews":[
		{
			"buffer":0,
			"byteLength":11904,
			"byteOffset":0,
			"target":34962
		},
		{
			"buffer":0,
			"byteLength":11904,
			"byteOffset":11904,
			"target":34962
		},
		{
			"buffer":0,
			"byteLength":7936,
			"byteOffset":23808,
			"target":34962
		},
		{
			"buffer":0,
			"byteLength":3968,
			"byteOffset":31744,
			"target":34962
		},
		{
			"buffer":0,
			"byteLength":15872,
			"byteOffset":35712,
			"target":34962
		},
		{
			"buffer":0,
			"byteLength":9804,
			"byteOffset":51584,
			"target":34963
		},
		{
			"buffer":0,
			"byteLength":1728,
			"byteOffset":61388
		},
		{
			"buffer":0,
			"byteLength":480,
			"byteOffset":63116
		},
		{
			"buffer":0,
			"byteLength":1440,
			"byteOffset":63596
		},
		{
			"buffer":0,
			"byteLength":1920,
			"byteOffset":65036
		},
		{
			"buffer":0,
			"byteLength":8,
			"byteOffset":66956
		},
		{
			"buffer":0,
			"byteLength":24,
			"byteOffset":66964
		},
		{
			"buffer":0,
			"byteLength":24,
			"byteOffset":66988
		},
		{
			"buffer":0,
			"byteLength":32,
			"byteOffset":67012
		},
		{
			"buffer":0,
			"byteLength":24,
			"byteOffset":67044
		},
		{
			"buffer":0,
			"byteLength":24,
			"byteOffset":67068
		},
		{
			"buffer":0,
			"byteLength":32,
			"byteOffset":67092
		},
		{
			"buffer":0,
			"byteLength":24,
			"byteOffset":67124
		},
		{
			"buffer":0,
			"byteLength":24,
			"byteOffset":67148
		},
		{
			"buffer":0,
			"byteLength":32,
			"byteOffset":67172
		},
		{
			"buffer":0,
			"byteLength":24,
			"byteOffset":67204
		},
		{
			"buffer":0,
			"byteLength":1440,
			"byteOffset":67228
		},
		{
			"buffer":0,
			"byteLength":1920,
			"byteOffset":68668
		},
		{
			"buffer":0,
			"byteLength":24,
			"byteOffset":70588
		},
		{
			"buffer":0,
			"byteLength":1440,
			"byteOffset":70612
		},
		{
			"buffer":0,
			"byteLength":32,
			"byteOffset":72052
		},
		{
			"buffer":0,
			"byteLength":1440,
			"byteOffset":72084
		},
		{
			"buffer":0,
			"byteLength":1440,
			"byteOffset":73524
		},
		{
			"buffer":0,
			"byteLength":1920,
			"byteOffset":74964
		},
		{
			"buffer":0,
			"byteLength":1440,
			"byteOffset":76884
		},
		{
			"buffer":0,
			"byteLength":24,
			"byteOffset":78324
		},
		{
			"buffer":0,
			"byteLength":32,
			"byteOffset":78348
		},
		{
			"buffer":0,
			"byteLength":24,
			"byteOffset":78380
		},
		{
			"buffer":0,
			"byteLength":24,
			"byteOffset":78404
		},
		{
			"buffer":0,
			"byteLength":32,
			"byteOffset":78428
		},
		{
			"buffer":0,
			"byteLength":24,
			"byteOffset":78460
		},
		{
			"buffer":0,
			"byteLength":24,
			"byteOffset":78484
		},
		{
			"buffer":0,
			"byteLength":1920,
			"byteOffset":78508
		},
		{
			"buffer":0,
			"byteLength":24,
			"byteOffset":80428
		},
		{
			"buffer":0,
			"byteLength":1920,
			"byteOffset":80452
		},
		{
			"buffer":0,
			"byteLength":24,
			"byteOffset":82372
		},
		{
			"buffer":0,
			"byteLength":24,
			"byteOffset":82396
		},
		{
			"buffer":0,
			"byteLength":1920,
			"byteOffset":82420
		},
		{
			"buffer":0,
			"byteLength":24,
			"byteOffset":84340
		},
		{
			"buffer":0,
			"byteLength":24,
			"byteOffset":84364
		},
		{
			"buffer":0,
			"byteLength":1920,
			"byteOffset":84388
		},
		{
			"buffer":0,
			"byteLength":24,
			"byteOffset":86308
		},
		{
			"buffer":0,
			"byteLength":24,
			"byteOffset":86332
		},
		{
			"buffer":0,
			"byteLength":1920,
			"byteOffset":86356
		},
		{
			"buffer":0,
			"byteLength":24,
			"byteOffset":88276
		},
		{
			"buffer":0,
			"byteLength":24,
			"byteOffset":88300
		},
		{
			"buffer":0,
			"byteLength":1920,
			"byteOffset":88324
		},
		{
			"buffer":0,
			"byteLength":24,
			"byteOffset":90244
		},
		{
			"buffer":0,
			"byteLength":1920,
			"byteOffset":90268
		},
		{
			"buffer":0,
			"byteLength":24,
			"byteOffset":92188
		},
		{
			"buffer":0,
			"byteLength":24,
			"byteOffset":92212
		},
		{
			"buffer":0,
			"byteLength":1920,
			"byteOffset":92236
		},
		{
			"buffer":0,
			"byteLength":24,
			"byteOffset":94156
		},
		{
			"buffer":0,
			"byteLength":1920,
			"byteOffset":94180
		},
		{
			"buffer":0,
			"byteLength":24,
			"byteOffset":96100
		},
		{
			"buffer":0,
			"byteLength":24,
			"byteOffset":96124
		},
		{
			"buffer":0,
			"byteLength":32,
			"byteOffset":96148
		},
		{
			"buffer":0,
			"byteLength":24,
			"byteOffset":96180
		},
		{
			"buffer":0,
			"byteLength":24,
			"byteOffset":96204
		},
		{
			"buffer":0,
			"byteLength":1920,
			"byteOffset":96228
		},
		{
			"buffer":0,
			"byteLength":24,
			"byteOffset":98148
		},
		{
			"buffer":0,
			"byteLength":24,
			"byteOffset":98172
		},
		{
			"buffer":0,
			"byteLength":1920,
			"byteOffset":98196
		},
		{
			"buffer":0,
			"byteLength":24,
			"byteOffset":100116
		},
		{
			"buffer":0,
			"byteLength":24,
			"byteOffset":100140
		},
		{
			"buffer":0,
			"byteLength":1920,
			"byteOffset":100164
		},
		{
			"buffer":0,
			"byteLength":24,
			"byteOffset":102084
		},
		{
			"buffer":0,
			"byteLength":24,
			"byteOffset":102108
		},
		{
			"buffer":0,
			"byteLength":1920,
			"byteOffset":102132
		},
		{
			"buffer":0,
			"byteLength":24,
			"byteOffset":104052
		},
		{
			"buffer":0,
			"byteLength":24,
			"byteOffset":104076
		},
		{
			"buffer":0,
			"byteLength":1920,
			"byteOffset":104100
		},
		{
			"buffer":0,
			"byteLength":24,
			"byteOffset":106020
		},
		{
			"buffer":0,
			"byteLength":24,
			"byteOffset":106044
		},
		{
			"buffer":0,
			"byteLength":1920,
			"byteOffset":106068
		},
		{
			"buffer":0,
			"byteLength":24,
			"byteOffset":107988
		},
		{
			"buffer":0,
			"byteLength":24,
			"byteOffset":108012
		},
		{
			"buffer":0,
			"byteLength":1920,
			"byteOffset":108036
		},
		{
			"buffer":0,
			"byteLength":24,
			"byteOffset":109956
		},
		{
			"buffer":0,
			"byteLength":24,
			"byteOffset":109980
		},
		{
			"buffer":0,
			"byteLength":1920,
			"byteOffset":110004
		},
		{
			"buffer":0,
			"byteLength":24,
			"byteOffset":111924
		}
	],
	"samplers":[
		{
			"magFilter":9729,
			"minFilter":9987
		}
	],
	"buffers":[
		{
			"byteLength":111948,
			"uri":"FrogAnim.bin"
		}
	]
}
