{
	"asset":{
		"generator":"Khronos glTF Blender I/O v4.5.48",
		"version":"2.0"
	},
	"scene":0,
	"scenes":[
		{
			"name":"Scene",
			"nodes":[
				28,
				31
			]
		}
	],
	"nodes":[
		{
			"name":"Jaw",
			"rotation":[
				0.1400686651468277,
				2.3606921217833587e-07,
				2.671601464498963e-07,
				0.9901418089866638
			],
			"scale":[
				1,
				0.9999998807907104,
				1
			],
			"translation":[
				-2.360698942993622e-07,
				0.24536722898483276,
				0.14144974946975708
			]
		},
		{
			"name":"Cheek_L",
			"rotation":[
				-0.6406553983688354,
				-0.7611644268035889,
				-0.01467147283256054,
				0.09987104684114456
			],
			"scale":[
				0.9999998807907104,
				1.0000001192092896,
				1
			],
			"translation":[
				0.7530849575996399,
				0.11231378465890884,
				0.23029319941997528
			]
		},
		{
			"name":"Cheek_R",
			"rotation":[
				-0.6406553387641907,
				0.7611642479896545,
				0.014670409262180328,
				0.09987228363752365
			],
			"scale":[
				0.9999998807907104,
				1,
				1
			],
			"translation":[
				-0.7530856728553772,
				0.11231378465890884,
				0.23029069602489471
			]
		},
		{
			"name":"Eye_L",
			"rotation":[
				-0.6880634427070618,
				-0.49778681993484497,
				-0.02063736878335476,
				0.5275900363922119
			],
			"scale":[
				1,
				1.0000001192092896,
				1
			],
			"translation":[
				0.6635932922363281,
				-0.03459622710943222,
				-0.18517343699932098
			]
		},
		{
			"name":"Eye_R",
			"rotation":[
				-0.6880633234977722,
				0.4977858066558838,
				0.02063617669045925,
				0.5275909304618835
			],
			"scale":[
				0.9999998807907104,
				0.9999999403953552,
				0.9999998807907104
			],
			"translation":[
				-0.6635926961898804,
				-0.034596167504787445,
				-0.18517564237117767
			]
		},
		{
			"children":[
				0,
				1,
				2,
				3,
				4
			],
			"name":"Head",
			"rotation":[
				0.18855199217796326,
				1.1707177804964886e-07,
				2.922031967500516e-07,
				0.9820632338523865
			],
			"scale":[
				1,
				0.9999999403953552,
				1
			],
			"translation":[
				5.0361560218316684e-14,
				0.3470097780227661,
				-1.7881393432617188e-07
			]
		},
		{
			"children":[
				5
			],
			"name":"Neck",
			"rotation":[
				-0.15298648178577423,
				3.534192387633084e-07,
				-1.641365372506698e-07,
				0.9882283210754395
			],
			"scale":[
				1,
				1.0000001192092896,
				0.9999999403953552
			],
			"translation":[
				6.457241832165048e-14,
				0.5811202526092529,
				1.4901161193847656e-08
			]
		},
		{
			"name":"Front_Feet_L",
			"rotation":[
				0.5526447892189026,
				-0.48069313168525696,
				0.44111642241477966,
				0.5185886025428772
			],
			"scale":[
				0.9999997615814209,
				0.9999998211860657,
				0.9999998807907104
			],
			"translation":[
				2.1420419216156006e-08,
				0.3461167812347412,
				-7.35744833946228e-08
			]
		},
		{
			"children":[
				7
			],
			"name":"Front_Leg_2_L",
			"rotation":[
				0.10382279753684998,
				-7.843179439248615e-09,
				-0.015655653551220894,
				0.9944726228713989
			],
			"scale":[
				1,
				1,
				1.0000001192092896
			],
			"translation":[
				1.30385160446167e-08,
				0.3596019446849823,
				-4.470348358154297e-08
			]
		},
		{
			"children":[
				8
			],
			"name":"Front_Leg_1_L",
			"rotation":[
				0.4482530653476715,
				-0.01179481204599142,
				-0.09061349928379059,
				0.8892239928245544
			],
			"scale":[
				1.0000001192092896,
				0.9999999403953552,
				0.9999997615814209
			],
			"translation":[
				-1.0360963642597198e-08,
				0.8426641821861267,
				7.450580596923828e-09
			]
		},
		{
			"children":[
				9
			],
			"name":"Shoulder_L",
			"rotation":[
				0.11709094792604446,
				-0.12305310368537903,
				-0.6968538761138916,
				0.6968087553977966
			],
			"scale":[
				1.0000001192092896,
				1,
				1
			],
			"translation":[
				6.457241832165048e-14,
				0.5811202526092529,
				1.4901161193847656e-08
			]
		},
		{
			"name":"Front_Feet_R",
			"rotation":[
				0.5526447892189026,
				0.48069319128990173,
				-0.44111645221710205,
				0.5185885429382324
			],
			"scale":[
				1.0000001192092896,
				1,
				1.0000001192092896
			],
			"translation":[
				-5.069887265563011e-08,
				0.34611690044403076,
				-1.7695128917694092e-08
			]
		},
		{
			"children":[
				11
			],
			"name":"Front_Leg_2_R",
			"rotation":[
				0.10382282733917236,
				9.950301693706365e-10,
				0.015655655413866043,
				0.9944726228713989
			],
			"scale":[
				1,
				1.0000001192092896,
				1
			],
			"translation":[
				-6.705522537231445e-08,
				0.3596021234989166,
				0
			]
		},
		{
			"children":[
				12
			],
			"name":"Front_Leg_1_R",
			"rotation":[
				0.44825294613838196,
				0.011794804595410824,
				0.09061350673437119,
				0.8892240524291992
			],
			"scale":[
				1.0000001192092896,
				0.9999998807907104,
				1
			],
			"translation":[
				1.955777406692505e-08,
				0.8426643013954163,
				-1.4901161193847656e-08
			]
		},
		{
			"children":[
				13
			],
			"name":"Shoulder_R",
			"rotation":[
				0.11709045618772507,
				0.12305258959531784,
				0.6968538761138916,
				0.6968088746070862
			],
			"translation":[
				6.421191432303547e-14,
				0.5811202526092529,
				1.4901161193847656e-08
			]
		},
		{
			"children":[
				6,
				10,
				14
			],
			"name":"Torso",
			"rotation":[
				0.6522623896598816,
				1.8071888518989e-07,
				3.1102223374546156e-07,
				0.7579932808876038
			],
			"scale":[
				1,
				1.0000001192092896,
				1
			],
			"translation":[
				2.7182721851204406e-08,
				0.9461863040924072,
				-0.11401260644197464
			]
		},
		{
			"name":"Tail",
			"rotation":[
				-0.009418321773409843,
				3.551667593110642e-15,
				4.856631817055247e-17,
				0.9999556541442871
			],
			"translation":[
				1.1117307432712692e-21,
				0.5832101702690125,
				9.685754776000977e-08
			]
		},
		{
			"name":"Back_Feet_L",
			"rotation":[
				0.4718923270702362,
				0.48049280047416687,
				-0.5829043984413147,
				0.454606294631958
			],
			"scale":[
				0.9999999403953552,
				0.9999998211860657,
				0.9999998807907104
			],
			"translation":[
				5.3085386753082275e-08,
				0.3398903012275696,
				1.0710209608078003e-08
			]
		},
		{
			"children":[
				17
			],
			"name":"Back_Leg_2_L",
			"rotation":[
				-0.3169003129005432,
				0.013434859924018383,
				0.09943357855081558,
				0.9431366324424744
			],
			"scale":[
				1.0000001192092896,
				1,
				1
			],
			"translation":[
				-8.568167686462402e-08,
				0.3869274854660034,
				9.685754776000977e-08
			]
		},
		{
			"children":[
				18
			],
			"name":"Back_Leg_1_L",
			"rotation":[
				-0.25858938694000244,
				-0.0035336758010089397,
				0.04268551990389824,
				0.9650373458862305
			],
			"translation":[
				3.306195139884949e-08,
				0.6613472104072571,
				1.2665987014770508e-07
			]
		},
		{
			"children":[
				19
			],
			"name":"Hip_L",
			"rotation":[
				-0.10589393973350525,
				0.10362301021814346,
				-0.6957955360412598,
				0.7027925252914429
			],
			"translation":[
				1.1117307432712692e-21,
				0.5832101702690125,
				9.685754776000977e-08
			]
		},
		{
			"name":"Back_Feet_R",
			"rotation":[
				0.4718923270702362,
				-0.48049280047416687,
				0.5829043984413147,
				0.454606294631958
			],
			"scale":[
				0.9999999403953552,
				0.9999998211860657,
				0.9999998807907104
			],
			"translation":[
				-5.3085386753082275e-08,
				0.3398903012275696,
				1.0710209608078003e-08
			]
		},
		{
			"children":[
				21
			],
			"name":"Back_Leg_2_R",
			"rotation":[
				-0.3169003129005432,
				-0.013434859924018383,
				-0.09943357855081558,
				0.9431366324424744
			],
			"scale":[
				1.0000001192092896,
				1,
				1
			],
			"translation":[
				8.568167686462402e-08,
				0.3869274854660034,
				9.685754776000977e-08
			]
		},
		{
			"children":[
				22
			],
			"name":"Back_Leg_1_R",
			"rotation":[
				-0.25858938694000244,
				0.0035336758010089397,
				-0.04268551990389824,
				0.9650373458862305
			],
			"translation":[
				-3.306195139884949e-08,
				0.6613472104072571,
				1.2665987014770508e-07
			]
		},
		{
			"children":[
				23
			],
			"name":"Hip_R",
			"rotation":[
				-0.10589393973350525,
				-0.10362301021814346,
				0.6957955360412598,
				0.7027925252914429
			],
			"translation":[
				-2.916380494813063e-16,
				0.5832101702690125,
				9.685754776000977e-08
			]
		},
		{
			"children":[
				16,
				20,
				24
			],
			"name":"Spine",
			"rotation":[
				-0.7474271655082703,
				-7.919594935401619e-08,
				-8.910026849662245e-08,
				0.6643438339233398
			],
			"scale":[
				1,
				1,
				1.0000001192092896
			],
			"translation":[
				2.7182721851204406e-08,
				0.9461863040924072,
				-0.11401260644197464
			]
		},
		{
			"children":[
				15,
				25
			],
			"name":"Bone",
			"rotation":[
				-7.475002661294639e-08,
				1.1920928955078125e-07,
				-3.610938300078288e-15,
				1
			],
			"scale":[
				0.9999999403953552,
				0.9999998211860657,
				0.9999998211860657
			]
		},
		{
			"mesh":0,
			"name":"Frog",
			"skin":0
		},
		{
			"children":[
				27,
				26
			],
			"name":"Frog_Rig",
			"scale":[
				0.699999988079071,
				0.699999988079071,
				0.699999988079071
			]
		},
		{
			"mesh":1,
			"name":"Gear.001",
			"rotation":[
				-0.17920070886611938,
				0,
				0,
				0.9838125705718994
			],
			"scale":[
				3,
				2.999999761581421,
				2.999999761581421
			],
			"translation":[
				0,
				1.46783447265625,
				18.281347274780273
			]
		},
		{
			"children":[
				29
			],
			"name":"Gear"
		},
		{
			"children":[
				30
			],
			"name":"Gear.obj",
			"scale":[
				0.009999999776482582,
				0.009999999776482582,
				0.009999999776482582
			],
			"translation":[
				0,
				0.9934349060058594,
				-0.13067084550857544
			]
		}
	],
	"animations":[
		{
			"channels":[
				{
					"sampler":0,
					"target":{
						"node":26,
						"path":"translation"
					}
				},
				{
					"sampler":1,
					"target":{
						"node":26,
						"path":"rotation"
					}
				},
				{
					"sampler":2,
					"target":{
						"node":26,
						"path":"scale"
					}
				},
				{
					"sampler":3,
					"target":{
						"node":15,
						"path":"translation"
					}
				},
				{
					"sampler":4,
					"target":{
						"node":15,
						"path":"rotation"
					}
				},
				{
					"sampler":5,
					"target":{
						"node":15,
						"path":"scale"
					}
				},
				{
					"sampler":6,
					"target":{
						"node":6,
						"path":"translation"
					}
				},
				{
					"sampler":7,
					"target":{
						"node":6,
						"path":"rotation"
					}
				},
				{
					"sampler":8,
					"target":{
						"node":6,
						"path":"scale"
					}
				},
				{
					"sampler":9,
					"target":{
						"node":5,
						"path":"translation"
					}
				},
				{
					"sampler":10,
					"target":{
						"node":5,
						"path":"rotation"
					}
				},
				{
					"sampler":11,
					"target":{
						"node":5,
						"path":"scale"
					}
				},
				{
					"sampler":12,
					"target":{
						"node":0,
						"path":"translation"
					}
				},
				{
					"sampler":13,
					"target":{
						"node":0,
						"path":"rotation"
					}
				},
				{
					"sampler":14,
					"target":{
						"node":0,
						"path":"scale"
					}
				},
				{
					"sampler":15,
					"target":{
						"node":1,
						"path":"translation"
					}
				},
				{
					"sampler":16,
					"target":{
						"node":1,
						"path":"rotation"
					}
				},
				{
					"sampler":17,
					"target":{
						"node":1,
						"path":"scale"
					}
				},
				{
					"sampler":18,
					"target":{
						"node":2,
						"path":"translation"
					}
				},
				{
					"sampler":19,
					"target":{
						"node":2,
						"path":"rotation"
					}
				},
				{
					"sampler":20,
					"target":{
						"node":2,
						"path":"scale"
					}
				},
				{
					"sampler":21,
					"target":{
						"node":3,
						"path":"translation"
					}
				},
				{
					"sampler":22,
					"target":{
						"node":3,
						"path":"rotation"
					}
				},
				{
					"sampler":23,
					"target":{
						"node":3,
						"path":"scale"
					}
				},
				{
					"sampler":24,
					"target":{
						"node":4,
						"path":"translation"
					}
				},
				{
					"sampler":25,
					"target":{
						"node":4,
						"path":"rotation"
					}
				},
				{
					"sampler":26,
					"target":{
						"node":4,
						"path":"scale"
					}
				},
				{
					"sampler":27,
					"target":{
						"node":10,
						"path":"translation"
					}
				},
				{
					"sampler":28,
					"target":{
						"node":10,
						"path":"rotation"
					}
				},
				{
					"sampler":29,
					"target":{
						"node":10,
						"path":"scale"
					}
				},
				{
					"sampler":30,
					"target":{
						"node":9,
						"path":"translation"
					}
				},
				{
					"sampler":31,
					"target":{
						"node":9,
						"path":"rotation"
					}
				},
				{
					"sampler":32,
					"target":{
						"node":9,
						"path":"scale"
					}
				},
				{
					"sampler":33,
					"target":{
						"node":8,
						"path":"translation"
					}
				},
				{
					"sampler":34,
					"target":{
						"node":8,
						"path":"rotation"
					}
				},
				{
					"sampler":35,
					"target":{
						"node":8,
						"path":"scale"
					}
				},
				{
					"sampler":36,
					"target":{
						"node":7,
						"path":"translation"
					}
				},
				{
					"sampler":37,
					"target":{
						"node":7,
						"path":"rotation"
					}
				},
				{
					"sampler":38,
					"target":{
						"node":7,
						"path":"scale"
					}
				},
				{
					"sampler":39,
					"target":{
						"node":14,
						"path":"translation"
					}
				},
				{
					"sampler":40,
					"target":{
						"node":14,
						"path":"rotation"
					}
				},
				{
					"sampler":41,
					"target":{
						"node":14,
						"path":"scale"
					}
				},
				{
					"sampler":42,
					"target":{
						"node":13,
						"path":"translation"
					}
				},
				{
					"sampler":43,
					"target":{
						"node":13,
						"path":"rotation"
					}
				},
				{
					"sampler":44,
					"target":{
						"node":13,
						"path":"scale"
					}
				},
				{
					"sampler":45,
					"target":{
						"node":12,
						"path":"translation"
					}
				},
				{
					"sampler":46,
					"target":{
						"node":12,
						"path":"rotation"
					}
				},
				{
					"sampler":47,
					"target":{
						"node":12,
						"path":"scale"
					}
				},
				{
					"sampler":48,
					"target":{
						"node":11,
						"path":"translation"
					}
				},
				{
					"sampler":49,
					"target":{
						"node":11,
						"path":"rotation"
					}
				},
				{
					"sampler":50,
					"target":{
						"node":11,
						"path":"scale"
					}
				},
				{
					"sampler":51,
					"target":{
						"node":25,
						"path":"translation"
					}
				},
				{
					"sampler":52,
					"target":{
						"node":25,
						"path":"rotation"
					}
				},
				{
					"sampler":53,
					"target":{
						"node":25,
						"path":"scale"
					}
				},
				{
					"sampler":54,
					"target":{
						"node":16,
						"path":"translation"
					}
				},
				{
					"sampler":55,
					"target":{
						"node":16,
						"path":"rotation"
					}
				},
				{
					"sampler":56,
					"target":{
						"node":16,
						"path":"scale"
					}
				},
				{
					"sampler":57,
					"target":{
						"node":20,
						"path":"translation"
					}
				},
				{
					"sampler":58,
					"target":{
						"node":20,
						"path":"rotation"
					}
				},
				{
					"sampler":59,
					"target":{
						"node":20,
						"path":"scale"
					}
				},
				{
					"sampler":60,
					"target":{
						"node":19,
						"path":"translation"
					}
				},
				{
					"sampler":61,
					"target":{
						"node":19,
						"path":"rotation"
					}
				},
				{
					"sampler":62,
					"target":{
						"node":19,
						"path":"scale"
					}
				},
				{
					"sampler":63,
					"target":{
						"node":18,
						"path":"translation"
					}
				},
				{
					"sampler":64,
					"target":{
						"node":18,
						"path":"rotation"
					}
				},
				{
					"sampler":65,
					"target":{
						"node":18,
						"path":"scale"
					}
				},
				{
					"sampler":66,
					"target":{
						"node":17,
						"path":"translation"
					}
				},
				{
					"sampler":67,
					"target":{
						"node":17,
						"path":"rotation"
					}
				},
				{
					"sampler":68,
					"target":{
						"node":17,
						"path":"scale"
					}
				},
				{
					"sampler":69,
					"target":{
						"node":24,
						"path":"translation"
					}
				},
				{
					"sampler":70,
					"target":{
						"node":24,
						"path":"rotation"
					}
				},
				{
					"sampler":71,
					"target":{
						"node":24,
						"path":"scale"
					}
				},
				{
					"sampler":72,
					"target":{
						"node":23,
						"path":"translation"
					}
				},
				{
					"sampler":73,
					"target":{
						"node":23,
						"path":"rotation"
					}
				},
				{
					"sampler":74,
					"target":{
						"node":23,
						"path":"scale"
					}
				},
				{
					"sampler":75,
					"target":{
						"node":22,
						"path":"translation"
					}
				},
				{
					"sampler":76,
					"target":{
						"node":22,
						"path":"rotation"
					}
				},
				{
					"sampler":77,
					"target":{
						"node":22,
						"path":"scale"
					}
				},
				{
					"sampler":78,
					"target":{
						"node":21,
						"path":"translation"
					}
				},
				{
					"sampler":79,
					"target":{
						"node":21,
						"path":"rotation"
					}
				},
				{
					"sampler":80,
					"target":{
						"node":21,
						"path":"scale"
					}
				}
			],
			"name":"Frog_Jump",
			"samplers":[
				{
					"input":11,
					"interpolation":"LINEAR",
					"output":12
				},
				{
					"input":11,
					"interpolation":"LINEAR",
					"output":13
				},
				{
					"input":14,
					"interpolation":"STEP",
					"output":15
				},
				{
					"input":14,
					"interpolation":"STEP",
					"output":16
				},
				{
					"input":14,
					"interpolation":"STEP",
					"output":17
				},
				{
					"input":14,
					"interpolation":"STEP",
					"output":18
				},
				{
					"input":14,
					"interpolation":"STEP",
					"output":19
				},
				{
					"input":14,
					"interpolation":"STEP",
					"output":20
				},
				{
					"input":14,
					"interpolation":"STEP",
					"output":21
				},
				{
					"input":14,
					"interpolation":"STEP",
					"output":22
				},
				{
					"input":14,
					"interpolation":"STEP",
					"output":23
				},
				{
					"input":14,
					"interpolation":"STEP",
					"output":24
				},
				{
					"input":11,
					"interpolation":"LINEAR",
					"output":25
				},
				{
					"input":11,
					"interpolation":"LINEAR",
					"output":26
				},
				{
					"input":14,
					"interpolation":"STEP",
					"output":24
				},
				{
					"input":14,
					"interpolation":"STEP",
					"output":27
				},
				{
					"input":14,
					"interpolation":"STEP",
					"output":28
				},
				{
					"input":14,
					"interpolation":"STEP",
					"output":29
				},
				{
					"input":14,
					"interpolation":"STEP",
					"output":30
				},
				{
					"input":14,
					"interpolation":"STEP",
					"output":31
				},
				{
					"input":14,
					"interpolation":"STEP",
					"output":32
				},
				{
					"input":14,
					"interpolation":"STEP",
					"output":33
				},
				{
					"input":14,
					"interpolation":"STEP",
					"output":34
				},
				{
					"input":14,
					"interpolation":"STEP",
					"output":35
				},
				{
					"input":14,
					"interpolation":"STEP",
					"output":36
				},
				{
					"input":14,
					"interpolation":"STEP",
					"output":37
				},
				{
					"input":14,
					"interpolation":"STEP",
					"output":38
				},
				{
					"input":14,
					"interpolation":"STEP",
					"output":39
				},
				{
					"input":11,
					"interpolation":"LINEAR",
					"output":40
				},
				{
					"input":14,
					"interpolation":"STEP",
					"output":21
				},
				{
					"input":14,
					"interpolation":"STEP",
					"output":41
				},
				{
					"input":11,
					"interpolation":"LINEAR",
					"output":42
				},
				{
					"input":14,
					"interpolation":"STEP",
					"output":43
				},
				{
					"input":14,
					"interpolation":"STEP",
					"output":44
				},
				{
					"input":11,
					"interpolation":"LINEAR",
					"output":45
				},
				{
					"input":14,
					"interpolation":"STEP",
					"output":46
				},
				{
					"input":14,
					"interpolation":"STEP",
					"output":47
				},
				{
					"input":11,
					"interpolation":"LINEAR",
					"output":48
				},
				{
					"input":14,
					"interpolation":"STEP",
					"output":49
				},
				{
					"input":14,
					"interpolation":"STEP",
					"output":50
				},
				{
					"input":11,
					"interpolation":"LINEAR",
					"output":51
				},
				{
					"input":14,
					"interpolation":"STEP",
					"output":52
				},
				{
					"input":14,
					"interpolation":"STEP",
					"output":53
				},
				{
					"input":11,
					"interpolation":"LINEAR",
					"output":54
				},
				{
					"input":14,
					"interpolation":"STEP",
					"output":15
				},
				{
					"input":14,
					"interpolation":"STEP",
					"output":55
				},
				{
					"input":11,
					"interpolation":"LINEAR",
					"output":56
				},
				{
					"input":14,
					"interpolation":"STEP",
					"output":57
				},
				{
					"input":14,
					"interpolation":"STEP",
					"output":58
				},
				{
					"input":11,
					"interpolation":"LINEAR",
					"output":59
				},
				{
					"input":14,
					"interpolation":"STEP",
					"output":18
				},
				{
					"input":14,
					"interpolation":"STEP",
					"output":60
				},
				{
					"input":14,
					"interpolation":"STEP",
					"output":61
				},
				{
					"input":14,
					"interpolation":"STEP",
					"output":62
				},
				{
					"input":14,
					"interpolation":"STEP",
					"output":63
				},
				{
					"input":14,
					"interpolation":"STEP",
					"output":64
				},
				{
					"input":14,
					"interpolation":"STEP",
					"output":65
				},
				{
					"input":14,
					"interpolation":"STEP",
					"output":66
				},
				{
					"input":11,
					"interpolation":"LINEAR",
					"output":67
				},
				{
					"input":14,
					"interpolation":"STEP",
					"output":68
				},
				{
					"input":14,
					"interpolation":"STEP",
					"output":69
				},
				{
					"input":11,
					"interpolation":"LINEAR",
					"output":70
				},
				{
					"input":14,
					"interpolation":"STEP",
					"output":71
				},
				{
					"input":14,
					"interpolation":"STEP",
					"output":72
				},
				{
					"input":11,
					"interpolation":"LINEAR",
					"output":73
				},
				{
					"input":14,
					"interpolation":"STEP",
					"output":24
				},
				{
					"input":14,
					"interpolation":"STEP",
					"output":74
				},
				{
					"input":11,
					"interpolation":"LINEAR",
					"output":75
				},
				{
					"input":14,
					"interpolation":"STEP",
					"output":76
				},
				{
					"input":14,
					"interpolation":"STEP",
					"output":77
				},
				{
					"input":11,
					"interpolation":"LINEAR",
					"output":78
				},
				{
					"input":14,
					"interpolation":"STEP",
					"output":79
				},
				{
					"input":14,
					"interpolation":"STEP",
					"output":80
				},
				{
					"input":11,
					"interpolation":"LINEAR",
					"output":81
				},
				{
					"input":14,
					"interpolation":"STEP",
					"output":82
				},
				{
					"input":14,
					"interpolation":"STEP",
					"output":83
				},
				{
					"input":11,
					"interpolation":"LINEAR",
					"output":84
				},
				{
					"input":14,
					"interpolation":"STEP",
					"output":29
				},
				{
					"input":14,
					"interpolation":"STEP",
					"output":85
				},
				{
					"input":11,
					"interpolation":"LINEAR",
					"output":86
				},
				{
					"input":14,
					"interpolation":"STEP",
					"output":87
				}
			]
		},
		{
			"channels":[
				{
					"sampler":0,
					"target":{
						"node":26,
						"path":"translation"
					}
				},
				{
					"sampler":1,
					"target":{
						"node":26,
						"path":"rotation"
					}
				},
				{
					"sampler":2,
					"target":{
						"node":26,
						"path":"scale"
					}
				},
				{
					"sampler":3,
					"target":{
						"node":15,
						"path":"translation"
					}
				},
				{
					"sampler":4,
					"target":{
						"node":15,
						"path":"rotation"
					}
				},
				{
					"sampler":5,
					"target":{
						"node":15,
						"path":"scale"
					}
				},
				{
					"sampler":6,
					"target":{
						"node":6,
						"path":"translation"
					}
				},
				{
					"sampler":7,
					"target":{
						"node":6,
						"path":"rotation"
					}
				},
				{
					"sampler":8,
					"target":{
						"node":6,
						"path":"scale"
					}
				},
				{
					"sampler":9,
					"target":{
						"node":5,
						"path":"translation"
					}
				},
				{
					"sampler":10,
					"target":{
						"node":5,
						"path":"rotation"
					}
				},
				{
					"sampler":11,
					"target":{
						"node":5,
						"path":"scale"
					}
				},
				{
					"sampler":12,
					"target":{
						"node":0,
						"path":"translation"
					}
				},
				{
					"sampler":13,
					"target":{
						"node":0,
						"path":"rotation"
					}
				},
				{
					"sampler":14,
					"target":{
						"node":0,
						"path":"scale"
					}
				},
				{
					"sampler":15,
					"target":{
						"node":1,
						"path":"translation"
					}
				},
				{
					"sampler":16,
					"target":{
						"node":1,
						"path":"rotation"
					}
				},
				{
					"sampler":17,
					"target":{
						"node":1,
						"path":"scale"
					}
				},
				{
					"sampler":18,
					"target":{
						"node":2,
						"path":"translation"
					}
				},
				{
					"sampler":19,
					"target":{
						"node":2,
						"path":"rotation"
					}
				},
				{
					"sampler":20,
					"target":{
						"node":2,
						"path":"scale"
					}
				},
				{
					"sampler":21,
					"target":{
						"node":3,
						"path":"translation"
					}
				},
				{
					"sampler":22,
					"target":{
						"node":3,
						"path":"rotation"
					}
				},
				{
					"sampler":23,
					"target":{
						"node":3,
						"path":"scale"
					}
				},
				{
					"sampler":24,
					"target":{
						"node":4,
						"path":"translation"
					}
				},
				{
					"sampler":25,
					"target":{
						"node":4,
						"path":"rotation"
					}
				},
				{
					"sampler":26,
					"target":{
						"node":4,
						"path":"scale"
					}
				},
				{
					"sampler":27,
					"target":{
						"node":10,
						"path":"translation"
					}
				},
				{
					"sampler":28,
					"target":{
						"node":10,
						"path":"rotation"
					}
				},
				{
					"sampler":29,
					"target":{
						"node":10,
						"path":"scale"
					}
				},
				{
					"sampler":30,
					"target":{
						"node":9,
						"path":"translation"
					}
				},
				{
					"sampler":31,
					"target":{
						"node":9,
						"path":"rotation"
					}
				},
				{
					"sampler":32,
					"target":{
						"node":9,
						"path":"scale"
					}
				},
				{
					"sampler":33,
					"target":{
						"node":8,
						"path":"translation"
					}
				},
				{
					"sampler":34,
					"target":{
						"node":8,
						"path":"rotation"
					}
				},
				{
					"sampler":35,
					"target":{
						"node":8,
						"path":"scale"
					}
				},
				{
					"sampler":36,
					"target":{
						"node":7,
						"path":"translation"
					}
				},
				{
					"sampler":37,
					"target":{
						"node":7,
						"path":"rotation"
					}
				},
				{
					"sampler":38,
					"target":{
						"node":7,
						"path":"scale"
					}
				},
				{
					"sampler":39,
					"target":{
						"node":14,
						"path":"translation"
					}
				},
				{
					"sampler":40,
					"target":{
						"node":14,
						"path":"rotation"
					}
				},
				{
					"sampler":41,
					"target":{
						"node":14,
						"path":"scale"
					}
				},
				{
					"sampler":42,
					"target":{
						"node":13,
						"path":"translation"
					}
				},
				{
					"sampler":43,
					"target":{
						"node":13,
						"path":"rotation"
					}
				},
				{
					"sampler":44,
					"target":{
						"node":13,
						"path":"scale"
					}
				},
				{
					"sampler":45,
					"target":{
						"node":12,
						"path":"translation"
					}
				},
				{
					"sampler":46,
					"target":{
						"node":12,
						"path":"rotation"
					}
				},
				{
					"sampler":47,
					"target":{
						"node":12,
						"path":"scale"
					}
				},
				{
					"sampler":48,
					"target":{
						"node":11,
						"path":"translation"
					}
				},
				{
					"sampler":49,
					"target":{
						"node":11,
						"path":"rotation"
					}
				},
				{
					"sampler":50,
					"target":{
						"node":11,
						"path":"scale"
					}
				},
				{
					"sampler":51,
					"target":{
						"node":25,
						"path":"translation"
					}
				},
				{
					"sampler":52,
					"target":{
						"node":25,
						"path":"rotation"
					}
				},
				{
					"sampler":53,
					"target":{
						"node":25,
						"path":"scale"
					}
				},
				{
					"sampler":54,
					"target":{
						"node":16,
						"path":"translation"
					}
				},
				{
					"sampler":55,
					"target":{
						"node":16,
						"path":"rotation"
					}
				},
				{
					"sampler":56,
					"target":{
						"node":16,
						"path":"scale"
					}
				},
				{
					"sampler":57,
					"target":{
						"node":20,
						"path":"translation"
					}
				},
				{
					"sampler":58,
					"target":{
						"node":20,
						"path":"rotation"
					}
				},
				{
					"sampler":59,
					"target":{
						"node":20,
						"path":"scale"
					}
				},
				{
					"sampler":60,
					"target":{
						"node":19,
						"path":"translation"
					}
				},
				{
					"sampler":61,
					"target":{
						"node":19,
						"path":"rotation"
					}
				},
				{
					"sampler":62,
					"target":{
						"node":19,
						"path":"scale"
					}
				},
				{
					"sampler":63,
					"target":{
						"node":18,
						"path":"translation"
					}
				},
				{
					"sampler":64,
					"target":{
						"node":18,
						"path":"rotation"
					}
				},
				{
					"sampler":65,
					"target":{
						"node":18,
						"path":"scale"
					}
				},
				{
					"sampler":66,
					"target":{
						"node":17,
						"path":"translation"
					}
				},
				{
					"sampler":67,
					"target":{
						"node":17,
						"path":"rotation"
					}
				},
				{
					"sampler":68,
					"target":{
						"node":17,
						"path":"scale"
					}
				},
				{
					"sampler":69,
					"target":{
						"node":24,
						"path":"translation"
					}
				},
				{
					"sampler":70,
					"target":{
						"node":24,
						"path":"rotation"
					}
				},
				{
					"sampler":71,
					"target":{
						"node":24,
						"path":"scale"
					}
				},
				{
					"sampler":72,
					"target":{
						"node":23,
						"path":"translation"
					}
				},
				{
					"sampler":73,
					"target":{
						"node":23,
						"path":"rotation"
					}
				},
				{
					"sampler":74,
					"target":{
						"node":23,
						"path":"scale"
					}
				},
				{
					"sampler":75,
					"target":{
						"node":22,
						"path":"translation"
					}
				},
				{
					"sampler":76,
					"target":{
						"node":22,
						"path":"rotation"
					}
				},
				{
					"sampler":77,
					"target":{
						"node":22,
						"path":"scale"
					}
				},
				{
					"sampler":78,
					"target":{
						"node":21,
						"path":"translation"
					}
				},
				{
					"sampler":79,
					"target":{
						"node":21,
						"path":"rotation"
					}
				},
				{
					"sampler":80,
					"target":{
						"node":21,
						"path":"scale"
					}
				}
			],
			"name":"Frog_RigAction",
			"samplers":[
				{
					"input":88,
					"interpolation":"STEP",
					"output":89
				},
				{
					"input":88,
					"interpolation":"STEP",
					"output":90
				},
				{
					"input":88,
					"interpolation":"STEP",
					"output":15
				},
				{
					"input":88,
					"interpolation":"STEP",
					"output":16
				},
				{
					"input":88,
					"interpolation":"STEP",
					"output":17
				},
				{
					"input":88,
					"interpolation":"STEP",
					"output":18
				},
				{
					"input":88,
					"interpolation":"STEP",
					"output":19
				},
				{
					"input":88,
					"interpolation":"STEP",
					"output":20
				},
				{
					"input":88,
					"interpolation":"STEP",
					"output":21
				},
				{
					"input":88,
					"interpolation":"STEP",
					"output":22
				},
				{
					"input":88,
					"interpolation":"STEP",
					"output":23
				},
				{
					"input":88,
					"interpolation":"STEP",
					"output":24
				},
				{
					"input":88,
					"interpolation":"STEP",
					"output":91
				},
				{
					"input":88,
					"interpolation":"STEP",
					"output":92
				},
				{
					"input":88,
					"interpolation":"STEP",
					"output":21
				},
				{
					"input":93,
					"interpolation":"LINEAR",
					"output":94
				},
				{
					"input":88,
					"interpolation":"STEP",
					"output":28
				},
				{
					"input":88,
					"interpolation":"STEP",
					"output":29
				},
				{
					"input":93,
					"interpolation":"LINEAR",
					"output":95
				},
				{
					"input":88,
					"interpolation":"STEP",
					"output":31
				},
				{
					"input":88,
					"interpolation":"STEP",
					"output":32
				},
				{
					"input":88,
					"interpolation":"STEP",
					"output":33
				},
				{
					"input":88,
					"interpolation":"STEP",
					"output":34
				},
				{
					"input":88,
					"interpolation":"STEP",
					"output":35
				},
				{
					"input":88,
					"interpolation":"STEP",
					"output":36
				},
				{
					"input":88,
					"interpolation":"STEP",
					"output":37
				},
				{
					"input":88,
					"interpolation":"STEP",
					"output":38
				},
				{
					"input":88,
					"interpolation":"STEP",
					"output":39
				},
				{
					"input":88,
					"interpolation":"STEP",
					"output":96
				},
				{
					"input":88,
					"interpolation":"STEP",
					"output":21
				},
				{
					"input":88,
					"interpolation":"STEP",
					"output":41
				},
				{
					"input":88,
					"interpolation":"STEP",
					"output":97
				},
				{
					"input":88,
					"interpolation":"STEP",
					"output":43
				},
				{
					"input":88,
					"interpolation":"STEP",
					"output":44
				},
				{
					"input":88,
					"interpolation":"STEP",
					"output":98
				},
				{
					"input":88,
					"interpolation":"STEP",
					"output":46
				},
				{
					"input":88,
					"interpolation":"STEP",
					"output":47
				},
				{
					"input":88,
					"interpolation":"STEP",
					"output":99
				},
				{
					"input":88,
					"interpolation":"STEP",
					"output":49
				},
				{
					"input":88,
					"interpolation":"STEP",
					"output":50
				},
				{
					"input":88,
					"interpolation":"STEP",
					"output":100
				},
				{
					"input":88,
					"interpolation":"STEP",
					"output":52
				},
				{
					"input":88,
					"interpolation":"STEP",
					"output":53
				},
				{
					"input":88,
					"interpolation":"STEP",
					"output":101
				},
				{
					"input":88,
					"interpolation":"STEP",
					"output":15
				},
				{
					"input":88,
					"interpolation":"STEP",
					"output":55
				},
				{
					"input":88,
					"interpolation":"STEP",
					"output":102
				},
				{
					"input":88,
					"interpolation":"STEP",
					"output":57
				},
				{
					"input":88,
					"interpolation":"STEP",
					"output":58
				},
				{
					"input":88,
					"interpolation":"STEP",
					"output":103
				},
				{
					"input":88,
					"interpolation":"STEP",
					"output":18
				},
				{
					"input":88,
					"interpolation":"STEP",
					"output":104
				},
				{
					"input":88,
					"interpolation":"STEP",
					"output":61
				},
				{
					"input":88,
					"interpolation":"STEP",
					"output":62
				},
				{
					"input":88,
					"interpolation":"STEP",
					"output":105
				},
				{
					"input":88,
					"interpolation":"STEP",
					"output":64
				},
				{
					"input":88,
					"interpolation":"STEP",
					"output":65
				},
				{
					"input":88,
					"interpolation":"STEP",
					"output":106
				},
				{
					"input":88,
					"interpolation":"STEP",
					"output":107
				},
				{
					"input":88,
					"interpolation":"STEP",
					"output":65
				},
				{
					"input":88,
					"interpolation":"STEP",
					"output":108
				},
				{
					"input":88,
					"interpolation":"STEP",
					"output":109
				},
				{
					"input":88,
					"interpolation":"STEP",
					"output":110
				},
				{
					"input":88,
					"interpolation":"STEP",
					"output":111
				},
				{
					"input":88,
					"interpolation":"STEP",
					"output":112
				},
				{
					"input":88,
					"interpolation":"STEP",
					"output":21
				},
				{
					"input":88,
					"interpolation":"STEP",
					"output":113
				},
				{
					"input":88,
					"interpolation":"STEP",
					"output":114
				},
				{
					"input":88,
					"interpolation":"STEP",
					"output":115
				},
				{
					"input":88,
					"interpolation":"STEP",
					"output":116
				},
				{
					"input":88,
					"interpolation":"STEP",
					"output":117
				},
				{
					"input":88,
					"interpolation":"STEP",
					"output":118
				},
				{
					"input":88,
					"interpolation":"STEP",
					"output":119
				},
				{
					"input":88,
					"interpolation":"STEP",
					"output":120
				},
				{
					"input":88,
					"interpolation":"STEP",
					"output":121
				},
				{
					"input":88,
					"interpolation":"STEP",
					"output":122
				},
				{
					"input":88,
					"interpolation":"STEP",
					"output":123
				},
				{
					"input":88,
					"interpolation":"STEP",
					"output":21
				},
				{
					"input":88,
					"interpolation":"STEP",
					"output":124
				},
				{
					"input":88,
					"interpolation":"STEP",
					"output":125
				},
				{
					"input":88,
					"interpolation":"STEP",
					"output":18
				}
			]
		},
		{
			"channels":[
				{
					"sampler":0,
					"target":{
						"node":29,
						"path":"translation"
					}
				},
				{
					"sampler":1,
					"target":{
						"node":29,
						"path":"rotation"
					}
				},
				{
					"sampler":2,
					"target":{
						"node":29,
						"path":"scale"
					}
				}
			],
			"name":"Gear.001Action",
			"samplers":[
				{
					"input":11,
					"interpolation":"LINEAR",
					"output":126
				},
				{
					"input":11,
					"interpolation":"LINEAR",
					"output":127
				},
				{
					"input":14,
					"interpolation":"STEP",
					"output":128
				}
			]
		},
		{
			"channels":[
				{
					"sampler":0,
					"target":{
						"node":29,
						"path":"translation"
					}
				},
				{
					"sampler":1,
					"target":{
						"node":29,
						"path":"rotation"
					}
				},
				{
					"sampler":2,
					"target":{
						"node":29,
						"path":"scale"
					}
				}
			],
			"name":"Gear.001Action.001",
			"samplers":[
				{
					"input":129,
					"interpolation":"STEP",
					"output":130
				},
				{
					"input":129,
					"interpolation":"STEP",
					"output":131
				},
				{
					"input":129,
					"interpolation":"STEP",
					"output":132
				}
			]
		}
	],
	"materials":[
		{
			"doubleSided":true,
			"name":"Frog_Material",
			"pbrMetallicRoughness":{
				"baseColorTexture":{
					"index":0
				},
				"metallicFactor":0,
				"metallicRoughnessTexture":{
					"index":1
				}
			}
		},
		{
			"alphaMode":"BLEND",
			"emissiveFactor":[
				1,
				1,
				1
			],
			"name":"Gear",
			"normalTexture":{
				"index":2
			},
			"occlusionTexture":{
				"index":3
			},
			"pbrMetallicRoughness":{
				"baseColorTexture":{
					"index":4
				},
				"metallicRoughnessTexture":{
					"index":3
				}
			}
		}
	],
	"meshes":[
		{
			"name":"Plane",
			"primitives":[
				{
					"attributes":{
						"POSITION":0,
						"NORMAL":1,
						"TEXCOORD_0":2,
						"JOINTS_0":3,
						"WEIGHTS_0":4
					},
					"indices":5,
					"material":0
				}
			]
		},
		{
			"name":"Gear",
			"primitives":[
				{
					"attributes":{
						"POSITION":7,
						"NORMAL":8,
						"TEXCOORD_0":9
					},
					"indices":10,
					"material":1
				}
			]
		}
	],
	"textures":[
		{
			"sampler":0,
			"source":0
		},
		{
			"sampler":0,
			"source":1
		},
		{
			"sampler":0,
			"source":2
		},
		{
			"sampler":0,
			"source":3
		},
		{
			"sampler":0,
			"source":4
		}
	],
	"images":[
		{
			"mimeType":"image/png",
			"name":"frog_diffuse",
			"uri":"frog_diffuse.png"
		},
		{
			"mimeType":"image/png",
			"name":"frog_roughness",
			"uri":"frog_roughness.png"
		},
		{
			"mimeType":"image/png",
			"name":"Gear_normal",
			"uri":"Gear_normal.png"
		},
		{
			"mimeType":"image/png",
			"name":"Gear_occlusionRoughnessMetallic",
			"uri":"Gear_occlusionRoughnessMetallic.png"
		},
		{
			"mimeType":"image/png",
			"name":"Gear_baseColor",
			"uri":"Gear_baseColor.png"
		}
	],
	"skins":[
		{
			"inverseBindMatrices":6,
			"joints":[
				26,
				15,
				6,
				5,
				0,
				1,
				2,
				3,
				4,
				10,
				9,
				8,
				7,
				14,
				13,
				12,
				11,
				25,
				16,
				20,
				19,
				18,
				17,
				24,
				23,
				22,
				21
			],
			"name":"Frog_Rig"
		}
	],
	"accessors":[
		{
			"bufferView":0,
			"componentType":5126,
			"count":992,
			"max":[
				0.7821672558784485,
				1.2065805196762085,
				1.033372402191162
			],
			"min":[
				-0.7821672558784485,
				0.0037187098059803247,
				-0.8452153205871582
			],
			"type":"VEC3"
		},
		{
			"bufferView":1,
			"componentType":5126,
			"count":992,
			"type":"VEC3"
		},
		{
			"bufferView":2,
			"componentType":5126,
			"count":992,
			"type":"VEC2"
		},
		{
			"bufferView":3,
			"componentType":5121,
			"count":992,
			"type":"VEC4"
		},
		{
			"bufferView":4,
			"componentType":5126,
			"count":992,
			"type":"VEC4"
		},
		{
			"bufferView":5,
			"componentType":5123,
			"count":4902,
			"type":"SCALAR"
		},
		{
			"bufferView":6,
			"componentType":5126,
			"count":27,
			"type":"MAT4"
		},
		{
			"bufferView":7,
			"componentType":5126,
			"count":310,
			"max":[
				11.664676666259766,
				8.72545051574707,
				11.37221908569336
			],
			"min":[
				-11.664676666259766,
				0,
				-11.37221908569336
			],
			"type":"VEC3"
		},
		{
			"bufferView":8,
			"componentType":5126,
			"count":310,
			"type":"VEC3"
		},
		{
			"bufferView":9,
			"componentType":5126,
			"count":310,
			"type":"VEC2"
		},
		{
			"bufferView":10,
			"componentType":5123,
			"count":672,
			"type":"SCALAR"
		},
		{
			"bufferView":11,
			"componentType":5126,
			"count":30,
			"max":[
				1.25
			],
			"min":[
				0.041666666666666664
			],
			"type":"SCALAR"
		},
		{
			"bufferView":12,
			"componentType":5126,
			"count":30,
			"type":"VEC3"
		},
		{
			"bufferView":13,
			"componentType":5126,
			"count":30,
			"type":"VEC4"
		},
		{
			"bufferView":14,
			"componentType":5126,
			"count":2,
			"max":[
				1.25
			],
			"min":[
				0.041666666666666664
			],
			"type":"SCALAR"
		},
		{
			"bufferView":15,
			"componentType":5126,
			"count":2,
			"type":"VEC3"
		},
		{
			"bufferView":16,
			"componentType":5126,
			"count":2,
			"type":"VEC3"
		},
		{
			"bufferView":17,
			"componentType":5126,
			"count":2,
			"type":"VEC4"
		},
		{
			"bufferView":18,
			"componentType":5126,
			"count":2,
			"type":"VEC3"
		},
		{
			"bufferView":19,
			"componentType":5126,
			"count":2,
			"type":"VEC3"
		},
		{
			"bufferView":20,
			"componentType":5126,
			"count":2,
			"type":"VEC4"
		},
		{
			"bufferView":21,
			"componentType":5126,
			"count":2,
			"type":"VEC3"
		},
		{
			"bufferView":22,
			"componentType":5126,
			"count":2,
			"type":"VEC3"
		},
		{
			"bufferView":23,
			"componentType":5126,
			"count":2,
			"type":"VEC4"
		},
		{
			"bufferView":24,
			"componentType":5126,
			"count":2,
			"type":"VEC3"
		},
		{
			"bufferView":25,
			"componentType":5126,
			"count":30,
			"type":"VEC3"
		},
		{
			"bufferView":26,
			"componentType":5126,
			"count":30,
			"type":"VEC4"
		},
		{
			"bufferView":27,
			"componentType":5126,
			"count":2,
			"type":"VEC3"
		},
		{
			"bufferView":28,
			"componentType":5126,
			"count":2,
			"type":"VEC4"
		},
		{
			"bufferView":29,
			"componentType":5126,
			"count":2,
			"type":"VEC3"
		},
		{
			"bufferView":30,
			"componentType":5126,
			"count":2,
			"type":"VEC3"
		},
		{
			"bufferView":31,
			"componentType":5126,
			"count":2,
			"type":"VEC4"
		},
		{
			"bufferView":32,
			"componentType":5126,
			"count":2,
			"type":"VEC3"
		},
		{
			"bufferView":33,
			"componentType":5126,
			"count":2,
			"type":"VEC3"
		},
		{
			"bufferView":34,
			"componentType":5126,
			"count":2,
			"type":"VEC4"
		},
		{
			"bufferView":35,
			"componentType":5126,
			"count":2,
			"type":"VEC3"
		},
		{
			"bufferView":36,
			"componentType":5126,
			"count":2,
			"type":"VEC3"
		},
		{
			"bufferView":37,
			"componentType":5126,
			"count":2,
			"type":"VEC4"
		},
		{
			"bufferView":38,
			"componentType":5126,
			"count":2,
			"type":"VEC3"
		},
		{
			"bufferView":39,
			"componentType":5126,
			"count":2,
			"type":"VEC3"
		},
		{
			"bufferView":40,
			"componentType":5126,
			"count":30,
			"type":"VEC4"
		},
		{
			"bufferView":41,
			"componentType":5126,
			"count":2,
			"type":"VEC3"
		},
		{
			"bufferView":42,
			"componentType":5126,
			"count":30,
			"type":"VEC4"
		},
		{
			"bufferView":43,
			"componentType":5126,
			"count":2,
			"type":"VEC3"
		},
		{
			"bufferView":44,
			"componentType":5126,
			"count":2,
			"type":"VEC3"
		},
		{
			"bufferView":45,
			"componentType":5126,
			"count":30,
			"type":"VEC4"
		},
		{
			"bufferView":46,
			"componentType":5126,
			"count":2,
			"type":"VEC3"
		},
		{
			"bufferView":47,
			"componentType":5126,
			"count":2,
			"type":"VEC3"
		},
		{
			"bufferView":48,
			"componentType":5126,
			"count":30,
			"type":"VEC4"
		},
		{
			"bufferView":49,
			"componentType":5126,
			"count":2,
			"type":"VEC3"
		},
		{
			"bufferView":50,
			"componentType":5126,
			"count":2,
			"type":"VEC3"
		},
		{
			"bufferView":51,
			"componentType":5126,
			"count":30,
			"type":"VEC4"
		},
		{
			"bufferView":52,
			"componentType":5126,
			"count":2,
			"type":"VEC3"
		},
		{
			"bufferView":53,
			"componentType":5126,
			"count":2,
			"type":"VEC3"
		},
		{
			"bufferView":54,
			"componentType":5126,
			"count":30,
			"type":"VEC4"
		},
		{
			"bufferView":55,
			"componentType":5126,
			"count":2,
			"type":"VEC3"
		},
		{
			"bufferView":56,
			"componentType":5126,
			"count":30,
			"type":"VEC4"
		},
		{
			"bufferView":57,
			"componentType":5126,
			"count":2,
			"type":"VEC3"
		},
		{
			"bufferView":58,
			"componentType":5126,
			"count":2,
			"type":"VEC3"
		},
		{
			"bufferView":59,
			"componentType":5126,
			"count":30,
			"type":"VEC4"
		},
		{
			"bufferView":60,
			"componentType":5126,
			"count":2,
			"type":"VEC3"
		},
		{
			"bufferView":61,
			"componentType":5126,
			"count":2,
			"type":"VEC4"
		},
		{
			"bufferView":62,
			"componentType":5126,
			"count":2,
			"type":"VEC3"
		},
		{
			"bufferView":63,
			"componentType":5126,
			"count":2,
			"type":"VEC3"
		},
		{
			"bufferView":64,
			"componentType":5126,
			"count":2,
			"type":"VEC4"
		},
		{
			"bufferView":65,
			"componentType":5126,
			"count":2,
			"type":"VEC3"
		},
		{
			"bufferView":66,
			"componentType":5126,
			"count":2,
			"type":"VEC3"
		},
		{
			"bufferView":67,
			"componentType":5126,
			"count":30,
			"type":"VEC4"
		},
		{
			"bufferView":68,
			"componentType":5126,
			"count":2,
			"type":"VEC3"
		},
		{
			"bufferView":69,
			"componentType":5126,
			"count":2,
			"type":"VEC3"
		},
		{
			"bufferView":70,
			"componentType":5126,
			"count":30,
			"type":"VEC4"
		},
		{
			"bufferView":71,
			"componentType":5126,
			"count":2,
			"type":"VEC3"
		},
		{
			"bufferView":72,
			"componentType":5126,
			"count":2,
			"type":"VEC3"
		},
		{
			"bufferView":73,
			"componentType":5126,
			"count":30,
			"type":"VEC4"
		},
		{
			"bufferView":74,
			"componentType":5126,
			"count":2,
			"type":"VEC3"
		},
		{
			"bufferView":75,
			"componentType":5126,
			"count":30,
			"type":"VEC4"
		},
		{
			"bufferView":76,
			"componentType":5126,
			"count":2,
			"type":"VEC3"
		},
		{
			"bufferView":77,
			"componentType":5126,
			"count":2,
			"type":"VEC3"
		},
		{
			"bufferView":78,
			"componentType":5126,
			"count":30,
			"type":"VEC4"
		},
		{
			"bufferView":79,
			"componentType":5126,
			"count":2,
			"type":"VEC3"
		},
		{
			"bufferView":80,
			"componentType":5126,
			"count":2,
			"type":"VEC3"
		},
		{
			"bufferView":81,
			"componentType":5126,
			"count":30,
			"type":"VEC4"
		},
		{
			"bufferView":82,
			"componentType":5126,
			"count":2,
			"type":"VEC3"
		},
		{
			"bufferView":83,
			"componentType":5126,
			"count":2,
			"type":"VEC3"
		},
		{
			"bufferView":84,
			"componentType":5126,
			"count":30,
			"type":"VEC4"
		},
		{
			"bufferView":85,
			"componentType":5126,
			"count":2,
			"type":"VEC3"
		},
		{
			"bufferView":86,
			"componentType":5126,
			"count":30,
			"type":"VEC4"
		},
		{
			"bufferView":87,
			"componentType":5126,
			"count":2,
			"type":"VEC3"
		},
		{
			"bufferView":88,
			"componentType":5126,
			"count":2,
			"max":[
				2.4166666666666665
			],
			"min":[
				0.041666666666666664
			],
			"type":"SCALAR"
		},
		{
			"bufferView":89,
			"componentType":5126,
			"count":2,
			"type":"VEC3"
		},
		{
			"bufferView":90,
			"componentType":5126,
			"count":2,
			"type":"VEC4"
		},
		{
			"bufferView":91,
			"componentType":5126,
			"count":2,
			"type":"VEC3"
		},
		{
			"bufferView":92,
			"componentType":5126,
			"count":2,
			"type":"VEC4"
		},
		{
			"bufferView":93,
			"componentType":5126,
			"count":58,
			"max":[
				2.4166666666666665
			],
			"min":[
				0.041666666666666664
			],
			"type":"SCALAR"
		},
		{
			"bufferView":94,
			"componentType":5126,
			"count":58,
			"type":"VEC3"
		},
		{
			"bufferView":95,
			"componentType":5126,
			"count":58,
			"type":"VEC3"
		},
		{
			"bufferView":96,
			"componentType":5126,
			"count":2,
			"type":"VEC4"
		},
		{
			"bufferView":97,
			"componentType":5126,
			"count":2,
			"type":"VEC4"
		},
		{
			"bufferView":98,
			"componentType":5126,
			"count":2,
			"type":"VEC4"
		},
		{
			"bufferView":99,
			"componentType":5126,
			"count":2,
			"type":"VEC4"
		},
		{
			"bufferView":100,
			"componentType":5126,
			"count":2,
			"type":"VEC4"
		},
		{
			"bufferView":101,
			"componentType":5126,
			"count":2,
			"type":"VEC4"
		},
		{
			"bufferView":102,
			"componentType":5126,
			"count":2,
			"type":"VEC4"
		},
		{
			"bufferView":103,
			"componentType":5126,
			"count":2,
			"type":"VEC4"
		},
		{
			"bufferView":104,
			"componentType":5126,
			"count":2,
			"type":"VEC3"
		},
		{
			"bufferView":105,
			"componentType":5126,
			"count":2,
			"type":"VEC3"
		},
		{
			"bufferView":106,
			"componentType":5126,
			"count":2,
			"type":"VEC3"
		},
		{
			"bufferView":107,
			"componentType":5126,
			"count":2,
			"type":"VEC4"
		},
		{
			"bufferView":108,
			"componentType":5126,
			"count":2,
			"type":"VEC3"
		},
		{
			"bufferView":109,
			"componentType":5126,
			"count":2,
			"type":"VEC4"
		},
		{
			"bufferView":110,
			"componentType":5126,
			"count":2,
			"type":"VEC3"
		},
		{
			"bufferView":111,
			"componentType":5126,
			"count":2,
			"type":"VEC3"
		},
		{
			"bufferView":112,
			"componentType":5126,
			"count":2,
			"type":"VEC4"
		},
		{
			"bufferView":113,
			"componentType":5126,
			"count":2,
			"type":"VEC3"
		},
		{
			"bufferView":114,
			"componentType":5126,
			"count":2,
			"type":"VEC4"
		},
		{
			"bufferView":115,
			"componentType":5126,
			"count":2,
			"type":"VEC3"
		},
		{
			"bufferView":116,
			"componentType":5126,
			"count":2,
			"type":"VEC3"
		},
		{
			"bufferView":117,
			"componentType":5126,
			"count":2,
			"type":"VEC4"
		},
		{
			"bufferView":118,
			"componentType":5126,
			"count":2,
			"type":"VEC3"
		},
		{
			"bufferView":119,
			"componentType":5126,
			"count":2,
			"type":"VEC3"
		},
		{
			"bufferView":120,
			"componentType":5126,
			"count":2,
			"type":"VEC4"
		},
		{
			"bufferView":121,
			"componentType":5126,
			"count":2,
			"type":"VEC3"
		},
		{
			"bufferView":122,
			"componentType":5126,
			"count":2,
			"type":"VEC3"
		},
		{
			"bufferView":123,
			"componentType":5126,
			"count":2,
			"type":"VEC4"
		},
		{
			"bufferView":124,
			"componentType":5126,
			"count":2,
			"type":"VEC3"
		},
		{
			"bufferView":125,
			"componentType":5126,
			"count":2,
			"type":"VEC4"
		},
		{
			"bufferView":126,
			"componentType":5126,
			"count":30,
			"type":"VEC3"
		},
		{
			"bufferView":127,
			"componentType":5126,
			"count":30,
			"type":"VEC4"
		},
		{
			"bufferView":128,
			"componentType":5126,
			"count":2,
			"type":"VEC3"
		},
		{
			"bufferView":129,
			"componentType":5126,
			"count":2,
			"max":[
				2.375
			],
			"min":[
				0
			],
			"type":"SCALAR"
		},
		{
			"bufferView":130,
			"componentType":5126,
			"count":2,
			"type":"VEC3"
		},
		{
			"bufferView":131,
			"componentType":5126,
			"count":2,
			"type":"VEC4"
		},
		{
			"bufferView":132,
			"componentType":5126,
			"count":2,
			"type":"VEC3"
		}
	],
	"bufferViews":[
		{
			"buffer":0,
			"byteLength":11904,
			"byteOffset":0,
			"target":34962
		},
		{
			"buffer":0,
			"byteLength":11904,
			"byteOffset":11904,
			"target":34962
		},
		{
			"buffer":0,
			"byteLength":7936,
			"byteOffset":23808,
			"target":34962
		},
		{
			"buffer":0,
			"byteLength":3968,
			"byteOffset":31744,
			"target":34962
		},
		{
			"buffer":0,
			"byteLength":15872,
			"byteOffset":35712,
			"target":34962
		},
		{
			"buffer":0,
			"byteLength":9804,
			"byteOffset":51584,
			"target":34963
		},
		{
			"buffer":0,
			"byteLength":1728,
			"byteOffset":61388
		},
		{
			"buffer":0,
			"byteLength":3720,
			"byteOffset":63116,
			"target":34962
		},
		{
			"buffer":0,
			"byteLength":3720,
			"byteOffset":66836,
			"target":34962
		},
		{
			"buffer":0,
			"byteLength":2480,
			"byteOffset":70556,
			"target":34962
		},
		{
			"buffer":0,
			"byteLength":1344,
			"byteOffset":73036,
			"target":34963
		},
		{
			"buffer":0,
			"byteLength":120,
			"byteOffset":74380
		},
		{
			"buffer":0,
			"byteLength":360,
			"byteOffset":74500
		},
		{
			"buffer":0,
			"byteLength":480,
			"byteOffset":74860
		},
		{
			"buffer":0,
			"byteLength":8,
			"byteOffset":75340
		},
		{
			"buffer":0,
			"byteLength":24,
			"byteOffset":75348
		},
		{
			"buffer":0,
			"byteLength":24,
			"byteOffset":75372
		},
		{
			"buffer":0,
			"byteLength":32,
			"byteOffset":75396
		},
		{
			"buffer":0,
			"byteLength":24,
			"byteOffset":75428
		},
		{
			"buffer":0,
			"byteLength":24,
			"byteOffset":75452
		},
		{
			"buffer":0,
			"byteLength":32,
			"byteOffset":75476
		},
		{
			"buffer":0,
			"byteLength":24,
			"byteOffset":75508
		},
		{
			"buffer":0,
			"byteLength":24,
			"byteOffset":75532
		},
		{
			"buffer":0,
			"byteLength":32,
			"byteOffset":75556
		},
		{
			"buffer":0,
			"byteLength":24,
			"byteOffset":75588
		},
		{
			"buffer":0,
			"byteLength":360,
			"byteOffset":75612
		},
		{
			"buffer":0,
			"byteLength":480,
			"byteOffset":75972
		},
		{
			"buffer":0,
			"byteLength":24,
			"byteOffset":76452
		},
		{
			"buffer":0,
			"byteLength":32,
			"byteOffset":76476
		},
		{
			"buffer":0,
			"byteLength":24,
			"byteOffset":76508
		},
		{
			"buffer":0,
			"byteLength":24,
			"byteOffset":76532
		},
		{
			"buffer":0,
			"byteLength":32,
			"byteOffset":76556
		},
		{
			"buffer":0,
			"byteLength":24,
			"byteOffset":76588
		},
		{
			"buffer":0,
			"byteLength":24,
			"byteOffset":76612
		},
		{
			"buffer":0,
			"byteLength":32,
			"byteOffset":76636
		},
		{
			"buffer":0,
			"byteLength":24,
			"byteOffset":76668
		},
		{
			"buffer":0,
			"byteLength":24,
			"byteOffset":76692
		},
		{
			"buffer":0,
			"byteLength":32,
			"byteOffset":76716
		},
		{
			"buffer":0,
			"byteLength":24,
			"byteOffset":76748
		},
		{
			"buffer":0,
			"byteLength":24,
			"byteOffset":76772
		},
		{
			"buffer":0,
			"byteLength":480,
			"byteOffset":76796
		},
		{
			"buffer":0,
			"byteLength":24,
			"byteOffset":77276
		},
		{
			"buffer":0,
			"byteLength":480,
			"byteOffset":77300
		},
		{
			"buffer":0,
			"byteLength":24,
			"byteOffset":77780
		},
		{
			"buffer":0,
			"byteLength":24,
			"byteOffset":77804
		},
		{
			"buffer":0,
			"byteLength":480,
			"byteOffset":77828
		},
		{
			"buffer":0,
			"byteLength":24,
			"byteOffset":78308
		},
		{
			"buffer":0,
			"byteLength":24,
			"byteOffset":78332
		},
		{
			"buffer":0,
			"byteLength":480,
			"byteOffset":78356
		},
		{
			"buffer":0,
			"byteLength":24,
			"byteOffset":78836
		},
		{
			"buffer":0,
			"byteLength":24,
			"byteOffset":78860
		},
		{
			"buffer":0,
			"byteLength":480,
			"byteOffset":78884
		},
		{
			"buffer":0,
			"byteLength":24,
			"byteOffset":79364
		},
		{
			"buffer":0,
			"byteLength":24,
			"byteOffset":79388
		},
		{
			"buffer":0,
			"byteLength":480,
			"byteOffset":79412
		},
		{
			"buffer":0,
			"byteLength":24,
			"byteOffset":79892
		},
		{
			"buffer":0,
			"byteLength":480,
			"byteOffset":79916
		},
		{
			"buffer":0,
			"byteLength":24,
			"byteOffset":80396
		},
		{
			"buffer":0,
			"byteLength":24,
			"byteOffset":80420
		},
		{
			"buffer":0,
			"byteLength":480,
			"byteOffset":80444
		},
		{
			"buffer":0,
			"byteLength":24,
			"byteOffset":80924
		},
		{
			"buffer":0,
			"byteLength":32,
			"byteOffset":80948
		},
		{
			"buffer":0,
			"byteLength":24,
			"byteOffset":80980
		},
		{
			"buffer":0,
			"byteLength":24,
			"byteOffset":81004
		},
		{
			"buffer":0,
			"byteLength":32,
			"byteOffset":81028
		},
		{
			"buffer":0,
			"byteLength":24,
			"byteOffset":81060
		},
		{
			"buffer":0,
			"byteLength":24,
			"byteOffset":81084
		},
		{
			"buffer":0,
			"byteLength":480,
			"byteOffset":81108
		},
		{
			"buffer":0,
			"byteLength":24,
			"byteOffset":81588
		},
		{
			"buffer":0,
			"byteLength":24,
			"byteOffset":81612
		},
		{
			"buffer":0,
			"byteLength":480,
			"byteOffset":81636
		},
		{
			"buffer":0,
			"byteLength":24,
			"byteOffset":82116
		},
		{
			"buffer":0,
			"byteLength":24,
			"byteOffset":82140
		},
		{
			"buffer":0,
			"byteLength":480,
			"byteOffset":82164
		},
		{
			"buffer":0,
			"byteLength":24,
			"byteOffset":82644
		},
		{
			"buffer":0,
			"byteLength":480,
			"byteOffset":82668
		},
		{
			"buffer":0,
			"byteLength":24,
			"byteOffset":83148
		},
		{
			"buffer":0,
			"byteLength":24,
			"byteOffset":83172
		},
		{
			"buffer":0,
			"byteLength":480,
			"byteOffset":83196
		},
		{
			"buffer":0,
			"byteLength":24,
			"byteOffset":83676
		},
		{
			"buffer":0,
			"byteLength":24,
			"byteOffset":83700
		},
		{
			"buffer":0,
			"byteLength":480,
			"byteOffset":83724
		},
		{
			"buffer":0,
			"byteLength":24,
			"byteOffset":84204
		},
		{
			"buffer":0,
			"byteLength":24,
			"byteOffset":84228
		},
		{
			"buffer":0,
			"byteLength":480,
			"byteOffset":84252
		},
		{
			"buffer":0,
			"byteLength":24,
			"byteOffset":84732
		},
		{
			"buffer":0,
			"byteLength":480,
			"byteOffset":84756
		},
		{
			"buffer":0,
			"byteLength":24,
			"byteOffset":85236
		},
		{
			"buffer":0,
			"byteLength":8,
			"byteOffset":85260
		},
		{
			"buffer":0,
			"byteLength":24,
			"byteOffset":85268
		},
		{
			"buffer":0,
			"byteLength":32,
			"byteOffset":85292
		},
		{
			"buffer":0,
			"byteLength":24,
			"byteOffset":85324
		},
		{
			"buffer":0,
			"byteLength":32,
			"byteOffset":85348
		},
		{
			"buffer":0,
			"byteLength":232,
			"byteOffset":85380
		},
		{
			"buffer":0,
			"byteLength":696,
			"byteOffset":85612
		},
		{
			"buffer":0,
			"byteLength":696,
			"byteOffset":86308
		},
		{
			"buffer":0,
			"byteLength":32,
			"byteOffset":87004
		},
		{
			"buffer":0,
			"byteLength":32,
			"byteOffset":87036
		},
		{
			"buffer":0,
			"byteLength":32,
			"byteOffset":87068
		},
		{
			"buffer":0,
			"byteLength":32,
			"byteOffset":87100
		},
		{
			"buffer":0,
			"byteLength":32,
			"byteOffset":87132
		},
		{
			"buffer":0,
			"byteLength":32,
			"byteOffset":87164
		},
		{
			"buffer":0,
			"byteLength":32,
			"byteOffset":87196
		},
		{
			"buffer":0,
			"byteLength":32,
			"byteOffset":87228
		},
		{
			"buffer":0,
			"byteLength":24,
			"byteOffset":87260
		},
		{
			"buffer":0,
			"byteLength":24,
			"byteOffset":87284
		},
		{
			"buffer":0,
			"byteLength":24,
			"byteOffset":87308
		},
		{
			"buffer":0,
			"byteLength":32,
			"byteOffset":87332
		},
		{
			"buffer":0,
			"byteLength":24,
			"byteOffset":87364
		},
		{
			"buffer":0,
			"byteLength":32,
			"byteOffset":87388
		},
		{
			"buffer":0,
			"byteLength":24,
			"byteOffset":87420
		},
		{
			"buffer":0,
			"byteLength":24,
			"byteOffset":87444
		},
		{
			"buffer":0,
			"byteLength":32,
			"byteOffset":87468
		},
		{
			"buffer":0,
			"byteLength":24,
			"byteOffset":87500
		},
		{
			"buffer":0,
			"byteLength":32,
			"byteOffset":87524
		},
		{
			"buffer":0,
			"byteLength":24,
			"byteOffset":87556
		},
		{
			"buffer":0,
			"byteLength":24,
			"byteOffset":87580
		},
		{
			"buffer":0,
			"byteLength":32,
			"byteOffset":87604
		},
		{
			"buffer":0,
			"byteLength":24,
			"byteOffset":87636
		},
		{
			"buffer":0,
			"byteLength":24,
			"byteOffset":87660
		},
		{
			"buffer":0,
			"byteLength":32,
			"byteOffset":87684
		},
		{
			"buffer":0,
			"byteLength":24,
			"byteOffset":87716
		},
		{
			"buffer":0,
			"byteLength":24,
			"byteOffset":87740
		},
		{
			"buffer":0,
			"byteLength":32,
			"byteOffset":87764
		},
		{
			"buffer":0,
			"byteLength":24,
			"byteOffset":87796
		},
		{
			"buffer":0,
			"byteLength":32,
			"byteOffset":87820
		},
		{
			"buffer":0,
			"byteLength":360,
			"byteOffset":87852
		},
		{
			"buffer":0,
			"byteLength":480,
			"byteOffset":88212
		},
		{
			"buffer":0,
			"byteLength":24,
			"byteOffset":88692
		},
		{
			"buffer":0,
			"byteLength":8,
			"byteOffset":88716
		},
		{
			"buffer":0,
			"byteLength":24,
			"byteOffset":88724
		},
		{
			"buffer":0,
			"byteLength":32,
			"byteOffset":88748
		},
		{
			"buffer":0,
			"byteLength":24,
			"byteOffset":88780
		}
	],
	"samplers":[
		{
			"magFilter":9729,
			"minFilter":9987
		}
	],
	"buffers":[
		{
			"byteLength":88804,
			"uri":"Frog_Hop_Idle_Gear.bin"
		}
	]
}
