# This file uses centimeters as units for non-parametric coordinates.

mtllib Gear.mtl
g default
v -2.754774 8.725450 9.255851
v -2.479297 8.725450 10.314034
v -1.377388 8.725450 11.372219
v 1.377385 8.725450 11.372219
v 2.479295 8.725450 10.314034
v 2.754772 8.725450 9.255851
v 5.736335 8.725450 7.820004
v 6.735414 8.725450 8.264396
v 8.249764 8.725450 8.062654
v 9.967338 8.725450 5.908887
v 9.827046 8.725450 4.387613
v 9.171481 8.725450 3.512470
v 9.907866 8.725450 0.286154
v 10.878220 8.725450 -0.217884
v 11.664676 8.725450 -1.527634
v 11.051682 8.725450 -4.213340
v 9.774831 8.725450 -5.052154
v 8.681878 8.725450 -5.085256
v 6.618571 8.725450 -7.672560
v 6.829504 8.725450 -8.745475
v 6.295847 8.725450 -10.176967
v 3.813883 8.725450 -11.372217
v 2.361969 8.725450 -10.896927
v 1.654643 8.725450 -10.063062
v -1.654642 8.725450 -10.063062
v -2.361967 8.725450 -10.896928
v -3.813882 8.725450 -11.372219
v -6.295846 8.725450 -10.176968
v -6.829504 8.725450 -8.745477
v -6.618571 8.725450 -7.672561
v -8.681876 8.725450 -5.085257
v -9.774829 8.725450 -5.052155
v -11.051680 8.725450 -4.213340
v -11.664676 8.725450 -1.527634
v -10.878219 8.725450 -0.217884
v -9.907866 8.725450 0.286155
v -9.171480 8.725450 3.512470
v -9.827044 8.725450 4.387614
v -9.967338 8.725450 5.908888
v -8.249765 8.725450 8.062655
v -6.735416 8.725450 8.264396
v -5.736337 8.725450 7.820004
v -2.754774 0.000000 9.255851
v -2.479297 0.000000 10.314034
v -1.377388 0.000000 11.372219
v 1.377385 0.000000 11.372219
v 2.479295 0.000000 10.314034
v 2.754772 0.000000 9.255851
v 5.736335 0.000000 7.820004
v 6.735414 0.000000 8.264396
v 8.249764 0.000000 8.062654
v 9.967338 0.000000 5.908887
v 9.827046 0.000000 4.387613
v 9.171481 0.000000 3.512470
v 9.907866 0.000000 0.286154
v 10.878220 0.000000 -0.217884
v 11.664676 0.000000 -1.527634
v 11.051682 0.000000 -4.213340
v 9.774831 0.000000 -5.052154
v 8.681878 0.000000 -5.085256
v 6.618571 0.000000 -7.672560
v 6.829504 0.000000 -8.745475
v 6.295847 0.000000 -10.176967
v 3.813883 0.000000 -11.372217
v 2.361969 0.000000 -10.896927
v 1.654643 0.000000 -10.063062
v -1.654642 0.000000 -10.063062
v -2.361967 0.000000 -10.896928
v -3.813882 0.000000 -11.372219
v -6.295846 0.000000 -10.176968
v -6.829504 0.000000 -8.745477
v -6.618571 0.000000 -7.672561
v -8.681876 0.000000 -5.085257
v -9.774829 0.000000 -5.052155
v -11.051680 0.000000 -4.213340
v -11.664676 0.000000 -1.527634
v -10.878219 0.000000 -0.217884
v -9.907866 0.000000 0.286155
v -9.171480 0.000000 3.512470
v -9.827044 0.000000 4.387614
v -9.967338 0.000000 5.908888
v -8.249765 0.000000 8.062655
v -6.735416 0.000000 8.264396
v -5.736337 0.000000 7.820004
v -0.706404 8.725450 2.816902
v 0.706404 8.725450 2.816902
v 1.979301 8.725450 2.203907
v 2.860172 8.725450 1.099329
v 3.174552 8.725450 -0.278057
v 2.860172 8.725450 -1.655443
v 1.979300 8.725450 -2.760022
v 0.706404 8.725450 -3.373016
v -0.706404 8.725450 -3.373016
v -1.979301 8.725450 -2.760021
v -2.860172 8.725450 -1.655444
v -3.174552 8.725450 -0.278057
v -2.860172 8.725450 1.099330
v -1.979301 8.725450 2.203907
v -0.706404 0.000000 2.816902
v 0.706404 0.000000 2.816902
v 1.979301 0.000000 2.203907
v 2.860172 0.000000 1.099329
v 3.174552 0.000000 -0.278057
v 2.860172 0.000000 -1.655443
v 1.979300 0.000000 -2.760022
v 0.706404 0.000000 -3.373016
v -0.706404 0.000000 -3.373016
v -1.979301 0.000000 -2.760021
v -2.860172 0.000000 -1.655444
v -3.174552 0.000000 -0.278057
v -2.860172 0.000000 1.099330
v -1.979301 0.000000 2.203907
vt 0.268147 0.196335
vt 0.281821 0.196750
vt 0.297797 0.207245
vt 0.305466 0.240847
vt 0.295626 0.257234
vt 0.283486 0.263541
vt 0.274272 0.303907
vt 0.282474 0.314857
vt 0.284230 0.333890
vt 0.262740 0.360837
vt 0.243793 0.363362
vt 0.231293 0.357802
vt 0.193989 0.375766
vt 0.190542 0.389006
vt 0.176755 0.402246
vt 0.142289 0.402246
vt 0.128502 0.389006
vt 0.125055 0.375766
vt 0.087751 0.357802
vt 0.075251 0.363362
vt 0.056304 0.360838
vt 0.034814 0.333890
vt 0.036569 0.314857
vt 0.044772 0.303907
vt 0.035558 0.263541
vt 0.023417 0.257234
vt 0.013578 0.240847
vt 0.021247 0.207245
vt 0.037223 0.196750
vt 0.050897 0.196335
vt 0.076713 0.163964
vt 0.074074 0.150540
vt 0.080750 0.132630
vt 0.111804 0.117675
vt 0.129970 0.123622
vt 0.138820 0.134055
vt 0.180224 0.134055
vt 0.189074 0.123622
vt 0.207240 0.117675
vt 0.238293 0.132630
vt 0.244970 0.150540
vt 0.242331 0.163964
vt 0.995117 0.004883
vt 0.981436 0.004883
vt 0.962322 0.004883
vt 0.927855 0.004883
vt 0.908741 0.004883
vt 0.895060 0.004883
vt 0.853655 0.004883
vt 0.839974 0.004883
vt 0.820860 0.004883
vt 0.786393 0.004883
vt 0.767279 0.004883
vt 0.753598 0.004883
vt 0.712193 0.004883
vt 0.698512 0.004883
vt 0.679398 0.004883
vt 0.644931 0.004883
vt 0.625817 0.004883
vt 0.612136 0.004883
vt 0.570731 0.004883
vt 0.557050 0.004883
vt 0.537936 0.004883
vt 0.503469 0.004883
vt 0.484355 0.004883
vt 0.470674 0.004883
vt 0.429269 0.004883
vt 0.415588 0.004883
vt 0.396474 0.004883
vt 0.362007 0.004883
vt 0.342892 0.004883
vt 0.329212 0.004883
vt 0.287807 0.004883
vt 0.274126 0.004883
vt 0.255012 0.004883
vt 0.220545 0.004883
vt 0.201430 0.004883
vt 0.187749 0.004883
vt 0.146345 0.004883
vt 0.132664 0.004883
vt 0.113550 0.004883
vt 0.079083 0.004883
vt 0.059968 0.004883
vt 0.046287 0.004883
vt 0.995117 0.114053
vt 0.981436 0.114053
vt 0.962322 0.114053
vt 0.927855 0.114053
vt 0.908741 0.114053
vt 0.895060 0.114053
vt 0.853655 0.114053
vt 0.839974 0.114053
vt 0.820860 0.114053
vt 0.786393 0.114053
vt 0.767279 0.114053
vt 0.753598 0.114053
vt 0.712193 0.114053
vt 0.698512 0.114053
vt 0.679398 0.114053
vt 0.644931 0.114053
vt 0.625817 0.114053
vt 0.612136 0.114053
vt 0.570731 0.114053
vt 0.557050 0.114053
vt 0.537936 0.114053
vt 0.503469 0.114053
vt 0.484355 0.114053
vt 0.470674 0.114053
vt 0.429269 0.114053
vt 0.415588 0.114053
vt 0.396474 0.114053
vt 0.362007 0.114053
vt 0.342892 0.114053
vt 0.329212 0.114053
vt 0.287807 0.114053
vt 0.274126 0.114053
vt 0.255012 0.114053
vt 0.220545 0.114053
vt 0.201430 0.114053
vt 0.187750 0.114053
vt 0.146345 0.114053
vt 0.132664 0.114053
vt 0.113550 0.114053
vt 0.079083 0.114053
vt 0.059968 0.114053
vt 0.046287 0.114053
vt 0.004883 0.114053
vt 0.004883 0.004883
vt 0.578259 0.323586
vt 0.591933 0.323171
vt 0.607909 0.312676
vt 0.615578 0.279074
vt 0.605739 0.262687
vt 0.593598 0.256380
vt 0.584384 0.216014
vt 0.592587 0.205064
vt 0.594342 0.186031
vt 0.572852 0.159084
vt 0.553905 0.156559
vt 0.541405 0.162119
vt 0.504101 0.144155
vt 0.500654 0.130915
vt 0.486867 0.117675
vt 0.452401 0.117675
vt 0.438614 0.130915
vt 0.435167 0.144155
vt 0.397863 0.162119
vt 0.385363 0.156559
vt 0.366416 0.159084
vt 0.344926 0.186031
vt 0.346682 0.205064
vt 0.354884 0.216014
vt 0.345670 0.256380
vt 0.333530 0.262687
vt 0.323690 0.279074
vt 0.331359 0.312677
vt 0.347335 0.323171
vt 0.361009 0.323586
vt 0.386825 0.355957
vt 0.384186 0.369381
vt 0.390863 0.387291
vt 0.421916 0.402246
vt 0.440082 0.396299
vt 0.448932 0.385866
vt 0.490336 0.385866
vt 0.499186 0.396299
vt 0.517352 0.402246
vt 0.548406 0.387291
vt 0.555082 0.369381
vt 0.552443 0.355957
vt 0.648293 0.117675
vt 0.665970 0.117675
vt 0.683646 0.117675
vt 0.701323 0.117675
vt 0.718999 0.117675
vt 0.736676 0.117675
vt 0.754353 0.117675
vt 0.772029 0.117675
vt 0.789706 0.117675
vt 0.807382 0.117675
vt 0.825059 0.117675
vt 0.842735 0.117675
vt 0.860412 0.117675
vt 0.878088 0.117675
vt 0.648293 0.226845
vt 0.665970 0.226845
vt 0.683646 0.226845
vt 0.701323 0.226845
vt 0.718999 0.226845
vt 0.736676 0.226845
vt 0.754353 0.226845
vt 0.772029 0.226845
vt 0.789706 0.226845
vt 0.807382 0.226845
vt 0.825059 0.226845
vt 0.842735 0.226845
vt 0.860412 0.226845
vt 0.878088 0.226845
vt 0.895765 0.117675
vt 0.895765 0.226845
vt 0.195307 0.239248
vt 0.199241 0.256481
vt 0.195307 0.273715
vt 0.184286 0.287535
vt 0.168360 0.295204
vt 0.150684 0.295204
vt 0.134758 0.287535
vt 0.123736 0.273715
vt 0.119803 0.256481
vt 0.123736 0.239248
vt 0.134758 0.225428
vt 0.150684 0.217758
vt 0.168360 0.217758
vt 0.184286 0.225428
vt 0.505420 0.280673
vt 0.509353 0.263440
vt 0.505420 0.246206
vt 0.494398 0.232386
vt 0.478472 0.224717
vt 0.460796 0.224717
vt 0.444870 0.232386
vt 0.433849 0.246206
vt 0.429915 0.263440
vt 0.433849 0.280673
vt 0.444870 0.294493
vt 0.460796 0.302163
vt 0.478472 0.302163
vt 0.494398 0.294493
vn 0.000000 1.000000 -0.000000
vn 0.000000 1.000000 0.000000
vn 0.000000 1.000000 0.000000
vn 0.000000 1.000000 -0.000000
vn 0.000000 1.000000 0.000000
vn 0.000000 1.000000 0.000000
vn 0.000000 1.000000 0.000000
vn 0.000000 1.000000 0.000001
vn 0.000000 1.000000 0.000001
vn 0.000000 1.000000 -0.000000
vn 0.000000 1.000000 0.000000
vn 0.000000 1.000000 0.000000
vn 0.000000 1.000000 -0.000000
vn 0.000000 1.000000 0.000000
vn 0.000000 1.000000 0.000000
vn 0.000000 1.000000 -0.000000
vn 0.000000 1.000000 0.000000
vn 0.000000 1.000000 0.000000
vn 0.000000 1.000000 -0.000000
vn 0.000000 1.000000 0.000000
vn 0.000000 1.000000 0.000000
vn 0.000000 1.000000 -0.000000
vn 0.000000 1.000000 0.000000
vn 0.000000 1.000000 0.000000
vn 0.000000 1.000000 -0.000000
vn 0.000000 1.000000 0.000000
vn 0.000000 1.000000 0.000000
vn 0.000000 1.000000 -0.000000
vn 0.000000 1.000000 0.000000
vn 0.000000 1.000000 0.000000
vn 0.000000 1.000000 -0.000000
vn 0.000000 1.000000 -0.000000
vn 0.000000 1.000000 -0.000000
vn 0.000000 1.000000 -0.000000
vn 0.000000 1.000000 0.000000
vn 0.000000 1.000000 0.000000
vn 0.000000 1.000000 -0.000000
vn 0.000000 1.000000 0.000000
vn 0.000000 1.000000 0.000000
vn 0.000000 1.000000 -0.000000
vn 0.000000 1.000000 0.000000
vn 0.000000 1.000000 0.000000
vn -0.967745 0.000000 0.251933
vn -0.967745 0.000000 0.251933
vn -0.967745 0.000000 0.251933
vn -0.967745 0.000000 0.251933
vn -0.692652 0.000000 0.721272
vn -0.692652 0.000000 0.721272
vn -0.692652 0.000000 0.721272
vn -0.692652 0.000000 0.721272
vn 0.000000 0.000000 1.000000
vn 0.000000 0.000000 1.000000
vn 0.000000 0.000000 1.000000
vn 0.000000 0.000000 1.000000
vn 0.692651 0.000000 0.721273
vn 0.692651 0.000000 0.721273
vn 0.692651 0.000000 0.721273
vn 0.692651 0.000000 0.721273
vn 0.967745 0.000000 0.251933
vn 0.967745 0.000000 0.251933
vn 0.967745 0.000000 0.251933
vn 0.967745 0.000000 0.251933
vn 0.433884 0.000000 0.900969
vn 0.433884 0.000000 0.900969
vn 0.433884 0.000000 0.900969
vn 0.433884 0.000000 0.900969
vn -0.406410 0.000000 0.913691
vn -0.406410 0.000000 0.913691
vn -0.406410 0.000000 0.913691
vn -0.406410 0.000000 0.913691
vn 0.132053 0.000000 0.991243
vn 0.132053 0.000000 0.991243
vn 0.132053 0.000000 0.991243
vn 0.132053 0.000000 0.991243
vn 0.781831 0.000000 0.623490
vn 0.781831 0.000000 0.623490
vn 0.781831 0.000000 0.623490
vn 0.781831 0.000000 0.623490
vn 0.995775 0.000000 -0.091830
vn 0.995775 0.000000 -0.091830
vn 0.995775 0.000000 -0.091830
vn 0.995775 0.000000 -0.091830
vn 0.800348 0.000000 -0.599536
vn 0.800348 0.000000 -0.599536
vn 0.800348 0.000000 -0.599536
vn 0.800348 0.000000 -0.599536
vn 0.974928 0.000000 0.222521
vn 0.974928 0.000000 0.222521
vn 0.974928 0.000000 0.222521
vn 0.974928 0.000000 0.222521
vn 0.460960 0.000000 0.887421
vn 0.460960 0.000000 0.887421
vn 0.460960 0.000000 0.887421
vn 0.460960 0.000000 0.887421
vn 0.857318 0.000000 0.514787
vn 0.857318 0.000000 0.514787
vn 0.857318 0.000000 0.514787
vn 0.857318 0.000000 0.514787
vn 0.974928 0.000000 -0.222520
vn 0.974928 0.000000 -0.222520
vn 0.974928 0.000000 -0.222520
vn 0.974928 0.000000 -0.222520
vn 0.549059 0.000000 -0.835783
vn 0.549059 0.000000 -0.835783
vn 0.549059 0.000000 -0.835783
vn 0.549059 0.000000 -0.835783
vn 0.030273 0.000000 -0.999542
vn 0.030273 0.000000 -0.999542
vn 0.030273 0.000000 -0.999542
vn 0.030273 0.000000 -0.999542
vn 0.781831 0.000000 -0.623490
vn 0.781831 0.000000 -0.623490
vn 0.781831 0.000000 -0.623490
vn 0.781831 0.000000 -0.623490
vn 0.981218 0.000000 0.192905
vn 0.981218 0.000000 0.192905
vn 0.981218 0.000000 0.192905
vn 0.981218 0.000000 0.192905
vn 0.937006 0.000000 -0.349313
vn 0.937006 0.000000 -0.349313
vn 0.937006 0.000000 -0.349313
vn 0.937006 0.000000 -0.349313
vn 0.433884 0.000000 -0.900969
vn 0.433884 0.000000 -0.900969
vn 0.433884 0.000000 -0.900969
vn 0.433884 0.000000 -0.900969
vn -0.311109 0.000000 -0.950374
vn -0.311109 0.000000 -0.950374
vn -0.311109 0.000000 -0.950374
vn -0.311109 0.000000 -0.950374
vn -0.762598 0.000000 -0.646873
vn -0.762598 0.000000 -0.646873
vn -0.762598 0.000000 -0.646873
vn -0.762598 0.000000 -0.646873
vn 0.000000 0.000000 -1.000000
vn 0.000000 0.000000 -1.000000
vn 0.000000 0.000000 -1.000000
vn 0.000000 0.000000 -1.000000
vn 0.762598 0.000000 -0.646872
vn 0.762598 0.000000 -0.646872
vn 0.762598 0.000000 -0.646872
vn 0.762598 0.000000 -0.646872
vn 0.311109 0.000000 -0.950374
vn 0.311109 0.000000 -0.950374
vn 0.311109 0.000000 -0.950374
vn 0.311109 0.000000 -0.950374
vn -0.433884 0.000000 -0.900969
vn -0.433884 0.000000 -0.900969
vn -0.433884 0.000000 -0.900969
vn -0.433884 0.000000 -0.900969
vn -0.937006 0.000000 -0.349314
vn -0.937006 0.000000 -0.349314
vn -0.937006 0.000000 -0.349314
vn -0.937006 0.000000 -0.349314
vn -0.981217 0.000000 0.192905
vn -0.981217 0.000000 0.192905
vn -0.981217 0.000000 0.192905
vn -0.981217 0.000000 0.192905
vn -0.781832 0.000000 -0.623490
vn -0.781832 0.000000 -0.623490
vn -0.781832 0.000000 -0.623490
vn -0.781832 0.000000 -0.623490
vn -0.030273 0.000000 -0.999542
vn -0.030273 0.000000 -0.999542
vn -0.030273 0.000000 -0.999542
vn -0.030273 0.000000 -0.999542
vn -0.549060 0.000000 -0.835783
vn -0.549060 0.000000 -0.835783
vn -0.549060 0.000000 -0.835783
vn -0.549060 0.000000 -0.835783
vn -0.974928 0.000000 -0.222521
vn -0.974928 0.000000 -0.222521
vn -0.974928 0.000000 -0.222521
vn -0.974928 0.000000 -0.222521
vn -0.857318 0.000000 0.514788
vn -0.857318 0.000000 0.514788
vn -0.857318 0.000000 0.514788
vn -0.857318 0.000000 0.514788
vn -0.460960 0.000000 0.887421
vn -0.460960 0.000000 0.887421
vn -0.460960 0.000000 0.887421
vn -0.460960 0.000000 0.887421
vn -0.974928 0.000000 0.222521
vn -0.974928 0.000000 0.222521
vn -0.974928 0.000000 0.222521
vn -0.974928 0.000000 0.222521
vn -0.800348 0.000000 -0.599536
vn -0.800348 0.000000 -0.599536
vn -0.800348 0.000000 -0.599536
vn -0.800348 0.000000 -0.599536
vn -0.995775 0.000000 -0.091831
vn -0.995775 0.000000 -0.091831
vn -0.995775 0.000000 -0.091831
vn -0.995775 0.000000 -0.091831
vn -0.781832 0.000000 0.623490
vn -0.781832 0.000000 0.623490
vn -0.781832 0.000000 0.623490
vn -0.781832 0.000000 0.623490
vn -0.132052 0.000000 0.991243
vn -0.132052 0.000000 0.991243
vn -0.132052 0.000000 0.991243
vn -0.132052 0.000000 0.991243
vn 0.406410 0.000000 0.913691
vn 0.406410 0.000000 0.913691
vn 0.406410 0.000000 0.913691
vn 0.406410 0.000000 0.913691
vn -0.433884 0.000000 0.900969
vn -0.433884 0.000000 0.900969
vn -0.433884 0.000000 0.900969
vn -0.433884 0.000000 0.900969
vn 0.000000 -1.000000 0.000000
vn 0.000000 -1.000000 0.000000
vn 0.000000 -1.000000 0.000000
vn 0.000000 -1.000000 0.000000
vn 0.000000 -1.000000 0.000000
vn 0.000000 -1.000000 0.000000
vn 0.000000 -1.000000 0.000000
vn 0.000000 -1.000000 0.000000
vn 0.000000 -1.000000 0.000000
vn 0.000000 -1.000000 0.000000
vn 0.000000 -1.000000 0.000000
vn 0.000000 -1.000000 0.000000
vn 0.000000 -1.000000 0.000000
vn 0.000000 -1.000000 0.000000
vn 0.000000 -1.000000 0.000000
vn 0.000000 -1.000000 0.000000
vn 0.000000 -1.000000 0.000000
vn 0.000000 -1.000000 0.000000
vn 0.000000 -1.000000 0.000000
vn 0.000000 -1.000000 0.000000
vn 0.000000 -1.000000 0.000000
vn 0.000000 -1.000000 0.000000
vn 0.000000 -1.000000 0.000000
vn 0.000000 -1.000000 0.000000
vn 0.000000 -1.000000 0.000000
vn 0.000000 -1.000000 0.000000
vn 0.000000 -1.000000 0.000000
vn 0.000000 -1.000000 0.000000
vn 0.000000 -1.000000 0.000000
vn 0.000000 -1.000000 0.000000
vn 0.000000 -1.000000 0.000000
vn 0.000000 -1.000000 0.000000
vn 0.000000 -1.000000 0.000000
vn 0.000000 -1.000000 0.000000
vn 0.000000 -1.000000 0.000000
vn 0.000000 -1.000000 0.000000
vn 0.000000 -1.000000 0.000000
vn 0.000000 -1.000000 0.000000
vn 0.000000 -1.000000 0.000000
vn 0.000000 -1.000000 0.000000
vn 0.000000 -1.000000 0.000000
vn 0.000000 -1.000000 0.000000
vn 0.222521 0.000000 -0.974928
vn -0.222521 0.000000 -0.974928
vn -0.222521 0.000000 -0.974928
vn 0.222521 0.000000 -0.974928
vn -0.623490 0.000000 -0.781832
vn -0.623490 0.000000 -0.781832
vn -0.900969 0.000000 -0.433884
vn -0.900969 0.000000 -0.433884
vn -1.000000 0.000000 0.000000
vn -1.000000 0.000000 0.000000
vn -0.900969 0.000000 0.433884
vn -0.900969 0.000000 0.433884
vn -0.623490 0.000000 0.781832
vn -0.623490 0.000000 0.781832
vn -0.222521 0.000000 0.974928
vn -0.222521 0.000000 0.974928
vn 0.222521 0.000000 0.974928
vn 0.222521 0.000000 0.974928
vn 0.623490 0.000000 0.781832
vn 0.623490 0.000000 0.781832
vn 0.900969 0.000000 0.433884
vn 0.900969 0.000000 0.433884
vn 1.000000 0.000000 -0.000000
vn 1.000000 0.000000 -0.000000
vn 0.900969 0.000000 -0.433884
vn 0.900969 0.000000 -0.433884
vn 0.623490 0.000000 -0.781832
vn 0.623490 0.000000 -0.781832
vn 0.000000 1.000000 -0.000000
vn 0.000000 1.000000 -0.000000
vn 0.000000 1.000000 -0.000000
vn 0.000000 -1.000000 0.000000
vn 0.000000 -1.000000 0.000000
vn 0.000000 -1.000000 0.000000
vn 0.000000 1.000000 -0.000000
vn 0.000000 1.000000 0.000000
vn 0.000000 -1.000000 0.000000
vn 0.000000 -1.000000 0.000000
vn 0.000000 1.000000 -0.000000
vn 0.000000 1.000000 -0.000000
vn 0.000000 -1.000000 0.000000
vn 0.000000 -1.000000 0.000000
vn 0.000000 1.000000 -0.000000
vn 0.000000 1.000000 -0.000000
vn 0.000000 -1.000000 0.000000
vn 0.000000 -1.000000 0.000000
vn 0.000000 1.000000 -0.000000
vn 0.000000 1.000000 0.000000
vn 0.000000 -1.000000 0.000000
vn 0.000000 -1.000000 0.000000
vn 0.000000 1.000000 0.000000
vn 0.000000 1.000000 -0.000000
vn 0.000000 -1.000000 0.000000
vn 0.000000 -1.000000 0.000000
vn 0.000000 1.000000 -0.000000
vn 0.000000 -1.000000 0.000000
s 1
g Gear
usemtl initialShadingGroup
f 1/1/1 2/2/2 5/5/3 6/6/4
f 2/2/2 3/3/5 4/4/6 5/5/3
f 7/7/7 8/8/8 11/11/9 12/12/10
f 8/8/8 9/9/11 10/10/12 11/11/9
f 13/13/13 14/14/14 17/17/15 18/18/16
f 14/14/14 15/15/17 16/16/18 17/17/15
f 19/19/19 20/20/20 23/23/21 24/24/22
f 20/20/20 21/21/23 22/22/24 23/23/21
f 25/25/25 26/26/26 29/29/27 30/30/28
f 26/26/26 27/27/29 28/28/30 29/29/27
f 31/31/31 32/32/32 35/35/33 36/36/34
f 32/32/32 33/33/35 34/34/36 35/35/33
f 37/37/37 38/38/38 41/41/39 42/42/40
f 38/38/38 39/39/41 40/40/42 41/41/39
s off
f 1/43/43 43/85/44 44/86/45 2/44/46
f 2/44/47 44/86/48 45/87/49 3/45/50
f 3/45/51 45/87/52 46/88/53 4/46/54
f 4/46/55 46/88/56 47/89/57 5/47/58
f 5/47/59 47/89/60 48/90/61 6/48/62
f 6/48/63 48/90/64 49/91/65 7/49/66
f 7/49/67 49/91/68 50/92/69 8/50/70
f 8/50/71 50/92/72 51/93/73 9/51/74
f 9/51/75 51/93/76 52/94/77 10/52/78
f 10/52/79 52/94/80 53/95/81 11/53/82
f 11/53/83 53/95/84 54/96/85 12/54/86
f 12/54/87 54/96/88 55/97/89 13/55/90
f 13/55/91 55/97/92 56/98/93 14/56/94
f 14/56/95 56/98/96 57/99/97 15/57/98
f 15/57/99 57/99/100 58/100/101 16/58/102
f 16/58/103 58/100/104 59/101/105 17/59/106
f 17/59/107 59/101/108 60/102/109 18/60/110
f 18/60/111 60/102/112 61/103/113 19/61/114
f 19/61/115 61/103/116 62/104/117 20/62/118
f 20/62/119 62/104/120 63/105/121 21/63/122
f 21/63/123 63/105/124 64/106/125 22/64/126
f 22/64/127 64/106/128 65/107/129 23/65/130
f 23/65/131 65/107/132 66/108/133 24/66/134
f 24/66/135 66/108/136 67/109/137 25/67/138
f 25/67/139 67/109/140 68/110/141 26/68/142
f 26/68/143 68/110/144 69/111/145 27/69/146
f 27/69/147 69/111/148 70/112/149 28/70/150
f 28/70/151 70/112/152 71/113/153 29/71/154
f 29/71/155 71/113/156 72/114/157 30/72/158
f 30/72/159 72/114/160 73/115/161 31/73/162
f 31/73/163 73/115/164 74/116/165 32/74/166
f 32/74/167 74/116/168 75/117/169 33/75/170
f 33/75/171 75/117/172 76/118/173 34/76/174
f 34/76/175 76/118/176 77/119/177 35/77/178
f 35/77/179 77/119/180 78/120/181 36/78/182
f 36/78/183 78/120/184 79/121/185 37/79/186
f 37/79/187 79/121/188 80/122/189 38/80/190
f 38/80/191 80/122/192 81/123/193 39/81/194
f 39/81/195 81/123/196 82/124/197 40/82/198
f 40/82/199 82/124/200 83/125/201 41/83/202
f 41/83/203 83/125/204 84/126/205 42/84/206
f 42/84/207 84/126/208 43/127/209 1/128/210
s 8
f 48/134/211 47/133/212 44/130/213 43/129/214
f 47/133/212 46/132/215 45/131/216 44/130/213
f 54/140/217 53/139/218 50/136/219 49/135/220
f 53/139/218 52/138/221 51/137/222 50/136/219
f 60/146/223 59/145/224 56/142/225 55/141/226
f 59/145/224 58/144/227 57/143/228 56/142/225
f 66/152/229 65/151/230 62/148/231 61/147/232
f 65/151/230 64/150/233 63/149/234 62/148/231
f 72/158/235 71/157/236 68/154/237 67/153/238
f 71/157/236 70/156/239 69/155/240 68/154/237
f 78/164/241 77/163/242 74/160/243 73/159/244
f 77/163/242 76/162/245 75/161/246 74/160/243
f 84/170/247 83/169/248 80/166/249 79/165/250
f 83/169/248 82/168/251 81/167/252 80/166/249
s 15
f 85/171/253 86/172/254 100/186/255 99/185/256
f 86/172/254 87/173/257 101/187/258 100/186/255
f 87/173/257 88/174/259 102/188/260 101/187/258
f 88/174/259 89/175/261 103/189/262 102/188/260
f 89/175/261 90/176/263 104/190/264 103/189/262
f 90/176/263 91/177/265 105/191/266 104/190/264
f 91/177/265 92/178/267 106/192/268 105/191/266
f 92/178/267 93/179/269 107/193/270 106/192/268
f 93/179/269 94/180/271 108/194/272 107/193/270
f 94/180/271 95/181/273 109/195/274 108/194/272
f 95/181/273 96/182/275 110/196/276 109/195/274
f 96/182/275 97/183/277 111/197/278 110/196/276
f 97/183/277 98/184/279 112/198/280 111/197/278
f 98/184/279 85/199/253 99/200/256 112/198/280
s 1
f 85/201/281 1/1/1 6/6/4 86/202/282
f 86/202/282 6/6/4 7/7/7 87/203/283
s 8
f 100/216/284 48/134/211 43/129/214 99/215/285
f 101/217/286 49/135/220 48/134/211 100/216/284
s 1
f 87/203/283 7/7/7 12/12/10 88/204/287
f 88/204/287 12/12/10 13/13/13 89/205/288
s 8
f 102/218/289 54/140/217 49/135/220 101/217/286
f 103/219/290 55/141/226 54/140/217 102/218/289
s 1
f 89/205/288 13/13/13 18/18/16 90/206/291
f 90/206/291 18/18/16 19/19/19 91/207/292
s 8
f 104/220/293 60/146/223 55/141/226 103/219/290
f 105/221/294 61/147/232 60/146/223 104/220/293
s 1
f 91/207/292 19/19/19 24/24/22 92/208/295
f 92/208/295 24/24/22 25/25/25 93/209/296
s 8
f 106/222/297 66/152/229 61/147/232 105/221/294
f 107/223/298 67/153/238 66/152/229 106/222/297
s 1
f 93/209/296 25/25/25 30/30/28 94/210/299
f 94/210/299 30/30/28 31/31/31 95/211/300
s 8
f 108/224/301 72/158/235 67/153/238 107/223/298
f 109/225/302 73/159/244 72/158/235 108/224/301
s 1
f 95/211/300 31/31/31 36/36/34 96/212/303
f 96/212/303 36/36/34 37/37/37 97/213/304
s 8
f 110/226/305 78/164/241 73/159/244 109/225/302
f 111/227/306 79/165/250 78/164/241 110/226/305
s 1
f 97/213/304 37/37/37 42/42/40 98/214/307
f 98/214/307 42/42/40 1/1/1 85/201/281
s 8
f 112/228/308 84/170/247 79/165/250 111/227/306
f 99/215/285 43/129/214 84/170/247 112/228/308
