{
  "accessors": [
    {
      "bufferView": 0,
      "componentType": 5125,
      "count": 672,
      "type": "SCALAR"
    },
    {
      "bufferView": 1,
      "componentType": 5126,
      "count": 310,
      "max": [
        11.6646766662598,
        8.72545051574707,
        11.3722190856934
      ],
      "min": [
        -11.6646766662598,
        0.0,
        -11.3722190856934
      ],
      "type": "VEC3"
    },
    {
      "bufferView": 2,
      "componentType": 5126,
      "count": 310,
      "type": "VEC3"
    },
    {
      "bufferView": 3,
      "componentType": 5126,
      "count": 310,
      "type": "VEC4"
    },
    {
      "bufferView": 4,
      "componentType": 5126,
      "count": 310,
      "type": "VEC2"
    }
  ],
  "asset": {
    "generator": "Adobe Substance 3D Painter 11.0.3",
    "version": "2.0"
  },
  "bufferViews": [
    {
      "buffer": 0,
      "byteLength": 2688,
      "target": 34963
    },
    {
      "buffer": 0,
      "byteLength": 3720,
      "byteOffset": 2688,
      "target": 34962
    },
    {
      "buffer": 0,
      "byteLength": 3720,
      "byteOffset": 6408,
      "target": 34962
    },
    {
      "buffer": 0,
      "byteLength": 4960,
      "byteOffset": 10128,
      "target": 34962
    },
    {
      "buffer": 0,
      "byteLength": 2480,
      "byteOffset": 15088,
      "target": 34962
    }
  ],
  "buffers": [
    {
      "byteLength": 17568,
      "uri": "Gear.bin"
    }
  ],
  "images": [
    {
      "uri": "Gear_baseColor.png"
    },
    {
      "uri": "Gear_occlusionRoughnessMetallic.png"
    },
    {
      "uri": "Gear_normal.png"
    },
    {
      "uri": "Gear_emissive.png"
    }
  ],
  "materials": [
    {
      "alphaMode": "BLEND",
      "emissiveFactor": [
        1.0,
        1.0,
        1.0
      ],
      "emissiveTexture": {
        "index": 3
      },
      "name": "Gear",
      "normalTexture": {
        "index": 2
      },
      "occlusionTexture": {
        "index": 1
      },
      "pbrMetallicRoughness": {
        "baseColorTexture": {
          "index": 0
        },
        "metallicRoughnessTexture": {
          "index": 1
        }
      }
    }
  ],
  "meshes": [
    {
      "name": "Gear",
      "primitives": [
        {
          "attributes": {
            "NORMAL": 2,
            "POSITION": 1,
            "TANGENT": 3,
            "TEXCOORD_0": 4
          },
          "indices": 0,
          "material": 0,
          "mode": 4
        }
      ]
    }
  ],
  "nodes": [
    {
      "children": [
        1
      ],
      "name": "Gear.obj",
      "scale": [
        0.00999999977648258,
        0.00999999977648258,
        0.00999999977648258
      ]
    },
    {
      "children": [
        2
      ],
      "name": "Gear"
    },
    {
      "mesh": 0,
      "name": "Gear"
    }
  ],
  "samplers": [
    {
      "magFilter": 9729,
      "minFilter": 9985,
      "wrapS": 10497,
      "wrapT": 10497
    }
  ],
  "scene": 0,
  "scenes": [
    {
      "name": "Scene",
      "nodes": [
        0
      ]
    }
  ],
  "textures": [
    {
      "sampler": 0,
      "source": 0
    },
    {
      "sampler": 0,
      "source": 1
    },
    {
      "sampler": 0,
      "source": 2
    },
    {
      "sampler": 0,
      "source": 3
    }
  ]
}