{
	"asset":{
		"generator":"Khronos glTF Blender I/O v4.5.48",
		"version":"2.0"
	},
	"extensionsUsed":[
		"KHR_materials_transmission",
		"KHR_materials_specular",
		"KHR_materials_ior"
	],
	"scene":0,
	"scenes":[
		{
			"name":"Scene",
			"nodes":[
				6
			]
		}
	],
	"nodes":[
		{
			"name":"body",
			"rotation":[
				-2.6692537957728746e-08,
				-2.6692537957728746e-08,
				-0.7071067690849304,
				0.7071067690849304
			],
			"translation":[
				0.00016731780488044024,
				0.7979080677032471,
				-0.3198401629924774
			]
		},
		{
			"name":"head",
			"translation":[
				-0.004158570896834135,
				1.7936664819717407,
				-0.2847713232040405
			]
		},
		{
			"name":"grinder",
			"rotation":[
				-2.220446049250313e-16,
				-1.4901161193847656e-08,
				-1.4901161193847656e-08,
				1
			],
			"translation":[
				0.34041687846183777,
				0.001264035701751709,
				1.0981295108795166
			]
		},
		{
			"children":[
				2
			],
			"name":"arms",
			"rotation":[
				-2.6692537957728746e-08,
				-2.6692537957728746e-08,
				-0.7071067690849304,
				0.7071067690849304
			],
			"translation":[
				0.00016730740026105195,
				0.6193403005599976,
				-0.28689947724342346
			]
		},
		{
			"children":[
				0,
				1,
				3
			],
			"name":"root"
		},
		{
			"mesh":0,
			"name":"GroundEnemy",
			"skin":0
		},
		{
			"children":[
				5,
				4
			],
			"name":"Armature"
		}
	],
	"animations":[
		{
			"channels":[
				{
					"sampler":0,
					"target":{
						"node":4,
						"path":"translation"
					}
				},
				{
					"sampler":1,
					"target":{
						"node":4,
						"path":"rotation"
					}
				},
				{
					"sampler":2,
					"target":{
						"node":4,
						"path":"scale"
					}
				},
				{
					"sampler":3,
					"target":{
						"node":0,
						"path":"translation"
					}
				},
				{
					"sampler":4,
					"target":{
						"node":0,
						"path":"rotation"
					}
				},
				{
					"sampler":5,
					"target":{
						"node":0,
						"path":"scale"
					}
				},
				{
					"sampler":6,
					"target":{
						"node":1,
						"path":"translation"
					}
				},
				{
					"sampler":7,
					"target":{
						"node":1,
						"path":"rotation"
					}
				},
				{
					"sampler":8,
					"target":{
						"node":1,
						"path":"scale"
					}
				},
				{
					"sampler":9,
					"target":{
						"node":3,
						"path":"translation"
					}
				},
				{
					"sampler":10,
					"target":{
						"node":3,
						"path":"rotation"
					}
				},
				{
					"sampler":11,
					"target":{
						"node":3,
						"path":"scale"
					}
				},
				{
					"sampler":12,
					"target":{
						"node":2,
						"path":"translation"
					}
				},
				{
					"sampler":13,
					"target":{
						"node":2,
						"path":"rotation"
					}
				},
				{
					"sampler":14,
					"target":{
						"node":2,
						"path":"scale"
					}
				}
			],
			"name":"ArmatureAction",
			"samplers":[
				{
					"input":7,
					"interpolation":"STEP",
					"output":8
				},
				{
					"input":7,
					"interpolation":"STEP",
					"output":9
				},
				{
					"input":7,
					"interpolation":"STEP",
					"output":10
				},
				{
					"input":7,
					"interpolation":"STEP",
					"output":11
				},
				{
					"input":12,
					"interpolation":"LINEAR",
					"output":13
				},
				{
					"input":7,
					"interpolation":"STEP",
					"output":10
				},
				{
					"input":7,
					"interpolation":"STEP",
					"output":14
				},
				{
					"input":7,
					"interpolation":"STEP",
					"output":9
				},
				{
					"input":7,
					"interpolation":"STEP",
					"output":10
				},
				{
					"input":7,
					"interpolation":"STEP",
					"output":15
				},
				{
					"input":7,
					"interpolation":"STEP",
					"output":16
				},
				{
					"input":7,
					"interpolation":"STEP",
					"output":10
				},
				{
					"input":7,
					"interpolation":"STEP",
					"output":17
				},
				{
					"input":12,
					"interpolation":"LINEAR",
					"output":18
				},
				{
					"input":7,
					"interpolation":"STEP",
					"output":10
				}
			]
		}
	],
	"materials":[
		{
			"doubleSided":true,
			"emissiveFactor":[
				1,
				1,
				1
			],
			"emissiveTexture":{
				"index":0
			},
			"extensions":{
				"KHR_materials_transmission":{
					"transmissionFactor":1
				},
				"KHR_materials_specular":{
					"specularFactor":0
				},
				"KHR_materials_ior":{
					"ior":1
				}
			},
			"name":"GroundEnemy",
			"normalTexture":{
				"index":1
			},
			"pbrMetallicRoughness":{
				"baseColorTexture":{
					"index":2
				},
				"metallicRoughnessTexture":{
					"index":3
				}
			}
		}
	],
	"meshes":[
		{
			"name":"GroundEnemy",
			"primitives":[
				{
					"attributes":{
						"POSITION":0,
						"NORMAL":1,
						"TEXCOORD_0":2,
						"JOINTS_0":3,
						"WEIGHTS_0":4
					},
					"indices":5,
					"material":0
				}
			]
		}
	],
	"textures":[
		{
			"sampler":0,
			"source":0
		},
		{
			"sampler":0,
			"source":1
		},
		{
			"sampler":0,
			"source":2
		},
		{
			"sampler":0,
			"source":3
		}
	],
	"images":[
		{
			"mimeType":"image/png",
			"name":"GroundEnemyBlend_GroundEnemy_Emissive",
			"uri":"GroundEnemyBlend_GroundEnemy_Emissive.png"
		},
		{
			"mimeType":"image/png",
			"name":"GroundEnemyBlend_GroundEnemy_Normal",
			"uri":"GroundEnemyBlend_GroundEnemy_Normal.png"
		},
		{
			"mimeType":"image/png",
			"name":"GroundEnemyBlend_GroundEnemy_BaseColor",
			"uri":"GroundEnemyBlend_GroundEnemy_BaseColor.png"
		},
		{
			"mimeType":"image/png",
			"name":"GroundEnemyBlend_GroundEnemy_Metallic-GroundEnemyBlend_GroundEnemy_Roughness",
			"uri":"GroundEnemyBlend_GroundEnemy_Metallic-GroundEnemyBlend_GroundEnemy_Roughness.png"
		}
	],
	"skins":[
		{
			"inverseBindMatrices":6,
			"joints":[
				4,
				0,
				1,
				3,
				2
			],
			"name":"Armature"
		}
	],
	"accessors":[
		{
			"bufferView":0,
			"componentType":5126,
			"count":7895,
			"max":[
				0.8412691354751587,
				2.094149112701416,
				1.1012225151062012
			],
			"min":[
				-0.8412691354751587,
				6.067523372621508e-08,
				-1.1040846109390259
			],
			"type":"VEC3"
		},
		{
			"bufferView":1,
			"componentType":5126,
			"count":7895,
			"type":"VEC3"
		},
		{
			"bufferView":2,
			"componentType":5126,
			"count":7895,
			"type":"VEC2"
		},
		{
			"bufferView":3,
			"componentType":5121,
			"count":7895,
			"type":"VEC4"
		},
		{
			"bufferView":4,
			"componentType":5126,
			"count":7895,
			"type":"VEC4"
		},
		{
			"bufferView":5,
			"componentType":5123,
			"count":27708,
			"type":"SCALAR"
		},
		{
			"bufferView":6,
			"componentType":5126,
			"count":5,
			"type":"MAT4"
		},
		{
			"bufferView":7,
			"componentType":5126,
			"count":2,
			"max":[
				0.8333333333333334
			],
			"min":[
				0
			],
			"type":"SCALAR"
		},
		{
			"bufferView":8,
			"componentType":5126,
			"count":2,
			"type":"VEC3"
		},
		{
			"bufferView":9,
			"componentType":5126,
			"count":2,
			"type":"VEC4"
		},
		{
			"bufferView":10,
			"componentType":5126,
			"count":2,
			"type":"VEC3"
		},
		{
			"bufferView":11,
			"componentType":5126,
			"count":2,
			"type":"VEC3"
		},
		{
			"bufferView":12,
			"componentType":5126,
			"count":21,
			"max":[
				0.8333333333333334
			],
			"min":[
				0
			],
			"type":"SCALAR"
		},
		{
			"bufferView":13,
			"componentType":5126,
			"count":21,
			"type":"VEC4"
		},
		{
			"bufferView":14,
			"componentType":5126,
			"count":2,
			"type":"VEC3"
		},
		{
			"bufferView":15,
			"componentType":5126,
			"count":2,
			"type":"VEC3"
		},
		{
			"bufferView":16,
			"componentType":5126,
			"count":2,
			"type":"VEC4"
		},
		{
			"bufferView":17,
			"componentType":5126,
			"count":2,
			"type":"VEC3"
		},
		{
			"bufferView":18,
			"componentType":5126,
			"count":21,
			"type":"VEC4"
		}
	],
	"bufferViews":[
		{
			"buffer":0,
			"byteLength":94740,
			"byteOffset":0,
			"target":34962
		},
		{
			"buffer":0,
			"byteLength":94740,
			"byteOffset":94740,
			"target":34962
		},
		{
			"buffer":0,
			"byteLength":63160,
			"byteOffset":189480,
			"target":34962
		},
		{
			"buffer":0,
			"byteLength":31580,
			"byteOffset":252640,
			"target":34962
		},
		{
			"buffer":0,
			"byteLength":126320,
			"byteOffset":284220,
			"target":34962
		},
		{
			"buffer":0,
			"byteLength":55416,
			"byteOffset":410540,
			"target":34963
		},
		{
			"buffer":0,
			"byteLength":320,
			"byteOffset":465956
		},
		{
			"buffer":0,
			"byteLength":8,
			"byteOffset":466276
		},
		{
			"buffer":0,
			"byteLength":24,
			"byteOffset":466284
		},
		{
			"buffer":0,
			"byteLength":32,
			"byteOffset":466308
		},
		{
			"buffer":0,
			"byteLength":24,
			"byteOffset":466340
		},
		{
			"buffer":0,
			"byteLength":24,
			"byteOffset":466364
		},
		{
			"buffer":0,
			"byteLength":84,
			"byteOffset":466388
		},
		{
			"buffer":0,
			"byteLength":336,
			"byteOffset":466472
		},
		{
			"buffer":0,
			"byteLength":24,
			"byteOffset":466808
		},
		{
			"buffer":0,
			"byteLength":24,
			"byteOffset":466832
		},
		{
			"buffer":0,
			"byteLength":32,
			"byteOffset":466856
		},
		{
			"buffer":0,
			"byteLength":24,
			"byteOffset":466888
		},
		{
			"buffer":0,
			"byteLength":336,
			"byteOffset":466912
		}
	],
	"samplers":[
		{
			"magFilter":9729,
			"minFilter":9987
		}
	],
	"buffers":[
		{
			"byteLength":467248,
			"uri":"GroundEnemyBlend.bin"
		}
	]
}
