{
  "accessors": [
    {
      "bufferView": 0,
      "componentType": 5125,
      "count": 1524,
      "type": "SCALAR"
    },
    {
      "bufferView": 1,
      "componentType": 5126,
      "count": 611,
      "max": [
        9.290358543396,
        7.74763107299805,
        9.77541828155518
      ],
      "min": [
        -9.290358543396,
        -2.38418579101562e-07,
        -9.77541828155518
      ],
      "type": "VEC3"
    },
    {
      "bufferView": 2,
      "componentType": 5126,
      "count": 611,
      "type": "VEC3"
    },
    {
      "bufferView": 3,
      "componentType": 5126,
      "count": 611,
      "type": "VEC4"
    },
    {
      "bufferView": 4,
      "componentType": 5126,
      "count": 611,
      "type": "VEC2"
    }
  ],
  "asset": {
    "generator": "Adobe Substance 3D Painter 11.0.3",
    "version": "2.0"
  },
  "bufferViews": [
    {
      "buffer": 0,
      "byteLength": 6096,
      "target": 34963
    },
    {
      "buffer": 0,
      "byteLength": 7332,
      "byteOffset": 6096,
      "target": 34962
    },
    {
      "buffer": 0,
      "byteLength": 7332,
      "byteOffset": 13428,
      "target": 34962
    },
    {
      "buffer": 0,
      "byteLength": 9776,
      "byteOffset": 20760,
      "target": 34962
    },
    {
      "buffer": 0,
      "byteLength": 4888,
      "byteOffset": 30536,
      "target": 34962
    }
  ],
  "buffers": [
    {
      "byteLength": 35424,
      "uri": "Pile1.bin"
    }
  ],
  "images": [
    {
      "uri": "Pile1_baseColor.png"
    },
    {
      "uri": "Pile1_occlusionRoughnessMetallic.png"
    },
    {
      "uri": "Pile1_normal.png"
    },
    {
      "uri": "Pile1_emissive.png"
    }
  ],
  "materials": [
    {
      "alphaMode": "BLEND",
      "emissiveFactor": [
        1.0,
        1.0,
        1.0
      ],
      "emissiveTexture": {
        "index": 3
      },
      "name": "Pile1",
      "normalTexture": {
        "index": 2
      },
      "occlusionTexture": {
        "index": 1
      },
      "pbrMetallicRoughness": {
        "baseColorTexture": {
          "index": 0
        },
        "metallicRoughnessTexture": {
          "index": 1
        }
      }
    }
  ],
  "meshes": [
    {
      "name": "Pile1",
      "primitives": [
        {
          "attributes": {
            "NORMAL": 2,
            "POSITION": 1,
            "TANGENT": 3,
            "TEXCOORD_0": 4
          },
          "indices": 0,
          "material": 0,
          "mode": 4
        }
      ]
    }
  ],
  "nodes": [
    {
      "children": [
        1
      ],
      "name": "Pile1.obj",
      "scale": [
        0.00999999977648258,
        0.00999999977648258,
        0.00999999977648258
      ]
    },
    {
      "children": [
        2
      ],
      "name": "Pile1"
    },
    {
      "mesh": 0,
      "name": "Pile1"
    }
  ],
  "samplers": [
    {
      "magFilter": 9729,
      "minFilter": 9985,
      "wrapS": 10497,
      "wrapT": 10497
    }
  ],
  "scene": 0,
  "scenes": [
    {
      "name": "Scene",
      "nodes": [
        0
      ]
    }
  ],
  "textures": [
    {
      "sampler": 0,
      "source": 0
    },
    {
      "sampler": 0,
      "source": 1
    },
    {
      "sampler": 0,
      "source": 2
    },
    {
      "sampler": 0,
      "source": 3
    }
  ]
}