{
  "accessors": [
    {
      "bufferView": 0,
      "componentType": 5125,
      "count": 18432,
      "type": "SCALAR"
    },
    {
      "bufferView": 1,
      "componentType": 5126,
      "count": 5504,
      "max": [
        669.434143066406,
        1196.92895507812,
        40.3836898803711
      ],
      "min": [
        -669.434143066406,
        6.103515625e-05,
        -40.3836898803711
      ],
      "type": "VEC3"
    },
    {
      "bufferView": 2,
      "componentType": 5126,
      "count": 5504,
      "type": "VEC3"
    },
    {
      "bufferView": 3,
      "componentType": 5126,
      "count": 5504,
      "type": "VEC4"
    },
    {
      "bufferView": 4,
      "componentType": 5126,
      "count": 5504,
      "type": "VEC2"
    }
  ],
  "asset": {
    "generator": "Adobe Substance 3D Painter 11.0.3",
    "version": "2.0"
  },
  "bufferViews": [
    {
      "buffer": 0,
      "byteLength": 73728,
      "target": 34963
    },
    {
      "buffer": 0,
      "byteLength": 66048,
      "byteOffset": 73728,
      "target": 34962
    },
    {
      "buffer": 0,
      "byteLength": 66048,
      "byteOffset": 139776,
      "target": 34962
    },
    {
      "buffer": 0,
      "byteLength": 88064,
      "byteOffset": 205824,
      "target": 34962
    },
    {
      "buffer": 0,
      "byteLength": 44032,
      "byteOffset": 293888,
      "target": 34962
    }
  ],
  "buffers": [
    {
      "byteLength": 337920,
      "uri": "Pipe10.bin"
    }
  ],
  "images": [
    {
      "uri": "Pipe10_baseColor.png"
    },
    {
      "uri": "Pipe10_occlusionRoughnessMetallic.png"
    },
    {
      "uri": "Pipe10_normal.png"
    },
    {
      "uri": "Pipe10_emissive.png"
    }
  ],
  "materials": [
    {
      "alphaMode": "BLEND",
      "emissiveFactor": [
        1.0,
        1.0,
        1.0
      ],
      "emissiveTexture": {
        "index": 3
      },
      "name": "Pipe10",
      "normalTexture": {
        "index": 2
      },
      "occlusionTexture": {
        "index": 1
      },
      "pbrMetallicRoughness": {
        "baseColorTexture": {
          "index": 0
        },
        "metallicRoughnessTexture": {
          "index": 1
        }
      }
    }
  ],
  "meshes": [
    {
      "name": "Pipe12",
      "primitives": [
        {
          "attributes": {
            "NORMAL": 2,
            "POSITION": 1,
            "TANGENT": 3,
            "TEXCOORD_0": 4
          },
          "indices": 0,
          "material": 0,
          "mode": 4
        }
      ]
    }
  ],
  "nodes": [
    {
      "children": [
        1
      ],
      "name": "RootNode"
    },
    {
      "children": [
        2
      ],
      "name": "Pipe12",
      "scale": [
        0.00999999977648258,
        0.00999999977648258,
        0.00999999977648258
      ],
      "translation": [
        -7.23943138122559,
        0.0,
        1.62386810779572
      ]
    },
    {
      "mesh": 0,
      "name": "Pipe12"
    }
  ],
  "samplers": [
    {
      "magFilter": 9729,
      "minFilter": 9985,
      "wrapS": 10497,
      "wrapT": 10497
    }
  ],
  "scene": 0,
  "scenes": [
    {
      "name": "Scene",
      "nodes": [
        0
      ]
    }
  ],
  "textures": [
    {
      "sampler": 0,
      "source": 0
    },
    {
      "sampler": 0,
      "source": 1
    },
    {
      "sampler": 0,
      "source": 2
    },
    {
      "sampler": 0,
      "source": 3
    }
  ]
}