{
  "accessors": [
    {
      "bufferView": 0,
      "componentType": 5125,
      "count": 12996,
      "type": "SCALAR"
    },
    {
      "bufferView": 1,
      "componentType": 5126,
      "count": 2912,
      "max": [
        199.999984741211,
        90.5685653686523,
        100.0
      ],
      "min": [
        -200.000015258789,
        0.0,
        -100.0
      ],
      "type": "VEC3"
    },
    {
      "bufferView": 2,
      "componentType": 5126,
      "count": 2912,
      "type": "VEC3"
    },
    {
      "bufferView": 3,
      "componentType": 5126,
      "count": 2912,
      "type": "VEC4"
    },
    {
      "bufferView": 4,
      "componentType": 5126,
      "count": 2912,
      "type": "VEC2"
    }
  ],
  "asset": {
    "generator": "Adobe Substance 3D Painter 11.0.3",
    "version": "2.0"
  },
  "bufferViews": [
    {
      "buffer": 0,
      "byteLength": 51984,
      "target": 34963
    },
    {
      "buffer": 0,
      "byteLength": 34944,
      "byteOffset": 51984,
      "target": 34962
    },
    {
      "buffer": 0,
      "byteLength": 34944,
      "byteOffset": 86928,
      "target": 34962
    },
    {
      "buffer": 0,
      "byteLength": 46592,
      "byteOffset": 121872,
      "target": 34962
    },
    {
      "buffer": 0,
      "byteLength": 23296,
      "byteOffset": 168464,
      "target": 34962
    }
  ],
  "buffers": [
    {
      "byteLength": 191760,
      "uri": "platform1.bin"
    }
  ],
  "images": [
    {
      "uri": "Platform1_baseColor.png"
    },
    {
      "uri": "Platform1_occlusionRoughnessMetallic.png"
    },
    {
      "uri": "Platform1_normal.png"
    },
    {
      "uri": "Platform1_emissive.png"
    }
  ],
  "materials": [
    {
      "alphaMode": "BLEND",
      "emissiveFactor": [
        1.0,
        1.0,
        1.0
      ],
      "emissiveTexture": {
        "index": 3
      },
      "name": "Platform1",
      "normalTexture": {
        "index": 2
      },
      "occlusionTexture": {
        "index": 1
      },
      "pbrMetallicRoughness": {
        "baseColorTexture": {
          "index": 0
        },
        "metallicRoughnessTexture": {
          "index": 1
        }
      }
    }
  ],
  "meshes": [
    {
      "name": "Platform1",
      "primitives": [
        {
          "attributes": {
            "NORMAL": 2,
            "POSITION": 1,
            "TANGENT": 3,
            "TEXCOORD_0": 4
          },
          "indices": 0,
          "material": 0,
          "mode": 4
        }
      ]
    }
  ],
  "nodes": [
    {
      "children": [
        1
      ],
      "name": "Platform1.obj",
      "scale": [
        0.00999999977648258,
        0.00999999977648258,
        0.00999999977648258
      ]
    },
    {
      "children": [
        2
      ],
      "name": "Platform1"
    },
    {
      "mesh": 0,
      "name": "Platform1"
    }
  ],
  "samplers": [
    {
      "magFilter": 9729,
      "minFilter": 9985,
      "wrapS": 10497,
      "wrapT": 10497
    }
  ],
  "scene": 0,
  "scenes": [
    {
      "name": "Scene",
      "nodes": [
        0
      ]
    }
  ],
  "textures": [
    {
      "sampler": 0,
      "source": 0
    },
    {
      "sampler": 0,
      "source": 1
    },
    {
      "sampler": 0,
      "source": 2
    },
    {
      "sampler": 0,
      "source": 3
    }
  ]
}