{
	"asset":{
		"generator":"Khronos glTF Blender I/O v4.5.48",
		"version":"2.0"
	},
	"scene":0,
	"scenes":[
		{
			"name":"Scene",
			"nodes":[
				0,
				55
			]
		}
	],
	"nodes":[
		{
			"name":"Cube.005",
			"scale":[
				0.08678950369358063,
				0.07283692806959152,
				0.04943843185901642
			],
			"translation":[
				1.8134472370147705,
				1.2817466259002686,
				0
			]
		},
		{
			"name":"Finger_3_L",
			"rotation":[
				1.1570176484974186e-30,
				2.842170943040401e-14,
				7.543887691354592e-22,
				1
			],
			"translation":[
				1.192093321833454e-07,
				0.2729513347148895,
				6.394884621840902e-14
			]
		},
		{
			"children":[
				1
			],
			"name":"Finger_2_L",
			"rotation":[
				-3.425254245308807e-22,
				5.684341886080802e-14,
				-2.0798098602952314e-16,
				1
			],
			"translation":[
				1.192093321833454e-07,
				0.260669082403183,
				6.394884621840902e-14
			]
		},
		{
			"children":[
				2
			],
			"name":"Finger_1_L",
			"rotation":[
				-4.235164736271502e-22,
				3.8941436741879443e-07,
				7.411538288475128e-22,
				1
			],
			"translation":[
				-0.11434245109558105,
				0.9897569417953491,
				4.452659396747549e-08
			]
		},
		{
			"name":"Finger_6_L",
			"rotation":[
				4.235164736271502e-22,
				-5.684341886080802e-14,
				-1.634508688456391e-21,
				1
			],
			"translation":[
				-1.0236256287043943e-13,
				0.2729513347148895,
				-4.973799150320701e-14
			]
		},
		{
			"children":[
				4
			],
			"name":"Finger_5_L",
			"rotation":[
				1.0903848992389087e-21,
				2.842170943040401e-14,
				-2.079833815445771e-16,
				1
			],
			"translation":[
				-1.0147438445073931e-13,
				0.260669082403183,
				-4.973799150320701e-14
			]
		},
		{
			"children":[
				5
			],
			"name":"Finger_4_L",
			"rotation":[
				-4.235164736271502e-22,
				-2.384185791015625e-07,
				-1.6477437802056311e-21,
				1
			],
			"translation":[
				0.11434268951416016,
				0.9897568225860596,
				-4.45266934434585e-08
			]
		},
		{
			"children":[
				3,
				6
			],
			"name":"Hand_L",
			"rotation":[
				1.0400978966984553e-09,
				2.8352504788387023e-09,
				0.004508716985583305,
				0.9999898672103882
			],
			"translation":[
				-5.715996920230282e-08,
				1.0247739553451538,
				-3.524958103184872e-14
			]
		},
		{
			"name":"Thumb_2_L",
			"rotation":[
				2.499915385811846e-09,
				9.446038973237592e-08,
				-0.03638286888599396,
				0.999337911605835
			],
			"scale":[
				1.0000001192092896,
				1.0000001192092896,
				1
			],
			"translation":[
				-1.490114875934978e-08,
				0.37674441933631897,
				1.7763568394002505e-14
			]
		},
		{
			"children":[
				8
			],
			"name":"Thumb_1_L",
			"rotation":[
				2.3329921106096663e-08,
				1.9573556642171752e-07,
				0.40679803490638733,
				0.9135181307792664
			],
			"scale":[
				0.9999999403953552,
				1,
				1
			],
			"translation":[
				-0.2644449472427368,
				1.1818629503250122,
				8.282179209118112e-08
			]
		},
		{
			"children":[
				7,
				9
			],
			"name":"LowerArm_L",
			"rotation":[
				4.693921695775316e-08,
				-4.439641898557056e-08,
				-0.05899069830775261,
				0.9982585906982422
			],
			"scale":[
				0.9999999403953552,
				0.9999998807907104,
				1
			],
			"translation":[
				-1.0430816388407038e-07,
				0.8959516286849976,
				2.842170943040401e-14
			]
		},
		{
			"name":"elbow_L",
			"rotation":[
				0.7070996165275574,
				-0.0031905933283269405,
				-0.0031908047385513783,
				0.7070994973182678
			],
			"translation":[
				-1.0430816388407038e-07,
				0.8959516286849976,
				2.842170943040401e-14
			]
		},
		{
			"children":[
				10,
				11
			],
			"name":"UpperArm_L",
			"rotation":[
				-1.744919018165092e-07,
				-3.8378914268832887e-08,
				-0.6675265431404114,
				0.7445859909057617
			],
			"scale":[
				0.9999999403953552,
				0.9999999403953552,
				1
			],
			"translation":[
				0.24813222885131836,
				0.3570845127105713,
				-1.873345922831504e-08
			]
		},
		{
			"children":[
				12
			],
			"name":"Shoulder_l",
			"rotation":[
				-2.6692537957728746e-08,
				-2.6692537957728746e-08,
				-0.7071067690849304,
				0.7071067690849304
			],
			"translation":[
				0.9028482437133789,
				1.7000713348388672,
				0
			]
		},
		{
			"name":"Head",
			"translation":[
				0,
				0.12320327758789062,
				0
			]
		},
		{
			"children":[
				14
			],
			"name":"Neck",
			"translation":[
				0,
				2.0118865966796875,
				0.5199645757675171
			]
		},
		{
			"name":"Thumb_2_R",
			"rotation":[
				2.499915385811846e-09,
				-9.446038973237592e-08,
				0.03638286888599396,
				0.999337911605835
			],
			"scale":[
				1.0000001192092896,
				1.0000001192092896,
				1
			],
			"translation":[
				1.490114875934978e-08,
				0.37674441933631897,
				1.7763568394002505e-14
			]
		},
		{
			"children":[
				16
			],
			"name":"Thumb_1_R",
			"rotation":[
				2.3329921106096663e-08,
				-1.9573556642171752e-07,
				-0.40679803490638733,
				0.9135181307792664
			],
			"scale":[
				0.9999999403953552,
				1,
				1
			],
			"translation":[
				0.2644449472427368,
				1.1818629503250122,
				8.282179209118112e-08
			]
		},
		{
			"name":"Finger_3_R",
			"rotation":[
				1.1570176484974186e-30,
				-2.842170943040401e-14,
				-7.543887691354592e-22,
				1
			],
			"translation":[
				-1.192093321833454e-07,
				0.2729513347148895,
				6.394884621840902e-14
			]
		},
		{
			"children":[
				18
			],
			"name":"Finger_2_R",
			"rotation":[
				-3.425254245308807e-22,
				-5.684341886080802e-14,
				2.0798098602952314e-16,
				1
			],
			"translation":[
				-1.192093321833454e-07,
				0.260669082403183,
				6.394884621840902e-14
			]
		},
		{
			"children":[
				19
			],
			"name":"Finger_1_R",
			"rotation":[
				-4.235164736271502e-22,
				-3.8941436741879443e-07,
				-7.411538288475128e-22,
				1
			],
			"translation":[
				0.11434245109558105,
				0.9897569417953491,
				4.452659396747549e-08
			]
		},
		{
			"name":"Finger_6_R",
			"rotation":[
				4.235164736271502e-22,
				5.684341886080802e-14,
				1.634508688456391e-21,
				1
			],
			"translation":[
				1.0236256287043943e-13,
				0.2729513347148895,
				-4.973799150320701e-14
			]
		},
		{
			"children":[
				21
			],
			"name":"Finger_5_R",
			"rotation":[
				1.0903848992389087e-21,
				-2.842170943040401e-14,
				2.079833815445771e-16,
				1
			],
			"translation":[
				1.0147438445073931e-13,
				0.260669082403183,
				-4.973799150320701e-14
			]
		},
		{
			"children":[
				22
			],
			"name":"Finger_4_R",
			"rotation":[
				-4.235164736271502e-22,
				2.384185791015625e-07,
				1.6477437802056311e-21,
				1
			],
			"translation":[
				-0.11434268951416016,
				0.9897568225860596,
				-4.45266934434585e-08
			]
		},
		{
			"children":[
				20,
				23
			],
			"name":"Hand_R",
			"rotation":[
				1.0400978966984553e-09,
				-2.8352504788387023e-09,
				-0.004508716985583305,
				0.9999898672103882
			],
			"translation":[
				5.715996920230282e-08,
				1.0247739553451538,
				-3.524958103184872e-14
			]
		},
		{
			"children":[
				17,
				24
			],
			"name":"LowerArm_R",
			"rotation":[
				4.693921695775316e-08,
				4.439641898557056e-08,
				0.05899069830775261,
				0.9982585906982422
			],
			"scale":[
				0.9999999403953552,
				0.9999998807907104,
				1
			],
			"translation":[
				1.0430816388407038e-07,
				0.8959516286849976,
				2.842170943040401e-14
			]
		},
		{
			"name":"elbow_R",
			"rotation":[
				0.7070996165275574,
				0.0031905933283269405,
				0.0031908047385513783,
				0.7070994973182678
			],
			"translation":[
				1.0430816388407038e-07,
				0.8959516286849976,
				2.842170943040401e-14
			]
		},
		{
			"children":[
				25,
				26
			],
			"name":"UpperArm_R",
			"rotation":[
				-1.744919018165092e-07,
				3.8378914268832887e-08,
				0.6675265431404114,
				0.7445859909057617
			],
			"scale":[
				0.9999999403953552,
				0.9999999403953552,
				1
			],
			"translation":[
				-0.24813222885131836,
				0.3570845127105713,
				-1.873345922831504e-08
			]
		},
		{
			"children":[
				27
			],
			"name":"Shoulder_r",
			"rotation":[
				-2.6692537957728746e-08,
				2.6692537957728746e-08,
				0.7071067690849304,
				0.7071067690849304
			],
			"translation":[
				-0.9028482437133789,
				1.7000713348388672,
				0
			]
		},
		{
			"children":[
				13,
				15,
				28
			],
			"name":"Body",
			"translation":[
				0,
				0.2971895933151245,
				0
			]
		},
		{
			"children":[
				29
			],
			"name":"Pelvis",
			"translation":[
				0,
				1.473696231842041,
				0
			]
		},
		{
			"name":"Toe_4_L",
			"rotation":[
				-0.0029376603197306395,
				3.3639191432399684e-09,
				0.2470533698797226,
				0.9689974188804626
			],
			"scale":[
				1,
				1,
				0.9999999403953552
			],
			"translation":[
				-4.884981308350689e-15,
				0.3698350787162781,
				-5.329070518200751e-15
			]
		},
		{
			"children":[
				31
			],
			"name":"Toe_3_L",
			"rotation":[
				1.175829211774726e-07,
				6.896414106449811e-08,
				0.5104919075965881,
				0.8598825335502625
			],
			"translation":[
				-5.960464477539063e-08,
				0.7257572412490845,
				-3.3745292869172445e-15
			]
		},
		{
			"name":"Toe_2_L",
			"rotation":[
				0.25615817308425903,
				2.083689665255406e-08,
				-0.013000089675188065,
				0.9665474891662598
			],
			"scale":[
				1,
				1,
				0.9999999403953552
			],
			"translation":[
				3.828638739378221e-09,
				0.3574868440628052,
				-5.143678549757169e-08
			]
		},
		{
			"children":[
				33
			],
			"name":"Toe_1_L",
			"rotation":[
				0.5023273825645447,
				-3.697843626356695e-14,
				-1.9561349517971394e-07,
				0.8646775484085083
			],
			"translation":[
				-5.960464477539063e-08,
				0.7257572412490845,
				-3.3745292869172445e-15
			]
		},
		{
			"name":"Toe_6_L",
			"rotation":[
				-0.2610715925693512,
				-5.282672077555617e-08,
				-0.013171483762562275,
				0.9652295708656311
			],
			"scale":[
				1,
				0.9999998807907104,
				1
			],
			"translation":[
				-5.551413551074802e-09,
				0.3512350916862488,
				-8.689912078807538e-08
			]
		},
		{
			"children":[
				35
			],
			"name":"Toe_5_L",
			"rotation":[
				-0.4979201555252075,
				4.09665579115411e-15,
				1.9389727867746842e-07,
				0.8672229051589966
			],
			"scale":[
				1,
				1,
				1.0000001192092896
			],
			"translation":[
				-5.960464477539063e-08,
				0.7257572412490845,
				-3.3745292869172445e-15
			]
		},
		{
			"name":"Toe_8_L",
			"rotation":[
				-0.003107205731794238,
				-1.778106337724239e-07,
				-0.2680019736289978,
				0.9634133577346802
			],
			"translation":[
				-7.450582728552035e-08,
				0.34290215373039246,
				7.460698725481052e-14
			]
		},
		{
			"children":[
				37
			],
			"name":"Toe_7_L",
			"rotation":[
				-3.616506489834137e-07,
				-2.3504284740738512e-07,
				-0.49173039197921753,
				0.8707475066184998
			],
			"scale":[
				1,
				1.0000001192092896,
				1
			],
			"translation":[
				-5.960464477539063e-08,
				0.7257572412490845,
				-3.3745292869172445e-15
			]
		},
		{
			"children":[
				32,
				34,
				36,
				38
			],
			"name":"LowerLeg_L",
			"rotation":[
				3.55271240825108e-15,
				-3.178654850444218e-08,
				-3.669157112506073e-21,
				1
			],
			"translation":[
				-5.960464477539063e-08,
				0.4749228060245514,
				-1.6562861921819855e-14
			]
		},
		{
			"children":[
				39
			],
			"name":"UpperLeg_L",
			"rotation":[
				-1.4189483010795811e-07,
				-8.850976485064166e-08,
				-0.7071067690849304,
				0.7071067690849304
			],
			"scale":[
				0.9999999403953552,
				0.9999999403953552,
				1
			],
			"translation":[
				0,
				0.5498533844947815,
				0
			]
		},
		{
			"children":[
				40
			],
			"name":"Hip_L",
			"rotation":[
				-2.6692537957728746e-08,
				-2.6692537957728746e-08,
				-0.7071067690849304,
				0.7071067690849304
			],
			"translation":[
				0,
				1.473696231842041,
				0
			]
		},
		{
			"name":"Toe_4_R",
			"rotation":[
				-0.0029376603197306395,
				-3.3639191432399684e-09,
				-0.2470533698797226,
				0.9689974188804626
			],
			"scale":[
				1,
				1,
				0.9999999403953552
			],
			"translation":[
				4.884981308350689e-15,
				0.3698350787162781,
				-5.329070518200751e-15
			]
		},
		{
			"children":[
				42
			],
			"name":"Toe_3_R",
			"rotation":[
				1.175829211774726e-07,
				-6.896414106449811e-08,
				-0.5104919075965881,
				0.8598825335502625
			],
			"translation":[
				5.960464477539063e-08,
				0.7257572412490845,
				-3.3745292869172445e-15
			]
		},
		{
			"name":"Toe_2_R",
			"rotation":[
				0.25615817308425903,
				-2.083689665255406e-08,
				0.013000089675188065,
				0.9665474891662598
			],
			"scale":[
				1,
				1,
				0.9999999403953552
			],
			"translation":[
				-3.828638739378221e-09,
				0.3574868440628052,
				-5.143678549757169e-08
			]
		},
		{
			"children":[
				44
			],
			"name":"Toe_1_R",
			"rotation":[
				0.5023273825645447,
				3.697843626356695e-14,
				1.9561349517971394e-07,
				0.8646775484085083
			],
			"translation":[
				5.960464477539063e-08,
				0.7257572412490845,
				-3.3745292869172445e-15
			]
		},
		{
			"name":"Toe_6_R",
			"rotation":[
				-0.2610715925693512,
				5.282672077555617e-08,
				0.013171483762562275,
				0.9652295708656311
			],
			"scale":[
				1,
				0.9999998807907104,
				1
			],
			"translation":[
				5.551413551074802e-09,
				0.3512350916862488,
				-8.689912078807538e-08
			]
		},
		{
			"children":[
				46
			],
			"name":"Toe_5_R",
			"rotation":[
				-0.4979201555252075,
				-4.09665579115411e-15,
				-1.9389727867746842e-07,
				0.8672229051589966
			],
			"scale":[
				1,
				1,
				1.0000001192092896
			],
			"translation":[
				5.960464477539063e-08,
				0.7257572412490845,
				-3.3745292869172445e-15
			]
		},
		{
			"name":"Toe_8_R",
			"rotation":[
				-0.003107205731794238,
				1.778106337724239e-07,
				0.2680019736289978,
				0.9634133577346802
			],
			"translation":[
				7.450582728552035e-08,
				0.34290215373039246,
				7.460698725481052e-14
			]
		},
		{
			"children":[
				48
			],
			"name":"Toe_7_R",
			"rotation":[
				-3.616506489834137e-07,
				2.3504284740738512e-07,
				0.49173039197921753,
				0.8707475066184998
			],
			"scale":[
				1,
				1.0000001192092896,
				1
			],
			"translation":[
				5.960464477539063e-08,
				0.7257572412490845,
				-3.3745292869172445e-15
			]
		},
		{
			"children":[
				43,
				45,
				47,
				49
			],
			"name":"LowerLeg_R",
			"rotation":[
				3.55271240825108e-15,
				3.178654850444218e-08,
				3.669157112506073e-21,
				1
			],
			"translation":[
				5.960464477539063e-08,
				0.4749228060245514,
				-1.6562861921819855e-14
			]
		},
		{
			"children":[
				50
			],
			"name":"UpperLeg_R",
			"rotation":[
				-1.4189483010795811e-07,
				8.850976485064166e-08,
				0.7071067690849304,
				0.7071067690849304
			],
			"scale":[
				0.9999999403953552,
				0.9999999403953552,
				1
			],
			"translation":[
				0,
				0.5498533844947815,
				0
			]
		},
		{
			"children":[
				51
			],
			"name":"Hip_R",
			"rotation":[
				-2.6692537957728746e-08,
				2.6692537957728746e-08,
				0.7071067690849304,
				0.7071067690849304
			],
			"translation":[
				0,
				1.473696231842041,
				0
			]
		},
		{
			"children":[
				30,
				41,
				52
			],
			"name":"Root"
		},
		{
			"mesh":0,
			"name":"Robot",
			"skin":0
		},
		{
			"children":[
				54,
				53
			],
			"name":"Robot_Rig",
			"translation":[
				0,
				-1.1426805257797241,
				0
			]
		}
	],
	"meshes":[
		{
			"name":"Robot_Mesh",
			"primitives":[
				{
					"attributes":{
						"POSITION":0,
						"NORMAL":1,
						"TEXCOORD_0":2,
						"JOINTS_0":3,
						"WEIGHTS_0":4
					},
					"indices":5
				}
			]
		}
	],
	"skins":[
		{
			"inverseBindMatrices":6,
			"joints":[
				53,
				30,
				29,
				13,
				12,
				10,
				7,
				3,
				2,
				1,
				6,
				5,
				4,
				9,
				8,
				11,
				15,
				14,
				28,
				27,
				25,
				17,
				16,
				24,
				20,
				19,
				18,
				23,
				22,
				21,
				26,
				41,
				40,
				39,
				32,
				31,
				34,
				33,
				36,
				35,
				38,
				37,
				52,
				51,
				50,
				43,
				42,
				45,
				44,
				47,
				46,
				49,
				48
			],
			"name":"Robot_Rig"
		}
	],
	"accessors":[
		{
			"bufferView":0,
			"componentType":5126,
			"count":15011,
			"max":[
				2.117285966873169,
				3.555619239807129,
				1.0295311212539673
			],
			"min":[
				-2.117285966873169,
				-1.8492275476455688,
				-1.1747710704803467
			],
			"type":"VEC3"
		},
		{
			"bufferView":1,
			"componentType":5126,
			"count":15011,
			"type":"VEC3"
		},
		{
			"bufferView":2,
			"componentType":5126,
			"count":15011,
			"type":"VEC2"
		},
		{
			"bufferView":3,
			"componentType":5121,
			"count":15011,
			"type":"VEC4"
		},
		{
			"bufferView":4,
			"componentType":5126,
			"count":15011,
			"type":"VEC4"
		},
		{
			"bufferView":5,
			"componentType":5123,
			"count":50208,
			"type":"SCALAR"
		},
		{
			"bufferView":6,
			"componentType":5126,
			"count":53,
			"type":"MAT4"
		}
	],
	"bufferViews":[
		{
			"buffer":0,
			"byteLength":180132,
			"byteOffset":0,
			"target":34962
		},
		{
			"buffer":0,
			"byteLength":180132,
			"byteOffset":180132,
			"target":34962
		},
		{
			"buffer":0,
			"byteLength":120088,
			"byteOffset":360264,
			"target":34962
		},
		{
			"buffer":0,
			"byteLength":60044,
			"byteOffset":480352,
			"target":34962
		},
		{
			"buffer":0,
			"byteLength":240176,
			"byteOffset":540396,
			"target":34962
		},
		{
			"buffer":0,
			"byteLength":100416,
			"byteOffset":780572,
			"target":34963
		},
		{
			"buffer":0,
			"byteLength":3392,
			"byteOffset":880988
		}
	],
	"buffers":[
		{
			"byteLength":884380,
			"uri":"robot.bin"
		}
	]
}
