{
  "accessors": [
    {
      "bufferView": 0,
      "componentType": 5125,
      "count": 984,
      "type": "SCALAR"
    },
    {
      "bufferView": 1,
      "componentType": 5126,
      "count": 367,
      "max": [
        1137.80114746094,
        2421.36596679688,
        786.224609375
      ],
      "min": [
        -1137.80114746094,
        0.0,
        -786.224853515625
      ],
      "type": "VEC3"
    },
    {
      "bufferView": 2,
      "componentType": 5126,
      "count": 367,
      "type": "VEC3"
    },
    {
      "bufferView": 3,
      "componentType": 5126,
      "count": 367,
      "type": "VEC4"
    },
    {
      "bufferView": 4,
      "componentType": 5126,
      "count": 367,
      "type": "VEC2"
    }
  ],
  "asset": {
    "generator": "Adobe Substance 3D Painter 11.0.3",
    "version": "2.0"
  },
  "bufferViews": [
    {
      "buffer": 0,
      "byteLength": 3936,
      "target": 34963
    },
    {
      "buffer": 0,
      "byteLength": 4404,
      "byteOffset": 3936,
      "target": 34962
    },
    {
      "buffer": 0,
      "byteLength": 4404,
      "byteOffset": 8340,
      "target": 34962
    },
    {
      "buffer": 0,
      "byteLength": 5872,
      "byteOffset": 12744,
      "target": 34962
    },
    {
      "buffer": 0,
      "byteLength": 2936,
      "byteOffset": 18616,
      "target": 34962
    }
  ],
  "buffers": [
    {
      "byteLength": 21552,
      "uri": "Rock13.bin"
    }
  ],
  "images": [
    {
      "uri": "Rock13_baseColor.png"
    },
    {
      "uri": "Rock13_occlusionRoughnessMetallic.png"
    },
    {
      "uri": "Rock13_normal.png"
    },
    {
      "uri": "Rock13_emissive.png"
    }
  ],
  "materials": [
    {
      "alphaMode": "BLEND",
      "emissiveFactor": [
        1.0,
        1.0,
        1.0
      ],
      "emissiveTexture": {
        "index": 3
      },
      "name": "Rock13",
      "normalTexture": {
        "index": 2
      },
      "occlusionTexture": {
        "index": 1
      },
      "pbrMetallicRoughness": {
        "baseColorTexture": {
          "index": 0
        },
        "metallicRoughnessTexture": {
          "index": 1
        }
      }
    }
  ],
  "meshes": [
    {
      "name": "Rock13",
      "primitives": [
        {
          "attributes": {
            "NORMAL": 2,
            "POSITION": 1,
            "TANGENT": 3,
            "TEXCOORD_0": 4
          },
          "indices": 0,
          "material": 0,
          "mode": 4
        }
      ]
    }
  ],
  "nodes": [
    {
      "children": [
        1
      ],
      "name": "RootNode"
    },
    {
      "children": [
        2
      ],
      "name": "Rock13",
      "scale": [
        0.00999999977648258,
        0.00999999977648258,
        0.00999999977648258
      ]
    },
    {
      "mesh": 0,
      "name": "Rock13"
    }
  ],
  "samplers": [
    {
      "magFilter": 9729,
      "minFilter": 9985,
      "wrapS": 10497,
      "wrapT": 10497
    }
  ],
  "scene": 0,
  "scenes": [
    {
      "name": "Scene",
      "nodes": [
        0
      ]
    }
  ],
  "textures": [
    {
      "sampler": 0,
      "source": 0
    },
    {
      "sampler": 0,
      "source": 1
    },
    {
      "sampler": 0,
      "source": 2
    },
    {
      "sampler": 0,
      "source": 3
    }
  ]
}