# This file uses centimeters as units for non-parametric coordinates.

mtllib Rock5.mtl
g default
v -23.930580 10.405304 -1.440308
v 3.638519 45.652367 1.370926
v 23.930580 36.068535 -0.627930
v -11.538193 38.344852 -4.708649
v 1.821770 2.913578 10.444778
v -5.043541 9.800355 -17.332962
v 1.347633 22.826078 16.705627
v -8.658112 32.477615 16.685516
v 9.888161 38.253235 12.410919
v -12.161507 0.000000 -4.176529
v 22.292290 19.521507 1.060089
v -13.129517 17.481962 -19.433685
v -21.145950 28.044043 -14.255249
v 16.656639 19.113052 -11.677216
v 18.376961 10.716068 -3.782135
v -20.637886 13.079367 -13.761368
v -8.971565 21.040070 19.433701
v -14.926895 36.819530 4.681320
v -18.503372 28.159876 13.940872
v 8.328697 2.173082 7.278961
v 23.535515 18.638103 -6.167633
vt 0.474401 0.093378
vt 0.081490 0.124911
vt 0.100517 0.091078
vt 0.440805 0.062902
vt 0.492910 0.128920
vt 0.507165 0.075581
vt 0.053386 0.070201
vt 0.045226 0.098399
vt 0.072762 0.096585
vt 0.495638 0.101148
vt 0.098216 0.070749
vt 0.149143 0.127216
vt 0.463234 0.067101
vt 0.133545 0.071468
vt 0.529963 0.112951
vt 0.482478 0.071189
vt 0.452781 0.127195
vt 0.045391 0.125187
vt 0.440527 0.103785
vt 0.508328 0.133018
vt 0.111844 0.070744
vt 0.086504 0.046523
vt 0.111426 0.059386
vt 0.039351 0.076480
vt 0.424063 0.048017
vt 0.486427 0.047550
vt 0.425441 0.081634
vt 0.545374 0.085760
vt 0.459363 0.151483
vt 0.431934 0.119446
vn -0.146762 0.022859 -0.988908
vn 0.051891 0.986452 -0.155625
vn 0.835439 0.540331 -0.100421
vn 0.014983 -0.708953 0.705097
vn -0.209375 -0.202155 0.956711
vn -0.894088 -0.413038 0.173221
vn 0.123836 -0.528752 -0.839694
vn -0.283987 -0.953922 -0.096873
vn -0.706638 -0.379752 -0.597035
vn -0.894088 -0.413038 0.173221
vn -0.768364 0.240066 0.593283
vn -0.626754 0.484212 -0.610506
vn 0.672039 -0.704348 -0.228598
vn 0.487797 -0.793420 0.364059
vn -0.283987 -0.953922 -0.096873
vn 0.383101 -0.077269 0.920469
vn 0.487797 -0.793420 0.364059
vn 0.836428 -0.233052 0.496059
vn -0.146762 0.022859 -0.988908
vn 0.835439 0.540331 -0.100421
vn 0.440787 -0.038227 -0.896797
vn 0.836428 -0.233052 0.496059
vn 0.487797 -0.793420 0.364059
vn 0.672039 -0.704348 -0.228598
vn 0.388018 0.510407 0.767416
vn 0.383101 -0.077269 0.920469
vn 0.836428 -0.233052 0.496059
vn -0.625522 0.753787 0.201312
vn -0.192700 0.541321 0.818437
vn 0.051891 0.986452 -0.155625
vn 0.388018 0.510407 0.767416
vn -0.192700 0.541321 0.818437
vn -0.209375 -0.202155 0.956711
vn -0.894088 -0.413038 0.173221
vn -0.209375 -0.202155 0.956711
vn -0.768364 0.240066 0.593283
vn -0.192700 0.541321 0.818437
vn 0.388018 0.510407 0.767416
vn 0.051891 0.986452 -0.155625
vn 0.388018 0.510407 0.767416
vn 0.835439 0.540331 -0.100421
vn 0.051891 0.986452 -0.155625
vn -0.894088 -0.413038 0.173221
vn -0.283987 -0.953922 -0.096873
vn 0.014983 -0.708953 0.705097
vn -0.283987 -0.953922 -0.096873
vn -0.894088 -0.413038 0.173221
vn -0.706638 -0.379752 -0.597035
vn 0.835439 0.540331 -0.100421
vn 0.836428 -0.233052 0.496059
vn 0.891168 -0.239520 -0.385293
vn 0.836428 -0.233052 0.496059
vn 0.835439 0.540331 -0.100421
vn 0.388018 0.510407 0.767416
vn 0.051891 0.986452 -0.155625
vn -0.146762 0.022859 -0.988908
vn -0.317617 0.823977 -0.469235
vn -0.768364 0.240066 0.593283
vn -0.625522 0.753787 0.201312
vn -0.626754 0.484212 -0.610506
vn -0.317617 0.823977 -0.469235
vn -0.146762 0.022859 -0.988908
vn -0.626754 0.484212 -0.610506
vn -0.626754 0.484212 -0.610506
vn -0.706638 -0.379752 -0.597035
vn -0.894088 -0.413038 0.173221
vn 0.123836 -0.528752 -0.839694
vn -0.146762 0.022859 -0.988908
vn 0.440787 -0.038227 -0.896797
vn -0.283987 -0.953922 -0.096873
vn 0.123836 -0.528752 -0.839694
vn 0.672039 -0.704348 -0.228598
vn 0.836428 -0.233052 0.496059
vn 0.672039 -0.704348 -0.228598
vn 0.891168 -0.239520 -0.385293
vn 0.123836 -0.528752 -0.839694
vn 0.440787 -0.038227 -0.896797
vn 0.672039 -0.704348 -0.228598
vn -0.626754 0.484212 -0.610506
vn -0.146762 0.022859 -0.988908
vn -0.706638 -0.379752 -0.597035
vn 0.123836 -0.528752 -0.839694
vn -0.706638 -0.379752 -0.597035
vn -0.146762 0.022859 -0.988908
vn 0.388018 0.510407 0.767416
vn -0.209375 -0.202155 0.956711
vn 0.383101 -0.077269 0.920469
vn 0.014983 -0.708953 0.705097
vn 0.383101 -0.077269 0.920469
vn -0.209375 -0.202155 0.956711
vn -0.626754 0.484212 -0.610506
vn -0.625522 0.753787 0.201312
vn -0.317617 0.823977 -0.469235
vn -0.625522 0.753787 0.201312
vn 0.051891 0.986452 -0.155625
vn -0.317617 0.823977 -0.469235
vn -0.192700 0.541321 0.818437
vn -0.768364 0.240066 0.593283
vn -0.209375 -0.202155 0.956711
vn -0.192700 0.541321 0.818437
vn -0.625522 0.753787 0.201312
vn -0.768364 0.240066 0.593283
vn 0.014983 -0.708953 0.705097
vn -0.283987 -0.953922 -0.096873
vn 0.487797 -0.793420 0.364059
vn 0.487797 -0.793420 0.364059
vn 0.383101 -0.077269 0.920469
vn 0.014983 -0.708953 0.705097
vn 0.891168 -0.239520 -0.385293
vn 0.440787 -0.038227 -0.896797
vn 0.835439 0.540331 -0.100421
vn 0.891168 -0.239520 -0.385293
vn 0.672039 -0.704348 -0.228598
vn 0.440787 -0.038227 -0.896797
s off
g Rock5
usemtl Rock12SG
f 12/12/1 2/2/2 3/3/3
f 5/5/4 17/17/5 1/1/6
f 6/6/7 10/10/8 16/16/9
f 1/1/10 19/19/11 13/13/12
f 15/15/13 20/20/14 10/10/15
f 7/7/16 20/22/17 11/11/18
f 12/12/19 3/3/20 14/14/21
f 11/11/22 20/22/23 15/23/24
f 9/9/25 7/7/26 11/11/27
f 18/18/28 8/8/29 2/2/30
f 9/9/31 8/8/32 17/24/33
f 1/1/34 17/17/35 19/19/36
f 8/8/37 9/9/38 2/2/39
f 9/9/40 3/3/41 2/2/42
f 1/1/43 10/10/44 5/5/45
f 10/10/46 1/1/47 16/16/48
f 3/3/49 11/11/50 21/21/51
f 11/11/52 3/3/53 9/9/54
f 2/25/55 12/26/56 4/4/57
f 19/19/58 18/27/59 13/13/60
f 4/4/61 12/26/62 13/13/63
f 13/13/64 16/16/65 1/1/66
f 6/6/67 12/26/68 14/28/69
f 10/10/70 6/6/71 15/15/72
f 11/11/73 15/23/74 21/21/75
f 6/6/76 14/28/77 15/15/78
f 13/13/79 12/26/80 16/16/81
f 6/6/82 16/16/83 12/26/84
f 9/9/85 17/24/86 7/7/87
f 5/5/88 7/29/89 17/17/90
f 13/13/91 18/27/92 4/4/93
f 18/27/94 2/25/95 4/4/96
f 8/30/97 19/19/98 17/17/99
f 8/30/100 18/27/101 19/19/102
f 5/5/103 10/10/104 20/20/105
f 20/20/106 7/29/107 5/5/108
f 21/21/109 14/14/110 3/3/111
f 21/21/112 15/23/113 14/14/114
