# This file uses centimeters as units for non-parametric coordinates.

mtllib Rock6.mtl
g default
v 6.588086 15.434590 6.781097
v 4.054006 39.619999 4.193359
v 20.867691 29.693958 -4.882584
v -18.455246 8.214649 -3.872177
v -16.963768 23.577581 10.987640
v -1.257258 0.000000 -4.328720
v -4.421830 43.514816 -9.405457
v 8.788400 32.571392 -14.505997
v -15.786197 41.506416 2.235458
v 5.980145 3.701511 2.154922
v 19.674694 25.159719 -11.378632
v -20.867691 34.924961 -9.741867
v -16.740528 28.408857 -13.702576
v -2.733535 46.079254 -1.725067
v -8.064776 40.238045 7.574677
v -11.143941 15.797475 12.229935
v -7.304847 3.821161 -9.004578
v -10.656934 24.168829 14.505997
vt 0.837281 0.114511
vt 0.811787 0.086035
vt 0.798159 0.110113
vt 0.934254 0.813924
vt 0.842309 0.049128
vt 0.938744 0.785300
vt 0.785750 0.071239
vt 0.880089 0.780671
vt 0.805985 0.057172
vt 0.948993 0.773644
vt 0.893600 0.759132
vt 0.788174 0.039054
vt 0.900897 0.828610
vt 0.799872 0.073864
vt 0.816664 0.066603
vt 0.958134 0.817289
vt 0.928913 0.795640
vt 0.843029 0.066138
vt 0.774301 0.101174
vt 0.767397 0.039436
vt 0.788673 0.122239
vt 0.843868 0.133631
vt 0.968304 0.782989
vt 0.954579 0.838701
vt 0.904317 0.843701
vt 0.966369 0.830748
vn -0.779771 0.005773 0.626038
vn -0.637963 0.709076 0.300356
vn -0.820518 0.380639 -0.426455
vn 0.533244 -0.168575 0.828995
vn 0.933265 0.318338 0.166362
vn 0.495424 0.574987 0.651110
vn -0.198956 -0.659434 -0.724958
vn -0.432848 -0.014565 -0.901350
vn 0.299794 0.363261 -0.882136
vn 0.299794 0.363261 -0.882136
vn -0.432848 -0.014565 -0.901350
vn -0.013699 0.790254 -0.612626
vn -0.247227 -0.491255 0.835193
vn -0.791441 -0.603808 -0.095061
vn 0.099922 -0.984347 -0.145178
vn 0.533244 -0.168575 0.828995
vn 0.495424 0.574987 0.651110
vn -0.074407 0.089376 0.993215
vn 0.099922 -0.984347 -0.145178
vn 0.510961 -0.763915 0.394149
vn -0.247227 -0.491255 0.835193
vn 0.510961 -0.763915 0.394149
vn 0.099922 -0.984347 -0.145178
vn 0.788669 -0.123892 -0.602206
vn 0.495424 0.574987 0.651110
vn 0.933265 0.318338 0.166362
vn 0.140208 0.988378 0.058749
vn -0.078487 0.617824 0.782390
vn -0.637963 0.709076 0.300356
vn -0.779771 0.005773 0.626038
vn -0.013699 0.790254 -0.612626
vn 0.933265 0.318338 0.166362
vn 0.299794 0.363261 -0.882136
vn 0.788669 -0.123892 -0.602206
vn 0.933265 0.318338 0.166362
vn 0.510961 -0.763915 0.394149
vn -0.078487 0.617824 0.782390
vn 0.140208 0.988378 0.058749
vn -0.637963 0.709076 0.300356
vn -0.820518 0.380639 -0.426455
vn -0.637963 0.709076 0.300356
vn -0.013699 0.790254 -0.612626
vn 0.933265 0.318338 0.166362
vn 0.533244 -0.168575 0.828995
vn 0.510961 -0.763915 0.394149
vn 0.510961 -0.763915 0.394149
vn 0.533244 -0.168575 0.828995
vn -0.247227 -0.491255 0.835193
vn 0.299794 0.363261 -0.882136
vn 0.933265 0.318338 0.166362
vn 0.788669 -0.123892 -0.602206
vn 0.788669 -0.123892 -0.602206
vn -0.198956 -0.659434 -0.724958
vn 0.299794 0.363261 -0.882136
vn -0.779771 0.005773 0.626038
vn -0.820518 0.380639 -0.426455
vn -0.791441 -0.603808 -0.095061
vn -0.791441 -0.603808 -0.095061
vn -0.432848 -0.014565 -0.901350
vn -0.198956 -0.659434 -0.724958
vn -0.791441 -0.603808 -0.095061
vn -0.820518 0.380639 -0.426455
vn -0.432848 -0.014565 -0.901350
vn -0.432848 -0.014565 -0.901350
vn -0.820518 0.380639 -0.426455
vn -0.013699 0.790254 -0.612626
vn -0.013699 0.790254 -0.612626
vn 0.140208 0.988378 0.058749
vn 0.933265 0.318338 0.166362
vn -0.637963 0.709076 0.300356
vn 0.140208 0.988378 0.058749
vn -0.013699 0.790254 -0.612626
vn 0.495424 0.574987 0.651110
vn 0.140208 0.988378 0.058749
vn -0.078487 0.617824 0.782390
vn 0.495424 0.574987 0.651110
vn -0.078487 0.617824 0.782390
vn -0.074407 0.089376 0.993215
vn -0.779771 0.005773 0.626038
vn -0.791441 -0.603808 -0.095061
vn -0.247227 -0.491255 0.835193
vn -0.078487 0.617824 0.782390
vn -0.779771 0.005773 0.626038
vn -0.074407 0.089376 0.993215
vn 0.099922 -0.984347 -0.145178
vn -0.198956 -0.659434 -0.724958
vn 0.788669 -0.123892 -0.602206
vn -0.791441 -0.603808 -0.095061
vn -0.198956 -0.659434 -0.724958
vn 0.099922 -0.984347 -0.145178
vn -0.247227 -0.491255 0.835193
vn 0.533244 -0.168575 0.828995
vn -0.074407 0.089376 0.993215
vn -0.247227 -0.491255 0.835193
vn -0.074407 0.089376 0.993215
vn -0.779771 0.005773 0.626038
s off
g Rock6
usemtl Rock11SG
f 5/5/1 9/9/2 12/12/3
f 1/1/4 3/3/5 2/2/6
f 17/17/7 13/13/8 8/8/9
f 8/19/10 13/20/11 7/7/12
f 16/16/13 4/4/14 6/6/15
f 1/1/16 2/2/17 18/18/18
f 6/6/19 10/10/20 16/16/21
f 10/10/22 6/6/23 11/11/24
f 2/2/25 3/3/26 14/14/27
f 15/15/28 9/9/29 5/5/30
f 7/7/31 3/3/32 8/19/33
f 11/21/34 3/3/35 10/22/36
f 15/15/37 14/14/38 9/9/39
f 12/12/40 9/9/41 7/7/42
f 3/3/43 1/1/44 10/22/45
f 10/10/46 1/23/47 16/16/48
f 8/19/49 3/3/50 11/21/51
f 11/11/52 17/17/53 8/8/54
f 5/24/55 12/25/56 4/4/57
f 4/4/58 13/13/59 17/17/60
f 4/4/61 12/25/62 13/13/63
f 13/20/64 12/12/65 7/7/66
f 7/7/67 14/14/68 3/3/69
f 9/9/70 14/14/71 7/7/72
f 2/2/73 14/14/74 15/15/75
f 2/2/76 15/15/77 18/18/78
f 5/24/79 4/4/80 16/16/81
f 15/15/82 5/5/83 18/18/84
f 6/6/85 17/17/86 11/11/87
f 4/4/88 17/17/89 6/6/90
f 16/16/91 1/23/92 18/26/93
f 16/16/94 18/26/95 5/24/96
