{
  "accessors": [
    {
      "bufferView": 0,
      "componentType": 5125,
      "count": 2610,
      "type": "SCALAR"
    },
    {
      "bufferView": 1,
      "componentType": 5126,
      "count": 499,
      "max": [
        12806.9306640625,
        12806.9296875,
        12736.775390625
      ],
      "min": [
        -12806.9345703125,
        0.0,
        -12736.7822265625
      ],
      "type": "VEC3"
    },
    {
      "bufferView": 2,
      "componentType": 5126,
      "count": 499,
      "type": "VEC3"
    },
    {
      "bufferView": 3,
      "componentType": 5126,
      "count": 499,
      "type": "VEC4"
    },
    {
      "bufferView": 4,
      "componentType": 5126,
      "count": 499,
      "type": "VEC2"
    }
  ],
  "asset": {
    "generator": "Adobe Substance 3D Painter 11.0.3",
    "version": "2.0"
  },
  "bufferViews": [
    {
      "buffer": 0,
      "byteLength": 10440,
      "target": 34963
    },
    {
      "buffer": 0,
      "byteLength": 5988,
      "byteOffset": 10440,
      "target": 34962
    },
    {
      "buffer": 0,
      "byteLength": 5988,
      "byteOffset": 16428,
      "target": 34962
    },
    {
      "buffer": 0,
      "byteLength": 7984,
      "byteOffset": 22416,
      "target": 34962
    },
    {
      "buffer": 0,
      "byteLength": 3992,
      "byteOffset": 30400,
      "target": 34962
    }
  ],
  "buffers": [
    {
      "byteLength": 34392,
      "uri": "SkyboxTest.bin"
    }
  ],
  "images": [
    {
      "uri": "SkyboxTest_baseColor.png"
    },
    {
      "uri": "SkyboxTest_occlusionRoughnessMetallic.png"
    },
    {
      "uri": "SkyboxTest_normal.png"
    },
    {
      "uri": "SkyboxTest_emissive.png"
    }
  ],
  "materials": [
    {
      "alphaMode": "BLEND",
      "emissiveFactor": [
        1.0,
        1.0,
        1.0
      ],
      "emissiveTexture": {
        "index": 3
      },
      "name": "SkyboxTest",
      "normalTexture": {
        "index": 2
      },
      "occlusionTexture": {
        "index": 1
      },
      "pbrMetallicRoughness": {
        "baseColorTexture": {
          "index": 0
        },
        "metallicRoughnessTexture": {
          "index": 1
        }
      }
    }
  ],
  "meshes": [
    {
      "name": "Skybox",
      "primitives": [
        {
          "attributes": {
            "NORMAL": 2,
            "POSITION": 1,
            "TANGENT": 3,
            "TEXCOORD_0": 4
          },
          "indices": 0,
          "material": 0,
          "mode": 4
        }
      ]
    }
  ],
  "nodes": [
    {
      "children": [
        1
      ],
      "name": "RootNode"
    },
    {
      "children": [
        2
      ],
      "name": "Skybox",
      "scale": [
        0.00999999977648258,
        0.00999999977648258,
        0.00999999977648258
      ]
    },
    {
      "mesh": 0,
      "name": "Skybox"
    }
  ],
  "samplers": [
    {
      "magFilter": 9729,
      "minFilter": 9985,
      "wrapS": 10497,
      "wrapT": 10497
    }
  ],
  "scene": 0,
  "scenes": [
    {
      "name": "Scene",
      "nodes": [
        0
      ]
    }
  ],
  "textures": [
    {
      "sampler": 0,
      "source": 0
    },
    {
      "sampler": 0,
      "source": 1
    },
    {
      "sampler": 0,
      "source": 2
    },
    {
      "sampler": 0,
      "source": 3
    }
  ]
}