{
	"asset":{
		"generator":"Khronos glTF Blender I/O v4.5.48",
		"version":"2.0"
	},
	"scene":0,
	"scenes":[
		{
			"name":"Scene",
			"nodes":[
				3
			]
		}
	],
	"nodes":[
		{
			"name":"Body"
		},
		{
			"name":"Propeller",
			"translation":[
				0,
				1.0827648639678955,
				0
			]
		},
		{
			"mesh":0,
			"name":"SkyEnemy",
			"skin":0
		},
		{
			"children":[
				2,
				0,
				1
			],
			"name":"Armature"
		}
	],
	"animations":[
		{
			"channels":[
				{
					"sampler":0,
					"target":{
						"node":0,
						"path":"translation"
					}
				},
				{
					"sampler":1,
					"target":{
						"node":0,
						"path":"rotation"
					}
				},
				{
					"sampler":2,
					"target":{
						"node":0,
						"path":"scale"
					}
				},
				{
					"sampler":3,
					"target":{
						"node":1,
						"path":"translation"
					}
				},
				{
					"sampler":4,
					"target":{
						"node":1,
						"path":"rotation"
					}
				},
				{
					"sampler":5,
					"target":{
						"node":1,
						"path":"scale"
					}
				}
			],
			"name":"ArmatureAction",
			"samplers":[
				{
					"input":7,
					"interpolation":"STEP",
					"output":8
				},
				{
					"input":7,
					"interpolation":"STEP",
					"output":9
				},
				{
					"input":7,
					"interpolation":"STEP",
					"output":10
				},
				{
					"input":7,
					"interpolation":"STEP",
					"output":11
				},
				{
					"input":12,
					"interpolation":"LINEAR",
					"output":13
				},
				{
					"input":7,
					"interpolation":"STEP",
					"output":10
				}
			]
		}
	],
	"materials":[
		{
			"doubleSided":true,
			"emissiveFactor":[
				1,
				1,
				1
			],
			"emissiveTexture":{
				"index":0
			},
			"name":"standardSurface1",
			"normalTexture":{
				"index":1
			},
			"pbrMetallicRoughness":{
				"baseColorTexture":{
					"index":2
				},
				"metallicRoughnessTexture":{
					"index":3
				}
			}
		}
	],
	"meshes":[
		{
			"name":"Mesh",
			"primitives":[
				{
					"attributes":{
						"POSITION":0,
						"NORMAL":1,
						"TEXCOORD_0":2,
						"JOINTS_0":3,
						"WEIGHTS_0":4
					},
					"indices":5,
					"material":0
				}
			]
		}
	],
	"textures":[
		{
			"sampler":0,
			"source":0
		},
		{
			"sampler":0,
			"source":1
		},
		{
			"sampler":0,
			"source":2
		},
		{
			"sampler":0,
			"source":3
		}
	],
	"images":[
		{
			"mimeType":"image/png",
			"name":"SkyEnemy_Enemy1_Emissive",
			"uri":"SkyEnemy_Enemy1_Emissive.png"
		},
		{
			"mimeType":"image/png",
			"name":"SkyEnemy_Enemy1_Normal",
			"uri":"SkyEnemy_Enemy1_Normal.png"
		},
		{
			"mimeType":"image/png",
			"name":"SkyEnemy_Enemy1_BaseColor",
			"uri":"SkyEnemy_Enemy1_BaseColor.png"
		},
		{
			"mimeType":"image/png",
			"name":"SkyEnemy_Enemy1_Metallic-SkyEnemy_Enemy1_Roughness",
			"uri":"SkyEnemy_Enemy1_Metallic-SkyEnemy_Enemy1_Roughness.png"
		}
	],
	"skins":[
		{
			"inverseBindMatrices":6,
			"joints":[
				0,
				1
			],
			"name":"Armature"
		}
	],
	"accessors":[
		{
			"bufferView":0,
			"componentType":5126,
			"count":1319,
			"max":[
				0.45682233572006226,
				1.226800560951233,
				1.0074365139007568
			],
			"min":[
				-0.45682233572006226,
				-1.5657741769814493e-08,
				-1.0074366331100464
			],
			"type":"VEC3"
		},
		{
			"bufferView":1,
			"componentType":5126,
			"count":1319,
			"type":"VEC3"
		},
		{
			"bufferView":2,
			"componentType":5126,
			"count":1319,
			"type":"VEC2"
		},
		{
			"bufferView":3,
			"componentType":5121,
			"count":1319,
			"type":"VEC4"
		},
		{
			"bufferView":4,
			"componentType":5126,
			"count":1319,
			"type":"VEC4"
		},
		{
			"bufferView":5,
			"componentType":5123,
			"count":4536,
			"type":"SCALAR"
		},
		{
			"bufferView":6,
			"componentType":5126,
			"count":2,
			"type":"MAT4"
		},
		{
			"bufferView":7,
			"componentType":5126,
			"count":2,
			"max":[
				0.3333333333333333
			],
			"min":[
				0
			],
			"type":"SCALAR"
		},
		{
			"bufferView":8,
			"componentType":5126,
			"count":2,
			"type":"VEC3"
		},
		{
			"bufferView":9,
			"componentType":5126,
			"count":2,
			"type":"VEC4"
		},
		{
			"bufferView":10,
			"componentType":5126,
			"count":2,
			"type":"VEC3"
		},
		{
			"bufferView":11,
			"componentType":5126,
			"count":2,
			"type":"VEC3"
		},
		{
			"bufferView":12,
			"componentType":5126,
			"count":21,
			"max":[
				0.3333333333333333
			],
			"min":[
				0
			],
			"type":"SCALAR"
		},
		{
			"bufferView":13,
			"componentType":5126,
			"count":21,
			"type":"VEC4"
		}
	],
	"bufferViews":[
		{
			"buffer":0,
			"byteLength":15828,
			"byteOffset":0,
			"target":34962
		},
		{
			"buffer":0,
			"byteLength":15828,
			"byteOffset":15828,
			"target":34962
		},
		{
			"buffer":0,
			"byteLength":10552,
			"byteOffset":31656,
			"target":34962
		},
		{
			"buffer":0,
			"byteLength":5276,
			"byteOffset":42208,
			"target":34962
		},
		{
			"buffer":0,
			"byteLength":21104,
			"byteOffset":47484,
			"target":34962
		},
		{
			"buffer":0,
			"byteLength":9072,
			"byteOffset":68588,
			"target":34963
		},
		{
			"buffer":0,
			"byteLength":128,
			"byteOffset":77660
		},
		{
			"buffer":0,
			"byteLength":8,
			"byteOffset":77788
		},
		{
			"buffer":0,
			"byteLength":24,
			"byteOffset":77796
		},
		{
			"buffer":0,
			"byteLength":32,
			"byteOffset":77820
		},
		{
			"buffer":0,
			"byteLength":24,
			"byteOffset":77852
		},
		{
			"buffer":0,
			"byteLength":24,
			"byteOffset":77876
		},
		{
			"buffer":0,
			"byteLength":84,
			"byteOffset":77900
		},
		{
			"buffer":0,
			"byteLength":336,
			"byteOffset":77984
		}
	],
	"samplers":[
		{
			"magFilter":9729,
			"minFilter":9987
		}
	],
	"buffers":[
		{
			"byteLength":78320,
			"uri":"SkyEnemy.bin"
		}
	]
}
