{
  "accessors": [
    {
      "bufferView": 0,
      "componentType": 5125,
      "count": 5376,
      "type": "SCALAR"
    },
    {
      "bufferView": 1,
      "componentType": 5126,
      "count": 1122,
      "max": [
        69.6665954589844,
        69.6492080688477,
        -7.76471328735352
      ],
      "min": [
        6.12730503082275,
        -0.500942230224609,
        -71.3040008544922
      ],
      "type": "VEC3"
    },
    {
      "bufferView": 2,
      "componentType": 5126,
      "count": 1122,
      "type": "VEC3"
    },
    {
      "bufferView": 3,
      "componentType": 5126,
      "count": 1122,
      "type": "VEC4"
    },
    {
      "bufferView": 4,
      "componentType": 5126,
      "count": 1122,
      "type": "VEC2"
    },
    {
      "bufferView": 5,
      "componentType": 5125,
      "count": 5376,
      "type": "SCALAR"
    },
    {
      "bufferView": 6,
      "componentType": 5126,
      "count": 1122,
      "max": [
        34.3377380371094,
        69.8576354980469,
        34.4665946960449
      ],
      "min": [
        -34.3377418518066,
        43.759449005127,
        -34.4215698242188
      ],
      "type": "VEC3"
    },
    {
      "bufferView": 7,
      "componentType": 5126,
      "count": 1122,
      "type": "VEC3"
    },
    {
      "bufferView": 8,
      "componentType": 5126,
      "count": 1122,
      "type": "VEC4"
    },
    {
      "bufferView": 9,
      "componentType": 5126,
      "count": 1122,
      "type": "VEC2"
    },
    {
      "bufferView": 10,
      "componentType": 5125,
      "count": 5376,
      "type": "SCALAR"
    },
    {
      "bufferView": 11,
      "componentType": 5126,
      "count": 1122,
      "max": [
        34.3377380371094,
        47.6116943359375,
        40.1999092102051
      ],
      "min": [
        -34.3377418518066,
        21.5135116577148,
        -28.68825340271
      ],
      "type": "VEC3"
    },
    {
      "bufferView": 12,
      "componentType": 5126,
      "count": 1122,
      "type": "VEC3"
    },
    {
      "bufferView": 13,
      "componentType": 5126,
      "count": 1122,
      "type": "VEC4"
    },
    {
      "bufferView": 14,
      "componentType": 5126,
      "count": 1122,
      "type": "VEC2"
    },
    {
      "bufferView": 15,
      "componentType": 5125,
      "count": 5376,
      "type": "SCALAR"
    },
    {
      "bufferView": 16,
      "componentType": 5126,
      "count": 1123,
      "max": [
        34.3377380371094,
        23.6195793151855,
        34.3377380371094
      ],
      "min": [
        -34.3377418518066,
        -7.62939453125e-06,
        -34.3377342224121
      ],
      "type": "VEC3"
    },
    {
      "bufferView": 17,
      "componentType": 5126,
      "count": 1123,
      "type": "VEC3"
    },
    {
      "bufferView": 18,
      "componentType": 5126,
      "count": 1123,
      "type": "VEC4"
    },
    {
      "bufferView": 19,
      "componentType": 5126,
      "count": 1123,
      "type": "VEC2"
    }
  ],
  "asset": {
    "generator": "Adobe Substance 3D Painter 11.0.3",
    "version": "2.0"
  },
  "bufferViews": [
    {
      "buffer": 0,
      "byteLength": 21504,
      "target": 34963
    },
    {
      "buffer": 0,
      "byteLength": 13464,
      "byteOffset": 21504,
      "target": 34962
    },
    {
      "buffer": 0,
      "byteLength": 13464,
      "byteOffset": 34968,
      "target": 34962
    },
    {
      "buffer": 0,
      "byteLength": 17952,
      "byteOffset": 48432,
      "target": 34962
    },
    {
      "buffer": 0,
      "byteLength": 8976,
      "byteOffset": 66384,
      "target": 34962
    },
    {
      "buffer": 0,
      "byteLength": 21504,
      "byteOffset": 75360,
      "target": 34963
    },
    {
      "buffer": 0,
      "byteLength": 13464,
      "byteOffset": 96864,
      "target": 34962
    },
    {
      "buffer": 0,
      "byteLength": 13464,
      "byteOffset": 110328,
      "target": 34962
    },
    {
      "buffer": 0,
      "byteLength": 17952,
      "byteOffset": 123792,
      "target": 34962
    },
    {
      "buffer": 0,
      "byteLength": 8976,
      "byteOffset": 141744,
      "target": 34962
    },
    {
      "buffer": 0,
      "byteLength": 21504,
      "byteOffset": 150720,
      "target": 34963
    },
    {
      "buffer": 0,
      "byteLength": 13464,
      "byteOffset": 172224,
      "target": 34962
    },
    {
      "buffer": 0,
      "byteLength": 13464,
      "byteOffset": 185688,
      "target": 34962
    },
    {
      "buffer": 0,
      "byteLength": 17952,
      "byteOffset": 199152,
      "target": 34962
    },
    {
      "buffer": 0,
      "byteLength": 8976,
      "byteOffset": 217104,
      "target": 34962
    },
    {
      "buffer": 0,
      "byteLength": 21504,
      "byteOffset": 226080,
      "target": 34963
    },
    {
      "buffer": 0,
      "byteLength": 13476,
      "byteOffset": 247584,
      "target": 34962
    },
    {
      "buffer": 0,
      "byteLength": 13476,
      "byteOffset": 261060,
      "target": 34962
    },
    {
      "buffer": 0,
      "byteLength": 17968,
      "byteOffset": 274536,
      "target": 34962
    },
    {
      "buffer": 0,
      "byteLength": 8984,
      "byteOffset": 292504,
      "target": 34962
    }
  ],
  "buffers": [
    {
      "byteLength": 301488,
      "uri": "Tires.bin"
    }
  ],
  "images": [
    {
      "uri": "Tires_baseColor.png"
    },
    {
      "uri": "Tires_occlusionRoughnessMetallic.png"
    },
    {
      "uri": "Tires_normal.png"
    },
    {
      "uri": "Tires_emissive.png"
    }
  ],
  "materials": [
    {
      "alphaMode": "BLEND",
      "emissiveFactor": [
        1.0,
        1.0,
        1.0
      ],
      "emissiveTexture": {
        "index": 3
      },
      "name": "Tires",
      "normalTexture": {
        "index": 2
      },
      "occlusionTexture": {
        "index": 1
      },
      "pbrMetallicRoughness": {
        "baseColorTexture": {
          "index": 0
        },
        "metallicRoughnessTexture": {
          "index": 1
        }
      }
    }
  ],
  "meshes": [
    {
      "name": "Car_Tire_04",
      "primitives": [
        {
          "attributes": {
            "NORMAL": 2,
            "POSITION": 1,
            "TANGENT": 3,
            "TEXCOORD_0": 4
          },
          "indices": 0,
          "material": 0,
          "mode": 4
        }
      ]
    },
    {
      "name": "Car_Tire_03",
      "primitives": [
        {
          "attributes": {
            "NORMAL": 7,
            "POSITION": 6,
            "TANGENT": 8,
            "TEXCOORD_0": 9
          },
          "indices": 5,
          "material": 0,
          "mode": 4
        }
      ]
    },
    {
      "name": "Car_Tire_02",
      "primitives": [
        {
          "attributes": {
            "NORMAL": 12,
            "POSITION": 11,
            "TANGENT": 13,
            "TEXCOORD_0": 14
          },
          "indices": 10,
          "material": 0,
          "mode": 4
        }
      ]
    },
    {
      "name": "Car_Tire_01",
      "primitives": [
        {
          "attributes": {
            "NORMAL": 17,
            "POSITION": 16,
            "TANGENT": 18,
            "TEXCOORD_0": 19
          },
          "indices": 15,
          "material": 0,
          "mode": 4
        }
      ]
    }
  ],
  "nodes": [
    {
      "children": [
        1,
        3,
        5,
        7
      ],
      "name": "Tires.obj",
      "scale": [
        0.00999999977648258,
        0.00999999977648258,
        0.00999999977648258
      ]
    },
    {
      "children": [
        2
      ],
      "name": "Car_Tire_04"
    },
    {
      "mesh": 0,
      "name": "Car_Tire_04"
    },
    {
      "children": [
        4
      ],
      "name": "Car_Tire_03"
    },
    {
      "mesh": 1,
      "name": "Car_Tire_03"
    },
    {
      "children": [
        6
      ],
      "name": "Car_Tire_02"
    },
    {
      "mesh": 2,
      "name": "Car_Tire_02"
    },
    {
      "children": [
        8
      ],
      "name": "Car_Tire_01"
    },
    {
      "mesh": 3,
      "name": "Car_Tire_01"
    }
  ],
  "samplers": [
    {
      "magFilter": 9729,
      "minFilter": 9985,
      "wrapS": 10497,
      "wrapT": 10497
    }
  ],
  "scene": 0,
  "scenes": [
    {
      "name": "Scene",
      "nodes": [
        0
      ]
    }
  ],
  "textures": [
    {
      "sampler": 0,
      "source": 0
    },
    {
      "sampler": 0,
      "source": 1
    },
    {
      "sampler": 0,
      "source": 2
    },
    {
      "sampler": 0,
      "source": 3
    }
  ]
}