{
  "accessors": [
    {
      "bufferView": 0,
      "componentType": 5125,
      "count": 3396,
      "type": "SCALAR"
    },
    {
      "bufferView": 1,
      "componentType": 5126,
      "count": 991,
      "max": [
        111.903617858887,
        131.145202636719,
        247.790618896484
      ],
      "min": [
        -111.903617858887,
        7.62939453125e-06,
        -247.790588378906
      ],
      "type": "VEC3"
    },
    {
      "bufferView": 2,
      "componentType": 5126,
      "count": 991,
      "type": "VEC3"
    },
    {
      "bufferView": 3,
      "componentType": 5126,
      "count": 991,
      "type": "VEC4"
    },
    {
      "bufferView": 4,
      "componentType": 5126,
      "count": 991,
      "type": "VEC2"
    }
  ],
  "asset": {
    "generator": "Adobe Substance 3D Painter 11.0.3",
    "version": "2.0"
  },
  "bufferViews": [
    {
      "buffer": 0,
      "byteLength": 13584,
      "target": 34963
    },
    {
      "buffer": 0,
      "byteLength": 11892,
      "byteOffset": 13584,
      "target": 34962
    },
    {
      "buffer": 0,
      "byteLength": 11892,
      "byteOffset": 25476,
      "target": 34962
    },
    {
      "buffer": 0,
      "byteLength": 15856,
      "byteOffset": 37368,
      "target": 34962
    },
    {
      "buffer": 0,
      "byteLength": 7928,
      "byteOffset": 53224,
      "target": 34962
    }
  ],
  "buffers": [
    {
      "byteLength": 61152,
      "uri": "Truck2.bin"
    }
  ],
  "images": [
    {
      "uri": "Truck2_baseColor.png"
    },
    {
      "uri": "Truck2_occlusionRoughnessMetallic.png"
    },
    {
      "uri": "Truck2_normal.png"
    },
    {
      "uri": "Truck2_emissive.png"
    }
  ],
  "materials": [
    {
      "alphaMode": "BLEND",
      "emissiveFactor": [
        1.0,
        1.0,
        1.0
      ],
      "emissiveTexture": {
        "index": 3
      },
      "name": "Truck2",
      "normalTexture": {
        "index": 2
      },
      "occlusionTexture": {
        "index": 1
      },
      "pbrMetallicRoughness": {
        "baseColorTexture": {
          "index": 0
        },
        "metallicRoughnessTexture": {
          "index": 1
        }
      }
    }
  ],
  "meshes": [
    {
      "name": "Truck2",
      "primitives": [
        {
          "attributes": {
            "NORMAL": 2,
            "POSITION": 1,
            "TANGENT": 3,
            "TEXCOORD_0": 4
          },
          "indices": 0,
          "material": 0,
          "mode": 4
        }
      ]
    }
  ],
  "nodes": [
    {
      "children": [
        1
      ],
      "name": "RootNode"
    },
    {
      "children": [
        2
      ],
      "name": "Truck2",
      "scale": [
        0.00999999977648258,
        0.00999999977648258,
        0.00999999977648258
      ]
    },
    {
      "mesh": 0,
      "name": "Truck2"
    }
  ],
  "samplers": [
    {
      "magFilter": 9729,
      "minFilter": 9985,
      "wrapS": 10497,
      "wrapT": 10497
    }
  ],
  "scene": 0,
  "scenes": [
    {
      "name": "Scene",
      "nodes": [
        0
      ]
    }
  ],
  "textures": [
    {
      "sampler": 0,
      "source": 0
    },
    {
      "sampler": 0,
      "source": 1
    },
    {
      "sampler": 0,
      "source": 2
    },
    {
      "sampler": 0,
      "source": 3
    }
  ]
}