# This file uses centimeters as units for non-parametric coordinates.

mtllib Floor.mtl
g default
v -119.678810 0.000000 119.678810
v 119.678810 0.000000 119.678810
v -119.678810 0.000000 -119.678810
v 119.678810 0.000000 -119.678810
vt 0.000000 0.000000
vt 1.000000 0.000000
vt 0.000000 1.000000
vt 1.000000 1.000000
vn 0.000000 1.000000 0.000000
vn 0.000000 1.000000 0.000000
vn 0.000000 1.000000 0.000000
vn 0.000000 1.000000 0.000000
s off
g Floor
usemtl initialShadingGroup
f 1/1/1 2/2/2 4/4/3 3/3/4
