# This file uses centimeters as units for non-parametric coordinates.

mtllib MetalPillar1.mtl
g default
v 35.078674 193.106232 -41.297943
v 35.078674 199.965759 -41.297943
v 32.954826 193.106232 -41.297943
v 32.954826 199.965759 -41.297943
v 35.078598 193.192474 41.398251
v 35.078598 200.052002 41.398251
v 32.954750 193.192474 41.398251
v 32.954750 200.052002 41.398251
v 37.335098 185.688385 -43.514557
v 26.796360 221.544708 -43.514557
v 37.335098 221.544708 -32.975815
v 37.335098 221.544708 -43.514557
v 37.335098 185.688385 -32.975815
v 26.796360 185.688385 -43.514557
v 39.673302 185.688385 -45.827812
v 26.796360 221.544708 -45.833084
v 39.653625 221.544708 -32.975815
v 39.673302 221.544708 -45.827812
v 39.653625 185.688385 -32.975815
v 26.796360 185.688385 -45.833084
v 37.335098 185.688385 43.514557
v 26.796360 221.544708 43.514557
v 37.335098 221.544708 32.975815
v 37.335098 221.544708 43.514557
v 37.335098 185.688385 32.975815
v 26.796360 185.688385 43.514557
v 39.673302 185.688385 45.827812
v 26.796360 221.544708 45.833084
v 39.653625 221.544708 32.975815
v 39.673302 221.544708 45.827812
v 39.653625 185.688385 32.975815
v 26.796360 185.688385 45.833084
v 35.143642 0.000000 41.297939
v 35.143642 200.000000 31.297939
v 25.143635 200.000000 41.297939
v 35.143642 200.000000 41.297939
v 25.143635 -0.000000 41.297939
v 35.143642 0.000000 31.297939
v 37.338634 0.000000 43.516613
v 37.343639 200.000000 31.297939
v 25.143642 200.000000 43.497936
v 37.338634 200.000000 43.516613
v 25.143642 0.000000 43.497936
v 37.343639 0.000000 31.297939
v 35.143642 0.000000 -41.297939
v 35.143642 200.000000 -31.297939
v 25.143635 200.000000 -41.297939
v 35.143642 200.000000 -41.297939
v 25.143635 0.000000 -41.297939
v 35.143642 0.000000 -31.297939
v 37.338634 -0.000000 -43.516613
v 37.343639 200.000000 -31.297939
v 25.143642 200.000000 -43.497936
v 37.338634 200.000000 -43.516613
v 25.143642 0.000000 -43.497936
v 37.343639 0.000000 -31.297939
v -35.078667 193.106232 -41.297943
v -35.078667 199.965759 -41.297943
v -32.954819 193.106232 -41.297943
v -32.954819 199.965759 -41.297943
v -35.078590 193.192474 41.398251
v -35.078590 200.052002 41.398251
v -32.954742 193.192474 41.398251
v -32.954742 200.052002 41.398251
v -37.335098 185.688385 -43.514557
v -26.796360 221.544708 -43.514557
v -37.335098 221.544708 -32.975815
v -37.335098 221.544708 -43.514557
v -37.335098 185.688385 -32.975815
v -26.796360 185.688385 -43.514557
v -39.673302 185.688385 -45.827812
v -26.796360 221.544708 -45.833084
v -39.653625 221.544708 -32.975815
v -39.673302 221.544708 -45.827812
v -39.653625 185.688385 -32.975815
v -26.796360 185.688385 -45.833084
v -37.335098 185.688385 43.514557
v -26.796360 221.544708 43.514557
v -37.335098 221.544708 32.975815
v -37.335098 221.544708 43.514557
v -37.335098 185.688385 32.975815
v -26.796360 185.688385 43.514557
v -39.673302 185.688385 45.827812
v -26.796360 221.544708 45.833084
v -39.653625 221.544708 32.975815
v -39.673302 221.544708 45.827812
v -39.653625 185.688385 32.975815
v -26.796360 185.688385 45.833084
v -35.143642 -0.000000 41.297939
v -35.143642 200.000000 31.297939
v -25.143635 200.000000 41.297939
v -35.143642 200.000000 41.297939
v -25.143635 -0.000000 41.297939
v -35.143642 0.000000 31.297939
v -37.338634 -0.000000 43.516613
v -37.343639 200.000000 31.297939
v -25.143642 200.000000 43.497936
v -37.338634 200.000000 43.516613
v -25.143642 0.000000 43.497936
v -37.343639 0.000000 31.297939
v -35.143642 0.000000 -41.297939
v -35.143642 200.000000 -31.297939
v -25.143635 200.000000 -41.297939
v -35.143642 200.000000 -41.297939
v -25.143635 -0.000000 -41.297939
v -35.143642 0.000000 -31.297939
v -37.338634 -0.000000 -43.516613
v -37.343639 200.000000 -31.297939
v -25.143642 200.000000 -43.497936
v -37.338634 200.000000 -43.516613
v -25.143642 0.000000 -43.497936
v -37.343639 0.000000 -31.297939
v 35.078674 193.106232 -41.297943
v 35.078674 199.965759 -41.297943
v 32.954826 193.106232 -41.297943
v 32.954826 199.965759 -41.297943
v 35.078598 193.192474 41.384399
v 35.078598 200.052002 41.384399
v 32.954750 193.192474 41.384399
v 32.954750 200.052002 41.384399
v 32.954735 67.403595 41.235622
v 32.954735 74.263115 41.235622
v 35.078583 67.403595 41.235622
v 35.078583 74.263115 41.235622
v 32.954834 117.403595 -40.915176
v 32.954834 124.263130 -40.915176
v 35.078682 117.403595 -40.915176
v 35.078682 124.263130 -40.915176
v 35.078674 125.174141 -40.915176
v 35.078674 132.033661 -40.915176
v 32.954826 125.174141 -40.915176
v 32.954826 132.033661 -40.915176
v 35.078598 175.174133 41.132313
v 35.078598 182.033661 41.132313
v 32.954750 175.174133 41.132313
v 32.954750 182.033661 41.132313
v 35.078674 11.153328 -41.141609
v 35.078674 18.012856 -41.141609
v 32.954826 11.153328 -41.141609
v 32.954826 18.012856 -41.141609
v 35.078606 61.153320 41.235622
v 35.078606 68.012856 41.235622
v 32.954758 61.153320 41.235622
v 32.954758 68.012856 41.235622
v -32.928352 193.106232 -39.008812
v -32.928352 199.965759 -39.008812
v -32.928337 193.106232 -41.132648
v -32.928337 199.965759 -41.132648
v 34.926548 193.192474 -39.008896
v 34.926548 200.052002 -39.008896
v 34.926556 193.192474 -41.132729
v 34.926556 200.052002 -41.132729
v 34.831989 67.403595 -38.866074
v 34.831989 74.263115 -38.866074
v 34.831989 67.403595 -40.989922
v 34.831989 74.263115 -40.989922
v -35.285465 117.403595 -38.866173
v -35.285465 124.263130 -38.866173
v -35.285465 117.403595 -40.990021
v -35.285465 124.263130 -40.990021
v -35.285465 125.174141 -40.990013
v -35.285465 132.033661 -40.990013
v -35.285465 125.174141 -38.866165
v -35.285465 132.033661 -38.866165
v 34.505840 175.174133 -40.989937
v 34.505840 182.033661 -40.989937
v 34.505840 175.174133 -38.866089
v 34.505840 182.033661 -38.866089
v -32.837822 11.153328 -40.990013
v -32.837822 18.012856 -40.990013
v -32.837822 11.153328 -38.866165
v -32.837822 18.012856 -38.866165
v 34.831989 61.153320 -40.989944
v 34.831989 68.012856 -40.989944
v 34.831989 61.153320 -38.866096
v 34.831989 68.012856 -38.866096
v -32.954735 67.403595 41.235622
v -32.954735 74.263115 41.235622
v -35.078583 67.403595 41.235622
v -35.078583 74.263115 41.235622
v -32.954834 117.403595 -40.915176
v -32.954834 124.263130 -40.915176
v -35.078682 117.403595 -40.915176
v -35.078682 124.263130 -40.915176
v -35.078674 125.174141 -40.915176
v -35.078674 132.033661 -40.915176
v -32.954826 125.174141 -40.915176
v -32.954826 132.033661 -40.915176
v -35.078598 175.174133 41.132313
v -35.078598 182.033661 41.132313
v -32.954750 175.174133 41.132313
v -32.954750 182.033661 41.132313
v -35.078674 11.153328 -41.141609
v -35.078674 18.012856 -41.141609
v -32.954826 11.153328 -41.141609
v -32.954826 18.012856 -41.141609
v -35.078606 61.153320 41.235622
v -35.078606 68.012856 41.235622
v -32.954758 61.153320 41.235622
v -32.954758 68.012856 41.235622
v -32.928352 193.106232 39.008812
v -32.928352 199.965759 39.008812
v -32.928337 193.106232 41.132648
v -32.928337 199.965759 41.132648
v 34.926548 193.192474 39.008896
v 34.926548 200.052002 39.008896
v 34.926556 193.192474 41.132729
v 34.926556 200.052002 41.132729
v 34.831989 67.403595 38.866074
v 34.831989 74.263115 38.866074
v 34.831989 67.403595 40.989922
v 34.831989 74.263115 40.989922
v -35.285465 117.403595 38.866173
v -35.285465 124.263130 38.866173
v -35.285465 117.403595 40.990021
v -35.285465 124.263130 40.990021
v -35.285465 125.174141 40.990013
v -35.285465 132.033661 40.990013
v -35.285465 125.174141 38.866165
v -35.285465 132.033661 38.866165
v 34.505840 175.174133 40.989937
v 34.505840 182.033661 40.989937
v 34.505840 175.174133 38.866089
v 34.505840 182.033661 38.866089
v -32.837822 11.153328 40.990013
v -32.837822 18.012856 40.990013
v -32.837822 11.153328 38.866165
v -32.837822 18.012856 38.866165
v 34.831989 61.153320 40.989944
v 34.831989 68.012856 40.989944
v 34.831989 61.153320 38.866096
v 34.831989 68.012856 38.866096
vt 0.324734 0.876911
vt 0.332572 0.876920
vt 0.332545 0.902236
vt 0.324706 0.902227
vt 0.324734 0.869073
vt 0.027370 0.869067
vt 0.027344 0.843751
vt 0.324708 0.843757
vt 0.019532 0.876897
vt 0.027370 0.876905
vt 0.027342 0.902221
vt 0.019504 0.902213
vt 0.027342 0.910059
vt 0.324706 0.910066
vt 0.944940 0.946688
vt 0.946128 0.816038
vt 0.984528 0.816387
vt 0.983340 0.947038
vt 0.906540 0.946339
vt 0.907728 0.815689
vt 0.851263 0.945837
vt 0.804343 0.945410
vt 0.805531 0.814760
vt 0.852451 0.815186
vt 0.898092 0.946262
vt 0.899280 0.815612
vt 0.842670 0.954191
vt 0.850784 0.992665
vt 0.842336 0.992592
vt 0.797083 0.814683
vt 0.795895 0.945333
vt 0.844011 0.806677
vt 0.805611 0.806312
vt 0.844376 0.768277
vt 0.852824 0.768357
vt 0.804269 0.953858
vt 0.946128 0.816038
vt 0.984528 0.816387
vt 0.983340 0.947038
vt 0.944940 0.946688
vt 0.907728 0.815689
vt 0.906540 0.946339
vt 0.852451 0.815186
vt 0.851263 0.945836
vt 0.804343 0.945410
vt 0.805531 0.814760
vt 0.899280 0.815612
vt 0.898092 0.946262
vt 0.844011 0.806677
vt 0.844376 0.768277
vt 0.852824 0.768357
vt 0.795895 0.945333
vt 0.797082 0.814683
vt 0.842670 0.954191
vt 0.804269 0.953858
vt 0.842336 0.992592
vt 0.850784 0.992665
vt 0.805611 0.806312
vt 0.644892 0.779660
vt 0.644810 0.050888
vt 0.681249 0.050884
vt 0.681330 0.779656
vt 0.608453 0.779664
vt 0.608372 0.050892
vt 0.733870 0.779650
vt 0.689347 0.779655
vt 0.689266 0.050883
vt 0.733789 0.050878
vt 0.778307 0.779645
vt 0.778226 0.050873
vt 0.786323 0.779644
vt 0.786242 0.050872
vt 0.741881 0.787722
vt 0.778320 0.787662
vt 0.741799 0.042804
vt 0.733834 0.006354
vt 0.741850 0.006366
vt 0.778237 0.042856
vt 0.741941 0.824160
vt 0.733925 0.824174
vt 0.049653 0.050888
vt 0.086091 0.050883
vt 0.086172 0.779656
vt 0.049733 0.779660
vt 0.013214 0.050892
vt 0.013295 0.779664
vt 0.138631 0.050878
vt 0.138712 0.779650
vt 0.094189 0.779655
vt 0.094107 0.050883
vt 0.183068 0.050873
vt 0.183149 0.779645
vt 0.191084 0.050872
vt 0.191165 0.779644
vt 0.146641 0.042804
vt 0.183079 0.042856
vt 0.146723 0.787722
vt 0.146783 0.824160
vt 0.138767 0.824174
vt 0.183162 0.787662
vt 0.146692 0.006366
vt 0.138676 0.006354
vt 0.019026 0.956842
vt 0.019054 0.981838
vt 0.011315 0.981847
vt 0.011287 0.956851
vt 0.019025 0.949104
vt 0.019048 0.924108
vt 0.320382 0.924076
vt 0.320359 0.949072
vt 0.328098 0.956802
vt 0.328127 0.981797
vt 0.320388 0.981806
vt 0.320359 0.956810
vt 0.320389 0.989545
vt 0.019055 0.989577
vt 0.946128 0.816038
vt 0.984528 0.816387
vt 0.983340 0.947038
vt 0.944940 0.946688
vt 0.907728 0.815689
vt 0.906540 0.946339
vt 0.852451 0.815186
vt 0.851263 0.945837
vt 0.804343 0.945410
vt 0.805531 0.814760
vt 0.899280 0.815612
vt 0.898092 0.946262
vt 0.844011 0.806677
vt 0.844376 0.768277
vt 0.852824 0.768357
vt 0.795895 0.945333
vt 0.797082 0.814683
vt 0.842670 0.954191
vt 0.804269 0.953858
vt 0.842336 0.992592
vt 0.850784 0.992665
vt 0.805611 0.806312
vt 0.944940 0.946688
vt 0.946128 0.816038
vt 0.984528 0.816387
vt 0.983340 0.947038
vt 0.906540 0.946339
vt 0.907728 0.815689
vt 0.851263 0.945836
vt 0.804343 0.945410
vt 0.805531 0.814760
vt 0.852451 0.815186
vt 0.898092 0.946262
vt 0.899280 0.815612
vt 0.842670 0.954191
vt 0.850784 0.992665
vt 0.842336 0.992592
vt 0.797082 0.814683
vt 0.795895 0.945333
vt 0.844011 0.806677
vt 0.805611 0.806312
vt 0.844376 0.768277
vt 0.852824 0.768357
vt 0.804269 0.953858
vt 0.247373 0.050888
vt 0.283811 0.050883
vt 0.283892 0.779656
vt 0.247454 0.779660
vt 0.210934 0.050892
vt 0.211015 0.779664
vt 0.336351 0.050878
vt 0.336432 0.779651
vt 0.291909 0.779655
vt 0.291828 0.050883
vt 0.380788 0.050873
vt 0.380869 0.779645
vt 0.388804 0.050872
vt 0.388885 0.779645
vt 0.344361 0.042804
vt 0.380799 0.042856
vt 0.344444 0.787722
vt 0.344503 0.824160
vt 0.336487 0.824174
vt 0.380882 0.787662
vt 0.344413 0.006366
vt 0.336396 0.006354
vt 0.451166 0.779660
vt 0.451085 0.050888
vt 0.487523 0.050883
vt 0.487604 0.779656
vt 0.414727 0.779664
vt 0.414646 0.050892
vt 0.540144 0.779651
vt 0.495621 0.779655
vt 0.495540 0.050883
vt 0.540063 0.050878
vt 0.584581 0.779645
vt 0.584500 0.050873
vt 0.592597 0.779644
vt 0.592516 0.050872
vt 0.548155 0.787722
vt 0.584594 0.787662
vt 0.548073 0.042804
vt 0.540108 0.006354
vt 0.548124 0.006366
vt 0.584511 0.042856
vt 0.548215 0.824160
vt 0.540199 0.824174
vt 0.324734 0.876911
vt 0.332572 0.876920
vt 0.332545 0.902236
vt 0.324706 0.902227
vt 0.324734 0.869073
vt 0.027370 0.869067
vt 0.027344 0.843751
vt 0.324708 0.843757
vt 0.019532 0.876896
vt 0.027370 0.876905
vt 0.027342 0.902221
vt 0.019504 0.902212
vt 0.027342 0.910059
vt 0.324706 0.910066
vt 0.873894 0.404165
vt 0.866155 0.404166
vt 0.866152 0.379170
vt 0.873891 0.379170
vt 0.924336 0.404159
vt 0.924375 0.754591
vt 0.903025 0.767589
vt 0.902986 0.417157
vt 0.866194 0.754598
vt 0.873933 0.754597
vt 0.873936 0.779592
vt 0.866197 0.779593
vt 0.895247 0.417158
vt 0.895286 0.767590
vt 0.899452 0.006651
vt 0.907077 0.006650
vt 0.907079 0.031275
vt 0.899455 0.031276
vt 0.928289 0.018763
vt 0.928328 0.372083
vt 0.907119 0.384596
vt 0.907121 0.409221
vt 0.899497 0.409222
vt 0.899494 0.384597
vt 0.935952 0.372083
vt 0.935913 0.018762
vt 0.957125 0.031270
vt 0.957164 0.384590
vt 0.990195 0.771564
vt 0.982456 0.771565
vt 0.982453 0.746570
vt 0.990192 0.746569
vt 0.961088 0.759541
vt 0.961048 0.408404
vt 0.982414 0.395433
vt 0.982412 0.370437
vt 0.990151 0.370437
vt 0.990153 0.395432
vt 0.953309 0.408405
vt 0.953348 0.759542
vt 0.931980 0.746575
vt 0.931941 0.395438
vt 0.841734 0.277255
vt 0.866728 0.277451
vt 0.866668 0.285189
vt 0.841673 0.284994
vt 0.833995 0.277185
vt 0.809001 0.276926
vt 0.811250 0.029682
vt 0.836243 0.029941
vt 0.844043 0.022272
vt 0.869037 0.022468
vt 0.868976 0.030207
vt 0.843982 0.030011
vt 0.876715 0.030277
vt 0.874467 0.277521
vt 0.873894 0.404165
vt 0.866155 0.404166
vt 0.866152 0.379170
vt 0.873891 0.379170
vt 0.924336 0.404159
vt 0.924375 0.754591
vt 0.903025 0.767589
vt 0.902986 0.417157
vt 0.866194 0.754598
vt 0.873933 0.754597
vt 0.873936 0.779592
vt 0.866197 0.779593
vt 0.895247 0.417158
vt 0.895286 0.767590
vt 0.899452 0.006651
vt 0.907077 0.006651
vt 0.907079 0.031276
vt 0.899455 0.031276
vt 0.928289 0.018763
vt 0.928328 0.372084
vt 0.907119 0.384596
vt 0.907121 0.409221
vt 0.899497 0.409222
vt 0.899494 0.384597
vt 0.935952 0.372083
vt 0.935913 0.018762
vt 0.957125 0.031270
vt 0.957164 0.384590
vt 0.990195 0.771564
vt 0.982456 0.771565
vt 0.982453 0.746570
vt 0.990192 0.746569
vt 0.961088 0.759541
vt 0.961049 0.408404
vt 0.982414 0.395433
vt 0.982412 0.370437
vt 0.990151 0.370437
vt 0.990153 0.395432
vt 0.953309 0.408405
vt 0.953348 0.759542
vt 0.931980 0.746575
vt 0.931941 0.395438
vt 0.982431 0.395520
vt 0.982428 0.370487
vt 0.990179 0.370486
vt 0.990181 0.395519
vt 0.931913 0.395526
vt 0.953298 0.408538
vt 0.953337 0.759501
vt 0.931952 0.746488
vt 0.990220 0.746482
vt 0.990223 0.771514
vt 0.982472 0.771515
vt 0.982470 0.746482
vt 0.961087 0.759500
vt 0.961048 0.408537
vt 0.798847 0.776869
vt 0.798844 0.752244
vt 0.806469 0.752243
vt 0.806471 0.776868
vt 0.827681 0.764751
vt 0.806429 0.398922
vt 0.827641 0.411430
vt 0.806427 0.374297
vt 0.798805 0.398923
vt 0.798802 0.374298
vt 0.835266 0.411429
vt 0.856475 0.398917
vt 0.856514 0.752237
vt 0.835305 0.764750
vt 0.866225 0.779643
vt 0.866222 0.754685
vt 0.873949 0.754684
vt 0.873952 0.779642
vt 0.895286 0.767631
vt 0.873910 0.404078
vt 0.895247 0.417025
vt 0.873908 0.379120
vt 0.866183 0.404079
vt 0.866180 0.379121
vt 0.902974 0.417024
vt 0.924308 0.404072
vt 0.924347 0.754679
vt 0.903013 0.767631
vt 0.843982 0.029979
vt 0.844063 0.022241
vt 0.869056 0.022500
vt 0.868976 0.030239
vt 0.836244 0.029909
vt 0.833996 0.277153
vt 0.809001 0.276958
vt 0.811249 0.029714
vt 0.841654 0.284962
vt 0.841734 0.277223
vt 0.866728 0.277483
vt 0.866648 0.285221
vt 0.874467 0.277553
vt 0.876715 0.030309
vt 0.982431 0.395520
vt 0.982428 0.370487
vt 0.990179 0.370486
vt 0.990181 0.395519
vt 0.931913 0.395526
vt 0.953298 0.408538
vt 0.953337 0.759501
vt 0.931952 0.746488
vt 0.990220 0.746482
vt 0.990223 0.771515
vt 0.982472 0.771515
vt 0.982470 0.746482
vt 0.961087 0.759500
vt 0.961048 0.408537
vt 0.798847 0.776869
vt 0.798844 0.752244
vt 0.806469 0.752243
vt 0.806471 0.776868
vt 0.827681 0.764751
vt 0.806429 0.398922
vt 0.827641 0.411430
vt 0.806427 0.374297
vt 0.798805 0.398923
vt 0.798802 0.374298
vt 0.835266 0.411429
vt 0.856475 0.398917
vt 0.856514 0.752237
vt 0.835305 0.764750
vt 0.866225 0.779643
vt 0.866222 0.754685
vt 0.873949 0.754684
vt 0.873952 0.779642
vt 0.895286 0.767631
vt 0.873910 0.404078
vt 0.895247 0.417025
vt 0.873908 0.379120
vt 0.866183 0.404078
vt 0.866180 0.379121
vt 0.902974 0.417024
vt 0.924308 0.404072
vt 0.924347 0.754679
vt 0.903013 0.767630
vn 0.000001 0.000000 -1.000000
vn 0.000001 0.000000 -1.000000
vn 0.000001 0.000000 -1.000000
vn 0.000001 0.000000 -1.000000
vn -1.000000 0.000000 -0.000001
vn -1.000000 0.000000 -0.000001
vn -1.000000 0.000000 -0.000001
vn -1.000000 0.000000 -0.000001
vn -0.000001 0.000000 1.000000
vn -0.000001 0.000000 1.000000
vn -0.000001 0.000000 1.000000
vn -0.000001 0.000000 1.000000
vn 1.000000 0.000000 0.000001
vn 1.000000 0.000000 0.000001
vn 1.000000 0.000000 0.000001
vn 1.000000 0.000000 0.000001
vn -0.000000 -0.999999 0.001017
vn -0.000000 -0.999999 0.001017
vn -0.000000 -0.999999 0.001017
vn -0.000000 -0.999999 0.001017
vn 0.000000 0.999999 -0.001017
vn 0.000000 0.999999 -0.001017
vn 0.000000 0.999999 -0.001017
vn 0.000000 0.999999 -0.001017
vn -0.000000 0.000000 1.000000
vn -0.000000 0.000000 1.000000
vn -0.000000 0.000000 1.000000
vn -0.000000 0.000000 1.000000
vn -1.000000 0.000000 0.000000
vn -1.000000 0.000000 0.000000
vn -1.000000 0.000000 0.000000
vn -1.000000 0.000000 0.000000
vn 0.000409 0.000000 -1.000000
vn 0.000409 0.000000 -1.000000
vn 0.000409 0.000000 -1.000000
vn 0.000409 0.000000 -1.000000
vn 0.999999 0.000000 0.001531
vn 0.999999 0.000000 0.001531
vn 0.999999 0.000000 0.001531
vn 0.999999 0.000000 0.001531
vn -0.000001 0.000000 1.000000
vn -0.000001 0.000000 1.000000
vn -0.000001 0.000000 1.000000
vn -0.000001 0.000000 1.000000
vn 0.000000 -1.000000 0.000000
vn 0.000000 -1.000000 0.000000
vn 0.000000 -1.000000 0.000000
vn 0.000000 -1.000000 0.000000
vn -1.000000 0.000000 0.000000
vn -1.000000 0.000000 0.000000
vn -1.000000 0.000000 0.000000
vn -1.000000 0.000000 0.000000
vn 0.000000 1.000000 0.000000
vn 0.000000 1.000000 0.000000
vn 0.000000 1.000000 0.000000
vn 0.000000 1.000000 0.000000
vn 0.000000 1.000000 0.000000
vn 0.000000 1.000000 0.000000
vn 0.000000 1.000000 0.000000
vn 0.000000 1.000000 0.000000
vn 0.000000 -1.000000 0.000000
vn 0.000000 -1.000000 0.000000
vn 0.000000 -1.000000 0.000000
vn 0.000000 -1.000000 0.000000
vn -0.000000 0.000000 -1.000000
vn -0.000000 0.000000 -1.000000
vn -0.000000 0.000000 -1.000000
vn -0.000000 0.000000 -1.000000
vn -1.000000 0.000000 0.000000
vn -1.000000 0.000000 0.000000
vn -1.000000 0.000000 0.000000
vn -1.000000 0.000000 0.000000
vn 0.000409 0.000000 1.000000
vn 0.000409 0.000000 1.000000
vn 0.000409 0.000000 1.000000
vn 0.000409 0.000000 1.000000
vn 0.999999 0.000000 -0.001531
vn 0.999999 0.000000 -0.001531
vn 0.999999 0.000000 -0.001531
vn 0.999999 0.000000 -0.001531
vn -0.000001 0.000000 -1.000000
vn -0.000001 0.000000 -1.000000
vn -0.000001 0.000000 -1.000000
vn -0.000001 0.000000 -1.000000
vn 0.000000 -1.000000 0.000000
vn 0.000000 -1.000000 0.000000
vn 0.000000 -1.000000 0.000000
vn 0.000000 -1.000000 0.000000
vn -1.000000 0.000000 0.000000
vn -1.000000 0.000000 0.000000
vn -1.000000 0.000000 0.000000
vn -1.000000 0.000000 0.000000
vn 0.000000 1.000000 0.000000
vn 0.000000 1.000000 0.000000
vn 0.000000 1.000000 0.000000
vn 0.000000 1.000000 0.000000
vn 0.000000 1.000000 0.000000
vn 0.000000 1.000000 0.000000
vn 0.000000 1.000000 0.000000
vn 0.000000 1.000000 0.000000
vn 0.000000 -1.000000 0.000000
vn 0.000000 -1.000000 0.000000
vn 0.000000 -1.000000 0.000000
vn 0.000000 -1.000000 0.000000
vn -1.000000 0.000000 -0.000000
vn -1.000000 0.000000 -0.000000
vn -1.000000 0.000000 -0.000000
vn -1.000000 0.000000 -0.000000
vn 0.000000 0.000000 -1.000000
vn 0.000000 0.000000 -1.000000
vn 0.000000 0.000000 -1.000000
vn 0.000000 0.000000 -1.000000
vn 1.000000 0.000000 0.000409
vn 1.000000 0.000000 0.000409
vn 1.000000 0.000000 0.000409
vn 1.000000 0.000000 0.000409
vn -0.001531 0.000000 0.999999
vn -0.001531 0.000000 0.999999
vn -0.001531 0.000000 0.999999
vn -0.001531 0.000000 0.999999
vn -1.000000 0.000000 0.000000
vn -1.000000 0.000000 0.000000
vn -1.000000 0.000000 0.000000
vn -1.000000 0.000000 0.000000
vn 0.000000 -1.000000 0.000000
vn 0.000000 -1.000000 0.000000
vn 0.000000 -1.000000 0.000000
vn 0.000000 -1.000000 0.000000
vn 0.000001 0.000000 -1.000000
vn 0.000001 0.000000 -1.000000
vn 0.000001 0.000000 -1.000000
vn 0.000001 0.000000 -1.000000
vn 0.000000 1.000000 -0.000000
vn 0.000000 1.000000 -0.000000
vn 0.000000 1.000000 -0.000000
vn 0.000000 1.000000 -0.000000
vn 0.000000 1.000000 0.000000
vn 0.000000 1.000000 0.000000
vn 0.000000 1.000000 0.000000
vn 0.000000 1.000000 0.000000
vn -0.000000 -1.000000 0.000000
vn -0.000000 -1.000000 0.000000
vn -0.000000 -1.000000 0.000000
vn -0.000000 -1.000000 0.000000
vn -1.000000 0.000000 0.000000
vn -1.000000 0.000000 0.000000
vn -1.000000 0.000000 0.000000
vn -1.000000 0.000000 0.000000
vn 0.000000 0.000000 1.000000
vn 0.000000 0.000000 1.000000
vn 0.000000 0.000000 1.000000
vn 0.000000 0.000000 1.000000
vn 1.000000 0.000000 -0.000409
vn 1.000000 0.000000 -0.000409
vn 1.000000 0.000000 -0.000409
vn 1.000000 0.000000 -0.000409
vn -0.001531 0.000000 -0.999999
vn -0.001531 0.000000 -0.999999
vn -0.001531 0.000000 -0.999999
vn -0.001531 0.000000 -0.999999
vn -1.000000 0.000000 -0.000000
vn -1.000000 0.000000 -0.000000
vn -1.000000 0.000000 -0.000000
vn -1.000000 0.000000 -0.000000
vn 0.000000 -1.000000 0.000000
vn 0.000000 -1.000000 0.000000
vn 0.000000 -1.000000 0.000000
vn 0.000000 -1.000000 0.000000
vn 0.000001 0.000000 1.000000
vn 0.000001 0.000000 1.000000
vn 0.000001 0.000000 1.000000
vn 0.000001 0.000000 1.000000
vn 0.000000 1.000000 0.000000
vn 0.000000 1.000000 0.000000
vn 0.000000 1.000000 0.000000
vn 0.000000 1.000000 0.000000
vn 0.000000 1.000000 0.000000
vn 0.000000 1.000000 0.000000
vn 0.000000 1.000000 0.000000
vn 0.000000 1.000000 0.000000
vn -0.000000 -1.000000 -0.000000
vn -0.000000 -1.000000 -0.000000
vn -0.000000 -1.000000 -0.000000
vn -0.000000 -1.000000 -0.000000
vn -0.000001 0.000000 -1.000000
vn -0.000001 0.000000 -1.000000
vn -0.000001 0.000000 -1.000000
vn -0.000001 0.000000 -1.000000
vn 1.000000 0.000000 -0.000001
vn 1.000000 0.000000 -0.000001
vn 1.000000 0.000000 -0.000001
vn 1.000000 0.000000 -0.000001
vn 0.000001 0.000000 1.000000
vn 0.000001 0.000000 1.000000
vn 0.000001 0.000000 1.000000
vn 0.000001 0.000000 1.000000
vn -1.000000 0.000000 0.000001
vn -1.000000 0.000000 0.000001
vn -1.000000 0.000000 0.000001
vn -1.000000 0.000000 0.000001
vn 0.000000 -1.000000 0.001017
vn 0.000000 -1.000000 0.001017
vn 0.000000 -1.000000 0.001017
vn 0.000000 -1.000000 0.001017
vn -0.000000 1.000000 -0.001017
vn -0.000000 1.000000 -0.001017
vn -0.000000 1.000000 -0.001017
vn -0.000000 1.000000 -0.001017
vn 0.000000 0.000000 1.000000
vn 0.000000 0.000000 1.000000
vn 0.000000 0.000000 1.000000
vn 0.000000 0.000000 1.000000
vn 1.000000 0.000000 0.000000
vn 1.000000 0.000000 0.000000
vn 1.000000 0.000000 0.000000
vn 1.000000 0.000000 0.000000
vn -0.000409 0.000000 -1.000000
vn -0.000409 0.000000 -1.000000
vn -0.000409 0.000000 -1.000000
vn -0.000409 0.000000 -1.000000
vn -0.999999 0.000000 0.001531
vn -0.999999 0.000000 0.001531
vn -0.999999 0.000000 0.001531
vn -0.999999 0.000000 0.001531
vn 0.000001 0.000000 1.000000
vn 0.000001 0.000000 1.000000
vn 0.000001 0.000000 1.000000
vn 0.000001 0.000000 1.000000
vn 0.000000 -1.000000 0.000000
vn 0.000000 -1.000000 0.000000
vn 0.000000 -1.000000 0.000000
vn 0.000000 -1.000000 0.000000
vn 1.000000 0.000000 0.000000
vn 1.000000 0.000000 0.000000
vn 1.000000 0.000000 0.000000
vn 1.000000 0.000000 0.000000
vn 0.000000 1.000000 0.000000
vn 0.000000 1.000000 0.000000
vn 0.000000 1.000000 0.000000
vn 0.000000 1.000000 0.000000
vn 0.000000 1.000000 0.000000
vn 0.000000 1.000000 0.000000
vn 0.000000 1.000000 0.000000
vn 0.000000 1.000000 0.000000
vn 0.000000 -1.000000 0.000000
vn 0.000000 -1.000000 0.000000
vn 0.000000 -1.000000 0.000000
vn 0.000000 -1.000000 0.000000
vn 0.000000 0.000000 -1.000000
vn 0.000000 0.000000 -1.000000
vn 0.000000 0.000000 -1.000000
vn 0.000000 0.000000 -1.000000
vn 1.000000 0.000000 0.000000
vn 1.000000 0.000000 0.000000
vn 1.000000 0.000000 0.000000
vn 1.000000 0.000000 0.000000
vn -0.000409 0.000000 1.000000
vn -0.000409 0.000000 1.000000
vn -0.000409 0.000000 1.000000
vn -0.000409 0.000000 1.000000
vn -0.999999 0.000000 -0.001531
vn -0.999999 0.000000 -0.001531
vn -0.999999 0.000000 -0.001531
vn -0.999999 0.000000 -0.001531
vn 0.000001 0.000000 -1.000000
vn 0.000001 0.000000 -1.000000
vn 0.000001 0.000000 -1.000000
vn 0.000001 0.000000 -1.000000
vn 0.000000 -1.000000 0.000000
vn 0.000000 -1.000000 0.000000
vn 0.000000 -1.000000 0.000000
vn 0.000000 -1.000000 0.000000
vn 1.000000 0.000000 0.000000
vn 1.000000 0.000000 0.000000
vn 1.000000 0.000000 0.000000
vn 1.000000 0.000000 0.000000
vn 0.000000 1.000000 0.000000
vn 0.000000 1.000000 0.000000
vn 0.000000 1.000000 0.000000
vn 0.000000 1.000000 0.000000
vn 0.000000 1.000000 0.000000
vn 0.000000 1.000000 0.000000
vn 0.000000 1.000000 0.000000
vn 0.000000 1.000000 0.000000
vn 0.000000 -1.000000 0.000000
vn 0.000000 -1.000000 0.000000
vn 0.000000 -1.000000 0.000000
vn 0.000000 -1.000000 0.000000
vn 1.000000 0.000000 -0.000000
vn 1.000000 0.000000 -0.000000
vn 1.000000 0.000000 -0.000000
vn 1.000000 0.000000 -0.000000
vn -0.000000 0.000000 -1.000000
vn -0.000000 0.000000 -1.000000
vn -0.000000 0.000000 -1.000000
vn -0.000000 0.000000 -1.000000
vn -1.000000 0.000000 0.000409
vn -1.000000 0.000000 0.000409
vn -1.000000 0.000000 0.000409
vn -1.000000 0.000000 0.000409
vn 0.001531 0.000000 0.999999
vn 0.001531 0.000000 0.999999
vn 0.001531 0.000000 0.999999
vn 0.001531 0.000000 0.999999
vn 1.000000 0.000000 0.000000
vn 1.000000 0.000000 0.000000
vn 1.000000 0.000000 0.000000
vn 1.000000 0.000000 0.000000
vn 0.000000 -1.000000 0.000000
vn 0.000000 -1.000000 0.000000
vn 0.000000 -1.000000 0.000000
vn 0.000000 -1.000000 0.000000
vn -0.000001 0.000000 -1.000000
vn -0.000001 0.000000 -1.000000
vn -0.000001 0.000000 -1.000000
vn -0.000001 0.000000 -1.000000
vn -0.000000 1.000000 -0.000000
vn -0.000000 1.000000 -0.000000
vn -0.000000 1.000000 -0.000000
vn -0.000000 1.000000 -0.000000
vn 0.000000 1.000000 0.000000
vn 0.000000 1.000000 0.000000
vn 0.000000 1.000000 0.000000
vn 0.000000 1.000000 0.000000
vn 0.000000 -1.000000 0.000000
vn 0.000000 -1.000000 0.000000
vn 0.000000 -1.000000 0.000000
vn 0.000000 -1.000000 0.000000
vn 1.000000 0.000000 0.000000
vn 1.000000 0.000000 0.000000
vn 1.000000 0.000000 0.000000
vn 1.000000 0.000000 0.000000
vn -0.000000 0.000000 1.000000
vn -0.000000 0.000000 1.000000
vn -0.000000 0.000000 1.000000
vn -0.000000 0.000000 1.000000
vn -1.000000 0.000000 -0.000409
vn -1.000000 0.000000 -0.000409
vn -1.000000 0.000000 -0.000409
vn -1.000000 0.000000 -0.000409
vn 0.001531 0.000000 -0.999999
vn 0.001531 0.000000 -0.999999
vn 0.001531 0.000000 -0.999999
vn 0.001531 0.000000 -0.999999
vn 1.000000 0.000000 -0.000000
vn 1.000000 0.000000 -0.000000
vn 1.000000 0.000000 -0.000000
vn 1.000000 0.000000 -0.000000
vn 0.000000 -1.000000 0.000000
vn 0.000000 -1.000000 0.000000
vn 0.000000 -1.000000 0.000000
vn 0.000000 -1.000000 0.000000
vn -0.000001 0.000000 1.000000
vn -0.000001 0.000000 1.000000
vn -0.000001 0.000000 1.000000
vn -0.000001 0.000000 1.000000
vn -0.000000 1.000000 0.000000
vn -0.000000 1.000000 0.000000
vn -0.000000 1.000000 0.000000
vn -0.000000 1.000000 0.000000
vn 0.000000 1.000000 0.000000
vn 0.000000 1.000000 0.000000
vn 0.000000 1.000000 0.000000
vn 0.000000 1.000000 0.000000
vn 0.000000 -1.000000 -0.000000
vn 0.000000 -1.000000 -0.000000
vn 0.000000 -1.000000 -0.000000
vn 0.000000 -1.000000 -0.000000
vn 0.000001 0.000000 -1.000000
vn 0.000001 0.000000 -1.000000
vn 0.000001 0.000000 -1.000000
vn 0.000001 0.000000 -1.000000
vn -1.000000 0.000000 -0.000001
vn -1.000000 0.000000 -0.000001
vn -1.000000 0.000000 -0.000001
vn -1.000000 0.000000 -0.000001
vn -0.000001 0.000000 1.000000
vn -0.000001 0.000000 1.000000
vn -0.000001 0.000000 1.000000
vn -0.000001 0.000000 1.000000
vn 1.000000 0.000000 0.000001
vn 1.000000 0.000000 0.000001
vn 1.000000 0.000000 0.000001
vn 1.000000 0.000000 0.000001
vn -0.000000 -0.999999 0.001017
vn -0.000000 -0.999999 0.001017
vn -0.000000 -0.999999 0.001017
vn -0.000000 -0.999999 0.001017
vn 0.000000 0.999999 -0.001017
vn 0.000000 0.999999 -0.001017
vn 0.000000 0.999999 -0.001017
vn 0.000000 0.999999 -0.001017
vn -0.000001 0.000000 1.000000
vn -0.000001 0.000000 1.000000
vn -0.000001 0.000000 1.000000
vn -0.000001 0.000000 1.000000
vn 1.000000 0.000000 0.000001
vn 1.000000 0.000000 0.000001
vn 1.000000 0.000000 0.000001
vn 1.000000 0.000000 0.000001
vn 0.000001 0.000000 -1.000000
vn 0.000001 0.000000 -1.000000
vn 0.000001 0.000000 -1.000000
vn 0.000001 0.000000 -1.000000
vn -1.000000 0.000000 -0.000001
vn -1.000000 0.000000 -0.000001
vn -1.000000 0.000000 -0.000001
vn -1.000000 0.000000 -0.000001
vn 0.000000 -0.861343 -0.508025
vn 0.000000 -0.861343 -0.508025
vn 0.000000 -0.861343 -0.508025
vn 0.000000 -0.861343 -0.508025
vn -0.000000 0.861343 0.508025
vn -0.000000 0.861343 0.508025
vn -0.000000 0.861343 0.508025
vn -0.000000 0.861343 0.508025
vn 0.000001 0.000000 -1.000000
vn 0.000001 0.000000 -1.000000
vn 0.000001 0.000000 -1.000000
vn 0.000001 0.000000 -1.000000
vn -1.000000 0.000000 -0.000001
vn -1.000000 0.000000 -0.000001
vn -1.000000 0.000000 -0.000001
vn -1.000000 0.000000 -0.000001
vn -0.000001 0.000000 1.000000
vn -0.000001 0.000000 1.000000
vn -0.000001 0.000000 1.000000
vn -0.000001 0.000000 1.000000
vn 1.000000 0.000000 0.000001
vn 1.000000 0.000000 0.000001
vn 1.000000 0.000000 0.000001
vn 1.000000 0.000000 0.000001
vn -0.000000 -0.861343 0.508024
vn -0.000000 -0.861343 0.508024
vn -0.000000 -0.861343 0.508024
vn -0.000000 -0.861343 0.508024
vn 0.000000 0.861343 -0.508024
vn 0.000000 0.861343 -0.508024
vn 0.000000 0.861343 -0.508024
vn 0.000000 0.861343 -0.508024
vn 0.000001 0.000000 -1.000000
vn 0.000001 0.000000 -1.000000
vn 0.000001 0.000000 -1.000000
vn 0.000001 0.000000 -1.000000
vn -1.000000 0.000000 -0.000001
vn -1.000000 0.000000 -0.000001
vn -1.000000 0.000000 -0.000001
vn -1.000000 0.000000 -0.000001
vn -0.000001 0.000000 1.000000
vn -0.000001 0.000000 1.000000
vn -0.000001 0.000000 1.000000
vn -0.000001 0.000000 1.000000
vn 1.000000 0.000000 0.000001
vn 1.000000 0.000000 0.000001
vn 1.000000 0.000000 0.000001
vn 1.000000 0.000000 0.000001
vn -0.000000 -0.861343 0.508025
vn -0.000000 -0.861343 0.508025
vn -0.000000 -0.861343 0.508025
vn -0.000000 -0.861343 0.508025
vn 0.000000 0.861343 -0.508025
vn 0.000000 0.861343 -0.508025
vn 0.000000 0.861343 -0.508025
vn 0.000000 0.861343 -0.508025
vn -1.000000 0.000000 0.000001
vn -1.000000 0.000000 0.000001
vn -1.000000 0.000000 0.000001
vn -1.000000 0.000000 0.000001
vn -0.000001 0.000000 -1.000000
vn -0.000001 0.000000 -1.000000
vn -0.000001 0.000000 -1.000000
vn -0.000001 0.000000 -1.000000
vn 1.000000 0.000000 -0.000001
vn 1.000000 0.000000 -0.000001
vn 1.000000 0.000000 -0.000001
vn 1.000000 0.000000 -0.000001
vn 0.000001 0.000000 1.000000
vn 0.000001 0.000000 1.000000
vn 0.000001 0.000000 1.000000
vn 0.000001 0.000000 1.000000
vn 0.001017 -1.000000 -0.000000
vn 0.001017 -1.000000 -0.000000
vn 0.001017 -1.000000 -0.000000
vn 0.001017 -1.000000 -0.000000
vn -0.001017 1.000000 0.000000
vn -0.001017 1.000000 0.000000
vn -0.001017 1.000000 0.000000
vn -0.001017 1.000000 0.000000
vn 1.000000 0.000000 0.000001
vn 1.000000 0.000000 0.000001
vn 1.000000 0.000000 0.000001
vn 1.000000 0.000000 0.000001
vn 0.000001 0.000000 -1.000000
vn 0.000001 0.000000 -1.000000
vn 0.000001 0.000000 -1.000000
vn 0.000001 0.000000 -1.000000
vn -1.000000 0.000000 -0.000001
vn -1.000000 0.000000 -0.000001
vn -1.000000 0.000000 -0.000001
vn -1.000000 0.000000 -0.000001
vn -0.000001 0.000000 1.000000
vn -0.000001 0.000000 1.000000
vn -0.000001 0.000000 1.000000
vn -0.000001 0.000000 1.000000
vn -0.508025 -0.861343 -0.000000
vn -0.508025 -0.861343 -0.000000
vn -0.508025 -0.861343 -0.000000
vn -0.508025 -0.861343 -0.000000
vn 0.508025 0.861343 0.000000
vn 0.508025 0.861343 0.000000
vn 0.508025 0.861343 0.000000
vn 0.508025 0.861343 0.000000
vn -1.000000 0.000000 -0.000001
vn -1.000000 0.000000 -0.000001
vn -1.000000 0.000000 -0.000001
vn -1.000000 0.000000 -0.000001
vn -0.000001 0.000000 1.000000
vn -0.000001 0.000000 1.000000
vn -0.000001 0.000000 1.000000
vn -0.000001 0.000000 1.000000
vn 1.000000 0.000000 0.000001
vn 1.000000 0.000000 0.000001
vn 1.000000 0.000000 0.000001
vn 1.000000 0.000000 0.000001
vn 0.000001 0.000000 -1.000000
vn 0.000001 0.000000 -1.000000
vn 0.000001 0.000000 -1.000000
vn 0.000001 0.000000 -1.000000
vn 0.508024 -0.861343 0.000000
vn 0.508024 -0.861343 0.000000
vn 0.508024 -0.861343 0.000000
vn 0.508024 -0.861343 0.000000
vn -0.508024 0.861343 -0.000000
vn -0.508024 0.861343 -0.000000
vn -0.508024 0.861343 -0.000000
vn -0.508024 0.861343 -0.000000
vn -1.000000 0.000000 -0.000001
vn -1.000000 0.000000 -0.000001
vn -1.000000 0.000000 -0.000001
vn -1.000000 0.000000 -0.000001
vn -0.000001 0.000000 1.000000
vn -0.000001 0.000000 1.000000
vn -0.000001 0.000000 1.000000
vn -0.000001 0.000000 1.000000
vn 1.000000 0.000000 0.000001
vn 1.000000 0.000000 0.000001
vn 1.000000 0.000000 0.000001
vn 1.000000 0.000000 0.000001
vn 0.000001 0.000000 -1.000000
vn 0.000001 0.000000 -1.000000
vn 0.000001 0.000000 -1.000000
vn 0.000001 0.000000 -1.000000
vn 0.508025 -0.861343 0.000000
vn 0.508025 -0.861343 0.000000
vn 0.508025 -0.861343 0.000000
vn 0.508025 -0.861343 0.000000
vn -0.508025 0.861343 -0.000000
vn -0.508025 0.861343 -0.000000
vn -0.508025 0.861343 -0.000000
vn -0.508025 0.861343 -0.000000
vn 0.000001 0.000000 1.000000
vn 0.000001 0.000000 1.000000
vn 0.000001 0.000000 1.000000
vn 0.000001 0.000000 1.000000
vn -1.000000 0.000000 0.000001
vn -1.000000 0.000000 0.000001
vn -1.000000 0.000000 0.000001
vn -1.000000 0.000000 0.000001
vn -0.000001 0.000000 -1.000000
vn -0.000001 0.000000 -1.000000
vn -0.000001 0.000000 -1.000000
vn -0.000001 0.000000 -1.000000
vn 1.000000 0.000000 -0.000001
vn 1.000000 0.000000 -0.000001
vn 1.000000 0.000000 -0.000001
vn 1.000000 0.000000 -0.000001
vn -0.000000 -0.861343 -0.508025
vn -0.000000 -0.861343 -0.508025
vn -0.000000 -0.861343 -0.508025
vn -0.000000 -0.861343 -0.508025
vn 0.000000 0.861343 0.508025
vn 0.000000 0.861343 0.508025
vn 0.000000 0.861343 0.508025
vn 0.000000 0.861343 0.508025
vn -0.000001 0.000000 -1.000000
vn -0.000001 0.000000 -1.000000
vn -0.000001 0.000000 -1.000000
vn -0.000001 0.000000 -1.000000
vn 1.000000 0.000000 -0.000001
vn 1.000000 0.000000 -0.000001
vn 1.000000 0.000000 -0.000001
vn 1.000000 0.000000 -0.000001
vn 0.000001 0.000000 1.000000
vn 0.000001 0.000000 1.000000
vn 0.000001 0.000000 1.000000
vn 0.000001 0.000000 1.000000
vn -1.000000 0.000000 0.000001
vn -1.000000 0.000000 0.000001
vn -1.000000 0.000000 0.000001
vn -1.000000 0.000000 0.000001
vn 0.000000 -0.861343 0.508024
vn 0.000000 -0.861343 0.508024
vn 0.000000 -0.861343 0.508024
vn 0.000000 -0.861343 0.508024
vn -0.000000 0.861343 -0.508024
vn -0.000000 0.861343 -0.508024
vn -0.000000 0.861343 -0.508024
vn -0.000000 0.861343 -0.508024
vn -0.000001 0.000000 -1.000000
vn -0.000001 0.000000 -1.000000
vn -0.000001 0.000000 -1.000000
vn -0.000001 0.000000 -1.000000
vn 1.000000 0.000000 -0.000001
vn 1.000000 0.000000 -0.000001
vn 1.000000 0.000000 -0.000001
vn 1.000000 0.000000 -0.000001
vn 0.000001 0.000000 1.000000
vn 0.000001 0.000000 1.000000
vn 0.000001 0.000000 1.000000
vn 0.000001 0.000000 1.000000
vn -1.000000 0.000000 0.000001
vn -1.000000 0.000000 0.000001
vn -1.000000 0.000000 0.000001
vn -1.000000 0.000000 0.000001
vn 0.000000 -0.861343 0.508025
vn 0.000000 -0.861343 0.508025
vn 0.000000 -0.861343 0.508025
vn 0.000000 -0.861343 0.508025
vn -0.000000 0.861343 -0.508025
vn -0.000000 0.861343 -0.508025
vn -0.000000 0.861343 -0.508025
vn -0.000000 0.861343 -0.508025
vn -1.000000 0.000000 -0.000001
vn -1.000000 0.000000 -0.000001
vn -1.000000 0.000000 -0.000001
vn -1.000000 0.000000 -0.000001
vn -0.000001 0.000000 1.000000
vn -0.000001 0.000000 1.000000
vn -0.000001 0.000000 1.000000
vn -0.000001 0.000000 1.000000
vn 1.000000 0.000000 0.000001
vn 1.000000 0.000000 0.000001
vn 1.000000 0.000000 0.000001
vn 1.000000 0.000000 0.000001
vn 0.000001 0.000000 -1.000000
vn 0.000001 0.000000 -1.000000
vn 0.000001 0.000000 -1.000000
vn 0.000001 0.000000 -1.000000
vn 0.001017 -0.999999 0.000000
vn 0.001017 -0.999999 0.000000
vn 0.001017 -0.999999 0.000000
vn 0.001017 -0.999999 0.000000
vn -0.001017 0.999999 -0.000000
vn -0.001017 0.999999 -0.000000
vn -0.001017 0.999999 -0.000000
vn -0.001017 0.999999 -0.000000
vn 1.000000 0.000000 -0.000001
vn 1.000000 0.000000 -0.000001
vn 1.000000 0.000000 -0.000001
vn 1.000000 0.000000 -0.000001
vn 0.000001 0.000000 1.000000
vn 0.000001 0.000000 1.000000
vn 0.000001 0.000000 1.000000
vn 0.000001 0.000000 1.000000
vn -1.000000 0.000000 0.000001
vn -1.000000 0.000000 0.000001
vn -1.000000 0.000000 0.000001
vn -1.000000 0.000000 0.000001
vn -0.000001 0.000000 -1.000000
vn -0.000001 0.000000 -1.000000
vn -0.000001 0.000000 -1.000000
vn -0.000001 0.000000 -1.000000
vn -0.508025 -0.861343 0.000000
vn -0.508025 -0.861343 0.000000
vn -0.508025 -0.861343 0.000000
vn -0.508025 -0.861343 0.000000
vn 0.508025 0.861343 -0.000000
vn 0.508025 0.861343 -0.000000
vn 0.508025 0.861343 -0.000000
vn 0.508025 0.861343 -0.000000
vn -1.000000 0.000000 0.000001
vn -1.000000 0.000000 0.000001
vn -1.000000 0.000000 0.000001
vn -1.000000 0.000000 0.000001
vn -0.000001 0.000000 -1.000000
vn -0.000001 0.000000 -1.000000
vn -0.000001 0.000000 -1.000000
vn -0.000001 0.000000 -1.000000
vn 1.000000 0.000000 -0.000001
vn 1.000000 0.000000 -0.000001
vn 1.000000 0.000000 -0.000001
vn 1.000000 0.000000 -0.000001
vn 0.000001 0.000000 1.000000
vn 0.000001 0.000000 1.000000
vn 0.000001 0.000000 1.000000
vn 0.000001 0.000000 1.000000
vn 0.508024 -0.861343 -0.000000
vn 0.508024 -0.861343 -0.000000
vn 0.508024 -0.861343 -0.000000
vn 0.508024 -0.861343 -0.000000
vn -0.508024 0.861343 0.000000
vn -0.508024 0.861343 0.000000
vn -0.508024 0.861343 0.000000
vn -0.508024 0.861343 0.000000
vn -1.000000 0.000000 0.000001
vn -1.000000 0.000000 0.000001
vn -1.000000 0.000000 0.000001
vn -1.000000 0.000000 0.000001
vn -0.000001 0.000000 -1.000000
vn -0.000001 0.000000 -1.000000
vn -0.000001 0.000000 -1.000000
vn -0.000001 0.000000 -1.000000
vn 1.000000 0.000000 -0.000001
vn 1.000000 0.000000 -0.000001
vn 1.000000 0.000000 -0.000001
vn 1.000000 0.000000 -0.000001
vn 0.000001 0.000000 1.000000
vn 0.000001 0.000000 1.000000
vn 0.000001 0.000000 1.000000
vn 0.000001 0.000000 1.000000
vn 0.508025 -0.861343 -0.000000
vn 0.508025 -0.861343 -0.000000
vn 0.508025 -0.861343 -0.000000
vn 0.508025 -0.861343 -0.000000
vn -0.508025 0.861343 0.000000
vn -0.508025 0.861343 0.000000
vn -0.508025 0.861343 0.000000
vn -0.508025 0.861343 0.000000
s off
g MetalPillar1
usemtl lambert1SG
f 1/1/1 3/2/2 4/3/3 2/4/4
f 3/5/5 7/6/6 8/7/7 4/8/8
f 7/9/9 5/10/10 6/11/11 8/12/12
f 5/10/13 1/1/14 2/4/15 6/11/16
f 3/5/17 1/1/18 5/10/19 7/6/20
f 8/13/21 6/11/22 2/4/23 4/14/24
f 9/15/25 12/16/26 10/17/27 14/18/28
f 13/19/29 11/20/30 12/16/31 9/15/32
f 15/21/33 20/22/34 16/23/35 18/24/36
f 19/25/37 15/21/38 18/24/39 17/26/40
f 13/19/41 19/25/42 17/26/43 11/20/44
f 9/27/45 15/21/46 19/28/47 13/29/48
f 10/30/49 16/23/50 20/22/51 14/31/52
f 12/32/53 18/24/54 16/23/55 10/33/56
f 11/34/57 17/35/58 18/24/59 12/32/60
f 14/36/61 20/22/62 15/21/63 9/27/64
f 21/37/65 26/38/66 22/39/67 24/40/68
f 25/41/69 21/37/70 24/40/71 23/42/72
f 27/43/73 30/44/74 28/45/75 32/46/76
f 31/47/77 29/48/78 30/44/79 27/43/80
f 25/41/81 23/42/82 29/48/83 31/47/84
f 21/49/85 25/50/86 31/51/87 27/43/88
f 22/52/89 26/53/90 32/46/91 28/45/92
f 24/54/93 22/55/94 28/45/95 30/44/96
f 23/56/97 24/54/98 30/44/99 29/57/100
f 26/58/101 21/49/102 27/43/103 32/46/104
f 33/59/105 36/60/106 34/61/107 38/62/108
f 37/63/109 35/64/110 36/60/111 33/59/112
f 39/65/113 44/66/114 40/67/115 42/68/116
f 43/69/117 39/65/118 42/68/119 41/70/120
f 37/71/121 43/69/122 41/70/123 35/72/124
f 33/73/125 39/65/126 43/69/127 37/74/128
f 34/61/129 40/67/130 44/66/131 38/62/132
f 36/75/133 42/68/134 40/76/135 34/77/136
f 35/78/137 41/70/138 42/68/139 36/75/140
f 38/79/141 44/80/142 39/65/143 33/73/144
f 45/81/145 50/82/146 46/83/147 48/84/148
f 49/85/149 45/81/150 48/84/151 47/86/152
f 51/87/153 54/88/154 52/89/155 56/90/156
f 55/91/157 53/92/158 54/88/159 51/87/160
f 49/93/161 47/94/162 53/92/163 55/91/164
f 45/95/165 49/96/166 55/91/167 51/87/168
f 46/83/169 50/82/170 56/90/171 52/89/172
f 48/97/173 46/98/174 52/99/175 54/88/176
f 47/100/177 48/97/178 54/88/179 53/92/180
f 50/101/181 45/95/182 51/87/183 56/102/184
f 57/103/185 58/104/186 60/105/187 59/106/188
f 59/107/189 60/108/190 64/109/191 63/110/192
f 63/111/193 64/112/194 62/113/195 61/114/196
f 61/114/197 62/113/198 58/104/199 57/103/200
f 59/107/201 63/110/202 61/114/203 57/103/204
f 64/115/205 60/116/206 58/104/207 62/113/208
f 65/117/209 70/118/210 66/119/211 68/120/212
f 69/121/213 65/117/214 68/120/215 67/122/216
f 71/123/217 74/124/218 72/125/219 76/126/220
f 75/127/221 73/128/222 74/124/223 71/123/224
f 69/121/225 67/122/226 73/128/227 75/127/228
f 65/129/229 69/130/230 75/131/231 71/123/232
f 66/132/233 70/133/234 76/126/235 72/125/236
f 68/134/237 66/135/238 72/125/239 74/124/240
f 67/136/241 68/134/242 74/124/243 73/137/244
f 70/138/245 65/129/246 71/123/247 76/126/248
f 77/139/249 80/140/250 78/141/251 82/142/252
f 81/143/253 79/144/254 80/140/255 77/139/256
f 83/145/257 88/146/258 84/147/259 86/148/260
f 87/149/261 83/145/262 86/148/263 85/150/264
f 81/143/265 87/149/266 85/150/267 79/144/268
f 77/151/269 83/145/270 87/152/271 81/153/272
f 78/154/273 84/147/274 88/146/275 82/155/276
f 80/156/277 86/148/278 84/147/279 78/157/280
f 79/158/281 85/159/282 86/148/283 80/156/284
f 82/160/285 88/146/286 83/145/287 77/151/288
f 89/161/289 94/162/290 90/163/291 92/164/292
f 93/165/293 89/161/294 92/164/295 91/166/296
f 95/167/297 98/168/298 96/169/299 100/170/300
f 99/171/301 97/172/302 98/168/303 95/167/304
f 93/173/305 91/174/306 97/172/307 99/171/308
f 89/175/309 93/176/310 99/171/311 95/167/312
f 90/163/313 94/162/314 100/170/315 96/169/316
f 92/177/317 90/178/318 96/179/319 98/168/320
f 91/180/321 92/177/322 98/168/323 97/172/324
f 94/181/325 89/175/326 95/167/327 100/182/328
f 101/183/329 104/184/330 102/185/331 106/186/332
f 105/187/333 103/188/334 104/184/335 101/183/336
f 107/189/337 112/190/338 108/191/339 110/192/340
f 111/193/341 107/189/342 110/192/343 109/194/344
f 105/195/345 111/193/346 109/194/347 103/196/348
f 101/197/349 107/189/350 111/193/351 105/198/352
f 102/185/353 108/191/354 112/190/355 106/186/356
f 104/199/357 110/192/358 108/200/359 102/201/360
f 103/202/361 109/194/362 110/192/363 104/199/364
f 106/203/365 112/204/366 107/189/367 101/197/368
f 113/205/369 115/206/370 116/207/371 114/208/372
f 115/209/373 119/210/374 120/211/375 116/212/376
f 119/213/377 117/214/378 118/215/379 120/216/380
f 117/214/381 113/205/382 114/208/383 118/215/384
f 115/209/385 113/205/386 117/214/387 119/210/388
f 120/217/389 118/215/390 114/208/391 116/218/392
f 121/219/393 123/220/394 124/221/395 122/222/396
f 123/223/397 127/224/398 128/225/399 124/226/400
f 127/227/401 125/228/402 126/229/403 128/230/404
f 125/228/405 121/219/406 122/231/407 126/232/408
f 123/220/409 121/219/410 125/228/411 127/227/412
f 128/225/413 126/232/414 122/231/415 124/226/416
f 129/233/417 131/234/418 132/235/419 130/236/420
f 131/237/421 135/238/422 136/239/423 132/235/424
f 135/240/425 133/241/426 134/242/427 136/239/428
f 133/243/429 129/244/430 130/245/431 134/246/432
f 131/237/433 129/244/434 133/243/435 135/238/436
f 136/239/437 134/242/438 130/236/439 132/235/440
f 137/247/441 139/248/442 140/249/443 138/250/444
f 139/251/445 143/252/446 144/253/447 140/249/448
f 143/254/449 141/255/450 142/256/451 144/253/452
f 141/257/453 137/258/454 138/259/455 142/260/456
f 139/251/457 137/258/458 141/257/459 143/252/460
f 144/253/461 142/256/462 138/250/463 140/249/464
f 145/261/465 146/262/466 148/263/467 147/264/468
f 147/265/469 148/266/470 152/267/471 151/268/472
f 151/269/473 152/270/474 150/271/475 149/272/476
f 149/272/477 150/271/478 146/262/479 145/261/480
f 147/265/481 151/268/482 149/272/483 145/261/484
f 152/273/485 148/274/486 146/262/487 150/271/488
f 153/275/489 155/276/490 156/277/491 154/278/492
f 155/279/493 159/280/494 160/281/495 156/282/496
f 159/283/497 157/284/498 158/285/499 160/286/500
f 157/284/501 153/275/502 154/287/503 158/288/504
f 155/276/505 153/275/506 157/284/507 159/283/508
f 160/281/509 158/288/510 154/287/511 156/282/512
f 161/289/513 163/290/514 164/291/515 162/292/516
f 163/293/517 167/294/518 168/295/519 164/291/520
f 167/296/521 165/297/522 166/298/523 168/295/524
f 165/299/525 161/300/526 162/301/527 166/302/528
f 163/293/529 161/300/530 165/299/531 167/294/532
f 168/295/533 166/298/534 162/292/535 164/291/536
f 169/303/537 171/304/538 172/305/539 170/306/540
f 171/307/541 175/308/542 176/309/543 172/305/544
f 175/310/545 173/311/546 174/312/547 176/309/548
f 173/313/549 169/314/550 170/315/551 174/316/552
f 171/307/553 169/314/554 173/313/555 175/308/556
f 176/309/557 174/312/558 170/306/559 172/305/560
f 177/317/561 178/318/562 180/319/563 179/320/564
f 179/321/565 180/322/566 184/323/567 183/324/568
f 183/325/569 184/326/570 182/327/571 181/328/572
f 181/328/573 182/329/574 178/330/575 177/317/576
f 179/320/577 183/325/578 181/328/579 177/317/580
f 184/323/581 180/322/582 178/330/583 182/329/584
f 185/331/585 186/332/586 188/333/587 187/334/588
f 187/335/589 188/333/590 192/336/591 191/337/592
f 191/338/593 192/336/594 190/339/595 189/340/596
f 189/341/597 190/342/598 186/343/599 185/344/600
f 187/335/601 191/337/602 189/341/603 185/344/604
f 192/336/605 188/333/606 186/332/607 190/339/608
f 193/345/609 194/346/610 196/347/611 195/348/612
f 195/349/613 196/347/614 200/350/615 199/351/616
f 199/352/617 200/350/618 198/353/619 197/354/620
f 197/355/621 198/356/622 194/357/623 193/358/624
f 195/349/625 199/351/626 197/355/627 193/358/628
f 200/350/629 196/347/630 194/346/631 198/353/632
f 201/359/633 203/360/634 204/361/635 202/362/636
f 203/363/637 207/364/638 208/365/639 204/366/640
f 207/367/641 205/368/642 206/369/643 208/370/644
f 205/368/645 201/359/646 202/362/647 206/369/648
f 203/363/649 201/359/650 205/368/651 207/364/652
f 208/371/653 206/369/654 202/362/655 204/372/656
f 209/373/657 210/374/658 212/375/659 211/376/660
f 211/377/661 212/378/662 216/379/663 215/380/664
f 215/381/665 216/382/666 214/383/667 213/384/668
f 213/384/669 214/385/670 210/386/671 209/373/672
f 211/376/673 215/381/674 213/384/675 209/373/676
f 216/379/677 212/378/678 210/386/679 214/385/680
f 217/387/681 218/388/682 220/389/683 219/390/684
f 219/391/685 220/389/686 224/392/687 223/393/688
f 223/394/689 224/392/690 222/395/691 221/396/692
f 221/397/693 222/398/694 218/399/695 217/400/696
f 219/391/697 223/393/698 221/397/699 217/400/700
f 224/392/701 220/389/702 218/388/703 222/395/704
f 225/401/705 226/402/706 228/403/707 227/404/708
f 227/405/709 228/403/710 232/406/711 231/407/712
f 231/408/713 232/406/714 230/409/715 229/410/716
f 229/411/717 230/412/718 226/413/719 225/414/720
f 227/405/721 231/407/722 229/411/723 225/414/724
f 232/406/725 228/403/726 226/402/727 230/409/728
