# This file uses centimeters as units for non-parametric coordinates.

mtllib MetalPlank1.mtl
g default
v -57.978237 0.000000 0.706554
v 57.978237 0.000000 0.706554
v -57.978237 202.020752 0.706554
v 57.978237 209.223953 0.706554
v -57.978237 202.020752 -0.706554
v 57.978237 209.223953 -0.706554
v -57.978237 0.000000 -0.706554
v 57.978237 0.000000 -0.706554
v 34.786945 207.971222 0.706554
v 34.786945 207.971222 -0.706554
v 34.786945 0.000000 -0.706554
v 34.786945 0.000000 0.706554
v 11.595651 211.103058 5.207603
v 11.595651 211.103058 2.015437
v 11.595651 0.000000 2.015437
v 11.595651 0.000000 5.207603
v -11.595649 207.031677 0.706554
v -11.595649 207.031677 -0.706554
v -11.595649 0.000000 -0.706554
v -11.595649 0.000000 0.706554
v -34.786942 211.103058 5.444207
v -34.786942 211.103058 2.015437
v -34.786942 0.000000 2.015437
v -34.786942 0.000000 5.444207
vt 0.988181 0.004976
vt 0.994080 0.004974
vt 0.994421 0.878419
vt 0.988522 0.878421
vt 0.490586 0.005170
vt 0.496486 0.005168
vt 0.496815 0.848542
vt 0.490916 0.848545
vt 0.743613 0.914170
vt 0.639771 0.934642
vt 0.639675 0.920328
vt 0.743573 0.908271
vt 0.541344 0.915520
vt 0.541305 0.909621
vt 0.443175 0.934966
vt 0.443086 0.921640
vt 0.345356 0.916828
vt 0.345317 0.910929
vt 0.248401 0.917475
vt 0.248361 0.911576
vt 0.743953 0.965118
vt 0.647063 0.954401
vt 0.646967 0.940087
vt 0.743913 0.959219
vt 0.550324 0.966410
vt 0.550285 0.960511
vt 0.453434 0.955693
vt 0.453345 0.942367
vt 0.356695 0.967702
vt 0.356656 0.961803
vt 0.259881 0.968349
vt 0.259842 0.962449
vt 0.595302 0.005130
vt 0.595646 0.886420
vt 0.694118 0.005091
vt 0.694456 0.869384
vt 0.792741 0.005052
vt 0.793085 0.886342
vt 0.891364 0.005014
vt 0.891703 0.873230
vt 0.393450 0.886499
vt 0.393105 0.005209
vt 0.295962 0.869540
vt 0.295624 0.005247
vt 0.198488 0.886575
vt 0.198143 0.005285
vt 0.101001 0.873538
vt 0.100662 0.005323
vt 0.004187 0.878806
vt 0.003846 0.005361
vn -0.200152 0.000000 0.979765
vn 0.001231 0.000000 0.999999
vn 0.016596 0.000000 0.999862
vn -0.200152 0.000000 0.979765
vn -0.364659 0.931141 0.000000
vn -0.108480 0.994099 0.000000
vn -0.106893 0.994271 0.000000
vn -0.364659 0.931141 0.000000
vn 0.116571 0.000000 -0.993182
vn -0.009662 0.000000 -0.999953
vn -0.000708 0.000000 -1.000000
vn 0.116571 0.000000 -0.993182
vn 0.000000 -1.000000 0.000000
vn 0.000000 -1.000000 0.000000
vn 0.000000 -1.000000 0.000000
vn 0.000000 -1.000000 0.000000
vn 1.000000 0.000000 0.000000
vn 1.000000 0.000000 0.000000
vn 1.000000 0.000000 0.000000
vn 1.000000 0.000000 0.000000
vn -1.000000 0.000000 0.000000
vn -1.000000 0.000000 0.000000
vn -1.000000 0.000000 0.000000
vn -1.000000 0.000000 0.000000
vn 0.068000 0.997685 0.000000
vn -0.053939 0.998544 0.000000
vn -0.053939 0.998544 0.000000
vn 0.059595 0.998223 0.000000
vn -0.058716 0.000000 -0.998275
vn -0.060108 0.000000 -0.998192
vn 0.000000 0.000000 -1.000000
vn 0.000000 0.000000 -1.000000
vn 0.000000 -1.000000 0.000000
vn 0.000000 -1.000000 0.000000
vn 0.000000 -1.000000 0.000000
vn 0.000000 -1.000000 0.000000
vn 0.099040 0.000000 0.995083
vn 0.096803 0.000000 0.995304
vn -0.000000 0.000000 1.000000
vn -0.000000 0.000000 1.000000
vn -0.020316 0.999794 0.000000
vn -0.020220 0.999796 0.000000
vn -0.000132 0.000000 -1.000000
vn -0.001758 0.000000 -0.999999
vn 0.000000 -1.000000 0.000000
vn 0.000000 -1.000000 0.000000
vn 0.002874 0.000000 0.999996
vn 0.000218 0.000000 1.000000
vn 0.004878 0.999988 0.000000
vn 0.004397 0.999990 0.000000
vn 0.000000 0.000000 -1.000000
vn 0.000000 0.000000 -1.000000
vn 0.000000 -1.000000 0.000000
vn 0.000000 -1.000000 0.000000
vn 0.005082 0.000000 0.999987
vn 0.005101 0.000000 0.999987
s 1
g MetalPlank1
usemtl initialShadingGroup
f 1/6/1 24/33/2 21/34/3 3/7/4
s 2
f 3/9/5 21/10/6 22/11/7 5/12/8
s 3
f 5/8/9 22/41/10 23/42/11 7/5/12
s 4
f 7/21/13 23/22/14 24/23/15 1/24/16
s off
f 2/1/17 8/2/18 6/3/19 4/4/20
f 7/5/21 1/6/22 3/7/23 5/8/24
s 2
f 9/17/25 4/19/26 6/20/27 10/18/28
s 3
f 11/48/29 10/47/30 6/49/31 8/50/32
s 4
f 12/30/33 11/29/34 8/31/35 2/32/36
s 1
f 9/40/37 12/39/38 2/1/39 4/4/40
s 2
f 13/15/41 9/17/25 10/18/28 14/16/42
s 3
f 15/46/43 14/45/44 10/47/30 11/48/29
s 4
f 16/28/45 15/27/46 11/29/34 12/30/33
s 1
f 13/38/47 16/37/48 12/39/38 9/40/37
s 2
f 17/13/49 13/15/41 14/16/42 18/14/50
s 3
f 19/44/51 18/43/52 14/45/44 15/46/43
s 4
f 20/26/53 19/25/54 15/27/46 16/28/45
s 1
f 17/36/55 20/35/56 16/37/48 13/38/47
s 2
f 21/10/6 17/13/49 18/14/50 22/11/7
s 3
f 23/42/11 22/41/10 18/43/52 19/44/51
s 4
f 24/23/15 23/22/14 19/25/54 20/26/53
s 1
f 21/34/3 24/33/2 20/35/56 17/36/55
