# This file uses centimeters as units for non-parametric coordinates.

mtllib MetalRoof.mtl
g default
v -125.734123 0.000000 58.641437
v 125.734123 0.000000 58.641437
v -125.734123 2.062122 58.641437
v 125.734123 2.062122 58.641437
v -125.734123 2.062122 -58.641437
v 125.734123 2.062122 -58.641437
v -125.734123 0.000000 -58.641437
v 125.734123 0.000000 -58.641437
vt 0.987128 0.467258
vt 0.987128 0.012872
vt 0.995117 0.012872
vt 0.995117 0.467258
vt 0.012872 0.012872
vt 0.012872 0.467257
vt 0.004883 0.467258
vt 0.004883 0.012872
vt 0.004883 0.481828
vt 0.004883 0.936214
vt 0.987128 0.475247
vt 0.012872 0.475247
vt 0.012872 0.004883
vt 0.987128 0.004883
vt 0.979139 0.481828
vt 0.979139 0.936214
vn 0.000000 0.000000 1.000000
vn 0.000000 0.000000 1.000000
vn 0.000000 0.000000 1.000000
vn 0.000000 0.000000 1.000000
vn 0.000000 1.000000 0.000000
vn 0.000000 1.000000 0.000000
vn 0.000000 1.000000 0.000000
vn 0.000000 1.000000 0.000000
vn 0.000000 0.000000 -1.000000
vn 0.000000 0.000000 -1.000000
vn 0.000000 0.000000 -1.000000
vn 0.000000 0.000000 -1.000000
vn 0.000000 -1.000000 0.000000
vn 0.000000 -1.000000 0.000000
vn 0.000000 -1.000000 0.000000
vn 0.000000 -1.000000 0.000000
vn 1.000000 0.000000 0.000000
vn 1.000000 0.000000 0.000000
vn 1.000000 0.000000 0.000000
vn 1.000000 0.000000 0.000000
vn -1.000000 0.000000 0.000000
vn -1.000000 0.000000 0.000000
vn -1.000000 0.000000 0.000000
vn -1.000000 0.000000 0.000000
s off
g Roof
usemtl initialShadingGroup
f 1/6/1 2/1/2 4/11/3 3/12/4
f 3/9/5 4/15/6 6/16/7 5/10/8
f 5/13/9 6/14/10 8/2/11 7/5/12
f 7/5/13 8/2/14 2/1/15 1/6/16
f 2/1/17 8/2/18 6/3/19 4/4/20
f 7/5/21 1/6/22 3/7/23 5/8/24
