# This file uses centimeters as units for non-parametric coordinates.

mtllib MetalStair.mtl
g default
v 47.524002 103.704460 -94.633163
v 47.524002 103.704460 -114.148132
v -47.524044 103.704445 -114.148132
v -47.524044 103.704445 -94.633163
v 47.524002 102.480637 -94.633163
v -47.524044 102.480621 -94.633163
v -47.524044 102.480621 -114.148132
v 47.524002 102.480637 -114.148132
v 49.999981 104.478485 -91.951660
v 49.999981 104.478485 -116.829636
v -50.000019 104.478470 -116.829636
v -50.000019 104.478470 -91.951660
v 49.999981 100.565063 -116.829628
v 49.999981 100.565063 -91.951653
v -50.000019 100.565041 -91.951653
v -50.000019 100.565041 -116.829628
v 47.524002 104.478485 -94.633163
v 47.524002 104.478485 -114.148125
v -47.524044 104.478470 -114.148125
v -47.524044 104.478470 -94.633163
v 47.524002 100.565056 -94.633156
v -47.524044 100.565048 -94.633156
v -47.524044 100.565048 -114.148125
v 47.524002 100.565056 -114.148125
v -50.000019 104.478470 -104.390648
v -50.000019 100.565041 -104.390640
v -47.524044 104.478470 -104.390648
v -47.524040 100.565048 -104.390640
v -50.000019 104.478470 -98.171150
v -50.000019 100.565041 -98.171150
v -47.524044 104.478470 -99.511902
v -47.524044 100.565048 -99.511902
v 47.524006 87.784210 -75.974678
v 47.524006 87.784210 -95.489647
v -47.524040 87.784195 -95.489647
v -47.524040 87.784195 -75.974678
v 47.524006 86.560379 -75.974686
v -47.524040 86.560371 -75.974686
v -47.524040 86.560371 -95.489655
v 47.524006 86.560379 -95.489655
v 49.999985 88.558228 -73.293175
v 49.999985 88.558228 -98.171150
v -50.000015 88.558205 -98.171150
v -50.000015 88.558205 -73.293175
v 49.999985 84.644798 -98.171150
v 49.999985 84.644798 -73.293167
v -50.000015 84.644775 -73.293167
v -50.000015 84.644775 -98.171150
v 47.524006 88.558220 -75.974678
v 47.524006 88.558220 -95.489655
v -47.524040 88.558205 -95.489655
v -47.524040 88.558205 -75.974678
v 47.524006 84.644798 -75.974678
v -47.524040 84.644783 -75.974678
v -47.524040 84.644783 -95.489647
v 47.524006 84.644798 -95.489647
v -50.000015 88.558205 -85.732162
v -50.000015 84.644775 -85.732162
v -47.524040 88.558205 -85.732162
v -47.524036 84.644783 -85.732162
v -50.000015 88.558205 -79.512665
v -50.000015 84.644775 -79.512665
v -47.524040 88.558205 -80.853416
v -47.524040 84.644783 -80.853409
v 47.524010 71.863953 -57.316196
v 47.524010 71.863953 -76.831161
v -47.524036 71.863937 -76.831161
v -47.524036 71.863937 -57.316196
v 47.524010 70.640121 -57.316196
v -47.524036 70.640114 -57.316196
v -47.524036 70.640114 -76.831161
v 47.524010 70.640121 -76.831161
v 49.999989 72.637970 -54.634689
v 49.999989 72.637970 -79.512665
v -50.000011 72.637955 -79.512665
v -50.000011 72.637955 -54.634689
v 49.999989 68.724548 -79.512665
v 49.999989 68.724548 -54.634693
v -50.000011 68.724525 -54.634693
v -50.000011 68.724525 -79.512665
v 47.524010 72.637970 -57.316196
v 47.524010 72.637970 -76.831161
v -47.524036 72.637955 -76.831161
v -47.524036 72.637955 -57.316196
v 47.524010 68.724541 -57.316196
v -47.524036 68.724533 -57.316196
v -47.524036 68.724533 -76.831161
v 47.524010 68.724541 -76.831161
v -50.000011 72.637955 -67.073677
v -50.000011 68.724525 -67.073677
v -47.524036 72.637955 -67.073677
v -47.524036 68.724533 -67.073677
v -50.000011 72.637955 -60.854183
v -50.000011 68.724525 -60.854187
v -47.524036 72.637955 -62.194942
v -47.524036 68.724533 -62.194942
v 47.524014 55.943703 -38.657715
v 47.524010 55.943703 -58.172691
v -47.524036 55.943680 -58.172691
v -47.524033 55.943680 -38.657715
v 47.524014 54.719875 -38.657711
v -47.524033 54.719856 -38.657711
v -47.524033 54.719856 -58.172691
v 47.524014 54.719875 -58.172691
v 49.999989 56.717720 -35.976208
v 49.999992 56.717720 -60.854183
v -50.000008 56.717701 -60.854183
v -50.000011 56.717701 -35.976208
v 49.999992 52.804291 -60.854187
v 49.999989 52.804291 -35.976208
v -50.000011 52.804268 -35.976208
v -50.000008 52.804268 -60.854187
v 47.524014 56.717724 -38.657715
v 47.524010 56.717724 -58.172691
v -47.524036 56.717701 -58.172691
v -47.524033 56.717701 -38.657715
v 47.524014 52.804291 -38.657715
v -47.524033 52.804268 -38.657715
v -47.524033 52.804268 -58.172691
v 47.524014 52.804291 -58.172691
v -50.000008 56.717701 -48.415195
v -50.000008 52.804268 -48.415195
v -47.524033 56.717701 -48.415195
v -47.524033 52.804268 -48.415195
v -50.000008 56.717701 -42.195702
v -50.000008 52.804268 -42.195702
v -47.524036 56.717701 -43.536461
v -47.524033 52.804268 -43.536461
v 47.524017 40.023449 -19.999229
v 47.524014 40.023449 -39.514210
v -47.524033 40.023430 -39.514210
v -47.524029 40.023430 -19.999229
v 47.524017 38.799618 -19.999229
v -47.524029 38.799599 -19.999229
v -47.524033 38.799599 -39.514206
v 47.524014 38.799618 -39.514206
v 49.999992 40.797462 -17.317724
v 49.999992 40.797462 -42.195702
v -50.000008 40.797443 -42.195702
v -50.000008 40.797443 -17.317724
v 49.999992 36.884037 -42.195702
v 49.999992 36.884037 -17.317724
v -50.000008 36.884018 -17.317724
v -50.000008 36.884018 -42.195702
v 47.524017 40.797466 -19.999229
v 47.524014 40.797466 -39.514210
v -47.524033 40.797443 -39.514210
v -47.524029 40.797443 -19.999229
v 47.524017 36.884037 -19.999229
v -47.524029 36.884018 -19.999229
v -47.524029 36.884018 -39.514210
v 47.524017 36.884037 -39.514210
v -50.000008 40.797443 -29.756714
v -50.000008 36.884018 -29.756712
v -47.524033 40.797443 -29.756714
v -47.524033 36.884018 -29.756712
v -50.000008 40.797443 -23.537231
v -50.000008 36.884018 -23.537230
v -47.524033 40.797443 -24.877977
v -47.524029 36.884018 -24.877977
v 47.524017 24.103180 -2.681518
v 47.524021 24.103180 -22.196495
v -47.524025 24.103163 -22.196495
v -47.524029 24.103163 -2.681518
v 47.524017 22.879347 -2.681518
v -47.524029 22.879330 -2.681518
v -47.524025 22.879330 -22.196495
v 47.524021 22.879347 -22.196495
v 49.999996 24.877193 -0.000024
v 49.999996 24.877193 -24.878002
v -50.000004 24.877174 -24.878002
v -50.000004 24.877174 -0.000024
v 49.999996 20.963768 -24.878002
v 49.999996 20.963768 -0.000024
v -50.000004 20.963749 -0.000024
v -50.000004 20.963749 -24.878002
v 47.524017 24.877193 -2.681518
v 47.524017 24.877193 -22.196495
v -47.524029 24.877176 -22.196495
v -47.524029 24.877176 -2.681518
v 47.524017 20.963766 -2.681518
v -47.524029 20.963749 -2.681518
v -47.524025 20.963749 -22.196497
v 47.524021 20.963766 -22.196497
v -50.000004 24.877174 -12.439013
v -50.000004 20.963749 -12.439013
v -47.524029 24.877176 -12.439013
v -47.524029 20.963749 -12.439013
v -50.000004 24.877174 -6.219506
v -50.000004 20.963749 -6.219506
v -47.524025 24.877176 -7.560253
v -47.524025 20.963749 -7.560253
v 47.523994 20.963766 -6.219482
v 47.523994 20.963766 -31.097485
v 47.523994 17.050341 -31.097483
v 47.523994 17.050341 -6.219482
v 47.523979 116.485313 -116.829620
v 47.523979 112.571892 -116.829620
v 47.523979 100.565056 -98.171135
v 47.523979 100.565056 -123.049110
v 47.523983 96.651634 -123.049118
v 47.523983 96.651634 -98.171143
v 47.523983 84.644806 -79.512650
v 47.523983 84.644806 -104.390633
v 47.523983 80.731384 -104.390633
v 47.523987 80.731384 -79.512657
v 47.523987 68.724541 -60.854176
v 47.523987 68.724541 -85.732147
v 47.523987 64.811111 -85.732155
v 47.523987 64.811111 -60.854176
v 47.523987 52.804302 -42.195690
v 47.523991 52.804302 -67.073662
v 47.523991 48.890877 -67.073669
v 47.523987 48.890877 -42.195690
v 47.523991 36.884037 -23.537207
v 47.523994 36.884037 -48.415184
v 47.523994 32.970612 -48.415184
v 47.523991 32.970612 -23.537207
v 47.523979 100.565056 -116.829620
v 47.523983 96.651634 -116.829620
v 47.523979 116.485313 -123.049110
v 47.523979 112.571892 -123.049118
v 47.523979 100.565056 -104.390610
v 47.523983 96.651634 -104.390610
v 47.523983 84.644806 -98.171135
v 47.523983 80.731384 -98.171143
v 47.523983 84.644806 -85.732147
v 47.523987 80.731384 -85.732155
v 47.523987 68.724541 -79.512650
v 47.523987 64.811111 -79.512657
v 47.523987 68.724541 -67.073662
v 47.523987 64.811111 -67.073669
v 47.523991 52.804302 -60.854176
v 47.523991 48.890877 -60.854176
v 47.523987 52.804302 -48.415184
v 47.523987 48.890877 -48.415184
v 47.523991 36.884037 -42.195690
v 47.523991 32.970612 -42.195690
v 47.523991 36.884037 -31.097483
v 47.523991 32.970612 -31.097483
v 47.523994 20.963766 -23.537207
v 47.523994 17.050341 -23.537207
v 42.628521 20.963766 -23.537207
v 42.628521 20.963766 -6.219482
v 42.628521 17.050341 -23.537207
v 42.628525 17.050341 -6.219482
v 42.628521 17.050341 -31.097483
v 42.628521 20.963766 -31.097485
v 42.628506 116.485321 -123.049110
v 42.628506 116.485321 -116.829620
v 42.628506 112.571892 -123.049118
v 42.628506 112.571892 -116.829620
v 42.628510 100.565063 -104.390610
v 42.628510 100.565063 -98.171135
v 42.628510 96.651634 -104.390610
v 42.628510 96.651634 -98.171143
v 42.628510 96.651634 -123.049118
v 42.628510 100.565063 -123.049110
v 42.628513 84.644806 -85.732147
v 42.628513 84.644806 -79.512650
v 42.628513 80.731384 -85.732155
v 42.628513 80.731384 -79.512657
v 42.628513 80.731384 -104.390633
v 42.628510 84.644806 -104.390633
v 42.628513 68.724548 -67.073662
v 42.628513 68.724548 -60.854176
v 42.628517 64.811111 -67.073669
v 42.628517 64.811111 -60.854176
v 42.628517 64.811111 -85.732155
v 42.628513 68.724548 -85.732147
v 42.628517 52.804298 -48.415184
v 42.628513 52.804298 -42.195690
v 42.628517 48.890873 -48.415184
v 42.628517 48.890873 -42.195690
v 42.628517 48.890873 -67.073669
v 42.628517 52.804298 -67.073662
v 42.628517 36.884037 -31.097483
v 42.628517 36.884037 -23.537207
v 42.628521 32.970612 -31.097483
v 42.628517 32.970612 -23.537207
v 42.628517 32.970612 -48.415184
v 42.628517 36.884037 -48.415184
v 42.628510 100.565063 -116.829620
v 42.628510 96.651634 -116.829620
v 42.628513 84.644806 -98.171135
v 42.628513 80.731384 -98.171143
v 42.628513 68.724548 -79.512650
v 42.628517 64.811111 -79.512657
v 42.628517 52.804298 -60.854176
v 42.628517 48.890873 -60.854176
v 42.628517 36.884037 -42.195690
v 42.628517 32.970612 -42.195690
v -42.628555 20.963749 -6.219482
v -42.628555 20.963749 -31.097485
v -42.628555 17.050323 -31.097483
v -42.628555 17.050323 -6.219482
v -42.628571 116.485298 -116.829620
v -42.628571 112.571877 -116.829620
v -42.628571 100.565041 -98.171135
v -42.628571 100.565041 -123.049110
v -42.628567 96.651619 -123.049118
v -42.628567 96.651619 -98.171143
v -42.628567 84.644791 -79.512650
v -42.628567 84.644791 -104.390633
v -42.628567 80.731361 -104.390633
v -42.628563 80.731361 -79.512657
v -42.628563 68.724525 -60.854176
v -42.628563 68.724525 -85.732147
v -42.628563 64.811096 -85.732155
v -42.628563 64.811096 -60.854176
v -42.628563 52.804283 -42.195690
v -42.628559 52.804283 -67.073662
v -42.628559 48.890858 -67.073669
v -42.628563 48.890858 -42.195690
v -42.628559 36.884018 -23.537207
v -42.628555 36.884018 -48.415184
v -42.628555 32.970592 -48.415184
v -42.628559 32.970592 -23.537207
v -42.628571 100.565041 -116.829620
v -42.628567 96.651619 -116.829620
v -42.628571 116.485298 -123.049110
v -42.628571 112.571877 -123.049118
v -42.628571 100.565041 -104.390610
v -42.628567 96.651619 -104.390610
v -42.628567 84.644791 -98.171135
v -42.628567 80.731361 -98.171143
v -42.628567 84.644791 -85.732147
v -42.628563 80.731361 -85.732155
v -42.628563 68.724525 -79.512650
v -42.628563 64.811096 -79.512657
v -42.628563 68.724525 -67.073662
v -42.628563 64.811096 -67.073669
v -42.628559 52.804283 -60.854176
v -42.628559 48.890858 -60.854176
v -42.628563 52.804283 -48.415184
v -42.628563 48.890858 -48.415184
v -42.628559 36.884018 -42.195690
v -42.628559 32.970592 -42.195690
v -42.628559 36.884018 -31.097483
v -42.628559 32.970592 -31.097483
v -42.628555 20.963749 -23.537207
v -42.628555 17.050323 -23.537207
v -47.524040 20.963749 -23.537207
v -47.524040 20.963749 -6.219482
v -47.524040 17.050323 -23.537207
v -47.524036 17.050323 -6.219482
v -47.524040 17.050323 -31.097483
v -47.524040 20.963749 -31.097485
v -47.524055 116.485306 -123.049110
v -47.524055 116.485306 -116.829620
v -47.524055 112.571877 -123.049118
v -47.524055 112.571877 -116.829620
v -47.524052 100.565048 -104.390610
v -47.524052 100.565048 -98.171135
v -47.524052 96.651619 -104.390610
v -47.524052 96.651619 -98.171143
v -47.524052 96.651619 -123.049118
v -47.524055 100.565048 -123.049110
v -47.524052 84.644791 -85.732147
v -47.524052 84.644791 -79.512650
v -47.524048 80.731369 -85.732155
v -47.524048 80.731369 -79.512657
v -47.524048 80.731369 -104.390633
v -47.524052 84.644791 -104.390633
v -47.524048 68.724533 -67.073662
v -47.524048 68.724533 -60.854176
v -47.524044 64.811096 -67.073669
v -47.524044 64.811096 -60.854176
v -47.524048 64.811096 -85.732155
v -47.524048 68.724533 -85.732147
v -47.524048 52.804279 -48.415184
v -47.524048 52.804279 -42.195690
v -47.524048 48.890854 -48.415184
v -47.524048 48.890854 -42.195690
v -47.524044 48.890854 -67.073669
v -47.524044 52.804279 -67.073662
v -47.524044 36.884018 -31.097483
v -47.524044 36.884018 -23.537207
v -47.524040 32.970592 -31.097483
v -47.524044 32.970592 -23.537207
v -47.524040 32.970592 -48.415184
v -47.524040 36.884018 -48.415184
v -47.524055 100.565048 -116.829620
v -47.524052 96.651619 -116.829620
v -47.524052 84.644791 -98.171135
v -47.524048 80.731369 -98.171143
v -47.524048 68.724533 -79.512650
v -47.524048 64.811096 -79.512657
v -47.524044 52.804279 -60.854176
v -47.524044 48.890854 -60.854176
v -47.524044 36.884018 -42.195690
v -47.524044 32.970592 -42.195690
v 47.523994 20.963766 0.000000
v 47.523994 17.050341 0.000000
v 42.628521 20.963766 0.000000
v 42.628525 17.050341 0.000000
v -42.628555 20.963749 0.000000
v -42.628555 17.050323 0.000000
v -47.524040 20.963749 0.000000
v -47.524036 17.050323 0.000000
v 42.628525 0.000008 -6.219482
v 47.523998 0.000009 -6.219482
v -47.524036 -0.000009 -6.219482
v -42.628551 -0.000008 -6.219482
v 42.628525 0.000008 0.000000
v 47.523998 0.000009 0.000000
v -47.524036 -0.000009 0.000000
v -42.628551 -0.000008 0.000000
vt 0.441860 0.364281
vt 0.441860 0.376550
vt 0.422362 0.376550
vt 0.422362 0.364281
vt 0.461359 0.364281
vt 0.461359 0.376550
vt 0.500356 0.364281
vt 0.500356 0.376550
vt 0.593744 0.506677
vt 0.593744 0.518946
vt 0.515750 0.518946
vt 0.515750 0.506677
vt 0.422919 0.507953
vt 0.484100 0.507953
vt 0.484100 0.520221
vt 0.422919 0.520221
vt 0.575923 0.425369
vt 0.591218 0.425369
vt 0.591218 0.437638
vt 0.575923 0.437638
vt 0.560627 0.425369
vt 0.560627 0.437638
vt 0.530037 0.425369
vt 0.530037 0.437638
vt 0.441860 0.364281
vt 0.441860 0.376550
vt 0.422362 0.376550
vt 0.422362 0.364281
vt 0.461359 0.364281
vt 0.461359 0.376550
vt 0.500355 0.364281
vt 0.500356 0.376550
vt 0.593744 0.506677
vt 0.593744 0.518946
vt 0.515750 0.518946
vt 0.515750 0.506677
vt 0.422919 0.507953
vt 0.484100 0.507953
vt 0.484100 0.520221
vt 0.422919 0.520221
vt 0.575923 0.425369
vt 0.591218 0.425369
vt 0.591218 0.437638
vt 0.575923 0.437638
vt 0.560627 0.425369
vt 0.560627 0.437638
vt 0.530037 0.425369
vt 0.530037 0.437638
vt 0.441860 0.364281
vt 0.441860 0.376550
vt 0.422362 0.376550
vt 0.422362 0.364281
vt 0.461359 0.364281
vt 0.461359 0.376550
vt 0.500355 0.364281
vt 0.500355 0.376550
vt 0.593744 0.506677
vt 0.593744 0.518946
vt 0.515750 0.518946
vt 0.515750 0.506677
vt 0.422919 0.507953
vt 0.484100 0.507953
vt 0.484100 0.520221
vt 0.422919 0.520221
vt 0.575923 0.425369
vt 0.591218 0.425369
vt 0.591218 0.437638
vt 0.575923 0.437638
vt 0.560627 0.425369
vt 0.560627 0.437638
vt 0.530037 0.425369
vt 0.530037 0.437638
vt 0.441860 0.364281
vt 0.441860 0.376550
vt 0.422362 0.376550
vt 0.422362 0.364281
vt 0.461359 0.364281
vt 0.461359 0.376550
vt 0.500356 0.364281
vt 0.500355 0.376550
vt 0.593744 0.506677
vt 0.593744 0.518946
vt 0.515750 0.518946
vt 0.515750 0.506677
vt 0.422919 0.507953
vt 0.484100 0.507953
vt 0.484100 0.520221
vt 0.422919 0.520221
vt 0.575923 0.425369
vt 0.591218 0.425369
vt 0.591218 0.437638
vt 0.575922 0.437638
vt 0.560628 0.425369
vt 0.560627 0.437638
vt 0.530037 0.425369
vt 0.530037 0.437638
vt 0.566665 0.661395
vt 0.574431 0.670893
vt 0.556082 0.685895
vt 0.548316 0.676397
vt 0.608697 0.627029
vt 0.616462 0.636527
vt 0.542839 0.632253
vt 0.524489 0.647256
vt 0.623792 0.614687
vt 0.631558 0.624185
vt 0.535073 0.622755
vt 0.516723 0.637758
vt 0.665392 0.665568
vt 0.650297 0.677910
vt 0.497553 0.669279
vt 0.489787 0.659781
vt 0.482458 0.681621
vt 0.474692 0.672123
vt 0.465961 0.630639
vt 0.450865 0.642981
vt 0.458195 0.621141
vt 0.443100 0.633483
vt 0.420675 0.667666
vt 0.412909 0.658167
vt 0.405580 0.680008
vt 0.397814 0.670509
vt 0.389083 0.629026
vt 0.373988 0.641368
vt 0.381317 0.619528
vt 0.366222 0.631870
vt 0.343797 0.666052
vt 0.336031 0.656554
vt 0.328702 0.678394
vt 0.320936 0.668896
vt 0.312205 0.627412
vt 0.297110 0.639754
vt 0.304439 0.617914
vt 0.289344 0.630256
vt 0.266919 0.664438
vt 0.259153 0.654940
vt 0.251824 0.676780
vt 0.244058 0.667282
vt 0.235327 0.625799
vt 0.220232 0.638141
vt 0.227561 0.616301
vt 0.212466 0.628643
vt 0.190041 0.662825
vt 0.182276 0.653327
vt 0.174946 0.675167
vt 0.167180 0.665669
vt 0.158449 0.624185
vt 0.143354 0.636527
vt 0.150683 0.614687
vt 0.135588 0.627029
vt 0.103610 0.611296
vt 0.121960 0.626299
vt 0.114194 0.635797
vt 0.095844 0.620794
vt 0.127437 0.582154
vt 0.145786 0.597157
vt 0.061579 0.576930
vt 0.053813 0.586429
vt 0.135203 0.572656
vt 0.153552 0.587659
vt 0.038718 0.574087
vt 0.046484 0.564588
vt 0.180488 0.609682
vt 0.172722 0.619181
vt 0.019978 0.627811
vt 0.004883 0.615469
vt 0.195583 0.622024
vt 0.187817 0.631523
vt 0.204315 0.580541
vt 0.219410 0.592883
vt 0.212080 0.571043
vt 0.227176 0.583385
vt 0.257366 0.608069
vt 0.249600 0.617567
vt 0.272461 0.620411
vt 0.264695 0.629909
vt 0.281192 0.578927
vt 0.296288 0.591269
vt 0.288958 0.569429
vt 0.304054 0.581771
vt 0.334244 0.606455
vt 0.326478 0.615954
vt 0.349339 0.618797
vt 0.341573 0.628296
vt 0.358070 0.577314
vt 0.373166 0.589656
vt 0.365836 0.567816
vt 0.380931 0.580158
vt 0.411122 0.604842
vt 0.403356 0.614340
vt 0.426217 0.617184
vt 0.418451 0.626682
vt 0.434948 0.575700
vt 0.450043 0.588042
vt 0.442714 0.566202
vt 0.457809 0.578544
vt 0.488000 0.603228
vt 0.480234 0.612726
vt 0.503095 0.615570
vt 0.495329 0.625068
vt 0.511826 0.574087
vt 0.526921 0.586429
vt 0.519592 0.564588
vt 0.534687 0.576930
vt 0.566665 0.661394
vt 0.574431 0.670893
vt 0.556082 0.685895
vt 0.548316 0.676397
vt 0.608697 0.627029
vt 0.616462 0.636527
vt 0.542839 0.632253
vt 0.524489 0.647256
vt 0.623792 0.614687
vt 0.631558 0.624185
vt 0.535073 0.622755
vt 0.516723 0.637757
vt 0.665392 0.665568
vt 0.650297 0.677910
vt 0.497553 0.669279
vt 0.489787 0.659781
vt 0.482458 0.681621
vt 0.474692 0.672123
vt 0.465961 0.630639
vt 0.450865 0.642981
vt 0.458195 0.621141
vt 0.443100 0.633483
vt 0.420675 0.667666
vt 0.412909 0.658167
vt 0.405580 0.680008
vt 0.397814 0.670509
vt 0.389083 0.629026
vt 0.373988 0.641368
vt 0.381317 0.619528
vt 0.366222 0.631870
vt 0.343797 0.666052
vt 0.336031 0.656554
vt 0.328702 0.678394
vt 0.320936 0.668896
vt 0.312205 0.627412
vt 0.297110 0.639754
vt 0.304439 0.617914
vt 0.289344 0.630256
vt 0.266919 0.664438
vt 0.259153 0.654940
vt 0.251824 0.676780
vt 0.244058 0.667282
vt 0.235327 0.625799
vt 0.220232 0.638141
vt 0.227561 0.616301
vt 0.212466 0.628642
vt 0.190041 0.662825
vt 0.182275 0.653327
vt 0.174946 0.675167
vt 0.167180 0.665669
vt 0.158449 0.624185
vt 0.143354 0.636527
vt 0.150683 0.614687
vt 0.135588 0.627029
vt 0.103610 0.611296
vt 0.121960 0.626299
vt 0.114194 0.635797
vt 0.095844 0.620794
vt 0.127437 0.582154
vt 0.145786 0.597157
vt 0.061579 0.576930
vt 0.053813 0.586429
vt 0.135203 0.572656
vt 0.153552 0.587659
vt 0.038718 0.574087
vt 0.046484 0.564588
vt 0.180488 0.609682
vt 0.172722 0.619181
vt 0.019978 0.627811
vt 0.004883 0.615469
vt 0.195583 0.622024
vt 0.187817 0.631523
vt 0.204315 0.580541
vt 0.219410 0.592883
vt 0.212080 0.571043
vt 0.227176 0.583385
vt 0.257366 0.608069
vt 0.249600 0.617567
vt 0.272461 0.620411
vt 0.264695 0.629909
vt 0.281193 0.578927
vt 0.296288 0.591269
vt 0.288958 0.569429
vt 0.304054 0.581771
vt 0.334244 0.606455
vt 0.326478 0.615953
vt 0.349339 0.618797
vt 0.341573 0.628295
vt 0.358070 0.577314
vt 0.373166 0.589656
vt 0.365836 0.567816
vt 0.380931 0.580158
vt 0.411122 0.604842
vt 0.403356 0.614340
vt 0.426217 0.617184
vt 0.418451 0.626682
vt 0.434948 0.575700
vt 0.450043 0.588042
vt 0.442714 0.566202
vt 0.457809 0.578544
vt 0.488000 0.603228
vt 0.480234 0.612726
vt 0.503095 0.615570
vt 0.495329 0.625068
vt 0.511826 0.574087
vt 0.526922 0.586429
vt 0.519592 0.564588
vt 0.534687 0.576930
vt 0.423041 0.520343
vt 0.423040 0.507831
vt 0.483978 0.507831
vt 0.483978 0.520343
vt 0.483978 0.520343
vt 0.423041 0.520343
vt 0.423040 0.507831
vt 0.483978 0.507831
vt 0.029532 0.330210
vt 0.029532 0.252216
vt 0.037295 0.260623
vt 0.037295 0.321803
vt 0.343038 0.252216
vt 0.335276 0.260623
vt 0.343038 0.330210
vt 0.335276 0.321803
vt 0.343038 0.291213
vt 0.335276 0.291213
vt 0.343038 0.310712
vt 0.335276 0.306508
vt 0.029532 0.161953
vt 0.343038 0.161953
vt 0.335276 0.170360
vt 0.037295 0.170360
vt 0.343038 0.181452
vt 0.335276 0.185655
vt 0.029532 0.239947
vt 0.037295 0.231541
vt 0.343038 0.200950
vt 0.335276 0.200950
vt 0.343038 0.239947
vt 0.335276 0.231541
vt 0.423040 0.520343
vt 0.423040 0.507831
vt 0.483978 0.507831
vt 0.483978 0.520343
vt 0.483978 0.520343
vt 0.423040 0.520343
vt 0.423040 0.507831
vt 0.483978 0.507831
vt 0.029533 0.330210
vt 0.029533 0.252216
vt 0.037295 0.260623
vt 0.037295 0.321803
vt 0.343038 0.252216
vt 0.335276 0.260623
vt 0.343038 0.330210
vt 0.335276 0.321803
vt 0.343038 0.291213
vt 0.335276 0.291213
vt 0.343038 0.310712
vt 0.335276 0.306508
vt 0.029533 0.161953
vt 0.343038 0.161953
vt 0.335276 0.170360
vt 0.037295 0.170360
vt 0.343038 0.181452
vt 0.335276 0.185655
vt 0.029533 0.239947
vt 0.037295 0.231541
vt 0.343038 0.200950
vt 0.335276 0.200950
vt 0.343038 0.239947
vt 0.335276 0.231541
vt 0.423040 0.520343
vt 0.423041 0.507831
vt 0.483978 0.507831
vt 0.483978 0.520343
vt 0.483978 0.520343
vt 0.423041 0.520343
vt 0.423041 0.507831
vt 0.483978 0.507831
vt 0.029532 0.330210
vt 0.029533 0.252216
vt 0.037295 0.260623
vt 0.037295 0.321803
vt 0.343038 0.252216
vt 0.335276 0.260623
vt 0.343038 0.330210
vt 0.335276 0.321803
vt 0.343038 0.291213
vt 0.335276 0.291213
vt 0.343038 0.310712
vt 0.335276 0.306508
vt 0.029533 0.161953
vt 0.343038 0.161953
vt 0.335276 0.170360
vt 0.037295 0.170360
vt 0.343038 0.181452
vt 0.335276 0.185655
vt 0.029533 0.239947
vt 0.037295 0.231541
vt 0.343038 0.200950
vt 0.335276 0.200950
vt 0.343038 0.239947
vt 0.335276 0.231541
vt 0.423040 0.520343
vt 0.423040 0.507831
vt 0.483978 0.507831
vt 0.483978 0.520343
vt 0.483978 0.520343
vt 0.423040 0.520343
vt 0.423040 0.507831
vt 0.483978 0.507831
vt 0.029533 0.330210
vt 0.029533 0.252216
vt 0.037295 0.260623
vt 0.037295 0.321803
vt 0.343038 0.252216
vt 0.335276 0.260623
vt 0.343038 0.330210
vt 0.335276 0.321803
vt 0.343038 0.291213
vt 0.335276 0.291213
vt 0.343038 0.310712
vt 0.335276 0.306508
vt 0.029533 0.161953
vt 0.343038 0.161953
vt 0.335276 0.170360
vt 0.037295 0.170360
vt 0.343038 0.181452
vt 0.335276 0.185655
vt 0.029533 0.239947
vt 0.037295 0.231541
vt 0.343038 0.200950
vt 0.335276 0.200950
vt 0.343038 0.239947
vt 0.335276 0.231541
vt 0.423040 0.520343
vt 0.423040 0.507831
vt 0.483978 0.507831
vt 0.483978 0.520343
vt 0.483978 0.520343
vt 0.423040 0.520343
vt 0.423040 0.507831
vt 0.483978 0.507831
vt 0.423041 0.520343
vt 0.423041 0.507831
vt 0.483978 0.507831
vt 0.483978 0.520343
vt 0.483978 0.520343
vt 0.423040 0.520343
vt 0.423040 0.507831
vt 0.483978 0.507831
vt 0.444801 0.425853
vt 0.444801 0.441200
vt 0.425303 0.441200
vt 0.425303 0.425853
vt 0.483798 0.425853
vt 0.483798 0.441200
vt 0.444801 0.425853
vt 0.444801 0.441200
vt 0.425303 0.441200
vt 0.425303 0.425853
vt 0.483798 0.425853
vt 0.483798 0.441200
vt 0.483798 0.425853
vt 0.483798 0.441200
vt 0.444801 0.441200
vt 0.444801 0.425853
vt 0.425303 0.441200
vt 0.425303 0.425853
vt 0.444801 0.425853
vt 0.444801 0.441200
vt 0.425303 0.441200
vt 0.425303 0.425853
vt 0.483798 0.425853
vt 0.483798 0.441200
vt 0.444801 0.425853
vt 0.444801 0.441200
vt 0.425303 0.441200
vt 0.425303 0.425853
vt 0.483798 0.425853
vt 0.483798 0.441200
vt 0.461814 0.406566
vt 0.461814 0.391218
vt 0.485516 0.391218
vt 0.485516 0.406566
vt 0.427021 0.406566
vt 0.427021 0.391218
vt 0.444801 0.425853
vt 0.444801 0.441200
vt 0.425303 0.441200
vt 0.425303 0.425853
vt 0.483798 0.425853
vt 0.483798 0.441200
vt 0.688510 0.365271
vt 0.688510 0.349924
vt 0.708008 0.349924
vt 0.708008 0.365271
vt 0.444801 0.425853
vt 0.444801 0.441200
vt 0.425303 0.441200
vt 0.425303 0.425853
vt 0.483798 0.425853
vt 0.483798 0.441200
vt 0.551617 0.460366
vt 0.551617 0.475714
vt 0.532119 0.475714
vt 0.532119 0.460366
vt 0.586411 0.460366
vt 0.586411 0.475714
vt 0.444801 0.425853
vt 0.444801 0.441200
vt 0.425303 0.441200
vt 0.425303 0.425853
vt 0.483798 0.425853
vt 0.483798 0.441200
vt 0.680004 0.349924
vt 0.680004 0.365271
vt 0.625712 0.365271
vt 0.625712 0.349924
vt 0.606214 0.365271
vt 0.606214 0.349924
vt 0.597071 0.349924
vt 0.597071 0.365271
vt 0.542779 0.365271
vt 0.542779 0.349924
vt 0.519077 0.365271
vt 0.519077 0.349924
vt 0.444801 0.425853
vt 0.444801 0.441200
vt 0.425303 0.441200
vt 0.425303 0.425853
vt 0.483798 0.425853
vt 0.483798 0.441200
vt 0.444801 0.425853
vt 0.444801 0.441200
vt 0.425303 0.441200
vt 0.425303 0.425853
vt 0.483798 0.425853
vt 0.483798 0.441200
vt 0.483798 0.425853
vt 0.483798 0.441200
vt 0.444801 0.441200
vt 0.444801 0.425853
vt 0.425303 0.441200
vt 0.425303 0.425853
vt 0.444801 0.425853
vt 0.444801 0.441200
vt 0.425303 0.441200
vt 0.425303 0.425853
vt 0.483798 0.425853
vt 0.483798 0.441200
vt 0.444801 0.425853
vt 0.444801 0.441200
vt 0.425303 0.441200
vt 0.425303 0.425853
vt 0.483798 0.425853
vt 0.483798 0.441200
vt 0.461814 0.406566
vt 0.461814 0.391218
vt 0.485516 0.391218
vt 0.485516 0.406566
vt 0.427021 0.406566
vt 0.427021 0.391218
vt 0.444801 0.425853
vt 0.444801 0.441200
vt 0.425303 0.441200
vt 0.425303 0.425853
vt 0.483798 0.425853
vt 0.483798 0.441200
vt 0.688509 0.365271
vt 0.688509 0.349924
vt 0.708008 0.349924
vt 0.708008 0.365271
vt 0.444801 0.425853
vt 0.444801 0.441200
vt 0.425303 0.441200
vt 0.425303 0.425853
vt 0.483798 0.425853
vt 0.483798 0.441200
vt 0.551617 0.460366
vt 0.551617 0.475714
vt 0.532119 0.475714
vt 0.532119 0.460366
vt 0.586411 0.460366
vt 0.586411 0.475714
vt 0.444801 0.425853
vt 0.444801 0.441200
vt 0.425303 0.441200
vt 0.425303 0.425853
vt 0.483798 0.425853
vt 0.483798 0.441201
vt 0.680004 0.349924
vt 0.680004 0.365271
vt 0.625712 0.365271
vt 0.625712 0.349924
vt 0.606214 0.365271
vt 0.606214 0.349924
vt 0.597071 0.349924
vt 0.597071 0.365271
vt 0.542779 0.365271
vt 0.542779 0.349924
vt 0.519077 0.365271
vt 0.519077 0.349924
vt 0.688510 0.365271
vt 0.688510 0.349924
vt 0.708008 0.349924
vt 0.708008 0.365271
vt 0.688509 0.365271
vt 0.688509 0.349924
vt 0.708008 0.349924
vt 0.708008 0.365271
vt 0.343038 0.342479
vt 0.029532 0.342479
vt 0.387794 0.258080
vt 0.685775 0.258080
vt 0.685775 0.270349
vt 0.387794 0.270349
vt 0.387794 0.258080
vt 0.685775 0.258080
vt 0.685775 0.270349
vt 0.387794 0.270349
vt 0.343038 0.342479
vt 0.029533 0.342479
vt 0.387794 0.258080
vt 0.685775 0.258080
vt 0.685775 0.270349
vt 0.387794 0.270349
vt 0.387794 0.258080
vt 0.685775 0.258080
vt 0.685775 0.270349
vt 0.387794 0.270349
vt 0.343038 0.342479
vt 0.029532 0.342479
vt 0.387794 0.258080
vt 0.685775 0.258080
vt 0.685775 0.270349
vt 0.387794 0.270349
vt 0.387794 0.258080
vt 0.685775 0.258080
vt 0.685775 0.270349
vt 0.387794 0.270349
vt 0.343038 0.342479
vt 0.029533 0.342479
vt 0.387794 0.258080
vt 0.685775 0.258080
vt 0.685775 0.270349
vt 0.387794 0.270349
vt 0.387794 0.258080
vt 0.685775 0.258080
vt 0.685775 0.270349
vt 0.387794 0.270349
vt 0.479627 0.469716
vt 0.479627 0.485063
vt 0.467359 0.485063
vt 0.467359 0.469716
vt 0.429716 0.485063
vt 0.429716 0.469716
vt 0.479627 0.469716
vt 0.479627 0.485063
vt 0.467359 0.485063
vt 0.467359 0.469716
vt 0.429716 0.485063
vt 0.429716 0.469716
vt 0.467359 0.469716
vt 0.467359 0.485063
vt 0.429716 0.485063
vt 0.429716 0.469716
vt 0.479627 0.469716
vt 0.479627 0.485063
vt 0.467359 0.469716
vt 0.467358 0.485063
vt 0.429716 0.485063
vt 0.429717 0.469716
vt 0.479627 0.469716
vt 0.479627 0.485063
vt 0.467359 0.469716
vt 0.467359 0.485063
vt 0.429716 0.485063
vt 0.429716 0.469716
vt 0.479627 0.469716
vt 0.479627 0.485063
vt 0.479627 0.469716
vt 0.479627 0.485063
vt 0.467359 0.485063
vt 0.467359 0.469716
vt 0.429716 0.485063
vt 0.429716 0.469716
vt 0.467359 0.469716
vt 0.467359 0.485063
vt 0.429716 0.485063
vt 0.429716 0.469716
vt 0.479627 0.469716
vt 0.479627 0.485063
vt 0.479627 0.469716
vt 0.479627 0.485063
vt 0.467359 0.485063
vt 0.467359 0.469716
vt 0.429716 0.485063
vt 0.429717 0.469716
vt 0.467359 0.469716
vt 0.467359 0.485063
vt 0.429716 0.485063
vt 0.429717 0.469716
vt 0.479627 0.469716
vt 0.479627 0.485063
vt 0.467359 0.469716
vt 0.467359 0.485063
vt 0.429716 0.485063
vt 0.429716 0.469716
vt 0.479627 0.469716
vt 0.479627 0.485063
vt 0.652369 0.386670
vt 0.652369 0.371322
vt 0.690011 0.371322
vt 0.690011 0.386670
vt 0.640100 0.386670
vt 0.640100 0.371322
vt 0.702280 0.371322
vt 0.702280 0.386670
vt 0.467359 0.469716
vt 0.467359 0.485063
vt 0.429717 0.485063
vt 0.429716 0.469716
vt 0.479627 0.469716
vt 0.479627 0.485063
vt 0.580550 0.385364
vt 0.580550 0.400711
vt 0.527096 0.400711
vt 0.527096 0.385364
vt 0.479627 0.469716
vt 0.479627 0.485063
vt 0.467359 0.485063
vt 0.467359 0.469716
vt 0.429716 0.485063
vt 0.429717 0.469716
vt 0.479627 0.469716
vt 0.479627 0.485063
vt 0.467359 0.485063
vt 0.467359 0.469716
vt 0.429717 0.485063
vt 0.429717 0.469716
vt 0.467359 0.469716
vt 0.467359 0.485063
vt 0.429717 0.485063
vt 0.429716 0.469716
vt 0.479627 0.469716
vt 0.479627 0.485063
vt 0.467359 0.469716
vt 0.467359 0.485063
vt 0.429717 0.485063
vt 0.429717 0.469716
vt 0.479627 0.469716
vt 0.479627 0.485063
vt 0.467359 0.469716
vt 0.467359 0.485063
vt 0.429716 0.485063
vt 0.429716 0.469716
vt 0.479627 0.469716
vt 0.479627 0.485063
vt 0.479627 0.469716
vt 0.479627 0.485063
vt 0.467358 0.485063
vt 0.467358 0.469716
vt 0.429716 0.485063
vt 0.429716 0.469716
vt 0.467359 0.469716
vt 0.467359 0.485063
vt 0.429717 0.485063
vt 0.429717 0.469716
vt 0.479627 0.469716
vt 0.479627 0.485063
vt 0.479627 0.469716
vt 0.479627 0.485063
vt 0.467359 0.485063
vt 0.467359 0.469716
vt 0.429716 0.485063
vt 0.429716 0.469716
vt 0.467358 0.469716
vt 0.467358 0.485063
vt 0.429717 0.485063
vt 0.429717 0.469716
vt 0.479627 0.469716
vt 0.479627 0.485063
vt 0.467359 0.469716
vt 0.467359 0.485063
vt 0.429716 0.485063
vt 0.429717 0.469716
vt 0.479627 0.469716
vt 0.479627 0.485063
vt 0.652369 0.386670
vt 0.652369 0.371322
vt 0.690011 0.371322
vt 0.690011 0.386670
vt 0.640100 0.386670
vt 0.640100 0.371322
vt 0.702280 0.371322
vt 0.702280 0.386670
vt 0.467359 0.469716
vt 0.467359 0.485063
vt 0.429716 0.485063
vt 0.429716 0.469716
vt 0.479627 0.469716
vt 0.479627 0.485063
vt 0.495132 0.338470
vt 0.495132 0.353818
vt 0.482863 0.353818
vt 0.482863 0.338470
vt 0.429409 0.353818
vt 0.429409 0.338470
vt 0.495132 0.338470
vt 0.495132 0.353818
vt 0.482863 0.353818
vt 0.482863 0.338470
vt 0.429409 0.353818
vt 0.429409 0.338470
vt 0.580550 0.385364
vt 0.580550 0.400711
vt 0.527096 0.400711
vt 0.527096 0.385364
vt 0.441860 0.364281
vt 0.441860 0.376550
vt 0.422362 0.376550
vt 0.422362 0.364281
vt 0.461359 0.364281
vt 0.461359 0.376550
vt 0.500356 0.364281
vt 0.500356 0.376550
vt 0.593744 0.506677
vt 0.593744 0.518946
vt 0.515750 0.518946
vt 0.515750 0.506677
vt 0.422919 0.507953
vt 0.484100 0.507953
vt 0.484100 0.520221
vt 0.422919 0.520221
vt 0.575923 0.425369
vt 0.591218 0.425369
vt 0.591218 0.437638
vt 0.575923 0.437638
vt 0.560627 0.425369
vt 0.560627 0.437638
vt 0.530037 0.425369
vt 0.530037 0.437638
vt 0.441860 0.364281
vt 0.441860 0.376550
vt 0.422362 0.376550
vt 0.422362 0.364281
vt 0.461359 0.364281
vt 0.461359 0.376550
vt 0.500355 0.364281
vt 0.500356 0.376550
vt 0.593744 0.506677
vt 0.593744 0.518946
vt 0.515750 0.518946
vt 0.515750 0.506677
vt 0.422919 0.507953
vt 0.484100 0.507953
vt 0.484100 0.520221
vt 0.422919 0.520221
vt 0.575923 0.425369
vt 0.591218 0.425369
vt 0.591218 0.437638
vt 0.575923 0.437638
vt 0.560627 0.425369
vt 0.560627 0.437638
vt 0.530037 0.425369
vt 0.530037 0.437638
vt 0.024680 0.441324
vt 0.024680 0.363330
vt 0.032443 0.371736
vt 0.032443 0.432917
vt 0.338186 0.363330
vt 0.330424 0.371736
vt 0.338186 0.441324
vt 0.330424 0.432917
vt 0.338186 0.402327
vt 0.330424 0.402327
vt 0.338186 0.421825
vt 0.330424 0.417622
vt 0.024680 0.453592
vt 0.338186 0.453592
vt 0.330424 0.461999
vt 0.032443 0.461999
vt 0.338186 0.473091
vt 0.330424 0.477294
vt 0.024680 0.531586
vt 0.032443 0.523180
vt 0.338186 0.492589
vt 0.330424 0.492589
vt 0.338186 0.531586
vt 0.330424 0.523180
vt 0.024680 0.441324
vt 0.024680 0.363330
vt 0.032443 0.371736
vt 0.032443 0.432917
vt 0.338186 0.363330
vt 0.330424 0.371736
vt 0.338186 0.441324
vt 0.330424 0.432917
vt 0.338186 0.402327
vt 0.330424 0.402327
vt 0.338186 0.421825
vt 0.330424 0.417622
vt 0.024680 0.453592
vt 0.338186 0.453592
vt 0.330424 0.461999
vt 0.032443 0.461999
vt 0.338186 0.473091
vt 0.330424 0.477294
vt 0.024680 0.531586
vt 0.032443 0.523180
vt 0.338186 0.492589
vt 0.330424 0.492589
vt 0.338186 0.531586
vt 0.330424 0.523180
vt 0.024680 0.543855
vt 0.338186 0.543855
vt 0.387794 0.258080
vt 0.685775 0.258080
vt 0.685775 0.270349
vt 0.387794 0.270349
vt 0.387794 0.258080
vt 0.685775 0.258080
vt 0.685775 0.270349
vt 0.387794 0.270349
vt 0.024680 0.543855
vt 0.338186 0.543855
vt 0.387794 0.258080
vt 0.685775 0.258080
vt 0.685775 0.270349
vt 0.387794 0.270349
vt 0.387794 0.258080
vt 0.685775 0.258080
vt 0.685775 0.270349
vt 0.387794 0.270349
vn -0.000000 1.000000 0.000000
vn -0.000000 1.000000 0.000000
vn -0.000000 1.000000 0.000000
vn -0.000000 1.000000 0.000000
vn 0.000000 -1.000000 0.000000
vn 0.000000 -1.000000 0.000000
vn 0.000000 -1.000000 0.000000
vn 0.000000 -1.000000 0.000000
vn -1.000000 -0.000000 0.000000
vn -1.000000 -0.000000 0.000000
vn -1.000000 -0.000000 0.000000
vn -1.000000 -0.000000 0.000000
vn 0.000000 0.000000 1.000000
vn 0.000000 0.000000 1.000000
vn 0.000000 0.000000 1.000000
vn 0.000000 0.000000 1.000000
vn 0.000000 0.000000 -1.000000
vn 0.000000 0.000000 -1.000000
vn 0.000000 0.000000 -1.000000
vn 0.000000 0.000000 -1.000000
vn 1.000000 0.000000 0.000000
vn 1.000000 0.000000 0.000000
vn 1.000000 0.000000 0.000000
vn 1.000000 0.000000 0.000000
vn -0.000000 1.000000 0.000000
vn -0.000000 1.000000 0.000000
vn -0.000000 1.000000 0.000000
vn -0.000000 1.000000 0.000000
vn -0.000000 1.000000 -0.000002
vn -0.000000 1.000000 -0.000002
vn -0.000000 1.000000 -0.000002
vn -0.000000 1.000000 -0.000002
vn -0.000000 1.000000 0.000000
vn -0.000000 1.000000 0.000000
vn -0.000000 1.000000 0.000000
vn -0.000000 1.000000 0.000000
vn -0.000000 1.000000 0.000002
vn -0.000000 1.000000 0.000002
vn -0.000000 1.000000 0.000002
vn -0.000000 1.000000 0.000002
vn 0.000000 -1.000000 0.000000
vn 0.000000 -1.000000 0.000000
vn 0.000000 -1.000000 0.000000
vn 0.000000 -1.000000 0.000000
vn 0.000000 -1.000000 0.000000
vn 0.000000 -1.000000 0.000000
vn 0.000000 -1.000000 0.000000
vn 0.000000 -1.000000 0.000000
vn 0.000000 -1.000000 0.000000
vn 0.000000 -1.000000 0.000000
vn 0.000000 -1.000000 0.000000
vn 0.000000 -1.000000 0.000000
vn 0.000000 -1.000000 0.000000
vn 0.000000 -1.000000 0.000000
vn 0.000000 -1.000000 0.000000
vn 0.000000 -1.000000 0.000000
vn -1.000000 -0.000000 0.000000
vn -1.000000 -0.000000 0.000000
vn -1.000000 -0.000000 0.000000
vn -1.000000 -0.000000 0.000000
vn 0.000000 0.000000 -1.000000
vn 0.000000 0.000000 -1.000000
vn 0.000000 0.000000 -1.000000
vn 0.000000 0.000000 -1.000000
vn 1.000000 0.000000 0.000000
vn 1.000000 0.000000 0.000000
vn 1.000000 0.000000 0.000000
vn 1.000000 0.000000 0.000000
vn 0.000000 0.000000 1.000000
vn 0.000000 0.000000 1.000000
vn 0.000000 0.000000 1.000000
vn 0.000000 0.000000 1.000000
vn 1.000000 0.000000 0.000000
vn 1.000000 0.000000 0.000000
vn 1.000000 0.000000 0.000000
vn 1.000000 0.000000 0.000000
vn 0.000000 -1.000000 0.000000
vn 0.000000 -1.000000 0.000000
vn 0.000000 -1.000000 0.000000
vn 0.000000 -1.000000 0.000000
vn -0.000000 1.000000 0.000000
vn -0.000000 1.000000 0.000000
vn -0.000000 1.000000 0.000000
vn -0.000000 1.000000 0.000000
vn -1.000000 -0.000000 0.000000
vn -1.000000 -0.000000 0.000000
vn -1.000000 -0.000000 0.000000
vn -1.000000 -0.000000 0.000000
vn 0.000000 -1.000000 0.000000
vn 0.000000 -1.000000 0.000000
vn 0.000000 -1.000000 0.000000
vn 0.000000 -1.000000 0.000000
vn 1.000000 0.000000 0.000000
vn 1.000000 0.000000 0.000000
vn 1.000000 0.000000 0.000000
vn 1.000000 0.000000 0.000000
vn -0.000000 1.000000 0.000000
vn -0.000000 1.000000 0.000000
vn -0.000000 1.000000 0.000000
vn -0.000000 1.000000 0.000000
vn -1.000000 -0.000000 0.000000
vn -1.000000 -0.000000 0.000000
vn -1.000000 -0.000000 0.000000
vn -1.000000 -0.000000 0.000000
vn -0.000000 1.000000 0.000000
vn -0.000000 1.000000 0.000000
vn -0.000000 1.000000 0.000000
vn -0.000000 1.000000 0.000000
vn 0.000000 -1.000000 0.000000
vn 0.000000 -1.000000 0.000000
vn 0.000000 -1.000000 0.000000
vn 0.000000 -1.000000 0.000000
vn -1.000000 -0.000000 0.000000
vn -1.000000 -0.000000 0.000000
vn -1.000000 -0.000000 0.000000
vn -1.000000 -0.000000 0.000000
vn 0.000000 0.000000 1.000000
vn 0.000000 0.000000 1.000000
vn 0.000000 0.000000 1.000000
vn 0.000000 0.000000 1.000000
vn 0.000000 0.000000 -1.000000
vn 0.000000 0.000000 -1.000000
vn 0.000000 0.000000 -1.000000
vn 0.000000 0.000000 -1.000000
vn 1.000000 0.000000 0.000000
vn 1.000000 0.000000 0.000000
vn 1.000000 0.000000 0.000000
vn 1.000000 0.000000 0.000000
vn -0.000000 1.000000 0.000000
vn -0.000000 1.000000 0.000000
vn -0.000000 1.000000 0.000000
vn -0.000000 1.000000 0.000000
vn -0.000000 1.000000 0.000000
vn -0.000000 1.000000 0.000000
vn -0.000000 1.000000 0.000000
vn -0.000000 1.000000 0.000000
vn -0.000000 1.000000 0.000000
vn -0.000000 1.000000 0.000000
vn -0.000000 1.000000 0.000000
vn -0.000000 1.000000 0.000000
vn -0.000000 1.000000 0.000000
vn -0.000000 1.000000 0.000000
vn -0.000000 1.000000 0.000000
vn -0.000000 1.000000 0.000000
vn 0.000000 -1.000000 0.000002
vn 0.000000 -1.000000 0.000002
vn 0.000000 -1.000000 0.000002
vn 0.000000 -1.000000 0.000002
vn 0.000000 -1.000000 0.000000
vn 0.000000 -1.000000 0.000000
vn 0.000000 -1.000000 0.000000
vn 0.000000 -1.000000 0.000000
vn 0.000000 -1.000000 -0.000002
vn 0.000000 -1.000000 -0.000002
vn 0.000000 -1.000000 -0.000002
vn 0.000000 -1.000000 -0.000002
vn 0.000000 -1.000000 0.000000
vn 0.000000 -1.000000 0.000000
vn 0.000000 -1.000000 0.000000
vn 0.000000 -1.000000 0.000000
vn -1.000000 -0.000000 0.000000
vn -1.000000 -0.000000 0.000000
vn -1.000000 -0.000000 0.000000
vn -1.000000 -0.000000 0.000000
vn 0.000000 0.000000 -1.000000
vn 0.000000 0.000000 -1.000000
vn 0.000000 0.000000 -1.000000
vn 0.000000 0.000000 -1.000000
vn 1.000000 0.000000 0.000000
vn 1.000000 0.000000 0.000000
vn 1.000000 0.000000 0.000000
vn 1.000000 0.000000 0.000000
vn 0.000000 0.000000 1.000000
vn 0.000000 0.000000 1.000000
vn 0.000000 0.000000 1.000000
vn 0.000000 0.000000 1.000000
vn 1.000000 0.000000 0.000000
vn 1.000000 0.000000 0.000000
vn 1.000000 0.000000 0.000000
vn 1.000000 0.000000 0.000000
vn 0.000000 -1.000000 0.000000
vn 0.000000 -1.000000 0.000000
vn 0.000000 -1.000000 0.000000
vn 0.000000 -1.000000 0.000000
vn -0.000000 1.000000 0.000000
vn -0.000000 1.000000 0.000000
vn -0.000000 1.000000 0.000000
vn -0.000000 1.000000 0.000000
vn -1.000000 -0.000000 0.000000
vn -1.000000 -0.000000 0.000000
vn -1.000000 -0.000000 0.000000
vn -1.000000 -0.000000 0.000000
vn 0.000000 -1.000000 0.000000
vn 0.000000 -1.000000 0.000000
vn 0.000000 -1.000000 0.000000
vn 0.000000 -1.000000 0.000000
vn 1.000000 0.000000 0.000000
vn 1.000000 0.000000 0.000000
vn 1.000000 0.000000 0.000000
vn 1.000000 0.000000 0.000000
vn -0.000000 1.000000 0.000000
vn -0.000000 1.000000 0.000000
vn -0.000000 1.000000 0.000000
vn -0.000000 1.000000 0.000000
vn -1.000000 -0.000000 0.000000
vn -1.000000 -0.000000 0.000000
vn -1.000000 -0.000000 0.000000
vn -1.000000 -0.000000 0.000000
vn -0.000000 1.000000 0.000000
vn -0.000000 1.000000 0.000000
vn -0.000000 1.000000 0.000000
vn -0.000000 1.000000 0.000000
vn 0.000000 -1.000000 0.000000
vn 0.000000 -1.000000 0.000000
vn 0.000000 -1.000000 0.000000
vn 0.000000 -1.000000 0.000000
vn -1.000000 -0.000000 0.000000
vn -1.000000 -0.000000 0.000000
vn -1.000000 -0.000000 0.000000
vn -1.000000 -0.000000 0.000000
vn 0.000000 0.000000 1.000000
vn 0.000000 0.000000 1.000000
vn 0.000000 0.000000 1.000000
vn 0.000000 0.000000 1.000000
vn 0.000000 0.000000 -1.000000
vn 0.000000 0.000000 -1.000000
vn 0.000000 0.000000 -1.000000
vn 0.000000 0.000000 -1.000000
vn 1.000000 0.000000 0.000000
vn 1.000000 0.000000 0.000000
vn 1.000000 0.000000 0.000000
vn 1.000000 0.000000 0.000000
vn -0.000000 1.000000 0.000000
vn -0.000000 1.000000 0.000000
vn -0.000000 1.000000 0.000000
vn -0.000000 1.000000 0.000000
vn -0.000000 1.000000 0.000000
vn -0.000000 1.000000 0.000000
vn -0.000000 1.000000 0.000000
vn -0.000000 1.000000 0.000000
vn -0.000000 1.000000 0.000000
vn -0.000000 1.000000 0.000000
vn -0.000000 1.000000 0.000000
vn -0.000000 1.000000 0.000000
vn -0.000000 1.000000 0.000000
vn -0.000000 1.000000 0.000000
vn -0.000000 1.000000 0.000000
vn -0.000000 1.000000 0.000000
vn 0.000000 -1.000000 -0.000002
vn 0.000000 -1.000000 -0.000002
vn 0.000000 -1.000000 -0.000002
vn 0.000000 -1.000000 -0.000002
vn 0.000000 -1.000000 0.000000
vn 0.000000 -1.000000 0.000000
vn 0.000000 -1.000000 0.000000
vn 0.000000 -1.000000 0.000000
vn 0.000000 -1.000000 0.000002
vn 0.000000 -1.000000 0.000002
vn 0.000000 -1.000000 0.000002
vn 0.000000 -1.000000 0.000002
vn 0.000000 -1.000000 0.000000
vn 0.000000 -1.000000 0.000000
vn 0.000000 -1.000000 0.000000
vn 0.000000 -1.000000 0.000000
vn -1.000000 -0.000000 0.000000
vn -1.000000 -0.000000 0.000000
vn -1.000000 -0.000000 0.000000
vn -1.000000 -0.000000 0.000000
vn 0.000000 0.000000 -1.000000
vn 0.000000 0.000000 -1.000000
vn 0.000000 0.000000 -1.000000
vn 0.000000 0.000000 -1.000000
vn 1.000000 0.000000 0.000000
vn 1.000000 0.000000 0.000000
vn 1.000000 0.000000 0.000000
vn 1.000000 0.000000 0.000000
vn 0.000000 0.000000 1.000000
vn 0.000000 0.000000 1.000000
vn 0.000000 0.000000 1.000000
vn 0.000000 0.000000 1.000000
vn 1.000000 0.000000 0.000000
vn 1.000000 0.000000 0.000000
vn 1.000000 0.000000 0.000000
vn 1.000000 0.000000 0.000000
vn 0.000000 -1.000000 0.000000
vn 0.000000 -1.000000 0.000000
vn 0.000000 -1.000000 0.000000
vn 0.000000 -1.000000 0.000000
vn -0.000000 1.000000 0.000000
vn -0.000000 1.000000 0.000000
vn -0.000000 1.000000 0.000000
vn -0.000000 1.000000 0.000000
vn -1.000000 -0.000000 0.000000
vn -1.000000 -0.000000 0.000000
vn -1.000000 -0.000000 0.000000
vn -1.000000 -0.000000 0.000000
vn 0.000000 -1.000000 0.000000
vn 0.000000 -1.000000 0.000000
vn 0.000000 -1.000000 0.000000
vn 0.000000 -1.000000 0.000000
vn 1.000000 0.000000 0.000000
vn 1.000000 0.000000 0.000000
vn 1.000000 0.000000 0.000000
vn 1.000000 0.000000 0.000000
vn -0.000000 1.000000 0.000000
vn -0.000000 1.000000 0.000000
vn -0.000000 1.000000 0.000000
vn -0.000000 1.000000 0.000000
vn -1.000000 -0.000000 0.000000
vn -1.000000 -0.000000 0.000000
vn -1.000000 -0.000000 0.000000
vn -1.000000 -0.000000 0.000000
vn -0.000000 1.000000 0.000000
vn -0.000000 1.000000 0.000000
vn -0.000000 1.000000 0.000000
vn -0.000000 1.000000 0.000000
vn 0.000000 -1.000000 0.000000
vn 0.000000 -1.000000 0.000000
vn 0.000000 -1.000000 0.000000
vn 0.000000 -1.000000 0.000000
vn -1.000000 -0.000000 0.000000
vn -1.000000 -0.000000 0.000000
vn -1.000000 -0.000000 0.000000
vn -1.000000 -0.000000 0.000000
vn 0.000000 0.000000 1.000000
vn 0.000000 0.000000 1.000000
vn 0.000000 0.000000 1.000000
vn 0.000000 0.000000 1.000000
vn 0.000000 0.000000 -1.000000
vn 0.000000 0.000000 -1.000000
vn 0.000000 0.000000 -1.000000
vn 0.000000 0.000000 -1.000000
vn 1.000000 0.000000 0.000000
vn 1.000000 0.000000 0.000000
vn 1.000000 0.000000 0.000000
vn 1.000000 0.000000 0.000000
vn -0.000000 1.000000 0.000000
vn -0.000000 1.000000 0.000000
vn -0.000000 1.000000 0.000000
vn -0.000000 1.000000 0.000000
vn -0.000000 1.000000 0.000002
vn -0.000000 1.000000 0.000002
vn -0.000000 1.000000 0.000002
vn -0.000000 1.000000 0.000002
vn -0.000000 1.000000 0.000000
vn -0.000000 1.000000 0.000000
vn -0.000000 1.000000 0.000000
vn -0.000000 1.000000 0.000000
vn -0.000000 1.000000 -0.000002
vn -0.000000 1.000000 -0.000002
vn -0.000000 1.000000 -0.000002
vn -0.000000 1.000000 -0.000002
vn 0.000000 -1.000000 0.000000
vn 0.000000 -1.000000 0.000000
vn 0.000000 -1.000000 0.000000
vn 0.000000 -1.000000 0.000000
vn 0.000000 -1.000000 0.000000
vn 0.000000 -1.000000 0.000000
vn 0.000000 -1.000000 0.000000
vn 0.000000 -1.000000 0.000000
vn 0.000000 -1.000000 0.000000
vn 0.000000 -1.000000 0.000000
vn 0.000000 -1.000000 0.000000
vn 0.000000 -1.000000 0.000000
vn 0.000000 -1.000000 0.000000
vn 0.000000 -1.000000 0.000000
vn 0.000000 -1.000000 0.000000
vn 0.000000 -1.000000 0.000000
vn -1.000000 -0.000000 0.000000
vn -1.000000 -0.000000 0.000000
vn -1.000000 -0.000000 0.000000
vn -1.000000 -0.000000 0.000000
vn 0.000000 0.000000 -1.000000
vn 0.000000 0.000000 -1.000000
vn 0.000000 0.000000 -1.000000
vn 0.000000 0.000000 -1.000000
vn 1.000000 0.000000 0.000000
vn 1.000000 0.000000 0.000000
vn 1.000000 0.000000 0.000000
vn 1.000000 0.000000 0.000000
vn 0.000000 0.000000 1.000000
vn 0.000000 0.000000 1.000000
vn 0.000000 0.000000 1.000000
vn 0.000000 0.000000 1.000000
vn 1.000000 0.000000 0.000000
vn 1.000000 0.000000 0.000000
vn 1.000000 0.000000 0.000000
vn 1.000000 0.000000 0.000000
vn 0.000000 -1.000000 0.000000
vn 0.000000 -1.000000 0.000000
vn 0.000000 -1.000000 0.000000
vn 0.000000 -1.000000 0.000000
vn -0.000000 1.000000 0.000000
vn -0.000000 1.000000 0.000000
vn -0.000000 1.000000 0.000000
vn -0.000000 1.000000 0.000000
vn -1.000000 -0.000000 0.000000
vn -1.000000 -0.000000 0.000000
vn -1.000000 -0.000000 0.000000
vn -1.000000 -0.000000 0.000000
vn 0.000000 -1.000000 0.000000
vn 0.000000 -1.000000 0.000000
vn 0.000000 -1.000000 0.000000
vn 0.000000 -1.000000 0.000000
vn 1.000000 0.000000 0.000000
vn 1.000000 0.000000 0.000000
vn 1.000000 0.000000 0.000000
vn 1.000000 0.000000 0.000000
vn -0.000000 1.000000 0.000000
vn -0.000000 1.000000 0.000000
vn -0.000000 1.000000 0.000000
vn -0.000000 1.000000 0.000000
vn -1.000000 -0.000000 0.000000
vn -1.000000 -0.000000 0.000000
vn -1.000000 -0.000000 0.000000
vn -1.000000 -0.000000 0.000000
vn -0.000000 1.000000 0.000000
vn -0.000000 1.000000 0.000000
vn -0.000000 1.000000 0.000000
vn -0.000000 1.000000 0.000000
vn 0.000000 -1.000000 0.000000
vn 0.000000 -1.000000 0.000000
vn 0.000000 -1.000000 0.000000
vn 0.000000 -1.000000 0.000000
vn -1.000000 -0.000000 0.000000
vn -1.000000 -0.000000 0.000000
vn -1.000000 -0.000000 0.000000
vn -1.000000 -0.000000 0.000000
vn 0.000000 0.000000 1.000000
vn 0.000000 0.000000 1.000000
vn 0.000000 0.000000 1.000000
vn 0.000000 0.000000 1.000000
vn 0.000000 0.000000 -1.000000
vn 0.000000 0.000000 -1.000000
vn 0.000000 0.000000 -1.000000
vn 0.000000 0.000000 -1.000000
vn 1.000000 0.000000 0.000000
vn 1.000000 0.000000 0.000000
vn 1.000000 0.000000 0.000000
vn 1.000000 0.000000 0.000000
vn -0.000000 1.000000 0.000000
vn -0.000000 1.000000 0.000000
vn -0.000000 1.000000 0.000000
vn -0.000000 1.000000 0.000000
vn -0.000000 1.000000 0.000000
vn -0.000000 1.000000 0.000000
vn -0.000000 1.000000 0.000000
vn -0.000000 1.000000 0.000000
vn -0.000000 1.000000 0.000000
vn -0.000000 1.000000 0.000000
vn -0.000000 1.000000 0.000000
vn -0.000000 1.000000 0.000000
vn -0.000000 1.000000 0.000000
vn -0.000000 1.000000 0.000000
vn -0.000000 1.000000 0.000000
vn -0.000000 1.000000 0.000000
vn 0.000000 -1.000000 0.000001
vn 0.000000 -1.000000 0.000001
vn 0.000000 -1.000000 0.000001
vn 0.000000 -1.000000 0.000001
vn 0.000000 -1.000000 0.000000
vn 0.000000 -1.000000 0.000000
vn 0.000000 -1.000000 0.000000
vn 0.000000 -1.000000 0.000000
vn 0.000000 -1.000000 -0.000001
vn 0.000000 -1.000000 -0.000001
vn 0.000000 -1.000000 -0.000001
vn 0.000000 -1.000000 -0.000001
vn 0.000000 -1.000000 0.000000
vn 0.000000 -1.000000 0.000000
vn 0.000000 -1.000000 0.000000
vn 0.000000 -1.000000 0.000000
vn -1.000000 -0.000000 0.000000
vn -1.000000 -0.000000 0.000000
vn -1.000000 -0.000000 0.000000
vn -1.000000 -0.000000 0.000000
vn 0.000000 0.000000 -1.000000
vn 0.000000 0.000000 -1.000000
vn 0.000000 0.000000 -1.000000
vn 0.000000 0.000000 -1.000000
vn 1.000000 0.000000 0.000000
vn 1.000000 0.000000 0.000000
vn 1.000000 0.000000 0.000000
vn 1.000000 0.000000 0.000000
vn 0.000000 0.000000 1.000000
vn 0.000000 0.000000 1.000000
vn 0.000000 0.000000 1.000000
vn 0.000000 0.000000 1.000000
vn 1.000000 0.000000 0.000000
vn 1.000000 0.000000 0.000000
vn 1.000000 0.000000 0.000000
vn 1.000000 0.000000 0.000000
vn 0.000000 -1.000000 0.000000
vn 0.000000 -1.000000 0.000000
vn 0.000000 -1.000000 0.000000
vn 0.000000 -1.000000 0.000000
vn -0.000000 1.000000 0.000000
vn -0.000000 1.000000 0.000000
vn -0.000000 1.000000 0.000000
vn -0.000000 1.000000 0.000000
vn -1.000000 -0.000000 0.000000
vn -1.000000 -0.000000 0.000000
vn -1.000000 -0.000000 0.000000
vn -1.000000 -0.000000 0.000000
vn 0.000000 -1.000000 0.000000
vn 0.000000 -1.000000 0.000000
vn 0.000000 -1.000000 0.000000
vn 0.000000 -1.000000 0.000000
vn 1.000000 0.000000 0.000000
vn 1.000000 0.000000 0.000000
vn 1.000000 0.000000 0.000000
vn 1.000000 0.000000 0.000000
vn -0.000000 1.000000 0.000000
vn -0.000000 1.000000 0.000000
vn -0.000000 1.000000 0.000000
vn -0.000000 1.000000 0.000000
vn -1.000000 -0.000000 0.000000
vn -1.000000 -0.000000 0.000000
vn -1.000000 -0.000000 0.000000
vn -1.000000 -0.000000 0.000000
vn -0.000000 1.000000 0.000000
vn -0.000000 1.000000 0.000000
vn -0.000000 1.000000 0.000000
vn -0.000000 1.000000 0.000000
vn 0.000000 -1.000000 0.000000
vn 0.000000 -1.000000 0.000000
vn 0.000000 -1.000000 0.000000
vn 0.000000 -1.000000 0.000000
vn -1.000000 -0.000000 0.000000
vn -1.000000 -0.000000 0.000000
vn -1.000000 -0.000000 0.000000
vn -1.000000 -0.000000 0.000000
vn 0.000000 0.000000 1.000000
vn 0.000000 0.000000 1.000000
vn 0.000000 0.000000 1.000000
vn 0.000000 0.000000 1.000000
vn 0.000000 0.000000 -1.000000
vn 0.000000 0.000000 -1.000000
vn 0.000000 0.000000 -1.000000
vn 0.000000 0.000000 -1.000000
vn 1.000000 0.000000 0.000000
vn 1.000000 0.000000 0.000000
vn 1.000000 0.000000 0.000000
vn 1.000000 0.000000 0.000000
vn -0.000000 1.000000 0.000000
vn -0.000000 1.000000 0.000000
vn -0.000000 1.000000 0.000000
vn -0.000000 1.000000 0.000000
vn -0.000000 1.000000 0.000001
vn -0.000000 1.000000 0.000001
vn -0.000000 1.000000 0.000001
vn -0.000000 1.000000 0.000001
vn -0.000000 1.000000 0.000000
vn -0.000000 1.000000 0.000000
vn -0.000000 1.000000 0.000000
vn -0.000000 1.000000 0.000000
vn -0.000000 1.000000 -0.000001
vn -0.000000 1.000000 -0.000001
vn -0.000000 1.000000 -0.000001
vn -0.000000 1.000000 -0.000001
vn 0.000000 -1.000000 0.000000
vn 0.000000 -1.000000 0.000000
vn 0.000000 -1.000000 0.000000
vn 0.000000 -1.000000 0.000000
vn 0.000000 -1.000000 0.000000
vn 0.000000 -1.000000 0.000000
vn 0.000000 -1.000000 0.000000
vn 0.000000 -1.000000 0.000000
vn 0.000000 -1.000000 0.000000
vn 0.000000 -1.000000 0.000000
vn 0.000000 -1.000000 0.000000
vn 0.000000 -1.000000 0.000000
vn 0.000000 -1.000000 0.000000
vn 0.000000 -1.000000 0.000000
vn 0.000000 -1.000000 0.000000
vn 0.000000 -1.000000 0.000000
vn -1.000000 -0.000000 0.000000
vn -1.000000 -0.000000 0.000000
vn -1.000000 -0.000000 0.000000
vn -1.000000 -0.000000 0.000000
vn 0.000000 0.000000 -1.000000
vn 0.000000 0.000000 -1.000000
vn 0.000000 0.000000 -1.000000
vn 0.000000 0.000000 -1.000000
vn 1.000000 0.000000 0.000000
vn 1.000000 0.000000 0.000000
vn 1.000000 0.000000 0.000000
vn 1.000000 0.000000 0.000000
vn 0.000000 0.000000 1.000000
vn 0.000000 0.000000 1.000000
vn 0.000000 0.000000 1.000000
vn 0.000000 0.000000 1.000000
vn 1.000000 0.000000 0.000000
vn 1.000000 0.000000 0.000000
vn 1.000000 0.000000 0.000000
vn 1.000000 0.000000 0.000000
vn 0.000000 -1.000000 0.000000
vn 0.000000 -1.000000 0.000000
vn 0.000000 -1.000000 0.000000
vn 0.000000 -1.000000 0.000000
vn -0.000000 1.000000 0.000000
vn -0.000000 1.000000 0.000000
vn -0.000000 1.000000 0.000000
vn -0.000000 1.000000 0.000000
vn -1.000000 -0.000000 0.000000
vn -1.000000 -0.000000 0.000000
vn -1.000000 -0.000000 0.000000
vn -1.000000 -0.000000 0.000000
vn 0.000000 -1.000000 0.000000
vn 0.000000 -1.000000 0.000000
vn 0.000000 -1.000000 0.000000
vn 0.000000 -1.000000 0.000000
vn 1.000000 0.000000 0.000000
vn 1.000000 0.000000 0.000000
vn 1.000000 0.000000 0.000000
vn 1.000000 0.000000 0.000000
vn -0.000000 1.000000 0.000000
vn -0.000000 1.000000 0.000000
vn -0.000000 1.000000 0.000000
vn -0.000000 1.000000 0.000000
vn -1.000000 -0.000000 0.000000
vn -1.000000 -0.000000 0.000000
vn -1.000000 -0.000000 0.000000
vn -1.000000 -0.000000 0.000000
vn 1.000000 0.000000 0.000000
vn 1.000000 0.000000 0.000000
vn 1.000000 0.000000 0.000000
vn 1.000000 0.000000 0.000000
vn 1.000000 0.000000 0.000000
vn 1.000000 0.000000 0.000000
vn 1.000000 0.000000 0.000000
vn 1.000000 0.000000 0.000000
vn 1.000000 0.000000 0.000000
vn 1.000000 0.000000 0.000000
vn 1.000000 0.000000 0.000000
vn 1.000000 0.000000 0.000000
vn 1.000000 0.000000 0.000000
vn 1.000000 0.000000 0.000000
vn 1.000000 0.000000 0.000000
vn 1.000000 0.000000 0.000000
vn 1.000000 0.000000 0.000000
vn 1.000000 0.000000 0.000000
vn 1.000000 0.000000 0.000000
vn 1.000000 0.000000 0.000000
vn 1.000000 0.000000 0.000000
vn 1.000000 0.000000 0.000000
vn 1.000000 0.000000 0.000000
vn 1.000000 0.000000 0.000000
vn 1.000000 0.000000 0.000000
vn 1.000000 0.000000 0.000000
vn 1.000000 0.000000 0.000000
vn 1.000000 0.000000 0.000000
vn 1.000000 0.000000 0.000000
vn 1.000000 0.000000 0.000000
vn 1.000000 0.000000 0.000000
vn 1.000000 0.000000 0.000000
vn 1.000000 0.000000 0.000000
vn 1.000000 0.000000 0.000000
vn 1.000000 0.000000 0.000000
vn 1.000000 0.000000 0.000000
vn 1.000000 0.000000 0.000000
vn 1.000000 0.000000 0.000000
vn 1.000000 0.000000 0.000000
vn 1.000000 0.000000 0.000000
vn 1.000000 0.000000 0.000000
vn 1.000000 0.000000 0.000000
vn 1.000000 0.000000 0.000000
vn 1.000000 0.000000 0.000000
vn 1.000000 0.000000 0.000000
vn 1.000000 0.000000 0.000000
vn 1.000000 0.000000 0.000000
vn 1.000000 0.000000 0.000000
vn 1.000000 0.000000 0.000000
vn 1.000000 0.000000 0.000000
vn 1.000000 0.000000 0.000000
vn 1.000000 0.000000 0.000000
vn 1.000000 0.000000 0.000000
vn 1.000000 0.000000 0.000000
vn 1.000000 0.000000 0.000000
vn 1.000000 0.000000 0.000000
vn 1.000000 0.000000 0.000000
vn 1.000000 0.000000 0.000000
vn 1.000000 0.000000 0.000000
vn 1.000000 0.000000 0.000000
vn 1.000000 0.000000 0.000000
vn 1.000000 0.000000 0.000000
vn 1.000000 0.000000 0.000000
vn 1.000000 0.000000 0.000000
vn 1.000000 0.000000 0.000000
vn 1.000000 0.000000 0.000000
vn 1.000000 0.000000 0.000000
vn 1.000000 0.000000 0.000000
vn 1.000000 0.000000 0.000000
vn 1.000000 0.000000 0.000000
vn 1.000000 0.000000 0.000000
vn 1.000000 0.000000 0.000000
vn 1.000000 0.000000 0.000000
vn 1.000000 0.000000 0.000000
vn 1.000000 0.000000 0.000000
vn 1.000000 0.000000 0.000000
vn 1.000000 0.000000 0.000000
vn 1.000000 0.000000 0.000000
vn 1.000000 0.000000 0.000000
vn 1.000000 0.000000 0.000000
vn 1.000000 0.000000 0.000000
vn 1.000000 0.000000 0.000000
vn 1.000000 0.000000 0.000000
vn 1.000000 0.000000 0.000000
vn 1.000000 0.000000 0.000000
vn 1.000000 0.000000 0.000000
vn 1.000000 0.000000 0.000000
vn 1.000000 0.000000 0.000000
vn 1.000000 0.000000 0.000000
vn 1.000000 0.000000 0.000000
vn 1.000000 0.000000 0.000000
vn 1.000000 0.000000 0.000000
vn 1.000000 0.000000 0.000000
vn 1.000000 0.000000 0.000000
vn 1.000000 0.000000 0.000000
vn 1.000000 0.000000 0.000000
vn -1.000000 -0.000000 0.000000
vn -1.000000 -0.000000 0.000000
vn -1.000000 -0.000000 0.000000
vn -1.000000 -0.000000 0.000000
vn -1.000000 -0.000000 0.000000
vn -1.000000 -0.000000 0.000000
vn -1.000000 -0.000000 0.000000
vn -1.000000 -0.000000 0.000000
vn -1.000000 -0.000000 0.000000
vn -1.000000 -0.000000 0.000000
vn -1.000000 -0.000000 0.000000
vn -1.000000 -0.000000 0.000000
vn -1.000000 -0.000000 0.000000
vn -1.000000 -0.000000 0.000000
vn -1.000000 -0.000000 0.000000
vn -1.000000 -0.000000 0.000000
vn -1.000000 -0.000000 0.000000
vn -1.000000 -0.000000 0.000000
vn -1.000000 -0.000000 0.000000
vn -1.000000 -0.000000 0.000000
vn -1.000000 -0.000000 0.000000
vn -1.000000 -0.000000 0.000000
vn -1.000000 -0.000000 0.000000
vn -1.000000 -0.000000 0.000000
vn -1.000000 -0.000000 0.000000
vn -1.000000 -0.000000 0.000000
vn -1.000000 -0.000000 0.000000
vn -1.000000 -0.000000 0.000000
vn -1.000000 -0.000000 0.000000
vn -1.000000 -0.000000 0.000000
vn -1.000000 -0.000000 0.000000
vn -1.000000 -0.000000 0.000000
vn -1.000000 -0.000000 0.000000
vn -1.000000 -0.000000 0.000000
vn -1.000000 -0.000000 0.000000
vn -1.000000 -0.000000 0.000000
vn -1.000000 -0.000000 0.000000
vn -1.000000 -0.000000 0.000000
vn -1.000000 -0.000000 0.000000
vn -1.000000 -0.000000 0.000000
vn -1.000000 -0.000000 0.000000
vn -1.000000 -0.000000 0.000000
vn -1.000000 -0.000000 0.000000
vn -1.000000 -0.000000 0.000000
vn -1.000000 -0.000000 0.000000
vn -1.000000 -0.000000 0.000000
vn -1.000000 -0.000000 0.000000
vn -1.000000 -0.000000 0.000000
vn -1.000000 -0.000000 0.000000
vn -1.000000 -0.000000 0.000000
vn -1.000000 -0.000000 0.000000
vn -1.000000 -0.000000 0.000000
vn -1.000000 -0.000000 0.000000
vn -1.000000 -0.000000 0.000000
vn -1.000000 -0.000000 0.000000
vn -1.000000 -0.000000 0.000000
vn -1.000000 -0.000000 0.000000
vn -1.000000 -0.000000 0.000000
vn -1.000000 -0.000000 0.000000
vn -1.000000 -0.000000 0.000000
vn -1.000000 -0.000000 0.000000
vn -1.000000 -0.000000 0.000000
vn -1.000000 -0.000000 0.000000
vn -1.000000 -0.000000 0.000000
vn -1.000000 -0.000000 0.000000
vn -1.000000 -0.000000 0.000000
vn -1.000000 -0.000000 0.000000
vn -1.000000 -0.000000 0.000000
vn -1.000000 -0.000000 0.000000
vn -1.000000 -0.000000 0.000000
vn -1.000000 -0.000000 0.000000
vn -1.000000 -0.000000 0.000000
vn -1.000000 -0.000000 0.000000
vn -1.000000 -0.000000 0.000000
vn -1.000000 -0.000000 0.000000
vn -1.000000 -0.000000 0.000000
vn -1.000000 -0.000000 0.000000
vn -1.000000 -0.000000 0.000000
vn -1.000000 -0.000000 0.000000
vn -1.000000 -0.000000 0.000000
vn -1.000000 -0.000000 0.000000
vn -1.000000 -0.000000 0.000000
vn -1.000000 -0.000000 0.000000
vn -1.000000 -0.000000 0.000000
vn -1.000000 -0.000000 0.000000
vn -1.000000 -0.000000 0.000000
vn -1.000000 -0.000000 0.000000
vn -1.000000 -0.000000 0.000000
vn -1.000000 -0.000000 0.000000
vn -1.000000 -0.000000 0.000000
vn -1.000000 -0.000000 0.000000
vn -1.000000 -0.000000 0.000000
vn -1.000000 -0.000000 0.000000
vn -1.000000 -0.000000 0.000000
vn -1.000000 -0.000000 0.000000
vn -1.000000 -0.000000 0.000000
vn 0.000000 0.000000 1.000000
vn 0.000000 0.000000 1.000000
vn 0.000000 0.000000 1.000000
vn 0.000000 0.000000 1.000000
vn 0.000000 0.000000 -1.000000
vn 0.000000 0.000000 -1.000000
vn 0.000000 0.000000 -1.000000
vn 0.000000 0.000000 -1.000000
vn 0.000000 0.000000 -1.000000
vn 0.000000 0.000000 -1.000000
vn 0.000000 0.000000 -1.000000
vn 0.000000 0.000000 -1.000000
vn 0.000000 -1.000000 0.000000
vn 0.000000 -1.000000 0.000000
vn 0.000000 -1.000000 0.000000
vn 0.000000 -1.000000 0.000000
vn -0.000000 1.000000 0.000000
vn -0.000000 1.000000 0.000000
vn -0.000000 1.000000 0.000000
vn -0.000000 1.000000 0.000000
vn 0.000000 0.000000 1.000000
vn 0.000000 0.000000 1.000000
vn 0.000000 0.000000 1.000000
vn 0.000000 0.000000 1.000000
vn 0.000000 0.000000 -1.000000
vn 0.000000 0.000000 -1.000000
vn 0.000000 0.000000 -1.000000
vn 0.000000 0.000000 -1.000000
vn -0.000000 1.000000 0.000000
vn -0.000000 1.000000 0.000000
vn -0.000000 1.000000 0.000000
vn -0.000000 1.000000 0.000000
vn 0.000000 0.000000 1.000000
vn 0.000000 0.000000 1.000000
vn 0.000000 0.000000 1.000000
vn 0.000000 0.000000 1.000000
vn 0.000000 0.000000 1.000000
vn 0.000000 0.000000 1.000000
vn 0.000000 0.000000 1.000000
vn 0.000000 0.000000 1.000000
vn 0.000000 -1.000000 0.000000
vn 0.000000 -1.000000 0.000000
vn 0.000000 -1.000000 0.000000
vn 0.000000 -1.000000 0.000000
vn 0.000000 0.000000 -1.000000
vn 0.000000 0.000000 -1.000000
vn 0.000000 0.000000 -1.000000
vn 0.000000 0.000000 -1.000000
vn 0.000000 0.000000 -1.000000
vn 0.000000 0.000000 -1.000000
vn 0.000000 0.000000 -1.000000
vn 0.000000 0.000000 -1.000000
vn -0.000000 1.000000 0.000000
vn -0.000000 1.000000 0.000000
vn -0.000000 1.000000 0.000000
vn -0.000000 1.000000 0.000000
vn 0.000000 0.000000 1.000000
vn 0.000000 0.000000 1.000000
vn 0.000000 0.000000 1.000000
vn 0.000000 0.000000 1.000000
vn 0.000000 0.000000 -1.000000
vn 0.000000 0.000000 -1.000000
vn 0.000000 0.000000 -1.000000
vn 0.000000 0.000000 -1.000000
vn 0.000000 -1.000000 0.000000
vn 0.000000 -1.000000 0.000000
vn 0.000000 -1.000000 0.000000
vn 0.000000 -1.000000 0.000000
vn 0.000000 0.000000 1.000000
vn 0.000000 0.000000 1.000000
vn 0.000000 0.000000 1.000000
vn 0.000000 0.000000 1.000000
vn 0.000000 0.000000 1.000000
vn 0.000000 0.000000 1.000000
vn 0.000000 0.000000 1.000000
vn 0.000000 0.000000 1.000000
vn 0.000000 0.000000 -1.000000
vn 0.000000 0.000000 -1.000000
vn 0.000000 0.000000 -1.000000
vn 0.000000 0.000000 -1.000000
vn -0.000000 0.000002 -1.000000
vn -0.000000 0.000002 -1.000000
vn -0.000000 0.000002 -1.000000
vn -0.000000 0.000002 -1.000000
vn -0.000000 1.000000 0.000000
vn -0.000000 1.000000 0.000000
vn -0.000000 1.000000 0.000000
vn -0.000000 1.000000 0.000000
vn -0.000000 1.000000 0.000000
vn -0.000000 1.000000 0.000000
vn -0.000000 1.000000 0.000000
vn -0.000000 1.000000 0.000000
vn 0.000000 0.000000 1.000000
vn 0.000000 0.000000 1.000000
vn 0.000000 0.000000 1.000000
vn 0.000000 0.000000 1.000000
vn 0.000000 -1.000000 0.000000
vn 0.000000 -1.000000 0.000000
vn 0.000000 -1.000000 0.000000
vn 0.000000 -1.000000 0.000000
vn 0.000000 0.000000 -1.000000
vn 0.000000 0.000000 -1.000000
vn 0.000000 0.000000 -1.000000
vn 0.000000 0.000000 -1.000000
vn 0.000000 0.000000 1.000000
vn 0.000000 0.000000 1.000000
vn 0.000000 0.000000 1.000000
vn 0.000000 0.000000 1.000000
vn 0.000000 0.000000 1.000000
vn 0.000000 0.000000 1.000000
vn 0.000000 0.000000 1.000000
vn 0.000000 0.000000 1.000000
vn 0.000000 0.000000 -1.000000
vn 0.000000 0.000000 -1.000000
vn 0.000000 0.000000 -1.000000
vn 0.000000 0.000000 -1.000000
vn 0.000000 -1.000000 0.000000
vn 0.000000 -1.000000 0.000000
vn 0.000000 -1.000000 0.000000
vn 0.000000 -1.000000 0.000000
vn -0.000000 1.000000 0.000000
vn -0.000000 1.000000 0.000000
vn -0.000000 1.000000 0.000000
vn -0.000000 1.000000 0.000000
vn -0.000000 1.000000 0.000000
vn -0.000000 1.000000 0.000000
vn -0.000000 1.000000 0.000000
vn -0.000000 1.000000 0.000000
vn 0.000000 -1.000000 0.000000
vn 0.000000 -1.000000 0.000000
vn 0.000000 -1.000000 0.000000
vn 0.000000 -1.000000 0.000000
vn 0.000000 0.000000 1.000000
vn 0.000000 0.000000 1.000000
vn 0.000000 0.000000 1.000000
vn 0.000000 0.000000 1.000000
vn 0.000000 -1.000000 0.000000
vn 0.000000 -1.000000 0.000000
vn 0.000000 -1.000000 0.000000
vn 0.000000 -1.000000 0.000000
vn 0.000000 -1.000000 0.000000
vn 0.000000 -1.000000 0.000000
vn 0.000000 -1.000000 0.000000
vn 0.000000 -1.000000 0.000000
vn -0.000000 1.000000 0.000000
vn -0.000000 1.000000 0.000000
vn -0.000000 1.000000 0.000000
vn -0.000000 1.000000 0.000000
vn -0.000000 1.000000 0.000000
vn -0.000000 1.000000 0.000000
vn -0.000000 1.000000 0.000000
vn -0.000000 1.000000 0.000000
vn 0.000000 0.000000 1.000000
vn 0.000000 0.000000 1.000000
vn 0.000000 0.000000 1.000000
vn 0.000000 0.000000 1.000000
vn -0.000000 1.000000 0.000000
vn -0.000000 1.000000 0.000000
vn -0.000000 1.000000 0.000000
vn -0.000000 1.000000 0.000000
vn 0.000000 -1.000000 0.000000
vn 0.000000 -1.000000 0.000000
vn 0.000000 -1.000000 0.000000
vn 0.000000 -1.000000 0.000000
vn 0.000000 0.000000 -1.000000
vn 0.000000 0.000000 -1.000000
vn 0.000000 0.000000 -1.000000
vn 0.000000 0.000000 -1.000000
vn 0.000000 -1.000000 0.000000
vn 0.000000 -1.000000 0.000000
vn 0.000000 -1.000000 0.000000
vn 0.000000 -1.000000 0.000000
vn -0.000000 1.000000 0.000000
vn -0.000000 1.000000 0.000000
vn -0.000000 1.000000 0.000000
vn -0.000000 1.000000 0.000000
vn -0.000000 1.000000 0.000000
vn -0.000000 1.000000 0.000000
vn -0.000000 1.000000 0.000000
vn -0.000000 1.000000 0.000000
vn 0.000000 0.000000 -1.000000
vn 0.000000 0.000000 -1.000000
vn 0.000000 0.000000 -1.000000
vn 0.000000 0.000000 -1.000000
vn 0.000000 -1.000000 0.000000
vn 0.000000 -1.000000 0.000000
vn 0.000000 -1.000000 0.000000
vn 0.000000 -1.000000 0.000000
vn 0.000000 0.000000 -1.000000
vn 0.000000 0.000000 -1.000000
vn 0.000000 0.000000 -1.000000
vn 0.000000 0.000000 -1.000000
vn 0.000000 -1.000000 0.000000
vn 0.000000 -1.000000 0.000000
vn 0.000000 -1.000000 0.000000
vn 0.000000 -1.000000 0.000000
vn 1.000000 0.000000 0.000000
vn 1.000000 0.000000 0.000000
vn 1.000000 0.000000 0.000000
vn 1.000000 0.000000 0.000000
vn 1.000000 0.000000 0.000000
vn 1.000000 0.000000 0.000000
vn 1.000000 0.000000 0.000000
vn 1.000000 0.000000 0.000000
vn 1.000000 0.000000 0.000000
vn 1.000000 0.000000 0.000000
vn 1.000000 0.000000 0.000000
vn 1.000000 0.000000 0.000000
vn 1.000000 0.000000 0.000000
vn 1.000000 0.000000 0.000000
vn 1.000000 0.000000 0.000000
vn 1.000000 0.000000 0.000000
vn 1.000000 0.000000 0.000000
vn 1.000000 0.000000 0.000000
vn 1.000000 0.000000 0.000000
vn 1.000000 0.000000 0.000000
vn 1.000000 0.000000 0.000000
vn 1.000000 0.000000 0.000000
vn 1.000000 0.000000 0.000000
vn 1.000000 0.000000 0.000000
vn 1.000000 0.000000 0.000000
vn 1.000000 0.000000 0.000000
vn 1.000000 0.000000 0.000000
vn 1.000000 0.000000 0.000000
vn 1.000000 0.000000 0.000000
vn 1.000000 0.000000 0.000000
vn 1.000000 0.000000 0.000000
vn 1.000000 0.000000 0.000000
vn 1.000000 0.000000 0.000000
vn 1.000000 0.000000 0.000000
vn 1.000000 0.000000 0.000000
vn 1.000000 0.000000 0.000000
vn 1.000000 0.000000 0.000000
vn 1.000000 0.000000 0.000000
vn 1.000000 0.000000 0.000000
vn 1.000000 0.000000 0.000000
vn 1.000000 0.000000 0.000000
vn 1.000000 0.000000 0.000000
vn 1.000000 0.000000 0.000000
vn 1.000000 0.000000 0.000000
vn 1.000000 0.000000 0.000000
vn 1.000000 0.000000 0.000000
vn 1.000000 0.000000 0.000000
vn 1.000000 0.000000 0.000000
vn 1.000000 0.000000 0.000000
vn 1.000000 0.000000 0.000000
vn 1.000000 0.000000 0.000000
vn 1.000000 0.000000 0.000000
vn 1.000000 0.000000 0.000000
vn 1.000000 0.000000 0.000000
vn 1.000000 0.000000 0.000000
vn 1.000000 0.000000 0.000000
vn 1.000000 0.000000 0.000000
vn 1.000000 0.000000 0.000000
vn 1.000000 0.000000 0.000000
vn 1.000000 0.000000 0.000000
vn 1.000000 0.000000 0.000000
vn 1.000000 0.000000 0.000000
vn 1.000000 0.000000 0.000000
vn 1.000000 0.000000 0.000000
vn 1.000000 0.000000 0.000000
vn 1.000000 0.000000 0.000000
vn 1.000000 0.000000 0.000000
vn 1.000000 0.000000 0.000000
vn 1.000000 0.000000 0.000000
vn 1.000000 0.000000 0.000000
vn 1.000000 0.000000 0.000000
vn 1.000000 0.000000 0.000000
vn 1.000000 0.000000 0.000000
vn 1.000000 0.000000 0.000000
vn 1.000000 0.000000 0.000000
vn 1.000000 0.000000 0.000000
vn 1.000000 0.000000 0.000000
vn 1.000000 0.000000 0.000000
vn 1.000000 0.000000 0.000000
vn 1.000000 0.000000 0.000000
vn 1.000000 0.000000 0.000000
vn 1.000000 0.000000 0.000000
vn 1.000000 0.000000 0.000000
vn 1.000000 0.000000 0.000000
vn 1.000000 0.000000 0.000000
vn 1.000000 0.000000 0.000000
vn 1.000000 0.000000 0.000000
vn 1.000000 0.000000 0.000000
vn 1.000000 0.000000 0.000000
vn 1.000000 0.000000 0.000000
vn 1.000000 0.000000 0.000000
vn 1.000000 0.000000 0.000000
vn 1.000000 0.000000 0.000000
vn 1.000000 0.000000 0.000000
vn 1.000000 0.000000 0.000000
vn 1.000000 0.000000 0.000000
vn -1.000000 -0.000000 0.000000
vn -1.000000 -0.000000 0.000000
vn -1.000000 -0.000000 0.000000
vn -1.000000 -0.000000 0.000000
vn -1.000000 -0.000000 0.000000
vn -1.000000 -0.000000 0.000000
vn -1.000000 -0.000000 0.000000
vn -1.000000 -0.000000 0.000000
vn -1.000000 -0.000000 0.000000
vn -1.000000 -0.000000 0.000000
vn -1.000000 -0.000000 0.000000
vn -1.000000 -0.000000 0.000000
vn -1.000000 -0.000000 0.000000
vn -1.000000 -0.000000 0.000000
vn -1.000000 -0.000000 0.000000
vn -1.000000 -0.000000 0.000000
vn -1.000000 -0.000000 0.000000
vn -1.000000 -0.000000 0.000000
vn -1.000000 -0.000000 0.000000
vn -1.000000 -0.000000 0.000000
vn -1.000000 -0.000000 0.000000
vn -1.000000 -0.000000 0.000000
vn -1.000000 -0.000000 0.000000
vn -1.000000 -0.000000 0.000000
vn -1.000000 -0.000000 0.000000
vn -1.000000 -0.000000 0.000000
vn -1.000000 -0.000000 0.000000
vn -1.000000 -0.000000 0.000000
vn -1.000000 -0.000000 0.000000
vn -1.000000 -0.000000 0.000000
vn -1.000000 -0.000000 0.000000
vn -1.000000 -0.000000 0.000000
vn -1.000000 -0.000000 0.000000
vn -1.000000 -0.000000 0.000000
vn -1.000000 -0.000000 0.000000
vn -1.000000 -0.000000 0.000000
vn -1.000000 -0.000000 0.000000
vn -1.000000 -0.000000 0.000000
vn -1.000000 -0.000000 0.000000
vn -1.000000 -0.000000 0.000000
vn -1.000000 -0.000000 0.000000
vn -1.000000 -0.000000 0.000000
vn -1.000000 -0.000000 0.000000
vn -1.000000 -0.000000 0.000000
vn -1.000000 -0.000000 0.000000
vn -1.000000 -0.000000 0.000000
vn -1.000000 -0.000000 0.000000
vn -1.000000 -0.000000 0.000000
vn -1.000000 -0.000000 0.000000
vn -1.000000 -0.000000 0.000000
vn -1.000000 -0.000000 0.000000
vn -1.000000 -0.000000 0.000000
vn -1.000000 -0.000000 0.000000
vn -1.000000 -0.000000 0.000000
vn -1.000000 -0.000000 0.000000
vn -1.000000 -0.000000 0.000000
vn -1.000000 -0.000000 0.000000
vn -1.000000 -0.000000 0.000000
vn -1.000000 -0.000000 0.000000
vn -1.000000 -0.000000 0.000000
vn -1.000000 -0.000000 0.000000
vn -1.000000 -0.000000 0.000000
vn -1.000000 -0.000000 0.000000
vn -1.000000 -0.000000 0.000000
vn -1.000000 -0.000000 0.000000
vn -1.000000 -0.000000 0.000000
vn -1.000000 -0.000000 0.000000
vn -1.000000 -0.000000 0.000000
vn -1.000000 -0.000000 0.000000
vn -1.000000 -0.000000 0.000000
vn -1.000000 -0.000000 0.000000
vn -1.000000 -0.000000 0.000000
vn -1.000000 -0.000000 0.000000
vn -1.000000 -0.000000 0.000000
vn -1.000000 -0.000000 0.000000
vn -1.000000 -0.000000 0.000000
vn -1.000000 -0.000000 0.000000
vn -1.000000 -0.000000 0.000000
vn -1.000000 -0.000000 0.000000
vn -1.000000 -0.000000 0.000000
vn -1.000000 -0.000000 0.000000
vn -1.000000 -0.000000 0.000000
vn -1.000000 -0.000000 0.000000
vn -1.000000 -0.000000 0.000000
vn -1.000000 -0.000000 0.000000
vn -1.000000 -0.000000 0.000000
vn -1.000000 -0.000000 0.000000
vn -1.000000 -0.000000 0.000000
vn -1.000000 -0.000000 0.000000
vn -1.000000 -0.000000 0.000000
vn -1.000000 -0.000000 0.000000
vn -1.000000 -0.000000 0.000000
vn -1.000000 -0.000000 0.000000
vn -1.000000 -0.000000 0.000000
vn -1.000000 -0.000000 0.000000
vn -1.000000 -0.000000 0.000000
vn 0.000000 0.000000 1.000000
vn 0.000000 0.000000 1.000000
vn 0.000000 0.000000 1.000000
vn 0.000000 0.000000 1.000000
vn 0.000000 0.000000 -1.000000
vn 0.000000 0.000000 -1.000000
vn 0.000000 0.000000 -1.000000
vn 0.000000 0.000000 -1.000000
vn 0.000000 0.000000 -1.000000
vn 0.000000 0.000000 -1.000000
vn 0.000000 0.000000 -1.000000
vn 0.000000 0.000000 -1.000000
vn 0.000000 -1.000000 0.000000
vn 0.000000 -1.000000 0.000000
vn 0.000000 -1.000000 0.000000
vn 0.000000 -1.000000 0.000000
vn -0.000000 1.000000 0.000000
vn -0.000000 1.000000 0.000000
vn -0.000000 1.000000 0.000000
vn -0.000000 1.000000 0.000000
vn 0.000000 0.000000 1.000000
vn 0.000000 0.000000 1.000000
vn 0.000000 0.000000 1.000000
vn 0.000000 0.000000 1.000000
vn 0.000000 0.000000 -1.000000
vn 0.000000 0.000000 -1.000000
vn 0.000000 0.000000 -1.000000
vn 0.000000 0.000000 -1.000000
vn -0.000000 1.000000 0.000000
vn -0.000000 1.000000 0.000000
vn -0.000000 1.000000 0.000000
vn -0.000000 1.000000 0.000000
vn 0.000000 0.000000 1.000000
vn 0.000000 0.000000 1.000000
vn 0.000000 0.000000 1.000000
vn 0.000000 0.000000 1.000000
vn 0.000000 0.000000 1.000000
vn 0.000000 0.000000 1.000000
vn 0.000000 0.000000 1.000000
vn 0.000000 0.000000 1.000000
vn 0.000000 -1.000000 0.000000
vn 0.000000 -1.000000 0.000000
vn 0.000000 -1.000000 0.000000
vn 0.000000 -1.000000 0.000000
vn 0.000000 0.000000 -1.000000
vn 0.000000 0.000000 -1.000000
vn 0.000000 0.000000 -1.000000
vn 0.000000 0.000000 -1.000000
vn 0.000000 0.000000 -1.000000
vn 0.000000 0.000000 -1.000000
vn 0.000000 0.000000 -1.000000
vn 0.000000 0.000000 -1.000000
vn -0.000000 1.000000 0.000000
vn -0.000000 1.000000 0.000000
vn -0.000000 1.000000 0.000000
vn -0.000000 1.000000 0.000000
vn 0.000000 0.000000 1.000000
vn 0.000000 0.000000 1.000000
vn 0.000000 0.000000 1.000000
vn 0.000000 0.000000 1.000000
vn 0.000000 0.000000 -1.000000
vn 0.000000 0.000000 -1.000000
vn 0.000000 0.000000 -1.000000
vn 0.000000 0.000000 -1.000000
vn 0.000000 -1.000000 0.000000
vn 0.000000 -1.000000 0.000000
vn 0.000000 -1.000000 0.000000
vn 0.000000 -1.000000 0.000000
vn 0.000000 0.000000 1.000000
vn 0.000000 0.000000 1.000000
vn 0.000000 0.000000 1.000000
vn 0.000000 0.000000 1.000000
vn 0.000000 0.000000 1.000000
vn 0.000000 0.000000 1.000000
vn 0.000000 0.000000 1.000000
vn 0.000000 0.000000 1.000000
vn 0.000000 0.000000 -1.000000
vn 0.000000 0.000000 -1.000000
vn 0.000000 0.000000 -1.000000
vn 0.000000 0.000000 -1.000000
vn -0.000000 0.000002 -1.000000
vn -0.000000 0.000002 -1.000000
vn -0.000000 0.000002 -1.000000
vn -0.000000 0.000002 -1.000000
vn -0.000000 1.000000 0.000000
vn -0.000000 1.000000 0.000000
vn -0.000000 1.000000 0.000000
vn -0.000000 1.000000 0.000000
vn -0.000000 1.000000 0.000000
vn -0.000000 1.000000 0.000000
vn -0.000000 1.000000 0.000000
vn -0.000000 1.000000 0.000000
vn 0.000000 0.000000 1.000000
vn 0.000000 0.000000 1.000000
vn 0.000000 0.000000 1.000000
vn 0.000000 0.000000 1.000000
vn 0.000000 -1.000000 0.000000
vn 0.000000 -1.000000 0.000000
vn 0.000000 -1.000000 0.000000
vn 0.000000 -1.000000 0.000000
vn 0.000000 0.000000 -1.000000
vn 0.000000 0.000000 -1.000000
vn 0.000000 0.000000 -1.000000
vn 0.000000 0.000000 -1.000000
vn 0.000000 0.000000 1.000000
vn 0.000000 0.000000 1.000000
vn 0.000000 0.000000 1.000000
vn 0.000000 0.000000 1.000000
vn 0.000000 0.000000 1.000000
vn 0.000000 0.000000 1.000000
vn 0.000000 0.000000 1.000000
vn 0.000000 0.000000 1.000000
vn 0.000000 0.000000 -1.000000
vn 0.000000 0.000000 -1.000000
vn 0.000000 0.000000 -1.000000
vn 0.000000 0.000000 -1.000000
vn 0.000000 -1.000000 0.000000
vn 0.000000 -1.000000 0.000000
vn 0.000000 -1.000000 0.000000
vn 0.000000 -1.000000 0.000000
vn -0.000000 1.000000 0.000000
vn -0.000000 1.000000 0.000000
vn -0.000000 1.000000 0.000000
vn -0.000000 1.000000 0.000000
vn -0.000000 1.000000 0.000000
vn -0.000000 1.000000 0.000000
vn -0.000000 1.000000 0.000000
vn -0.000000 1.000000 0.000000
vn 0.000000 -1.000000 0.000000
vn 0.000000 -1.000000 0.000000
vn 0.000000 -1.000000 0.000000
vn 0.000000 -1.000000 0.000000
vn 0.000000 0.000000 1.000000
vn 0.000000 0.000000 1.000000
vn 0.000000 0.000000 1.000000
vn 0.000000 0.000000 1.000000
vn 0.000000 -1.000000 0.000000
vn 0.000000 -1.000000 0.000000
vn 0.000000 -1.000000 0.000000
vn 0.000000 -1.000000 0.000000
vn 0.000000 -1.000000 0.000000
vn 0.000000 -1.000000 0.000000
vn 0.000000 -1.000000 0.000000
vn 0.000000 -1.000000 0.000000
vn -0.000000 1.000000 0.000000
vn -0.000000 1.000000 0.000000
vn -0.000000 1.000000 0.000000
vn -0.000000 1.000000 0.000000
vn -0.000000 1.000000 0.000000
vn -0.000000 1.000000 0.000000
vn -0.000000 1.000000 0.000000
vn -0.000000 1.000000 0.000000
vn 0.000000 0.000000 1.000000
vn 0.000000 0.000000 1.000000
vn 0.000000 0.000000 1.000000
vn 0.000000 0.000000 1.000000
vn -0.000000 1.000000 0.000000
vn -0.000000 1.000000 0.000000
vn -0.000000 1.000000 0.000000
vn -0.000000 1.000000 0.000000
vn 0.000000 -1.000000 0.000000
vn 0.000000 -1.000000 0.000000
vn 0.000000 -1.000000 0.000000
vn 0.000000 -1.000000 0.000000
vn 0.000000 0.000000 -1.000000
vn 0.000000 0.000000 -1.000000
vn 0.000000 0.000000 -1.000000
vn 0.000000 0.000000 -1.000000
vn 0.000000 -1.000000 0.000000
vn 0.000000 -1.000000 0.000000
vn 0.000000 -1.000000 0.000000
vn 0.000000 -1.000000 0.000000
vn -0.000000 1.000000 0.000000
vn -0.000000 1.000000 0.000000
vn -0.000000 1.000000 0.000000
vn -0.000000 1.000000 0.000000
vn -0.000000 1.000000 0.000000
vn -0.000000 1.000000 0.000000
vn -0.000000 1.000000 0.000000
vn -0.000000 1.000000 0.000000
vn -1.000000 -0.000000 0.000000
vn -1.000000 -0.000000 0.000000
vn -1.000000 -0.000000 0.000000
vn -1.000000 -0.000000 0.000000
vn 0.000000 -1.000000 0.000000
vn 0.000000 -1.000000 0.000000
vn 0.000000 -1.000000 0.000000
vn 0.000000 -1.000000 0.000000
vn 0.000000 0.000000 -1.000000
vn 0.000000 0.000000 -1.000000
vn 0.000000 0.000000 -1.000000
vn 0.000000 0.000000 -1.000000
vn 0.000000 -1.000000 0.000000
vn 0.000000 -1.000000 0.000000
vn 0.000000 -1.000000 0.000000
vn 0.000000 -1.000000 0.000000
vn 0.000000 0.000000 1.000000
vn 0.000000 0.000000 1.000000
vn 0.000000 0.000000 1.000000
vn 0.000000 0.000000 1.000000
vn 0.000000 0.000000 1.000000
vn 0.000000 0.000000 1.000000
vn 0.000000 0.000000 1.000000
vn 0.000000 0.000000 1.000000
vn -0.000000 1.000000 0.000000
vn -0.000000 1.000000 0.000000
vn -0.000000 1.000000 0.000000
vn -0.000000 1.000000 0.000000
vn 1.000000 0.000000 0.000000
vn 1.000000 0.000000 0.000000
vn 1.000000 0.000000 0.000000
vn 1.000000 0.000000 0.000000
vn -1.000000 -0.000000 0.000000
vn -1.000000 -0.000000 0.000000
vn -1.000000 -0.000000 0.000000
vn -1.000000 -0.000000 0.000000
vn -1.000000 -0.000000 0.000000
vn -1.000000 -0.000000 0.000000
vn -1.000000 -0.000000 0.000000
vn -1.000000 -0.000000 0.000000
vn -0.000000 1.000000 0.000000
vn -0.000000 1.000000 0.000000
vn -0.000000 1.000000 0.000000
vn -0.000000 1.000000 0.000000
vn 1.000000 0.000000 0.000000
vn 1.000000 0.000000 0.000000
vn 1.000000 0.000000 0.000000
vn 1.000000 0.000000 0.000000
vn 0.000000 -1.000000 0.000000
vn 0.000000 -1.000000 0.000000
vn 0.000000 -1.000000 0.000000
vn 0.000000 -1.000000 0.000000
vn 0.000000 -1.000000 0.000000
vn 0.000000 -1.000000 0.000000
vn 0.000000 -1.000000 0.000000
vn 0.000000 -1.000000 0.000000
vn 0.000000 0.000000 1.000000
vn 0.000000 0.000000 1.000000
vn 0.000000 0.000000 1.000000
vn 0.000000 0.000000 1.000000
vn 0.000000 0.000000 1.000000
vn 0.000000 0.000000 1.000000
vn 0.000000 0.000000 1.000000
vn 0.000000 0.000000 1.000000
vn 1.000000 0.000000 0.000000
vn 1.000000 0.000000 0.000000
vn 1.000000 0.000000 0.000000
vn 1.000000 0.000000 0.000000
vn 1.000000 0.000000 0.000000
vn 1.000000 0.000000 0.000000
vn 1.000000 0.000000 0.000000
vn 1.000000 0.000000 0.000000
vn 0.000000 0.000000 -1.000000
vn 0.000000 0.000000 -1.000000
vn 0.000000 0.000000 -1.000000
vn 0.000000 0.000000 -1.000000
vn -1.000000 -0.000000 0.000000
vn -1.000000 -0.000000 0.000000
vn -1.000000 -0.000000 0.000000
vn -1.000000 -0.000000 0.000000
vn -0.000002 0.000002 -1.000000
vn -0.000002 0.000002 -1.000000
vn -0.000002 0.000002 -1.000000
vn -0.000002 0.000002 -1.000000
vn -0.000002 0.000002 -1.000000
vn -0.000002 0.000002 -1.000000
vn -0.000002 0.000002 -1.000000
vn -0.000002 0.000002 -1.000000
s off
g MetalStair
usemtl initialShadingGroup
f 1/313/1 2/314/2 3/315/3 4/316/4
f 5/317/5 6/318/6 7/319/7 8/320/8
f 29/1/9 30/2/10 15/3/11 12/4/12
f 12/327/13 15/617/14 14/618/15 9/321/16
f 10/322/17 13/339/18 16/343/19 11/325/20
f 9/9/21 14/10/22 13/11/23 10/12/24
f 9/321/25 10/322/26 18/323/27 17/324/28
f 10/322/29 11/325/30 19/326/31 18/323/32
f 29/331/33 12/327/34 20/328/35 31/332/36
f 12/327/37 9/321/38 17/324/39 20/328/40
f 14/333/41 15/334/42 22/335/43 21/336/44
f 26/341/45 16/343/46 23/344/47 28/342/48
f 16/343/49 13/339/50 24/340/51 23/344/52
f 13/339/53 14/333/54 21/336/55 24/340/56
f 17/13/57 18/14/58 24/15/59 21/16/60
f 20/619/61 17/620/62 21/621/63 22/622/64
f 31/17/65 20/18/66 22/19/67 32/20/68
f 18/623/69 19/624/70 23/625/71 24/626/72
f 19/23/73 27/21/74 28/22/75 23/24/76
f 30/337/77 26/341/78 28/342/79 32/338/80
f 11/325/81 25/329/82 27/330/83 19/326/84
f 11/7/85 16/8/86 26/6/87 25/5/88
f 15/334/89 30/337/90 32/338/91 22/335/92
f 27/21/93 31/17/94 32/20/95 28/22/96
f 25/329/97 29/331/98 31/332/99 27/330/100
f 25/5/101 26/6/102 30/2/103 29/1/104
f 33/345/105 34/346/106 35/347/107 36/348/108
f 37/349/109 38/350/110 39/351/111 40/352/112
f 61/25/113 62/26/114 47/27/115 44/28/116
f 44/359/117 47/627/118 46/628/119 41/353/120
f 42/354/121 45/371/122 48/375/123 43/357/124
f 41/33/125 46/34/126 45/35/127 42/36/128
f 41/353/129 42/354/130 50/355/131 49/356/132
f 42/354/133 43/357/134 51/358/135 50/355/136
f 61/363/137 44/359/138 52/360/139 63/364/140
f 44/359/141 41/353/142 49/356/143 52/360/144
f 46/365/145 47/366/146 54/367/147 53/368/148
f 58/373/149 48/375/150 55/376/151 60/374/152
f 48/375/153 45/371/154 56/372/155 55/376/156
f 45/371/157 46/365/158 53/368/159 56/372/160
f 49/37/161 50/38/162 56/39/163 53/40/164
f 52/629/165 49/630/166 53/631/167 54/632/168
f 63/41/169 52/42/170 54/43/171 64/44/172
f 50/633/173 51/634/174 55/635/175 56/636/176
f 51/47/177 59/45/178 60/46/179 55/48/180
f 62/369/181 58/373/182 60/374/183 64/370/184
f 43/357/185 57/361/186 59/362/187 51/358/188
f 43/31/189 48/32/190 58/30/191 57/29/192
f 47/366/193 62/369/194 64/370/195 54/367/196
f 59/45/197 63/41/198 64/44/199 60/46/200
f 57/361/201 61/363/202 63/364/203 59/362/204
f 57/29/205 58/30/206 62/26/207 61/25/208
f 65/377/209 66/378/210 67/379/211 68/380/212
f 69/381/213 70/382/214 71/383/215 72/384/216
f 93/49/217 94/50/218 79/51/219 76/52/220
f 76/391/221 79/637/222 78/638/223 73/385/224
f 74/386/225 77/403/226 80/407/227 75/389/228
f 73/57/229 78/58/230 77/59/231 74/60/232
f 73/385/233 74/386/234 82/387/235 81/388/236
f 74/386/237 75/389/238 83/390/239 82/387/240
f 93/395/241 76/391/242 84/392/243 95/396/244
f 76/391/245 73/385/246 81/388/247 84/392/248
f 78/397/249 79/398/250 86/399/251 85/400/252
f 90/405/253 80/407/254 87/408/255 92/406/256
f 80/407/257 77/403/258 88/404/259 87/408/260
f 77/403/261 78/397/262 85/400/263 88/404/264
f 81/61/265 82/62/266 88/63/267 85/64/268
f 84/639/269 81/640/270 85/641/271 86/642/272
f 95/65/273 84/66/274 86/67/275 96/68/276
f 82/643/277 83/644/278 87/645/279 88/646/280
f 83/71/281 91/69/282 92/70/283 87/72/284
f 94/401/285 90/405/286 92/406/287 96/402/288
f 75/389/289 89/393/290 91/394/291 83/390/292
f 75/55/293 80/56/294 90/54/295 89/53/296
f 79/398/297 94/401/298 96/402/299 86/399/300
f 91/69/301 95/65/302 96/68/303 92/70/304
f 89/393/305 93/395/306 95/396/307 91/394/308
f 89/53/309 90/54/310 94/50/311 93/49/312
f 97/409/313 98/410/314 99/411/315 100/412/316
f 101/413/317 102/414/318 103/415/319 104/416/320
f 125/73/321 126/74/322 111/75/323 108/76/324
f 108/423/325 111/647/326 110/648/327 105/417/328
f 106/418/329 109/435/330 112/439/331 107/421/332
f 105/81/333 110/82/334 109/83/335 106/84/336
f 105/417/337 106/418/338 114/419/339 113/420/340
f 106/418/341 107/421/342 115/422/343 114/419/344
f 125/427/345 108/423/346 116/424/347 127/428/348
f 108/423/349 105/417/350 113/420/351 116/424/352
f 110/429/353 111/430/354 118/431/355 117/432/356
f 122/437/357 112/439/358 119/440/359 124/438/360
f 112/439/361 109/435/362 120/436/363 119/440/364
f 109/435/365 110/429/366 117/432/367 120/436/368
f 113/85/369 114/86/370 120/87/371 117/88/372
f 116/649/373 113/650/374 117/651/375 118/652/376
f 127/89/377 116/90/378 118/91/379 128/92/380
f 114/653/381 115/654/382 119/655/383 120/656/384
f 115/95/385 123/93/386 124/94/387 119/96/388
f 126/433/389 122/437/390 124/438/391 128/434/392
f 107/421/393 121/425/394 123/426/395 115/422/396
f 107/79/397 112/80/398 122/78/399 121/77/400
f 111/430/401 126/433/402 128/434/403 118/431/404
f 123/93/405 127/89/406 128/92/407 124/94/408
f 121/425/409 125/427/410 127/428/411 123/426/412
f 121/77/413 122/78/414 126/74/415 125/73/416
f 129/441/417 130/442/418 131/443/419 132/444/420
f 133/445/421 134/446/422 135/447/423 136/448/424
f 157/825/425 158/826/426 143/827/427 140/828/428
f 140/879/429 143/886/430 142/885/431 137/873/432
f 138/921/433 141/891/434 144/895/435 139/922/436
f 137/833/437 142/834/438 141/835/439 138/836/440
f 137/873/441 138/874/442 146/875/443 145/876/444
f 138/874/445 139/877/446 147/878/447 146/875/448
f 157/883/449 140/879/450 148/880/451 159/884/452
f 140/879/453 137/873/454 145/876/455 148/880/456
f 142/885/457 143/886/458 150/887/459 149/888/460
f 154/893/461 144/895/462 151/896/463 156/894/464
f 144/895/465 141/891/466 152/892/467 151/896/468
f 141/891/469 142/885/470 149/888/471 152/892/472
f 145/837/473 146/838/474 152/839/475 149/840/476
f 148/923/477 145/924/478 149/925/479 150/926/480
f 159/841/481 148/842/482 150/843/483 160/844/484
f 146/927/485 147/928/486 151/929/487 152/930/488
f 147/847/489 155/845/490 156/846/491 151/848/492
f 158/889/493 154/893/494 156/894/495 160/890/496
f 139/877/497 153/881/498 155/882/499 147/878/500
f 139/831/501 144/832/502 154/830/503 153/829/504
f 143/886/505 158/889/506 160/890/507 150/887/508
f 155/845/509 159/841/510 160/844/511 156/846/512
f 153/881/513 157/883/514 159/884/515 155/882/516
f 153/829/517 154/830/518 158/826/519 157/825/520
f 161/449/521 162/450/522 163/451/523 164/452/524
f 165/453/525 166/454/526 167/455/527 168/456/528
f 189/849/529 190/850/530 175/851/531 172/852/532
f 172/903/533 175/910/534 174/909/535 169/897/536
f 170/931/537 173/915/538 176/919/539 171/932/540
f 169/857/541 174/858/542 173/859/543 170/860/544
f 169/897/545 170/898/546 178/899/547 177/900/548
f 170/898/549 171/901/550 179/902/551 178/899/552
f 189/907/553 172/903/554 180/904/555 191/908/556
f 172/903/557 169/897/558 177/900/559 180/904/560
f 174/909/561 175/910/562 182/911/563 181/912/564
f 186/917/565 176/919/566 183/920/567 188/918/568
f 176/919/569 173/915/570 184/916/571 183/920/572
f 173/915/573 174/909/574 181/912/575 184/916/576
f 177/861/577 178/862/578 184/863/579 181/864/580
f 180/933/581 177/934/582 181/935/583 182/936/584
f 191/865/585 180/866/586 182/867/587 192/868/588
f 178/937/589 179/938/590 183/939/591 184/940/592
f 179/871/593 187/869/594 188/870/595 183/872/596
f 190/913/597 186/917/598 188/918/599 192/914/600
f 171/901/601 185/905/602 187/906/603 179/902/604
f 171/855/605 176/856/606 186/854/607 185/853/608
f 175/910/609 190/913/610 192/914/611 182/911/612
f 187/869/613 191/865/614 192/868/615 188/870/616
f 185/905/617 189/907/618 191/908/619 187/906/620
f 185/853/621 186/854/622 190/850/623 189/849/624
f 241/97/625 242/98/626 195/99/627 194/100/628
f 219/144/629 220/143/630 201/145/631 200/146/632
f 225/136/633 226/135/634 205/137/635 204/138/636
f 229/128/637 230/127/638 209/129/639 208/130/640
f 233/120/641 234/119/642 213/121/643 212/122/644
f 237/112/645 238/111/646 217/113/647 216/114/648
f 223/142/649 224/140/650 220/143/651 219/144/652
f 197/149/653 198/147/654 222/148/655 221/150/656
f 199/141/657 202/139/658 224/140/659 223/142/660
f 227/134/661 228/132/662 226/135/663 225/136/664
f 203/133/665 206/131/666 228/132/667 227/134/668
f 231/126/669 232/124/670 230/127/671 229/128/672
f 207/125/673 210/123/674 232/124/675 231/126/676
f 235/118/677 236/116/678 234/119/679 233/120/680
f 211/117/681 214/115/682 236/116/683 235/118/684
f 239/108/685 240/104/686 238/111/687 237/112/688
f 215/107/689 218/103/690 240/104/691 239/108/692
f 193/101/693 196/102/694 242/98/695 241/97/696
f 218/103/697 241/97/698 194/100/699 240/104/700
f 214/115/701 237/112/702 216/114/703 236/116/704
f 210/123/705 233/120/706 212/122/707 232/124/708
f 206/131/709 229/128/710 208/130/711 228/132/712
f 202/139/713 225/136/714 204/138/715 224/140/716
f 198/147/717 219/144/718 200/146/719 222/148/720
f 243/151/721 248/152/722 247/153/723 245/154/724
f 283/197/725 258/199/726 257/200/727 284/198/728
f 285/189/729 264/191/730 263/192/731 286/190/732
f 287/181/733 270/183/734 269/184/735 288/182/736
f 289/173/737 276/175/738 275/176/739 290/174/740
f 291/163/741 282/167/742 281/168/743 292/164/744
f 253/196/745 283/197/746 284/198/747 255/194/748
f 250/203/749 249/204/750 251/202/751 252/201/752
f 254/195/753 253/196/754 255/194/755 256/193/756
f 259/188/757 285/189/758 286/190/759 261/186/760
f 260/187/761 259/188/762 261/186/763 262/185/764
f 265/180/765 287/181/766 288/182/767 267/178/768
f 266/179/769 265/180/770 267/178/771 268/177/772
f 271/172/773 289/173/774 290/174/775 273/170/776
f 272/171/777 271/172/778 273/170/779 274/169/780
f 277/160/781 291/163/782 292/164/783 279/156/784
f 278/159/785 277/160/786 279/156/787 280/155/788
f 244/157/789 243/151/790 245/154/791 246/158/792
f 280/155/793 279/156/794 248/152/795 243/151/796
f 274/169/797 273/170/798 282/167/799 291/163/800
f 268/177/801 267/178/802 276/175/803 289/173/804
f 262/185/805 261/186/806 270/183/807 287/181/808
f 256/193/809 255/194/810 264/191/811 285/189/812
f 252/201/813 251/202/814 258/199/815 283/197/816
f 203/657/817 260/658/818 262/659/819 206/660/820
f 205/663/821 263/664/822 264/665/823 204/666/824
f 194/669/825 248/670/826 279/671/827 240/672/828
f 226/457/829 286/458/830 263/459/831 205/460/832
f 231/463/833 265/464/834 266/465/835 207/466/836
f 218/675/837 280/676/838 243/677/839 241/678/840
f 216/681/841 282/682/842 273/683/843 236/684/844
f 225/469/845 285/470/846 259/471/847 227/472/848
f 207/687/849 266/688/850 268/689/851 210/690/852
f 214/693/853 274/694/854 291/695/855 237/696/856
f 228/461/857 261/462/858 286/458/859 226/457/860
f 209/699/861 269/700/862 270/701/863 208/702/864
f 212/705/865 276/706/866 267/707/867 232/708/868
f 235/475/869 271/476/870 272/477/871 211/478/872
f 210/690/873 268/689/874 289/691/875 233/692/876
f 208/702/877 270/701/878 261/703/879 228/704/880
f 230/481/881 288/482/882 269/483/883 209/484/884
f 211/697/885 272/698/886 274/694/887 214/693/888
f 206/660/889 262/659/890 287/661/891 229/662/892
f 213/709/893 275/710/894 276/706/895 212/705/896
f 204/666/897 264/665/898 255/667/899 224/668/900
f 229/467/901 287/468/902 265/464/903 231/463/904
f 239/487/905 277/488/906 278/489/907 215/490/908
f 202/711/909 256/712/910 285/713/911 225/714/912
f 232/485/913 267/486/914 288/482/915 230/481/916
f 200/717/917 258/718/918 251/719/919 222/720/920
f 215/679/921 278/680/922 280/676/923 218/675/924
f 198/725/925 252/726/926 283/727/927 219/728/928
f 217/685/929 281/686/930 282/682/931 216/681/932
f 234/493/933 290/494/934 275/495/935 213/496/936
f 233/479/937 289/480/938 271/476/939 235/475/940
f 221/499/941 249/500/942 250/501/943 197/502/944
f 236/497/945 273/498/946 290/494/947 234/493/948
f 197/729/949 250/730/950 252/726/951 198/725/952
f 220/503/953 284/504/954 257/505/955 201/506/956
f 238/509/957 292/510/958 281/511/959 217/512/960
f 223/515/961 253/516/962 254/517/963 199/518/964
f 237/491/965 291/492/966 277/488/967 239/487/968
f 199/715/969 254/716/970 256/712/971 202/711/972
f 241/521/973 243/522/974 244/523/975 193/524/976
f 240/513/977 279/514/978 292/510/979 238/509/980
f 201/721/981 257/722/982 258/718/983 200/717/984
f 196/527/985 246/528/986 245/529/987 242/530/988
f 219/519/989 283/520/990 253/516/991 223/515/992
f 227/472/993 259/471/994 260/473/995 203/474/996
f 246/731/997 196/732/998 402/733/999 401/734/1000
f 224/507/1001 255/508/1002 284/504/1003 220/503/1004
f 195/673/1005 247/674/1006 248/670/1007 194/669/1008
f 242/530/1009 245/529/1010 247/531/1011 195/532/1012
f 341/205/1013 342/206/1014 295/207/1015 294/208/1016
f 319/252/1017 320/251/1018 301/253/1019 300/254/1020
f 325/244/1021 326/243/1022 305/245/1023 304/246/1024
f 329/236/1025 330/235/1026 309/237/1027 308/238/1028
f 333/228/1029 334/227/1030 313/229/1031 312/230/1032
f 337/220/1033 338/219/1034 317/221/1035 316/222/1036
f 323/250/1037 324/248/1038 320/251/1039 319/252/1040
f 297/257/1041 298/255/1042 322/256/1043 321/258/1044
f 299/249/1045 302/247/1046 324/248/1047 323/250/1048
f 327/242/1049 328/240/1050 326/243/1051 325/244/1052
f 303/241/1053 306/239/1054 328/240/1055 327/242/1056
f 331/234/1057 332/232/1058 330/235/1059 329/236/1060
f 307/233/1061 310/231/1062 332/232/1063 331/234/1064
f 335/226/1065 336/224/1066 334/227/1067 333/228/1068
f 311/225/1069 314/223/1070 336/224/1071 335/226/1072
f 339/216/1073 340/212/1074 338/219/1075 337/220/1076
f 315/215/1077 318/211/1078 340/212/1079 339/216/1080
f 293/209/1081 296/210/1082 342/206/1083 341/205/1084
f 318/211/1085 341/205/1086 294/208/1087 340/212/1088
f 314/223/1089 337/220/1090 316/222/1091 336/224/1092
f 310/231/1093 333/228/1094 312/230/1095 332/232/1096
f 306/239/1097 329/236/1098 308/238/1099 328/240/1100
f 302/247/1101 325/244/1102 304/246/1103 324/248/1104
f 298/255/1105 319/252/1106 300/254/1107 322/256/1108
f 343/259/1109 348/260/1110 347/261/1111 345/262/1112
f 383/305/1113 358/307/1114 357/308/1115 384/306/1116
f 385/297/1117 364/299/1118 363/300/1119 386/298/1120
f 387/289/1121 370/291/1122 369/292/1123 388/290/1124
f 389/281/1125 376/283/1126 375/284/1127 390/282/1128
f 391/271/1129 382/275/1130 381/276/1131 392/272/1132
f 353/304/1133 383/305/1134 384/306/1135 355/302/1136
f 350/311/1137 349/312/1138 351/310/1139 352/309/1140
f 354/303/1141 353/304/1142 355/302/1143 356/301/1144
f 359/296/1145 385/297/1146 386/298/1147 361/294/1148
f 360/295/1149 359/296/1150 361/294/1151 362/293/1152
f 365/288/1153 387/289/1154 388/290/1155 367/286/1156
f 366/287/1157 365/288/1158 367/286/1159 368/285/1160
f 371/280/1161 389/281/1162 390/282/1163 373/278/1164
f 372/279/1165 371/280/1166 373/278/1167 374/277/1168
f 377/268/1169 391/271/1170 392/272/1171 379/264/1172
f 378/267/1173 377/268/1174 379/264/1175 380/263/1176
f 344/265/1177 343/259/1178 345/262/1179 346/266/1180
f 380/263/1181 379/264/1182 348/260/1183 343/259/1184
f 374/277/1185 373/278/1186 382/275/1187 391/271/1188
f 368/285/1189 367/286/1190 376/283/1191 389/281/1192
f 362/293/1193 361/294/1194 370/291/1195 387/289/1196
f 356/301/1197 355/302/1198 364/299/1199 385/297/1200
f 352/309/1201 351/310/1202 358/307/1203 383/305/1204
f 303/735/1205 360/736/1206 362/737/1207 306/738/1208
f 305/741/1209 363/742/1210 364/743/1211 304/744/1212
f 294/747/1213 348/748/1214 379/749/1215 340/750/1216
f 326/533/1217 386/534/1218 363/535/1219 305/536/1220
f 331/539/1221 365/540/1222 366/541/1223 307/542/1224
f 318/753/1225 380/754/1226 343/755/1227 341/756/1228
f 316/759/1229 382/760/1230 373/761/1231 336/762/1232
f 325/545/1233 385/546/1234 359/547/1235 327/548/1236
f 307/765/1237 366/766/1238 368/767/1239 310/768/1240
f 314/771/1241 374/772/1242 391/773/1243 337/774/1244
f 328/537/1245 361/538/1246 386/534/1247 326/533/1248
f 309/777/1249 369/778/1250 370/779/1251 308/780/1252
f 312/783/1253 376/784/1254 367/785/1255 332/786/1256
f 335/551/1257 371/552/1258 372/553/1259 311/554/1260
f 310/768/1261 368/767/1262 389/769/1263 333/770/1264
f 308/780/1265 370/779/1266 361/781/1267 328/782/1268
f 330/557/1269 388/558/1270 369/559/1271 309/560/1272
f 311/775/1273 372/776/1274 374/772/1275 314/771/1276
f 306/738/1277 362/737/1278 387/739/1279 329/740/1280
f 313/787/1281 375/788/1282 376/784/1283 312/783/1284
f 304/744/1285 364/743/1286 355/745/1287 324/746/1288
f 329/543/1289 387/544/1290 365/540/1291 331/539/1292
f 339/563/1293 377/564/1294 378/565/1295 315/566/1296
f 302/789/1297 356/790/1298 385/791/1299 325/792/1300
f 332/561/1301 367/562/1302 388/558/1303 330/557/1304
f 300/795/1305 358/796/1306 351/797/1307 322/798/1308
f 315/757/1309 378/758/1310 380/754/1311 318/753/1312
f 298/803/1313 352/804/1314 383/805/1315 319/806/1316
f 317/763/1317 381/764/1318 382/760/1319 316/759/1320
f 334/569/1321 390/570/1322 375/571/1323 313/572/1324
f 333/555/1325 389/556/1326 371/552/1327 335/551/1328
f 321/575/1329 349/576/1330 350/577/1331 297/578/1332
f 336/573/1333 373/574/1334 390/570/1335 334/569/1336
f 297/807/1337 350/808/1338 352/804/1339 298/803/1340
f 320/579/1341 384/580/1342 357/581/1343 301/582/1344
f 338/585/1345 392/586/1346 381/587/1347 317/588/1348
f 323/591/1349 353/592/1350 354/593/1351 299/594/1352
f 337/567/1353 391/568/1354 377/564/1355 339/563/1356
f 299/793/1357 354/794/1358 356/790/1359 302/789/1360
f 341/597/1361 343/598/1362 344/599/1363 293/600/1364
f 340/589/1365 379/590/1366 392/586/1367 338/585/1368
f 301/799/1369 357/800/1370 358/796/1371 300/795/1372
f 296/603/1373 346/604/1374 345/605/1375 342/606/1376
f 319/595/1377 383/596/1378 353/592/1379 323/591/1380
f 327/548/1381 359/547/1382 360/549/1383 303/550/1384
f 244/157/1385 246/158/1386 396/161/1387 395/162/1388
f 324/583/1389 355/584/1390 384/580/1391 320/579/1392
f 295/751/1393 347/752/1394 348/748/1395 294/747/1396
f 342/606/1397 345/605/1398 347/607/1399 295/608/1400
f 393/809/1401 395/810/1402 396/811/1403 394/812/1404
f 397/815/1405 399/816/1406 400/817/1407 398/818/1408
f 193/524/1409 244/523/1410 395/525/1411 393/526/1412
f 196/102/1413 193/101/1414 393/105/1415 394/106/1416
f 400/269/1417 346/266/1418 403/273/1419 407/274/1420
f 344/265/1421 346/266/1422 400/269/1423 399/270/1424
f 293/600/1425 344/599/1426 399/601/1427 397/602/1428
f 296/210/1429 293/209/1430 397/213/1431 398/214/1432
f 401/609/1433 402/610/1434 406/611/1435 405/612/1436
f 403/613/1437 404/614/1438 408/615/1439 407/616/1440
f 398/818/1441 400/817/1442 407/819/1443 408/820/1444
f 394/812/1445 396/811/1446 405/813/1447 406/814/1448
f 296/210/1449 398/214/1450 408/217/1451 404/218/1452
f 196/102/1453 394/106/1454 406/109/1455 402/110/1456
f 346/821/1457 296/822/1458 404/823/1459 403/824/1460
f 396/161/1461 246/158/1462 401/165/1463 405/166/1464
f 322/798/1465 351/797/1466 349/801/1467 321/802/1468
f 222/720/1469 251/719/1470 249/723/1471 221/724/1472
