# This file uses centimeters as units for non-parametric coordinates.

mtllib MetalPillar2.mtl
g default
v 35.078674 392.160553 -41.297943
v 35.078674 399.020081 -41.297943
v 32.954826 392.160553 -41.297943
v 32.954826 399.020081 -41.297943
v 35.078598 392.246796 41.398251
v 35.078598 399.106323 41.398251
v 32.954750 392.246796 41.398251
v 32.954750 399.106323 41.398251
v 37.335098 384.742706 -43.514557
v 26.796360 420.599030 -43.514557
v 37.335098 420.599030 -32.975815
v 37.335098 420.599030 -43.514557
v 37.335098 384.742706 -32.975815
v 26.796360 384.742706 -43.514557
v 39.673302 384.742706 -45.827812
v 26.796360 420.599030 -45.833084
v 39.653625 420.599030 -32.975815
v 39.673302 420.599030 -45.827812
v 39.653625 384.742706 -32.975815
v 26.796360 384.742706 -45.833084
v 37.335098 384.742706 43.514557
v 26.796360 420.599030 43.514557
v 37.335098 420.599030 32.975815
v 37.335098 420.599030 43.514557
v 37.335098 384.742706 32.975815
v 26.796360 384.742706 43.514557
v 39.673302 384.742706 45.827812
v 26.796360 420.599030 45.833084
v 39.653625 420.599030 32.975815
v 39.673302 420.599030 45.827812
v 39.653625 384.742706 32.975815
v 26.796360 384.742706 45.833084
v 35.143642 199.054321 41.297939
v 35.143642 399.054321 31.297939
v 25.143635 399.054321 41.297939
v 35.143642 399.054321 41.297939
v 25.143635 199.054321 41.297939
v 35.143642 199.054321 31.297939
v 37.338634 199.054321 43.516613
v 37.343639 399.054321 31.297939
v 25.143642 399.054321 43.497936
v 37.338634 399.054321 43.516613
v 25.143642 199.054321 43.497936
v 37.343639 199.054321 31.297939
v 35.143642 199.054321 -41.297939
v 35.143642 399.054321 -31.297939
v 25.143635 399.054321 -41.297939
v 35.143642 399.054321 -41.297939
v 25.143635 199.054321 -41.297939
v 35.143642 199.054321 -31.297939
v 37.338634 199.054321 -43.516613
v 37.343639 399.054321 -31.297939
v 25.143642 399.054321 -43.497936
v 37.338634 399.054321 -43.516613
v 25.143642 199.054321 -43.497936
v 37.343639 199.054321 -31.297939
v -35.078667 392.160553 -41.297943
v -35.078667 399.020081 -41.297943
v -32.954819 392.160553 -41.297943
v -32.954819 399.020081 -41.297943
v -35.078590 392.246796 41.398251
v -35.078590 399.106323 41.398251
v -32.954742 392.246796 41.398251
v -32.954742 399.106323 41.398251
v -37.335098 384.742706 -43.514557
v -26.796360 420.599030 -43.514557
v -37.335098 420.599030 -32.975815
v -37.335098 420.599030 -43.514557
v -37.335098 384.742706 -32.975815
v -26.796360 384.742706 -43.514557
v -39.673302 384.742706 -45.827812
v -26.796360 420.599030 -45.833084
v -39.653625 420.599030 -32.975815
v -39.673302 420.599030 -45.827812
v -39.653625 384.742706 -32.975815
v -26.796360 384.742706 -45.833084
v -37.335098 384.742706 43.514557
v -26.796360 420.599030 43.514557
v -37.335098 420.599030 32.975815
v -37.335098 420.599030 43.514557
v -37.335098 384.742706 32.975815
v -26.796360 384.742706 43.514557
v -39.673302 384.742706 45.827812
v -26.796360 420.599030 45.833084
v -39.653625 420.599030 32.975815
v -39.673302 420.599030 45.827812
v -39.653625 384.742706 32.975815
v -26.796360 384.742706 45.833084
v -35.143642 199.054321 41.297939
v -35.143642 399.054321 31.297939
v -25.143635 399.054321 41.297939
v -35.143642 399.054321 41.297939
v -25.143635 199.054321 41.297939
v -35.143642 199.054321 31.297939
v -37.338634 199.054321 43.516613
v -37.343639 399.054321 31.297939
v -25.143642 399.054321 43.497936
v -37.338634 399.054321 43.516613
v -25.143642 199.054321 43.497936
v -37.343639 199.054321 31.297939
v -35.143642 199.054321 -41.297939
v -35.143642 399.054321 -31.297939
v -25.143635 399.054321 -41.297939
v -35.143642 399.054321 -41.297939
v -25.143635 199.054321 -41.297939
v -35.143642 199.054321 -31.297939
v -37.338634 199.054321 -43.516613
v -37.343639 399.054321 -31.297939
v -25.143642 399.054321 -43.497936
v -37.338634 399.054321 -43.516613
v -25.143642 199.054321 -43.497936
v -37.343639 199.054321 -31.297939
v 35.078674 392.160553 -41.297943
v 35.078674 399.020081 -41.297943
v 32.954826 392.160553 -41.297943
v 32.954826 399.020081 -41.297943
v 35.078598 392.246796 41.384399
v 35.078598 399.106323 41.384399
v 32.954750 392.246796 41.384399
v 32.954750 399.106323 41.384399
v 32.954735 266.457916 41.235622
v 32.954735 273.317444 41.235622
v 35.078583 266.457916 41.235622
v 35.078583 273.317444 41.235622
v 32.954834 316.457916 -40.915176
v 32.954834 323.317444 -40.915176
v 35.078682 316.457916 -40.915176
v 35.078682 323.317444 -40.915176
v 35.078674 324.228455 -40.915176
v 35.078674 331.087982 -40.915176
v 32.954826 324.228455 -40.915176
v 32.954826 331.087982 -40.915176
v 35.078598 374.228455 41.132313
v 35.078598 381.087982 41.132313
v 32.954750 374.228455 41.132313
v 32.954750 381.087982 41.132313
v 35.078674 210.207642 -41.141609
v 35.078674 217.067169 -41.141609
v 32.954826 210.207642 -41.141609
v 32.954826 217.067169 -41.141609
v 35.078606 260.207642 41.235622
v 35.078606 267.067169 41.235622
v 32.954758 260.207642 41.235622
v 32.954758 267.067169 41.235622
v -32.928352 392.160553 -39.008812
v -32.928352 399.020081 -39.008812
v -32.928337 392.160553 -41.132648
v -32.928337 399.020081 -41.132648
v 34.926548 392.246796 -39.008896
v 34.926548 399.106323 -39.008896
v 34.926556 392.246796 -41.132729
v 34.926556 399.106323 -41.132729
v 34.831989 266.457916 -38.866074
v 34.831989 273.317444 -38.866074
v 34.831989 266.457916 -40.989922
v 34.831989 273.317444 -40.989922
v -35.285465 316.457916 -38.866173
v -35.285465 323.317444 -38.866173
v -35.285465 316.457916 -40.990021
v -35.285465 323.317444 -40.990021
v -35.285465 324.228455 -40.990013
v -35.285465 331.087982 -40.990013
v -35.285465 324.228455 -38.866165
v -35.285465 331.087982 -38.866165
v 34.505840 374.228455 -40.989937
v 34.505840 381.087982 -40.989937
v 34.505840 374.228455 -38.866089
v 34.505840 381.087982 -38.866089
v -32.837822 210.207642 -40.990013
v -32.837822 217.067169 -40.990013
v -32.837822 210.207642 -38.866165
v -32.837822 217.067169 -38.866165
v 34.831989 260.207642 -40.989944
v 34.831989 267.067169 -40.989944
v 34.831989 260.207642 -38.866096
v 34.831989 267.067169 -38.866096
v -32.954735 266.457916 41.235622
v -32.954735 273.317444 41.235622
v -35.078583 266.457916 41.235622
v -35.078583 273.317444 41.235622
v -32.954834 316.457916 -40.915176
v -32.954834 323.317444 -40.915176
v -35.078682 316.457916 -40.915176
v -35.078682 323.317444 -40.915176
v -35.078674 324.228455 -40.915176
v -35.078674 331.087982 -40.915176
v -32.954826 324.228455 -40.915176
v -32.954826 331.087982 -40.915176
v -35.078598 374.228455 41.132313
v -35.078598 381.087982 41.132313
v -32.954750 374.228455 41.132313
v -32.954750 381.087982 41.132313
v -35.078674 210.207642 -41.141609
v -35.078674 217.067169 -41.141609
v -32.954826 210.207642 -41.141609
v -32.954826 217.067169 -41.141609
v -35.078606 260.207642 41.235622
v -35.078606 267.067169 41.235622
v -32.954758 260.207642 41.235622
v -32.954758 267.067169 41.235622
v -32.928352 392.160553 39.008812
v -32.928352 399.020081 39.008812
v -32.928337 392.160553 41.132648
v -32.928337 399.020081 41.132648
v 34.926548 392.246796 39.008896
v 34.926548 399.106323 39.008896
v 34.926556 392.246796 41.132729
v 34.926556 399.106323 41.132729
v 34.831989 266.457916 38.866074
v 34.831989 273.317444 38.866074
v 34.831989 266.457916 40.989922
v 34.831989 273.317444 40.989922
v -35.285465 316.457916 38.866173
v -35.285465 323.317444 38.866173
v -35.285465 316.457916 40.990021
v -35.285465 323.317444 40.990021
v -35.285465 324.228455 40.990013
v -35.285465 331.087982 40.990013
v -35.285465 324.228455 38.866165
v -35.285465 331.087982 38.866165
v 34.505840 374.228455 40.989937
v 34.505840 381.087982 40.989937
v 34.505840 374.228455 38.866089
v 34.505840 381.087982 38.866089
v -32.837822 210.207642 40.990013
v -32.837822 217.067169 40.990013
v -32.837822 210.207642 38.866165
v -32.837822 217.067169 38.866165
v 34.831989 260.207642 40.989944
v 34.831989 267.067169 40.989944
v 34.831989 260.207642 38.866096
v 34.831989 267.067169 38.866096
v 35.078674 193.106232 -41.297943
v 35.078674 199.965759 -41.297943
v 32.954826 193.106232 -41.297943
v 32.954826 199.965759 -41.297943
v 35.078598 193.192474 41.398251
v 35.078598 200.052002 41.398251
v 32.954750 193.192474 41.398251
v 32.954750 200.052002 41.398251
v 37.335098 185.688385 -43.514557
v 26.796360 221.544708 -43.514557
v 37.335098 221.544708 -32.975815
v 37.335098 221.544708 -43.514557
v 37.335098 185.688385 -32.975815
v 26.796360 185.688385 -43.514557
v 39.673302 185.688385 -45.827812
v 26.796360 221.544708 -45.833084
v 39.653625 221.544708 -32.975815
v 39.673302 221.544708 -45.827812
v 39.653625 185.688385 -32.975815
v 26.796360 185.688385 -45.833084
v 37.335098 185.688385 43.514557
v 26.796360 221.544708 43.514557
v 37.335098 221.544708 32.975815
v 37.335098 221.544708 43.514557
v 37.335098 185.688385 32.975815
v 26.796360 185.688385 43.514557
v 39.673302 185.688385 45.827812
v 26.796360 221.544708 45.833084
v 39.653625 221.544708 32.975815
v 39.673302 221.544708 45.827812
v 39.653625 185.688385 32.975815
v 26.796360 185.688385 45.833084
v 35.143642 0.000000 41.297939
v 35.143642 200.000000 31.297939
v 25.143635 200.000000 41.297939
v 35.143642 200.000000 41.297939
v 25.143635 -0.000000 41.297939
v 35.143642 0.000000 31.297939
v 37.338634 0.000000 43.516613
v 37.343639 200.000000 31.297939
v 25.143642 200.000000 43.497936
v 37.338634 200.000000 43.516613
v 25.143642 0.000000 43.497936
v 37.343639 0.000000 31.297939
v 35.143642 0.000000 -41.297939
v 35.143642 200.000000 -31.297939
v 25.143635 200.000000 -41.297939
v 35.143642 200.000000 -41.297939
v 25.143635 0.000000 -41.297939
v 35.143642 0.000000 -31.297939
v 37.338634 -0.000000 -43.516613
v 37.343639 200.000000 -31.297939
v 25.143642 200.000000 -43.497936
v 37.338634 200.000000 -43.516613
v 25.143642 0.000000 -43.497936
v 37.343639 0.000000 -31.297939
v -35.078667 193.106232 -41.297943
v -35.078667 199.965759 -41.297943
v -32.954819 193.106232 -41.297943
v -32.954819 199.965759 -41.297943
v -35.078590 193.192474 41.398251
v -35.078590 200.052002 41.398251
v -32.954742 193.192474 41.398251
v -32.954742 200.052002 41.398251
v -37.335098 185.688385 -43.514557
v -26.796360 221.544708 -43.514557
v -37.335098 221.544708 -32.975815
v -37.335098 221.544708 -43.514557
v -37.335098 185.688385 -32.975815
v -26.796360 185.688385 -43.514557
v -39.673302 185.688385 -45.827812
v -26.796360 221.544708 -45.833084
v -39.653625 221.544708 -32.975815
v -39.673302 221.544708 -45.827812
v -39.653625 185.688385 -32.975815
v -26.796360 185.688385 -45.833084
v -37.335098 185.688385 43.514557
v -26.796360 221.544708 43.514557
v -37.335098 221.544708 32.975815
v -37.335098 221.544708 43.514557
v -37.335098 185.688385 32.975815
v -26.796360 185.688385 43.514557
v -39.673302 185.688385 45.827812
v -26.796360 221.544708 45.833084
v -39.653625 221.544708 32.975815
v -39.673302 221.544708 45.827812
v -39.653625 185.688385 32.975815
v -26.796360 185.688385 45.833084
v -35.143642 -0.000000 41.297939
v -35.143642 200.000000 31.297939
v -25.143635 200.000000 41.297939
v -35.143642 200.000000 41.297939
v -25.143635 -0.000000 41.297939
v -35.143642 0.000000 31.297939
v -37.338634 -0.000000 43.516613
v -37.343639 200.000000 31.297939
v -25.143642 200.000000 43.497936
v -37.338634 200.000000 43.516613
v -25.143642 0.000000 43.497936
v -37.343639 0.000000 31.297939
v -35.143642 0.000000 -41.297939
v -35.143642 200.000000 -31.297939
v -25.143635 200.000000 -41.297939
v -35.143642 200.000000 -41.297939
v -25.143635 -0.000000 -41.297939
v -35.143642 0.000000 -31.297939
v -37.338634 -0.000000 -43.516613
v -37.343639 200.000000 -31.297939
v -25.143642 200.000000 -43.497936
v -37.338634 200.000000 -43.516613
v -25.143642 0.000000 -43.497936
v -37.343639 0.000000 -31.297939
v 35.078674 193.106232 -41.297943
v 35.078674 199.965759 -41.297943
v 32.954826 193.106232 -41.297943
v 32.954826 199.965759 -41.297943
v 35.078598 193.192474 41.384399
v 35.078598 200.052002 41.384399
v 32.954750 193.192474 41.384399
v 32.954750 200.052002 41.384399
v 32.954735 67.403595 41.235622
v 32.954735 74.263115 41.235622
v 35.078583 67.403595 41.235622
v 35.078583 74.263115 41.235622
v 32.954834 117.403595 -40.915176
v 32.954834 124.263130 -40.915176
v 35.078682 117.403595 -40.915176
v 35.078682 124.263130 -40.915176
v 35.078674 125.174141 -40.915176
v 35.078674 132.033661 -40.915176
v 32.954826 125.174141 -40.915176
v 32.954826 132.033661 -40.915176
v 35.078598 175.174133 41.132313
v 35.078598 182.033661 41.132313
v 32.954750 175.174133 41.132313
v 32.954750 182.033661 41.132313
v 35.078674 11.153328 -41.141609
v 35.078674 18.012856 -41.141609
v 32.954826 11.153328 -41.141609
v 32.954826 18.012856 -41.141609
v 35.078606 61.153320 41.235622
v 35.078606 68.012856 41.235622
v 32.954758 61.153320 41.235622
v 32.954758 68.012856 41.235622
v -32.928352 193.106232 -39.008812
v -32.928352 199.965759 -39.008812
v -32.928337 193.106232 -41.132648
v -32.928337 199.965759 -41.132648
v 34.926548 193.192474 -39.008896
v 34.926548 200.052002 -39.008896
v 34.926556 193.192474 -41.132729
v 34.926556 200.052002 -41.132729
v 34.831989 67.403595 -38.866074
v 34.831989 74.263115 -38.866074
v 34.831989 67.403595 -40.989922
v 34.831989 74.263115 -40.989922
v -35.285465 117.403595 -38.866173
v -35.285465 124.263130 -38.866173
v -35.285465 117.403595 -40.990021
v -35.285465 124.263130 -40.990021
v -35.285465 125.174141 -40.990013
v -35.285465 132.033661 -40.990013
v -35.285465 125.174141 -38.866165
v -35.285465 132.033661 -38.866165
v 34.505840 175.174133 -40.989937
v 34.505840 182.033661 -40.989937
v 34.505840 175.174133 -38.866089
v 34.505840 182.033661 -38.866089
v -32.837822 11.153328 -40.990013
v -32.837822 18.012856 -40.990013
v -32.837822 11.153328 -38.866165
v -32.837822 18.012856 -38.866165
v 34.831989 61.153320 -40.989944
v 34.831989 68.012856 -40.989944
v 34.831989 61.153320 -38.866096
v 34.831989 68.012856 -38.866096
v -32.954735 67.403595 41.235622
v -32.954735 74.263115 41.235622
v -35.078583 67.403595 41.235622
v -35.078583 74.263115 41.235622
v -32.954834 117.403595 -40.915176
v -32.954834 124.263130 -40.915176
v -35.078682 117.403595 -40.915176
v -35.078682 124.263130 -40.915176
v -35.078674 125.174141 -40.915176
v -35.078674 132.033661 -40.915176
v -32.954826 125.174141 -40.915176
v -32.954826 132.033661 -40.915176
v -35.078598 175.174133 41.132313
v -35.078598 182.033661 41.132313
v -32.954750 175.174133 41.132313
v -32.954750 182.033661 41.132313
v -35.078674 11.153328 -41.141609
v -35.078674 18.012856 -41.141609
v -32.954826 11.153328 -41.141609
v -32.954826 18.012856 -41.141609
v -35.078606 61.153320 41.235622
v -35.078606 68.012856 41.235622
v -32.954758 61.153320 41.235622
v -32.954758 68.012856 41.235622
v -32.928352 193.106232 39.008812
v -32.928352 199.965759 39.008812
v -32.928337 193.106232 41.132648
v -32.928337 199.965759 41.132648
v 34.926548 193.192474 39.008896
v 34.926548 200.052002 39.008896
v 34.926556 193.192474 41.132729
v 34.926556 200.052002 41.132729
v 34.831989 67.403595 38.866074
v 34.831989 74.263115 38.866074
v 34.831989 67.403595 40.989922
v 34.831989 74.263115 40.989922
v -35.285465 117.403595 38.866173
v -35.285465 124.263130 38.866173
v -35.285465 117.403595 40.990021
v -35.285465 124.263130 40.990021
v -35.285465 125.174141 40.990013
v -35.285465 132.033661 40.990013
v -35.285465 125.174141 38.866165
v -35.285465 132.033661 38.866165
v 34.505840 175.174133 40.989937
v 34.505840 182.033661 40.989937
v 34.505840 175.174133 38.866089
v 34.505840 182.033661 38.866089
v -32.837822 11.153328 40.990013
v -32.837822 18.012856 40.990013
v -32.837822 11.153328 38.866165
v -32.837822 18.012856 38.866165
v 34.831989 61.153320 40.989944
v 34.831989 68.012856 40.989944
v 34.831989 61.153320 38.866096
v 34.831989 68.012856 38.866096
vt 0.454994 0.590308
vt 0.455088 0.581115
vt 0.484778 0.581417
vt 0.484685 0.590610
vt 0.445801 0.590224
vt 0.442630 0.938975
vt 0.412939 0.938737
vt 0.416110 0.589986
vt 0.451730 0.948251
vt 0.451823 0.939059
vt 0.481514 0.939360
vt 0.481420 0.948553
vt 0.490707 0.939444
vt 0.493878 0.590693
vt 0.452508 0.241193
vt 0.453901 0.087959
vt 0.498939 0.088368
vt 0.497546 0.241602
vt 0.407470 0.240783
vt 0.408863 0.087549
vt 0.342638 0.240194
vt 0.287608 0.239693
vt 0.289001 0.086459
vt 0.344031 0.086960
vt 0.397562 0.240693
vt 0.398955 0.087459
vt 0.332560 0.249993
vt 0.342077 0.295117
vt 0.332169 0.295031
vt 0.279093 0.086369
vt 0.277699 0.239603
vt 0.334133 0.076979
vt 0.289095 0.076551
vt 0.334561 0.031941
vt 0.344469 0.032036
vt 0.287522 0.249602
vt 0.453901 0.087959
vt 0.498939 0.088368
vt 0.497546 0.241602
vt 0.452508 0.241193
vt 0.408863 0.087549
vt 0.407470 0.240783
vt 0.344031 0.086960
vt 0.342638 0.240194
vt 0.287608 0.239693
vt 0.289001 0.086459
vt 0.398955 0.087459
vt 0.397562 0.240693
vt 0.334133 0.076979
vt 0.334561 0.031941
vt 0.344469 0.032036
vt 0.277699 0.239603
vt 0.279093 0.086369
vt 0.332560 0.249993
vt 0.287522 0.249602
vt 0.332169 0.295031
vt 0.342077 0.295117
vt 0.289095 0.076551
vt 0.068863 0.927672
vt 0.076635 0.072962
vt 0.119371 0.073351
vt 0.111599 0.928061
vt 0.026128 0.927284
vt 0.033900 0.072573
vt 0.173218 0.928621
vt 0.121001 0.928146
vt 0.128773 0.073436
vt 0.180990 0.073911
vt 0.225334 0.929095
vt 0.233106 0.074385
vt 0.234736 0.929181
vt 0.242507 0.074470
vt 0.182527 0.938174
vt 0.225263 0.938497
vt 0.190471 0.064529
vt 0.181523 0.021694
vt 0.190925 0.021794
vt 0.233206 0.064983
vt 0.182204 0.980910
vt 0.172802 0.980839
vt 0.076635 0.072962
vt 0.119371 0.073351
vt 0.111599 0.928061
vt 0.068863 0.927672
vt 0.033900 0.072573
vt 0.026128 0.927284
vt 0.180990 0.073911
vt 0.173218 0.928621
vt 0.121001 0.928146
vt 0.128773 0.073436
vt 0.233106 0.074385
vt 0.225334 0.929095
vt 0.242507 0.074470
vt 0.234736 0.929181
vt 0.190471 0.064529
vt 0.233206 0.064983
vt 0.182527 0.938174
vt 0.182204 0.980910
vt 0.172802 0.980839
vt 0.225263 0.938497
vt 0.190925 0.021794
vt 0.181523 0.021694
vt 0.332533 0.937271
vt 0.361848 0.937507
vt 0.361775 0.946583
vt 0.332460 0.946347
vt 0.323456 0.937188
vt 0.294142 0.936891
vt 0.297356 0.583484
vt 0.326670 0.583781
vt 0.335819 0.574788
vt 0.365134 0.575023
vt 0.365061 0.584100
vt 0.335746 0.583864
vt 0.374138 0.584183
vt 0.370924 0.937589
vt 0.453901 0.087959
vt 0.498939 0.088368
vt 0.497546 0.241602
vt 0.452508 0.241193
vt 0.408863 0.087549
vt 0.407470 0.240783
vt 0.344031 0.086960
vt 0.342638 0.240194
vt 0.287608 0.239693
vt 0.289001 0.086459
vt 0.398955 0.087459
vt 0.397562 0.240693
vt 0.334133 0.076979
vt 0.334561 0.031941
vt 0.344469 0.032036
vt 0.277699 0.239603
vt 0.279093 0.086369
vt 0.332560 0.249993
vt 0.287522 0.249601
vt 0.332169 0.295031
vt 0.342077 0.295117
vt 0.289095 0.076551
vt 0.452508 0.241193
vt 0.453901 0.087959
vt 0.498939 0.088368
vt 0.497546 0.241602
vt 0.407470 0.240783
vt 0.408863 0.087549
vt 0.342638 0.240193
vt 0.287608 0.239693
vt 0.289001 0.086459
vt 0.344031 0.086960
vt 0.397562 0.240693
vt 0.398955 0.087459
vt 0.332560 0.249993
vt 0.342077 0.295117
vt 0.332169 0.295031
vt 0.279093 0.086369
vt 0.277699 0.239603
vt 0.334133 0.076979
vt 0.289095 0.076551
vt 0.334561 0.031941
vt 0.344469 0.032035
vt 0.287522 0.249601
vt 0.076635 0.072962
vt 0.119371 0.073351
vt 0.111599 0.928061
vt 0.068863 0.927672
vt 0.033900 0.072573
vt 0.026128 0.927284
vt 0.180990 0.073911
vt 0.173218 0.928621
vt 0.121001 0.928146
vt 0.128773 0.073436
vt 0.233106 0.074385
vt 0.225334 0.929095
vt 0.242508 0.074470
vt 0.234736 0.929181
vt 0.190471 0.064529
vt 0.233206 0.064983
vt 0.182527 0.938174
vt 0.182204 0.980910
vt 0.172802 0.980839
vt 0.225263 0.938497
vt 0.190925 0.021794
vt 0.181523 0.021694
vt 0.068863 0.927672
vt 0.076635 0.072962
vt 0.119371 0.073351
vt 0.111599 0.928061
vt 0.026128 0.927284
vt 0.033900 0.072573
vt 0.173218 0.928621
vt 0.121001 0.928146
vt 0.128773 0.073436
vt 0.180990 0.073911
vt 0.225334 0.929095
vt 0.233106 0.074385
vt 0.234736 0.929181
vt 0.242508 0.074470
vt 0.182527 0.938174
vt 0.225263 0.938497
vt 0.190471 0.064529
vt 0.181523 0.021694
vt 0.190925 0.021794
vt 0.233206 0.064983
vt 0.182204 0.980910
vt 0.172802 0.980839
vt 0.454994 0.590308
vt 0.455088 0.581115
vt 0.484778 0.581417
vt 0.484685 0.590610
vt 0.445801 0.590224
vt 0.442630 0.938975
vt 0.412939 0.938737
vt 0.416110 0.589986
vt 0.451730 0.948251
vt 0.451823 0.939058
vt 0.481514 0.939360
vt 0.481420 0.948553
vt 0.490707 0.939444
vt 0.493878 0.590693
vt 0.646744 0.525208
vt 0.637668 0.525126
vt 0.637935 0.495811
vt 0.647011 0.495894
vt 0.705903 0.525746
vt 0.702166 0.936736
vt 0.676986 0.951749
vt 0.680723 0.540759
vt 0.633931 0.936115
vt 0.643007 0.936198
vt 0.642741 0.965512
vt 0.633664 0.965430
vt 0.671647 0.540677
vt 0.667910 0.951666
vt 0.671683 0.024158
vt 0.680625 0.024239
vt 0.680363 0.053119
vt 0.671421 0.053038
vt 0.705372 0.038674
vt 0.701604 0.453051
vt 0.676595 0.467496
vt 0.676332 0.496377
vt 0.667390 0.496296
vt 0.667653 0.467415
vt 0.710546 0.453132
vt 0.714314 0.038755
vt 0.739057 0.053653
vt 0.735289 0.468030
vt 0.609533 0.494013
vt 0.600457 0.493930
vt 0.600723 0.464616
vt 0.609800 0.464698
vt 0.575525 0.479598
vt 0.579270 0.067782
vt 0.604468 0.052800
vt 0.604735 0.023485
vt 0.613811 0.023568
vt 0.613544 0.052882
vt 0.570194 0.067700
vt 0.566449 0.479516
vt 0.541528 0.464078
vt 0.545272 0.052261
vt 0.404121 0.559904
vt 0.433436 0.560134
vt 0.433365 0.569210
vt 0.404050 0.568981
vt 0.395045 0.559822
vt 0.365731 0.559518
vt 0.368368 0.269536
vt 0.397682 0.269840
vt 0.406829 0.260846
vt 0.436144 0.261076
vt 0.436073 0.270152
vt 0.406758 0.269923
vt 0.445149 0.270235
vt 0.442513 0.560216
vt 0.646744 0.525208
vt 0.637668 0.525126
vt 0.637935 0.495811
vt 0.647011 0.495894
vt 0.705903 0.525746
vt 0.702166 0.936735
vt 0.676986 0.951749
vt 0.680723 0.540759
vt 0.633931 0.936115
vt 0.643007 0.936198
vt 0.642741 0.965512
vt 0.633664 0.965430
vt 0.671647 0.540677
vt 0.667910 0.951666
vt 0.671683 0.024158
vt 0.680625 0.024239
vt 0.680363 0.053120
vt 0.671421 0.053038
vt 0.705372 0.038674
vt 0.701604 0.453051
vt 0.676595 0.467496
vt 0.676332 0.496377
vt 0.667390 0.496296
vt 0.667653 0.467415
vt 0.710546 0.453132
vt 0.714314 0.038755
vt 0.739057 0.053653
vt 0.735289 0.468030
vt 0.609533 0.494013
vt 0.600457 0.493930
vt 0.600723 0.464616
vt 0.609800 0.464698
vt 0.575525 0.479598
vt 0.579270 0.067782
vt 0.604468 0.052800
vt 0.604735 0.023485
vt 0.613811 0.023568
vt 0.613544 0.052882
vt 0.570194 0.067700
vt 0.566449 0.479516
vt 0.541528 0.464078
vt 0.545272 0.052261
vt 0.604486 0.052902
vt 0.604753 0.023543
vt 0.613843 0.023626
vt 0.613576 0.052985
vt 0.545238 0.052364
vt 0.570179 0.067855
vt 0.566436 0.479467
vt 0.541495 0.463975
vt 0.609834 0.464596
vt 0.609567 0.493955
vt 0.600477 0.493872
vt 0.600744 0.464514
vt 0.575526 0.479549
vt 0.579269 0.067938
vt 0.521629 0.973247
vt 0.521892 0.944366
vt 0.530834 0.944448
vt 0.530571 0.973328
vt 0.555576 0.959346
vt 0.534602 0.530071
vt 0.559344 0.544969
vt 0.534864 0.501190
vt 0.525660 0.529990
vt 0.525922 0.501109
vt 0.568286 0.545050
vt 0.593296 0.530605
vt 0.589527 0.944981
vt 0.564518 0.959427
vt 0.633697 0.965488
vt 0.633963 0.936218
vt 0.643026 0.936300
vt 0.642760 0.965570
vt 0.667909 0.951715
vt 0.646765 0.525106
vt 0.671649 0.540521
vt 0.647031 0.495836
vt 0.637702 0.525024
vt 0.637968 0.495753
vt 0.680711 0.540603
vt 0.705871 0.525644
vt 0.702132 0.936838
vt 0.676972 0.951797
vt 0.406758 0.269886
vt 0.406853 0.260809
vt 0.436167 0.261113
vt 0.436073 0.270189
vt 0.397682 0.269803
vt 0.395045 0.559785
vt 0.365731 0.559555
vt 0.368367 0.269574
vt 0.404028 0.568943
vt 0.404122 0.559867
vt 0.433436 0.560171
vt 0.433342 0.569247
vt 0.442512 0.560254
vt 0.445149 0.270272
vt 0.604486 0.052902
vt 0.604753 0.023543
vt 0.613844 0.023626
vt 0.613576 0.052985
vt 0.545238 0.052363
vt 0.570179 0.067855
vt 0.566436 0.479467
vt 0.541495 0.463975
vt 0.609834 0.464596
vt 0.609567 0.493955
vt 0.600477 0.493872
vt 0.600744 0.464514
vt 0.575526 0.479550
vt 0.579269 0.067938
vt 0.521629 0.973247
vt 0.521892 0.944366
vt 0.530834 0.944448
vt 0.530571 0.973328
vt 0.555576 0.959346
vt 0.534602 0.530071
vt 0.559344 0.544969
vt 0.534864 0.501190
vt 0.525660 0.529989
vt 0.525922 0.501109
vt 0.568286 0.545050
vt 0.593296 0.530604
vt 0.589527 0.944981
vt 0.564518 0.959427
vt 0.633697 0.965488
vt 0.633963 0.936218
vt 0.643026 0.936300
vt 0.642760 0.965570
vt 0.667909 0.951715
vt 0.646765 0.525106
vt 0.671648 0.540521
vt 0.647031 0.495836
vt 0.637702 0.525024
vt 0.637968 0.495753
vt 0.680711 0.540603
vt 0.705871 0.525643
vt 0.702132 0.936838
vt 0.676972 0.951797
vt 0.454994 0.590308
vt 0.455088 0.581115
vt 0.484778 0.581417
vt 0.484685 0.590610
vt 0.445801 0.590224
vt 0.442630 0.938975
vt 0.412939 0.938737
vt 0.416110 0.589986
vt 0.451730 0.948251
vt 0.451823 0.939059
vt 0.481514 0.939360
vt 0.481420 0.948553
vt 0.490707 0.939444
vt 0.493878 0.590693
vt 0.452508 0.241193
vt 0.453901 0.087959
vt 0.498939 0.088368
vt 0.497546 0.241602
vt 0.407470 0.240783
vt 0.408863 0.087549
vt 0.342638 0.240194
vt 0.287608 0.239693
vt 0.289001 0.086459
vt 0.344031 0.086960
vt 0.397562 0.240693
vt 0.398955 0.087459
vt 0.332560 0.249993
vt 0.342077 0.295117
vt 0.332169 0.295031
vt 0.279093 0.086369
vt 0.277699 0.239603
vt 0.334133 0.076979
vt 0.289095 0.076551
vt 0.334561 0.031941
vt 0.344469 0.032036
vt 0.287522 0.249602
vt 0.453901 0.087959
vt 0.498939 0.088368
vt 0.497546 0.241602
vt 0.452508 0.241193
vt 0.408863 0.087549
vt 0.407470 0.240783
vt 0.344031 0.086960
vt 0.342638 0.240194
vt 0.287608 0.239693
vt 0.289001 0.086459
vt 0.398955 0.087459
vt 0.397562 0.240693
vt 0.334133 0.076979
vt 0.334561 0.031941
vt 0.344469 0.032036
vt 0.277699 0.239603
vt 0.279093 0.086369
vt 0.332560 0.249993
vt 0.287522 0.249602
vt 0.332169 0.295031
vt 0.342077 0.295117
vt 0.289095 0.076551
vt 0.068863 0.927672
vt 0.076635 0.072962
vt 0.119371 0.073351
vt 0.111599 0.928061
vt 0.026128 0.927284
vt 0.033900 0.072573
vt 0.173218 0.928621
vt 0.121001 0.928146
vt 0.128773 0.073436
vt 0.180990 0.073911
vt 0.225334 0.929095
vt 0.233106 0.074385
vt 0.234736 0.929181
vt 0.242507 0.074470
vt 0.182527 0.938174
vt 0.225263 0.938497
vt 0.190471 0.064529
vt 0.181523 0.021694
vt 0.190925 0.021794
vt 0.233206 0.064983
vt 0.182204 0.980910
vt 0.172802 0.980839
vt 0.076635 0.072962
vt 0.119371 0.073351
vt 0.111599 0.928061
vt 0.068863 0.927672
vt 0.033900 0.072573
vt 0.026128 0.927284
vt 0.180990 0.073911
vt 0.173218 0.928621
vt 0.121001 0.928146
vt 0.128773 0.073436
vt 0.233106 0.074385
vt 0.225334 0.929095
vt 0.242507 0.074470
vt 0.234736 0.929181
vt 0.190471 0.064529
vt 0.233206 0.064983
vt 0.182527 0.938174
vt 0.182204 0.980910
vt 0.172802 0.980839
vt 0.225263 0.938497
vt 0.190925 0.021794
vt 0.181523 0.021694
vt 0.332533 0.937271
vt 0.361848 0.937507
vt 0.361775 0.946583
vt 0.332460 0.946347
vt 0.323456 0.937188
vt 0.294142 0.936891
vt 0.297356 0.583484
vt 0.326670 0.583781
vt 0.335819 0.574788
vt 0.365134 0.575023
vt 0.365061 0.584100
vt 0.335746 0.583864
vt 0.374138 0.584183
vt 0.370924 0.937589
vt 0.453901 0.087959
vt 0.498939 0.088368
vt 0.497546 0.241602
vt 0.452508 0.241193
vt 0.408863 0.087549
vt 0.407470 0.240783
vt 0.344031 0.086960
vt 0.342638 0.240194
vt 0.287608 0.239693
vt 0.289001 0.086459
vt 0.398955 0.087459
vt 0.397562 0.240693
vt 0.334133 0.076979
vt 0.334561 0.031941
vt 0.344469 0.032036
vt 0.277699 0.239603
vt 0.279093 0.086369
vt 0.332560 0.249993
vt 0.287522 0.249601
vt 0.332169 0.295031
vt 0.342077 0.295117
vt 0.289095 0.076551
vt 0.452508 0.241193
vt 0.453901 0.087959
vt 0.498939 0.088368
vt 0.497546 0.241602
vt 0.407470 0.240783
vt 0.408863 0.087549
vt 0.342638 0.240193
vt 0.287608 0.239693
vt 0.289001 0.086459
vt 0.344031 0.086960
vt 0.397562 0.240693
vt 0.398955 0.087459
vt 0.332560 0.249993
vt 0.342077 0.295117
vt 0.332169 0.295031
vt 0.279093 0.086369
vt 0.277699 0.239603
vt 0.334133 0.076979
vt 0.289095 0.076551
vt 0.334561 0.031941
vt 0.344469 0.032035
vt 0.287522 0.249601
vt 0.076635 0.072962
vt 0.119371 0.073351
vt 0.111599 0.928061
vt 0.068863 0.927672
vt 0.033900 0.072573
vt 0.026128 0.927284
vt 0.180990 0.073911
vt 0.173218 0.928621
vt 0.121001 0.928146
vt 0.128773 0.073436
vt 0.233106 0.074385
vt 0.225334 0.929095
vt 0.242508 0.074470
vt 0.234736 0.929181
vt 0.190471 0.064529
vt 0.233206 0.064983
vt 0.182527 0.938174
vt 0.182204 0.980910
vt 0.172802 0.980839
vt 0.225263 0.938497
vt 0.190925 0.021794
vt 0.181523 0.021694
vt 0.068863 0.927672
vt 0.076635 0.072962
vt 0.119371 0.073351
vt 0.111599 0.928061
vt 0.026128 0.927284
vt 0.033900 0.072573
vt 0.173218 0.928621
vt 0.121001 0.928146
vt 0.128773 0.073436
vt 0.180990 0.073911
vt 0.225334 0.929095
vt 0.233106 0.074385
vt 0.234736 0.929181
vt 0.242508 0.074470
vt 0.182527 0.938174
vt 0.225263 0.938497
vt 0.190471 0.064529
vt 0.181523 0.021694
vt 0.190925 0.021794
vt 0.233206 0.064983
vt 0.182204 0.980910
vt 0.172802 0.980839
vt 0.454994 0.590308
vt 0.455088 0.581115
vt 0.484778 0.581417
vt 0.484685 0.590610
vt 0.445801 0.590224
vt 0.442630 0.938975
vt 0.412939 0.938737
vt 0.416110 0.589986
vt 0.451730 0.948251
vt 0.451823 0.939058
vt 0.481514 0.939360
vt 0.481420 0.948553
vt 0.490707 0.939444
vt 0.493878 0.590693
vt 0.646744 0.525208
vt 0.637668 0.525126
vt 0.637935 0.495811
vt 0.647011 0.495894
vt 0.705903 0.525746
vt 0.702166 0.936736
vt 0.676986 0.951749
vt 0.680723 0.540759
vt 0.633931 0.936115
vt 0.643007 0.936198
vt 0.642741 0.965512
vt 0.633664 0.965430
vt 0.671647 0.540677
vt 0.667910 0.951666
vt 0.671683 0.024158
vt 0.680625 0.024239
vt 0.680363 0.053119
vt 0.671421 0.053038
vt 0.705372 0.038674
vt 0.701604 0.453051
vt 0.676595 0.467496
vt 0.676332 0.496377
vt 0.667390 0.496296
vt 0.667653 0.467415
vt 0.710546 0.453132
vt 0.714314 0.038755
vt 0.739057 0.053653
vt 0.735289 0.468030
vt 0.609533 0.494013
vt 0.600457 0.493930
vt 0.600723 0.464616
vt 0.609800 0.464698
vt 0.575525 0.479598
vt 0.579270 0.067782
vt 0.604468 0.052800
vt 0.604735 0.023485
vt 0.613811 0.023568
vt 0.613544 0.052882
vt 0.570194 0.067700
vt 0.566449 0.479516
vt 0.541528 0.464078
vt 0.545272 0.052261
vt 0.404121 0.559904
vt 0.433436 0.560134
vt 0.433365 0.569210
vt 0.404050 0.568981
vt 0.395045 0.559822
vt 0.365731 0.559518
vt 0.368368 0.269536
vt 0.397682 0.269840
vt 0.406829 0.260846
vt 0.436144 0.261076
vt 0.436073 0.270152
vt 0.406758 0.269923
vt 0.445149 0.270235
vt 0.442513 0.560216
vt 0.646744 0.525208
vt 0.637668 0.525126
vt 0.637935 0.495811
vt 0.647011 0.495894
vt 0.705903 0.525746
vt 0.702166 0.936735
vt 0.676986 0.951749
vt 0.680723 0.540759
vt 0.633931 0.936115
vt 0.643007 0.936198
vt 0.642741 0.965512
vt 0.633664 0.965430
vt 0.671647 0.540677
vt 0.667910 0.951666
vt 0.671683 0.024158
vt 0.680625 0.024239
vt 0.680363 0.053120
vt 0.671421 0.053038
vt 0.705372 0.038674
vt 0.701604 0.453051
vt 0.676595 0.467496
vt 0.676332 0.496377
vt 0.667390 0.496296
vt 0.667653 0.467415
vt 0.710546 0.453132
vt 0.714314 0.038755
vt 0.739057 0.053653
vt 0.735289 0.468030
vt 0.609533 0.494013
vt 0.600457 0.493930
vt 0.600723 0.464616
vt 0.609800 0.464698
vt 0.575525 0.479598
vt 0.579270 0.067782
vt 0.604468 0.052800
vt 0.604735 0.023485
vt 0.613811 0.023568
vt 0.613544 0.052882
vt 0.570194 0.067700
vt 0.566449 0.479516
vt 0.541528 0.464078
vt 0.545272 0.052261
vt 0.604486 0.052902
vt 0.604753 0.023543
vt 0.613843 0.023626
vt 0.613576 0.052985
vt 0.545238 0.052364
vt 0.570179 0.067855
vt 0.566436 0.479467
vt 0.541495 0.463975
vt 0.609834 0.464596
vt 0.609567 0.493955
vt 0.600477 0.493872
vt 0.600744 0.464514
vt 0.575526 0.479549
vt 0.579269 0.067938
vt 0.521629 0.973247
vt 0.521892 0.944366
vt 0.530834 0.944448
vt 0.530571 0.973328
vt 0.555576 0.959346
vt 0.534602 0.530071
vt 0.559344 0.544969
vt 0.534864 0.501190
vt 0.525660 0.529990
vt 0.525922 0.501109
vt 0.568286 0.545050
vt 0.593296 0.530605
vt 0.589527 0.944981
vt 0.564518 0.959427
vt 0.633697 0.965488
vt 0.633963 0.936218
vt 0.643026 0.936300
vt 0.642760 0.965570
vt 0.667909 0.951715
vt 0.646765 0.525106
vt 0.671649 0.540521
vt 0.647031 0.495836
vt 0.637702 0.525024
vt 0.637968 0.495753
vt 0.680711 0.540603
vt 0.705871 0.525644
vt 0.702132 0.936838
vt 0.676972 0.951797
vt 0.406758 0.269886
vt 0.406853 0.260809
vt 0.436167 0.261113
vt 0.436073 0.270189
vt 0.397682 0.269803
vt 0.395045 0.559785
vt 0.365731 0.559555
vt 0.368367 0.269574
vt 0.404028 0.568943
vt 0.404122 0.559867
vt 0.433436 0.560171
vt 0.433342 0.569247
vt 0.442512 0.560254
vt 0.445149 0.270272
vt 0.604486 0.052902
vt 0.604753 0.023543
vt 0.613844 0.023626
vt 0.613576 0.052985
vt 0.545238 0.052363
vt 0.570179 0.067855
vt 0.566436 0.479467
vt 0.541495 0.463975
vt 0.609834 0.464596
vt 0.609567 0.493955
vt 0.600477 0.493872
vt 0.600744 0.464514
vt 0.575526 0.479550
vt 0.579269 0.067938
vt 0.521629 0.973247
vt 0.521892 0.944366
vt 0.530834 0.944448
vt 0.530571 0.973328
vt 0.555576 0.959346
vt 0.534602 0.530071
vt 0.559344 0.544969
vt 0.534864 0.501190
vt 0.525660 0.529989
vt 0.525922 0.501109
vt 0.568286 0.545050
vt 0.593296 0.530604
vt 0.589527 0.944981
vt 0.564518 0.959427
vt 0.633697 0.965488
vt 0.633963 0.936218
vt 0.643026 0.936300
vt 0.642760 0.965570
vt 0.667909 0.951715
vt 0.646765 0.525106
vt 0.671648 0.540521
vt 0.647031 0.495836
vt 0.637702 0.525024
vt 0.637968 0.495753
vt 0.680711 0.540603
vt 0.705871 0.525643
vt 0.702132 0.936838
vt 0.676972 0.951797
vn 0.000001 0.000000 -1.000000
vn 0.000001 0.000000 -1.000000
vn 0.000001 0.000000 -1.000000
vn 0.000001 0.000000 -1.000000
vn -1.000000 0.000000 -0.000001
vn -1.000000 0.000000 -0.000001
vn -1.000000 0.000000 -0.000001
vn -1.000000 0.000000 -0.000001
vn -0.000001 0.000000 1.000000
vn -0.000001 0.000000 1.000000
vn -0.000001 0.000000 1.000000
vn -0.000001 0.000000 1.000000
vn 1.000000 0.000000 0.000001
vn 1.000000 0.000000 0.000001
vn 1.000000 0.000000 0.000001
vn 1.000000 0.000000 0.000001
vn -0.000000 -0.999999 0.001017
vn -0.000000 -0.999999 0.001017
vn -0.000000 -0.999999 0.001017
vn -0.000000 -0.999999 0.001017
vn 0.000000 0.999999 -0.001017
vn 0.000000 0.999999 -0.001017
vn 0.000000 0.999999 -0.001017
vn 0.000000 0.999999 -0.001017
vn -0.000000 0.000000 1.000000
vn -0.000000 0.000000 1.000000
vn -0.000000 0.000000 1.000000
vn -0.000000 0.000000 1.000000
vn -1.000000 0.000000 0.000000
vn -1.000000 0.000000 0.000000
vn -1.000000 0.000000 0.000000
vn -1.000000 0.000000 0.000000
vn 0.000409 0.000000 -1.000000
vn 0.000409 0.000000 -1.000000
vn 0.000409 0.000000 -1.000000
vn 0.000409 0.000000 -1.000000
vn 0.999999 0.000000 0.001531
vn 0.999999 0.000000 0.001531
vn 0.999999 0.000000 0.001531
vn 0.999999 0.000000 0.001531
vn -0.000001 0.000000 1.000000
vn -0.000001 0.000000 1.000000
vn -0.000001 0.000000 1.000000
vn -0.000001 0.000000 1.000000
vn 0.000000 -1.000000 0.000000
vn 0.000000 -1.000000 0.000000
vn 0.000000 -1.000000 0.000000
vn 0.000000 -1.000000 0.000000
vn -1.000000 0.000000 0.000000
vn -1.000000 0.000000 0.000000
vn -1.000000 0.000000 0.000000
vn -1.000000 0.000000 0.000000
vn 0.000000 1.000000 0.000000
vn 0.000000 1.000000 0.000000
vn 0.000000 1.000000 0.000000
vn 0.000000 1.000000 0.000000
vn 0.000000 1.000000 0.000000
vn 0.000000 1.000000 0.000000
vn 0.000000 1.000000 0.000000
vn 0.000000 1.000000 0.000000
vn 0.000000 -1.000000 0.000000
vn 0.000000 -1.000000 0.000000
vn 0.000000 -1.000000 0.000000
vn 0.000000 -1.000000 0.000000
vn -0.000000 0.000000 -1.000000
vn -0.000000 0.000000 -1.000000
vn -0.000000 0.000000 -1.000000
vn -0.000000 0.000000 -1.000000
vn -1.000000 0.000000 0.000000
vn -1.000000 0.000000 0.000000
vn -1.000000 0.000000 0.000000
vn -1.000000 0.000000 0.000000
vn 0.000409 0.000000 1.000000
vn 0.000409 0.000000 1.000000
vn 0.000409 0.000000 1.000000
vn 0.000409 0.000000 1.000000
vn 0.999999 0.000000 -0.001531
vn 0.999999 0.000000 -0.001531
vn 0.999999 0.000000 -0.001531
vn 0.999999 0.000000 -0.001531
vn -0.000001 0.000000 -1.000000
vn -0.000001 0.000000 -1.000000
vn -0.000001 0.000000 -1.000000
vn -0.000001 0.000000 -1.000000
vn 0.000000 -1.000000 0.000000
vn 0.000000 -1.000000 0.000000
vn 0.000000 -1.000000 0.000000
vn 0.000000 -1.000000 0.000000
vn -1.000000 0.000000 0.000000
vn -1.000000 0.000000 0.000000
vn -1.000000 0.000000 0.000000
vn -1.000000 0.000000 0.000000
vn 0.000000 1.000000 0.000000
vn 0.000000 1.000000 0.000000
vn 0.000000 1.000000 0.000000
vn 0.000000 1.000000 0.000000
vn 0.000000 1.000000 0.000000
vn 0.000000 1.000000 0.000000
vn 0.000000 1.000000 0.000000
vn 0.000000 1.000000 0.000000
vn 0.000000 -1.000000 0.000000
vn 0.000000 -1.000000 0.000000
vn 0.000000 -1.000000 0.000000
vn 0.000000 -1.000000 0.000000
vn -1.000000 0.000000 -0.000000
vn -1.000000 0.000000 -0.000000
vn -1.000000 0.000000 -0.000000
vn -1.000000 0.000000 -0.000000
vn 0.000000 0.000000 -1.000000
vn 0.000000 0.000000 -1.000000
vn 0.000000 0.000000 -1.000000
vn 0.000000 0.000000 -1.000000
vn 1.000000 0.000000 0.000409
vn 1.000000 0.000000 0.000409
vn 1.000000 0.000000 0.000409
vn 1.000000 0.000000 0.000409
vn -0.001531 0.000000 0.999999
vn -0.001531 0.000000 0.999999
vn -0.001531 0.000000 0.999999
vn -0.001531 0.000000 0.999999
vn -1.000000 0.000000 0.000000
vn -1.000000 0.000000 0.000000
vn -1.000000 0.000000 0.000000
vn -1.000000 0.000000 0.000000
vn 0.000000 -1.000000 0.000000
vn 0.000000 -1.000000 0.000000
vn 0.000000 -1.000000 0.000000
vn 0.000000 -1.000000 0.000000
vn 0.000001 0.000000 -1.000000
vn 0.000001 0.000000 -1.000000
vn 0.000001 0.000000 -1.000000
vn 0.000001 0.000000 -1.000000
vn 0.000000 1.000000 -0.000000
vn 0.000000 1.000000 -0.000000
vn 0.000000 1.000000 -0.000000
vn 0.000000 1.000000 -0.000000
vn 0.000000 1.000000 0.000000
vn 0.000000 1.000000 0.000000
vn 0.000000 1.000000 0.000000
vn 0.000000 1.000000 0.000000
vn -0.000000 -1.000000 0.000000
vn -0.000000 -1.000000 0.000000
vn -0.000000 -1.000000 0.000000
vn -0.000000 -1.000000 0.000000
vn -1.000000 0.000000 0.000000
vn -1.000000 0.000000 0.000000
vn -1.000000 0.000000 0.000000
vn -1.000000 0.000000 0.000000
vn 0.000000 0.000000 1.000000
vn 0.000000 0.000000 1.000000
vn 0.000000 0.000000 1.000000
vn 0.000000 0.000000 1.000000
vn 1.000000 0.000000 -0.000409
vn 1.000000 0.000000 -0.000409
vn 1.000000 0.000000 -0.000409
vn 1.000000 0.000000 -0.000409
vn -0.001531 0.000000 -0.999999
vn -0.001531 0.000000 -0.999999
vn -0.001531 0.000000 -0.999999
vn -0.001531 0.000000 -0.999999
vn -1.000000 0.000000 -0.000000
vn -1.000000 0.000000 -0.000000
vn -1.000000 0.000000 -0.000000
vn -1.000000 0.000000 -0.000000
vn 0.000000 -1.000000 0.000000
vn 0.000000 -1.000000 0.000000
vn 0.000000 -1.000000 0.000000
vn 0.000000 -1.000000 0.000000
vn 0.000001 0.000000 1.000000
vn 0.000001 0.000000 1.000000
vn 0.000001 0.000000 1.000000
vn 0.000001 0.000000 1.000000
vn 0.000000 1.000000 0.000000
vn 0.000000 1.000000 0.000000
vn 0.000000 1.000000 0.000000
vn 0.000000 1.000000 0.000000
vn 0.000000 1.000000 0.000000
vn 0.000000 1.000000 0.000000
vn 0.000000 1.000000 0.000000
vn 0.000000 1.000000 0.000000
vn -0.000000 -1.000000 -0.000000
vn -0.000000 -1.000000 -0.000000
vn -0.000000 -1.000000 -0.000000
vn -0.000000 -1.000000 -0.000000
vn -0.000001 0.000000 -1.000000
vn -0.000001 0.000000 -1.000000
vn -0.000001 0.000000 -1.000000
vn -0.000001 0.000000 -1.000000
vn 1.000000 0.000000 -0.000001
vn 1.000000 0.000000 -0.000001
vn 1.000000 0.000000 -0.000001
vn 1.000000 0.000000 -0.000001
vn 0.000001 0.000000 1.000000
vn 0.000001 0.000000 1.000000
vn 0.000001 0.000000 1.000000
vn 0.000001 0.000000 1.000000
vn -1.000000 0.000000 0.000001
vn -1.000000 0.000000 0.000001
vn -1.000000 0.000000 0.000001
vn -1.000000 0.000000 0.000001
vn 0.000000 -1.000000 0.001017
vn 0.000000 -1.000000 0.001017
vn 0.000000 -1.000000 0.001017
vn 0.000000 -1.000000 0.001017
vn -0.000000 1.000000 -0.001017
vn -0.000000 1.000000 -0.001017
vn -0.000000 1.000000 -0.001017
vn -0.000000 1.000000 -0.001017
vn 0.000000 0.000000 1.000000
vn 0.000000 0.000000 1.000000
vn 0.000000 0.000000 1.000000
vn 0.000000 0.000000 1.000000
vn 1.000000 0.000000 0.000000
vn 1.000000 0.000000 0.000000
vn 1.000000 0.000000 0.000000
vn 1.000000 0.000000 0.000000
vn -0.000409 0.000000 -1.000000
vn -0.000409 0.000000 -1.000000
vn -0.000409 0.000000 -1.000000
vn -0.000409 0.000000 -1.000000
vn -0.999999 0.000000 0.001531
vn -0.999999 0.000000 0.001531
vn -0.999999 0.000000 0.001531
vn -0.999999 0.000000 0.001531
vn 0.000001 0.000000 1.000000
vn 0.000001 0.000000 1.000000
vn 0.000001 0.000000 1.000000
vn 0.000001 0.000000 1.000000
vn 0.000000 -1.000000 0.000000
vn 0.000000 -1.000000 0.000000
vn 0.000000 -1.000000 0.000000
vn 0.000000 -1.000000 0.000000
vn 1.000000 0.000000 0.000000
vn 1.000000 0.000000 0.000000
vn 1.000000 0.000000 0.000000
vn 1.000000 0.000000 0.000000
vn 0.000000 1.000000 0.000000
vn 0.000000 1.000000 0.000000
vn 0.000000 1.000000 0.000000
vn 0.000000 1.000000 0.000000
vn 0.000000 1.000000 0.000000
vn 0.000000 1.000000 0.000000
vn 0.000000 1.000000 0.000000
vn 0.000000 1.000000 0.000000
vn 0.000000 -1.000000 0.000000
vn 0.000000 -1.000000 0.000000
vn 0.000000 -1.000000 0.000000
vn 0.000000 -1.000000 0.000000
vn 0.000000 0.000000 -1.000000
vn 0.000000 0.000000 -1.000000
vn 0.000000 0.000000 -1.000000
vn 0.000000 0.000000 -1.000000
vn 1.000000 0.000000 0.000000
vn 1.000000 0.000000 0.000000
vn 1.000000 0.000000 0.000000
vn 1.000000 0.000000 0.000000
vn -0.000409 0.000000 1.000000
vn -0.000409 0.000000 1.000000
vn -0.000409 0.000000 1.000000
vn -0.000409 0.000000 1.000000
vn -0.999999 0.000000 -0.001531
vn -0.999999 0.000000 -0.001531
vn -0.999999 0.000000 -0.001531
vn -0.999999 0.000000 -0.001531
vn 0.000001 0.000000 -1.000000
vn 0.000001 0.000000 -1.000000
vn 0.000001 0.000000 -1.000000
vn 0.000001 0.000000 -1.000000
vn 0.000000 -1.000000 0.000000
vn 0.000000 -1.000000 0.000000
vn 0.000000 -1.000000 0.000000
vn 0.000000 -1.000000 0.000000
vn 1.000000 0.000000 0.000000
vn 1.000000 0.000000 0.000000
vn 1.000000 0.000000 0.000000
vn 1.000000 0.000000 0.000000
vn 0.000000 1.000000 0.000000
vn 0.000000 1.000000 0.000000
vn 0.000000 1.000000 0.000000
vn 0.000000 1.000000 0.000000
vn 0.000000 1.000000 0.000000
vn 0.000000 1.000000 0.000000
vn 0.000000 1.000000 0.000000
vn 0.000000 1.000000 0.000000
vn 0.000000 -1.000000 0.000000
vn 0.000000 -1.000000 0.000000
vn 0.000000 -1.000000 0.000000
vn 0.000000 -1.000000 0.000000
vn 1.000000 0.000000 -0.000000
vn 1.000000 0.000000 -0.000000
vn 1.000000 0.000000 -0.000000
vn 1.000000 0.000000 -0.000000
vn -0.000000 0.000000 -1.000000
vn -0.000000 0.000000 -1.000000
vn -0.000000 0.000000 -1.000000
vn -0.000000 0.000000 -1.000000
vn -1.000000 0.000000 0.000409
vn -1.000000 0.000000 0.000409
vn -1.000000 0.000000 0.000409
vn -1.000000 0.000000 0.000409
vn 0.001531 0.000000 0.999999
vn 0.001531 0.000000 0.999999
vn 0.001531 0.000000 0.999999
vn 0.001531 0.000000 0.999999
vn 1.000000 0.000000 0.000000
vn 1.000000 0.000000 0.000000
vn 1.000000 0.000000 0.000000
vn 1.000000 0.000000 0.000000
vn 0.000000 -1.000000 0.000000
vn 0.000000 -1.000000 0.000000
vn 0.000000 -1.000000 0.000000
vn 0.000000 -1.000000 0.000000
vn -0.000001 0.000000 -1.000000
vn -0.000001 0.000000 -1.000000
vn -0.000001 0.000000 -1.000000
vn -0.000001 0.000000 -1.000000
vn -0.000000 1.000000 -0.000000
vn -0.000000 1.000000 -0.000000
vn -0.000000 1.000000 -0.000000
vn -0.000000 1.000000 -0.000000
vn 0.000000 1.000000 0.000000
vn 0.000000 1.000000 0.000000
vn 0.000000 1.000000 0.000000
vn 0.000000 1.000000 0.000000
vn 0.000000 -1.000000 0.000000
vn 0.000000 -1.000000 0.000000
vn 0.000000 -1.000000 0.000000
vn 0.000000 -1.000000 0.000000
vn 1.000000 0.000000 0.000000
vn 1.000000 0.000000 0.000000
vn 1.000000 0.000000 0.000000
vn 1.000000 0.000000 0.000000
vn -0.000000 0.000000 1.000000
vn -0.000000 0.000000 1.000000
vn -0.000000 0.000000 1.000000
vn -0.000000 0.000000 1.000000
vn -1.000000 0.000000 -0.000409
vn -1.000000 0.000000 -0.000409
vn -1.000000 0.000000 -0.000409
vn -1.000000 0.000000 -0.000409
vn 0.001531 0.000000 -0.999999
vn 0.001531 0.000000 -0.999999
vn 0.001531 0.000000 -0.999999
vn 0.001531 0.000000 -0.999999
vn 1.000000 0.000000 -0.000000
vn 1.000000 0.000000 -0.000000
vn 1.000000 0.000000 -0.000000
vn 1.000000 0.000000 -0.000000
vn 0.000000 -1.000000 0.000000
vn 0.000000 -1.000000 0.000000
vn 0.000000 -1.000000 0.000000
vn 0.000000 -1.000000 0.000000
vn -0.000001 0.000000 1.000000
vn -0.000001 0.000000 1.000000
vn -0.000001 0.000000 1.000000
vn -0.000001 0.000000 1.000000
vn -0.000000 1.000000 0.000000
vn -0.000000 1.000000 0.000000
vn -0.000000 1.000000 0.000000
vn -0.000000 1.000000 0.000000
vn 0.000000 1.000000 0.000000
vn 0.000000 1.000000 0.000000
vn 0.000000 1.000000 0.000000
vn 0.000000 1.000000 0.000000
vn 0.000000 -1.000000 -0.000000
vn 0.000000 -1.000000 -0.000000
vn 0.000000 -1.000000 -0.000000
vn 0.000000 -1.000000 -0.000000
vn 0.000001 0.000000 -1.000000
vn 0.000001 0.000000 -1.000000
vn 0.000001 0.000000 -1.000000
vn 0.000001 0.000000 -1.000000
vn -1.000000 0.000000 -0.000001
vn -1.000000 0.000000 -0.000001
vn -1.000000 0.000000 -0.000001
vn -1.000000 0.000000 -0.000001
vn -0.000001 0.000000 1.000000
vn -0.000001 0.000000 1.000000
vn -0.000001 0.000000 1.000000
vn -0.000001 0.000000 1.000000
vn 1.000000 0.000000 0.000001
vn 1.000000 0.000000 0.000001
vn 1.000000 0.000000 0.000001
vn 1.000000 0.000000 0.000001
vn -0.000000 -0.999999 0.001017
vn -0.000000 -0.999999 0.001017
vn -0.000000 -0.999999 0.001017
vn -0.000000 -0.999999 0.001017
vn 0.000000 0.999999 -0.001017
vn 0.000000 0.999999 -0.001017
vn 0.000000 0.999999 -0.001017
vn 0.000000 0.999999 -0.001017
vn -0.000001 0.000000 1.000000
vn -0.000001 0.000000 1.000000
vn -0.000001 0.000000 1.000000
vn -0.000001 0.000000 1.000000
vn 1.000000 0.000000 0.000001
vn 1.000000 0.000000 0.000001
vn 1.000000 0.000000 0.000001
vn 1.000000 0.000000 0.000001
vn 0.000001 0.000000 -1.000000
vn 0.000001 0.000000 -1.000000
vn 0.000001 0.000000 -1.000000
vn 0.000001 0.000000 -1.000000
vn -1.000000 0.000000 -0.000001
vn -1.000000 0.000000 -0.000001
vn -1.000000 0.000000 -0.000001
vn -1.000000 0.000000 -0.000001
vn 0.000000 -0.861343 -0.508025
vn 0.000000 -0.861343 -0.508025
vn 0.000000 -0.861343 -0.508025
vn 0.000000 -0.861343 -0.508025
vn -0.000000 0.861343 0.508025
vn -0.000000 0.861343 0.508025
vn -0.000000 0.861343 0.508025
vn -0.000000 0.861343 0.508025
vn 0.000001 0.000000 -1.000000
vn 0.000001 0.000000 -1.000000
vn 0.000001 0.000000 -1.000000
vn 0.000001 0.000000 -1.000000
vn -1.000000 0.000000 -0.000001
vn -1.000000 0.000000 -0.000001
vn -1.000000 0.000000 -0.000001
vn -1.000000 0.000000 -0.000001
vn -0.000001 0.000000 1.000000
vn -0.000001 0.000000 1.000000
vn -0.000001 0.000000 1.000000
vn -0.000001 0.000000 1.000000
vn 1.000000 0.000000 0.000001
vn 1.000000 0.000000 0.000001
vn 1.000000 0.000000 0.000001
vn 1.000000 0.000000 0.000001
vn -0.000000 -0.861343 0.508024
vn -0.000000 -0.861343 0.508024
vn -0.000000 -0.861343 0.508024
vn -0.000000 -0.861343 0.508024
vn 0.000000 0.861343 -0.508024
vn 0.000000 0.861343 -0.508024
vn 0.000000 0.861343 -0.508024
vn 0.000000 0.861343 -0.508024
vn 0.000001 0.000000 -1.000000
vn 0.000001 0.000000 -1.000000
vn 0.000001 0.000000 -1.000000
vn 0.000001 0.000000 -1.000000
vn -1.000000 0.000000 -0.000001
vn -1.000000 0.000000 -0.000001
vn -1.000000 0.000000 -0.000001
vn -1.000000 0.000000 -0.000001
vn -0.000001 0.000000 1.000000
vn -0.000001 0.000000 1.000000
vn -0.000001 0.000000 1.000000
vn -0.000001 0.000000 1.000000
vn 1.000000 0.000000 0.000001
vn 1.000000 0.000000 0.000001
vn 1.000000 0.000000 0.000001
vn 1.000000 0.000000 0.000001
vn -0.000000 -0.861343 0.508025
vn -0.000000 -0.861343 0.508025
vn -0.000000 -0.861343 0.508025
vn -0.000000 -0.861343 0.508025
vn 0.000000 0.861343 -0.508025
vn 0.000000 0.861343 -0.508025
vn 0.000000 0.861343 -0.508025
vn 0.000000 0.861343 -0.508025
vn -1.000000 0.000000 0.000001
vn -1.000000 0.000000 0.000001
vn -1.000000 0.000000 0.000001
vn -1.000000 0.000000 0.000001
vn -0.000001 0.000000 -1.000000
vn -0.000001 0.000000 -1.000000
vn -0.000001 0.000000 -1.000000
vn -0.000001 0.000000 -1.000000
vn 1.000000 0.000000 -0.000001
vn 1.000000 0.000000 -0.000001
vn 1.000000 0.000000 -0.000001
vn 1.000000 0.000000 -0.000001
vn 0.000001 0.000000 1.000000
vn 0.000001 0.000000 1.000000
vn 0.000001 0.000000 1.000000
vn 0.000001 0.000000 1.000000
vn 0.001017 -1.000000 -0.000000
vn 0.001017 -1.000000 -0.000000
vn 0.001017 -1.000000 -0.000000
vn 0.001017 -1.000000 -0.000000
vn -0.001017 1.000000 0.000000
vn -0.001017 1.000000 0.000000
vn -0.001017 1.000000 0.000000
vn -0.001017 1.000000 0.000000
vn 1.000000 0.000000 0.000001
vn 1.000000 0.000000 0.000001
vn 1.000000 0.000000 0.000001
vn 1.000000 0.000000 0.000001
vn 0.000001 0.000000 -1.000000
vn 0.000001 0.000000 -1.000000
vn 0.000001 0.000000 -1.000000
vn 0.000001 0.000000 -1.000000
vn -1.000000 0.000000 -0.000001
vn -1.000000 0.000000 -0.000001
vn -1.000000 0.000000 -0.000001
vn -1.000000 0.000000 -0.000001
vn -0.000001 0.000000 1.000000
vn -0.000001 0.000000 1.000000
vn -0.000001 0.000000 1.000000
vn -0.000001 0.000000 1.000000
vn -0.508025 -0.861343 -0.000000
vn -0.508025 -0.861343 -0.000000
vn -0.508025 -0.861343 -0.000000
vn -0.508025 -0.861343 -0.000000
vn 0.508025 0.861343 0.000000
vn 0.508025 0.861343 0.000000
vn 0.508025 0.861343 0.000000
vn 0.508025 0.861343 0.000000
vn -1.000000 0.000000 -0.000001
vn -1.000000 0.000000 -0.000001
vn -1.000000 0.000000 -0.000001
vn -1.000000 0.000000 -0.000001
vn -0.000001 0.000000 1.000000
vn -0.000001 0.000000 1.000000
vn -0.000001 0.000000 1.000000
vn -0.000001 0.000000 1.000000
vn 1.000000 0.000000 0.000001
vn 1.000000 0.000000 0.000001
vn 1.000000 0.000000 0.000001
vn 1.000000 0.000000 0.000001
vn 0.000001 0.000000 -1.000000
vn 0.000001 0.000000 -1.000000
vn 0.000001 0.000000 -1.000000
vn 0.000001 0.000000 -1.000000
vn 0.508024 -0.861343 0.000000
vn 0.508024 -0.861343 0.000000
vn 0.508024 -0.861343 0.000000
vn 0.508024 -0.861343 0.000000
vn -0.508024 0.861343 -0.000000
vn -0.508024 0.861343 -0.000000
vn -0.508024 0.861343 -0.000000
vn -0.508024 0.861343 -0.000000
vn -1.000000 0.000000 -0.000001
vn -1.000000 0.000000 -0.000001
vn -1.000000 0.000000 -0.000001
vn -1.000000 0.000000 -0.000001
vn -0.000001 0.000000 1.000000
vn -0.000001 0.000000 1.000000
vn -0.000001 0.000000 1.000000
vn -0.000001 0.000000 1.000000
vn 1.000000 0.000000 0.000001
vn 1.000000 0.000000 0.000001
vn 1.000000 0.000000 0.000001
vn 1.000000 0.000000 0.000001
vn 0.000001 0.000000 -1.000000
vn 0.000001 0.000000 -1.000000
vn 0.000001 0.000000 -1.000000
vn 0.000001 0.000000 -1.000000
vn 0.508025 -0.861343 0.000000
vn 0.508025 -0.861343 0.000000
vn 0.508025 -0.861343 0.000000
vn 0.508025 -0.861343 0.000000
vn -0.508025 0.861343 -0.000000
vn -0.508025 0.861343 -0.000000
vn -0.508025 0.861343 -0.000000
vn -0.508025 0.861343 -0.000000
vn 0.000001 0.000000 1.000000
vn 0.000001 0.000000 1.000000
vn 0.000001 0.000000 1.000000
vn 0.000001 0.000000 1.000000
vn -1.000000 0.000000 0.000001
vn -1.000000 0.000000 0.000001
vn -1.000000 0.000000 0.000001
vn -1.000000 0.000000 0.000001
vn -0.000001 0.000000 -1.000000
vn -0.000001 0.000000 -1.000000
vn -0.000001 0.000000 -1.000000
vn -0.000001 0.000000 -1.000000
vn 1.000000 0.000000 -0.000001
vn 1.000000 0.000000 -0.000001
vn 1.000000 0.000000 -0.000001
vn 1.000000 0.000000 -0.000001
vn -0.000000 -0.861343 -0.508025
vn -0.000000 -0.861343 -0.508025
vn -0.000000 -0.861343 -0.508025
vn -0.000000 -0.861343 -0.508025
vn 0.000000 0.861343 0.508025
vn 0.000000 0.861343 0.508025
vn 0.000000 0.861343 0.508025
vn 0.000000 0.861343 0.508025
vn -0.000001 0.000000 -1.000000
vn -0.000001 0.000000 -1.000000
vn -0.000001 0.000000 -1.000000
vn -0.000001 0.000000 -1.000000
vn 1.000000 0.000000 -0.000001
vn 1.000000 0.000000 -0.000001
vn 1.000000 0.000000 -0.000001
vn 1.000000 0.000000 -0.000001
vn 0.000001 0.000000 1.000000
vn 0.000001 0.000000 1.000000
vn 0.000001 0.000000 1.000000
vn 0.000001 0.000000 1.000000
vn -1.000000 0.000000 0.000001
vn -1.000000 0.000000 0.000001
vn -1.000000 0.000000 0.000001
vn -1.000000 0.000000 0.000001
vn 0.000000 -0.861343 0.508024
vn 0.000000 -0.861343 0.508024
vn 0.000000 -0.861343 0.508024
vn 0.000000 -0.861343 0.508024
vn -0.000000 0.861343 -0.508024
vn -0.000000 0.861343 -0.508024
vn -0.000000 0.861343 -0.508024
vn -0.000000 0.861343 -0.508024
vn -0.000001 0.000000 -1.000000
vn -0.000001 0.000000 -1.000000
vn -0.000001 0.000000 -1.000000
vn -0.000001 0.000000 -1.000000
vn 1.000000 0.000000 -0.000001
vn 1.000000 0.000000 -0.000001
vn 1.000000 0.000000 -0.000001
vn 1.000000 0.000000 -0.000001
vn 0.000001 0.000000 1.000000
vn 0.000001 0.000000 1.000000
vn 0.000001 0.000000 1.000000
vn 0.000001 0.000000 1.000000
vn -1.000000 0.000000 0.000001
vn -1.000000 0.000000 0.000001
vn -1.000000 0.000000 0.000001
vn -1.000000 0.000000 0.000001
vn 0.000000 -0.861343 0.508025
vn 0.000000 -0.861343 0.508025
vn 0.000000 -0.861343 0.508025
vn 0.000000 -0.861343 0.508025
vn -0.000000 0.861343 -0.508025
vn -0.000000 0.861343 -0.508025
vn -0.000000 0.861343 -0.508025
vn -0.000000 0.861343 -0.508025
vn -1.000000 0.000000 -0.000001
vn -1.000000 0.000000 -0.000001
vn -1.000000 0.000000 -0.000001
vn -1.000000 0.000000 -0.000001
vn -0.000001 0.000000 1.000000
vn -0.000001 0.000000 1.000000
vn -0.000001 0.000000 1.000000
vn -0.000001 0.000000 1.000000
vn 1.000000 0.000000 0.000001
vn 1.000000 0.000000 0.000001
vn 1.000000 0.000000 0.000001
vn 1.000000 0.000000 0.000001
vn 0.000001 0.000000 -1.000000
vn 0.000001 0.000000 -1.000000
vn 0.000001 0.000000 -1.000000
vn 0.000001 0.000000 -1.000000
vn 0.001017 -0.999999 0.000000
vn 0.001017 -0.999999 0.000000
vn 0.001017 -0.999999 0.000000
vn 0.001017 -0.999999 0.000000
vn -0.001017 0.999999 -0.000000
vn -0.001017 0.999999 -0.000000
vn -0.001017 0.999999 -0.000000
vn -0.001017 0.999999 -0.000000
vn 1.000000 0.000000 -0.000001
vn 1.000000 0.000000 -0.000001
vn 1.000000 0.000000 -0.000001
vn 1.000000 0.000000 -0.000001
vn 0.000001 0.000000 1.000000
vn 0.000001 0.000000 1.000000
vn 0.000001 0.000000 1.000000
vn 0.000001 0.000000 1.000000
vn -1.000000 0.000000 0.000001
vn -1.000000 0.000000 0.000001
vn -1.000000 0.000000 0.000001
vn -1.000000 0.000000 0.000001
vn -0.000001 0.000000 -1.000000
vn -0.000001 0.000000 -1.000000
vn -0.000001 0.000000 -1.000000
vn -0.000001 0.000000 -1.000000
vn -0.508025 -0.861343 0.000000
vn -0.508025 -0.861343 0.000000
vn -0.508025 -0.861343 0.000000
vn -0.508025 -0.861343 0.000000
vn 0.508025 0.861343 -0.000000
vn 0.508025 0.861343 -0.000000
vn 0.508025 0.861343 -0.000000
vn 0.508025 0.861343 -0.000000
vn -1.000000 0.000000 0.000001
vn -1.000000 0.000000 0.000001
vn -1.000000 0.000000 0.000001
vn -1.000000 0.000000 0.000001
vn -0.000001 0.000000 -1.000000
vn -0.000001 0.000000 -1.000000
vn -0.000001 0.000000 -1.000000
vn -0.000001 0.000000 -1.000000
vn 1.000000 0.000000 -0.000001
vn 1.000000 0.000000 -0.000001
vn 1.000000 0.000000 -0.000001
vn 1.000000 0.000000 -0.000001
vn 0.000001 0.000000 1.000000
vn 0.000001 0.000000 1.000000
vn 0.000001 0.000000 1.000000
vn 0.000001 0.000000 1.000000
vn 0.508024 -0.861343 -0.000000
vn 0.508024 -0.861343 -0.000000
vn 0.508024 -0.861343 -0.000000
vn 0.508024 -0.861343 -0.000000
vn -0.508024 0.861343 0.000000
vn -0.508024 0.861343 0.000000
vn -0.508024 0.861343 0.000000
vn -0.508024 0.861343 0.000000
vn -1.000000 0.000000 0.000001
vn -1.000000 0.000000 0.000001
vn -1.000000 0.000000 0.000001
vn -1.000000 0.000000 0.000001
vn -0.000001 0.000000 -1.000000
vn -0.000001 0.000000 -1.000000
vn -0.000001 0.000000 -1.000000
vn -0.000001 0.000000 -1.000000
vn 1.000000 0.000000 -0.000001
vn 1.000000 0.000000 -0.000001
vn 1.000000 0.000000 -0.000001
vn 1.000000 0.000000 -0.000001
vn 0.000001 0.000000 1.000000
vn 0.000001 0.000000 1.000000
vn 0.000001 0.000000 1.000000
vn 0.000001 0.000000 1.000000
vn 0.508025 -0.861343 -0.000000
vn 0.508025 -0.861343 -0.000000
vn 0.508025 -0.861343 -0.000000
vn 0.508025 -0.861343 -0.000000
vn -0.508025 0.861343 0.000000
vn -0.508025 0.861343 0.000000
vn -0.508025 0.861343 0.000000
vn -0.508025 0.861343 0.000000
vn 0.000001 0.000000 -1.000000
vn 0.000001 0.000000 -1.000000
vn 0.000001 0.000000 -1.000000
vn 0.000001 0.000000 -1.000000
vn -1.000000 0.000000 -0.000001
vn -1.000000 0.000000 -0.000001
vn -1.000000 0.000000 -0.000001
vn -1.000000 0.000000 -0.000001
vn -0.000001 0.000000 1.000000
vn -0.000001 0.000000 1.000000
vn -0.000001 0.000000 1.000000
vn -0.000001 0.000000 1.000000
vn 1.000000 0.000000 0.000001
vn 1.000000 0.000000 0.000001
vn 1.000000 0.000000 0.000001
vn 1.000000 0.000000 0.000001
vn -0.000000 -0.999999 0.001017
vn -0.000000 -0.999999 0.001017
vn -0.000000 -0.999999 0.001017
vn -0.000000 -0.999999 0.001017
vn 0.000000 0.999999 -0.001017
vn 0.000000 0.999999 -0.001017
vn 0.000000 0.999999 -0.001017
vn 0.000000 0.999999 -0.001017
vn -0.000000 0.000000 1.000000
vn -0.000000 0.000000 1.000000
vn -0.000000 0.000000 1.000000
vn -0.000000 0.000000 1.000000
vn -1.000000 0.000000 0.000000
vn -1.000000 0.000000 0.000000
vn -1.000000 0.000000 0.000000
vn -1.000000 0.000000 0.000000
vn 0.000409 0.000000 -1.000000
vn 0.000409 0.000000 -1.000000
vn 0.000409 0.000000 -1.000000
vn 0.000409 0.000000 -1.000000
vn 0.999999 0.000000 0.001531
vn 0.999999 0.000000 0.001531
vn 0.999999 0.000000 0.001531
vn 0.999999 0.000000 0.001531
vn -0.000001 0.000000 1.000000
vn -0.000001 0.000000 1.000000
vn -0.000001 0.000000 1.000000
vn -0.000001 0.000000 1.000000
vn 0.000000 -1.000000 0.000000
vn 0.000000 -1.000000 0.000000
vn 0.000000 -1.000000 0.000000
vn 0.000000 -1.000000 0.000000
vn -1.000000 0.000000 0.000000
vn -1.000000 0.000000 0.000000
vn -1.000000 0.000000 0.000000
vn -1.000000 0.000000 0.000000
vn 0.000000 1.000000 0.000000
vn 0.000000 1.000000 0.000000
vn 0.000000 1.000000 0.000000
vn 0.000000 1.000000 0.000000
vn 0.000000 1.000000 0.000000
vn 0.000000 1.000000 0.000000
vn 0.000000 1.000000 0.000000
vn 0.000000 1.000000 0.000000
vn 0.000000 -1.000000 0.000000
vn 0.000000 -1.000000 0.000000
vn 0.000000 -1.000000 0.000000
vn 0.000000 -1.000000 0.000000
vn -0.000000 0.000000 -1.000000
vn -0.000000 0.000000 -1.000000
vn -0.000000 0.000000 -1.000000
vn -0.000000 0.000000 -1.000000
vn -1.000000 0.000000 0.000000
vn -1.000000 0.000000 0.000000
vn -1.000000 0.000000 0.000000
vn -1.000000 0.000000 0.000000
vn 0.000409 0.000000 1.000000
vn 0.000409 0.000000 1.000000
vn 0.000409 0.000000 1.000000
vn 0.000409 0.000000 1.000000
vn 0.999999 0.000000 -0.001531
vn 0.999999 0.000000 -0.001531
vn 0.999999 0.000000 -0.001531
vn 0.999999 0.000000 -0.001531
vn -0.000001 0.000000 -1.000000
vn -0.000001 0.000000 -1.000000
vn -0.000001 0.000000 -1.000000
vn -0.000001 0.000000 -1.000000
vn 0.000000 -1.000000 0.000000
vn 0.000000 -1.000000 0.000000
vn 0.000000 -1.000000 0.000000
vn 0.000000 -1.000000 0.000000
vn -1.000000 0.000000 0.000000
vn -1.000000 0.000000 0.000000
vn -1.000000 0.000000 0.000000
vn -1.000000 0.000000 0.000000
vn 0.000000 1.000000 0.000000
vn 0.000000 1.000000 0.000000
vn 0.000000 1.000000 0.000000
vn 0.000000 1.000000 0.000000
vn 0.000000 1.000000 0.000000
vn 0.000000 1.000000 0.000000
vn 0.000000 1.000000 0.000000
vn 0.000000 1.000000 0.000000
vn 0.000000 -1.000000 0.000000
vn 0.000000 -1.000000 0.000000
vn 0.000000 -1.000000 0.000000
vn 0.000000 -1.000000 0.000000
vn -1.000000 0.000000 -0.000000
vn -1.000000 0.000000 -0.000000
vn -1.000000 0.000000 -0.000000
vn -1.000000 0.000000 -0.000000
vn 0.000000 0.000000 -1.000000
vn 0.000000 0.000000 -1.000000
vn 0.000000 0.000000 -1.000000
vn 0.000000 0.000000 -1.000000
vn 1.000000 0.000000 0.000409
vn 1.000000 0.000000 0.000409
vn 1.000000 0.000000 0.000409
vn 1.000000 0.000000 0.000409
vn -0.001531 0.000000 0.999999
vn -0.001531 0.000000 0.999999
vn -0.001531 0.000000 0.999999
vn -0.001531 0.000000 0.999999
vn -1.000000 0.000000 0.000000
vn -1.000000 0.000000 0.000000
vn -1.000000 0.000000 0.000000
vn -1.000000 0.000000 0.000000
vn 0.000000 -1.000000 0.000000
vn 0.000000 -1.000000 0.000000
vn 0.000000 -1.000000 0.000000
vn 0.000000 -1.000000 0.000000
vn 0.000001 0.000000 -1.000000
vn 0.000001 0.000000 -1.000000
vn 0.000001 0.000000 -1.000000
vn 0.000001 0.000000 -1.000000
vn 0.000000 1.000000 -0.000000
vn 0.000000 1.000000 -0.000000
vn 0.000000 1.000000 -0.000000
vn 0.000000 1.000000 -0.000000
vn 0.000000 1.000000 0.000000
vn 0.000000 1.000000 0.000000
vn 0.000000 1.000000 0.000000
vn 0.000000 1.000000 0.000000
vn -0.000000 -1.000000 0.000000
vn -0.000000 -1.000000 0.000000
vn -0.000000 -1.000000 0.000000
vn -0.000000 -1.000000 0.000000
vn -1.000000 0.000000 0.000000
vn -1.000000 0.000000 0.000000
vn -1.000000 0.000000 0.000000
vn -1.000000 0.000000 0.000000
vn 0.000000 0.000000 1.000000
vn 0.000000 0.000000 1.000000
vn 0.000000 0.000000 1.000000
vn 0.000000 0.000000 1.000000
vn 1.000000 0.000000 -0.000409
vn 1.000000 0.000000 -0.000409
vn 1.000000 0.000000 -0.000409
vn 1.000000 0.000000 -0.000409
vn -0.001531 0.000000 -0.999999
vn -0.001531 0.000000 -0.999999
vn -0.001531 0.000000 -0.999999
vn -0.001531 0.000000 -0.999999
vn -1.000000 0.000000 -0.000000
vn -1.000000 0.000000 -0.000000
vn -1.000000 0.000000 -0.000000
vn -1.000000 0.000000 -0.000000
vn 0.000000 -1.000000 0.000000
vn 0.000000 -1.000000 0.000000
vn 0.000000 -1.000000 0.000000
vn 0.000000 -1.000000 0.000000
vn 0.000001 0.000000 1.000000
vn 0.000001 0.000000 1.000000
vn 0.000001 0.000000 1.000000
vn 0.000001 0.000000 1.000000
vn 0.000000 1.000000 0.000000
vn 0.000000 1.000000 0.000000
vn 0.000000 1.000000 0.000000
vn 0.000000 1.000000 0.000000
vn 0.000000 1.000000 0.000000
vn 0.000000 1.000000 0.000000
vn 0.000000 1.000000 0.000000
vn 0.000000 1.000000 0.000000
vn -0.000000 -1.000000 -0.000000
vn -0.000000 -1.000000 -0.000000
vn -0.000000 -1.000000 -0.000000
vn -0.000000 -1.000000 -0.000000
vn -0.000001 0.000000 -1.000000
vn -0.000001 0.000000 -1.000000
vn -0.000001 0.000000 -1.000000
vn -0.000001 0.000000 -1.000000
vn 1.000000 0.000000 -0.000001
vn 1.000000 0.000000 -0.000001
vn 1.000000 0.000000 -0.000001
vn 1.000000 0.000000 -0.000001
vn 0.000001 0.000000 1.000000
vn 0.000001 0.000000 1.000000
vn 0.000001 0.000000 1.000000
vn 0.000001 0.000000 1.000000
vn -1.000000 0.000000 0.000001
vn -1.000000 0.000000 0.000001
vn -1.000000 0.000000 0.000001
vn -1.000000 0.000000 0.000001
vn 0.000000 -1.000000 0.001017
vn 0.000000 -1.000000 0.001017
vn 0.000000 -1.000000 0.001017
vn 0.000000 -1.000000 0.001017
vn -0.000000 1.000000 -0.001017
vn -0.000000 1.000000 -0.001017
vn -0.000000 1.000000 -0.001017
vn -0.000000 1.000000 -0.001017
vn 0.000000 0.000000 1.000000
vn 0.000000 0.000000 1.000000
vn 0.000000 0.000000 1.000000
vn 0.000000 0.000000 1.000000
vn 1.000000 0.000000 0.000000
vn 1.000000 0.000000 0.000000
vn 1.000000 0.000000 0.000000
vn 1.000000 0.000000 0.000000
vn -0.000409 0.000000 -1.000000
vn -0.000409 0.000000 -1.000000
vn -0.000409 0.000000 -1.000000
vn -0.000409 0.000000 -1.000000
vn -0.999999 0.000000 0.001531
vn -0.999999 0.000000 0.001531
vn -0.999999 0.000000 0.001531
vn -0.999999 0.000000 0.001531
vn 0.000001 0.000000 1.000000
vn 0.000001 0.000000 1.000000
vn 0.000001 0.000000 1.000000
vn 0.000001 0.000000 1.000000
vn 0.000000 -1.000000 0.000000
vn 0.000000 -1.000000 0.000000
vn 0.000000 -1.000000 0.000000
vn 0.000000 -1.000000 0.000000
vn 1.000000 0.000000 0.000000
vn 1.000000 0.000000 0.000000
vn 1.000000 0.000000 0.000000
vn 1.000000 0.000000 0.000000
vn 0.000000 1.000000 0.000000
vn 0.000000 1.000000 0.000000
vn 0.000000 1.000000 0.000000
vn 0.000000 1.000000 0.000000
vn 0.000000 1.000000 0.000000
vn 0.000000 1.000000 0.000000
vn 0.000000 1.000000 0.000000
vn 0.000000 1.000000 0.000000
vn 0.000000 -1.000000 0.000000
vn 0.000000 -1.000000 0.000000
vn 0.000000 -1.000000 0.000000
vn 0.000000 -1.000000 0.000000
vn 0.000000 0.000000 -1.000000
vn 0.000000 0.000000 -1.000000
vn 0.000000 0.000000 -1.000000
vn 0.000000 0.000000 -1.000000
vn 1.000000 0.000000 0.000000
vn 1.000000 0.000000 0.000000
vn 1.000000 0.000000 0.000000
vn 1.000000 0.000000 0.000000
vn -0.000409 0.000000 1.000000
vn -0.000409 0.000000 1.000000
vn -0.000409 0.000000 1.000000
vn -0.000409 0.000000 1.000000
vn -0.999999 0.000000 -0.001531
vn -0.999999 0.000000 -0.001531
vn -0.999999 0.000000 -0.001531
vn -0.999999 0.000000 -0.001531
vn 0.000001 0.000000 -1.000000
vn 0.000001 0.000000 -1.000000
vn 0.000001 0.000000 -1.000000
vn 0.000001 0.000000 -1.000000
vn 0.000000 -1.000000 0.000000
vn 0.000000 -1.000000 0.000000
vn 0.000000 -1.000000 0.000000
vn 0.000000 -1.000000 0.000000
vn 1.000000 0.000000 0.000000
vn 1.000000 0.000000 0.000000
vn 1.000000 0.000000 0.000000
vn 1.000000 0.000000 0.000000
vn 0.000000 1.000000 0.000000
vn 0.000000 1.000000 0.000000
vn 0.000000 1.000000 0.000000
vn 0.000000 1.000000 0.000000
vn 0.000000 1.000000 0.000000
vn 0.000000 1.000000 0.000000
vn 0.000000 1.000000 0.000000
vn 0.000000 1.000000 0.000000
vn 0.000000 -1.000000 0.000000
vn 0.000000 -1.000000 0.000000
vn 0.000000 -1.000000 0.000000
vn 0.000000 -1.000000 0.000000
vn 1.000000 0.000000 -0.000000
vn 1.000000 0.000000 -0.000000
vn 1.000000 0.000000 -0.000000
vn 1.000000 0.000000 -0.000000
vn -0.000000 0.000000 -1.000000
vn -0.000000 0.000000 -1.000000
vn -0.000000 0.000000 -1.000000
vn -0.000000 0.000000 -1.000000
vn -1.000000 0.000000 0.000409
vn -1.000000 0.000000 0.000409
vn -1.000000 0.000000 0.000409
vn -1.000000 0.000000 0.000409
vn 0.001531 0.000000 0.999999
vn 0.001531 0.000000 0.999999
vn 0.001531 0.000000 0.999999
vn 0.001531 0.000000 0.999999
vn 1.000000 0.000000 0.000000
vn 1.000000 0.000000 0.000000
vn 1.000000 0.000000 0.000000
vn 1.000000 0.000000 0.000000
vn 0.000000 -1.000000 0.000000
vn 0.000000 -1.000000 0.000000
vn 0.000000 -1.000000 0.000000
vn 0.000000 -1.000000 0.000000
vn -0.000001 0.000000 -1.000000
vn -0.000001 0.000000 -1.000000
vn -0.000001 0.000000 -1.000000
vn -0.000001 0.000000 -1.000000
vn -0.000000 1.000000 -0.000000
vn -0.000000 1.000000 -0.000000
vn -0.000000 1.000000 -0.000000
vn -0.000000 1.000000 -0.000000
vn 0.000000 1.000000 0.000000
vn 0.000000 1.000000 0.000000
vn 0.000000 1.000000 0.000000
vn 0.000000 1.000000 0.000000
vn 0.000000 -1.000000 0.000000
vn 0.000000 -1.000000 0.000000
vn 0.000000 -1.000000 0.000000
vn 0.000000 -1.000000 0.000000
vn 1.000000 0.000000 0.000000
vn 1.000000 0.000000 0.000000
vn 1.000000 0.000000 0.000000
vn 1.000000 0.000000 0.000000
vn -0.000000 0.000000 1.000000
vn -0.000000 0.000000 1.000000
vn -0.000000 0.000000 1.000000
vn -0.000000 0.000000 1.000000
vn -1.000000 0.000000 -0.000409
vn -1.000000 0.000000 -0.000409
vn -1.000000 0.000000 -0.000409
vn -1.000000 0.000000 -0.000409
vn 0.001531 0.000000 -0.999999
vn 0.001531 0.000000 -0.999999
vn 0.001531 0.000000 -0.999999
vn 0.001531 0.000000 -0.999999
vn 1.000000 0.000000 -0.000000
vn 1.000000 0.000000 -0.000000
vn 1.000000 0.000000 -0.000000
vn 1.000000 0.000000 -0.000000
vn 0.000000 -1.000000 0.000000
vn 0.000000 -1.000000 0.000000
vn 0.000000 -1.000000 0.000000
vn 0.000000 -1.000000 0.000000
vn -0.000001 0.000000 1.000000
vn -0.000001 0.000000 1.000000
vn -0.000001 0.000000 1.000000
vn -0.000001 0.000000 1.000000
vn -0.000000 1.000000 0.000000
vn -0.000000 1.000000 0.000000
vn -0.000000 1.000000 0.000000
vn -0.000000 1.000000 0.000000
vn 0.000000 1.000000 0.000000
vn 0.000000 1.000000 0.000000
vn 0.000000 1.000000 0.000000
vn 0.000000 1.000000 0.000000
vn 0.000000 -1.000000 -0.000000
vn 0.000000 -1.000000 -0.000000
vn 0.000000 -1.000000 -0.000000
vn 0.000000 -1.000000 -0.000000
vn 0.000001 0.000000 -1.000000
vn 0.000001 0.000000 -1.000000
vn 0.000001 0.000000 -1.000000
vn 0.000001 0.000000 -1.000000
vn -1.000000 0.000000 -0.000001
vn -1.000000 0.000000 -0.000001
vn -1.000000 0.000000 -0.000001
vn -1.000000 0.000000 -0.000001
vn -0.000001 0.000000 1.000000
vn -0.000001 0.000000 1.000000
vn -0.000001 0.000000 1.000000
vn -0.000001 0.000000 1.000000
vn 1.000000 0.000000 0.000001
vn 1.000000 0.000000 0.000001
vn 1.000000 0.000000 0.000001
vn 1.000000 0.000000 0.000001
vn -0.000000 -0.999999 0.001017
vn -0.000000 -0.999999 0.001017
vn -0.000000 -0.999999 0.001017
vn -0.000000 -0.999999 0.001017
vn 0.000000 0.999999 -0.001017
vn 0.000000 0.999999 -0.001017
vn 0.000000 0.999999 -0.001017
vn 0.000000 0.999999 -0.001017
vn -0.000001 0.000000 1.000000
vn -0.000001 0.000000 1.000000
vn -0.000001 0.000000 1.000000
vn -0.000001 0.000000 1.000000
vn 1.000000 0.000000 0.000001
vn 1.000000 0.000000 0.000001
vn 1.000000 0.000000 0.000001
vn 1.000000 0.000000 0.000001
vn 0.000001 0.000000 -1.000000
vn 0.000001 0.000000 -1.000000
vn 0.000001 0.000000 -1.000000
vn 0.000001 0.000000 -1.000000
vn -1.000000 0.000000 -0.000001
vn -1.000000 0.000000 -0.000001
vn -1.000000 0.000000 -0.000001
vn -1.000000 0.000000 -0.000001
vn 0.000000 -0.861343 -0.508025
vn 0.000000 -0.861343 -0.508025
vn 0.000000 -0.861343 -0.508025
vn 0.000000 -0.861343 -0.508025
vn -0.000000 0.861343 0.508025
vn -0.000000 0.861343 0.508025
vn -0.000000 0.861343 0.508025
vn -0.000000 0.861343 0.508025
vn 0.000001 0.000000 -1.000000
vn 0.000001 0.000000 -1.000000
vn 0.000001 0.000000 -1.000000
vn 0.000001 0.000000 -1.000000
vn -1.000000 0.000000 -0.000001
vn -1.000000 0.000000 -0.000001
vn -1.000000 0.000000 -0.000001
vn -1.000000 0.000000 -0.000001
vn -0.000001 0.000000 1.000000
vn -0.000001 0.000000 1.000000
vn -0.000001 0.000000 1.000000
vn -0.000001 0.000000 1.000000
vn 1.000000 0.000000 0.000001
vn 1.000000 0.000000 0.000001
vn 1.000000 0.000000 0.000001
vn 1.000000 0.000000 0.000001
vn -0.000000 -0.861343 0.508024
vn -0.000000 -0.861343 0.508024
vn -0.000000 -0.861343 0.508024
vn -0.000000 -0.861343 0.508024
vn 0.000000 0.861343 -0.508024
vn 0.000000 0.861343 -0.508024
vn 0.000000 0.861343 -0.508024
vn 0.000000 0.861343 -0.508024
vn 0.000001 0.000000 -1.000000
vn 0.000001 0.000000 -1.000000
vn 0.000001 0.000000 -1.000000
vn 0.000001 0.000000 -1.000000
vn -1.000000 0.000000 -0.000001
vn -1.000000 0.000000 -0.000001
vn -1.000000 0.000000 -0.000001
vn -1.000000 0.000000 -0.000001
vn -0.000001 0.000000 1.000000
vn -0.000001 0.000000 1.000000
vn -0.000001 0.000000 1.000000
vn -0.000001 0.000000 1.000000
vn 1.000000 0.000000 0.000001
vn 1.000000 0.000000 0.000001
vn 1.000000 0.000000 0.000001
vn 1.000000 0.000000 0.000001
vn -0.000000 -0.861343 0.508025
vn -0.000000 -0.861343 0.508025
vn -0.000000 -0.861343 0.508025
vn -0.000000 -0.861343 0.508025
vn 0.000000 0.861343 -0.508025
vn 0.000000 0.861343 -0.508025
vn 0.000000 0.861343 -0.508025
vn 0.000000 0.861343 -0.508025
vn -1.000000 0.000000 0.000001
vn -1.000000 0.000000 0.000001
vn -1.000000 0.000000 0.000001
vn -1.000000 0.000000 0.000001
vn -0.000001 0.000000 -1.000000
vn -0.000001 0.000000 -1.000000
vn -0.000001 0.000000 -1.000000
vn -0.000001 0.000000 -1.000000
vn 1.000000 0.000000 -0.000001
vn 1.000000 0.000000 -0.000001
vn 1.000000 0.000000 -0.000001
vn 1.000000 0.000000 -0.000001
vn 0.000001 0.000000 1.000000
vn 0.000001 0.000000 1.000000
vn 0.000001 0.000000 1.000000
vn 0.000001 0.000000 1.000000
vn 0.001017 -1.000000 -0.000000
vn 0.001017 -1.000000 -0.000000
vn 0.001017 -1.000000 -0.000000
vn 0.001017 -1.000000 -0.000000
vn -0.001017 1.000000 0.000000
vn -0.001017 1.000000 0.000000
vn -0.001017 1.000000 0.000000
vn -0.001017 1.000000 0.000000
vn 1.000000 0.000000 0.000001
vn 1.000000 0.000000 0.000001
vn 1.000000 0.000000 0.000001
vn 1.000000 0.000000 0.000001
vn 0.000001 0.000000 -1.000000
vn 0.000001 0.000000 -1.000000
vn 0.000001 0.000000 -1.000000
vn 0.000001 0.000000 -1.000000
vn -1.000000 0.000000 -0.000001
vn -1.000000 0.000000 -0.000001
vn -1.000000 0.000000 -0.000001
vn -1.000000 0.000000 -0.000001
vn -0.000001 0.000000 1.000000
vn -0.000001 0.000000 1.000000
vn -0.000001 0.000000 1.000000
vn -0.000001 0.000000 1.000000
vn -0.508025 -0.861343 -0.000000
vn -0.508025 -0.861343 -0.000000
vn -0.508025 -0.861343 -0.000000
vn -0.508025 -0.861343 -0.000000
vn 0.508025 0.861343 0.000000
vn 0.508025 0.861343 0.000000
vn 0.508025 0.861343 0.000000
vn 0.508025 0.861343 0.000000
vn -1.000000 0.000000 -0.000001
vn -1.000000 0.000000 -0.000001
vn -1.000000 0.000000 -0.000001
vn -1.000000 0.000000 -0.000001
vn -0.000001 0.000000 1.000000
vn -0.000001 0.000000 1.000000
vn -0.000001 0.000000 1.000000
vn -0.000001 0.000000 1.000000
vn 1.000000 0.000000 0.000001
vn 1.000000 0.000000 0.000001
vn 1.000000 0.000000 0.000001
vn 1.000000 0.000000 0.000001
vn 0.000001 0.000000 -1.000000
vn 0.000001 0.000000 -1.000000
vn 0.000001 0.000000 -1.000000
vn 0.000001 0.000000 -1.000000
vn 0.508024 -0.861343 0.000000
vn 0.508024 -0.861343 0.000000
vn 0.508024 -0.861343 0.000000
vn 0.508024 -0.861343 0.000000
vn -0.508024 0.861343 -0.000000
vn -0.508024 0.861343 -0.000000
vn -0.508024 0.861343 -0.000000
vn -0.508024 0.861343 -0.000000
vn -1.000000 0.000000 -0.000001
vn -1.000000 0.000000 -0.000001
vn -1.000000 0.000000 -0.000001
vn -1.000000 0.000000 -0.000001
vn -0.000001 0.000000 1.000000
vn -0.000001 0.000000 1.000000
vn -0.000001 0.000000 1.000000
vn -0.000001 0.000000 1.000000
vn 1.000000 0.000000 0.000001
vn 1.000000 0.000000 0.000001
vn 1.000000 0.000000 0.000001
vn 1.000000 0.000000 0.000001
vn 0.000001 0.000000 -1.000000
vn 0.000001 0.000000 -1.000000
vn 0.000001 0.000000 -1.000000
vn 0.000001 0.000000 -1.000000
vn 0.508025 -0.861343 0.000000
vn 0.508025 -0.861343 0.000000
vn 0.508025 -0.861343 0.000000
vn 0.508025 -0.861343 0.000000
vn -0.508025 0.861343 -0.000000
vn -0.508025 0.861343 -0.000000
vn -0.508025 0.861343 -0.000000
vn -0.508025 0.861343 -0.000000
vn 0.000001 0.000000 1.000000
vn 0.000001 0.000000 1.000000
vn 0.000001 0.000000 1.000000
vn 0.000001 0.000000 1.000000
vn -1.000000 0.000000 0.000001
vn -1.000000 0.000000 0.000001
vn -1.000000 0.000000 0.000001
vn -1.000000 0.000000 0.000001
vn -0.000001 0.000000 -1.000000
vn -0.000001 0.000000 -1.000000
vn -0.000001 0.000000 -1.000000
vn -0.000001 0.000000 -1.000000
vn 1.000000 0.000000 -0.000001
vn 1.000000 0.000000 -0.000001
vn 1.000000 0.000000 -0.000001
vn 1.000000 0.000000 -0.000001
vn -0.000000 -0.861343 -0.508025
vn -0.000000 -0.861343 -0.508025
vn -0.000000 -0.861343 -0.508025
vn -0.000000 -0.861343 -0.508025
vn 0.000000 0.861343 0.508025
vn 0.000000 0.861343 0.508025
vn 0.000000 0.861343 0.508025
vn 0.000000 0.861343 0.508025
vn -0.000001 0.000000 -1.000000
vn -0.000001 0.000000 -1.000000
vn -0.000001 0.000000 -1.000000
vn -0.000001 0.000000 -1.000000
vn 1.000000 0.000000 -0.000001
vn 1.000000 0.000000 -0.000001
vn 1.000000 0.000000 -0.000001
vn 1.000000 0.000000 -0.000001
vn 0.000001 0.000000 1.000000
vn 0.000001 0.000000 1.000000
vn 0.000001 0.000000 1.000000
vn 0.000001 0.000000 1.000000
vn -1.000000 0.000000 0.000001
vn -1.000000 0.000000 0.000001
vn -1.000000 0.000000 0.000001
vn -1.000000 0.000000 0.000001
vn 0.000000 -0.861343 0.508024
vn 0.000000 -0.861343 0.508024
vn 0.000000 -0.861343 0.508024
vn 0.000000 -0.861343 0.508024
vn -0.000000 0.861343 -0.508024
vn -0.000000 0.861343 -0.508024
vn -0.000000 0.861343 -0.508024
vn -0.000000 0.861343 -0.508024
vn -0.000001 0.000000 -1.000000
vn -0.000001 0.000000 -1.000000
vn -0.000001 0.000000 -1.000000
vn -0.000001 0.000000 -1.000000
vn 1.000000 0.000000 -0.000001
vn 1.000000 0.000000 -0.000001
vn 1.000000 0.000000 -0.000001
vn 1.000000 0.000000 -0.000001
vn 0.000001 0.000000 1.000000
vn 0.000001 0.000000 1.000000
vn 0.000001 0.000000 1.000000
vn 0.000001 0.000000 1.000000
vn -1.000000 0.000000 0.000001
vn -1.000000 0.000000 0.000001
vn -1.000000 0.000000 0.000001
vn -1.000000 0.000000 0.000001
vn 0.000000 -0.861343 0.508025
vn 0.000000 -0.861343 0.508025
vn 0.000000 -0.861343 0.508025
vn 0.000000 -0.861343 0.508025
vn -0.000000 0.861343 -0.508025
vn -0.000000 0.861343 -0.508025
vn -0.000000 0.861343 -0.508025
vn -0.000000 0.861343 -0.508025
vn -1.000000 0.000000 -0.000001
vn -1.000000 0.000000 -0.000001
vn -1.000000 0.000000 -0.000001
vn -1.000000 0.000000 -0.000001
vn -0.000001 0.000000 1.000000
vn -0.000001 0.000000 1.000000
vn -0.000001 0.000000 1.000000
vn -0.000001 0.000000 1.000000
vn 1.000000 0.000000 0.000001
vn 1.000000 0.000000 0.000001
vn 1.000000 0.000000 0.000001
vn 1.000000 0.000000 0.000001
vn 0.000001 0.000000 -1.000000
vn 0.000001 0.000000 -1.000000
vn 0.000001 0.000000 -1.000000
vn 0.000001 0.000000 -1.000000
vn 0.001017 -0.999999 0.000000
vn 0.001017 -0.999999 0.000000
vn 0.001017 -0.999999 0.000000
vn 0.001017 -0.999999 0.000000
vn -0.001017 0.999999 -0.000000
vn -0.001017 0.999999 -0.000000
vn -0.001017 0.999999 -0.000000
vn -0.001017 0.999999 -0.000000
vn 1.000000 0.000000 -0.000001
vn 1.000000 0.000000 -0.000001
vn 1.000000 0.000000 -0.000001
vn 1.000000 0.000000 -0.000001
vn 0.000001 0.000000 1.000000
vn 0.000001 0.000000 1.000000
vn 0.000001 0.000000 1.000000
vn 0.000001 0.000000 1.000000
vn -1.000000 0.000000 0.000001
vn -1.000000 0.000000 0.000001
vn -1.000000 0.000000 0.000001
vn -1.000000 0.000000 0.000001
vn -0.000001 0.000000 -1.000000
vn -0.000001 0.000000 -1.000000
vn -0.000001 0.000000 -1.000000
vn -0.000001 0.000000 -1.000000
vn -0.508025 -0.861343 0.000000
vn -0.508025 -0.861343 0.000000
vn -0.508025 -0.861343 0.000000
vn -0.508025 -0.861343 0.000000
vn 0.508025 0.861343 -0.000000
vn 0.508025 0.861343 -0.000000
vn 0.508025 0.861343 -0.000000
vn 0.508025 0.861343 -0.000000
vn -1.000000 0.000000 0.000001
vn -1.000000 0.000000 0.000001
vn -1.000000 0.000000 0.000001
vn -1.000000 0.000000 0.000001
vn -0.000001 0.000000 -1.000000
vn -0.000001 0.000000 -1.000000
vn -0.000001 0.000000 -1.000000
vn -0.000001 0.000000 -1.000000
vn 1.000000 0.000000 -0.000001
vn 1.000000 0.000000 -0.000001
vn 1.000000 0.000000 -0.000001
vn 1.000000 0.000000 -0.000001
vn 0.000001 0.000000 1.000000
vn 0.000001 0.000000 1.000000
vn 0.000001 0.000000 1.000000
vn 0.000001 0.000000 1.000000
vn 0.508024 -0.861343 -0.000000
vn 0.508024 -0.861343 -0.000000
vn 0.508024 -0.861343 -0.000000
vn 0.508024 -0.861343 -0.000000
vn -0.508024 0.861343 0.000000
vn -0.508024 0.861343 0.000000
vn -0.508024 0.861343 0.000000
vn -0.508024 0.861343 0.000000
vn -1.000000 0.000000 0.000001
vn -1.000000 0.000000 0.000001
vn -1.000000 0.000000 0.000001
vn -1.000000 0.000000 0.000001
vn -0.000001 0.000000 -1.000000
vn -0.000001 0.000000 -1.000000
vn -0.000001 0.000000 -1.000000
vn -0.000001 0.000000 -1.000000
vn 1.000000 0.000000 -0.000001
vn 1.000000 0.000000 -0.000001
vn 1.000000 0.000000 -0.000001
vn 1.000000 0.000000 -0.000001
vn 0.000001 0.000000 1.000000
vn 0.000001 0.000000 1.000000
vn 0.000001 0.000000 1.000000
vn 0.000001 0.000000 1.000000
vn 0.508025 -0.861343 -0.000000
vn 0.508025 -0.861343 -0.000000
vn 0.508025 -0.861343 -0.000000
vn 0.508025 -0.861343 -0.000000
vn -0.508025 0.861343 0.000000
vn -0.508025 0.861343 0.000000
vn -0.508025 0.861343 0.000000
vn -0.508025 0.861343 0.000000
s off
g MetalPillar2
usemtl lambert1SG
f 1/1/1 3/2/2 4/3/3 2/4/4
f 3/5/5 7/6/6 8/7/7 4/8/8
f 7/9/9 5/10/10 6/11/11 8/12/12
f 5/10/13 1/1/14 2/4/15 6/11/16
f 3/5/17 1/1/18 5/10/19 7/6/20
f 8/13/21 6/11/22 2/4/23 4/14/24
f 9/15/25 12/16/26 10/17/27 14/18/28
f 13/19/29 11/20/30 12/16/31 9/15/32
f 15/21/33 20/22/34 16/23/35 18/24/36
f 19/25/37 15/21/38 18/24/39 17/26/40
f 13/19/41 19/25/42 17/26/43 11/20/44
f 9/27/45 15/21/46 19/28/47 13/29/48
f 10/30/49 16/23/50 20/22/51 14/31/52
f 12/32/53 18/24/54 16/23/55 10/33/56
f 11/34/57 17/35/58 18/24/59 12/32/60
f 14/36/61 20/22/62 15/21/63 9/27/64
f 21/37/65 26/38/66 22/39/67 24/40/68
f 25/41/69 21/37/70 24/40/71 23/42/72
f 27/43/73 30/44/74 28/45/75 32/46/76
f 31/47/77 29/48/78 30/44/79 27/43/80
f 25/41/81 23/42/82 29/48/83 31/47/84
f 21/49/85 25/50/86 31/51/87 27/43/88
f 22/52/89 26/53/90 32/46/91 28/45/92
f 24/54/93 22/55/94 28/45/95 30/44/96
f 23/56/97 24/54/98 30/44/99 29/57/100
f 26/58/101 21/49/102 27/43/103 32/46/104
f 33/59/105 36/60/106 34/61/107 38/62/108
f 37/63/109 35/64/110 36/60/111 33/59/112
f 39/65/113 44/66/114 40/67/115 42/68/116
f 43/69/117 39/65/118 42/68/119 41/70/120
f 37/71/121 43/69/122 41/70/123 35/72/124
f 33/73/125 39/65/126 43/69/127 37/74/128
f 34/61/129 40/67/130 44/66/131 38/62/132
f 36/75/133 42/68/134 40/76/135 34/77/136
f 35/78/137 41/70/138 42/68/139 36/75/140
f 38/79/141 44/80/142 39/65/143 33/73/144
f 45/81/145 50/82/146 46/83/147 48/84/148
f 49/85/149 45/81/150 48/84/151 47/86/152
f 51/87/153 54/88/154 52/89/155 56/90/156
f 55/91/157 53/92/158 54/88/159 51/87/160
f 49/93/161 47/94/162 53/92/163 55/91/164
f 45/95/165 49/96/166 55/91/167 51/87/168
f 46/83/169 50/82/170 56/90/171 52/89/172
f 48/97/173 46/98/174 52/99/175 54/88/176
f 47/100/177 48/97/178 54/88/179 53/92/180
f 50/101/181 45/95/182 51/87/183 56/102/184
f 57/103/185 58/104/186 60/105/187 59/106/188
f 59/107/189 60/108/190 64/109/191 63/110/192
f 63/111/193 64/112/194 62/113/195 61/114/196
f 61/114/197 62/113/198 58/104/199 57/103/200
f 59/107/201 63/110/202 61/114/203 57/103/204
f 64/115/205 60/116/206 58/104/207 62/113/208
f 65/117/209 70/118/210 66/119/211 68/120/212
f 69/121/213 65/117/214 68/120/215 67/122/216
f 71/123/217 74/124/218 72/125/219 76/126/220
f 75/127/221 73/128/222 74/124/223 71/123/224
f 69/121/225 67/122/226 73/128/227 75/127/228
f 65/129/229 69/130/230 75/131/231 71/123/232
f 66/132/233 70/133/234 76/126/235 72/125/236
f 68/134/237 66/135/238 72/125/239 74/124/240
f 67/136/241 68/134/242 74/124/243 73/137/244
f 70/138/245 65/129/246 71/123/247 76/126/248
f 77/139/249 80/140/250 78/141/251 82/142/252
f 81/143/253 79/144/254 80/140/255 77/139/256
f 83/145/257 88/146/258 84/147/259 86/148/260
f 87/149/261 83/145/262 86/148/263 85/150/264
f 81/143/265 87/149/266 85/150/267 79/144/268
f 77/151/269 83/145/270 87/152/271 81/153/272
f 78/154/273 84/147/274 88/146/275 82/155/276
f 80/156/277 86/148/278 84/147/279 78/157/280
f 79/158/281 85/159/282 86/148/283 80/156/284
f 82/160/285 88/146/286 83/145/287 77/151/288
f 89/161/289 94/162/290 90/163/291 92/164/292
f 93/165/293 89/161/294 92/164/295 91/166/296
f 95/167/297 98/168/298 96/169/299 100/170/300
f 99/171/301 97/172/302 98/168/303 95/167/304
f 93/173/305 91/174/306 97/172/307 99/171/308
f 89/175/309 93/176/310 99/171/311 95/167/312
f 90/163/313 94/162/314 100/170/315 96/169/316
f 92/177/317 90/178/318 96/179/319 98/168/320
f 91/180/321 92/177/322 98/168/323 97/172/324
f 94/181/325 89/175/326 95/167/327 100/182/328
f 101/183/329 104/184/330 102/185/331 106/186/332
f 105/187/333 103/188/334 104/184/335 101/183/336
f 107/189/337 112/190/338 108/191/339 110/192/340
f 111/193/341 107/189/342 110/192/343 109/194/344
f 105/195/345 111/193/346 109/194/347 103/196/348
f 101/197/349 107/189/350 111/193/351 105/198/352
f 102/185/353 108/191/354 112/190/355 106/186/356
f 104/199/357 110/192/358 108/200/359 102/201/360
f 103/202/361 109/194/362 110/192/363 104/199/364
f 106/203/365 112/204/366 107/189/367 101/197/368
f 113/205/369 115/206/370 116/207/371 114/208/372
f 115/209/373 119/210/374 120/211/375 116/212/376
f 119/213/377 117/214/378 118/215/379 120/216/380
f 117/214/381 113/205/382 114/208/383 118/215/384
f 115/209/385 113/205/386 117/214/387 119/210/388
f 120/217/389 118/215/390 114/208/391 116/218/392
f 121/219/393 123/220/394 124/221/395 122/222/396
f 123/223/397 127/224/398 128/225/399 124/226/400
f 127/227/401 125/228/402 126/229/403 128/230/404
f 125/228/405 121/219/406 122/231/407 126/232/408
f 123/220/409 121/219/410 125/228/411 127/227/412
f 128/225/413 126/232/414 122/231/415 124/226/416
f 129/233/417 131/234/418 132/235/419 130/236/420
f 131/237/421 135/238/422 136/239/423 132/235/424
f 135/240/425 133/241/426 134/242/427 136/239/428
f 133/243/429 129/244/430 130/245/431 134/246/432
f 131/237/433 129/244/434 133/243/435 135/238/436
f 136/239/437 134/242/438 130/236/439 132/235/440
f 137/247/441 139/248/442 140/249/443 138/250/444
f 139/251/445 143/252/446 144/253/447 140/249/448
f 143/254/449 141/255/450 142/256/451 144/253/452
f 141/257/453 137/258/454 138/259/455 142/260/456
f 139/251/457 137/258/458 141/257/459 143/252/460
f 144/253/461 142/256/462 138/250/463 140/249/464
f 145/261/465 146/262/466 148/263/467 147/264/468
f 147/265/469 148/266/470 152/267/471 151/268/472
f 151/269/473 152/270/474 150/271/475 149/272/476
f 149/272/477 150/271/478 146/262/479 145/261/480
f 147/265/481 151/268/482 149/272/483 145/261/484
f 152/273/485 148/274/486 146/262/487 150/271/488
f 153/275/489 155/276/490 156/277/491 154/278/492
f 155/279/493 159/280/494 160/281/495 156/282/496
f 159/283/497 157/284/498 158/285/499 160/286/500
f 157/284/501 153/275/502 154/287/503 158/288/504
f 155/276/505 153/275/506 157/284/507 159/283/508
f 160/281/509 158/288/510 154/287/511 156/282/512
f 161/289/513 163/290/514 164/291/515 162/292/516
f 163/293/517 167/294/518 168/295/519 164/291/520
f 167/296/521 165/297/522 166/298/523 168/295/524
f 165/299/525 161/300/526 162/301/527 166/302/528
f 163/293/529 161/300/530 165/299/531 167/294/532
f 168/295/533 166/298/534 162/292/535 164/291/536
f 169/303/537 171/304/538 172/305/539 170/306/540
f 171/307/541 175/308/542 176/309/543 172/305/544
f 175/310/545 173/311/546 174/312/547 176/309/548
f 173/313/549 169/314/550 170/315/551 174/316/552
f 171/307/553 169/314/554 173/313/555 175/308/556
f 176/309/557 174/312/558 170/306/559 172/305/560
f 177/317/561 178/318/562 180/319/563 179/320/564
f 179/321/565 180/322/566 184/323/567 183/324/568
f 183/325/569 184/326/570 182/327/571 181/328/572
f 181/328/573 182/329/574 178/330/575 177/317/576
f 179/320/577 183/325/578 181/328/579 177/317/580
f 184/323/581 180/322/582 178/330/583 182/329/584
f 185/331/585 186/332/586 188/333/587 187/334/588
f 187/335/589 188/333/590 192/336/591 191/337/592
f 191/338/593 192/336/594 190/339/595 189/340/596
f 189/341/597 190/342/598 186/343/599 185/344/600
f 187/335/601 191/337/602 189/341/603 185/344/604
f 192/336/605 188/333/606 186/332/607 190/339/608
f 193/345/609 194/346/610 196/347/611 195/348/612
f 195/349/613 196/347/614 200/350/615 199/351/616
f 199/352/617 200/350/618 198/353/619 197/354/620
f 197/355/621 198/356/622 194/357/623 193/358/624
f 195/349/625 199/351/626 197/355/627 193/358/628
f 200/350/629 196/347/630 194/346/631 198/353/632
f 201/359/633 203/360/634 204/361/635 202/362/636
f 203/363/637 207/364/638 208/365/639 204/366/640
f 207/367/641 205/368/642 206/369/643 208/370/644
f 205/368/645 201/359/646 202/362/647 206/369/648
f 203/363/649 201/359/650 205/368/651 207/364/652
f 208/371/653 206/369/654 202/362/655 204/372/656
f 209/373/657 210/374/658 212/375/659 211/376/660
f 211/377/661 212/378/662 216/379/663 215/380/664
f 215/381/665 216/382/666 214/383/667 213/384/668
f 213/384/669 214/385/670 210/386/671 209/373/672
f 211/376/673 215/381/674 213/384/675 209/373/676
f 216/379/677 212/378/678 210/386/679 214/385/680
f 217/387/681 218/388/682 220/389/683 219/390/684
f 219/391/685 220/389/686 224/392/687 223/393/688
f 223/394/689 224/392/690 222/395/691 221/396/692
f 221/397/693 222/398/694 218/399/695 217/400/696
f 219/391/697 223/393/698 221/397/699 217/400/700
f 224/392/701 220/389/702 218/388/703 222/395/704
f 225/401/705 226/402/706 228/403/707 227/404/708
f 227/405/709 228/403/710 232/406/711 231/407/712
f 231/408/713 232/406/714 230/409/715 229/410/716
f 229/411/717 230/412/718 226/413/719 225/414/720
f 227/405/721 231/407/722 229/411/723 225/414/724
f 232/406/725 228/403/726 226/402/727 230/409/728
f 233/415/729 235/416/730 236/417/731 234/418/732
f 235/419/733 239/420/734 240/421/735 236/422/736
f 239/423/737 237/424/738 238/425/739 240/426/740
f 237/424/741 233/415/742 234/418/743 238/425/744
f 235/419/745 233/415/746 237/424/747 239/420/748
f 240/427/749 238/425/750 234/418/751 236/428/752
f 241/429/753 244/430/754 242/431/755 246/432/756
f 245/433/757 243/434/758 244/430/759 241/429/760
f 247/435/761 252/436/762 248/437/763 250/438/764
f 251/439/765 247/435/766 250/438/767 249/440/768
f 245/433/769 251/439/770 249/440/771 243/434/772
f 241/441/773 247/435/774 251/442/775 245/443/776
f 242/444/777 248/437/778 252/436/779 246/445/780
f 244/446/781 250/438/782 248/437/783 242/447/784
f 243/448/785 249/449/786 250/438/787 244/446/788
f 246/450/789 252/436/790 247/435/791 241/441/792
f 253/451/793 258/452/794 254/453/795 256/454/796
f 257/455/797 253/451/798 256/454/799 255/456/800
f 259/457/801 262/458/802 260/459/803 264/460/804
f 263/461/805 261/462/806 262/458/807 259/457/808
f 257/455/809 255/456/810 261/462/811 263/461/812
f 253/463/813 257/464/814 263/465/815 259/457/816
f 254/466/817 258/467/818 264/460/819 260/459/820
f 256/468/821 254/469/822 260/459/823 262/458/824
f 255/470/825 256/468/826 262/458/827 261/471/828
f 258/472/829 253/463/830 259/457/831 264/460/832
f 265/473/833 268/474/834 266/475/835 270/476/836
f 269/477/837 267/478/838 268/474/839 265/473/840
f 271/479/841 276/480/842 272/481/843 274/482/844
f 275/483/845 271/479/846 274/482/847 273/484/848
f 269/485/849 275/483/850 273/484/851 267/486/852
f 265/487/853 271/479/854 275/483/855 269/488/856
f 266/475/857 272/481/858 276/480/859 270/476/860
f 268/489/861 274/482/862 272/490/863 266/491/864
f 267/492/865 273/484/866 274/482/867 268/489/868
f 270/493/869 276/494/870 271/479/871 265/487/872
f 277/495/873 282/496/874 278/497/875 280/498/876
f 281/499/877 277/495/878 280/498/879 279/500/880
f 283/501/881 286/502/882 284/503/883 288/504/884
f 287/505/885 285/506/886 286/502/887 283/501/888
f 281/507/889 279/508/890 285/506/891 287/505/892
f 277/509/893 281/510/894 287/505/895 283/501/896
f 278/497/897 282/496/898 288/504/899 284/503/900
f 280/511/901 278/512/902 284/513/903 286/502/904
f 279/514/905 280/511/906 286/502/907 285/506/908
f 282/515/909 277/509/910 283/501/911 288/516/912
f 289/517/913 290/518/914 292/519/915 291/520/916
f 291/521/917 292/522/918 296/523/919 295/524/920
f 295/525/921 296/526/922 294/527/923 293/528/924
f 293/528/925 294/527/926 290/518/927 289/517/928
f 291/521/929 295/524/930 293/528/931 289/517/932
f 296/529/933 292/530/934 290/518/935 294/527/936
f 297/531/937 302/532/938 298/533/939 300/534/940
f 301/535/941 297/531/942 300/534/943 299/536/944
f 303/537/945 306/538/946 304/539/947 308/540/948
f 307/541/949 305/542/950 306/538/951 303/537/952
f 301/535/953 299/536/954 305/542/955 307/541/956
f 297/543/957 301/544/958 307/545/959 303/537/960
f 298/546/961 302/547/962 308/540/963 304/539/964
f 300/548/965 298/549/966 304/539/967 306/538/968
f 299/550/969 300/548/970 306/538/971 305/551/972
f 302/552/973 297/543/974 303/537/975 308/540/976
f 309/553/977 312/554/978 310/555/979 314/556/980
f 313/557/981 311/558/982 312/554/983 309/553/984
f 315/559/985 320/560/986 316/561/987 318/562/988
f 319/563/989 315/559/990 318/562/991 317/564/992
f 313/557/993 319/563/994 317/564/995 311/558/996
f 309/565/997 315/559/998 319/566/999 313/567/1000
f 310/568/1001 316/561/1002 320/560/1003 314/569/1004
f 312/570/1005 318/562/1006 316/561/1007 310/571/1008
f 311/572/1009 317/573/1010 318/562/1011 312/570/1012
f 314/574/1013 320/560/1014 315/559/1015 309/565/1016
f 321/575/1017 326/576/1018 322/577/1019 324/578/1020
f 325/579/1021 321/575/1022 324/578/1023 323/580/1024
f 327/581/1025 330/582/1026 328/583/1027 332/584/1028
f 331/585/1029 329/586/1030 330/582/1031 327/581/1032
f 325/587/1033 323/588/1034 329/586/1035 331/585/1036
f 321/589/1037 325/590/1038 331/585/1039 327/581/1040
f 322/577/1041 326/576/1042 332/584/1043 328/583/1044
f 324/591/1045 322/592/1046 328/593/1047 330/582/1048
f 323/594/1049 324/591/1050 330/582/1051 329/586/1052
f 326/595/1053 321/589/1054 327/581/1055 332/596/1056
f 333/597/1057 336/598/1058 334/599/1059 338/600/1060
f 337/601/1061 335/602/1062 336/598/1063 333/597/1064
f 339/603/1065 344/604/1066 340/605/1067 342/606/1068
f 343/607/1069 339/603/1070 342/606/1071 341/608/1072
f 337/609/1073 343/607/1074 341/608/1075 335/610/1076
f 333/611/1077 339/603/1078 343/607/1079 337/612/1080
f 334/599/1081 340/605/1082 344/604/1083 338/600/1084
f 336/613/1085 342/606/1086 340/614/1087 334/615/1088
f 335/616/1089 341/608/1090 342/606/1091 336/613/1092
f 338/617/1093 344/618/1094 339/603/1095 333/611/1096
f 345/619/1097 347/620/1098 348/621/1099 346/622/1100
f 347/623/1101 351/624/1102 352/625/1103 348/626/1104
f 351/627/1105 349/628/1106 350/629/1107 352/630/1108
f 349/628/1109 345/619/1110 346/622/1111 350/629/1112
f 347/623/1113 345/619/1114 349/628/1115 351/624/1116
f 352/631/1117 350/629/1118 346/622/1119 348/632/1120
f 353/633/1121 355/634/1122 356/635/1123 354/636/1124
f 355/637/1125 359/638/1126 360/639/1127 356/640/1128
f 359/641/1129 357/642/1130 358/643/1131 360/644/1132
f 357/642/1133 353/633/1134 354/645/1135 358/646/1136
f 355/634/1137 353/633/1138 357/642/1139 359/641/1140
f 360/639/1141 358/646/1142 354/645/1143 356/640/1144
f 361/647/1145 363/648/1146 364/649/1147 362/650/1148
f 363/651/1149 367/652/1150 368/653/1151 364/649/1152
f 367/654/1153 365/655/1154 366/656/1155 368/653/1156
f 365/657/1157 361/658/1158 362/659/1159 366/660/1160
f 363/651/1161 361/658/1162 365/657/1163 367/652/1164
f 368/653/1165 366/656/1166 362/650/1167 364/649/1168
f 369/661/1169 371/662/1170 372/663/1171 370/664/1172
f 371/665/1173 375/666/1174 376/667/1175 372/663/1176
f 375/668/1177 373/669/1178 374/670/1179 376/667/1180
f 373/671/1181 369/672/1182 370/673/1183 374/674/1184
f 371/665/1185 369/672/1186 373/671/1187 375/666/1188
f 376/667/1189 374/670/1190 370/664/1191 372/663/1192
f 377/675/1193 378/676/1194 380/677/1195 379/678/1196
f 379/679/1197 380/680/1198 384/681/1199 383/682/1200
f 383/683/1201 384/684/1202 382/685/1203 381/686/1204
f 381/686/1205 382/685/1206 378/676/1207 377/675/1208
f 379/679/1209 383/682/1210 381/686/1211 377/675/1212
f 384/687/1213 380/688/1214 378/676/1215 382/685/1216
f 385/689/1217 387/690/1218 388/691/1219 386/692/1220
f 387/693/1221 391/694/1222 392/695/1223 388/696/1224
f 391/697/1225 389/698/1226 390/699/1227 392/700/1228
f 389/698/1229 385/689/1230 386/701/1231 390/702/1232
f 387/690/1233 385/689/1234 389/698/1235 391/697/1236
f 392/695/1237 390/702/1238 386/701/1239 388/696/1240
f 393/703/1241 395/704/1242 396/705/1243 394/706/1244
f 395/707/1245 399/708/1246 400/709/1247 396/705/1248
f 399/710/1249 397/711/1250 398/712/1251 400/709/1252
f 397/713/1253 393/714/1254 394/715/1255 398/716/1256
f 395/707/1257 393/714/1258 397/713/1259 399/708/1260
f 400/709/1261 398/712/1262 394/706/1263 396/705/1264
f 401/717/1265 403/718/1266 404/719/1267 402/720/1268
f 403/721/1269 407/722/1270 408/723/1271 404/719/1272
f 407/724/1273 405/725/1274 406/726/1275 408/723/1276
f 405/727/1277 401/728/1278 402/729/1279 406/730/1280
f 403/721/1281 401/728/1282 405/727/1283 407/722/1284
f 408/723/1285 406/726/1286 402/720/1287 404/719/1288
f 409/731/1289 410/732/1290 412/733/1291 411/734/1292
f 411/735/1293 412/736/1294 416/737/1295 415/738/1296
f 415/739/1297 416/740/1298 414/741/1299 413/742/1300
f 413/742/1301 414/743/1302 410/744/1303 409/731/1304
f 411/734/1305 415/739/1306 413/742/1307 409/731/1308
f 416/737/1309 412/736/1310 410/744/1311 414/743/1312
f 417/745/1313 418/746/1314 420/747/1315 419/748/1316
f 419/749/1317 420/747/1318 424/750/1319 423/751/1320
f 423/752/1321 424/750/1322 422/753/1323 421/754/1324
f 421/755/1325 422/756/1326 418/757/1327 417/758/1328
f 419/749/1329 423/751/1330 421/755/1331 417/758/1332
f 424/750/1333 420/747/1334 418/746/1335 422/753/1336
f 425/759/1337 426/760/1338 428/761/1339 427/762/1340
f 427/763/1341 428/761/1342 432/764/1343 431/765/1344
f 431/766/1345 432/764/1346 430/767/1347 429/768/1348
f 429/769/1349 430/770/1350 426/771/1351 425/772/1352
f 427/763/1353 431/765/1354 429/769/1355 425/772/1356
f 432/764/1357 428/761/1358 426/760/1359 430/767/1360
f 433/773/1361 435/774/1362 436/775/1363 434/776/1364
f 435/777/1365 439/778/1366 440/779/1367 436/780/1368
f 439/781/1369 437/782/1370 438/783/1371 440/784/1372
f 437/782/1373 433/773/1374 434/776/1375 438/783/1376
f 435/777/1377 433/773/1378 437/782/1379 439/778/1380
f 440/785/1381 438/783/1382 434/776/1383 436/786/1384
f 441/787/1385 442/788/1386 444/789/1387 443/790/1388
f 443/791/1389 444/792/1390 448/793/1391 447/794/1392
f 447/795/1393 448/796/1394 446/797/1395 445/798/1396
f 445/798/1397 446/799/1398 442/800/1399 441/787/1400
f 443/790/1401 447/795/1402 445/798/1403 441/787/1404
f 448/793/1405 444/792/1406 442/800/1407 446/799/1408
f 449/801/1409 450/802/1410 452/803/1411 451/804/1412
f 451/805/1413 452/803/1414 456/806/1415 455/807/1416
f 455/808/1417 456/806/1418 454/809/1419 453/810/1420
f 453/811/1421 454/812/1422 450/813/1423 449/814/1424
f 451/805/1425 455/807/1426 453/811/1427 449/814/1428
f 456/806/1429 452/803/1430 450/802/1431 454/809/1432
f 457/815/1433 458/816/1434 460/817/1435 459/818/1436
f 459/819/1437 460/817/1438 464/820/1439 463/821/1440
f 463/822/1441 464/820/1442 462/823/1443 461/824/1444
f 461/825/1445 462/826/1446 458/827/1447 457/828/1448
f 459/819/1449 463/821/1450 461/825/1451 457/828/1452
f 464/820/1453 460/817/1454 458/816/1455 462/823/1456
