# This file uses centimeters as units for non-parametric coordinates.

mtllib MetalPlank2.mtl
g default
v -145.008579 0.000000 0.706554
v 167.280310 0.000000 0.706554
v -145.008579 202.020752 0.706554
v 167.280310 209.223953 0.706554
v -145.008579 202.020752 -0.706554
v 167.280310 209.223953 -0.706554
v -145.008579 0.000000 -0.706554
v 167.280310 0.000000 -0.706554
v 104.822540 207.971222 0.706554
v 104.822540 207.971222 -0.706554
v 104.822540 0.000000 -0.706554
v 104.822540 0.000000 0.706554
v 42.364763 211.103058 5.207603
v 42.364763 211.103058 2.015437
v 42.364763 0.000000 2.015437
v 42.364763 0.000000 5.207603
v -20.093027 207.031677 0.706554
v -20.093027 207.031677 -0.706554
v -20.093027 0.000000 -0.706554
v -20.093027 0.000000 0.706554
v -82.550800 211.103058 5.444207
v -82.550800 211.103058 2.015437
v -82.550800 0.000000 2.015437
v -82.550800 0.000000 5.444207
vt 0.992890 0.004883
vt 0.995117 0.004883
vt 0.995117 0.334618
vt 0.992890 0.334618
vt 0.497422 0.004883
vt 0.499649 0.004883
vt 0.499649 0.323266
vt 0.497422 0.323266
vt 0.514607 0.381065
vt 0.415138 0.388531
vt 0.415138 0.383127
vt 0.514607 0.378837
vt 0.316496 0.381065
vt 0.316496 0.378837
vt 0.217854 0.388158
vt 0.217854 0.383127
vt 0.119297 0.381065
vt 0.119297 0.378837
vt 0.020844 0.381065
vt 0.020844 0.378837
vt 0.502876 0.345687
vt 0.601309 0.349977
vt 0.601309 0.355380
vt 0.502876 0.347914
vt 0.699743 0.345687
vt 0.699743 0.347914
vt 0.798176 0.349977
vt 0.798176 0.355007
vt 0.896609 0.345687
vt 0.896609 0.347914
vt 0.995042 0.345687
vt 0.995042 0.347914
vt 0.598365 0.004883
vt 0.598365 0.337580
vt 0.697080 0.004883
vt 0.697080 0.331163
vt 0.795769 0.004883
vt 0.795769 0.337580
vt 0.894457 0.004883
vt 0.894457 0.332644
vt 0.398895 0.337580
vt 0.398895 0.004883
vt 0.300369 0.331163
vt 0.300369 0.004883
vt 0.201842 0.337580
vt 0.201842 0.004883
vt 0.103316 0.332644
vt 0.103316 0.004883
vt 0.004883 0.334618
vt 0.004883 0.004883
vn -0.075636 0.000000 0.997135
vn 0.000457 0.000000 1.000000
vn 0.006163 0.000000 0.999981
vn -0.075636 0.000000 0.997135
vn -0.143902 0.989592 0.000000
vn -0.040486 0.999180 0.000000
vn -0.039888 0.999204 0.000000
vn -0.143902 0.989592 0.000000
vn 0.043540 0.000000 -0.999052
vn -0.003588 0.000000 -0.999994
vn -0.000263 0.000000 -1.000000
vn 0.043540 0.000000 -0.999052
vn 0.000000 -1.000000 0.000000
vn 0.000000 -1.000000 0.000000
vn 0.000000 -1.000000 0.000000
vn 0.000000 -1.000000 0.000000
vn 1.000000 0.000000 0.000000
vn 1.000000 0.000000 0.000000
vn 1.000000 0.000000 0.000000
vn 1.000000 0.000000 0.000000
vn -1.000000 0.000000 0.000000
vn -1.000000 0.000000 0.000000
vn -1.000000 0.000000 0.000000
vn -1.000000 0.000000 0.000000
vn 0.025299 0.999680 0.000000
vn -0.020053 0.999799 0.000000
vn -0.020053 0.999799 0.000000
vn 0.022162 0.999754 0.000000
vn -0.021834 0.000000 -0.999762
vn -0.022353 0.000000 -0.999750
vn 0.000000 0.000000 -1.000000
vn 0.000000 0.000000 -1.000000
vn 0.000000 -1.000000 0.000000
vn 0.000000 -1.000000 0.000000
vn 0.000000 -1.000000 0.000000
vn 0.000000 -1.000000 0.000000
vn 0.036931 0.000000 0.999318
vn 0.036090 0.000000 0.999348
vn -0.000000 0.000000 1.000000
vn -0.000000 0.000000 1.000000
vn -0.007545 0.999972 0.000000
vn -0.007509 0.999972 0.000000
vn -0.000049 0.000000 -1.000000
vn -0.000653 0.000000 -1.000000
vn 0.000000 -1.000000 0.000000
vn 0.000000 -1.000000 0.000000
vn 0.001067 0.000000 1.000000
vn 0.000081 0.000000 1.000000
vn 0.001811 0.999998 0.000000
vn 0.001633 0.999999 0.000000
vn 0.000000 0.000000 -1.000000
vn 0.000000 0.000000 -1.000000
vn 0.000000 -1.000000 0.000000
vn 0.000000 -1.000000 0.000000
vn 0.001887 0.000000 0.999998
vn 0.001894 0.000000 0.999998
s 1
g MetalPlank2
usemtl initialShadingGroup
f 1/6/1 24/33/2 21/34/3 3/7/4
s 2
f 3/9/5 21/10/6 22/11/7 5/12/8
s 3
f 5/8/9 22/41/10 23/42/11 7/5/12
s 4
f 7/21/13 23/22/14 24/23/15 1/24/16
s off
f 2/1/17 8/2/18 6/3/19 4/4/20
f 7/5/21 1/6/22 3/7/23 5/8/24
s 2
f 9/17/25 4/19/26 6/20/27 10/18/28
s 3
f 11/48/29 10/47/30 6/49/31 8/50/32
s 4
f 12/30/33 11/29/34 8/31/35 2/32/36
s 1
f 9/40/37 12/39/38 2/1/39 4/4/40
s 2
f 13/15/41 9/17/25 10/18/28 14/16/42
s 3
f 15/46/43 14/45/44 10/47/30 11/48/29
s 4
f 16/28/45 15/27/46 11/29/34 12/30/33
s 1
f 13/38/47 16/37/48 12/39/38 9/40/37
s 2
f 17/13/49 13/15/41 14/16/42 18/14/50
s 3
f 19/44/51 18/43/52 14/45/44 15/46/43
s 4
f 20/26/53 19/25/54 15/27/46 16/28/45
s 1
f 17/36/55 20/35/56 16/37/48 13/38/47
s 2
f 21/10/6 17/13/49 18/14/50 22/11/7
s 3
f 23/42/11 22/41/10 18/43/52 19/44/51
s 4
f 24/23/15 23/22/14 19/25/54 20/26/53
s 1
f 21/34/3 24/33/2 20/35/56 17/36/55
