# This file uses centimeters as units for non-parametric coordinates.

mtllib Pipe3.mtl
g default
v -110.129547 40.383659 36.712433
v -110.129547 47.545883 36.007015
v -110.129547 54.432884 33.917866
v -110.129547 60.779976 30.525272
v -110.129547 66.343246 25.959614
v -110.129547 70.908905 20.396336
v -110.129547 74.301506 14.049242
v -110.129547 76.390656 7.162241
v -110.129547 77.096069 0.000001
v -110.129547 40.383659 -36.712429
v -110.129547 47.545883 -36.007011
v -110.129547 54.432884 -33.917862
v -110.129547 60.779976 -30.525269
v -110.129547 66.343246 -25.959606
v -110.129547 70.908905 -20.396332
v -110.129547 74.301506 -14.049238
v -110.129547 76.390656 -7.162239
v -110.129547 40.383659 40.383675
v -110.129547 48.262108 39.607712
v -110.129547 55.837807 37.309647
v -110.129547 62.819611 33.577801
v -110.129547 68.939209 28.555573
v -110.129547 73.961441 22.435970
v -110.129547 77.693291 15.454166
v -110.129547 79.991356 7.878465
v -110.129547 80.767319 0.000001
v -110.129547 40.383659 -40.383675
v -110.129547 48.262108 -39.607712
v -110.129547 55.837807 -37.309647
v -110.129547 62.819611 -33.577797
v -110.129547 68.939209 -28.555569
v -110.129547 73.961441 -22.435966
v -110.129547 77.693291 -15.454163
v -110.129547 79.991356 -7.878463
v -123.896698 40.383659 40.383675
v -123.896729 48.262108 39.607712
v -123.896729 55.837807 37.309647
v -123.896729 62.819611 33.577801
v -123.896729 68.939209 28.555573
v -123.896729 73.961441 22.435970
v -123.896729 77.693291 15.454166
v -123.896729 79.991356 7.878465
v -123.896729 80.767319 0.000001
v -123.896729 40.383659 -40.383675
v -123.896729 48.262108 -39.607712
v -123.896729 55.837807 -37.309647
v -123.896729 62.819611 -33.577797
v -123.896729 68.939209 -28.555569
v -123.896729 73.961441 -22.435966
v -123.896729 77.693291 -15.454163
v -123.896729 79.991356 -7.878463
v -123.896698 40.383659 26.022938
v -123.896729 45.460480 25.522911
v -123.896729 50.342209 24.042057
v -123.896729 54.841232 21.637280
v -123.896729 58.784653 18.400995
v -123.896729 62.020939 14.457571
v -123.896729 64.425720 9.958549
v -123.896729 65.906570 5.076822
v -123.896729 66.406601 0.000001
v -123.896729 40.383659 -26.022934
v -123.896729 45.460480 -25.522907
v -123.896729 50.342209 -24.042053
v -123.896729 54.841228 -21.637276
v -123.896729 58.784653 -18.400991
v -123.896729 62.020939 -14.457565
v -123.896729 64.425720 -9.958546
v -123.896729 65.906570 -5.076819
v -110.129547 33.221436 36.007015
v -110.129547 26.334438 33.917866
v -110.129547 19.987343 30.525272
v -110.129547 14.424072 25.959614
v -110.129547 9.858406 20.396336
v -110.129547 6.465813 14.049242
v -110.129547 4.376663 7.162241
v -110.129547 3.671249 0.000001
v -110.129547 33.221436 -36.007011
v -110.129547 26.334438 -33.917862
v -110.129547 19.987343 -30.525269
v -110.129547 14.424072 -25.959606
v -110.129547 9.858406 -20.396332
v -110.129547 6.465813 -14.049238
v -110.129547 4.376663 -7.162239
v -110.129547 32.505211 39.607712
v -110.129547 24.929512 37.309647
v -110.129547 17.947708 33.577801
v -110.129547 11.828110 28.555573
v -110.129547 6.805878 22.435970
v -110.129547 3.074028 15.454166
v -110.129547 0.775963 7.878465
v -110.129547 0.000000 0.000001
v -110.129547 32.505211 -39.607712
v -110.129547 24.929512 -37.309647
v -110.129547 17.947708 -33.577797
v -110.129547 11.828110 -28.555569
v -110.129547 6.805878 -22.435966
v -110.129547 3.074028 -15.454163
v -110.129547 0.775963 -7.878463
v -123.896729 32.505211 39.607712
v -123.896729 24.929512 37.309647
v -123.896729 17.947708 33.577801
v -123.896729 11.828110 28.555573
v -123.896729 6.805878 22.435970
v -123.896729 3.074028 15.454166
v -123.896729 0.775963 7.878465
v -123.896729 0.000000 0.000001
v -123.896729 32.505211 -39.607712
v -123.896729 24.929512 -37.309647
v -123.896729 17.947708 -33.577797
v -123.896729 11.828110 -28.555569
v -123.896729 6.805878 -22.435966
v -123.896729 3.074028 -15.454163
v -123.896729 0.775963 -7.878463
v -123.896729 35.306839 25.522911
v -123.896729 30.425114 24.042057
v -123.896729 25.926086 21.637280
v -123.896729 21.982662 18.400995
v -123.896729 18.746376 14.457571
v -123.896729 16.341606 9.958549
v -123.896729 14.860748 5.076822
v -123.896729 14.360725 0.000001
v -123.896729 35.306835 -25.522907
v -123.896729 30.425114 -24.042053
v -123.896729 25.926090 -21.637276
v -123.896729 21.982666 -18.400991
v -123.896729 18.746376 -14.457565
v -123.896729 16.341606 -9.958546
v -123.896729 14.860748 -5.076819
v 110.129547 40.383659 36.712433
v 110.129547 47.545883 36.007015
v 110.129547 54.432884 33.917866
v 110.129547 60.779976 30.525272
v 110.129547 66.343246 25.959614
v 110.129547 70.908905 20.396336
v 110.129547 74.301506 14.049242
v 110.129547 76.390656 7.162241
v 110.129547 77.096069 0.000001
v 110.129547 40.383659 -36.712429
v 110.129547 47.545883 -36.007011
v 110.129547 54.432884 -33.917862
v 110.129547 60.779976 -30.525269
v 110.129547 66.343246 -25.959606
v 110.129547 70.908905 -20.396332
v 110.129547 74.301506 -14.049238
v 110.129547 76.390656 -7.162239
v 110.129547 40.383659 40.383675
v 110.129547 48.262108 39.607712
v 110.129547 55.837807 37.309647
v 110.129547 62.819611 33.577801
v 110.129547 68.939209 28.555573
v 110.129547 73.961441 22.435970
v 110.129547 77.693291 15.454166
v 110.129547 79.991356 7.878465
v 110.129547 80.767319 0.000001
v 110.129547 40.383659 -40.383675
v 110.129547 48.262108 -39.607712
v 110.129547 55.837807 -37.309647
v 110.129547 62.819611 -33.577797
v 110.129547 68.939209 -28.555569
v 110.129547 73.961441 -22.435966
v 110.129547 77.693291 -15.454163
v 110.129547 79.991356 -7.878463
v 123.896698 40.383659 40.383675
v 123.896713 48.262108 39.607712
v 123.896713 55.837807 37.309647
v 123.896713 62.819611 33.577801
v 123.896713 68.939209 28.555573
v 123.896713 73.961441 22.435970
v 123.896713 77.693291 15.454166
v 123.896713 79.991356 7.878465
v 123.896713 80.767319 0.000001
v 123.896713 40.383659 -40.383675
v 123.896713 48.262108 -39.607712
v 123.896713 55.837807 -37.309647
v 123.896713 62.819611 -33.577797
v 123.896713 68.939209 -28.555569
v 123.896713 73.961441 -22.435966
v 123.896713 77.693291 -15.454163
v 123.896713 79.991356 -7.878463
v 123.896698 40.383659 26.022938
v 123.896713 45.460480 25.522911
v 123.896713 50.342209 24.042057
v 123.896713 54.841232 21.637280
v 123.896713 58.784653 18.400995
v 123.896713 62.020939 14.457571
v 123.896713 64.425720 9.958549
v 123.896713 65.906570 5.076822
v 123.896713 66.406601 0.000001
v 123.896713 40.383659 -26.022934
v 123.896713 45.460480 -25.522907
v 123.896713 50.342209 -24.042053
v 123.896713 54.841228 -21.637276
v 123.896713 58.784653 -18.400991
v 123.896713 62.020939 -14.457565
v 123.896713 64.425720 -9.958546
v 123.896713 65.906570 -5.076819
v 110.129547 33.221436 36.007015
v 110.129547 26.334438 33.917866
v 110.129547 19.987343 30.525272
v 110.129547 14.424072 25.959614
v 110.129547 9.858406 20.396336
v 110.129547 6.465813 14.049242
v 110.129547 4.376663 7.162241
v 110.129547 3.671249 0.000001
v 110.129547 33.221436 -36.007011
v 110.129547 26.334438 -33.917862
v 110.129547 19.987343 -30.525269
v 110.129547 14.424072 -25.959606
v 110.129547 9.858406 -20.396332
v 110.129547 6.465813 -14.049238
v 110.129547 4.376663 -7.162239
v 110.129547 32.505211 39.607712
v 110.129547 24.929512 37.309647
v 110.129547 17.947708 33.577801
v 110.129547 11.828110 28.555573
v 110.129547 6.805878 22.435970
v 110.129547 3.074028 15.454166
v 110.129547 0.775963 7.878465
v 110.129547 0.000000 0.000001
v 110.129547 32.505211 -39.607712
v 110.129547 24.929512 -37.309647
v 110.129547 17.947708 -33.577797
v 110.129547 11.828110 -28.555569
v 110.129547 6.805878 -22.435966
v 110.129547 3.074028 -15.454163
v 110.129547 0.775963 -7.878463
v 123.896713 32.505211 39.607712
v 123.896713 24.929512 37.309647
v 123.896713 17.947708 33.577801
v 123.896713 11.828110 28.555573
v 123.896713 6.805878 22.435970
v 123.896713 3.074028 15.454166
v 123.896713 0.775963 7.878465
v 123.896713 0.000000 0.000001
v 123.896713 32.505211 -39.607712
v 123.896713 24.929512 -37.309647
v 123.896713 17.947708 -33.577797
v 123.896713 11.828110 -28.555569
v 123.896713 6.805878 -22.435966
v 123.896713 3.074028 -15.454163
v 123.896713 0.775963 -7.878463
v 123.896713 35.306839 25.522911
v 123.896713 30.425114 24.042057
v 123.896713 25.926086 21.637280
v 123.896713 21.982662 18.400995
v 123.896713 18.746376 14.457571
v 123.896713 16.341606 9.958549
v 123.896713 14.860748 5.076822
v 123.896713 14.360725 0.000001
v 123.896713 35.306835 -25.522907
v 123.896713 30.425114 -24.042053
v 123.896713 25.926090 -21.637276
v 123.896713 21.982666 -18.400991
v 123.896713 18.746376 -14.457565
v 123.896713 16.341606 -9.958546
v 123.896713 14.860748 -5.076819
vt 0.111571 0.710038
vt 0.139361 0.710037
vt 0.097533 0.709835
vt 0.153398 0.709833
vt 0.083237 0.709406
vt 0.167693 0.709401
vt 0.068588 0.708691
vt 0.182340 0.708681
vt 0.053493 0.707616
vt 0.197433 0.707600
vt 0.037884 0.706136
vt 0.213040 0.706110
vt 0.021765 0.704375
vt 0.005347 0.703169
vt 0.229158 0.704335
vt 0.245575 0.703111
vt 0.125462 0.701932
vt 0.111668 0.701822
vt 0.139256 0.701821
vt 0.097749 0.701611
vt 0.153174 0.701609
vt 0.083589 0.701192
vt 0.167333 0.701187
vt 0.069084 0.700492
vt 0.181835 0.700483
vt 0.054125 0.699435
vt 0.196792 0.699420
vt 0.038586 0.697960
vt 0.212327 0.697936
vt 0.022299 0.696138
vt 0.228613 0.696100
vt 0.004883 0.694563
vt 0.246027 0.694505
vt 0.125452 0.671038
vt 0.112259 0.670747
vt 0.138646 0.670746
vt 0.098999 0.670502
vt 0.151904 0.670500
vt 0.085600 0.670155
vt 0.165300 0.670152
vt 0.071958 0.669608
vt 0.178937 0.669603
vt 0.057936 0.668757
vt 0.192953 0.668748
vt 0.043348 0.667452
vt 0.207535 0.667438
vt 0.027949 0.665432
vt 0.222927 0.665409
vt 0.011520 0.662134
vt 0.239349 0.662094
vt 0.101427 0.637434
vt 0.149479 0.637433
vt 0.113434 0.637433
vt 0.137471 0.637432
vt 0.089441 0.637317
vt 0.161461 0.637316
vt 0.125450 0.637303
vt 0.173404 0.637083
vt 0.077492 0.637084
vt 0.185290 0.636725
vt 0.065596 0.636725
vt 0.197094 0.636216
vt 0.053776 0.636216
vt 0.208783 0.635503
vt 0.042064 0.635502
vt 0.220304 0.634473
vt 0.030507 0.634473
vt 0.769520 0.576885
vt 0.753406 0.576885
vt 0.737292 0.576885
vt 0.995117 0.576885
vt 0.979003 0.576885
vt 0.962889 0.576885
vt 0.946775 0.576885
vt 0.930661 0.576885
vt 0.914547 0.576885
vt 0.898433 0.576885
vt 0.882319 0.576885
vt 0.866205 0.576885
vt 0.850091 0.576885
vt 0.833977 0.576885
vt 0.817862 0.576885
vt 0.801748 0.576885
vt 0.785634 0.576885
vt 0.220402 0.080447
vt 0.030605 0.080446
vt 0.208845 0.079418
vt 0.042126 0.079416
vt 0.197133 0.078704
vt 0.053815 0.078703
vt 0.185313 0.078195
vt 0.065619 0.078195
vt 0.173417 0.077836
vt 0.077505 0.077836
vt 0.125459 0.077617
vt 0.089448 0.077603
vt 0.161468 0.077603
vt 0.113438 0.077488
vt 0.137475 0.077487
vt 0.101430 0.077487
vt 0.149482 0.077486
vt 0.011560 0.052824
vt 0.239390 0.052786
vt 0.027983 0.049510
vt 0.222960 0.049488
vt 0.043375 0.047481
vt 0.207561 0.047468
vt 0.057956 0.046171
vt 0.192973 0.046163
vt 0.071972 0.045316
vt 0.178951 0.045312
vt 0.085610 0.044767
vt 0.165309 0.044765
vt 0.099006 0.044420
vt 0.151910 0.044419
vt 0.112264 0.044174
vt 0.138651 0.044173
vt 0.125457 0.043882
vt 0.004883 0.020414
vt 0.246026 0.020357
vt 0.022297 0.018819
vt 0.228610 0.018782
vt 0.038583 0.016982
vt 0.212323 0.016960
vt 0.054118 0.015499
vt 0.196785 0.015485
vt 0.069075 0.014435
vt 0.181825 0.014428
vt 0.083578 0.013733
vt 0.167321 0.013729
vt 0.097736 0.013311
vt 0.153161 0.013309
vt 0.111655 0.013099
vt 0.139242 0.013098
vt 0.125448 0.012989
vt 0.005336 0.011808
vt 0.021752 0.010583
vt 0.245562 0.011751
vt 0.229144 0.010545
vt 0.037870 0.008808
vt 0.213025 0.008785
vt 0.053477 0.007319
vt 0.197416 0.007304
vt 0.068570 0.006237
vt 0.182321 0.006230
vt 0.083218 0.005519
vt 0.167672 0.005515
vt 0.097513 0.005087
vt 0.153377 0.005085
vt 0.111550 0.004884
vt 0.139339 0.004883
vt 0.125445 0.004955
vt 0.371577 0.004883
vt 0.385330 0.005129
vt 0.357823 0.005130
vt 0.399122 0.005360
vt 0.344032 0.005362
vt 0.413113 0.005716
vt 0.330043 0.005721
vt 0.427439 0.006272
vt 0.315719 0.006281
vt 0.442205 0.007094
vt 0.300956 0.007111
vt 0.457464 0.008184
vt 0.285699 0.008214
vt 0.489043 0.009400
vt 0.473169 0.009307
vt 0.269995 0.009354
vt 0.254121 0.009470
vt 0.371581 0.013298
vt 0.385234 0.013369
vt 0.357928 0.013370
vt 0.398971 0.013584
vt 0.344193 0.013586
vt 0.412894 0.013936
vt 0.330272 0.013940
vt 0.427136 0.014483
vt 0.316033 0.014492
vt 0.441827 0.015291
vt 0.301345 0.015307
vt 0.457103 0.016366
vt 0.286073 0.016394
vt 0.473113 0.017490
vt 0.490021 0.017800
vt 0.270065 0.017535
vt 0.253157 0.017870
vt 0.371591 0.044795
vt 0.384556 0.044566
vt 0.358627 0.044566
vt 0.397630 0.044646
vt 0.345557 0.044648
vt 0.410888 0.044904
vt 0.332305 0.044906
vt 0.424430 0.045322
vt 0.318769 0.045328
vt 0.438408 0.045945
vt 0.304799 0.045955
vt 0.453049 0.046859
vt 0.290166 0.046877
vt 0.468681 0.048257
vt 0.274542 0.048286
vt 0.485711 0.050661
vt 0.257519 0.050714
vt 0.347509 0.077170
vt 0.395674 0.077169
vt 0.359540 0.076923
vt 0.383635 0.076923
vt 0.335503 0.077462
vt 0.407690 0.077461
vt 0.371584 0.076696
vt 0.323536 0.077823
vt 0.419667 0.077821
vt 0.311630 0.078275
vt 0.431588 0.078274
vt 0.299808 0.078853
vt 0.443429 0.078852
vt 0.288108 0.079607
vt 0.455154 0.079607
vt 0.276580 0.080624
vt 0.466717 0.080627
vt 0.995117 0.083718
vt 0.979003 0.083718
vt 0.962889 0.083718
vt 0.946775 0.083718
vt 0.930661 0.083718
vt 0.914547 0.083718
vt 0.898433 0.083718
vt 0.882319 0.083718
vt 0.866205 0.083718
vt 0.850091 0.083718
vt 0.833977 0.083718
vt 0.817862 0.083718
vt 0.801748 0.083718
vt 0.785634 0.083718
vt 0.769520 0.083718
vt 0.753406 0.083718
vt 0.737292 0.083718
vt 0.472466 0.083207
vt 0.488580 0.083207
vt 0.504694 0.083207
vt 0.520808 0.083207
vt 0.536922 0.083207
vt 0.553036 0.083207
vt 0.569151 0.083207
vt 0.585265 0.083207
vt 0.601379 0.083207
vt 0.617493 0.083207
vt 0.633607 0.083207
vt 0.649721 0.083207
vt 0.665835 0.083207
vt 0.681949 0.083207
vt 0.698063 0.083207
vt 0.714177 0.083207
vt 0.730291 0.083207
vt 0.276460 0.634229
vt 0.466598 0.634230
vt 0.288023 0.635249
vt 0.455070 0.635248
vt 0.299749 0.636004
vt 0.443369 0.636002
vt 0.311589 0.636582
vt 0.431548 0.636580
vt 0.323510 0.637035
vt 0.419641 0.637033
vt 0.371594 0.638160
vt 0.335488 0.637395
vt 0.407675 0.637393
vt 0.359543 0.637933
vt 0.383637 0.637932
vt 0.347504 0.637687
vt 0.395669 0.637686
vt 0.485660 0.664139
vt 0.257467 0.664194
vt 0.468637 0.666567
vt 0.274497 0.666599
vt 0.453013 0.667977
vt 0.290129 0.667997
vt 0.438380 0.668900
vt 0.304770 0.668912
vt 0.424409 0.669527
vt 0.318748 0.669534
vt 0.410874 0.669949
vt 0.332290 0.669952
vt 0.397621 0.670208
vt 0.345548 0.670210
vt 0.384551 0.670290
vt 0.358622 0.670290
vt 0.371587 0.670061
vt 0.490023 0.696982
vt 0.473115 0.697318
vt 0.253157 0.697056
vt 0.270065 0.697366
vt 0.457107 0.698459
vt 0.286075 0.698490
vt 0.441835 0.699547
vt 0.301351 0.699566
vt 0.427146 0.700363
vt 0.316043 0.700374
vt 0.412908 0.700915
vt 0.330284 0.700921
vt 0.398987 0.701269
vt 0.344208 0.701272
vt 0.385251 0.701486
vt 0.357945 0.701487
vt 0.371598 0.701558
vt 0.489059 0.705382
vt 0.473185 0.705500
vt 0.270009 0.705549
vt 0.254135 0.705455
vt 0.457482 0.706640
vt 0.285714 0.706672
vt 0.442224 0.707743
vt 0.300973 0.707763
vt 0.427461 0.708573
vt 0.315739 0.708585
vt 0.413137 0.709134
vt 0.330065 0.709141
vt 0.399148 0.709493
vt 0.344057 0.709496
vt 0.385357 0.709726
vt 0.357849 0.709728
vt 0.371603 0.709973
vt 0.472466 0.576374
vt 0.488580 0.576374
vt 0.504694 0.576374
vt 0.520808 0.576374
vt 0.536922 0.576374
vt 0.553036 0.576374
vt 0.569151 0.576374
vt 0.585265 0.576374
vt 0.601379 0.576374
vt 0.617493 0.576374
vt 0.633607 0.576374
vt 0.649721 0.576374
vt 0.665835 0.576374
vt 0.681949 0.576374
vt 0.698063 0.576374
vt 0.714177 0.576374
vt 0.730291 0.576374
vt 0.125466 0.709966
vn 1.000000 0.000000 -0.000001
vn 1.000000 0.000000 -0.000001
vn 1.000000 0.000000 -0.000001
vn 1.000000 0.000000 -0.000001
vn 1.000000 0.000000 0.000000
vn 1.000000 0.000000 -0.000001
vn 1.000000 0.000000 -0.000001
vn 1.000000 0.000000 -0.000000
vn 1.000000 0.000000 -0.000001
vn 1.000000 0.000000 0.000000
vn 1.000000 0.000000 -0.000000
vn 1.000000 0.000000 -0.000001
vn 1.000000 0.000000 -0.000000
vn 1.000000 0.000000 -0.000001
vn 1.000000 0.000000 -0.000001
vn 1.000000 0.000000 -0.000000
vn 1.000000 0.000000 -0.000000
vn 1.000000 0.000000 -0.000000
vn 1.000000 0.000000 -0.000000
vn 1.000000 0.000000 0.000000
vn 1.000000 0.000000 0.000000
vn 1.000000 0.000001 0.000000
vn 1.000000 0.000001 0.000000
vn 1.000000 0.000000 0.000000
vn 1.000000 0.000001 0.000000
vn 1.000000 0.000000 0.000000
vn 1.000000 0.000000 0.000000
vn 1.000000 0.000001 0.000000
vn 1.000000 0.000000 0.000000
vn 1.000000 0.000000 0.000000
vn 1.000000 0.000000 0.000000
vn 1.000000 0.000000 0.000000
vn 1.000000 0.000000 0.000000
vn 1.000000 0.000000 -0.000001
vn 1.000000 0.000000 -0.000001
vn 1.000000 0.000000 0.000000
vn 1.000000 0.000000 -0.000001
vn 1.000000 0.000000 -0.000001
vn 1.000000 0.000000 -0.000001
vn 1.000000 0.000000 -0.000001
vn 1.000000 0.000000 -0.000001
vn 1.000000 0.000000 0.000000
vn 1.000000 0.000000 0.000000
vn 1.000000 0.000000 -0.000001
vn 1.000000 0.000000 0.000000
vn 1.000000 0.000000 0.000000
vn 1.000000 0.000000 0.000000
vn 1.000000 0.000000 0.000000
vn 1.000000 0.000000 0.000000
vn 1.000000 0.000000 -0.000000
vn 1.000000 0.000000 0.000000
vn 1.000000 0.000000 0.000000
vn 1.000000 0.000000 0.000000
vn 1.000000 0.000000 0.000000
vn 1.000000 0.000000 0.000000
vn 1.000000 0.000000 0.000000
vn 1.000000 0.000000 0.000000
vn 1.000000 0.000000 0.000000
vn 1.000000 0.000000 0.000000
vn 1.000000 0.000000 0.000000
vn 1.000000 0.000000 -0.000001
vn 1.000000 0.000000 0.000000
vn 1.000000 0.000000 0.000000
vn 1.000000 0.000000 -0.000001
vn 0.000000 0.195091 0.980785
vn 0.000000 0.382683 0.923880
vn 0.000000 0.382683 0.923880
vn 0.000000 0.195091 0.980785
vn 0.000000 0.382683 0.923880
vn 0.000000 0.555570 0.831470
vn 0.000000 0.555570 0.831470
vn 0.000000 0.382683 0.923880
vn 0.000000 0.195091 -0.980785
vn 0.000000 0.000000 -1.000000
vn 0.000000 0.000000 -1.000000
vn 0.000000 0.195091 -0.980785
vn 0.000000 0.555570 0.831470
vn 0.000000 0.707107 0.707107
vn 0.000000 0.707107 0.707107
vn 0.000000 0.555570 0.831470
vn 0.000000 0.382684 -0.923879
vn 0.000000 0.195091 -0.980785
vn 0.000000 0.195091 -0.980785
vn 0.000000 0.382684 -0.923879
vn 0.000000 0.707107 0.707107
vn 0.000000 0.831470 0.555570
vn 0.000000 0.831470 0.555570
vn 0.000000 0.707107 0.707107
vn 0.000000 0.555571 -0.831469
vn 0.000000 0.382684 -0.923879
vn 0.000000 0.382684 -0.923879
vn 0.000000 0.555571 -0.831469
vn 0.000000 0.831470 0.555570
vn 0.000000 0.923880 0.382683
vn 0.000000 0.923880 0.382683
vn 0.000000 0.831470 0.555570
vn 0.000000 0.707107 -0.707107
vn 0.000000 0.555571 -0.831469
vn 0.000000 0.555571 -0.831469
vn 0.000000 0.707107 -0.707107
vn 0.000000 0.923880 0.382683
vn 0.000000 0.980785 0.195091
vn 0.000000 0.980785 0.195091
vn 0.000000 0.923880 0.382683
vn 0.000000 0.831470 -0.555570
vn 0.000000 0.707107 -0.707107
vn 0.000000 0.707107 -0.707107
vn 0.000000 0.831470 -0.555570
vn 0.000000 0.980785 0.195091
vn 0.000000 1.000000 -0.000000
vn 0.000000 1.000000 -0.000000
vn 0.000000 0.980785 0.195091
vn 0.000000 0.923880 -0.382683
vn 0.000000 0.831470 -0.555570
vn 0.000000 0.831470 -0.555570
vn 0.000000 0.923880 -0.382683
vn 0.000000 0.980785 -0.195091
vn 0.000000 0.923880 -0.382683
vn 0.000000 0.923880 -0.382683
vn 0.000000 0.980785 -0.195091
vn 0.000000 1.000000 -0.000000
vn 0.000000 0.980785 -0.195091
vn 0.000000 0.980785 -0.195091
vn 0.000000 1.000000 -0.000000
vn 0.000000 -0.000000 1.000000
vn 0.000000 0.195091 0.980785
vn 0.000000 0.195091 0.980785
vn 0.000000 -0.000000 1.000000
vn -1.000000 0.000000 0.000001
vn -1.000000 -0.000001 0.000001
vn -1.000000 -0.000001 0.000001
vn -1.000000 0.000000 0.000001
vn -1.000000 -0.000001 0.000001
vn -1.000000 0.000000 0.000000
vn -1.000000 0.000000 0.000000
vn -1.000000 -0.000001 0.000001
vn -1.000000 0.000000 0.000000
vn -1.000000 0.000000 0.000000
vn -1.000000 0.000000 0.000000
vn -1.000000 0.000000 0.000000
vn -1.000000 0.000000 0.000000
vn -1.000000 0.000000 0.000001
vn -1.000000 0.000000 0.000001
vn -1.000000 0.000000 0.000000
vn -1.000000 0.000000 0.000001
vn -1.000000 -0.000000 0.000001
vn -1.000000 -0.000000 0.000001
vn -1.000000 0.000000 0.000001
vn -1.000000 -0.000000 0.000001
vn -1.000000 -0.000000 0.000001
vn -1.000000 -0.000000 0.000001
vn -1.000000 -0.000000 0.000001
vn -1.000000 -0.000000 0.000001
vn -1.000000 0.000000 -0.000001
vn -1.000000 0.000000 -0.000001
vn -1.000000 -0.000000 0.000001
vn -1.000000 0.000000 -0.000001
vn -1.000000 0.000000 0.000000
vn -1.000000 0.000000 0.000000
vn -1.000000 0.000000 -0.000001
vn -1.000000 0.000000 -0.000000
vn -1.000000 0.000000 0.000000
vn -1.000000 0.000000 0.000000
vn -1.000000 0.000000 -0.000000
vn -1.000000 0.000000 -0.000000
vn -1.000000 0.000000 -0.000000
vn -1.000000 0.000000 -0.000000
vn -1.000000 0.000000 -0.000000
vn -1.000000 0.000000 0.000000
vn -1.000000 0.000000 -0.000000
vn -1.000000 0.000000 -0.000000
vn -1.000000 0.000000 0.000000
vn -1.000000 0.000000 0.000000
vn -1.000000 0.000000 0.000000
vn -1.000000 0.000000 0.000000
vn -1.000000 0.000000 -0.000000
vn -1.000000 0.000000 -0.000001
vn -1.000000 0.000000 0.000000
vn -1.000000 0.000000 -0.000000
vn -1.000000 0.000000 -0.000001
vn -1.000000 0.000000 -0.000001
vn -1.000000 0.000000 -0.000001
vn -1.000000 0.000000 -0.000001
vn -1.000000 0.000000 -0.000001
vn -1.000000 0.000000 0.000001
vn -1.000000 0.000000 -0.000001
vn -1.000000 0.000000 -0.000001
vn -1.000000 0.000000 0.000001
vn -1.000000 0.000000 0.000000
vn -1.000000 0.000000 0.000001
vn -1.000000 0.000000 0.000001
vn -1.000000 0.000000 0.000000
vn 1.000000 0.000000 0.000000
vn 1.000000 0.000000 -0.000000
vn 1.000000 0.000000 -0.000000
vn 1.000000 0.000000 -0.000000
vn 1.000000 0.000000 0.000000
vn 1.000000 0.000000 -0.000000
vn 1.000000 0.000000 -0.000000
vn 1.000000 0.000000 0.000000
vn 1.000000 0.000000 -0.000001
vn 1.000000 0.000000 -0.000001
vn 1.000000 0.000000 -0.000000
vn 1.000000 0.000000 0.000000
vn 1.000000 0.000000 -0.000001
vn 1.000000 0.000000 -0.000001
vn 1.000000 0.000000 -0.000001
vn 1.000000 0.000000 -0.000001
vn 1.000000 0.000000 -0.000001
vn 1.000000 0.000000 -0.000001
vn 1.000000 0.000000 -0.000001
vn 1.000000 0.000000 -0.000001
vn 1.000000 0.000000 0.000000
vn 1.000000 0.000000 0.000000
vn 1.000000 -0.000001 0.000001
vn 1.000000 -0.000001 0.000001
vn 1.000000 -0.000001 0.000001
vn 1.000000 -0.000001 0.000001
vn 1.000000 0.000000 0.000001
vn 1.000000 0.000000 0.000001
vn 1.000000 0.000000 0.000001
vn 1.000000 0.000000 0.000001
vn 1.000000 0.000000 0.000001
vn 1.000000 0.000000 0.000001
vn 1.000000 0.000000 0.000001
vn 1.000000 0.000000 0.000001
vn 1.000000 0.000000 -0.000000
vn 1.000000 0.000000 -0.000000
vn 1.000000 0.000000 -0.000000
vn 1.000000 0.000000 -0.000000
vn 1.000000 -0.000000 -0.000001
vn 1.000000 -0.000000 -0.000001
vn 1.000000 -0.000000 -0.000001
vn 1.000000 -0.000000 -0.000001
vn 1.000000 -0.000000 0.000000
vn 1.000000 -0.000000 0.000000
vn 1.000000 -0.000000 0.000000
vn 1.000000 -0.000000 0.000000
vn 1.000000 0.000000 0.000000
vn 1.000000 0.000000 0.000000
vn 1.000000 0.000000 0.000000
vn 1.000000 0.000000 0.000000
vn 1.000000 0.000000 -0.000001
vn 1.000000 0.000000 -0.000001
vn 1.000000 0.000000 0.000000
vn 1.000000 0.000000 0.000000
vn 1.000000 0.000000 0.000000
vn 1.000000 0.000000 0.000000
vn 1.000000 0.000000 0.000001
vn 1.000000 0.000000 0.000001
vn 1.000000 0.000000 0.000000
vn 1.000000 0.000000 0.000000
vn 1.000000 0.000000 -0.000000
vn 1.000000 0.000000 -0.000000
vn 1.000000 0.000000 0.000001
vn 1.000000 0.000000 0.000001
vn 0.000000 -0.195091 0.980785
vn 0.000000 -0.195091 0.980785
vn 0.000000 -0.382683 0.923880
vn 0.000000 -0.382683 0.923880
vn 0.000000 -0.382683 0.923880
vn 0.000000 -0.382683 0.923880
vn 0.000000 -0.555570 0.831470
vn 0.000000 -0.555570 0.831470
vn 0.000000 -0.195091 -0.980785
vn 0.000000 -0.195091 -0.980785
vn 0.000000 0.000000 -1.000000
vn 0.000000 0.000000 -1.000000
vn 0.000000 -0.555570 0.831470
vn 0.000000 -0.555570 0.831470
vn 0.000000 -0.707107 0.707107
vn 0.000000 -0.707107 0.707107
vn 0.000000 -0.382684 -0.923879
vn 0.000000 -0.382684 -0.923879
vn 0.000000 -0.195091 -0.980785
vn 0.000000 -0.195091 -0.980785
vn 0.000000 -0.707107 0.707107
vn 0.000000 -0.707107 0.707107
vn 0.000000 -0.831470 0.555570
vn 0.000000 -0.831470 0.555570
vn 0.000000 -0.555571 -0.831469
vn 0.000000 -0.555571 -0.831469
vn 0.000000 -0.382684 -0.923879
vn 0.000000 -0.382684 -0.923879
vn 0.000000 -0.831470 0.555570
vn 0.000000 -0.831470 0.555570
vn 0.000000 -0.923880 0.382683
vn 0.000000 -0.923880 0.382683
vn 0.000000 -0.707107 -0.707107
vn 0.000000 -0.707107 -0.707107
vn 0.000000 -0.555571 -0.831469
vn 0.000000 -0.555571 -0.831469
vn 0.000000 -0.923880 0.382683
vn 0.000000 -0.923880 0.382683
vn 0.000000 -0.980785 0.195091
vn 0.000000 -0.980785 0.195091
vn 0.000000 -0.831470 -0.555570
vn 0.000000 -0.831470 -0.555570
vn 0.000000 -0.707107 -0.707107
vn 0.000000 -0.707107 -0.707107
vn 0.000000 -0.980785 0.195091
vn 0.000000 -0.980785 0.195091
vn 0.000000 -1.000000 -0.000000
vn 0.000000 -1.000000 -0.000000
vn 0.000000 -0.923880 -0.382683
vn 0.000000 -0.923880 -0.382683
vn 0.000000 -0.831470 -0.555570
vn 0.000000 -0.831470 -0.555570
vn 0.000000 -0.980785 -0.195091
vn 0.000000 -0.980785 -0.195091
vn 0.000000 -0.923880 -0.382683
vn 0.000000 -0.923880 -0.382683
vn 0.000000 -1.000000 -0.000000
vn 0.000000 -1.000000 -0.000000
vn 0.000000 -0.980785 -0.195091
vn 0.000000 -0.980785 -0.195091
vn 0.000000 -0.000000 1.000000
vn 0.000000 -0.000000 1.000000
vn 0.000000 -0.195091 0.980785
vn 0.000000 -0.195091 0.980785
vn -1.000000 0.000000 0.000001
vn -1.000000 0.000000 0.000001
vn -1.000000 0.000001 0.000000
vn -1.000000 0.000001 0.000000
vn -1.000000 0.000001 0.000000
vn -1.000000 0.000001 0.000000
vn -1.000000 0.000000 0.000000
vn -1.000000 0.000000 0.000000
vn -1.000000 0.000000 0.000000
vn -1.000000 0.000000 0.000000
vn -1.000000 0.000000 0.000000
vn -1.000000 0.000000 0.000000
vn -1.000000 0.000000 0.000000
vn -1.000000 0.000000 0.000000
vn -1.000000 0.000000 0.000001
vn -1.000000 0.000000 0.000001
vn -1.000000 0.000000 0.000001
vn -1.000000 0.000000 0.000001
vn -1.000000 0.000000 0.000002
vn -1.000000 0.000000 0.000002
vn -1.000000 0.000000 0.000002
vn -1.000000 0.000000 0.000002
vn -1.000000 0.000000 0.000002
vn -1.000000 0.000000 0.000002
vn -1.000000 0.000000 0.000002
vn -1.000000 0.000000 0.000002
vn -1.000000 0.000000 -0.000000
vn -1.000000 0.000000 -0.000000
vn -1.000000 0.000000 -0.000000
vn -1.000000 0.000000 -0.000000
vn -1.000000 0.000000 0.000000
vn -1.000000 0.000000 0.000000
vn -1.000000 0.000000 -0.000000
vn -1.000000 0.000000 -0.000000
vn -1.000000 0.000000 0.000000
vn -1.000000 0.000000 0.000000
vn -1.000000 0.000000 -0.000000
vn -1.000000 0.000000 -0.000000
vn -1.000000 0.000000 -0.000000
vn -1.000000 0.000000 -0.000000
vn -1.000000 0.000000 0.000000
vn -1.000000 0.000000 0.000000
vn -1.000000 0.000000 -0.000000
vn -1.000000 0.000000 -0.000000
vn -1.000000 0.000000 -0.000000
vn -1.000000 0.000000 -0.000000
vn -1.000000 0.000000 0.000000
vn -1.000000 0.000000 0.000000
vn -1.000000 0.000000 -0.000001
vn -1.000000 0.000000 -0.000001
vn -1.000000 0.000000 -0.000000
vn -1.000000 0.000000 -0.000000
vn -1.000000 0.000000 -0.000002
vn -1.000000 0.000000 -0.000002
vn -1.000000 0.000000 -0.000001
vn -1.000000 0.000000 -0.000001
vn -1.000000 0.000000 0.000000
vn -1.000000 0.000000 0.000000
vn -1.000000 0.000000 -0.000002
vn -1.000000 0.000000 -0.000002
vn -1.000000 0.000000 0.000000
vn -1.000000 0.000000 0.000000
vn -1.000000 0.000000 0.000000
vn -1.000000 0.000000 0.000000
vn 0.000000 -0.555570 -0.831470
vn 0.000000 -0.707107 -0.707107
vn 0.000000 -0.707107 -0.707107
vn 0.000000 -0.555570 -0.831470
vn 0.000000 -0.707107 0.707107
vn 0.000000 -0.707107 0.707107
vn 0.000000 -0.831470 0.555570
vn 0.000000 -0.831470 0.555570
vn 0.000000 0.000000 1.000000
vn 0.000000 0.000000 1.000000
vn 0.000000 -0.195090 0.980785
vn 0.000000 -0.195090 0.980785
vn 0.000000 0.000000 -1.000000
vn 0.000000 -0.195090 -0.980785
vn 0.000000 -0.195090 -0.980785
vn 0.000000 0.000000 -1.000000
vn 0.000000 -0.831470 -0.555570
vn 0.000000 -0.923880 -0.382684
vn 0.000000 -0.923880 -0.382684
vn 0.000000 -0.831470 -0.555570
vn 0.000000 -0.707107 -0.707107
vn 0.000000 -0.831470 -0.555570
vn 0.000000 -0.831470 -0.555570
vn 0.000000 -0.707107 -0.707107
vn 0.000000 -0.382683 -0.923880
vn 0.000000 -0.555570 -0.831470
vn 0.000000 -0.555570 -0.831470
vn 0.000000 -0.382683 -0.923880
vn 0.000000 -0.195090 -0.980785
vn 0.000000 -0.382683 -0.923880
vn 0.000000 -0.382683 -0.923880
vn 0.000000 -0.195090 -0.980785
vn 0.000000 -0.923880 -0.382684
vn 0.000000 -0.980785 -0.195090
vn 0.000000 -0.980785 -0.195090
vn 0.000000 -0.923880 -0.382684
vn 0.000000 -0.195090 0.980785
vn 0.000000 -0.195090 0.980785
vn 0.000000 -0.382683 0.923880
vn 0.000000 -0.382683 0.923880
vn 0.000000 -0.831470 0.555570
vn 0.000000 -0.831470 0.555570
vn 0.000000 -0.923880 0.382684
vn 0.000000 -0.923880 0.382684
vn 0.000000 -0.555570 0.831470
vn 0.000000 -0.555570 0.831470
vn 0.000000 -0.707107 0.707107
vn 0.000000 -0.707107 0.707107
vn 0.000000 -0.980785 0.195090
vn 0.000000 -0.980785 0.195090
vn 0.000000 -1.000000 -0.000000
vn 0.000000 -1.000000 -0.000000
vn 0.000000 -0.980785 -0.195090
vn 0.000000 -1.000000 -0.000000
vn 0.000000 -1.000000 -0.000000
vn 0.000000 -0.980785 -0.195090
vn 0.000000 -0.382683 0.923880
vn 0.000000 -0.382683 0.923880
vn 0.000000 -0.555570 0.831470
vn 0.000000 -0.555570 0.831470
vn 0.000000 0.923880 0.382684
vn 0.000000 0.980785 0.195090
vn 0.000000 0.980785 0.195090
vn 0.000000 0.923880 0.382684
vn 0.000000 0.555570 -0.831470
vn 0.000000 0.555570 -0.831470
vn 0.000000 0.707107 -0.707107
vn 0.000000 0.707107 -0.707107
vn 0.000000 0.707107 0.707107
vn 0.000000 0.831470 0.555570
vn 0.000000 0.831470 0.555570
vn 0.000000 0.707107 0.707107
vn 0.000000 0.000000 1.000000
vn 0.000000 0.195090 0.980785
vn 0.000000 0.195090 0.980785
vn 0.000000 0.000000 1.000000
vn 0.000000 0.000000 -1.000000
vn 0.000000 0.000000 -1.000000
vn 0.000000 0.195090 -0.980785
vn 0.000000 0.195090 -0.980785
vn 0.000000 0.831470 -0.555570
vn 0.000000 0.831470 -0.555570
vn 0.000000 0.923880 -0.382684
vn 0.000000 0.923880 -0.382684
vn 0.000000 0.707107 -0.707107
vn 0.000000 0.707107 -0.707107
vn 0.000000 0.831470 -0.555570
vn 0.000000 0.831470 -0.555570
vn 0.000000 0.382683 -0.923880
vn 0.000000 0.382683 -0.923880
vn 0.000000 0.555570 -0.831470
vn 0.000000 0.555570 -0.831470
vn 0.000000 0.195090 -0.980785
vn 0.000000 0.195090 -0.980785
vn 0.000000 0.382683 -0.923880
vn 0.000000 0.382683 -0.923880
vn 0.000000 0.923880 -0.382684
vn 0.000000 0.923880 -0.382684
vn 0.000000 0.980785 -0.195090
vn 0.000000 0.980785 -0.195090
vn 0.000000 0.195090 0.980785
vn 0.000000 0.382683 0.923880
vn 0.000000 0.382683 0.923880
vn 0.000000 0.195090 0.980785
vn 0.000000 0.831470 0.555570
vn 0.000000 0.923880 0.382684
vn 0.000000 0.923880 0.382684
vn 0.000000 0.831470 0.555570
vn 0.000000 0.555570 0.831470
vn 0.000000 0.707107 0.707107
vn 0.000000 0.707107 0.707107
vn 0.000000 0.555570 0.831470
vn 0.000000 0.980785 0.195090
vn 0.000000 1.000000 -0.000000
vn 0.000000 1.000000 -0.000000
vn 0.000000 0.980785 0.195090
vn 0.000000 0.980785 -0.195090
vn 0.000000 0.980785 -0.195090
vn 0.000000 1.000000 -0.000000
vn 0.000000 1.000000 -0.000000
vn 0.000000 0.382683 0.923880
vn 0.000000 0.555570 0.831470
vn 0.000000 0.555570 0.831470
vn 0.000000 0.382683 0.923880
vn 0.000000 0.923880 -0.382683
vn 0.000000 0.923880 -0.382683
vn 0.000000 0.980785 -0.195090
vn 0.000000 0.980785 -0.195090
vn 0.000000 0.707107 0.707107
vn 0.000000 0.707107 0.707107
vn 0.000000 0.555570 0.831470
vn 0.000000 0.555570 0.831470
vn 0.000000 0.707107 -0.707107
vn 0.000000 0.707107 -0.707107
vn 0.000000 0.831470 -0.555570
vn 0.000000 0.831470 -0.555570
vn 0.000000 0.000000 -1.000000
vn 0.000000 0.000000 -1.000000
vn 0.000000 0.195090 -0.980785
vn 0.000000 0.195090 -0.980785
vn 0.000000 0.195091 0.980785
vn 0.000000 0.195091 0.980785
vn 0.000000 0.000000 1.000000
vn 0.000000 0.000000 1.000000
vn 0.000000 0.923880 0.382683
vn 0.000000 0.923880 0.382683
vn 0.000000 0.831469 0.555571
vn 0.000000 0.831469 0.555571
vn 0.000000 0.831469 0.555571
vn 0.000000 0.831469 0.555571
vn 0.000000 0.707107 0.707107
vn 0.000000 0.707107 0.707107
vn 0.000000 0.555570 0.831470
vn 0.000000 0.555570 0.831470
vn 0.000000 0.382683 0.923880
vn 0.000000 0.382683 0.923880
vn 0.000000 0.382683 0.923880
vn 0.000000 0.382683 0.923880
vn 0.000000 0.195091 0.980785
vn 0.000000 0.195091 0.980785
vn 0.000000 0.980785 0.195090
vn 0.000000 0.980785 0.195090
vn 0.000000 0.923880 0.382683
vn 0.000000 0.923880 0.382683
vn 0.000000 0.195090 -0.980785
vn 0.000000 0.195090 -0.980785
vn 0.000000 0.382683 -0.923880
vn 0.000000 0.382683 -0.923880
vn 0.000000 0.831470 -0.555570
vn 0.000000 0.831470 -0.555570
vn 0.000000 0.923880 -0.382683
vn 0.000000 0.923880 -0.382683
vn 0.000000 0.555570 -0.831470
vn 0.000000 0.555570 -0.831470
vn 0.000000 0.707107 -0.707107
vn 0.000000 0.707107 -0.707107
vn 0.000000 0.980785 -0.195090
vn 0.000000 0.980785 -0.195090
vn 0.000000 1.000000 0.000000
vn 0.000000 1.000000 0.000000
vn 0.000000 1.000000 0.000000
vn 0.000000 1.000000 0.000000
vn 0.000000 0.980785 0.195090
vn 0.000000 0.980785 0.195090
vn 0.000000 0.382683 -0.923880
vn 0.000000 0.382683 -0.923880
vn 0.000000 0.555570 -0.831470
vn 0.000000 0.555570 -0.831470
vn 0.000000 -0.980785 -0.195090
vn 0.000000 -0.980785 -0.195090
vn 0.000000 -0.923880 -0.382683
vn 0.000000 -0.923880 -0.382683
vn 0.000000 -0.555570 0.831470
vn 0.000000 -0.555570 0.831470
vn 0.000000 -0.707107 0.707107
vn 0.000000 -0.707107 0.707107
vn 0.000000 -0.831470 -0.555570
vn 0.000000 -0.831470 -0.555570
vn 0.000000 -0.707107 -0.707107
vn 0.000000 -0.707107 -0.707107
vn 0.000000 -0.195090 -0.980785
vn 0.000000 -0.195090 -0.980785
vn 0.000000 0.000000 -1.000000
vn 0.000000 0.000000 -1.000000
vn 0.000000 0.000000 1.000000
vn 0.000000 0.000000 1.000000
vn 0.000000 -0.195091 0.980785
vn 0.000000 -0.195091 0.980785
vn 0.000000 -0.831469 0.555571
vn 0.000000 -0.831469 0.555571
vn 0.000000 -0.923880 0.382683
vn 0.000000 -0.923880 0.382683
vn 0.000000 -0.707107 0.707107
vn 0.000000 -0.707107 0.707107
vn 0.000000 -0.831469 0.555571
vn 0.000000 -0.831469 0.555571
vn 0.000000 -0.382683 0.923880
vn 0.000000 -0.382683 0.923880
vn 0.000000 -0.555570 0.831470
vn 0.000000 -0.555570 0.831470
vn 0.000000 -0.195091 0.980785
vn 0.000000 -0.195091 0.980785
vn 0.000000 -0.382683 0.923880
vn 0.000000 -0.382683 0.923880
vn 0.000000 -0.923880 0.382683
vn 0.000000 -0.923880 0.382683
vn 0.000000 -0.980785 0.195090
vn 0.000000 -0.980785 0.195090
vn 0.000000 -0.382683 -0.923880
vn 0.000000 -0.382683 -0.923880
vn 0.000000 -0.195090 -0.980785
vn 0.000000 -0.195090 -0.980785
vn 0.000000 -0.923880 -0.382683
vn 0.000000 -0.923880 -0.382683
vn 0.000000 -0.831470 -0.555570
vn 0.000000 -0.831470 -0.555570
vn 0.000000 -0.707107 -0.707107
vn 0.000000 -0.707107 -0.707107
vn 0.000000 -0.555570 -0.831470
vn 0.000000 -0.555570 -0.831470
vn 0.000000 -1.000000 0.000000
vn 0.000000 -1.000000 0.000000
vn 0.000000 -0.980785 -0.195090
vn 0.000000 -0.980785 -0.195090
vn 0.000000 -0.980785 0.195090
vn 0.000000 -0.980785 0.195090
vn 0.000000 -1.000000 0.000000
vn 0.000000 -1.000000 0.000000
vn 0.000000 -0.555570 -0.831470
vn 0.000000 -0.555570 -0.831470
vn 0.000000 -0.382683 -0.923880
vn 0.000000 -0.382683 -0.923880
vn -1.000000 0.000000 0.000000
vn -1.000000 0.000000 -0.000000
vn -1.000000 0.000000 -0.000000
vn -1.000000 0.000000 -0.000000
vn -1.000000 0.000000 0.000000
vn -1.000000 0.000000 -0.000000
vn -1.000000 0.000000 -0.000000
vn -1.000000 0.000000 0.000000
vn -1.000000 0.000000 -0.000001
vn -1.000000 0.000000 -0.000001
vn -1.000000 0.000000 -0.000000
vn -1.000000 0.000000 0.000000
vn -1.000000 0.000000 -0.000001
vn -1.000000 0.000000 -0.000001
vn -1.000000 0.000000 -0.000001
vn -1.000000 0.000000 -0.000001
vn -1.000000 0.000000 -0.000001
vn -1.000000 0.000000 -0.000001
vn -1.000000 0.000000 -0.000001
vn -1.000000 0.000000 -0.000001
vn -1.000000 0.000000 0.000000
vn -1.000000 0.000000 0.000000
vn -1.000000 0.000001 0.000001
vn -1.000000 0.000001 0.000001
vn -1.000000 0.000001 0.000001
vn -1.000000 0.000001 0.000001
vn -1.000000 0.000000 0.000001
vn -1.000000 0.000000 0.000001
vn -1.000000 0.000000 0.000001
vn -1.000000 0.000000 0.000001
vn -1.000000 0.000000 0.000001
vn -1.000000 0.000000 0.000001
vn -1.000000 0.000000 0.000001
vn -1.000000 0.000000 0.000001
vn -1.000000 0.000000 -0.000000
vn -1.000000 0.000000 -0.000000
vn -1.000000 0.000000 -0.000000
vn -1.000000 0.000000 -0.000000
vn -1.000000 0.000000 -0.000001
vn -1.000000 0.000000 -0.000001
vn -1.000000 0.000000 -0.000001
vn -1.000000 0.000000 -0.000001
vn -1.000000 0.000000 0.000000
vn -1.000000 0.000000 0.000000
vn -1.000000 0.000000 0.000000
vn -1.000000 0.000000 0.000000
vn -1.000000 0.000000 0.000000
vn -1.000000 0.000000 0.000000
vn -1.000000 0.000000 0.000000
vn -1.000000 0.000000 0.000000
vn -1.000000 0.000000 -0.000001
vn -1.000000 0.000000 -0.000001
vn -1.000000 0.000000 0.000000
vn -1.000000 0.000000 0.000000
vn -1.000000 0.000000 0.000000
vn -1.000000 0.000000 0.000000
vn -1.000000 0.000000 0.000001
vn -1.000000 0.000000 0.000001
vn -1.000000 0.000000 0.000000
vn -1.000000 0.000000 0.000000
vn -1.000000 0.000000 -0.000000
vn -1.000000 0.000000 -0.000000
vn -1.000000 0.000000 0.000001
vn -1.000000 0.000000 0.000001
vn 0.000000 0.195091 0.980785
vn 0.000000 0.195091 0.980785
vn 0.000000 0.382683 0.923880
vn 0.000000 0.382683 0.923880
vn 0.000000 0.382683 0.923880
vn 0.000000 0.382683 0.923880
vn 0.000000 0.555570 0.831470
vn 0.000000 0.555570 0.831470
vn 0.000000 0.195091 -0.980785
vn 0.000000 0.195091 -0.980785
vn 0.000000 0.000000 -1.000000
vn 0.000000 0.000000 -1.000000
vn 0.000000 0.555570 0.831470
vn 0.000000 0.555570 0.831470
vn 0.000000 0.707107 0.707107
vn 0.000000 0.707107 0.707107
vn 0.000000 0.382684 -0.923879
vn 0.000000 0.382684 -0.923879
vn 0.000000 0.195091 -0.980785
vn 0.000000 0.195091 -0.980785
vn 0.000000 0.707107 0.707107
vn 0.000000 0.707107 0.707107
vn 0.000000 0.831470 0.555570
vn 0.000000 0.831470 0.555570
vn 0.000000 0.555571 -0.831469
vn 0.000000 0.555571 -0.831469
vn 0.000000 0.382684 -0.923879
vn 0.000000 0.382684 -0.923879
vn 0.000000 0.831470 0.555570
vn 0.000000 0.831470 0.555570
vn 0.000000 0.923880 0.382683
vn 0.000000 0.923880 0.382683
vn 0.000000 0.707107 -0.707107
vn 0.000000 0.707107 -0.707107
vn 0.000000 0.555571 -0.831469
vn 0.000000 0.555571 -0.831469
vn 0.000000 0.923880 0.382683
vn 0.000000 0.923880 0.382683
vn 0.000000 0.980785 0.195091
vn 0.000000 0.980785 0.195091
vn 0.000000 0.831470 -0.555570
vn 0.000000 0.831470 -0.555570
vn 0.000000 0.707107 -0.707107
vn 0.000000 0.707107 -0.707107
vn 0.000000 0.980785 0.195091
vn 0.000000 0.980785 0.195091
vn 0.000000 1.000000 -0.000000
vn 0.000000 1.000000 -0.000000
vn 0.000000 0.923880 -0.382683
vn 0.000000 0.923880 -0.382683
vn 0.000000 0.831470 -0.555570
vn 0.000000 0.831470 -0.555570
vn 0.000000 0.980785 -0.195091
vn 0.000000 0.980785 -0.195091
vn 0.000000 0.923880 -0.382683
vn 0.000000 0.923880 -0.382683
vn 0.000000 1.000000 -0.000000
vn 0.000000 1.000000 -0.000000
vn 0.000000 0.980785 -0.195091
vn 0.000000 0.980785 -0.195091
vn 0.000000 0.000000 1.000000
vn 0.000000 0.000000 1.000000
vn 0.000000 0.195091 0.980785
vn 0.000000 0.195091 0.980785
vn 1.000000 -0.000000 0.000001
vn 1.000000 -0.000000 0.000001
vn 1.000000 -0.000001 0.000000
vn 1.000000 -0.000001 0.000000
vn 1.000000 -0.000001 0.000000
vn 1.000000 -0.000001 0.000000
vn 1.000000 0.000000 0.000000
vn 1.000000 0.000000 0.000000
vn 1.000000 0.000000 0.000000
vn 1.000000 0.000000 0.000000
vn 1.000000 0.000000 0.000000
vn 1.000000 0.000000 0.000000
vn 1.000000 0.000000 0.000000
vn 1.000000 0.000000 0.000000
vn 1.000000 0.000000 0.000001
vn 1.000000 0.000000 0.000001
vn 1.000000 0.000000 0.000001
vn 1.000000 0.000000 0.000001
vn 1.000000 -0.000000 0.000002
vn 1.000000 -0.000000 0.000002
vn 1.000000 -0.000000 0.000002
vn 1.000000 -0.000000 0.000002
vn 1.000000 -0.000000 0.000002
vn 1.000000 -0.000000 0.000002
vn 1.000000 -0.000000 0.000002
vn 1.000000 -0.000000 0.000002
vn 1.000000 0.000000 -0.000000
vn 1.000000 0.000000 -0.000000
vn 1.000000 0.000000 -0.000000
vn 1.000000 0.000000 -0.000000
vn 1.000000 0.000000 0.000000
vn 1.000000 0.000000 0.000000
vn 1.000000 0.000000 -0.000000
vn 1.000000 0.000000 -0.000000
vn 1.000000 0.000000 0.000000
vn 1.000000 0.000000 0.000000
vn 1.000000 0.000000 -0.000000
vn 1.000000 0.000000 -0.000000
vn 1.000000 0.000000 -0.000000
vn 1.000000 0.000000 -0.000000
vn 1.000000 0.000000 0.000000
vn 1.000000 0.000000 0.000000
vn 1.000000 0.000000 -0.000000
vn 1.000000 0.000000 -0.000000
vn 1.000000 0.000000 -0.000000
vn 1.000000 0.000000 -0.000000
vn 1.000000 0.000000 0.000000
vn 1.000000 0.000000 0.000000
vn 1.000000 0.000000 -0.000001
vn 1.000000 0.000000 -0.000001
vn 1.000000 0.000000 -0.000000
vn 1.000000 0.000000 -0.000000
vn 1.000000 0.000000 -0.000002
vn 1.000000 0.000000 -0.000002
vn 1.000000 0.000000 -0.000001
vn 1.000000 0.000000 -0.000001
vn 1.000000 0.000000 0.000000
vn 1.000000 0.000000 0.000000
vn 1.000000 0.000000 -0.000002
vn 1.000000 0.000000 -0.000002
vn 1.000000 0.000000 0.000000
vn 1.000000 0.000000 0.000000
vn 1.000000 0.000000 0.000000
vn 1.000000 0.000000 0.000000
vn -1.000000 0.000000 -0.000001
vn -1.000000 0.000000 -0.000001
vn -1.000000 0.000000 -0.000001
vn -1.000000 0.000000 -0.000001
vn -1.000000 0.000000 0.000000
vn -1.000000 0.000000 -0.000001
vn -1.000000 0.000000 -0.000001
vn -1.000000 0.000000 -0.000000
vn -1.000000 0.000000 -0.000001
vn -1.000000 0.000000 0.000000
vn -1.000000 0.000000 -0.000000
vn -1.000000 0.000000 -0.000001
vn -1.000000 0.000000 -0.000000
vn -1.000000 0.000000 -0.000001
vn -1.000000 0.000000 -0.000001
vn -1.000000 0.000000 -0.000000
vn -1.000000 0.000000 -0.000000
vn -1.000000 0.000000 -0.000000
vn -1.000000 0.000000 -0.000000
vn -1.000000 0.000000 0.000000
vn -1.000000 0.000000 0.000000
vn -1.000000 -0.000001 0.000000
vn -1.000000 -0.000001 0.000000
vn -1.000000 0.000000 0.000000
vn -1.000000 -0.000001 0.000000
vn -1.000000 0.000000 0.000000
vn -1.000000 0.000000 0.000000
vn -1.000000 -0.000001 0.000000
vn -1.000000 0.000000 0.000000
vn -1.000000 0.000000 0.000000
vn -1.000000 0.000000 0.000000
vn -1.000000 0.000000 0.000000
vn -1.000000 0.000000 0.000000
vn -1.000000 0.000000 -0.000001
vn -1.000000 0.000000 -0.000001
vn -1.000000 0.000000 0.000000
vn -1.000000 0.000000 -0.000001
vn -1.000000 -0.000000 -0.000001
vn -1.000000 -0.000000 -0.000001
vn -1.000000 0.000000 -0.000001
vn -1.000000 -0.000000 -0.000001
vn -1.000000 -0.000000 0.000000
vn -1.000000 -0.000000 0.000000
vn -1.000000 -0.000000 -0.000001
vn -1.000000 -0.000000 0.000000
vn -1.000000 0.000000 0.000000
vn -1.000000 0.000000 0.000000
vn -1.000000 -0.000000 0.000000
vn -1.000000 0.000000 0.000000
vn -1.000000 0.000000 -0.000000
vn -1.000000 0.000000 0.000000
vn -1.000000 0.000000 0.000000
vn -1.000000 0.000000 0.000000
vn -1.000000 0.000000 0.000000
vn -1.000000 0.000000 0.000000
vn -1.000000 0.000000 0.000000
vn -1.000000 0.000000 0.000000
vn -1.000000 0.000000 0.000000
vn -1.000000 0.000000 0.000000
vn -1.000000 0.000000 0.000000
vn -1.000000 0.000000 -0.000001
vn -1.000000 0.000000 0.000000
vn -1.000000 0.000000 0.000000
vn -1.000000 0.000000 -0.000001
vn 0.000000 -0.195091 0.980785
vn 0.000000 -0.382683 0.923880
vn 0.000000 -0.382683 0.923880
vn 0.000000 -0.195091 0.980785
vn 0.000000 -0.382683 0.923880
vn 0.000000 -0.555570 0.831470
vn 0.000000 -0.555570 0.831470
vn 0.000000 -0.382683 0.923880
vn 0.000000 -0.195091 -0.980785
vn 0.000000 0.000000 -1.000000
vn 0.000000 0.000000 -1.000000
vn 0.000000 -0.195091 -0.980785
vn 0.000000 -0.555570 0.831470
vn 0.000000 -0.707107 0.707107
vn 0.000000 -0.707107 0.707107
vn 0.000000 -0.555570 0.831470
vn 0.000000 -0.382684 -0.923879
vn 0.000000 -0.195091 -0.980785
vn 0.000000 -0.195091 -0.980785
vn 0.000000 -0.382684 -0.923879
vn 0.000000 -0.707107 0.707107
vn 0.000000 -0.831470 0.555570
vn 0.000000 -0.831470 0.555570
vn 0.000000 -0.707107 0.707107
vn 0.000000 -0.555571 -0.831469
vn 0.000000 -0.382684 -0.923879
vn 0.000000 -0.382684 -0.923879
vn 0.000000 -0.555571 -0.831469
vn 0.000000 -0.831470 0.555570
vn 0.000000 -0.923880 0.382683
vn 0.000000 -0.923880 0.382683
vn 0.000000 -0.831470 0.555570
vn 0.000000 -0.707107 -0.707107
vn 0.000000 -0.555571 -0.831469
vn 0.000000 -0.555571 -0.831469
vn 0.000000 -0.707107 -0.707107
vn 0.000000 -0.923880 0.382683
vn 0.000000 -0.980785 0.195091
vn 0.000000 -0.980785 0.195091
vn 0.000000 -0.923880 0.382683
vn 0.000000 -0.831470 -0.555570
vn 0.000000 -0.707107 -0.707107
vn 0.000000 -0.707107 -0.707107
vn 0.000000 -0.831470 -0.555570
vn 0.000000 -0.980785 0.195091
vn 0.000000 -1.000000 -0.000000
vn 0.000000 -1.000000 -0.000000
vn 0.000000 -0.980785 0.195091
vn 0.000000 -0.923880 -0.382683
vn 0.000000 -0.831470 -0.555570
vn 0.000000 -0.831470 -0.555570
vn 0.000000 -0.923880 -0.382683
vn 0.000000 -0.980785 -0.195091
vn 0.000000 -0.923880 -0.382683
vn 0.000000 -0.923880 -0.382683
vn 0.000000 -0.980785 -0.195091
vn 0.000000 -1.000000 -0.000000
vn 0.000000 -0.980785 -0.195091
vn 0.000000 -0.980785 -0.195091
vn 0.000000 -1.000000 -0.000000
vn 0.000000 0.000000 1.000000
vn 0.000000 -0.195091 0.980785
vn 0.000000 -0.195091 0.980785
vn 0.000000 0.000000 1.000000
vn 1.000000 -0.000000 0.000001
vn 1.000000 0.000001 0.000001
vn 1.000000 0.000001 0.000001
vn 1.000000 -0.000000 0.000001
vn 1.000000 0.000001 0.000001
vn 1.000000 0.000000 0.000000
vn 1.000000 0.000000 0.000000
vn 1.000000 0.000001 0.000001
vn 1.000000 0.000000 0.000000
vn 1.000000 0.000000 0.000000
vn 1.000000 0.000000 0.000000
vn 1.000000 0.000000 0.000000
vn 1.000000 0.000000 0.000000
vn 1.000000 0.000000 0.000001
vn 1.000000 0.000000 0.000001
vn 1.000000 0.000000 0.000000
vn 1.000000 0.000000 0.000001
vn 1.000000 0.000000 0.000001
vn 1.000000 0.000000 0.000001
vn 1.000000 0.000000 0.000001
vn 1.000000 0.000000 0.000001
vn 1.000000 0.000000 0.000001
vn 1.000000 0.000000 0.000001
vn 1.000000 0.000000 0.000001
vn 1.000000 0.000000 0.000001
vn 1.000000 0.000000 -0.000001
vn 1.000000 0.000000 -0.000001
vn 1.000000 0.000000 0.000001
vn 1.000000 0.000000 -0.000001
vn 1.000000 0.000000 0.000000
vn 1.000000 0.000000 0.000000
vn 1.000000 0.000000 -0.000001
vn 1.000000 0.000000 -0.000000
vn 1.000000 0.000000 0.000000
vn 1.000000 0.000000 0.000000
vn 1.000000 0.000000 -0.000000
vn 1.000000 0.000000 -0.000000
vn 1.000000 0.000000 -0.000000
vn 1.000000 0.000000 -0.000000
vn 1.000000 0.000000 -0.000000
vn 1.000000 0.000000 0.000000
vn 1.000000 0.000000 -0.000000
vn 1.000000 0.000000 -0.000000
vn 1.000000 0.000000 0.000000
vn 1.000000 0.000000 0.000000
vn 1.000000 0.000000 0.000000
vn 1.000000 0.000000 0.000000
vn 1.000000 0.000000 -0.000000
vn 1.000000 0.000000 -0.000001
vn 1.000000 0.000000 0.000000
vn 1.000000 0.000000 -0.000000
vn 1.000000 0.000000 -0.000001
vn 1.000000 0.000000 -0.000001
vn 1.000000 0.000000 -0.000001
vn 1.000000 0.000000 -0.000001
vn 1.000000 0.000000 -0.000001
vn 1.000000 0.000000 0.000001
vn 1.000000 0.000000 -0.000001
vn 1.000000 0.000000 -0.000001
vn 1.000000 0.000000 0.000001
vn 1.000000 0.000000 0.000000
vn 1.000000 0.000000 0.000001
vn 1.000000 0.000000 0.000001
vn 1.000000 0.000000 0.000000
vn 0.000000 -0.923880 0.382684
vn 0.000000 -0.923880 0.382684
vn 0.000000 -0.980785 0.195090
vn 0.000000 -0.980785 0.195090
s off
g Pipe3
usemtl Pipe_2SG
f 14/314/1 13/316/2 30/299/3 31/297/4
f 15/312/5 14/314/6 31/297/7 32/295/8
f 16/310/9 15/312/10 32/295/11 33/293/12
f 17/307/13 16/310/14 33/293/15 34/290/16
f 9/306/17 17/307/18 34/290/19 26/289/20
f 1/340/21 2/1/22 19/18/23 18/17/24
f 2/1/25 3/3/26 20/20/27 19/18/28
f 3/3/29 4/5/30 21/22/31 20/20/32
f 4/5/33 5/7/34 22/24/35 21/22/36
f 5/7/37 6/9/38 23/26/39 22/24/40
f 6/9/41 7/11/42 24/28/43 23/26/44
f 7/11/45 8/13/46 25/30/47 24/28/48
f 8/13/49 9/14/50 26/32/51 25/30/52
f 11/320/53 10/322/54 27/305/55 28/303/56
f 12/318/57 11/320/58 28/303/59 29/301/60
f 13/316/61 12/318/62 29/301/63 30/299/64
f 19/18/65 20/20/66 37/37/67 36/35/68
f 20/20/69 21/22/70 38/39/71 37/37/72
f 28/303/73 27/305/74 44/288/75 45/286/76
f 21/22/77 22/24/78 39/41/79 38/39/80
f 29/301/81 28/303/82 45/286/83 46/284/84
f 22/24/85 23/26/86 40/43/87 39/41/88
f 30/299/89 29/301/90 46/284/91 47/282/92
f 23/26/93 24/28/94 41/45/95 40/43/96
f 31/297/97 30/299/98 47/282/99 48/280/100
f 24/28/101 25/30/102 42/47/103 41/45/104
f 32/295/105 31/297/106 48/280/107 49/278/108
f 25/30/109 26/32/110 43/49/111 42/47/112
f 33/293/113 32/295/114 49/278/115 50/276/116
f 34/290/117 33/293/118 50/276/119 51/274/120
f 26/289/121 34/290/122 51/274/123 43/272/124
f 18/17/125 19/18/126 36/35/127 35/34/128
f 35/34/129 36/35/130 53/53/131 52/57/132
f 36/35/133 37/37/134 54/51/135 53/53/136
f 37/37/137 38/39/138 55/55/139 54/51/140
f 38/39/141 39/41/142 56/59/143 55/55/144
f 39/41/145 40/43/146 57/61/147 56/59/148
f 40/43/149 41/45/150 58/63/151 57/61/152
f 41/45/153 42/47/154 59/65/155 58/63/156
f 42/47/157 43/49/158 60/67/159 59/65/160
f 45/286/161 44/288/162 61/265/163 62/269/164
f 46/284/165 45/286/166 62/269/167 63/271/168
f 47/282/169 46/284/170 63/271/171 64/267/172
f 48/280/173 47/282/174 64/267/175 65/264/176
f 49/278/177 48/280/178 65/264/179 66/262/180
f 50/276/181 49/278/182 66/262/183 67/260/184
f 51/274/185 50/276/186 67/260/187 68/258/188
f 43/272/189 51/274/190 68/258/191 60/256/192
f 80/315/193 95/298/194 94/300/195 79/317/196
f 81/313/197 96/296/198 95/298/199 80/315/200
f 82/311/201 97/294/202 96/296/203 81/313/204
f 83/308/205 98/292/206 97/294/207 82/311/208
f 76/309/209 91/291/210 98/292/211 83/308/212
f 1/340/213 18/17/214 84/19/215 69/2/216
f 69/2/217 84/19/218 85/21/219 70/4/220
f 70/4/221 85/21/222 86/23/223 71/6/224
f 71/6/225 86/23/226 87/25/227 72/8/228
f 72/8/229 87/25/230 88/27/231 73/10/232
f 73/10/233 88/27/234 89/29/235 74/12/236
f 74/12/237 89/29/238 90/31/239 75/15/240
f 75/15/241 90/31/242 91/33/243 76/16/244
f 77/321/245 92/304/246 27/305/247 10/322/248
f 78/319/249 93/302/250 92/304/251 77/321/252
f 79/317/253 94/300/254 93/302/255 78/319/256
f 84/19/257 99/36/258 100/38/259 85/21/260
f 85/21/261 100/38/262 101/40/263 86/23/264
f 92/304/265 107/287/266 44/288/267 27/305/268
f 86/23/269 101/40/270 102/42/271 87/25/272
f 93/302/273 108/285/274 107/287/275 92/304/276
f 87/25/277 102/42/278 103/44/279 88/27/280
f 94/300/281 109/283/282 108/285/283 93/302/284
f 88/27/285 103/44/286 104/46/287 89/29/288
f 95/298/289 110/281/290 109/283/291 94/300/292
f 89/29/293 104/46/294 105/48/295 90/31/296
f 96/296/297 111/279/298 110/281/299 95/298/300
f 90/31/301 105/48/302 106/50/303 91/33/304
f 97/294/305 112/277/306 111/279/307 96/296/308
f 98/292/309 113/275/310 112/277/311 97/294/312
f 91/291/313 106/273/314 113/275/315 98/292/316
f 18/17/317 35/34/318 99/36/319 84/19/320
f 35/34/321 52/57/322 114/54/323 99/36/324
f 99/36/325 114/54/326 115/52/327 100/38/328
f 100/38/329 115/52/330 116/56/331 101/40/332
f 101/40/333 116/56/334 117/58/335 102/42/336
f 102/42/337 117/58/338 118/60/339 103/44/340
f 103/44/341 118/60/342 119/62/343 104/46/344
f 104/46/345 119/62/346 120/64/347 105/48/348
f 105/48/349 120/64/350 121/66/351 106/50/352
f 107/287/353 122/268/354 61/265/355 44/288/356
f 108/285/357 123/270/358 122/268/359 107/287/360
f 109/283/361 124/266/362 123/270/363 108/285/364
f 110/281/365 125/263/366 124/266/367 109/283/368
f 111/279/369 126/261/370 125/263/371 110/281/372
f 112/277/373 127/259/374 126/261/375 111/279/376
f 113/275/377 128/257/378 127/259/379 112/277/380
f 106/273/381 121/255/382 128/257/383 113/275/384
f 207/82/385 208/83/386 80/233/387 79/232/388
f 200/242/389 72/327/390 73/326/391 201/241/392
f 129/246/393 1/331/394 69/330/395 197/245/396
f 138/79/397 205/80/398 77/230/399 10/229/400
f 209/84/401 210/68/402 82/235/403 81/234/404
f 208/83/405 209/84/406 81/234/407 80/233/408
f 206/81/409 207/82/410 79/232/411 78/231/412
f 205/80/413 206/81/414 78/231/415 77/230/416
f 210/68/417 211/69/418 83/236/419 82/235/420
f 197/245/421 69/330/422 70/329/423 198/244/424
f 201/241/425 73/326/426 74/325/427 202/240/428
f 199/243/429 71/328/430 72/327/431 200/242/432
f 203/239/433 75/324/434 76/323/435 204/238/436
f 211/69/437 204/70/438 76/237/439 83/236/440
f 198/244/441 70/329/442 71/328/443 199/243/444
f 135/252/445 136/253/446 8/338/447 7/337/448
f 141/76/449 13/226/450 14/225/451 142/75/452
f 133/250/453 134/251/454 6/336/455 5/335/456
f 129/246/457 130/247/458 2/332/459 1/331/460
f 138/79/461 10/229/462 11/228/463 139/78/464
f 143/74/465 15/224/466 16/223/467 144/73/468
f 142/75/469 14/225/470 15/224/471 143/74/472
f 140/77/473 12/227/474 13/226/475 141/76/476
f 139/78/477 11/228/478 12/227/479 140/77/480
f 144/73/481 16/223/482 17/222/483 145/72/484
f 130/247/485 131/248/486 3/333/487 2/332/488
f 134/251/489 135/252/490 7/337/491 6/336/492
f 132/249/493 133/250/494 5/335/495 4/334/496
f 136/253/497 137/254/498 9/339/499 8/338/500
f 145/72/501 17/222/502 9/221/503 137/71/504
f 131/248/505 132/249/506 4/334/507 3/333/508
f 119/62/509 247/89/510 248/87/511 120/64/512
f 125/263/513 253/211/514 252/208/515 124/266/516
f 117/58/517 245/93/518 246/91/519 118/60/520
f 52/57/521 180/95/522 242/99/523 114/54/524
f 122/268/525 250/206/526 189/210/527 61/265/528
f 127/259/529 255/215/530 254/213/531 126/261/532
f 126/261/533 254/213/534 253/211/535 125/263/536
f 124/266/537 252/208/538 251/204/539 123/270/540
f 123/270/541 251/204/542 250/206/543 122/268/544
f 128/257/545 256/217/546 255/215/547 127/259/548
f 114/54/549 242/99/550 243/101/551 115/52/552
f 118/60/553 246/91/554 247/89/555 119/62/556
f 116/56/557 244/97/558 245/93/559 117/58/560
f 120/64/561 248/87/562 249/85/563 121/66/564
f 121/255/565 249/219/566 256/217/567 128/257/568
f 115/52/569 243/101/570 244/97/571 116/56/572
f 59/65/573 187/88/574 186/90/575 58/63/576
f 64/267/577 192/209/578 193/212/579 65/264/580
f 57/61/581 185/92/582 184/94/583 56/59/584
f 53/53/585 181/98/586 180/95/587 52/57/588
f 61/265/589 189/210/590 190/207/591 62/269/592
f 66/262/593 194/214/594 195/216/595 67/260/596
f 65/264/597 193/212/598 194/214/599 66/262/600
f 63/271/601 191/205/602 192/209/603 64/267/604
f 62/269/605 190/207/606 191/205/607 63/271/608
f 67/260/609 195/216/610 196/218/611 68/258/612
f 54/51/613 182/100/614 181/98/615 53/53/616
f 58/63/617 186/90/618 185/92/619 57/61/620
f 56/59/621 184/94/622 183/96/623 55/55/624
f 60/67/625 188/86/626 187/88/627 59/65/628
f 68/258/629 196/218/630 188/220/631 60/256/632
f 55/55/633 183/96/634 182/100/635 54/51/636
f 142/160/637 159/177/638 158/175/639 141/158/640
f 143/162/641 160/179/642 159/177/643 142/160/644
f 144/164/645 161/181/646 160/179/647 143/162/648
f 145/167/649 162/183/650 161/181/651 144/164/652
f 137/166/653 154/184/654 162/183/655 145/167/656
f 129/152/657 146/135/658 147/133/659 130/150/660
f 130/150/661 147/133/662 148/131/663 131/148/664
f 131/148/665 148/131/666 149/129/667 132/146/668
f 132/146/669 149/129/670 150/127/671 133/144/672
f 133/144/673 150/127/674 151/125/675 134/142/676
f 134/142/677 151/125/678 152/123/679 135/140/680
f 135/140/681 152/123/682 153/121/683 136/137/684
f 136/137/685 153/121/686 154/119/687 137/136/688
f 139/154/689 156/171/690 155/170/691 138/153/692
f 140/156/693 157/173/694 156/171/695 139/154/696
f 141/158/697 158/175/698 157/173/699 140/156/700
f 147/133/701 164/116/702 165/114/703 148/131/704
f 148/131/705 165/114/706 166/112/707 149/129/708
f 156/171/709 173/188/710 172/187/711 155/170/712
f 149/129/713 166/112/714 167/110/715 150/127/716
f 157/173/717 174/190/718 173/188/719 156/171/720
f 150/127/721 167/110/722 168/108/723 151/125/724
f 158/175/725 175/192/726 174/190/727 157/173/728
f 151/125/729 168/108/730 169/106/731 152/123/732
f 159/177/733 176/194/734 175/192/735 158/175/736
f 152/123/737 169/106/738 170/104/739 153/121/740
f 160/179/741 177/196/742 176/194/743 159/177/744
f 153/121/745 170/104/746 171/102/747 154/119/748
f 161/181/749 178/198/750 177/196/751 160/179/752
f 162/183/753 179/200/754 178/198/755 161/181/756
f 154/184/757 171/202/758 179/200/759 162/183/760
f 146/135/761 163/118/762 164/116/763 147/133/764
f 163/118/765 180/95/766 181/98/767 164/116/768
f 164/116/769 181/98/770 182/100/771 165/114/772
f 165/114/773 182/100/774 183/96/775 166/112/776
f 166/112/777 183/96/778 184/94/779 167/110/780
f 167/110/781 184/94/782 185/92/783 168/108/784
f 168/108/785 185/92/786 186/90/787 169/106/788
f 169/106/789 186/90/790 187/88/791 170/104/792
f 170/104/793 187/88/794 188/86/795 171/102/796
f 173/188/797 190/207/798 189/210/799 172/187/800
f 174/190/801 191/205/802 190/207/803 173/188/804
f 175/192/805 192/209/806 191/205/807 174/190/808
f 176/194/809 193/212/810 192/209/811 175/192/812
f 177/196/813 194/214/814 193/212/815 176/194/816
f 178/198/817 195/216/818 194/214/819 177/196/820
f 179/200/821 196/218/822 195/216/823 178/198/824
f 171/202/825 188/220/826 196/218/827 179/200/828
f 208/161/829 207/159/830 222/176/831 223/178/832
f 209/163/833 208/161/834 223/178/835 224/180/836
f 210/165/837 209/163/838 224/180/839 225/182/840
f 211/168/841 210/165/842 225/182/843 226/185/844
f 204/169/845 211/168/846 226/185/847 219/186/848
f 129/152/849 197/151/850 212/134/851 146/135/852
f 197/151/853 198/149/854 213/132/855 212/134/856
f 198/149/857 199/147/858 214/130/859 213/132/860
f 199/147/861 200/145/862 215/128/863 214/130/864
f 200/145/865 201/143/866 216/126/867 215/128/868
f 201/143/869 202/141/870 217/124/871 216/126/872
f 202/141/873 203/139/874 218/122/875 217/124/876
f 203/139/877 204/138/878 219/120/879 218/122/880
f 205/155/881 138/153/882 155/170/883 220/172/884
f 206/157/885 205/155/886 220/172/887 221/174/888
f 207/159/889 206/157/890 221/174/891 222/176/892
f 212/134/893 213/132/894 228/115/895 227/117/896
f 213/132/897 214/130/898 229/113/899 228/115/900
f 220/172/901 155/170/902 172/187/903 235/189/904
f 214/130/905 215/128/906 230/111/907 229/113/908
f 221/174/909 220/172/910 235/189/911 236/191/912
f 215/128/913 216/126/914 231/109/915 230/111/916
f 222/176/917 221/174/918 236/191/919 237/193/920
f 216/126/921 217/124/922 232/107/923 231/109/924
f 223/178/925 222/176/926 237/193/927 238/195/928
f 217/124/929 218/122/930 233/105/931 232/107/932
f 224/180/933 223/178/934 238/195/935 239/197/936
f 218/122/937 219/120/938 234/103/939 233/105/940
f 225/182/941 224/180/942 239/197/943 240/199/944
f 226/185/945 225/182/946 240/199/947 241/201/948
f 219/186/949 226/185/950 241/201/951 234/203/952
f 146/135/953 212/134/954 227/117/955 163/118/956
f 163/118/957 227/117/958 242/99/959 180/95/960
f 227/117/961 228/115/962 243/101/963 242/99/964
f 228/115/965 229/113/966 244/97/967 243/101/968
f 229/113/969 230/111/970 245/93/971 244/97/972
f 230/111/973 231/109/974 246/91/975 245/93/976
f 231/109/977 232/107/978 247/89/979 246/91/980
f 232/107/981 233/105/982 248/87/983 247/89/984
f 233/105/985 234/103/986 249/85/987 248/87/988
f 235/189/989 172/187/990 189/210/991 250/206/992
f 236/191/993 235/189/994 250/206/995 251/204/996
f 237/193/997 236/191/998 251/204/999 252/208/1000
f 238/195/1001 237/193/1002 252/208/1003 253/211/1004
f 239/197/1005 238/195/1006 253/211/1007 254/213/1008
f 240/199/1009 239/197/1010 254/213/1011 255/215/1012
f 241/201/1013 240/199/1014 255/215/1015 256/217/1016
f 234/203/1017 241/201/1018 256/217/1019 249/219/1020
f 202/240/1021 74/325/1022 75/324/1023 203/239/1024
