# This file uses centimeters as units for non-parametric coordinates.

mtllib Pipe1.mtl
g default
v -250.103088 40.383659 36.712433
v -250.103088 47.545883 36.007015
v -250.103088 54.432880 33.917866
v -250.103088 60.779976 30.525272
v -250.103088 66.343254 25.959614
v -250.103088 70.908913 20.396336
v -250.103088 74.301506 14.049242
v -250.103088 76.390656 7.162241
v -250.103088 77.096069 0.000001
v -250.103088 40.383659 -36.712429
v -250.103088 47.545883 -36.007011
v -250.103088 54.432880 -33.917862
v -250.103088 60.779976 -30.525269
v -250.103088 66.343254 -25.959606
v -250.103088 70.908913 -20.396332
v -250.103088 74.301506 -14.049238
v -250.103088 76.390656 -7.162239
v -250.103088 40.383659 40.383675
v -250.103088 48.262100 39.607712
v -250.103088 55.837807 37.309647
v -250.103088 62.819611 33.577801
v -250.103088 68.939209 28.555573
v -250.103088 73.961441 22.435970
v -250.103088 77.693283 15.454166
v -250.103088 79.991356 7.878465
v -250.103088 80.767319 0.000001
v -250.103088 40.383659 -40.383675
v -250.103088 48.262100 -39.607712
v -250.103088 55.837807 -37.309647
v -250.103088 62.819611 -33.577797
v -250.103088 68.939209 -28.555569
v -250.103088 73.961441 -22.435966
v -250.103088 77.693283 -15.454163
v -250.103088 79.991356 -7.878463
v -263.870239 40.383659 40.383675
v -263.870239 48.262100 39.607712
v -263.870239 55.837807 37.309647
v -263.870239 62.819611 33.577801
v -263.870239 68.939209 28.555573
v -263.870239 73.961441 22.435970
v -263.870239 77.693283 15.454166
v -263.870239 79.991356 7.878465
v -263.870239 80.767319 0.000001
v -263.870239 40.383659 -40.383675
v -263.870239 48.262100 -39.607712
v -263.870239 55.837807 -37.309647
v -263.870239 62.819611 -33.577797
v -263.870239 68.939209 -28.555569
v -263.870239 73.961441 -22.435966
v -263.870239 77.693283 -15.454163
v -263.870239 79.991356 -7.878463
v -263.870239 40.383659 26.022938
v -263.870239 45.460484 25.522911
v -263.870239 50.342205 24.042057
v -263.870239 54.841232 21.637280
v -263.870239 58.784649 18.400995
v -263.870239 62.020943 14.457571
v -263.870239 64.425720 9.958549
v -263.870239 65.906570 5.076822
v -263.870239 66.406593 0.000001
v -263.870239 40.383659 -26.022934
v -263.870239 45.460484 -25.522907
v -263.870239 50.342205 -24.042053
v -263.870239 54.841228 -21.637276
v -263.870239 58.784653 -18.400991
v -263.870239 62.020943 -14.457565
v -263.870239 64.425720 -9.958546
v -263.870239 65.906570 -5.076819
v -250.103088 33.221436 36.007015
v -250.103088 26.334438 33.917866
v -250.103088 19.987343 30.525272
v -250.103088 14.424065 25.959614
v -250.103088 9.858406 20.396336
v -250.103088 6.465813 14.049242
v -250.103088 4.376663 7.162241
v -250.103088 3.671242 0.000001
v -250.103088 33.221436 -36.007011
v -250.103088 26.334438 -33.917862
v -250.103088 19.987343 -30.525269
v -250.103088 14.424065 -25.959606
v -250.103088 9.858406 -20.396332
v -250.103088 6.465813 -14.049238
v -250.103088 4.376663 -7.162239
v -250.103088 32.505211 39.607712
v -250.103088 24.929512 37.309647
v -250.103088 17.947708 33.577801
v -250.103088 11.828110 28.555573
v -250.103088 6.805878 22.435970
v -250.103088 3.074028 15.454166
v -250.103088 0.775963 7.878465
v -250.103088 0.000000 0.000001
v -250.103088 32.505211 -39.607712
v -250.103088 24.929512 -37.309647
v -250.103088 17.947708 -33.577797
v -250.103088 11.828110 -28.555569
v -250.103088 6.805878 -22.435966
v -250.103088 3.074028 -15.454163
v -250.103088 0.775963 -7.878463
v -263.870239 32.505211 39.607712
v -263.870239 24.929512 37.309647
v -263.870239 17.947708 33.577801
v -263.870239 11.828110 28.555573
v -263.870239 6.805878 22.435970
v -263.870239 3.074028 15.454166
v -263.870239 0.775963 7.878465
v -263.870239 0.000000 0.000001
v -263.870239 32.505211 -39.607712
v -263.870239 24.929512 -37.309647
v -263.870239 17.947708 -33.577797
v -263.870239 11.828110 -28.555569
v -263.870239 6.805878 -22.435966
v -263.870239 3.074028 -15.454163
v -263.870239 0.775963 -7.878463
v -263.870239 35.306835 25.522911
v -263.870239 30.425110 24.042057
v -263.870239 25.926086 21.637280
v -263.870239 21.982662 18.400995
v -263.870239 18.746376 14.457571
v -263.870239 16.341606 9.958549
v -263.870239 14.860748 5.076822
v -263.870239 14.360725 0.000001
v -263.870239 35.306835 -25.522907
v -263.870239 30.425110 -24.042053
v -263.870239 25.926090 -21.637276
v -263.870239 21.982666 -18.400991
v -263.870239 18.746376 -14.457565
v -263.870239 16.341606 -9.958546
v -263.870239 14.860748 -5.076819
v 250.103088 40.383659 36.712433
v 250.103088 47.545883 36.007015
v 250.103088 54.432880 33.917866
v 250.103088 60.779976 30.525272
v 250.103088 66.343254 25.959614
v 250.103088 70.908913 20.396336
v 250.103088 74.301506 14.049242
v 250.103088 76.390656 7.162241
v 250.103088 77.096069 0.000001
v 250.103088 40.383659 -36.712429
v 250.103088 47.545883 -36.007011
v 250.103088 54.432880 -33.917862
v 250.103088 60.779976 -30.525269
v 250.103088 66.343254 -25.959606
v 250.103088 70.908913 -20.396332
v 250.103088 74.301506 -14.049238
v 250.103088 76.390656 -7.162239
v 250.103088 40.383659 40.383675
v 250.103088 48.262100 39.607712
v 250.103088 55.837807 37.309647
v 250.103088 62.819611 33.577801
v 250.103088 68.939209 28.555573
v 250.103088 73.961441 22.435970
v 250.103088 77.693283 15.454166
v 250.103088 79.991356 7.878465
v 250.103088 80.767319 0.000001
v 250.103088 40.383659 -40.383675
v 250.103088 48.262100 -39.607712
v 250.103088 55.837807 -37.309647
v 250.103088 62.819611 -33.577797
v 250.103088 68.939209 -28.555569
v 250.103088 73.961441 -22.435966
v 250.103088 77.693283 -15.454163
v 250.103088 79.991356 -7.878463
v 263.870239 40.383659 40.383675
v 263.870239 48.262100 39.607712
v 263.870239 55.837807 37.309647
v 263.870239 62.819611 33.577801
v 263.870239 68.939209 28.555573
v 263.870239 73.961441 22.435970
v 263.870239 77.693283 15.454166
v 263.870239 79.991356 7.878465
v 263.870239 80.767319 0.000001
v 263.870239 40.383659 -40.383675
v 263.870239 48.262100 -39.607712
v 263.870239 55.837807 -37.309647
v 263.870239 62.819611 -33.577797
v 263.870239 68.939209 -28.555569
v 263.870239 73.961441 -22.435966
v 263.870239 77.693283 -15.454163
v 263.870239 79.991356 -7.878463
v 263.870239 40.383659 26.022938
v 263.870239 45.460484 25.522911
v 263.870239 50.342205 24.042057
v 263.870239 54.841232 21.637280
v 263.870239 58.784649 18.400995
v 263.870239 62.020943 14.457571
v 263.870239 64.425720 9.958549
v 263.870239 65.906570 5.076822
v 263.870239 66.406593 0.000001
v 263.870239 40.383659 -26.022934
v 263.870239 45.460484 -25.522907
v 263.870239 50.342205 -24.042053
v 263.870239 54.841228 -21.637276
v 263.870239 58.784653 -18.400991
v 263.870239 62.020943 -14.457565
v 263.870239 64.425720 -9.958546
v 263.870239 65.906570 -5.076819
v 250.103088 33.221436 36.007015
v 250.103088 26.334438 33.917866
v 250.103088 19.987343 30.525272
v 250.103088 14.424065 25.959614
v 250.103088 9.858406 20.396336
v 250.103088 6.465813 14.049242
v 250.103088 4.376663 7.162241
v 250.103088 3.671242 0.000001
v 250.103088 33.221436 -36.007011
v 250.103088 26.334438 -33.917862
v 250.103088 19.987343 -30.525269
v 250.103088 14.424065 -25.959606
v 250.103088 9.858406 -20.396332
v 250.103088 6.465813 -14.049238
v 250.103088 4.376663 -7.162239
v 250.103088 32.505211 39.607712
v 250.103088 24.929512 37.309647
v 250.103088 17.947708 33.577801
v 250.103088 11.828110 28.555573
v 250.103088 6.805878 22.435970
v 250.103088 3.074028 15.454166
v 250.103088 0.775963 7.878465
v 250.103088 0.000000 0.000001
v 250.103088 32.505211 -39.607712
v 250.103088 24.929512 -37.309647
v 250.103088 17.947708 -33.577797
v 250.103088 11.828110 -28.555569
v 250.103088 6.805878 -22.435966
v 250.103088 3.074028 -15.454163
v 250.103088 0.775963 -7.878463
v 263.870239 32.505211 39.607712
v 263.870239 24.929512 37.309647
v 263.870239 17.947708 33.577801
v 263.870239 11.828110 28.555573
v 263.870239 6.805878 22.435970
v 263.870239 3.074028 15.454166
v 263.870239 0.775963 7.878465
v 263.870239 0.000000 0.000001
v 263.870239 32.505211 -39.607712
v 263.870239 24.929512 -37.309647
v 263.870239 17.947708 -33.577797
v 263.870239 11.828110 -28.555569
v 263.870239 6.805878 -22.435966
v 263.870239 3.074028 -15.454163
v 263.870239 0.775963 -7.878463
v 263.870239 35.306835 25.522911
v 263.870239 30.425110 24.042057
v 263.870239 25.926086 21.637280
v 263.870239 21.982662 18.400995
v 263.870239 18.746376 14.457571
v 263.870239 16.341606 9.958549
v 263.870239 14.860748 5.076822
v 263.870239 14.360725 0.000001
v 263.870239 35.306835 -25.522907
v 263.870239 30.425110 -24.042053
v 263.870239 25.926090 -21.637276
v 263.870239 21.982666 -18.400991
v 263.870239 18.746376 -14.457565
v 263.870239 16.341606 -9.958546
v 263.870239 14.860748 -5.076819
vt 0.746905 0.004883
vt 0.734928 0.004883
vt 0.722950 0.004883
vt 0.710973 0.004883
vt 0.698995 0.004883
vt 0.687018 0.004883
vt 0.675040 0.004883
vt 0.663063 0.004883
vt 0.651085 0.004883
vt 0.639108 0.004883
vt 0.627130 0.004883
vt 0.615153 0.004883
vt 0.603175 0.004883
vt 0.591198 0.004883
vt 0.579220 0.004883
vt 0.567243 0.004883
vt 0.561178 0.004883
vt 0.549201 0.004883
vt 0.537223 0.004883
vt 0.525246 0.004883
vt 0.513268 0.004883
vt 0.093453 0.995062
vt 0.501291 0.004883
vt 0.489313 0.004883
vt 0.477336 0.004883
vt 0.453381 0.004883
vt 0.441403 0.004883
vt 0.429426 0.004883
vt 0.417448 0.004883
vt 0.405471 0.004883
vt 0.393493 0.004883
vt 0.381516 0.004883
vt 0.369538 0.004883
vt 0.465358 0.004883
vt 0.083310 0.995117
vt 0.286351 0.005062
vt 0.103596 0.995117
vt 0.266290 0.005062
vt 0.073055 0.994975
vt 0.113851 0.994974
vt 0.062598 0.994671
vt 0.124308 0.994668
vt 0.296415 0.005225
vt 0.256226 0.005226
vt 0.051864 0.994158
vt 0.306637 0.005476
vt 0.135043 0.994154
vt 0.246004 0.005478
vt 0.040778 0.993383
vt 0.146128 0.993374
vt 0.317122 0.005871
vt 0.235519 0.005876
vt 0.029285 0.992307
vt 0.157621 0.992293
vt 0.017385 0.991024
vt 0.327954 0.006459
vt 0.005232 0.990151
vt 0.224687 0.006469
vt 0.169520 0.991002
vt 0.181673 0.990118
vt 0.339178 0.007244
vt 0.213463 0.007260
vt 0.362507 0.008092
vt 0.350763 0.008051
vt 0.190133 0.008132
vt 0.201878 0.008076
vt 0.093451 0.989107
vt 0.083380 0.989028
vt 0.103521 0.989027
vt 0.073211 0.988879
vt 0.276323 0.011119
vt 0.113690 0.988878
vt 0.286281 0.011169
vt 0.266364 0.011169
vt 0.062854 0.988582
vt 0.296307 0.011320
vt 0.124048 0.988580
vt 0.256339 0.011321
vt 0.052225 0.988081
vt 0.134676 0.988077
vt 0.306480 0.011567
vt 0.246166 0.011570
vt 0.041239 0.987318
vt 0.145661 0.987310
vt 0.316904 0.011956
vt 0.235743 0.011961
vt 0.029800 0.986247
vt 0.157100 0.986234
vt 0.327682 0.012535
vt 0.224965 0.012544
vt 0.017776 0.984919
vt 0.169124 0.984897
vt 0.338918 0.013308
vt 0.004883 0.983773
vt 0.213730 0.013324
vt 0.182016 0.983740
vt 0.350729 0.014115
vt 0.363240 0.014315
vt 0.201919 0.014140
vt 0.189407 0.014355
vt 0.093445 0.966207
vt 0.083824 0.965994
vt 0.103066 0.965993
vt 0.074149 0.965819
vt 0.112741 0.965819
vt 0.276329 0.034459
vt 0.064361 0.965576
vt 0.285774 0.034287
vt 0.266884 0.034287
vt 0.122527 0.965574
vt 0.295303 0.034339
vt 0.257356 0.034339
vt 0.054379 0.965188
vt 0.132508 0.965185
vt 0.304978 0.034518
vt 0.247684 0.034519
vt 0.314877 0.034813
vt 0.044096 0.964578
vt 0.237787 0.034815
vt 0.142788 0.964573
vt 0.325119 0.035255
vt 0.227548 0.035260
vt 0.033368 0.963634
vt 0.153514 0.963626
vt 0.335879 0.035910
vt 0.216791 0.035919
vt 0.022008 0.962160
vt 0.164871 0.962147
vt 0.347405 0.036920
vt 0.205268 0.036936
vt 0.009848 0.959737
vt 0.360007 0.038673
vt 0.177029 0.959715
vt 0.192668 0.038702
vt 0.076006 0.941296
vt 0.110882 0.941296
vt 0.084723 0.941290
vt 0.102165 0.941290
vt 0.067298 0.941223
vt 0.119589 0.941223
vt 0.093443 0.941199
vt 0.058604 0.941071
vt 0.128281 0.941071
vt 0.293790 0.058446
vt 0.258871 0.058446
vt 0.049931 0.940832
vt 0.285061 0.058275
vt 0.136950 0.940832
vt 0.267597 0.058275
vt 0.302510 0.058650
vt 0.250154 0.058650
vt 0.276328 0.058117
vt 0.311215 0.058900
vt 0.241454 0.058900
vt 0.145587 0.940488
vt 0.041288 0.940487
vt 0.319897 0.059215
vt 0.232777 0.059215
vt 0.224133 0.059616
vt 0.328547 0.059616
vt 0.154178 0.939997
vt 0.032689 0.939996
vt 0.215538 0.060142
vt 0.337152 0.060142
vt 0.162699 0.939278
vt 0.024155 0.939277
vt 0.207014 0.060855
vt 0.345689 0.060856
vt 0.567243 0.837357
vt 0.579220 0.837357
vt 0.591198 0.837357
vt 0.603175 0.837357
vt 0.615153 0.837357
vt 0.627130 0.837357
vt 0.639108 0.837357
vt 0.651085 0.837357
vt 0.663063 0.837357
vt 0.675040 0.837357
vt 0.687018 0.837357
vt 0.698995 0.837357
vt 0.710973 0.837357
vt 0.722950 0.837357
vt 0.734928 0.837357
vt 0.746905 0.837357
vt 0.758883 0.837357
vt 0.465358 0.837357
vt 0.369538 0.837357
vt 0.381516 0.837357
vt 0.393493 0.837357
vt 0.405471 0.837357
vt 0.417448 0.837357
vt 0.429426 0.837357
vt 0.441403 0.837357
vt 0.453381 0.837357
vt 0.477336 0.837357
vt 0.489313 0.837357
vt 0.501291 0.837357
vt 0.513268 0.837357
vt 0.525246 0.837357
vt 0.537223 0.837357
vt 0.549201 0.837357
vt 0.561178 0.837357
vt 0.162744 0.060723
vt 0.024200 0.060722
vt 0.154210 0.060004
vt 0.032721 0.060002
vt 0.206958 0.939100
vt 0.345634 0.939101
vt 0.145611 0.059513
vt 0.041312 0.059512
vt 0.049948 0.059168
vt 0.136968 0.059168
vt 0.215496 0.939814
vt 0.337109 0.939814
vt 0.058618 0.058929
vt 0.128295 0.058929
vt 0.093456 0.058801
vt 0.067309 0.058777
vt 0.119601 0.058777
vt 0.084734 0.058710
vt 0.102176 0.058710
vt 0.076017 0.058704
vt 0.110893 0.058704
vt 0.224100 0.940340
vt 0.328514 0.940340
vt 0.319871 0.940742
vt 0.232750 0.940742
vt 0.311194 0.941056
vt 0.241433 0.941056
vt 0.276320 0.941839
vt 0.302493 0.941306
vt 0.250137 0.941307
vt 0.285051 0.941682
vt 0.267586 0.941682
vt 0.293777 0.941510
vt 0.258857 0.941510
vt 0.009870 0.040285
vt 0.177051 0.040263
vt 0.359979 0.961254
vt 0.192641 0.961284
vt 0.022028 0.037853
vt 0.164890 0.037841
vt 0.033385 0.036374
vt 0.347380 0.963020
vt 0.153530 0.036367
vt 0.205243 0.963036
vt 0.044111 0.035426
vt 0.142802 0.035422
vt 0.335856 0.964037
vt 0.216769 0.964046
vt 0.054391 0.034814
vt 0.132520 0.034812
vt 0.064372 0.034425
vt 0.325100 0.964696
vt 0.122538 0.034425
vt 0.227529 0.964702
vt 0.074158 0.034181
vt 0.112750 0.034181
vt 0.083833 0.034007
vt 0.103075 0.034007
vt 0.314861 0.965141
vt 0.093454 0.033793
vt 0.237771 0.965144
vt 0.304964 0.965437
vt 0.247670 0.965438
vt 0.295291 0.965617
vt 0.257344 0.965617
vt 0.285763 0.965670
vt 0.266874 0.965670
vt 0.276319 0.965498
vt 0.004883 0.016259
vt 0.182016 0.016227
vt 0.017775 0.015102
vt 0.169123 0.015082
vt 0.363240 0.985601
vt 0.029799 0.013766
vt 0.350729 0.985816
vt 0.157099 0.013753
vt 0.189407 0.985641
vt 0.201918 0.985841
vt 0.041238 0.012689
vt 0.338918 0.986632
vt 0.145659 0.012682
vt 0.213730 0.986648
vt 0.052223 0.011923
vt 0.134674 0.011919
vt 0.327682 0.987413
vt 0.062852 0.011420
vt 0.224966 0.987422
vt 0.124045 0.011419
vt 0.073209 0.011122
vt 0.113688 0.011121
vt 0.083378 0.010973
vt 0.316905 0.987995
vt 0.103519 0.010973
vt 0.093448 0.010893
vt 0.235744 0.988000
vt 0.306482 0.988387
vt 0.246167 0.988389
vt 0.296309 0.988635
vt 0.256341 0.988636
vt 0.005226 0.009881
vt 0.286284 0.988787
vt 0.266366 0.988788
vt 0.276325 0.988837
vt 0.017378 0.008997
vt 0.181667 0.009849
vt 0.169514 0.008976
vt 0.350770 0.991880
vt 0.362515 0.991825
vt 0.029278 0.007706
vt 0.201885 0.991906
vt 0.157614 0.007693
vt 0.190141 0.991864
vt 0.040771 0.006625
vt 0.339185 0.992696
vt 0.146121 0.006618
vt 0.213470 0.992712
vt 0.051857 0.005846
vt 0.135035 0.005842
vt 0.327961 0.993487
vt 0.224694 0.993497
vt 0.062591 0.005331
vt 0.124301 0.005330
vt 0.073048 0.005026
vt 0.113844 0.005025
vt 0.083303 0.004883
vt 0.103590 0.004883
vt 0.317128 0.994081
vt 0.235526 0.994086
vt 0.093446 0.004939
vt 0.306643 0.994478
vt 0.246011 0.994481
vt 0.296422 0.994731
vt 0.256233 0.994732
vt 0.286358 0.994894
vt 0.266297 0.994895
vt 0.276327 0.995073
vt 0.758883 0.004883
vt 0.276320 0.004883
vn 1.000000 0.000000 -0.000001
vn 1.000000 0.000000 0.000000
vn 1.000000 0.000000 0.000000
vn 1.000000 0.000000 -0.000001
vn 1.000000 0.000000 -0.000003
vn 1.000000 0.000000 -0.000001
vn 1.000000 0.000000 -0.000001
vn 1.000000 0.000000 -0.000003
vn 1.000000 0.000000 -0.000003
vn 1.000000 0.000000 -0.000003
vn 1.000000 0.000000 -0.000003
vn 1.000000 0.000000 -0.000003
vn 1.000000 0.000000 -0.000001
vn 1.000000 0.000000 -0.000003
vn 1.000000 0.000000 -0.000003
vn 1.000000 0.000000 -0.000001
vn 1.000000 0.000000 0.000001
vn 1.000000 0.000000 -0.000001
vn 1.000000 0.000000 -0.000001
vn 1.000000 0.000000 0.000001
vn 1.000000 0.000000 0.000000
vn 1.000000 0.000001 0.000000
vn 1.000000 0.000001 0.000000
vn 1.000000 0.000000 0.000000
vn 1.000000 0.000001 0.000000
vn 1.000000 0.000000 0.000000
vn 1.000000 0.000000 0.000000
vn 1.000000 0.000001 0.000000
vn 1.000000 0.000000 0.000000
vn 1.000000 0.000000 0.000000
vn 1.000000 0.000000 0.000000
vn 1.000000 0.000000 0.000000
vn 1.000000 0.000000 0.000000
vn 1.000000 0.000000 -0.000001
vn 1.000000 0.000000 -0.000001
vn 1.000000 0.000000 0.000000
vn 1.000000 0.000000 -0.000001
vn 1.000000 0.000000 -0.000001
vn 1.000000 0.000000 -0.000001
vn 1.000000 0.000000 -0.000001
vn 1.000000 0.000000 -0.000001
vn 1.000000 0.000000 0.000000
vn 1.000000 0.000000 0.000000
vn 1.000000 0.000000 -0.000001
vn 1.000000 0.000000 0.000000
vn 1.000000 0.000000 0.000001
vn 1.000000 0.000000 0.000001
vn 1.000000 0.000000 0.000000
vn 1.000000 0.000000 0.000001
vn 1.000000 0.000000 0.000001
vn 1.000000 0.000000 0.000001
vn 1.000000 0.000000 0.000001
vn 1.000000 0.000000 0.000000
vn 1.000000 0.000000 0.000000
vn 1.000000 0.000000 0.000000
vn 1.000000 0.000000 0.000000
vn 1.000000 0.000000 0.000000
vn 1.000000 0.000000 0.000000
vn 1.000000 0.000000 0.000000
vn 1.000000 0.000000 0.000000
vn 1.000000 0.000000 0.000000
vn 1.000000 0.000000 0.000000
vn 1.000000 0.000000 0.000000
vn 1.000000 0.000000 0.000000
vn 0.000000 0.195091 0.980785
vn 0.000000 0.382683 0.923880
vn 0.000000 0.382683 0.923880
vn 0.000000 0.195091 0.980785
vn 0.000000 0.382683 0.923880
vn 0.000000 0.555570 0.831470
vn 0.000000 0.555570 0.831470
vn 0.000000 0.382683 0.923880
vn 0.000000 0.195091 -0.980785
vn 0.000000 0.000000 -1.000000
vn 0.000000 0.000000 -1.000000
vn 0.000000 0.195091 -0.980785
vn 0.000000 0.555570 0.831470
vn 0.000000 0.707107 0.707107
vn 0.000000 0.707107 0.707107
vn 0.000000 0.555570 0.831470
vn 0.000000 0.382684 -0.923880
vn 0.000000 0.195091 -0.980785
vn 0.000000 0.195091 -0.980785
vn 0.000000 0.382684 -0.923880
vn 0.000000 0.707107 0.707107
vn 0.000000 0.831470 0.555570
vn 0.000000 0.831470 0.555570
vn 0.000000 0.707107 0.707107
vn 0.000000 0.555570 -0.831470
vn 0.000000 0.382684 -0.923880
vn 0.000000 0.382684 -0.923880
vn 0.000000 0.555570 -0.831470
vn 0.000000 0.831470 0.555570
vn 0.000000 0.923880 0.382683
vn 0.000000 0.923880 0.382683
vn 0.000000 0.831470 0.555570
vn 0.000000 0.707107 -0.707107
vn 0.000000 0.555570 -0.831470
vn 0.000000 0.555570 -0.831470
vn 0.000000 0.707107 -0.707107
vn 0.000000 0.923880 0.382683
vn 0.000000 0.980785 0.195091
vn 0.000000 0.980785 0.195091
vn 0.000000 0.923880 0.382683
vn 0.000000 0.831470 -0.555570
vn 0.000000 0.707107 -0.707107
vn 0.000000 0.707107 -0.707107
vn 0.000000 0.831470 -0.555570
vn 0.000000 0.980785 0.195091
vn 0.000000 1.000000 -0.000000
vn 0.000000 1.000000 -0.000000
vn 0.000000 0.980785 0.195091
vn 0.000000 0.923880 -0.382683
vn 0.000000 0.831470 -0.555570
vn 0.000000 0.831470 -0.555570
vn 0.000000 0.923880 -0.382683
vn 0.000000 0.980785 -0.195091
vn 0.000000 0.923880 -0.382683
vn 0.000000 0.923880 -0.382683
vn 0.000000 0.980785 -0.195091
vn 0.000000 1.000000 -0.000000
vn 0.000000 0.980785 -0.195091
vn 0.000000 0.980785 -0.195091
vn 0.000000 1.000000 -0.000000
vn 0.000000 0.000000 1.000000
vn 0.000000 0.195091 0.980785
vn 0.000000 0.195091 0.980785
vn 0.000000 0.000000 1.000000
vn -1.000000 0.000000 0.000000
vn -1.000000 -0.000001 0.000000
vn -1.000000 -0.000001 0.000000
vn -1.000000 0.000000 0.000000
vn -1.000000 -0.000001 0.000000
vn -1.000000 0.000000 0.000002
vn -1.000000 0.000000 0.000002
vn -1.000000 -0.000001 0.000000
vn -1.000000 0.000000 0.000002
vn -1.000000 0.000000 0.000000
vn -1.000000 0.000000 -0.000000
vn -1.000000 0.000000 0.000002
vn -1.000000 0.000000 0.000000
vn -1.000000 0.000000 -0.000001
vn -1.000000 0.000000 -0.000001
vn -1.000000 0.000000 -0.000000
vn -1.000000 0.000000 -0.000001
vn -1.000000 0.000000 -0.000000
vn -1.000000 0.000000 -0.000000
vn -1.000000 0.000000 -0.000001
vn -1.000000 0.000000 -0.000000
vn -1.000000 0.000000 -0.000000
vn -1.000000 0.000000 -0.000000
vn -1.000000 0.000000 -0.000000
vn -1.000000 0.000000 -0.000000
vn -1.000000 0.000000 0.000001
vn -1.000000 0.000000 0.000001
vn -1.000000 0.000000 -0.000000
vn -1.000000 0.000000 0.000001
vn -1.000000 0.000000 0.000000
vn -1.000000 0.000000 0.000000
vn -1.000000 0.000000 0.000001
vn -1.000000 0.000000 0.000000
vn -1.000000 0.000000 0.000000
vn -1.000000 0.000000 0.000000
vn -1.000000 0.000000 0.000000
vn -1.000000 0.000000 0.000000
vn -1.000000 0.000000 0.000000
vn -1.000000 0.000000 0.000000
vn -1.000000 0.000000 0.000000
vn -1.000000 0.000000 -0.000000
vn -1.000000 0.000000 0.000000
vn -1.000000 0.000000 0.000000
vn -1.000000 0.000000 -0.000000
vn -1.000000 0.000000 -0.000001
vn -1.000000 0.000000 -0.000000
vn -1.000000 0.000000 -0.000000
vn -1.000000 0.000000 -0.000001
vn -1.000000 0.000000 0.000001
vn -1.000000 0.000000 -0.000001
vn -1.000000 0.000000 -0.000001
vn -1.000000 0.000000 0.000001
vn -1.000000 0.000000 0.000000
vn -1.000000 0.000000 0.000001
vn -1.000000 0.000000 0.000001
vn -1.000000 0.000000 0.000000
vn -1.000000 0.000000 -0.000001
vn -1.000000 0.000000 0.000000
vn -1.000000 0.000000 0.000000
vn -1.000000 0.000000 -0.000001
vn -1.000000 0.000000 0.000000
vn -1.000000 0.000000 -0.000001
vn -1.000000 0.000000 -0.000001
vn -1.000000 0.000000 0.000000
vn 1.000000 0.000000 -0.000001
vn 1.000000 0.000000 -0.000001
vn 1.000000 0.000000 0.000000
vn 1.000000 0.000000 0.000000
vn 1.000000 0.000000 -0.000002
vn 1.000000 0.000000 -0.000002
vn 1.000000 0.000000 -0.000001
vn 1.000000 0.000000 -0.000001
vn 1.000000 0.000000 -0.000003
vn 1.000000 0.000000 -0.000003
vn 1.000000 0.000000 -0.000002
vn 1.000000 0.000000 -0.000002
vn 1.000000 0.000000 -0.000001
vn 1.000000 0.000000 -0.000001
vn 1.000000 0.000000 -0.000003
vn 1.000000 0.000000 -0.000003
vn 1.000000 0.000000 0.000001
vn 1.000000 0.000000 0.000001
vn 1.000000 0.000000 -0.000001
vn 1.000000 0.000000 -0.000001
vn 1.000000 0.000000 0.000000
vn 1.000000 0.000000 0.000000
vn 1.000000 -0.000001 0.000000
vn 1.000000 -0.000001 0.000000
vn 1.000000 -0.000001 0.000000
vn 1.000000 -0.000001 0.000000
vn 1.000000 0.000000 0.000000
vn 1.000000 0.000000 0.000000
vn 1.000000 0.000000 0.000000
vn 1.000000 0.000000 0.000000
vn 1.000000 0.000000 0.000001
vn 1.000000 0.000000 0.000001
vn 1.000000 0.000000 0.000001
vn 1.000000 0.000000 0.000001
vn 1.000000 0.000000 -0.000001
vn 1.000000 0.000000 -0.000001
vn 1.000000 0.000000 -0.000001
vn 1.000000 0.000000 -0.000001
vn 1.000000 0.000000 -0.000001
vn 1.000000 0.000000 -0.000001
vn 1.000000 0.000000 -0.000001
vn 1.000000 0.000000 -0.000001
vn 1.000000 0.000000 0.000000
vn 1.000000 0.000000 0.000000
vn 1.000000 0.000000 0.000000
vn 1.000000 0.000000 0.000000
vn 1.000000 0.000000 0.000001
vn 1.000000 0.000000 0.000001
vn 1.000000 0.000000 0.000001
vn 1.000000 0.000000 0.000001
vn 1.000000 0.000000 0.000001
vn 1.000000 0.000000 0.000001
vn 1.000000 0.000000 0.000000
vn 1.000000 0.000000 0.000000
vn 1.000000 0.000000 0.000000
vn 1.000000 0.000000 0.000000
vn 1.000000 0.000000 0.000000
vn 1.000000 0.000000 0.000000
vn 1.000000 0.000000 0.000000
vn 1.000000 0.000000 0.000000
vn 1.000000 0.000000 0.000000
vn 1.000000 0.000000 0.000000
vn 1.000000 0.000000 0.000000
vn 1.000000 0.000000 0.000000
vn 0.000000 -0.195090 0.980785
vn 0.000000 -0.195091 0.980785
vn 0.000000 -0.382683 0.923880
vn 0.000000 -0.382683 0.923880
vn 0.000000 -0.382683 0.923880
vn 0.000000 -0.382683 0.923880
vn 0.000000 -0.555570 0.831470
vn 0.000000 -0.555570 0.831470
vn 0.000000 -0.195091 -0.980785
vn 0.000000 -0.195091 -0.980785
vn 0.000000 0.000000 -1.000000
vn 0.000000 0.000000 -1.000000
vn 0.000000 -0.555570 0.831470
vn 0.000000 -0.555570 0.831470
vn 0.000000 -0.707107 0.707107
vn 0.000000 -0.707107 0.707107
vn 0.000000 -0.382684 -0.923880
vn 0.000000 -0.382684 -0.923880
vn 0.000000 -0.195091 -0.980785
vn 0.000000 -0.195091 -0.980785
vn 0.000000 -0.707107 0.707107
vn 0.000000 -0.707107 0.707107
vn 0.000000 -0.831470 0.555570
vn 0.000000 -0.831470 0.555570
vn 0.000000 -0.555570 -0.831470
vn 0.000000 -0.555570 -0.831470
vn 0.000000 -0.382684 -0.923880
vn 0.000000 -0.382684 -0.923880
vn 0.000000 -0.831470 0.555570
vn 0.000000 -0.831470 0.555570
vn 0.000000 -0.923880 0.382683
vn 0.000000 -0.923880 0.382683
vn 0.000000 -0.707107 -0.707107
vn 0.000000 -0.707107 -0.707107
vn 0.000000 -0.555570 -0.831470
vn 0.000000 -0.555570 -0.831470
vn 0.000000 -0.923880 0.382683
vn 0.000000 -0.923880 0.382683
vn 0.000000 -0.980785 0.195091
vn 0.000000 -0.980785 0.195091
vn 0.000000 -0.831470 -0.555570
vn 0.000000 -0.831470 -0.555570
vn 0.000000 -0.707107 -0.707107
vn 0.000000 -0.707107 -0.707107
vn 0.000000 -0.980785 0.195091
vn 0.000000 -0.980785 0.195091
vn 0.000000 -1.000000 -0.000000
vn 0.000000 -1.000000 -0.000000
vn 0.000000 -0.923880 -0.382683
vn 0.000000 -0.923880 -0.382683
vn 0.000000 -0.831470 -0.555570
vn 0.000000 -0.831470 -0.555570
vn 0.000000 -0.980785 -0.195091
vn 0.000000 -0.980785 -0.195091
vn 0.000000 -0.923880 -0.382683
vn 0.000000 -0.923880 -0.382683
vn 0.000000 -1.000000 -0.000000
vn 0.000000 -1.000000 -0.000000
vn 0.000000 -0.980785 -0.195091
vn 0.000000 -0.980785 -0.195091
vn 0.000000 0.000000 1.000000
vn 0.000000 0.000000 1.000000
vn 0.000000 -0.195091 0.980785
vn 0.000000 -0.195090 0.980785
vn -1.000000 0.000000 0.000000
vn -1.000000 0.000000 0.000000
vn -1.000000 0.000001 0.000000
vn -1.000000 0.000001 0.000000
vn -1.000000 0.000001 0.000000
vn -1.000000 0.000001 0.000000
vn -1.000000 0.000000 0.000002
vn -1.000000 0.000000 0.000002
vn -1.000000 0.000000 0.000002
vn -1.000000 0.000000 0.000002
vn -1.000000 0.000000 -0.000000
vn -1.000000 0.000000 0.000000
vn -1.000000 0.000000 0.000000
vn -1.000000 0.000000 -0.000000
vn -1.000000 0.000000 0.000000
vn -1.000000 0.000000 -0.000000
vn -1.000000 0.000000 -0.000000
vn -1.000000 0.000000 0.000000
vn -1.000000 0.000000 -0.000000
vn -1.000000 0.000000 0.000000
vn -1.000000 0.000000 0.000000
vn -1.000000 0.000000 -0.000000
vn -1.000000 0.000000 -0.000002
vn -1.000000 0.000000 -0.000002
vn -1.000000 0.000000 -0.000002
vn -1.000000 0.000000 -0.000002
vn -1.000000 0.000000 0.000000
vn -1.000000 0.000000 0.000000
vn -1.000000 0.000000 0.000000
vn -1.000000 0.000000 0.000000
vn -1.000000 0.000000 0.000000
vn -1.000000 0.000000 0.000000
vn -1.000000 0.000000 0.000000
vn -1.000000 0.000000 0.000000
vn -1.000000 0.000000 0.000000
vn -1.000000 0.000000 0.000000
vn -1.000000 0.000000 0.000000
vn -1.000000 0.000000 0.000000
vn -1.000000 0.000000 0.000000
vn -1.000000 0.000000 0.000000
vn -1.000000 0.000000 0.000000
vn -1.000000 0.000000 0.000000
vn -1.000000 0.000000 0.000000
vn -1.000000 0.000000 0.000000
vn -1.000000 0.000000 0.000000
vn -1.000000 0.000000 0.000000
vn -1.000000 0.000000 0.000000
vn -1.000000 0.000000 0.000000
vn -1.000000 0.000000 0.000002
vn -1.000000 0.000000 0.000002
vn -1.000000 0.000000 0.000000
vn -1.000000 0.000000 0.000000
vn -1.000000 0.000000 0.000002
vn -1.000000 0.000000 0.000002
vn -1.000000 0.000000 0.000002
vn -1.000000 0.000000 0.000002
vn -1.000000 0.000000 0.000000
vn -1.000000 0.000000 0.000000
vn -1.000000 0.000000 0.000002
vn -1.000000 0.000000 0.000002
vn -1.000000 0.000000 0.000000
vn -1.000000 0.000000 0.000000
vn -1.000000 0.000000 0.000000
vn -1.000000 0.000000 0.000000
vn 0.000000 -0.555570 -0.831470
vn 0.000000 -0.707107 -0.707107
vn 0.000000 -0.707107 -0.707107
vn 0.000000 -0.555570 -0.831470
vn 0.000000 -0.707107 0.707107
vn 0.000000 -0.707107 0.707107
vn 0.000000 -0.831470 0.555570
vn 0.000000 -0.831470 0.555570
vn 0.000000 0.000000 1.000000
vn 0.000000 0.000000 1.000000
vn 0.000000 -0.195090 0.980785
vn 0.000000 -0.195090 0.980785
vn 0.000000 0.000000 -1.000000
vn 0.000000 -0.195090 -0.980785
vn 0.000000 -0.195090 -0.980785
vn 0.000000 0.000000 -1.000000
vn 0.000000 -0.831470 -0.555570
vn 0.000000 -0.923879 -0.382684
vn 0.000000 -0.923879 -0.382684
vn 0.000000 -0.831470 -0.555570
vn 0.000000 -0.707107 -0.707107
vn 0.000000 -0.831470 -0.555570
vn 0.000000 -0.831470 -0.555570
vn 0.000000 -0.707107 -0.707107
vn 0.000000 -0.382683 -0.923880
vn 0.000000 -0.555570 -0.831470
vn 0.000000 -0.555570 -0.831470
vn 0.000000 -0.382683 -0.923880
vn 0.000000 -0.195090 -0.980785
vn 0.000000 -0.382683 -0.923880
vn 0.000000 -0.382683 -0.923880
vn 0.000000 -0.195090 -0.980785
vn 0.000000 -0.923879 -0.382684
vn 0.000000 -0.980785 -0.195090
vn 0.000000 -0.980785 -0.195090
vn 0.000000 -0.923879 -0.382684
vn 0.000000 -0.195090 0.980785
vn 0.000000 -0.195090 0.980785
vn 0.000000 -0.382683 0.923880
vn 0.000000 -0.382683 0.923880
vn 0.000000 -0.831470 0.555570
vn 0.000000 -0.831470 0.555570
vn 0.000000 -0.923880 0.382684
vn 0.000000 -0.923880 0.382684
vn 0.000000 -0.555570 0.831470
vn 0.000000 -0.555570 0.831470
vn 0.000000 -0.707107 0.707107
vn 0.000000 -0.707107 0.707107
vn 0.000000 -0.980785 0.195090
vn 0.000000 -0.980785 0.195090
vn 0.000000 -1.000000 0.000000
vn 0.000000 -1.000000 0.000000
vn 0.000000 -0.980785 -0.195090
vn 0.000000 -1.000000 0.000000
vn 0.000000 -1.000000 0.000000
vn 0.000000 -0.980785 -0.195090
vn 0.000000 -0.382683 0.923880
vn 0.000000 -0.382683 0.923880
vn 0.000000 -0.555570 0.831470
vn 0.000000 -0.555570 0.831470
vn 0.000000 0.923880 0.382684
vn 0.000000 0.980785 0.195090
vn 0.000000 0.980785 0.195090
vn 0.000000 0.923880 0.382684
vn 0.000000 0.555570 -0.831470
vn 0.000000 0.555570 -0.831470
vn 0.000000 0.707107 -0.707107
vn 0.000000 0.707107 -0.707107
vn 0.000000 0.707107 0.707107
vn 0.000000 0.831470 0.555570
vn 0.000000 0.831470 0.555570
vn 0.000000 0.707107 0.707107
vn 0.000000 0.000000 1.000000
vn 0.000000 0.195090 0.980785
vn 0.000000 0.195090 0.980785
vn 0.000000 0.000000 1.000000
vn 0.000000 0.000000 -1.000000
vn 0.000000 0.000000 -1.000000
vn 0.000000 0.195090 -0.980785
vn 0.000000 0.195090 -0.980785
vn 0.000000 0.831470 -0.555570
vn 0.000000 0.831470 -0.555570
vn 0.000000 0.923879 -0.382684
vn 0.000000 0.923879 -0.382684
vn 0.000000 0.707107 -0.707107
vn 0.000000 0.707107 -0.707107
vn 0.000000 0.831470 -0.555570
vn 0.000000 0.831470 -0.555570
vn 0.000000 0.382683 -0.923880
vn 0.000000 0.382683 -0.923880
vn 0.000000 0.555570 -0.831470
vn 0.000000 0.555570 -0.831470
vn 0.000000 0.195090 -0.980785
vn 0.000000 0.195090 -0.980785
vn 0.000000 0.382683 -0.923880
vn 0.000000 0.382683 -0.923880
vn 0.000000 0.923879 -0.382684
vn 0.000000 0.923879 -0.382684
vn 0.000000 0.980785 -0.195090
vn 0.000000 0.980785 -0.195090
vn 0.000000 0.195090 0.980785
vn 0.000000 0.382683 0.923880
vn 0.000000 0.382683 0.923880
vn 0.000000 0.195090 0.980785
vn 0.000000 0.831470 0.555570
vn 0.000000 0.923880 0.382684
vn 0.000000 0.923880 0.382684
vn 0.000000 0.831470 0.555570
vn 0.000000 0.555570 0.831470
vn 0.000000 0.707107 0.707107
vn 0.000000 0.707107 0.707107
vn 0.000000 0.555570 0.831470
vn 0.000000 0.980785 0.195090
vn 0.000000 1.000000 0.000000
vn 0.000000 1.000000 0.000000
vn 0.000000 0.980785 0.195090
vn 0.000000 0.980785 -0.195090
vn 0.000000 0.980785 -0.195090
vn 0.000000 1.000000 0.000000
vn 0.000000 1.000000 0.000000
vn 0.000000 0.382683 0.923880
vn 0.000000 0.555570 0.831470
vn 0.000000 0.555570 0.831470
vn 0.000000 0.382683 0.923880
vn 0.000000 0.923880 -0.382683
vn 0.000000 0.923880 -0.382683
vn 0.000000 0.980785 -0.195090
vn 0.000000 0.980785 -0.195090
vn 0.000000 0.707107 0.707107
vn 0.000000 0.707107 0.707107
vn 0.000000 0.555570 0.831470
vn 0.000000 0.555570 0.831470
vn 0.000000 0.707107 -0.707107
vn 0.000000 0.707107 -0.707107
vn 0.000000 0.831469 -0.555570
vn 0.000000 0.831469 -0.555570
vn 0.000000 0.000000 -1.000000
vn 0.000000 0.000000 -1.000000
vn 0.000000 0.195090 -0.980785
vn 0.000000 0.195090 -0.980785
vn 0.000000 0.195091 0.980785
vn 0.000000 0.195091 0.980785
vn 0.000000 0.000000 1.000000
vn 0.000000 0.000000 1.000000
vn 0.000000 0.923880 0.382683
vn 0.000000 0.923880 0.382683
vn 0.000000 0.831469 0.555570
vn 0.000000 0.831469 0.555570
vn 0.000000 0.831469 0.555570
vn 0.000000 0.831469 0.555570
vn 0.000000 0.707107 0.707107
vn 0.000000 0.707107 0.707107
vn 0.000000 0.555570 0.831470
vn 0.000000 0.555570 0.831470
vn 0.000000 0.382683 0.923880
vn 0.000000 0.382683 0.923880
vn 0.000000 0.382683 0.923880
vn 0.000000 0.382683 0.923880
vn 0.000000 0.195091 0.980785
vn 0.000000 0.195091 0.980785
vn 0.000000 0.980785 0.195090
vn 0.000000 0.980785 0.195090
vn 0.000000 0.923880 0.382683
vn 0.000000 0.923880 0.382683
vn 0.000000 0.195090 -0.980785
vn 0.000000 0.195090 -0.980785
vn 0.000000 0.382683 -0.923880
vn 0.000000 0.382683 -0.923880
vn 0.000000 0.831469 -0.555570
vn 0.000000 0.831469 -0.555570
vn 0.000000 0.923880 -0.382683
vn 0.000000 0.923880 -0.382683
vn 0.000000 0.555570 -0.831470
vn 0.000000 0.555570 -0.831470
vn 0.000000 0.707107 -0.707107
vn 0.000000 0.707107 -0.707107
vn 0.000000 0.980785 -0.195090
vn 0.000000 0.980785 -0.195090
vn 0.000000 1.000000 0.000000
vn 0.000000 1.000000 0.000000
vn 0.000000 1.000000 0.000000
vn 0.000000 1.000000 0.000000
vn 0.000000 0.980785 0.195090
vn 0.000000 0.980785 0.195090
vn 0.000000 0.382683 -0.923880
vn 0.000000 0.382683 -0.923880
vn 0.000000 0.555570 -0.831470
vn 0.000000 0.555570 -0.831470
vn 0.000000 -0.980785 -0.195090
vn 0.000000 -0.980785 -0.195090
vn 0.000000 -0.923880 -0.382683
vn 0.000000 -0.923880 -0.382683
vn 0.000000 -0.555570 0.831470
vn 0.000000 -0.555570 0.831470
vn 0.000000 -0.707107 0.707107
vn 0.000000 -0.707107 0.707107
vn 0.000000 -0.831469 -0.555570
vn 0.000000 -0.831469 -0.555570
vn 0.000000 -0.707107 -0.707107
vn 0.000000 -0.707107 -0.707107
vn 0.000000 -0.195090 -0.980785
vn 0.000000 -0.195090 -0.980785
vn 0.000000 0.000000 -1.000000
vn 0.000000 0.000000 -1.000000
vn 0.000000 0.000000 1.000000
vn 0.000000 0.000000 1.000000
vn 0.000000 -0.195091 0.980785
vn 0.000000 -0.195091 0.980785
vn 0.000000 -0.831469 0.555570
vn 0.000000 -0.831469 0.555570
vn 0.000000 -0.923880 0.382683
vn 0.000000 -0.923880 0.382683
vn 0.000000 -0.707107 0.707107
vn 0.000000 -0.707107 0.707107
vn 0.000000 -0.831469 0.555570
vn 0.000000 -0.831469 0.555570
vn 0.000000 -0.382683 0.923880
vn 0.000000 -0.382683 0.923880
vn 0.000000 -0.555570 0.831470
vn 0.000000 -0.555570 0.831470
vn 0.000000 -0.195091 0.980785
vn 0.000000 -0.195091 0.980785
vn 0.000000 -0.382683 0.923880
vn 0.000000 -0.382683 0.923880
vn 0.000000 -0.923880 0.382683
vn 0.000000 -0.923880 0.382683
vn 0.000000 -0.980785 0.195090
vn 0.000000 -0.980785 0.195090
vn 0.000000 -0.382683 -0.923880
vn 0.000000 -0.382683 -0.923880
vn 0.000000 -0.195090 -0.980785
vn 0.000000 -0.195090 -0.980785
vn 0.000000 -0.923880 -0.382683
vn 0.000000 -0.923880 -0.382683
vn 0.000000 -0.831469 -0.555570
vn 0.000000 -0.831469 -0.555570
vn 0.000000 -0.707107 -0.707107
vn 0.000000 -0.707107 -0.707107
vn 0.000000 -0.555570 -0.831470
vn 0.000000 -0.555570 -0.831470
vn 0.000000 -1.000000 0.000000
vn 0.000000 -1.000000 0.000000
vn 0.000000 -0.980785 -0.195090
vn 0.000000 -0.980785 -0.195090
vn 0.000000 -0.980785 0.195090
vn 0.000000 -0.980785 0.195090
vn 0.000000 -1.000000 0.000000
vn 0.000000 -1.000000 0.000000
vn 0.000000 -0.555570 -0.831470
vn 0.000000 -0.555570 -0.831470
vn 0.000000 -0.382683 -0.923880
vn 0.000000 -0.382683 -0.923880
vn -1.000000 0.000000 -0.000001
vn -1.000000 0.000000 -0.000001
vn -1.000000 0.000000 0.000000
vn -1.000000 0.000000 0.000000
vn -1.000000 0.000000 -0.000002
vn -1.000000 0.000000 -0.000002
vn -1.000000 0.000000 -0.000001
vn -1.000000 0.000000 -0.000001
vn -1.000000 0.000000 -0.000003
vn -1.000000 0.000000 -0.000003
vn -1.000000 0.000000 -0.000002
vn -1.000000 0.000000 -0.000002
vn -1.000000 0.000000 -0.000001
vn -1.000000 0.000000 -0.000001
vn -1.000000 0.000000 -0.000003
vn -1.000000 0.000000 -0.000003
vn -1.000000 0.000000 0.000001
vn -1.000000 0.000000 0.000001
vn -1.000000 0.000000 -0.000001
vn -1.000000 0.000000 -0.000001
vn -1.000000 0.000000 0.000000
vn -1.000000 0.000000 0.000000
vn -1.000000 0.000001 0.000000
vn -1.000000 0.000001 0.000000
vn -1.000000 0.000001 0.000000
vn -1.000000 0.000001 0.000000
vn -1.000000 0.000000 0.000000
vn -1.000000 0.000000 0.000000
vn -1.000000 0.000000 0.000000
vn -1.000000 0.000000 0.000000
vn -1.000000 0.000000 0.000001
vn -1.000000 0.000000 0.000001
vn -1.000000 0.000000 0.000001
vn -1.000000 0.000000 0.000001
vn -1.000000 0.000000 -0.000001
vn -1.000000 0.000000 -0.000001
vn -1.000000 0.000000 -0.000001
vn -1.000000 0.000000 -0.000001
vn -1.000000 0.000000 -0.000001
vn -1.000000 0.000000 -0.000001
vn -1.000000 0.000000 -0.000001
vn -1.000000 0.000000 -0.000001
vn -1.000000 0.000000 0.000000
vn -1.000000 0.000000 0.000000
vn -1.000000 0.000000 0.000000
vn -1.000000 0.000000 0.000000
vn -1.000000 0.000000 0.000001
vn -1.000000 0.000000 0.000001
vn -1.000000 0.000000 0.000001
vn -1.000000 0.000000 0.000001
vn -1.000000 0.000000 0.000001
vn -1.000000 0.000000 0.000001
vn -1.000000 0.000000 0.000000
vn -1.000000 0.000000 0.000000
vn -1.000000 0.000000 0.000000
vn -1.000000 0.000000 0.000000
vn -1.000000 0.000000 0.000000
vn -1.000000 0.000000 0.000000
vn -1.000000 0.000000 0.000000
vn -1.000000 0.000000 0.000000
vn -1.000000 0.000000 0.000000
vn -1.000000 0.000000 0.000000
vn -1.000000 0.000000 0.000000
vn -1.000000 0.000000 0.000000
vn 0.000000 0.195090 0.980785
vn 0.000000 0.195091 0.980785
vn 0.000000 0.382683 0.923880
vn 0.000000 0.382683 0.923880
vn 0.000000 0.382683 0.923880
vn 0.000000 0.382683 0.923880
vn 0.000000 0.555570 0.831470
vn 0.000000 0.555570 0.831470
vn 0.000000 0.195091 -0.980785
vn 0.000000 0.195091 -0.980785
vn 0.000000 0.000000 -1.000000
vn 0.000000 0.000000 -1.000000
vn 0.000000 0.555570 0.831470
vn 0.000000 0.555570 0.831470
vn 0.000000 0.707107 0.707107
vn 0.000000 0.707107 0.707107
vn 0.000000 0.382684 -0.923880
vn 0.000000 0.382684 -0.923880
vn 0.000000 0.195091 -0.980785
vn 0.000000 0.195091 -0.980785
vn 0.000000 0.707107 0.707107
vn 0.000000 0.707107 0.707107
vn 0.000000 0.831470 0.555570
vn 0.000000 0.831470 0.555570
vn 0.000000 0.555570 -0.831470
vn 0.000000 0.555570 -0.831470
vn 0.000000 0.382684 -0.923880
vn 0.000000 0.382684 -0.923880
vn 0.000000 0.831470 0.555570
vn 0.000000 0.831470 0.555570
vn 0.000000 0.923880 0.382683
vn 0.000000 0.923880 0.382683
vn 0.000000 0.707107 -0.707107
vn 0.000000 0.707107 -0.707107
vn 0.000000 0.555570 -0.831470
vn 0.000000 0.555570 -0.831470
vn 0.000000 0.923880 0.382683
vn 0.000000 0.923880 0.382683
vn 0.000000 0.980785 0.195091
vn 0.000000 0.980785 0.195091
vn 0.000000 0.831470 -0.555570
vn 0.000000 0.831470 -0.555570
vn 0.000000 0.707107 -0.707107
vn 0.000000 0.707107 -0.707107
vn 0.000000 0.980785 0.195091
vn 0.000000 0.980785 0.195091
vn 0.000000 1.000000 -0.000000
vn 0.000000 1.000000 -0.000000
vn 0.000000 0.923880 -0.382683
vn 0.000000 0.923880 -0.382683
vn 0.000000 0.831470 -0.555570
vn 0.000000 0.831470 -0.555570
vn 0.000000 0.980785 -0.195091
vn 0.000000 0.980785 -0.195091
vn 0.000000 0.923880 -0.382683
vn 0.000000 0.923880 -0.382683
vn 0.000000 1.000000 -0.000000
vn 0.000000 1.000000 -0.000000
vn 0.000000 0.980785 -0.195091
vn 0.000000 0.980785 -0.195091
vn 0.000000 -0.000000 1.000000
vn 0.000000 -0.000000 1.000000
vn 0.000000 0.195091 0.980785
vn 0.000000 0.195090 0.980785
vn 1.000000 -0.000000 0.000000
vn 1.000000 -0.000000 0.000000
vn 1.000000 -0.000001 0.000000
vn 1.000000 -0.000001 0.000000
vn 1.000000 -0.000001 0.000000
vn 1.000000 -0.000001 0.000000
vn 1.000000 0.000000 0.000002
vn 1.000000 0.000000 0.000002
vn 1.000000 0.000000 0.000002
vn 1.000000 0.000000 0.000002
vn 1.000000 0.000000 -0.000000
vn 1.000000 0.000000 0.000000
vn 1.000000 0.000000 0.000000
vn 1.000000 0.000000 -0.000000
vn 1.000000 0.000000 0.000000
vn 1.000000 0.000000 -0.000000
vn 1.000000 0.000000 -0.000000
vn 1.000000 0.000000 0.000000
vn 1.000000 0.000000 -0.000000
vn 1.000000 0.000000 0.000000
vn 1.000000 0.000000 0.000000
vn 1.000000 0.000000 -0.000000
vn 1.000000 0.000000 -0.000002
vn 1.000000 0.000000 -0.000002
vn 1.000000 0.000000 -0.000002
vn 1.000000 0.000000 -0.000002
vn 1.000000 0.000000 0.000000
vn 1.000000 0.000000 0.000000
vn 1.000000 0.000000 0.000000
vn 1.000000 0.000000 0.000000
vn 1.000000 0.000000 0.000000
vn 1.000000 0.000000 0.000000
vn 1.000000 0.000000 0.000000
vn 1.000000 0.000000 0.000000
vn 1.000000 0.000000 0.000000
vn 1.000000 0.000000 0.000000
vn 1.000000 0.000000 0.000000
vn 1.000000 0.000000 0.000000
vn 1.000000 0.000000 0.000000
vn 1.000000 0.000000 0.000000
vn 1.000000 0.000000 0.000000
vn 1.000000 0.000000 0.000000
vn 1.000000 0.000000 0.000000
vn 1.000000 0.000000 0.000000
vn 1.000000 0.000000 0.000000
vn 1.000000 0.000000 0.000000
vn 1.000000 0.000000 0.000000
vn 1.000000 0.000000 0.000000
vn 1.000000 0.000000 0.000002
vn 1.000000 0.000000 0.000002
vn 1.000000 0.000000 0.000000
vn 1.000000 0.000000 0.000000
vn 1.000000 0.000000 0.000002
vn 1.000000 0.000000 0.000002
vn 1.000000 0.000000 0.000002
vn 1.000000 0.000000 0.000002
vn 1.000000 0.000000 0.000000
vn 1.000000 0.000000 0.000000
vn 1.000000 0.000000 0.000002
vn 1.000000 0.000000 0.000002
vn 1.000000 0.000000 0.000000
vn 1.000000 0.000000 0.000000
vn 1.000000 0.000000 0.000000
vn 1.000000 0.000000 0.000000
vn -1.000000 0.000000 -0.000001
vn -1.000000 0.000000 0.000000
vn -1.000000 0.000000 0.000000
vn -1.000000 0.000000 -0.000001
vn -1.000000 0.000000 -0.000003
vn -1.000000 0.000000 -0.000001
vn -1.000000 0.000000 -0.000001
vn -1.000000 0.000000 -0.000003
vn -1.000000 0.000000 -0.000003
vn -1.000000 0.000000 -0.000003
vn -1.000000 0.000000 -0.000003
vn -1.000000 0.000000 -0.000003
vn -1.000000 0.000000 -0.000001
vn -1.000000 0.000000 -0.000003
vn -1.000000 0.000000 -0.000003
vn -1.000000 0.000000 -0.000001
vn -1.000000 0.000000 0.000001
vn -1.000000 0.000000 -0.000001
vn -1.000000 0.000000 -0.000001
vn -1.000000 0.000000 0.000001
vn -1.000000 0.000000 0.000000
vn -1.000000 -0.000001 0.000000
vn -1.000000 -0.000001 0.000000
vn -1.000000 0.000000 0.000000
vn -1.000000 -0.000001 0.000000
vn -1.000000 0.000000 0.000000
vn -1.000000 0.000000 0.000000
vn -1.000000 -0.000001 0.000000
vn -1.000000 0.000000 0.000000
vn -1.000000 0.000000 0.000000
vn -1.000000 0.000000 0.000000
vn -1.000000 0.000000 0.000000
vn -1.000000 0.000000 0.000000
vn -1.000000 0.000000 -0.000001
vn -1.000000 0.000000 -0.000001
vn -1.000000 0.000000 0.000000
vn -1.000000 0.000000 -0.000001
vn -1.000000 0.000000 -0.000001
vn -1.000000 0.000000 -0.000001
vn -1.000000 0.000000 -0.000001
vn -1.000000 0.000000 -0.000001
vn -1.000000 0.000000 0.000000
vn -1.000000 0.000000 0.000000
vn -1.000000 0.000000 -0.000001
vn -1.000000 0.000000 0.000000
vn -1.000000 0.000000 0.000001
vn -1.000000 0.000000 0.000001
vn -1.000000 0.000000 0.000000
vn -1.000000 0.000000 0.000001
vn -1.000000 0.000000 0.000001
vn -1.000000 0.000000 0.000001
vn -1.000000 0.000000 0.000001
vn -1.000000 0.000000 0.000000
vn -1.000000 0.000000 0.000000
vn -1.000000 0.000000 0.000000
vn -1.000000 0.000000 0.000000
vn -1.000000 0.000000 0.000000
vn -1.000000 0.000000 0.000000
vn -1.000000 0.000000 0.000000
vn -1.000000 0.000000 0.000000
vn -1.000000 0.000000 0.000000
vn -1.000000 0.000000 0.000000
vn -1.000000 0.000000 0.000000
vn -1.000000 0.000000 0.000000
vn 0.000000 -0.195091 0.980785
vn 0.000000 -0.382683 0.923880
vn 0.000000 -0.382683 0.923880
vn 0.000000 -0.195091 0.980785
vn 0.000000 -0.382683 0.923880
vn 0.000000 -0.555570 0.831470
vn 0.000000 -0.555570 0.831470
vn 0.000000 -0.382683 0.923880
vn 0.000000 -0.195091 -0.980785
vn 0.000000 0.000000 -1.000000
vn 0.000000 0.000000 -1.000000
vn 0.000000 -0.195091 -0.980785
vn 0.000000 -0.555570 0.831470
vn 0.000000 -0.707107 0.707107
vn 0.000000 -0.707107 0.707107
vn 0.000000 -0.555570 0.831470
vn 0.000000 -0.382684 -0.923880
vn 0.000000 -0.195091 -0.980785
vn 0.000000 -0.195091 -0.980785
vn 0.000000 -0.382684 -0.923880
vn 0.000000 -0.707107 0.707107
vn 0.000000 -0.831470 0.555570
vn 0.000000 -0.831470 0.555570
vn 0.000000 -0.707107 0.707107
vn 0.000000 -0.555570 -0.831470
vn 0.000000 -0.382684 -0.923880
vn 0.000000 -0.382684 -0.923880
vn 0.000000 -0.555570 -0.831470
vn 0.000000 -0.831470 0.555570
vn 0.000000 -0.923880 0.382683
vn 0.000000 -0.923880 0.382683
vn 0.000000 -0.831470 0.555570
vn 0.000000 -0.707107 -0.707107
vn 0.000000 -0.555570 -0.831470
vn 0.000000 -0.555570 -0.831470
vn 0.000000 -0.707107 -0.707107
vn 0.000000 -0.923880 0.382683
vn 0.000000 -0.980785 0.195091
vn 0.000000 -0.980785 0.195091
vn 0.000000 -0.923880 0.382683
vn 0.000000 -0.831470 -0.555570
vn 0.000000 -0.707107 -0.707107
vn 0.000000 -0.707107 -0.707107
vn 0.000000 -0.831470 -0.555570
vn 0.000000 -0.980785 0.195091
vn 0.000000 -1.000000 -0.000000
vn 0.000000 -1.000000 -0.000000
vn 0.000000 -0.980785 0.195091
vn 0.000000 -0.923880 -0.382683
vn 0.000000 -0.831470 -0.555570
vn 0.000000 -0.831470 -0.555570
vn 0.000000 -0.923880 -0.382683
vn 0.000000 -0.980785 -0.195091
vn 0.000000 -0.923880 -0.382683
vn 0.000000 -0.923880 -0.382683
vn 0.000000 -0.980785 -0.195091
vn 0.000000 -1.000000 -0.000000
vn 0.000000 -0.980785 -0.195091
vn 0.000000 -0.980785 -0.195091
vn 0.000000 -1.000000 -0.000000
vn 0.000000 -0.000000 1.000000
vn 0.000000 -0.195091 0.980785
vn 0.000000 -0.195091 0.980785
vn 0.000000 -0.000000 1.000000
vn 1.000000 -0.000000 0.000000
vn 1.000000 0.000001 0.000000
vn 1.000000 0.000001 0.000000
vn 1.000000 -0.000000 0.000000
vn 1.000000 0.000001 0.000000
vn 1.000000 0.000000 0.000002
vn 1.000000 0.000000 0.000002
vn 1.000000 0.000001 0.000000
vn 1.000000 0.000000 0.000002
vn 1.000000 0.000000 0.000000
vn 1.000000 0.000000 -0.000000
vn 1.000000 0.000000 0.000002
vn 1.000000 0.000000 0.000000
vn 1.000000 0.000000 -0.000001
vn 1.000000 0.000000 -0.000001
vn 1.000000 0.000000 -0.000000
vn 1.000000 0.000000 -0.000001
vn 1.000000 0.000000 -0.000000
vn 1.000000 0.000000 -0.000000
vn 1.000000 0.000000 -0.000001
vn 1.000000 0.000000 -0.000000
vn 1.000000 0.000000 -0.000000
vn 1.000000 0.000000 -0.000000
vn 1.000000 0.000000 -0.000000
vn 1.000000 0.000000 -0.000000
vn 1.000000 0.000000 0.000001
vn 1.000000 0.000000 0.000001
vn 1.000000 0.000000 -0.000000
vn 1.000000 0.000000 0.000001
vn 1.000000 0.000000 0.000000
vn 1.000000 0.000000 0.000000
vn 1.000000 0.000000 0.000001
vn 1.000000 0.000000 0.000000
vn 1.000000 0.000000 0.000000
vn 1.000000 0.000000 0.000000
vn 1.000000 0.000000 0.000000
vn 1.000000 0.000000 0.000000
vn 1.000000 0.000000 0.000000
vn 1.000000 0.000000 0.000000
vn 1.000000 0.000000 0.000000
vn 1.000000 0.000000 -0.000000
vn 1.000000 0.000000 0.000000
vn 1.000000 0.000000 0.000000
vn 1.000000 0.000000 -0.000000
vn 1.000000 0.000000 -0.000001
vn 1.000000 0.000000 -0.000000
vn 1.000000 0.000000 -0.000000
vn 1.000000 0.000000 -0.000001
vn 1.000000 0.000000 0.000001
vn 1.000000 0.000000 -0.000001
vn 1.000000 0.000000 -0.000001
vn 1.000000 0.000000 0.000001
vn 1.000000 0.000000 0.000000
vn 1.000000 0.000000 0.000001
vn 1.000000 0.000000 0.000001
vn 1.000000 0.000000 0.000000
vn 1.000000 0.000000 -0.000001
vn 1.000000 0.000000 0.000000
vn 1.000000 0.000000 0.000000
vn 1.000000 0.000000 -0.000001
vn 1.000000 0.000000 0.000000
vn 1.000000 0.000000 -0.000001
vn 1.000000 0.000000 -0.000001
vn 1.000000 0.000000 0.000000
vn 0.000000 -0.923880 0.382684
vn 0.000000 -0.923880 0.382684
vn 0.000000 -0.980785 0.195090
vn 0.000000 -0.980785 0.195090
s off
g Pipe1
usemtl Pipe_2SG
f 14/329/1 13/332/2 30/298/3 31/294/4
f 15/321/5 14/329/6 31/294/7 32/287/8
f 16/316/9 15/321/10 32/287/11 33/282/12
f 17/309/13 16/316/14 33/282/15 34/277/16
f 9/310/17 17/309/18 34/277/19 26/275/20
f 1/22/21 2/35/22 19/68/23 18/67/24
f 2/35/25 3/39/26 20/70/27 19/68/28
f 3/39/29 4/41/30 21/75/31 20/70/32
f 4/41/33 5/45/34 22/79/35 21/75/36
f 5/45/37 6/49/38 23/83/39 22/79/40
f 6/49/41 7/53/42 24/87/43 23/83/44
f 7/53/45 8/55/46 25/91/47 24/87/48
f 8/55/49 9/57/50 26/94/51 25/91/52
f 11/336/53 10/338/54 27/305/55 28/303/56
f 12/334/57 11/336/58 28/303/59 29/300/60
f 13/332/61 12/334/62 29/300/63 30/298/64
f 19/68/65 20/70/66 37/104/67 36/102/68
f 20/70/69 21/75/70 38/107/71 37/104/72
f 28/303/73 27/305/74 44/270/75 45/268/76
f 21/75/77 22/79/78 39/113/79 38/107/80
f 29/300/81 28/303/82 45/268/83 46/266/84
f 22/79/85 23/83/86 40/118/87 39/113/88
f 30/298/89 29/300/90 46/266/91 47/264/92
f 23/83/93 24/87/94 41/123/95 40/118/96
f 31/294/97 30/298/98 47/264/99 48/261/100
f 24/87/101 25/91/102 42/127/103 41/123/104
f 32/287/105 31/294/106 48/261/107 49/254/108
f 25/91/109 26/94/110 43/131/111 42/127/112
f 33/282/113 32/287/114 49/254/115 50/249/116
f 34/277/117 33/282/118 50/249/119 51/244/120
f 26/275/121 34/277/122 51/244/123 43/239/124
f 18/67/125 19/68/126 36/102/127 35/101/128
f 35/101/129 36/102/130 53/137/131 52/141/132
f 36/102/133 37/104/134 54/135/135 53/137/136
f 37/104/137 38/107/138 55/139/139 54/135/140
f 38/107/141 39/113/142 56/142/143 55/139/144
f 39/113/145 40/118/146 57/146/147 56/142/148
f 40/118/149 41/123/150 58/156/151 57/146/152
f 41/123/153 42/127/154 59/162/155 58/156/156
f 42/127/157 43/131/158 60/166/159 59/162/160
f 45/268/161 44/270/162 61/230/163 62/233/164
f 46/266/165 45/268/166 62/233/167 63/235/168
f 47/264/169 46/266/170 63/235/171 64/231/172
f 48/261/173 47/264/174 64/231/175 65/228/176
f 49/254/177 48/261/178 65/228/179 66/226/180
f 50/249/181 49/254/182 66/226/183 67/225/184
f 51/244/185 50/249/186 67/225/187 68/214/188
f 43/239/189 51/244/190 68/214/191 60/208/192
f 80/330/193 95/297/194 94/299/195 79/333/196
f 81/322/197 96/289/198 95/297/199 80/330/200
f 82/318/201 97/284/202 96/289/203 81/322/204
f 83/312/205 98/280/206 97/284/207 82/318/208
f 76/314/209 91/279/210 98/280/211 83/312/212
f 1/22/213 18/67/214 84/69/215 69/37/216
f 69/37/217 84/69/218 85/72/219 70/40/220
f 70/40/221 85/72/222 86/77/223 71/42/224
f 71/42/225 86/77/226 87/80/227 72/47/228
f 72/47/229 87/80/230 88/84/231 73/50/232
f 73/50/233 88/84/234 89/88/235 74/54/236
f 74/54/237 89/88/238 90/92/239 75/59/240
f 75/59/241 90/92/242 91/96/243 76/60/244
f 77/337/245 92/304/246 27/305/247 10/338/248
f 78/335/249 93/301/250 92/304/251 77/337/252
f 79/333/253 94/299/254 93/301/255 78/335/256
f 84/69/257 99/103/258 100/105/259 85/72/260
f 85/72/261 100/105/262 101/110/263 86/77/264
f 92/304/265 107/269/266 44/270/267 27/305/268
f 86/77/269 101/110/270 102/114/271 87/80/272
f 93/301/273 108/267/274 107/269/275 92/304/276
f 87/80/277 102/114/278 103/120/279 88/84/280
f 94/299/281 109/265/282 108/267/283 93/301/284
f 88/84/285 103/120/286 104/124/287 89/88/288
f 95/297/289 110/263/290 109/265/291 94/299/292
f 89/88/293 104/124/294 105/128/295 90/92/296
f 96/289/297 111/256/298 110/263/299 95/297/300
f 90/92/301 105/128/302 106/133/303 91/96/304
f 97/284/305 112/250/306 111/256/307 96/289/308
f 98/280/309 113/246/310 112/250/311 97/284/312
f 91/279/313 106/240/314 113/246/315 98/280/316
f 18/67/317 35/101/318 99/103/319 84/69/320
f 35/101/321 52/141/322 114/138/323 99/103/324
f 99/103/325 114/138/326 115/136/327 100/105/328
f 100/105/329 115/136/330 116/140/331 101/110/332
f 101/110/333 116/140/334 117/143/335 102/114/336
f 102/114/337 117/143/338 118/148/339 103/120/340
f 103/120/341 118/148/342 119/155/343 104/124/344
f 104/124/345 119/155/346 120/161/347 105/128/348
f 105/128/349 120/161/350 121/165/351 106/133/352
f 107/269/353 122/234/354 61/230/355 44/270/356
f 108/267/357 123/236/358 122/234/359 107/269/360
f 109/265/361 124/232/362 123/236/363 108/267/364
f 110/263/365 125/229/366 124/232/367 109/265/368
f 111/256/369 126/227/370 125/229/371 110/263/372
f 112/250/373 127/224/374 126/227/375 111/256/376
f 113/246/377 128/213/378 127/224/379 112/250/380
f 106/240/381 121/207/382 128/213/383 113/246/384
f 207/5/385 208/4/386 80/181/387 79/180/388
f 200/29/389 72/191/390 73/190/391 201/30/392
f 129/34/393 1/186/394 69/194/395 197/26/396
f 138/8/397 205/7/398 77/178/399 10/177/400
f 209/3/401 210/2/402 82/183/403 81/182/404
f 208/4/405 209/3/406 81/182/407 80/181/408
f 206/6/409 207/5/410 79/180/411 78/179/412
f 205/7/413 206/6/414 78/179/415 77/178/416
f 210/2/417 211/1/418 83/184/419 82/183/420
f 197/26/421 69/194/422 70/193/423 198/27/424
f 201/30/425 73/190/426 74/189/427 202/31/428
f 199/28/429 71/192/430 72/191/431 200/29/432
f 203/32/433 75/188/434 76/187/435 204/33/436
f 211/1/437 204/339/438 76/185/439 83/184/440
f 198/27/441 70/193/442 71/192/443 199/28/444
f 135/19/445 136/18/446 8/201/447 7/200/448
f 141/11/449 13/174/450 14/173/451 142/12/452
f 133/21/453 134/20/454 6/199/455 5/198/456
f 129/34/457 130/25/458 2/195/459 1/186/460
f 138/8/461 10/177/462 11/176/463 139/9/464
f 143/13/465 15/172/466 16/171/467 144/14/468
f 142/12/469 14/173/470 15/172/471 143/13/472
f 140/10/473 12/175/474 13/174/475 141/11/476
f 139/9/477 11/176/478 12/175/479 140/10/480
f 144/14/481 16/171/482 17/170/483 145/15/484
f 130/25/485 131/24/486 3/196/487 2/195/488
f 134/20/489 135/19/490 7/200/491 6/199/492
f 132/23/493 133/21/494 5/198/495 4/197/496
f 136/18/497 137/17/498 9/202/499 8/201/500
f 145/15/501 17/170/502 9/169/503 137/16/504
f 131/24/505 132/23/506 4/197/507 3/196/508
f 119/155/509 247/209/510 248/205/511 120/161/512
f 125/229/513 253/154/514 252/151/515 124/232/516
f 117/143/517 245/216/518 246/212/519 118/148/520
f 52/141/521 180/217/522 242/221/523 114/138/524
f 122/234/525 250/149/526 189/152/527 61/230/528
f 127/224/529 255/159/530 254/158/531 126/227/532
f 126/227/533 254/158/534 253/154/535 125/229/536
f 124/232/537 252/151/538 251/145/539 123/236/540
f 123/236/541 251/145/542 250/149/543 122/234/544
f 128/213/545 256/163/546 255/159/547 127/224/548
f 114/138/549 242/221/550 243/223/551 115/136/552
f 118/148/553 246/212/554 247/209/555 119/155/556
f 116/140/557 244/219/558 245/216/559 117/143/560
f 120/161/561 248/205/562 249/203/563 121/165/564
f 121/207/565 249/167/566 256/163/567 128/213/568
f 115/136/569 243/223/570 244/219/571 116/140/572
f 59/162/573 187/206/574 186/210/575 58/156/576
f 64/231/577 192/150/578 193/153/579 65/228/580
f 57/146/581 185/211/582 184/215/583 56/142/584
f 53/137/585 181/220/586 180/217/587 52/141/588
f 61/230/589 189/152/590 190/147/591 62/233/592
f 66/226/593 194/157/594 195/160/595 67/225/596
f 65/228/597 193/153/598 194/157/599 66/226/600
f 63/235/601 191/144/602 192/150/603 64/231/604
f 62/233/605 190/147/606 191/144/607 63/235/608
f 67/225/609 195/160/610 196/164/611 68/214/612
f 54/135/613 182/222/614 181/220/615 53/137/616
f 58/156/617 186/210/618 185/211/619 57/146/620
f 56/142/621 184/215/622 183/218/623 55/139/624
f 60/166/625 188/204/626 187/206/627 59/162/628
f 68/214/629 196/164/630 188/168/631 60/208/632
f 55/139/633 183/218/634 182/222/635 54/135/636
f 142/51/637 159/85/638 158/81/639 141/46/640
f 143/56/641 160/89/642 159/85/643 142/51/644
f 144/61/645 161/93/646 160/89/647 143/56/648
f 145/64/649 162/97/650 161/93/651 144/61/652
f 137/63/653 154/98/654 162/97/655 145/64/656
f 129/331/657 146/296/658 147/293/659 130/327/660
f 130/327/661 147/293/662 148/291/663 131/325/664
f 131/325/665 148/291/666 149/288/667 132/323/668
f 132/323/669 149/288/670 150/285/671 133/319/672
f 133/319/673 150/285/674 151/281/675 134/315/676
f 134/315/677 151/281/678 152/276/679 135/311/680
f 135/311/681 152/276/682 153/273/683 136/306/684
f 136/306/685 153/273/686 154/271/687 137/302/688
f 139/36/689 156/73/690 155/71/691 138/340/692
f 140/43/693 157/76/694 156/73/695 139/36/696
f 141/46/697 158/81/698 157/76/699 140/43/700
f 147/293/701 164/259/702 165/257/703 148/291/704
f 148/291/705 165/257/706 166/253/707 149/288/708
f 156/73/709 173/108/710 172/106/711 155/71/712
f 149/288/713 166/253/714 167/251/715 150/285/716
f 157/76/717 174/111/718 173/108/719 156/73/720
f 150/285/721 167/251/722 168/247/723 151/281/724
f 158/81/725 175/115/726 174/111/727 157/76/728
f 151/281/729 168/247/730 169/243/731 152/276/732
f 159/85/733 176/117/734 175/115/735 158/81/736
f 152/276/737 169/243/738 170/241/739 153/273/740
f 160/89/741 177/121/742 176/117/743 159/85/744
f 153/273/745 170/241/746 171/237/747 154/271/748
f 161/93/749 178/125/750 177/121/751 160/89/752
f 162/97/753 179/129/754 178/125/755 161/93/756
f 154/98/757 171/132/758 179/129/759 162/97/760
f 146/296/761 163/262/762 164/259/763 147/293/764
f 163/262/765 180/217/766 181/220/767 164/259/768
f 164/259/769 181/220/770 182/222/771 165/257/772
f 165/257/773 182/222/774 183/218/775 166/253/776
f 166/253/777 183/218/778 184/215/779 167/251/780
f 167/251/781 184/215/782 185/211/783 168/247/784
f 168/247/785 185/211/786 186/210/787 169/243/788
f 169/243/789 186/210/790 187/206/791 170/241/792
f 170/241/793 187/206/794 188/204/795 171/237/796
f 173/108/797 190/147/798 189/152/799 172/106/800
f 174/111/801 191/144/802 190/147/803 173/108/804
f 175/115/805 192/150/806 191/144/807 174/111/808
f 176/117/809 193/153/810 192/150/811 175/115/812
f 177/121/813 194/157/814 193/153/815 176/117/816
f 178/125/817 195/160/818 194/157/819 177/121/820
f 179/129/821 196/164/822 195/160/823 178/125/824
f 171/132/825 188/168/826 196/164/827 179/129/828
f 208/52/829 207/48/830 222/82/831 223/86/832
f 209/58/833 208/52/834 223/86/835 224/90/836
f 210/62/837 209/58/838 224/90/839 225/95/840
f 211/66/841 210/62/842 225/95/843 226/99/844
f 204/65/845 211/66/846 226/99/847 219/100/848
f 129/331/849 197/328/850 212/295/851 146/296/852
f 197/328/853 198/326/854 213/292/855 212/295/856
f 198/326/857 199/324/858 214/290/859 213/292/860
f 199/324/861 200/320/862 215/286/863 214/290/864
f 200/320/865 201/317/866 216/283/867 215/286/868
f 201/317/869 202/313/870 217/278/871 216/283/872
f 202/313/873 203/308/874 218/274/875 217/278/876
f 203/308/877 204/307/878 219/272/879 218/274/880
f 205/38/881 138/340/882 155/71/883 220/74/884
f 206/44/885 205/38/886 220/74/887 221/78/888
f 207/48/889 206/44/890 221/78/891 222/82/892
f 212/295/893 213/292/894 228/258/895 227/260/896
f 213/292/897 214/290/898 229/255/899 228/258/900
f 220/74/901 155/71/902 172/106/903 235/109/904
f 214/290/905 215/286/906 230/252/907 229/255/908
f 221/78/909 220/74/910 235/109/911 236/112/912
f 215/286/913 216/283/914 231/248/915 230/252/916
f 222/82/917 221/78/918 236/112/919 237/116/920
f 216/283/921 217/278/922 232/245/923 231/248/924
f 223/86/925 222/82/926 237/116/927 238/119/928
f 217/278/929 218/274/930 233/242/931 232/245/932
f 224/90/933 223/86/934 238/119/935 239/122/936
f 218/274/937 219/272/938 234/238/939 233/242/940
f 225/95/941 224/90/942 239/122/943 240/126/944
f 226/99/945 225/95/946 240/126/947 241/130/948
f 219/100/949 226/99/950 241/130/951 234/134/952
f 146/296/953 212/295/954 227/260/955 163/262/956
f 163/262/957 227/260/958 242/221/959 180/217/960
f 227/260/961 228/258/962 243/223/963 242/221/964
f 228/258/965 229/255/966 244/219/967 243/223/968
f 229/255/969 230/252/970 245/216/971 244/219/972
f 230/252/973 231/248/974 246/212/975 245/216/976
f 231/248/977 232/245/978 247/209/979 246/212/980
f 232/245/981 233/242/982 248/205/983 247/209/984
f 233/242/985 234/238/986 249/203/987 248/205/988
f 235/109/989 172/106/990 189/152/991 250/149/992
f 236/112/993 235/109/994 250/149/995 251/145/996
f 237/116/997 236/112/998 251/145/999 252/151/1000
f 238/119/1001 237/116/1002 252/151/1003 253/154/1004
f 239/122/1005 238/119/1006 253/154/1007 254/158/1008
f 240/126/1009 239/122/1010 254/158/1011 255/159/1012
f 241/130/1013 240/126/1014 255/159/1015 256/163/1016
f 234/134/1017 241/130/1018 256/163/1019 249/167/1020
f 202/31/1021 74/189/1022 75/188/1023 203/32/1024
