# This file uses centimeters as units for non-parametric coordinates.

mtllib Rock4.mtl
g default
v -14.130575 0.000004 8.046643
v -9.762369 8.099607 4.852874
v -14.130575 0.000000 -14.458041
v -12.147087 12.178653 -9.730383
v 8.374136 0.000004 8.046643
v 6.390647 10.381005 3.318979
v 8.374136 0.000000 -14.458041
v 5.471143 13.110714 -2.304015
v 6.411671 7.844262 -13.023222
v -5.918818 13.058312 -10.321815
v 5.930895 11.745859 0.507482
v -4.632343 11.821383 -1.619462
v 10.919365 0.000002 14.458041
v 9.996941 4.086886 11.888188
v 0.027501 0.000000 11.246835
v 2.598628 3.918944 10.961455
v 14.130575 0.000002 3.566165
v 11.559445 5.238030 3.851545
v 3.238711 0.000000 0.354959
v 8.706812 5.487857 3.494220
v 3.653113 2.830519 1.509491
v 3.201101 4.362802 7.862693
v 10.133129 5.224602 3.672883
v 7.596452 5.262711 8.481806
vt 0.004883 0.004883
vt 0.144036 0.128934
vt 0.173394 0.399779
vt 0.004883 0.596261
vt 0.463928 0.186152
vt 0.470434 0.490884
vt 0.415578 0.284647
vt 0.438844 0.238154
vt 0.599614 0.593107
vt 0.591799 0.006143
vt 0.595372 0.600690
vt 0.595372 0.995117
vt 0.200946 0.995117
vt 0.200946 0.600690
vt 0.264751 0.391475
vt 0.260956 0.247440
vt 0.601785 0.004883
vt 0.690880 0.069365
vt 0.662418 0.206798
vt 0.601785 0.284562
vt 0.836720 0.055974
vt 0.800050 0.229550
vt 0.799157 0.171317
vt 0.878231 0.281349
vt 0.876234 0.004969
vt 0.992511 0.287830
vt 0.992510 0.486849
vt 0.793491 0.486849
vt 0.793491 0.287830
vt 0.736350 0.082760
vt 0.723910 0.163301
vt 0.713861 0.074452
vn -0.960658 0.254843 0.110415
vn -0.960658 0.254843 0.110415
vn -0.960658 0.254843 0.110415
vn -0.960658 0.254843 0.110415
vn 0.976474 0.214994 -0.016596
vn 0.976474 0.214994 -0.016596
vn 0.976474 0.214994 -0.016596
vn 0.967792 0.248960 -0.037400
vn 0.013329 0.392481 0.919664
vn 0.013329 0.392481 0.919664
vn 0.013329 0.392481 0.919664
vn 0.013329 0.392481 0.919664
vn 0.000000 -1.000000 0.000000
vn 0.000000 -1.000000 0.000000
vn 0.000000 -1.000000 0.000000
vn 0.000000 -1.000000 0.000000
vn -0.040812 0.246412 -0.968306
vn -0.040812 0.246412 -0.968306
vn -0.040812 0.246412 -0.968306
vn 0.462063 0.811343 -0.358078
vn 0.462063 0.811343 -0.358078
vn 0.462063 0.811343 -0.358078
vn -0.083474 0.891029 0.446205
vn -0.083474 0.891029 0.446205
vn -0.149182 0.938433 0.311591
vn -0.092671 0.923639 0.371892
vn -0.083474 0.891029 0.446205
vn -0.083474 0.891029 0.446205
vn -0.083474 0.891029 0.446205
vn 0.976474 0.214994 -0.016596
vn 0.976474 0.214994 -0.016596
vn -0.040812 0.246412 -0.968306
vn -0.040812 0.246412 -0.968306
vn -0.165758 0.254843 0.952670
vn -0.165758 0.254843 0.952670
vn -0.165758 0.254843 0.952670
vn -0.165758 0.254843 0.952670
vn 0.260220 0.214994 -0.941309
vn 0.260220 0.214994 -0.941309
vn 0.260220 0.214994 -0.941309
vn 0.148647 0.410594 -0.899620
vn 0.885894 0.392481 0.247289
vn 0.885894 0.392481 0.247289
vn 0.885894 0.392481 0.247289
vn 0.885894 0.392481 0.247289
vn 0.000000 -1.000000 0.000000
vn 0.000000 -1.000000 0.000000
vn 0.000000 -1.000000 0.000000
vn 0.000000 -1.000000 0.000000
vn -0.940322 0.246412 -0.234683
vn -0.940322 0.246412 -0.234683
vn -0.940322 0.246412 -0.234683
vn -0.212794 0.811343 -0.544464
vn -0.212794 0.811343 -0.544464
vn -0.212794 0.811343 -0.544464
vn 0.404385 0.891029 0.206250
vn 0.404385 0.891029 0.206250
vn -0.027959 0.986330 0.162392
vn 0.065774 0.993230 0.095746
vn 0.404385 0.891029 0.206250
vn 0.404385 0.891029 0.206250
vn 0.404385 0.891029 0.206250
vn 0.260220 0.214994 -0.941309
vn 0.260220 0.214994 -0.941309
vn -0.940322 0.246412 -0.234683
vn -0.940322 0.246412 -0.234683
s off
g Rock4
usemtl initialShadingGroup
f 1/1/1 2/2/2 4/3/3 3/4/4
s 1
f 6/5/5 9/6/6 8/7/7 11/8/8
s off
f 5/10/9 6/5/10 2/2/11 1/1/12
f 3/11/13 7/12/14 5/13/15 1/14/16
s 2
f 9/6/17 4/3/18 10/15/19
s off
f 8/7/20 9/6/21 10/15/22
s 3
f 8/7/23 10/15/24 12/16/25 11/8/26
f 11/8/26 12/16/25 2/2/27 6/5/28
f 2/2/27 12/16/25 10/15/24 4/3/29
s 1
f 7/9/30 9/6/6 6/5/5 5/10/31
s 2
f 3/4/32 4/3/18 9/6/17 7/9/33
s off
f 13/20/34 14/19/35 16/22/36 15/24/37
s 4
f 18/18/38 21/21/39 20/30/40 23/32/41
s off
f 17/17/42 18/18/43 14/19/44 13/20/45
f 15/26/46 19/27/47 17/28/48 13/29/49
s 5
f 21/21/50 16/22/51 22/23/52
s off
f 20/30/53 21/21/54 22/23/55
s 6
f 20/30/56 22/23/57 24/31/58 23/32/59
f 23/32/59 24/31/58 14/19/60 18/18/61
f 14/19/60 24/31/58 22/23/57 16/22/62
s 4
f 19/25/63 21/21/39 18/18/38 17/17/64
s 5
f 15/24/65 16/22/51 21/21/50 19/25/66
