# This file uses centimeters as units for non-parametric coordinates.

mtllib Rock1.mtl
g default
v -4.152783 27.032610 36.752048
v 17.950478 19.785997 -29.959279
v -12.061316 33.167419 -27.639411
v -12.061316 1.522084 -27.639411
v 19.969848 27.032610 24.397679
v 9.117498 28.068578 -41.786864
v -6.906317 38.777361 20.674744
v 13.927208 46.535529 0.000000
v 9.117498 6.620926 -41.786864
v -18.234997 22.412896 -41.786864
v 1.725883 20.682892 -49.177188
v -5.778420 1.522084 25.352623
v -27.854416 22.412896 0.000000
v 13.927208 -1.709737 0.000000
v -12.061316 1.522084 0.000000
v -23.044707 22.412896 -20.893432
v -12.061316 38.235564 0.000000
v 11.522354 37.302054 -20.893432
v 24.122631 22.412896 0.000000
v 11.522354 2.455594 -20.893432
v -6.030658 32.858302 33.816595
v 19.024920 34.474212 13.819705
v 17.822492 29.857475 -10.446716
v 16.620064 25.240737 -34.713137
v 4.558749 14.516911 -48.532842
v -15.148156 11.967490 -34.713137
v -17.553012 11.967490 -10.446716
v -19.957866 11.967490 13.819705
v -6.030658 11.967490 33.816595
v -17.469699 20.235697 26.975126
v -19.957866 32.858302 13.819705
v -17.553012 30.324230 -10.446716
v -15.148156 27.790157 -34.713137
v 4.558749 25.240737 -48.532842
v 10.589407 19.878824 -41.622990
v 16.620064 14.516911 -34.713137
v 17.822492 12.434245 -10.446716
v 19.024920 10.351579 13.819705
vt 0.075145 0.992188
vt 0.936670 0.591881
vt 0.804016 0.501895
vt 0.098453 0.854502
vt 0.860977 0.614945
vt 0.709987 0.542821
vt 0.083808 0.611558
vt 0.124401 0.726088
vt 0.182792 0.810373
vt 0.128199 0.960513
vt 0.054587 0.468889
vt 0.167850 0.555487
vt 0.219506 0.659884
vt 0.263189 0.757465
vt 0.182701 0.928003
vt 0.141820 0.448830
vt 0.285687 0.520603
vt 0.308958 0.614512
vt 0.373573 0.357223
vt 0.459640 0.245694
vt 0.551001 0.259879
vt 0.471405 0.357469
vt 0.304101 0.358182
vt 0.372956 0.244316
vt 0.550352 0.143254
vt 0.609304 0.144075
vt 0.258534 0.259650
vt 0.373324 0.150081
vt 0.507949 0.126597
vt 0.391986 0.047649
vt 0.640064 0.694374
vt 0.518713 0.083475
vt 0.587915 0.091134
vt 0.556536 0.007812
vt 0.705597 0.289619
vt 0.571333 0.473877
vt 0.644117 0.115465
vt 0.744244 0.226435
vt 0.396966 0.517822
vt 0.549327 0.505305
vt 0.644068 0.048640
vt 0.660905 0.092155
vt 0.776862 0.164126
vt 0.099040 0.352595
vt 0.247215 0.493084
vt 0.024651 0.774283
vt 0.663369 0.432071
vt 0.806234 0.078277
vt 0.007812 0.938226
vt 0.990618 0.738953
vt 0.773889 0.738196
vt 0.240365 0.139602
vt 0.918750 0.760872
vn 0.267673 0.827929 0.492834
vn 0.312078 0.781234 0.540630
vn 0.308964 0.784746 0.537322
vn 0.267673 0.827929 0.492834
vn 0.901453 0.403079 -0.157828
vn 0.839178 0.498822 -0.216695
vn 0.759675 0.602231 -0.245381
vn 0.869876 0.447815 -0.206826
vn -0.088332 0.956648 -0.277527
vn -0.088332 0.956648 -0.277527
vn -0.208783 0.953682 -0.216567
vn -0.182572 0.955831 -0.230338
vn 0.700054 0.059257 -0.711627
vn 0.756960 0.000000 -0.653461
vn 0.722944 -0.053154 -0.688859
vn 0.648655 0.000000 -0.761083
vn -0.362918 -0.602108 -0.711166
vn -0.368282 -0.588850 -0.719461
vn -0.400410 -0.499599 -0.768162
vn -0.400410 -0.499599 -0.768162
vn -0.283134 0.687884 -0.668319
vn -0.209251 0.803846 -0.556817
vn -0.184580 0.835215 -0.518021
vn -0.283134 0.687885 -0.668319
vn -0.858955 -0.252492 0.445470
vn -0.844248 -0.013758 0.535777
vn -0.838810 0.314488 0.444405
vn -0.933233 0.000000 0.359270
vn -0.696302 0.707184 -0.122700
vn -0.731948 0.665459 -0.146342
vn -0.725541 0.670829 -0.153552
vn -0.709154 0.688491 -0.151925
vn -0.869686 -0.473648 -0.138938
vn -0.889704 -0.446233 -0.096448
vn -0.833798 -0.548602 -0.061778
vn -0.824289 -0.550642 -0.131685
vn 0.506900 -0.522775 0.685389
vn 0.506955 -0.511481 0.693818
vn 0.496615 -0.662331 0.560974
vn 0.496615 -0.662331 0.560974
vn -0.020767 -0.996685 -0.078656
vn -0.045872 -0.996079 -0.075646
vn 0.064663 -0.993974 -0.088512
vn 0.064663 -0.993974 -0.088512
vn 0.845034 -0.516346 -0.138938
vn 0.880360 -0.455051 -0.133768
vn 0.924024 -0.373813 -0.080270
vn 0.889014 -0.438534 -0.131685
vn -0.763170 -0.646108 -0.010753
vn -0.765050 -0.632266 -0.122221
vn -0.633533 0.770164 -0.074048
vn -0.693542 0.704556 -0.150333
vn -0.299993 0.939328 -0.166336
vn -0.299993 0.939328 -0.166336
vn 0.923613 0.370550 -0.098143
vn 0.929123 0.326145 -0.174243
vn 0.944240 -0.329232 -0.004050
vn 0.930084 -0.346420 -0.122221
vn -0.123136 -0.990189 -0.066053
vn -0.123136 -0.990189 -0.066053
vn 0.376781 0.699117 0.607677
vn 0.376781 0.699117 0.607677
vn 0.911228 0.411270 -0.022814
vn 0.918252 0.388737 -0.075482
vn 0.923174 0.344002 -0.171503
vn 0.788371 -0.048021 -0.613322
vn 0.751272 -0.075303 -0.655682
vn -0.341051 -0.652236 -0.676958
vn -0.341051 -0.652236 -0.676958
vn -0.911281 -0.409615 -0.042221
vn -0.814107 -0.580072 0.027316
vn -0.757086 -0.650630 0.059171
vn -0.715294 -0.490071 0.498180
vn -0.707154 -0.373452 0.600389
vn -0.591804 0.000000 0.806082
vn -0.688325 0.415213 0.594817
vn -0.684338 0.551828 0.476620
vn -0.585943 0.810116 -0.019590
vn -0.622621 0.781343 -0.042954
vn -0.745889 0.653215 -0.130229
vn -0.140408 0.883506 -0.446880
vn -0.140408 0.883506 -0.446880
vn 0.747844 0.121347 -0.652690
vn 0.807228 0.052668 -0.587886
vn 0.845668 0.000000 -0.533709
vn 0.931157 -0.343177 -0.123191
vn 0.946097 -0.322266 0.032333
vn 0.946113 -0.315317 0.073799
vn 0.500508 -0.376374 0.779638
vn 0.500508 -0.376374 0.779638
s 1
g Rock1
usemtl initialShadingGroup
f 7/39/1 21/17/2 22/19/3 8/22/4
s 2
f 23/20/5 24/25/6 6/26/7 18/21/8
s 3
f 6/26/9 3/35/10 17/36/11 18/21/12
s 4
f 34/37/13 35/33/14 25/41/15 11/42/16
s 5
f 25/41/17 26/48/18 10/43/19 11/42/20
s 6
f 10/43/21 33/38/22 34/37/23 11/42/24
s 7
f 28/7/25 30/12/26 31/13/27 13/8/28
s 8
f 32/9/29 33/10/30 10/1/31 16/4/32
s 9
f 10/1/33 26/49/34 27/46/35 16/4/36
s 10
f 38/27/37 29/16/38 12/44/39 14/52/40
s 11
f 20/51/41 15/6/42 4/5/43 9/53/44
s 12
f 9/34/45 36/32/46 37/28/47 20/30/48
s 9
f 16/4/36 27/46/35 28/7/49 13/8/50
s 8
f 31/13/51 32/9/29 16/4/32 13/8/52
s 3
f 18/21/12 17/36/11 7/39/53 8/22/54
s 2
f 22/19/55 23/20/5 18/21/8 8/22/56
s 12
f 20/30/48 37/28/47 38/27/57 14/52/58
s 11
f 12/40/59 15/6/42 20/51/41 14/31/60
s 1
f 21/17/2 1/45/61 5/23/62 22/19/3
s 2
f 5/23/63 19/24/64 23/20/5 22/19/55
f 19/24/64 2/29/65 24/25/6 23/20/5
s 4
f 25/41/15 35/33/14 36/32/66 9/34/67
s 5
f 9/53/68 4/5/69 26/2/18 25/50/17
s 9
f 27/3/35 26/2/34 4/5/70 15/6/71
f 28/47/49 27/3/35 15/6/71 12/40/72
s 7
f 12/11/73 29/16/74 30/12/26 28/7/25
f 29/16/74 1/45/75 21/17/76 30/12/26
f 31/13/27 30/12/26 21/17/76 7/18/77
s 8
f 7/18/78 17/14/79 32/9/29 31/13/51
f 17/14/79 3/15/80 33/10/30 32/9/29
s 6
f 34/37/23 33/38/22 3/35/81 6/26/82
s 4
f 6/26/83 24/25/84 35/33/14 34/37/13
f 36/32/66 35/33/14 24/25/84 2/29/85
s 12
f 37/28/47 36/32/46 2/29/86 19/24/87
f 38/27/57 37/28/47 19/24/87 5/23/88
s 10
f 5/23/89 1/45/90 29/16/38 38/27/37
