# This file uses centimeters as units for non-parametric coordinates.

mtllib Rock2.mtl
g default
v -33.905815 0.000044 34.974735
v 30.728945 -0.000019 35.555763
v -10.081486 258.617676 -41.292542
v 10.081486 264.803162 -41.292542
v -12.330169 261.295166 -60.257835
v 10.081486 267.482422 -61.455498
v -38.678658 -0.000051 -38.678658
v 38.678658 -0.000051 -38.678658
v 0.000000 260.907227 -33.995770
v 0.000000 264.381927 -61.455498
v 0.000000 -0.000051 -44.478519
v 0.000000 -0.000051 40.175579
v -30.372746 133.818192 3.788952
v -30.372746 133.818192 -56.956528
v 0.000000 133.818192 -56.956528
v 30.372746 133.818192 -56.956528
v 30.372746 133.818192 3.788952
v 0.000000 133.818192 7.079432
v 0.000000 231.518295 -12.097349
v -23.589815 239.505753 -16.287146
v -23.589815 239.505753 -63.466763
v 0.000000 239.505753 -63.466763
v 23.589815 239.505753 -63.466763
v 23.589815 239.505753 -16.287146
v 0.000000 66.986069 23.453619
v -34.460976 66.986069 21.278246
v -34.460976 66.986069 -47.643703
v 0.000000 66.986069 -47.643703
v 34.460976 66.986069 -47.643703
v 34.460976 66.986069 21.278246
v -27.568586 239.505753 -39.876953
v -36.587639 133.818192 -26.583790
v -40.231140 66.986069 -13.182731
v -42.117363 -0.000051 0.000000
v 0.000000 -0.000051 -2.151470
v 38.678658 -0.000051 0.000000
v 34.460976 66.986069 -13.182731
v 30.372746 133.818192 -26.583790
v 23.589815 239.505753 -39.876953
v 10.081486 263.554535 -51.374020
v 0.000000 267.482422 -47.725632
v -10.081486 267.482422 -51.374020
v 38.678658 -0.000051 19.339329
v 0.000000 -0.000051 19.012053
v -40.398010 -0.000051 19.339329
v -37.346058 66.986069 4.047757
v -33.480190 133.818192 -11.397419
v -25.579201 239.505753 -28.082052
v -10.081486 263.227051 -46.333282
v 0.000000 263.227051 -40.860699
v 10.081486 263.554535 -46.333282
v 23.589815 239.505753 -28.082052
v 30.372746 133.818192 -11.397419
v 34.460976 66.986069 4.047757
v -15.369716 251.347916 -29.086815
v -17.830343 253.494110 -37.207664
v -18.825037 253.494110 -45.625484
v -16.835651 253.494110 -62.461132
v 0.000000 253.494110 -62.461132
v 16.835651 253.494110 -62.461132
v 16.914921 258.935028 -47.669868
v 16.914921 258.935028 -39.252045
v 16.835651 253.494110 -28.789845
v 0.000000 249.500366 -23.046555
v -8.417826 251.497223 -25.918200
v -11.794907 235.512024 -14.192247
v -15.186373 133.818192 5.434192
v -17.230488 66.986069 22.365932
v -16.952908 -0.000003 37.575153
v -20.199005 -0.000051 19.175692
v -21.058681 -0.000051 -1.075735
v -19.339329 -0.000051 -41.578587
v -17.230488 66.986069 -47.643703
v -15.186373 133.818192 -56.956528
v -11.794907 239.505753 -63.466763
v -8.417826 253.494110 -62.461132
v -5.040743 264.381927 -61.455498
v -5.040743 267.482422 -49.549824
v -5.040743 263.227051 -43.596992
v -5.040743 258.617676 -37.644154
v 8.417826 251.497223 -25.918200
v 11.794907 235.512024 -14.192247
v 15.186373 133.818192 5.434192
v 17.230488 66.986069 22.365932
v 15.364472 -0.000035 37.865669
v 19.339329 -0.000051 19.175692
v 19.339329 -0.000051 -1.075735
v 19.339329 -0.000051 -41.578587
v 17.230488 66.986069 -47.643703
v 15.186373 133.818192 -56.956528
v 11.794907 239.505753 -63.466763
v 8.417826 253.494110 -62.461132
v 5.040743 267.482422 -61.455498
v 5.040743 267.482422 -49.549824
v 5.040743 267.482422 -43.596992
v 5.040743 264.887726 -37.644154
vt 0.501476 0.031703
vt 0.708172 0.007812
vt 0.634683 0.837868
vt 0.726324 0.844394
vt 0.554384 0.874245
vt 0.498351 0.935631
vt 0.082232 0.737887
vt 0.314529 0.772863
vt 0.063264 0.961219
vt 0.257093 0.992188
vt 0.945026 0.036761
vt 0.787892 0.886724
vt 0.277982 0.121292
vt 0.684088 0.824652
vt 0.520030 0.909058
vt 0.201003 0.737959
vt 0.609585 0.014315
vt 0.162728 0.992167
vt 0.564877 0.437648
vt 0.391433 0.516966
vt 0.308538 0.556747
vt 0.225651 0.596586
vt 0.938710 0.464414
vt 0.754988 0.420250
vt 0.659426 0.425596
vt 0.683491 0.715095
vt 0.625134 0.740655
vt 0.518768 0.810472
vt 0.465523 0.850366
vt 0.404903 0.887305
vt 0.862378 0.801772
vt 0.745653 0.736862
vt 0.634165 0.221418
vt 0.529425 0.235635
vt 0.332365 0.321479
vt 0.233616 0.360873
vt 0.136076 0.400659
vt 0.946962 0.248469
vt 0.739095 0.212804
vt 0.572832 0.774865
vt 0.476371 0.474949
vt 0.430258 0.276171
vt 0.392161 0.072190
vt 0.054418 0.852481
vt 0.181866 0.865063
vt 0.297041 0.889011
vt 0.825906 0.020223
vt 0.842969 0.230048
vt 0.847578 0.441699
vt 0.801513 0.769853
vt 0.722793 0.877853
vt 0.765564 0.861461
vt 0.684450 0.869261
vt 0.600565 0.877443
vt 0.651501 0.879753
vt 0.288297 0.947086
vt 0.765406 0.012548
vt 0.172297 0.928615
vt 0.450095 0.049376
vt 0.050838 0.911332
vt 0.479839 0.255531
vt 0.520148 0.455910
vt 0.599535 0.758047
vt 0.616006 0.858483
vt 0.646268 0.859334
vt 0.681779 0.845523
vt 0.724309 0.861778
vt 0.747440 0.852780
vt 0.773089 0.753199
vt 0.801638 0.430607
vt 0.790985 0.221220
vt 0.634407 0.791365
vt 0.616262 0.810655
vt 0.591411 0.825633
vt 0.539259 0.849608
vt 0.497272 0.883421
vt 0.451717 0.913475
vt 0.822415 0.846286
vt 0.772400 0.835346
vt 0.751045 0.820527
vt 0.739209 0.789619
vt 0.684506 0.778251
vt 0.658239 0.788216
vt 0.654252 0.728544
vt 0.612045 0.431213
vt 0.581770 0.228209
vt 0.555530 0.022537
vt 0.112996 0.976693
vt 0.111567 0.919974
vt 0.118142 0.858772
vt 0.220444 0.144125
vt 0.282810 0.340945
vt 0.349868 0.536744
vt 0.492978 0.830695
vt 0.520140 0.867430
vt 0.668438 0.911991
vt 0.667274 0.874591
vt 0.662648 0.852661
vt 0.659568 0.830435
vt 0.710712 0.785514
vt 0.714534 0.726450
vt 0.707166 0.422527
vt 0.686757 0.216913
vt 0.658895 0.010694
vt 0.209911 0.992177
vt 0.230297 0.937850
vt 0.239453 0.877037
vt 0.106951 0.188541
vt 0.184767 0.380835
vt 0.267252 0.576624
vt 0.435944 0.869303
vt 0.474584 0.898834
vt 0.703846 0.910468
vt 0.701985 0.874298
vt 0.703330 0.856606
vt 0.704019 0.838507
vt 0.257766 0.755411
vt 0.050838 0.209466
vt 0.141618 0.737923
vt 0.163512 0.166927
vt 0.511748 0.926249
vt 0.719572 0.911140
vt 0.535422 0.898535
vt 0.684731 0.911964
vt 0.643556 0.912301
vn -0.104640 0.220041 0.969862
vn -0.004207 0.232062 0.972692
vn -0.002167 0.237384 0.971414
vn -0.093336 0.233100 0.967963
vn -0.331041 0.770085 0.545327
vn -0.396735 0.827662 0.396959
vn -0.199215 0.973958 0.108256
vn -0.144652 0.989374 0.014672
vn -0.041784 -0.111116 -0.992929
vn 0.000000 -0.100783 -0.994909
vn 0.000000 -0.067495 -0.997720
vn -0.078744 -0.088003 -0.993003
vn 0.000000 -1.000000 0.000000
vn 0.000000 -1.000000 0.000000
vn -0.000000 -1.000000 0.000000
vn -0.000001 -1.000000 0.000001
vn 0.996904 0.060458 0.050278
vn 0.990091 0.058646 0.127598
vn 0.998024 0.062839 0.000000
vn 0.998074 0.062040 0.000000
vn -0.998825 0.039880 -0.027539
vn -0.975821 0.070898 0.206752
vn -0.979381 0.083443 0.183985
vn -0.997878 0.043630 -0.048323
vn 0.072785 0.973640 0.216165
vn 0.559359 0.828200 0.034673
vn 0.461344 0.880095 0.112224
vn 0.064682 0.997179 0.038076
vn 0.078744 -0.088003 -0.993003
vn 0.041784 -0.111116 -0.992929
vn 0.043258 -0.121328 -0.991669
vn 0.078593 -0.107478 -0.991096
vn 0.000000 -1.000000 0.000000
vn 0.000000 -1.000000 0.000000
vn 0.000000 -1.000000 0.000000
vn 0.000000 -1.000000 0.000001
vn 0.091251 0.232160 0.968388
vn 0.091281 0.234262 0.967879
vn 0.101088 0.221977 0.969798
vn 0.101322 0.211817 0.972043
vn -0.996066 0.061875 -0.063429
vn -0.977985 0.100218 0.183036
vn -0.969689 0.156165 0.187924
vn -0.991311 0.111021 -0.070553
vn 0.000000 -0.049496 -0.998774
vn 0.000000 -0.049496 -0.998774
vn 0.000000 -0.094737 -0.995502
vn 0.000000 -0.094737 -0.995502
vn 0.000000 -0.096238 -0.995358
vn 0.000000 -0.094737 -0.995502
vn 0.000000 -0.049496 -0.998774
vn 0.000000 -0.053019 -0.998594
vn 0.998029 0.062757 0.000000
vn 0.998032 0.062707 0.000000
vn 0.995520 0.094503 -0.002966
vn 0.994716 0.102372 0.007778
vn 0.092453 0.263772 0.960144
vn 0.097016 0.246630 0.964242
vn 0.095628 0.216400 0.971610
vn 0.095402 0.219098 0.971028
vn -0.095628 0.216400 0.971610
vn -0.000000 0.215716 0.976456
vn -0.000000 0.226604 0.973987
vn -0.100971 0.246945 0.963755
vn -0.027789 0.603902 0.796574
vn -0.135596 0.700373 0.700779
vn -0.853831 0.519776 -0.028388
vn -0.710013 0.661625 0.241109
vn -0.022640 0.102742 -0.994450
vn -0.003514 0.076328 -0.997077
vn -0.002845 0.072725 -0.997348
vn 0.000000 0.071706 -0.997426
vn 0.893545 0.447666 -0.034240
vn 0.868761 0.490872 0.065573
vn 0.060045 0.640433 0.765663
vn 0.087024 0.673511 0.734037
vn -0.981952 0.044096 -0.183918
vn -0.978437 0.099481 -0.181012
vn -0.987692 0.025299 -0.154352
vn -0.991868 0.024545 -0.124884
vn 0.000000 -1.000000 0.000000
vn 0.000000 -1.000000 0.000000
vn 0.000000 -1.000000 0.000000
vn 0.000000 -1.000000 0.000000
vn 0.998024 0.062839 0.000000
vn 0.998081 0.061926 0.000000
vn 0.998023 0.062851 0.000000
vn 0.995223 0.097451 -0.005910
vn 0.910910 0.409489 -0.050615
vn 0.383589 0.909111 0.162407
vn 0.017469 0.999697 0.017370
vn -0.132290 0.974894 -0.179115
vn -0.084720 0.946232 -0.312198
vn -0.870580 0.476137 -0.124035
vn 0.000001 -1.000000 0.000001
vn 0.000001 -1.000000 0.000002
vn -0.000000 -1.000000 0.000001
vn -0.000001 -1.000000 0.000003
vn -0.958765 0.077058 0.273554
vn -0.968035 0.087953 0.234890
vn -0.977914 0.101386 0.182771
vn -0.973001 0.132176 0.189206
vn -0.687209 0.676728 0.264164
vn -0.423913 0.761980 0.489576
vn -0.459036 0.803245 0.379582
vn -0.264393 0.920625 0.287308
vn 0.426857 0.897616 0.109905
vn 0.996281 0.085923 0.006370
vn 0.879376 0.461451 0.117311
vn 0.998042 0.062550 0.000000
vn 0.988883 0.057557 0.137102
vn 0.971452 0.054483 0.230896
vn -0.663424 0.688431 0.293140
vn -0.294022 0.826883 0.479392
vn -0.837368 0.545841 -0.029550
vn -0.857044 0.502850 -0.112328
vn -0.036396 0.130934 -0.990723
vn -0.011047 0.083494 -0.996447
vn -0.008347 0.074695 -0.997171
vn 0.000000 0.071706 -0.997426
vn 0.774154 0.632186 -0.032025
vn 0.809648 0.585671 -0.038207
vn 0.577347 0.812996 0.075546
vn 0.599547 0.771812 0.211779
vn 0.162705 0.714168 0.680802
vn 0.212756 0.727318 0.652490
vn -0.274936 0.821682 0.499248
vn -0.083474 0.723387 0.685379
vn -0.103369 0.260763 0.959853
vn -0.130850 0.751319 0.646837
vn -0.095402 0.219098 0.971028
vn -0.093489 0.229995 0.968691
vn -0.104897 0.209119 0.972248
vn -0.000001 -1.000000 0.000002
vn -0.000002 -1.000000 0.000005
vn 0.000000 -1.000000 0.000000
vn 0.000000 -1.000000 0.000000
vn -0.043258 -0.121328 -0.991669
vn -0.078593 -0.107478 -0.991096
vn 0.000000 -0.096238 -0.995358
vn 0.000000 -0.053019 -0.998594
vn -0.023909 0.101481 -0.994550
vn -0.116280 0.215519 -0.969552
vn -0.244256 0.957129 -0.155702
vn -0.206353 0.901497 -0.380422
vn -0.311535 0.742416 0.593098
vn -0.376916 0.709737 0.595154
vn -0.254622 0.866698 0.428954
s 1
g Rock2
usemtl initialShadingGroup
f 69/87/1 12/17/2 25/33/3 68/86/4
s 2
f 79/98/5 50/66/6 41/53/7 78/97/8
s 3
f 73/92/9 28/36/10 11/120/11 72/91/12
s 4
f 71/90/13 35/45/14 44/58/15 70/89/16
s 5
f 54/71/17 43/57/18 36/47/19 37/48/20
s 6
f 34/43/21 45/59/22 46/61/23 33/42/24
s 2
f 95/115/25 51/67/26 40/51/27 94/114/28
s 3
f 88/108/29 89/109/30 29/37/31 8/118/32
s 4
f 86/106/33 87/107/34 36/46/35 43/56/36
s 1
f 30/39/37 84/103/38 85/104/39 2/2/40
s 6
f 32/41/41 47/62/42 48/63/43 31/40/44
s 3
f 75/94/45 22/29/46 15/21/47 74/93/48
f 16/22/49 90/110/50 91/111/51 23/30/52
s 5
f 53/70/53 38/49/54 39/50/55 52/69/56
s 1
f 24/32/57 82/101/58 83/102/59 17/24/60
f 67/85/61 18/25/62 19/26/63 66/84/64
f 66/84/64 19/26/63 64/82/65 65/83/66
s 6
f 57/74/67 31/40/44 48/63/43 56/73/68
s 3
f 76/95/69 59/76/70 22/29/46 75/94/45
f 23/30/52 91/111/51 92/112/71 60/77/72
s 5
f 52/69/56 39/50/55 61/79/73 62/80/74
s 1
f 81/100/75 82/101/58 24/32/57 63/81/76
f 68/86/4 25/33/3 18/25/62 67/85/61
s 6
f 33/42/24 46/61/23 47/62/42 32/41/41
s 3
f 74/93/48 15/21/47 28/36/10 73/92/9
f 29/37/31 89/109/30 90/110/50 16/22/49
s 5
f 54/71/17 37/48/20 38/49/54 53/70/53
s 1
f 83/102/59 84/103/38 30/39/37 17/24/60
s 6
f 14/20/77 32/41/41 31/40/44 21/28/78
f 27/35/79 33/42/24 32/41/41 14/20/77
f 7/13/80 34/43/21 33/42/24 27/35/79
s 4
f 72/119/81 11/16/82 35/45/14 71/90/13
f 36/46/35 87/107/34 88/117/83 8/8/84
s 5
f 37/48/20 36/47/19 8/11/85 29/38/86
f 38/49/54 37/48/20 29/38/86 16/23/87
f 39/50/55 38/49/54 16/23/87 23/31/88
f 61/79/73 39/50/55 23/31/88 60/78/89
s 2
f 94/114/28 40/51/27 6/122/90 93/113/91
f 78/97/8 41/53/7 10/124/92 77/96/93
s 6
f 21/28/78 31/40/44 57/74/67 58/75/94
s 4
f 85/105/95 86/106/33 43/56/36 2/10/96
f 70/89/16 44/58/15 12/18/97 69/88/98
s 6
f 46/61/23 45/59/22 1/1/99 26/34/100
f 47/62/42 46/61/23 26/34/100 13/19/101
f 48/63/43 47/62/42 13/19/101 20/27/102
f 56/73/68 48/63/43 20/27/102 55/72/103
s 2
f 80/99/104 9/14/105 50/66/6 79/98/5
f 96/116/106 4/4/107 51/67/26 95/115/25
s 5
f 24/32/108 52/69/56 62/80/74 63/81/109
f 17/24/110 53/70/53 52/69/56 24/32/108
f 30/39/111 54/71/17 53/70/53 17/24/110
f 2/2/112 43/57/18 54/71/17 30/39/111
s 6
f 49/64/113 56/73/68 55/72/103 3/3/114
f 42/54/115 57/74/67 56/73/68 49/64/113
f 58/75/94 57/74/67 42/54/115 5/5/116
s 3
f 77/123/117 10/15/118 59/76/70 76/95/69
f 60/77/72 92/112/71 93/121/119 6/6/120
s 5
f 40/52/121 61/79/73 60/78/89 6/12/122
f 62/80/74 61/79/73 40/52/121 51/68/123
f 63/81/109 62/80/74 51/68/123 4/4/124
s 1
f 96/116/125 81/100/75 63/81/76 4/4/126
f 80/99/127 65/83/66 64/82/65 9/14/128
f 20/27/129 66/84/64 65/83/66 55/72/130
f 13/19/131 67/85/61 66/84/64 20/27/129
f 26/34/132 68/86/4 67/85/61 13/19/131
f 1/1/133 69/87/1 68/86/4 26/34/132
s 4
f 45/60/134 70/89/16 69/88/98 1/9/135
f 34/44/136 71/90/13 70/89/16 45/60/134
f 7/7/137 72/119/81 71/90/13 34/44/136
s 3
f 27/35/138 73/92/9 72/91/12 7/13/139
f 14/20/140 74/93/48 73/92/9 27/35/138
f 21/28/141 75/94/45 74/93/48 14/20/140
f 58/75/142 76/95/69 75/94/45 21/28/141
f 5/5/143 77/123/117 76/95/69 58/75/142
s 2
f 42/55/144 78/97/8 77/96/93 5/125/145
f 49/65/146 79/98/5 78/97/8 42/55/144
f 3/3/147 80/99/104 79/98/5 49/65/146
s 1
f 55/72/130 65/83/66 80/99/127 3/3/148
f 64/82/65 19/26/63 82/101/58 81/100/75
f 83/102/59 82/101/58 19/26/63 18/25/62
f 18/25/62 25/33/3 84/103/38 83/102/59
f 85/104/39 84/103/38 25/33/3 12/17/2
s 4
f 12/18/97 44/58/15 86/106/33 85/105/95
f 44/58/15 35/45/14 87/107/34 86/106/33
f 88/117/83 87/107/34 35/45/14 11/16/82
s 3
f 11/120/11 28/36/10 89/109/30 88/108/29
f 90/110/50 89/109/30 28/36/10 15/21/47
f 91/111/51 90/110/50 15/21/47 22/29/46
f 92/112/71 91/111/51 22/29/46 59/76/70
f 93/121/119 92/112/71 59/76/70 10/15/118
s 2
f 41/53/7 94/114/28 93/113/91 10/124/92
f 50/66/6 95/115/25 94/114/28 41/53/7
f 9/14/105 96/116/106 95/115/25 50/66/6
s 1
f 9/14/128 64/82/65 81/100/75 96/116/125
