# This file uses centimeters as units for non-parametric coordinates.

mtllib Rock3.mtl
g default
v -149.589966 0.000022 -239.623749
v -209.202438 83.229630 -250.455399
v -290.279022 0.000031 -184.305328
v -284.180664 58.215115 -223.068008
v -234.911316 83.474594 -328.303711
v -356.892395 0.000005 -341.367462
v -306.626923 58.482189 -304.748932
v -268.555115 0.000000 -374.230408
v -216.522522 53.108879 -355.766266
v -165.871735 0.000009 -316.499207
v -225.348969 0.000084 170.887924
v 3.819386 695.478027 60.692726
v -288.371552 0.000006 -307.018311
v 17.257679 685.562683 -78.019669
v 163.750610 0.000102 280.066650
v 247.341202 0.000014 -257.027283
v 160.260254 633.029724 -35.117180
v -119.351425 483.626343 140.925446
v 138.029877 269.061371 -149.627319
v 144.279175 334.010162 155.183517
v 143.780182 680.900452 39.274605
v 69.606552 705.740784 77.276070
v 133.966156 651.379761 103.424713
v -96.660622 453.418549 -66.045486
v -54.055038 463.855377 -128.721222
v -17.497139 387.669861 -151.466125
v -98.875778 406.236053 -162.968781
v 25.950132 106.792343 310.016174
v 41.403408 0.000048 1.840080
v 52.527378 232.846481 59.140472
v 356.892395 0.000108 374.230408
v 275.833801 166.377197 324.042572
v 320.725800 0.000046 -9.381763
v 262.876709 242.913910 155.459930
v 279.460724 163.533203 40.428398
v 168.797516 260.080566 66.701195
v 50.093029 0.000105 353.614655
v 6.520613 63.990166 323.756409
v -9.091171 0.000092 272.326447
v 338.809082 0.000077 182.424316
vt 0.408619 0.288431
vt 0.467675 0.312721
vt 0.371663 0.323911
vt 0.246966 0.353937
vt 0.417249 0.603310
vt 0.437278 0.518335
vt 0.448658 0.572657
vt 0.568234 0.473673
vt 0.900967 0.504734
vt 0.849038 0.838325
vt 0.607368 0.770505
vt 0.601301 0.448393
vt 0.695573 0.452392
vt 0.640957 0.469362
vt 0.853675 0.054168
vt 0.780240 0.263938
vt 0.598056 0.301294
vt 0.605860 0.007843
vt 0.083143 0.245507
vt 0.224854 0.553724
vt 0.007812 0.569203
vt 0.428637 0.342665
vt 0.472021 0.574976
vt 0.515814 0.606595
vt 0.462262 0.618169
vt 0.557478 0.597627
vt 0.313087 0.016140
vt 0.517105 0.467571
vt 0.460082 0.520376
vt 0.557924 0.510851
vt 0.384732 0.607850
vt 0.353502 0.710492
vt 0.289635 0.767838
vt 0.260593 0.609825
vt 0.368737 0.799063
vt 0.181283 0.727526
vt 0.140894 0.615225
vt 0.638512 0.842605
vt 0.625498 0.892963
vt 0.596913 0.903598
vt 0.677075 0.891803
vt 0.438538 0.827924
vt 0.531517 0.709017
vt 0.167733 0.123118
vt 0.111793 0.181753
vt 0.037514 0.184194
vt 0.007812 0.011567
vt 0.167562 0.007844
vt 0.796235 0.265270
vt 0.969724 0.258300
vt 0.980956 0.377432
vt 0.764873 0.433271
vt 0.992188 0.496564
vt 0.801633 0.483759
vt 0.018862 0.802938
vt 0.047055 0.814420
vt 0.007812 0.752559
vt 0.833696 0.163547
vt 0.860733 0.126842
vt 0.911562 0.134808
vt 0.943538 0.178163
vt 0.876647 0.071928
vt 0.923568 0.090676
vt 0.937788 0.028900
vt 0.893044 0.007812
vt 0.946819 0.081503
vt 0.972938 0.123137
vt 0.149940 0.767288
vt 0.128789 0.885049
vt 0.111048 0.829262
vt 0.228224 0.848429
vt 0.198120 0.759490
vt 0.260816 0.772048
vt 0.264268 0.823890
vt 0.987362 0.048553
vn 0.284407 0.411251 0.866017
vn 0.284407 0.411251 0.866017
vn 0.284407 0.411251 0.866017
vn 0.284407 0.411251 0.866017
vn -0.851403 0.417065 0.318070
vn -0.851403 0.417065 0.318070
vn -0.851403 0.417065 0.318070
vn -0.851403 0.417065 0.318070
vn 0.784778 0.585155 -0.204248
vn 0.784778 0.585155 -0.204248
vn 0.784778 0.585155 -0.204248
vn -0.333706 0.604072 -0.723697
vn -0.333706 0.604072 -0.723697
vn -0.333706 0.604072 -0.723697
vn -0.292722 0.951818 0.091416
vn -0.292722 0.951818 0.091416
vn -0.292722 0.951818 0.091416
vn -0.292722 0.951818 0.091416
vn 0.482570 -0.174381 -0.858322
vn 0.482570 -0.174381 -0.858322
vn 0.482570 -0.174381 -0.858322
vn -0.000000 -1.000000 0.000000
vn -0.000000 -1.000000 0.000000
vn -0.000000 -1.000000 0.000000
vn -0.000000 -1.000000 0.000000
vn -0.000000 -1.000000 0.000000
vn -0.333706 0.604072 -0.723697
vn -0.333706 0.604072 -0.723697
vn 0.784778 0.585155 -0.204248
vn 0.784778 0.585155 -0.204248
vn 0.258093 0.866327 -0.427628
vn 0.258093 0.866327 -0.427628
vn 0.258093 0.866327 -0.427628
vn 0.136964 0.284998 -0.948692
vn 0.136964 0.284998 -0.948692
vn 0.136964 0.284998 -0.948692
vn 0.998369 -0.019122 0.053795
vn 0.998369 -0.019122 0.053795
vn 0.998369 -0.019122 0.053795
vn 0.000000 -1.000000 0.000000
vn 0.000000 -1.000000 0.000000
vn 0.000000 -1.000000 0.000000
vn 0.000000 -1.000000 0.000000
vn -0.028155 0.242555 0.969729
vn -0.028155 0.242555 0.969729
vn -0.028155 0.242555 0.969729
vn -0.176609 -0.012445 0.984202
vn -0.176609 -0.012445 0.984202
vn -0.176609 -0.012445 0.984202
vn -0.176609 -0.012445 0.984202
vn 0.968228 0.243288 0.057836
vn 0.968228 0.243288 0.057836
vn 0.968228 0.243288 0.057836
vn 0.968228 0.243288 0.057836
vn -0.877975 0.433656 -0.202737
vn -0.877975 0.433656 -0.202737
vn -0.877975 0.433656 -0.202737
vn 0.238362 0.242744 -0.940350
vn 0.238362 0.242744 -0.940350
vn 0.238362 0.242744 -0.940350
vn 0.476115 0.768930 0.426686
vn 0.476115 0.768930 0.426686
vn 0.476115 0.768930 0.426686
vn 0.214343 0.940650 -0.263125
vn 0.214343 0.940650 -0.263125
vn 0.214343 0.940650 -0.263125
vn -0.792221 -0.208984 -0.573334
vn -0.792221 -0.208984 -0.573334
vn -0.792221 -0.208984 -0.573334
vn -0.995750 0.087307 0.029334
vn -0.995750 0.087307 0.029334
vn -0.995750 0.087307 0.029334
vn -0.995750 0.087307 0.029334
vn 0.238362 0.242744 -0.940350
vn 0.238362 0.242744 -0.940350
vn 0.136964 0.284998 -0.948692
vn 0.136964 0.284998 -0.948692
vn -0.995750 0.087307 0.029334
vn -0.877975 0.433656 -0.202737
vn -0.877975 0.433656 -0.202737
vn 0.214343 0.940650 -0.263125
vn 0.214343 0.940650 -0.263125
vn 0.998369 -0.019122 0.053795
vn 0.998369 -0.019122 0.053795
vn -0.028155 0.242555 0.969729
vn -0.028155 0.242555 0.969729
vn -0.091623 0.294383 0.951286
vn -0.091623 0.294383 0.951286
vn -0.091623 0.294383 0.951286
vn 0.945821 0.322467 -0.037910
vn 0.945821 0.322467 -0.037910
vn 0.945821 0.322467 -0.037910
vn 0.944835 0.325686 -0.034869
vn -0.979569 0.169697 -0.107925
vn -0.979569 0.169697 -0.107925
vn -0.979569 0.169697 -0.107925
vn -0.018761 0.259827 -0.965473
vn -0.018761 0.259827 -0.965473
vn -0.018761 0.259827 -0.965473
vn 0.535158 0.729373 -0.426170
vn 0.535158 0.729373 -0.426170
vn 0.535158 0.729373 -0.426170
vn -0.232910 0.878649 0.416809
vn -0.232910 0.878649 0.416809
vn -0.232910 0.878649 0.416809
vn -0.779323 -0.265903 0.567408
vn -0.779323 -0.265903 0.567408
vn -0.779323 -0.265903 0.567408
vn -0.000000 -1.000000 0.000000
vn -0.000000 -1.000000 0.000000
vn 0.000000 -1.000000 0.000000
vn -0.000000 -1.000000 0.000000
vn 0.945821 0.322467 -0.037910
vn 0.945821 0.322467 -0.037910
vn -0.000000 -1.000000 0.000000
vn -0.000000 -1.000000 0.000000
vn -0.018761 0.259827 -0.965473
vn -0.018761 0.259827 -0.965473
vn -0.232910 0.878649 0.416809
vn -0.232910 0.878649 0.416809
vn -0.979569 0.169697 -0.107925
vn -0.979569 0.169697 -0.107925
vn -0.091623 0.294383 0.951286
vn -0.091623 0.294383 0.951286
s off
g Rock3
usemtl initialShadingGroup
f 1/72/1 2/73/2 4/74/3 3/71/4
f 3/58/5 4/59/6 7/60/7 6/61/8
s 1
f 10/64/9 9/66/10 5/63/11
s 2
f 6/61/12 7/60/13 5/63/14
s off
f 7/60/15 4/59/16 2/62/17 5/63/18
f 8/67/19 9/66/20 10/75/21
s 3
f 10/68/22 6/69/23 8/70/24
f 3/71/25 6/69/23 10/68/22 1/72/26
s 2
f 6/61/12 5/63/14 9/66/27 8/67/28
s 1
f 10/64/9 5/63/11 2/62/29 1/65/30
s off
f 27/1/31 24/2/32 26/3/33
s 4
f 19/4/34 27/1/35 26/3/36
s 5
f 23/5/37 17/6/38 21/7/39
s off
f 13/8/40 16/9/41 15/10/42 11/11/43
s 6
f 12/12/44 23/13/45 22/14/46
s off
f 15/15/47 20/16/48 18/17/49 11/18/50
f 16/19/51 19/4/52 20/20/53 15/21/54
s 7
f 18/17/55 12/12/56 24/2/57
s 8
f 26/3/58 25/22/59 19/4/60
s off
f 21/23/61 22/24/62 23/25/63
s 9
f 21/23/64 12/26/65 22/24/66
s off
f 24/2/67 25/22/68 26/3/69
s 10
f 11/18/70 18/17/71 24/2/72 13/27/73
s 8
f 19/4/60 25/22/59 14/28/74 17/6/75
s 4
f 13/27/76 27/1/35 19/4/34 16/19/77
s 10
f 13/27/73 24/2/72 27/1/78
s 7
f 24/2/57 12/12/56 14/28/79 25/22/80
s 9
f 17/29/81 14/30/82 12/26/65 21/23/64
s 5
f 19/4/83 17/6/38 23/5/37 20/20/84
s 6
f 20/16/85 23/13/45 12/12/44 18/17/86
s 11
f 38/55/87 32/36/88 28/56/89
s 12
f 33/31/90 35/32/91 34/33/92 40/34/93
s 13
f 39/38/94 38/39/95 28/40/96
s 14
f 35/32/97 30/42/98 36/35/99
s off
f 34/33/100 35/32/101 36/35/102
s 15
f 34/44/103 36/45/104 30/46/105
s off
f 37/41/106 38/39/107 39/38/108
s 16
f 29/49/109 33/50/110 40/51/111 39/52/112
s 12
f 40/34/93 34/33/92 32/36/113 31/37/114
s 16
f 39/52/112 40/51/111 31/53/115 37/54/116
s 14
f 29/43/117 30/42/98 35/32/97 33/31/118
s 15
f 34/44/103 30/46/105 28/47/119 32/48/120
s 13
f 39/38/94 28/40/96 30/42/121 29/43/122
s 11
f 31/37/123 32/36/88 38/55/87 37/57/124
